<svg xmlns="http://www.w3.org/2000/svg" xmlns:xlink="http://www.w3.org/1999/xlink" width="100" height="100" viewBox="0 0 100 100">
  <defs>
    <clipPath id="a">
      <path d="M73.3,100H26.7A26.63,26.63,0,0,1,0,73.3V26.7A26.63,26.63,0,0,1,26.7,0H73.4A26.61,26.61,0,0,1,100,26.7V73.4A26.61,26.61,0,0,1,73.3,100Z" fill="none"/>
    </clipPath>
  </defs>
  <title>flag_as_w_saudi_arabia</title>
  <g clip-path="url(#a)">
    <g>
      <g>
        <rect width="100" height="100" fill="#6da544"/>
        <g>
          <path d="M31.13,58.49a5.66,5.66,0,0,0,5.66,5.66h17a4.72,4.72,0,0,0,4.72,4.72h5.66a4.72,4.72,0,0,0,4.72-4.72V58.49Z" fill="#f0f0f0"/>
          <path d="M69.34,31.13V44.34a3.77,3.77,0,0,1-3.77,3.77v5.66A9.44,9.44,0,0,0,75,44.34V31.13Z" fill="#f0f0f0"/>
          <path d="M28.77,44.34A3.77,3.77,0,0,1,25,48.11v5.66a9.44,9.44,0,0,0,9.43-9.43V31.13H28.77Z" fill="#f0f0f0"/>
          <rect x="60.85" y="31.13" width="5.66" height="13.21" fill="#f0f0f0"/>
          <path d="M52.36,38.68a.95.95,0,0,1-1.89,0V31.13H44.81v7.55a.95.95,0,0,1-1.89,0V31.13H37.26v7.55a6.62,6.62,0,0,0,6.61,6.6,6.55,6.55,0,0,0,3.77-1.19,6.55,6.55,0,0,0,3.77,1.19,7.73,7.73,0,0,0,.84-.05,3.78,3.78,0,0,1-3.67,2.88v5.66A9.44,9.44,0,0,0,58,44.34V31.13H52.36v7.55Z" fill="#f0f0f0"/>
          <rect x="37.26" y="48.11" width="8.49" height="5.66" fill="#f0f0f0"/>
        </g>
      </g>
      <g>
        <path d="M10.39,74.25V25.75A26.64,26.64,0,0,1,30.24,0H0V100H30.24A26.66,26.66,0,0,1,10.39,74.25Z" opacity="0.2" style="isolation: isolate"/>
        <path d="M89.61,25.75V74.24A26.64,26.64,0,0,1,69.76,100H100V0H69.76A26.66,26.66,0,0,1,89.61,25.75Z" fill="#fff" opacity="0.1" style="isolation: isolate"/>
      </g>
    </g>
  </g>
</svg>
