<svg xmlns="http://www.w3.org/2000/svg" xmlns:xlink="http://www.w3.org/1999/xlink" width="100" height="100" viewBox="0 0 100 100">
  <defs>
    <clipPath id="a">
      <path d="M73.3,100H26.7A26.63,26.63,0,0,1,0,73.3V26.7A26.63,26.63,0,0,1,26.7,0H73.4A26.61,26.61,0,0,1,100,26.7V73.4A26.61,26.61,0,0,1,73.3,100Z" fill="none"/>
    </clipPath>
  </defs>
  <title>flag_as_s_nepal</title>
  <g clip-path="url(#a)">
    <g>
      <g>
        <rect width="100" height="100" fill="#f0f0f0"/>
        <polygon points="0 100 0 0 54.77 51.2 17.11 51.2 52.97 100 0 100" fill="#0052b4"/>
        <polygon points="47.81 48.21 1.99 5.38 1.99 48.21 1.99 97.01 47.81 97.01 11.95 48.21 47.81 48.21" fill="#d80027"/>
        <g>
          <polygon points="20.86 71.74 17.31 70.07 19.2 66.63 15.34 67.36 14.86 63.47 12.17 66.33 9.48 63.47 8.99 67.36 5.13 66.63 7.03 70.07 3.47 71.74 7.03 73.41 5.13 76.85 8.99 76.11 9.48 80.01 12.17 77.14 14.86 80.01 15.34 76.11 19.2 76.85 17.31 73.41 20.86 71.74" fill="#f0f0f0"/>
          <polygon points="19.41 31.71 16.45 30.32 18.03 27.45 14.81 28.06 14.41 24.81 12.17 27.2 9.93 24.81 9.52 28.06 6.3 27.45 7.88 30.32 4.92 31.71 12.17 33.16 19.41 31.71" fill="#f0f0f0"/>
          <path d="M20.86,31.71a8.7,8.7,0,0,1-17.39,0" fill="#f0f0f0"/>
        </g>
      </g>
      <g>
        <path d="M10.39,74.25V25.75A26.64,26.64,0,0,1,30.24,0H0V100H30.24A26.66,26.66,0,0,1,10.39,74.25Z" opacity="0.2" style="isolation: isolate"/>
        <path d="M89.61,25.75V74.24A26.64,26.64,0,0,1,69.76,100H100V0H69.76A26.66,26.66,0,0,1,89.61,25.75Z" fill="#fff" opacity="0.1" style="isolation: isolate"/>
      </g>
    </g>
  </g>
</svg>
