<svg xmlns="http://www.w3.org/2000/svg" xmlns:xlink="http://www.w3.org/1999/xlink" width="100" height="100" viewBox="0 0 100 100">
  <defs>
    <clipPath id="a">
      <path d="M73.3,100H26.7A26.63,26.63,0,0,1,0,73.3V26.7A26.63,26.63,0,0,1,26.7,0H73.4A26.61,26.61,0,0,1,100,26.7V73.4A26.61,26.61,0,0,1,73.3,100Z" fill="none"/>
    </clipPath>
  </defs>
  <title>flag_oc_poly_niue</title>
  <g clip-path="url(#a)">
    <g>
      <g>
        <rect width="100" height="100" fill="#ffda44"/>
        <rect width="50" height="50" fill="#f0f0f0"/>
        <polygon points="0 29.69 20.31 29.69 20.31 50 29.69 50 29.69 29.69 50 29.69 50 20.31 29.69 20.31 29.69 0 20.31 0 20.31 20.31 0 20.31 0 29.69" fill="#d80027"/>
        <g>
          <polygon points="39.74 32.61 50 42.87 50 32.61 39.74 32.61" fill="#0052b4"/>
          <polygon points="32.61 32.61 50 50 50 45.08 37.53 32.61 32.61 32.61" fill="#0052b4"/>
          <polygon points="45.37 50 32.61 37.24 32.61 50 45.37 50" fill="#0052b4"/>
        </g>
        <polygon points="32.61 32.61 50 50 50 45.08 37.53 32.61 32.61 32.61" fill="#f0f0f0"/>
        <polygon points="32.61 32.61 50 50 50 45.08 37.53 32.61 32.61 32.61" fill="#d80027"/>
        <g>
          <polygon points="7.84 32.61 0 40.45 0 32.61 7.84 32.61" fill="#0052b4"/>
          <polygon points="17.39 34.82 17.39 50 2.21 50 17.39 34.82" fill="#0052b4"/>
        </g>
        <polygon points="12.47 32.61 0 45.08 0 50 0 50 17.39 32.61 12.47 32.61" fill="#d80027"/>
        <g>
          <polygon points="10.26 17.39 0 7.13 0 17.39 10.26 17.39" fill="#0052b4"/>
          <polygon points="17.39 17.39 0 0 0 4.92 12.47 17.39 17.39 17.39" fill="#0052b4"/>
          <polygon points="4.63 0 17.39 12.76 17.39 0 4.63 0" fill="#0052b4"/>
        </g>
        <polygon points="17.39 17.39 0 0 0 4.92 12.47 17.39 17.39 17.39" fill="#f0f0f0"/>
        <polygon points="17.39 17.39 0 0 0 4.92 12.47 17.39 17.39 17.39" fill="#d80027"/>
        <g>
          <polygon points="42.16 17.39 50 9.55 50 17.39 42.16 17.39" fill="#0052b4"/>
          <polygon points="32.61 15.18 32.61 0 47.79 0 32.61 15.18" fill="#0052b4"/>
        </g>
        <polygon points="37.53 17.39 50 4.92 50 0 50 0 32.61 17.39 37.53 17.39" fill="#d80027"/>
        <circle cx="25" cy="25" r="6.15" fill="#2e52b2"/>
        <g>
          <polygon points="25 20.65 26.08 23.97 29.57 23.97 26.75 26.03 27.83 29.35 25 27.3 22.17 29.35 23.25 26.03 20.43 23.97 23.92 23.97 25 20.65" fill="#ffda44"/>
          <polygon points="25 35.45 25.64 37.43 27.72 37.43 26.04 38.66 26.68 40.63 25 39.41 23.32 40.63 23.96 38.66 22.28 37.43 24.36 37.43 25 35.45" fill="#ffda44"/>
          <polygon points="25 9.37 25.64 11.35 27.72 11.35 26.04 12.57 26.68 14.55 25 13.32 23.32 14.55 23.96 12.57 22.28 11.35 24.36 11.35 25 9.37" fill="#ffda44"/>
          <polygon points="40.93 22.41 41.57 24.39 43.65 24.39 41.97 25.61 42.61 27.59 40.93 26.37 39.24 27.59 39.89 25.61 38.2 24.39 40.28 24.39 40.93 22.41" fill="#ffda44"/>
          <polygon points="9.07 22.41 9.72 24.39 11.8 24.39 10.11 25.61 10.76 27.59 9.07 26.37 7.39 27.59 8.03 25.61 6.35 24.39 8.43 24.39 9.07 22.41" fill="#ffda44"/>
        </g>
      </g>
      <g>
        <path d="M10.39,74.25V25.75A26.64,26.64,0,0,1,30.24,0H0V100H30.24A26.66,26.66,0,0,1,10.39,74.25Z" opacity="0.2" style="isolation: isolate"/>
        <path d="M89.61,25.75V74.24A26.64,26.64,0,0,1,69.76,100H100V0H69.76A26.66,26.66,0,0,1,89.61,25.75Z" fill="#fff" opacity="0.1" style="isolation: isolate"/>
      </g>
    </g>
  </g>
</svg>
