<svg xmlns="http://www.w3.org/2000/svg" xmlns:xlink="http://www.w3.org/1999/xlink" width="100" height="100" viewBox="0 0 100 100">
  <defs>
    <clipPath id="a">
      <path d="M73.3,100H26.7A26.63,26.63,0,0,1,0,73.3V26.7A26.63,26.63,0,0,1,26.7,0H73.4A26.61,26.61,0,0,1,100,26.7V73.4A26.61,26.61,0,0,1,73.3,100Z" fill="none"/>
    </clipPath>
  </defs>
  <title>flag_na_cr_turks_and_caicos</title>
  <g clip-path="url(#a)">
    <g>
      <g>
        <rect width="100" height="100" fill="#0052b4"/>
        <path d="M64.86,37V52.9C64.86,60.66,75,63,75,63S85.14,60.66,85.14,52.9V37Z" fill="#ffda44"/>
        <path d="M73.55,42.75c0,1.6-1.3,5.8-2.9,5.8s-2.9-4.2-2.9-5.8,2.9-2.89,2.9-2.89S73.55,41.15,73.55,42.75Z" fill="#ff9811"/>
        <path d="M81.24,45.91a11.93,11.93,0,0,0,.83-3.64c0-1.33-1.74-2.41-1.74-2.41s-1.73,1.08-1.73,2.41a11.93,11.93,0,0,0,.83,3.64l-1,2.27a5.14,5.14,0,0,0,3.83,0Z" fill="#a2001d"/>
        <path d="M72.83,52.9a15,15,0,0,0-1.45,5.8h7.24a15,15,0,0,0-1.45-5.8L75,51.45Z" fill="#6da544"/>
        <path d="M77.17,52.9v-.73a2.17,2.17,0,0,0-4.34,0v.73Z" fill="#d80027"/>
        <polygon points="50 0 50 9.55 42.16 17.39 50 17.39 50 32.61 39.74 32.61 50 42.87 50 50 45.37 50 32.61 37.24 32.61 50 17.39 50 17.39 34.82 2.21 50 0 50 0 40.45 7.84 32.61 0 32.61 0 17.39 10.26 17.39 0 7.13 0 0 4.63 0 17.39 12.76 17.39 0 32.61 0 32.61 15.18 47.79 0 50 0" fill="#f0f0f0"/>
        <polygon points="0 29.69 20.31 29.69 20.31 50 29.69 50 29.69 29.69 50 29.69 50 20.31 29.69 20.31 29.69 0 20.31 0 20.31 20.31 0 20.31 0 29.69" fill="#d80027"/>
        <polygon points="32.61 32.61 50 50 50 45.08 37.53 32.61 32.61 32.61" fill="#0052b4"/>
        <polygon points="32.61 32.61 50 50 50 45.08 37.53 32.61 32.61 32.61" fill="#f0f0f0"/>
        <g>
          <polygon points="32.61 32.61 50 50 50 45.08 37.53 32.61 32.61 32.61" fill="#d80027"/>
          <polygon points="12.47 32.61 0 45.08 0 50 0 50 17.39 32.61 12.47 32.61" fill="#d80027"/>
        </g>
        <polygon points="17.39 17.39 0 0 0 4.92 12.47 17.39 17.39 17.39" fill="#0052b4"/>
        <polygon points="17.39 17.39 0 0 0 4.92 12.47 17.39 17.39 17.39" fill="#f0f0f0"/>
        <g>
          <polygon points="17.39 17.39 0 0 0 4.92 12.47 17.39 17.39 17.39" fill="#d80027"/>
          <polygon points="37.53 17.39 50 4.92 50 0 50 0 32.61 17.39 37.53 17.39" fill="#d80027"/>
        </g>
      </g>
      <g>
        <path d="M10.39,74.25V25.75A26.64,26.64,0,0,1,30.24,0H0V100H30.24A26.66,26.66,0,0,1,10.39,74.25Z" opacity="0.2" style="isolation: isolate"/>
        <path d="M89.61,25.75V74.24A26.64,26.64,0,0,1,69.76,100H100V0H69.76A26.66,26.66,0,0,1,89.61,25.75Z" fill="#fff" opacity="0.1" style="isolation: isolate"/>
      </g>
    </g>
  </g>
</svg>
