<?xml version="1.0" encoding="utf-8"?>
<!-- Generator: Adobe Illustrator 23.0.0, SVG Export Plug-In . SVG Version: 6.00 Build 0)  -->
<svg version="1.0" id="Layer_1" xmlns="http://www.w3.org/2000/svg" xmlns:xlink="http://www.w3.org/1999/xlink" x="0px" y="0px"
	 viewBox="0 0 100 100" enable-background="new 0 0 100 100" xml:space="preserve">
<g>
	<defs>
		<path id="SVGID_1_" d="M73.3,100H26.7C12,100,0,88.1,0,73.4c0,0,0-0.1,0-0.1V26.7C0,12,11.9,0,26.6,0c0,0,0.1,0,0.1,0h46.7
			C88.1,0,100,11.9,100,26.6c0,0,0,0.1,0,0.1v46.7C100,88.1,88.1,100,73.3,100C73.4,100,73.3,100,73.3,100z"/>
	</defs>
	<clipPath id="SVGID_2_">
		<use xlink:href="#SVGID_1_"  overflow="visible"/>
	</clipPath>
	<g clip-path="url(#SVGID_2_)">
		<rect fill="#003399" width="100" height="100"/>
		<g transform="scale(30)translate(13.5,9)">
			<polygon fill="#FFCC00" points="-11.9,-8.2 -11.9,-8.1 -11.8,-8.2 -11.7,-8.1 -11.8,-8.2 -11.7,-8.3 -11.8,-8.3 -11.8,-8.4 
				-11.9,-8.3 -12,-8.3 			"/>
			<polygon fill="#FFCC00" points="-11.8,-6.5 -11.8,-6.6 -11.9,-6.5 -12,-6.5 -11.9,-6.4 -11.9,-6.3 -11.8,-6.4 -11.7,-6.3 
				-11.8,-6.4 -11.7,-6.5 			"/>
			<polygon fill="#FFCC00" points="-12.7,-7.3 -12.7,-7.2 -12.7,-7.3 -12.6,-7.4 -12.7,-7.4 -12.7,-7.5 -12.8,-7.4 -12.9,-7.4 
				-12.8,-7.3 -12.8,-7.2 			"/>
			<polygon fill="#FFCC00" points="-12.3,-8.1 -12.4,-8 -12.3,-8.1 -12.2,-8 -12.2,-8.1 -12.1,-8.2 -12.3,-8.2 -12.3,-8.3 
				-12.3,-8.2 -12.4,-8.2 			"/>
			<polygon fill="#FFCC00" points="-12.6,-7.9 -12.7,-7.8 -12.8,-7.8 -12.7,-7.8 -12.7,-7.7 -12.6,-7.7 -12.5,-7.7 -12.6,-7.8 
				-12.5,-7.8 -12.6,-7.8 			"/>
			<polygon fill="#FFCC00" points="-12.6,-6.9 -12.6,-7 -12.7,-6.9 -12.8,-6.9 -12.7,-6.9 -12.7,-6.8 -12.6,-6.8 -12.5,-6.8 
				-12.6,-6.9 -12.5,-6.9 			"/>
			<polygon fill="#FFCC00" points="-12.3,-6.6 -12.3,-6.7 -12.3,-6.6 -12.4,-6.6 -12.3,-6.5 -12.4,-6.4 -12.3,-6.5 -12.2,-6.4 
				-12.2,-6.5 -12.1,-6.6 			"/>
			<polygon fill="#FFCC00" points="-10.8,-7.4 -10.9,-7.4 -10.9,-7.5 -11,-7.4 -11.1,-7.4 -11,-7.3 -11,-7.2 -10.9,-7.3 -10.8,-7.2 
				-10.9,-7.3 			"/>
			<polygon fill="#FFCC00" points="-11.4,-8.3 -11.4,-8.2 -11.5,-8.2 -11.4,-8.1 -11.5,-8 -11.4,-8.1 -11.3,-8 -11.3,-8.1 
				-11.2,-8.2 -11.3,-8.2 			"/>
			<polygon fill="#FFCC00" points="-11.1,-7.8 -11.1,-7.7 -11,-7.7 -11,-7.7 -11,-7.8 -10.9,-7.8 -11,-7.8 -11,-7.9 -11.1,-7.8 
				-11.2,-7.8 			"/>
			<polygon fill="#FFCC00" points="-11,-6.9 -11,-7 -11.1,-6.9 -11.2,-6.9 -11.1,-6.9 -11.1,-6.8 -11,-6.8 -11,-6.8 -11,-6.9 
				-10.9,-6.9 			"/>
			<polygon fill="#FFCC00" points="-11.3,-6.6 -11.4,-6.7 -11.4,-6.6 -11.5,-6.6 -11.4,-6.5 -11.5,-6.4 -11.4,-6.5 -11.3,-6.4 
				-11.3,-6.5 -11.2,-6.6 			"/>
		</g>
		<g>
			<path opacity="0.2" enable-background="new    " d="M10.4,74.3V25.8c0-12.1,8.2-22.7,19.8-25.8H0v100h30.2
				C18.5,96.9,10.4,86.3,10.4,74.3z"/>
			<path opacity="0.1" fill="#FFFFFF" enable-background="new    " d="M89.6,25.8v48.5c0,12.1-8.2,22.7-19.8,25.8H100V0H69.8
				C81.5,3.1,89.6,13.7,89.6,25.8z"/>
		</g>
	</g>
</g>
</svg>
