<svg xmlns="http://www.w3.org/2000/svg" xmlns:xlink="http://www.w3.org/1999/xlink" width="100" height="100" viewBox="0 0 100 100">
  <defs>
    <clipPath id="a">
      <path d="M73.3,100H26.7A26.63,26.63,0,0,1,0,73.3V26.7A26.63,26.63,0,0,1,26.7,0H73.4A26.61,26.61,0,0,1,100,26.7V73.4A26.61,26.61,0,0,1,73.3,100Z" fill="none"/>
    </clipPath>
  </defs>
  <title>flag_eu_s_san_marino</title>
  <g clip-path="url(#a)">
    <g>
      <g>
        <rect width="100" height="100" fill="#338af3"/>
        <polygon points="100 0 100 48.83 0 50.05 0 0 100 0" fill="#f0f0f0"/>
        <path d="M66.13,37.41,50,53.53,33.87,37.41a19.33,19.33,0,0,0-3.3,10.82v5.3A19.46,19.46,0,0,0,43.7,71.91a5.88,5.88,0,0,0,.64,6.35l5.78-4.63,5.77,4.63a5.87,5.87,0,0,0,.61-6.42A19.45,19.45,0,0,0,69.43,53.53v-5.3A19.33,19.33,0,0,0,66.13,37.41Z" fill="#6da544"/>
        <path d="M50,67.66A14.15,14.15,0,0,1,35.87,53.53v-5.3a14.13,14.13,0,1,1,28.26,0v5.3A14.15,14.15,0,0,1,50,67.66Z" fill="#ffda44"/>
        <path d="M58.83,53.53v-5.3a8.83,8.83,0,1,0-17.66,0v5.3L50,55.3Z" fill="#338af3"/>
        <path d="M41.17,53.53h0a8.83,8.83,0,0,0,17.66,0H41.17Z" fill="#6da544"/>
        <path d="M60.6,34.1a5.3,5.3,0,0,0-8.83-4V27h1.76V23.51H51.77V21.74H48.23v1.77H46.47V27h1.76v3.11a5.3,5.3,0,1,0-7.06,7.9v3.12H58.83V38.05A5.27,5.27,0,0,0,60.6,34.1Z" fill="#ffda44"/>
      </g>
      <g>
        <path d="M10.39,74.25V25.75A26.64,26.64,0,0,1,30.24,0H0V100H30.24A26.66,26.66,0,0,1,10.39,74.25Z" opacity="0.2" style="isolation: isolate"/>
        <path d="M89.61,25.75V74.24A26.64,26.64,0,0,1,69.76,100H100V0H69.76A26.66,26.66,0,0,1,89.61,25.75Z" fill="#fff" opacity="0.1" style="isolation: isolate"/>
      </g>
    </g>
  </g>
</svg>
