<svg xmlns="http://www.w3.org/2000/svg" xmlns:xlink="http://www.w3.org/1999/xlink" width="100" height="100" viewBox="0 0 100 100">
  <defs>
    <clipPath id="a">
      <path d="M73.3,100H26.7A26.63,26.63,0,0,1,0,73.3V26.7A26.63,26.63,0,0,1,26.7,0H73.4A26.61,26.61,0,0,1,100,26.7V73.4A26.61,26.61,0,0,1,73.3,100Z" fill="none"/>
    </clipPath>
  </defs>
  <title>flag_as_w_bahrain</title>
  <g clip-path="url(#a)">
    <g>
      <g>
        <rect x="0.43" width="99.57" height="100" fill="#d80027"/>
        <polygon points="40.91 20.27 31.1 27.71 40.91 35.14 31.1 42.57 40.91 50 31.1 57.44 40.91 64.87 31.1 72.31 40.91 79.74 31.1 87.17 40.91 94.61 33.79 100 0 100 0 0 33.78 0 40.91 5.4 31.1 12.84 40.91 20.27" fill="#f0f0f0"/>
      </g>
      <g>
        <path d="M10.39,74.25V25.75A26.64,26.64,0,0,1,30.24,0H0V100H30.24A26.66,26.66,0,0,1,10.39,74.25Z" opacity="0.2" style="isolation: isolate"/>
        <path d="M89.61,25.75V74.24A26.64,26.64,0,0,1,69.76,100H100V0H69.76A26.66,26.66,0,0,1,89.61,25.75Z" fill="#fff" opacity="0.1" style="isolation: isolate"/>
      </g>
    </g>
  </g>
</svg>
