<svg xmlns="http://www.w3.org/2000/svg" xmlns:xlink="http://www.w3.org/1999/xlink" width="100" height="100" viewBox="0 0 100 100">
  <defs>
    <clipPath id="a">
      <path d="M73.3,100H26.7A26.63,26.63,0,0,1,0,73.3V26.7A26.63,26.63,0,0,1,26.7,0H73.4A26.61,26.61,0,0,1,100,26.7V73.4A26.61,26.61,0,0,1,73.3,100Z" fill="none"/>
    </clipPath>
  </defs>
  <title>flag_af_w_burundi</title>
  <g clip-path="url(#a)">
    <g>
      <g>
        <rect width="100" height="100" fill="#d80027"/>
        <g>
          <polygon points="42.16 50 0 92.16 0 7.84 42.16 50" fill="#6da544"/>
          <polygon points="100 7.84 100 92.16 57.84 50 100 7.84" fill="#6da544"/>
        </g>
        <polygon points="100 7.84 57.84 50 100 92.16 100 100 92.16 100 50 57.84 7.84 100 0 100 0 92.16 42.16 50 0 7.84 0 0 7.84 0 50 42.16 92.16 0 100 0 100 7.84" fill="#0052b4"/>
        <g>
          <polygon points="100 7.84 57.84 50 100 92.16 100 100 92.16 100 50 57.84 7.84 100 0 100 0 92.16 42.16 50 0 7.84 0 0 7.84 0 50 42.16 92.16 0 100 0 100 7.84" fill="#f0f0f0"/>
          <circle cx="50" cy="50" r="14.49" fill="#f0f0f0"/>
        </g>
        <g>
          <polygon points="50 39.85 51.26 42.03 53.77 42.03 52.51 44.2 53.77 46.38 51.26 46.38 50 48.55 48.74 46.38 46.23 46.38 47.49 44.2 46.23 42.03 48.74 42.03 50 39.85" fill="#d80027"/>
          <polygon points="43.62 50 44.88 52.17 47.39 52.17 46.13 54.35 47.39 56.52 44.88 56.52 43.62 58.7 42.37 56.52 39.85 56.52 41.11 54.35 39.85 52.17 42.37 52.17 43.62 50" fill="#d80027"/>
          <polygon points="56.38 50 57.63 52.17 60.15 52.17 58.89 54.35 60.15 56.52 57.63 56.52 56.38 58.7 55.13 56.52 52.61 56.52 53.87 54.35 52.61 52.17 55.13 52.17 56.38 50" fill="#d80027"/>
        </g>
      </g>
      <g>
        <path d="M10.39,74.25V25.75A26.64,26.64,0,0,1,30.24,0H0V100H30.24A26.66,26.66,0,0,1,10.39,74.25Z" opacity="0.2" style="isolation: isolate"/>
        <path d="M89.61,25.75V74.24A26.64,26.64,0,0,1,69.76,100H100V0H69.76A26.66,26.66,0,0,1,89.61,25.75Z" fill="#fff" opacity="0.1" style="isolation: isolate"/>
      </g>
    </g>
  </g>
</svg>
