<svg xmlns="http://www.w3.org/2000/svg" xmlns:xlink="http://www.w3.org/1999/xlink" width="100" height="100" viewBox="0 0 100 100">
  <defs>
    <clipPath id="a">
      <path d="M73.3,100H26.7A26.63,26.63,0,0,1,0,73.3V26.7A26.63,26.63,0,0,1,26.7,0H73.4A26.61,26.61,0,0,1,100,26.7V73.4A26.61,26.61,0,0,1,73.3,100Z" fill="none"/>
    </clipPath>
  </defs>
  <title>flag_as_c_uzbekistn</title>
  <g clip-path="url(#a)">
    <g>
      <g>
        <rect width="100" height="100" fill="#d80027"/>
        <rect width="100" height="35.51" fill="#338af3"/>
        <rect y="64.49" width="100" height="35.51" fill="#6da544"/>
        <g>
          <path d="M33.87,22.52a8,8,0,0,1,6.28-7.81,8,8,0,1,0,0,15.63A8,8,0,0,1,33.87,22.52Z" fill="#f0f0f0"/>
          <polygon points="44.88 26.16 45.43 27.83 47.18 27.83 45.76 28.86 46.3 30.53 44.88 29.5 43.47 30.53 44.01 28.86 42.59 27.83 44.34 27.83 44.88 26.16" fill="#f0f0f0"/>
          <polygon points="50.48 26.16 51.02 27.83 52.78 27.83 51.36 28.86 51.9 30.53 50.48 29.5 49.06 30.53 49.6 28.86 48.19 27.83 49.94 27.83 50.48 26.16" fill="#f0f0f0"/>
          <polygon points="56.08 26.16 56.62 27.83 58.37 27.83 56.95 28.86 57.5 30.53 56.08 29.5 54.66 30.53 55.2 28.86 53.78 27.83 55.53 27.83 56.08 26.16" fill="#f0f0f0"/>
          <polygon points="61.67 26.16 62.22 27.83 63.97 27.83 62.55 28.86 63.09 30.53 61.67 29.5 60.26 30.53 60.8 28.86 59.38 27.83 61.13 27.83 61.67 26.16" fill="#f0f0f0"/>
          <polygon points="67.27 26.16 67.81 27.83 69.56 27.83 68.15 28.86 68.69 30.53 67.27 29.5 65.85 30.53 66.39 28.86 64.97 27.83 66.73 27.83 67.27 26.16" fill="#f0f0f0"/>
          <polygon points="50.48 20.34 51.02 22.01 52.78 22.01 51.36 23.04 51.9 24.71 50.48 23.68 49.06 24.71 49.6 23.04 48.19 22.01 49.94 22.01 50.48 20.34" fill="#f0f0f0"/>
          <polygon points="56.08 20.34 56.62 22.01 58.37 22.01 56.95 23.04 57.5 24.71 56.08 23.68 54.66 24.71 55.2 23.04 53.78 22.01 55.53 22.01 56.08 20.34" fill="#f0f0f0"/>
          <polygon points="61.67 20.34 62.22 22.01 63.97 22.01 62.55 23.04 63.09 24.71 61.67 23.68 60.26 24.71 60.8 23.04 59.38 22.01 61.13 22.01 61.67 20.34" fill="#f0f0f0"/>
          <polygon points="67.27 20.34 67.81 22.01 69.56 22.01 68.15 23.04 68.69 24.71 67.27 23.68 65.85 24.71 66.39 23.04 64.97 22.01 66.73 22.01 67.27 20.34" fill="#f0f0f0"/>
          <polygon points="56.08 14.52 56.62 16.19 58.37 16.19 56.95 17.22 57.5 18.89 56.08 17.86 54.66 18.89 55.2 17.22 53.78 16.19 55.53 16.19 56.08 14.52" fill="#f0f0f0"/>
          <polygon points="61.67 14.52 62.22 16.19 63.97 16.19 62.55 17.22 63.09 18.89 61.67 17.86 60.26 18.89 60.8 17.22 59.38 16.19 61.13 16.19 61.67 14.52" fill="#f0f0f0"/>
          <polygon points="67.27 14.52 67.81 16.19 69.56 16.19 68.15 17.22 68.69 18.89 67.27 17.86 65.85 18.89 66.39 17.22 64.97 16.19 66.73 16.19 67.27 14.52" fill="#f0f0f0"/>
          <rect y="39.13" width="100" height="21.74" fill="#f0f0f0"/>
        </g>
      </g>
      <g>
        <path d="M10.39,74.25V25.75A26.64,26.64,0,0,1,30.24,0H0V100H30.24A26.66,26.66,0,0,1,10.39,74.25Z" opacity="0.2" style="isolation: isolate"/>
        <path d="M89.61,25.75V74.24A26.64,26.64,0,0,1,69.76,100H100V0H69.76A26.66,26.66,0,0,1,89.61,25.75Z" fill="#fff" opacity="0.1" style="isolation: isolate"/>
      </g>
    </g>
  </g>
</svg>
