<svg xmlns="http://www.w3.org/2000/svg" xmlns:xlink="http://www.w3.org/1999/xlink" width="100" height="100" viewBox="0 0 100 100">
  <defs>
    <clipPath id="a">
      <path d="M73.3,100H26.7A26.63,26.63,0,0,1,0,73.3V26.7A26.63,26.63,0,0,1,26.7,0H73.4A26.61,26.61,0,0,1,100,26.7V73.4A26.61,26.61,0,0,1,73.3,100Z" fill="none"/>
    </clipPath>
  </defs>
  <title>flag_as_c_kyrgyzstan</title>
  <g clip-path="url(#a)">
    <g>
      <g>
        <rect width="100" height="100" fill="#d80027"/>
        <polygon points="72.85 50 63.52 54.39 68.49 63.44 58.35 61.5 57.06 71.74 50 64.21 42.94 71.74 41.65 61.5 31.51 63.44 36.48 54.39 27.15 50 36.48 45.61 31.51 36.56 41.65 38.5 42.94 28.26 50 35.79 57.06 28.26 58.35 38.5 68.49 36.56 63.52 45.61 72.85 50" fill="#ffda44"/>
        <circle cx="50" cy="50" r="14.22" fill="#d80027"/>
        <g>
          <path d="M42.89,50c-.34,0-.68,0-1,0a8.11,8.11,0,0,0,1.91,5.17,14.15,14.15,0,0,1,2.74-4.55A10.17,10.17,0,0,0,42.89,50Z" fill="#ffda44"/>
          <path d="M47.27,57.65a8,8,0,0,0,5.46,0A10.1,10.1,0,0,0,50,52.91,10.15,10.15,0,0,0,47.27,57.65Z" fill="#ffda44"/>
          <path d="M57,45.94a8.12,8.12,0,0,0-14.08,0,14.13,14.13,0,0,1,7,1.91A14.13,14.13,0,0,1,57,45.94Z" fill="#ffda44"/>
          <path d="M53.48,50.67a14.15,14.15,0,0,1,2.74,4.55,8.11,8.11,0,0,0,1.91-5.17c-.34,0-.68,0-1,0A10.17,10.17,0,0,0,53.48,50.67Z" fill="#ffda44"/>
        </g>
      </g>
      <g>
        <path d="M10.39,74.25V25.75A26.64,26.64,0,0,1,30.24,0H0V100H30.24A26.66,26.66,0,0,1,10.39,74.25Z" opacity="0.2" style="isolation: isolate"/>
        <path d="M89.61,25.75V74.24A26.64,26.64,0,0,1,69.76,100H100V0H69.76A26.66,26.66,0,0,1,89.61,25.75Z" fill="#fff" opacity="0.1" style="isolation: isolate"/>
      </g>
    </g>
  </g>
</svg>
