<svg xmlns="http://www.w3.org/2000/svg" xmlns:xlink="http://www.w3.org/1999/xlink" width="100" height="100" viewBox="0 0 100 100">
  <defs>
    <clipPath id="a">
      <path d="M73.3,100H26.7A26.63,26.63,0,0,1,0,73.3V26.7A26.63,26.63,0,0,1,26.7,0H73.4A26.61,26.61,0,0,1,100,26.7V73.4A26.61,26.61,0,0,1,73.3,100Z" fill="none"/>
    </clipPath>
  </defs>
  <title>flag_sa_brazil</title>
  <g clip-path="url(#a)">
    <g>
      <g>
        <rect width="100" height="100" fill="#6da544"/>
        <polygon points="50 22.37 87.5 50 50 77.63 12.5 50 50 22.37" fill="#ffda44"/>
        <circle cx="50" cy="50" r="15.79" fill="#f0f0f0"/>
        <g>
          <path d="M42.11,49a26.35,26.35,0,0,0-7.89,1.2,15.78,15.78,0,0,0,28.71,8.85A26.61,26.61,0,0,0,42.11,49Z" fill="#0052b4"/>
          <path d="M65.5,53a16,16,0,0,0,.29-3,15.79,15.79,0,0,0-30.3-6.23,32.82,32.82,0,0,1,6.62-.68A32.45,32.45,0,0,1,65.5,53Z" fill="#0052b4"/>
        </g>
      </g>
      <g>
        <path d="M10.39,74.25V25.75A26.64,26.64,0,0,1,30.24,0H0V100H30.24A26.66,26.66,0,0,1,10.39,74.25Z" opacity="0.2" style="isolation: isolate"/>
        <path d="M89.61,25.75V74.24A26.64,26.64,0,0,1,69.76,100H100V0H69.76A26.66,26.66,0,0,1,89.61,25.75Z" fill="#fff" opacity="0.1" style="isolation: isolate"/>
      </g>
    </g>
  </g>
</svg>
