<svg xmlns="http://www.w3.org/2000/svg" xmlns:xlink="http://www.w3.org/1999/xlink" width="100" height="100" viewBox="0 0 100 100">
  <defs>
    <clipPath id="a">
      <path d="M73.3,100H26.7A26.63,26.63,0,0,1,0,73.3V26.7A26.63,26.63,0,0,1,26.7,0H73.4A26.61,26.61,0,0,1,100,26.7V73.4A26.61,26.61,0,0,1,73.3,100Z" fill="none"/>
    </clipPath>
  </defs>
  <title>flag_na_cr_st_barts_or_saint_barthélemy</title>
  <g clip-path="url(#a)">
    <g>
      <g>
        <rect width="100" height="100" fill="#f0f0f0"/>
        <g>
          <path d="M83.66,41.62H69.57A4.66,4.66,0,0,0,64.91,37l-3.73,7.45s4,11.18,3.85,11.18h4.66a4.66,4.66,0,0,0,4.66-4.66A4.66,4.66,0,0,0,79,46.27h-.16A4.79,4.79,0,0,0,83.66,41.62Z" fill="#acabb1"/>
          <path d="M16.34,41.62H30.43A4.66,4.66,0,0,1,35.09,37l3.73,7.45s-4,11.18-3.85,11.18H30.31a4.66,4.66,0,0,1-4.66-4.66A4.66,4.66,0,0,1,21,46.27h.16A4.79,4.79,0,0,1,16.34,41.62Z" fill="#acabb1"/>
        </g>
        <polygon points="64.91 66.77 64.91 68.63 35.09 68.63 35.09 66.77 27.64 66.77 27.64 74.22 35.09 74.22 35.09 76.09 64.91 76.09 64.91 74.22 72.36 74.22 72.36 66.77 64.91 66.77" fill="#ffda44"/>
        <path d="M35.09,37V55.59C35.09,67,50,70.5,50,70.5S64.91,67,64.91,55.59V37L50,35.09Z" fill="#0052b4"/>
        <rect x="35.09" y="44.41" width="29.81" height="11.18" fill="#d80027"/>
        <polygon points="57.45 27.64 57.45 30.43 55.59 31.37 53.73 29.5 53.73 23.91 46.27 23.91 46.27 29.5 44.41 31.37 42.55 30.43 42.55 27.64 35.09 27.64 35.09 36.96 64.91 36.96 64.91 27.64 57.45 27.64" fill="#ffda44"/>
      </g>
      <g>
        <path d="M10.39,74.25V25.75A26.64,26.64,0,0,1,30.24,0H0V100H30.24A26.66,26.66,0,0,1,10.39,74.25Z" opacity="0.2" style="isolation: isolate"/>
        <path d="M89.61,25.75V74.24A26.64,26.64,0,0,1,69.76,100H100V0H69.76A26.66,26.66,0,0,1,89.61,25.75Z" fill="#fff" opacity="0.1" style="isolation: isolate"/>
      </g>
    </g>
  </g>
</svg>
