<svg xmlns="http://www.w3.org/2000/svg" xmlns:xlink="http://www.w3.org/1999/xlink" width="100" height="100" viewBox="0 0 100 100">
  <defs>
    <clipPath id="a">
      <path d="M73.3,100H26.7A26.63,26.63,0,0,1,0,73.3V26.7A26.63,26.63,0,0,1,26.7,0H73.4A26.61,26.61,0,0,1,100,26.7V73.4A26.61,26.61,0,0,1,73.3,100Z" fill="none"/>
    </clipPath>
  </defs>
  <title>flag_as_w_jordan</title>
  <g clip-path="url(#a)">
    <g>
      <g>
        <rect width="100" height="100" fill="#f0f0f0"/>
        <rect width="100" height="33.33"/>
        <rect y="66.67" width="100" height="33.33" fill="#6da544"/>
        <polygon points="0 100 50 50 0 0 0 100" fill="#d80027"/>
        <polygon points="15.22 37.81 18.29 44.25 25.24 42.64 22.13 49.06 27.72 53.49 20.76 55.05 20.78 62.19 15.22 57.72 9.65 62.19 9.67 55.05 2.72 53.49 8.3 49.06 5.19 42.64 12.14 44.25 15.22 37.81" fill="#f0f0f0"/>
      </g>
      <g>
        <path d="M10.39,74.25V25.75A26.64,26.64,0,0,1,30.24,0H0V100H30.24A26.66,26.66,0,0,1,10.39,74.25Z" opacity="0.2" style="isolation: isolate"/>
        <path d="M89.61,25.75V74.24A26.64,26.64,0,0,1,69.76,100H100V0H69.76A26.66,26.66,0,0,1,89.61,25.75Z" fill="#fff" opacity="0.1" style="isolation: isolate"/>
      </g>
    </g>
  </g>
</svg>
