<svg xmlns="http://www.w3.org/2000/svg" xmlns:xlink="http://www.w3.org/1999/xlink" width="100" height="100" viewBox="0 0 100 100">
  <defs>
    <clipPath id="a">
      <path d="M73.3,100H26.7A26.63,26.63,0,0,1,0,73.3V26.7A26.63,26.63,0,0,1,26.7,0H73.4A26.61,26.61,0,0,1,100,26.7V73.4A26.61,26.61,0,0,1,73.3,100Z" fill="none"/>
    </clipPath>
  </defs>
  <title>flag_oc_poly_french_polynesia</title>
  <g clip-path="url(#a)">
    <g>
      <g>
        <rect width="100" height="100" fill="#f0f0f0"/>
        <g>
          <rect width="100" height="33.33" fill="#d80027"/>
          <rect y="66.67" width="100" height="33.33" fill="#d80027"/>
        </g>
        <path d="M63,50c0,7.2-5.84,11.41-13,11.41S37,57.2,37,50A13,13,0,0,1,63,50Z" fill="#ffda44"/>
        <path d="M63,50A13,13,0,0,1,37,50" fill="#0052b4"/>
        <g>
          <rect x="41.85" y="46.74" width="3.26" height="6.52" fill="#d80027"/>
          <rect x="54.89" y="46.74" width="3.26" height="6.52" fill="#d80027"/>
          <rect x="48.37" y="41.85" width="3.26" height="11.41" fill="#d80027"/>
        </g>
      </g>
      <g>
        <path d="M10.39,74.25V25.75A26.64,26.64,0,0,1,30.24,0H0V100H30.24A26.66,26.66,0,0,1,10.39,74.25Z" opacity="0.2" style="isolation: isolate"/>
        <path d="M89.61,25.75V74.24A26.64,26.64,0,0,1,69.76,100H100V0H69.76A26.66,26.66,0,0,1,89.61,25.75Z" fill="#fff" opacity="0.1" style="isolation: isolate"/>
      </g>
    </g>
  </g>
</svg>
