<svg xmlns="http://www.w3.org/2000/svg" xmlns:xlink="http://www.w3.org/1999/xlink" width="100" height="100" viewBox="0 0 100 100">
  <defs>
    <clipPath id="a">
      <path d="M73.3,100H26.7A26.63,26.63,0,0,1,0,73.3V26.7A26.63,26.63,0,0,1,26.7,0H73.4A26.61,26.61,0,0,1,100,26.7V73.4A26.61,26.61,0,0,1,73.3,100Z" fill="none"/>
    </clipPath>
  </defs>
  <title>flag_sa_uruguay</title>
  <g clip-path="url(#a)">
    <g>
      <g>
        <rect width="100" height="100" fill="#f0f0f0"/>
        <g>
          <rect width="100" height="12.5" fill="#338af3"/>
          <rect y="25" width="100" height="12.5" fill="#338af3"/>
          <rect y="75" width="100" height="12.5" fill="#338af3"/>
          <rect y="50" width="100" height="12.5" fill="#338af3"/>
        </g>
        <rect width="50" height="50" fill="#f0f0f0"/>
        <polygon points="38.59 25 33.03 27.61 35.99 32.99 29.96 31.84 29.2 37.92 25 33.45 20.8 37.92 20.04 31.84 14.01 32.99 16.96 27.61 11.41 25 16.96 22.39 14.01 17.01 20.04 18.16 20.8 12.07 25 16.55 29.2 12.07 29.96 18.16 35.99 17.01 33.03 22.39 38.59 25" fill="#ffda44"/>
      </g>
      <g>
        <path d="M10.39,74.25V25.75A26.64,26.64,0,0,1,30.24,0H0V100H30.24A26.66,26.66,0,0,1,10.39,74.25Z" opacity="0.2" style="isolation: isolate"/>
        <path d="M89.61,25.75V74.24A26.64,26.64,0,0,1,69.76,100H100V0H69.76A26.66,26.66,0,0,1,89.61,25.75Z" fill="#fff" opacity="0.1" style="isolation: isolate"/>
      </g>
    </g>
  </g>
</svg>
