<svg xmlns="http://www.w3.org/2000/svg" xmlns:xlink="http://www.w3.org/1999/xlink" width="100" height="100" viewBox="0 0 100 100">
  <defs>
    <clipPath id="a">
      <path d="M73.3,100H26.7A26.63,26.63,0,0,1,0,73.3V26.7A26.63,26.63,0,0,1,26.7,0H73.4A26.61,26.61,0,0,1,100,26.7V73.4A26.61,26.61,0,0,1,73.3,100Z" fill="none"/>
    </clipPath>
  </defs>
  <title>flag_na_usa</title>
  <g clip-path="url(#a)">
    <g>
      <rect width="100" height="100" fill="#f0f0f0"/>
      <rect y="88.89" width="100" height="11.11" fill="#d80027"/>
      <rect y="66.67" width="100" height="11.11" fill="#d80027"/>
      <rect y="44.44" width="100" height="11.11" fill="#d80027"/>
      <rect y="22.22" width="100" height="11.11" fill="#d80027"/>
      <rect width="100" height="11.11" fill="#d80027"/>
      <rect width="50" height="55.56" fill="#2e52b2"/>
      <g>
        <polygon points="19.81 47.14 18.85 44.17 17.89 47.14 14.77 47.14 17.29 48.97 16.33 51.93 18.85 50.1 21.37 51.93 20.41 48.97 22.93 47.14 19.81 47.14" fill="#f0f0f0"/>
        <polygon points="7.52 47.14 6.55 44.17 5.59 47.14 2.47 47.14 5 48.97 4.03 51.93 6.55 50.1 9.07 51.93 8.11 48.97 10.63 47.14 7.52 47.14" fill="#f0f0f0"/>
        <polygon points="32.11 47.14 31.15 44.17 30.19 47.14 27.07 47.14 29.59 48.97 28.63 51.93 31.15 50.1 33.67 51.93 32.71 48.97 35.23 47.14 32.11 47.14" fill="#f0f0f0"/>
        <polygon points="44.41 47.14 43.45 44.17 42.48 47.14 39.37 47.14 41.89 48.97 40.92 51.93 43.45 50.1 45.97 51.93 45 48.97 47.53 47.14 44.41 47.14" fill="#f0f0f0"/>
        <polygon points="19.81 6.59 18.85 3.62 17.89 6.59 14.77 6.59 17.29 8.42 16.33 11.38 18.85 9.55 21.37 11.38 20.41 8.42 22.93 6.59 19.81 6.59" fill="#f0f0f0"/>
        <polygon points="7.52 6.59 6.55 3.62 5.59 6.59 2.47 6.59 5 8.42 4.03 11.38 6.55 9.55 9.07 11.38 8.11 8.42 10.63 6.59 7.52 6.59" fill="#f0f0f0"/>
        <polygon points="32.11 6.59 31.15 3.62 30.19 6.59 27.07 6.59 29.59 8.42 28.63 11.38 31.15 9.55 33.67 11.38 32.71 8.42 35.23 6.59 32.11 6.59" fill="#f0f0f0"/>
        <polygon points="44.41 6.59 43.45 3.62 42.48 6.59 39.37 6.59 41.89 8.42 40.92 11.38 43.45 9.55 45.97 11.38 45 8.42 47.53 6.59 44.41 6.59" fill="#f0f0f0"/>
        <polygon points="19.81 20.1 18.85 17.14 17.89 20.1 14.77 20.1 17.29 21.94 16.33 24.9 18.85 23.07 21.37 24.9 20.41 21.94 22.93 20.1 19.81 20.1" fill="#f0f0f0"/>
        <polygon points="7.52 20.1 6.55 17.14 5.59 20.1 2.47 20.1 5 21.94 4.03 24.9 6.55 23.07 9.07 24.9 8.11 21.94 10.63 20.1 7.52 20.1" fill="#f0f0f0"/>
        <polygon points="32.11 20.1 31.15 17.14 30.19 20.1 27.07 20.1 29.59 21.94 28.63 24.9 31.15 23.07 33.67 24.9 32.71 21.94 35.23 20.1 32.11 20.1" fill="#f0f0f0"/>
        <polygon points="44.41 20.1 43.45 17.14 42.48 20.1 39.37 20.1 41.89 21.94 40.92 24.9 43.45 23.07 45.97 24.9 45 21.94 47.53 20.1 44.41 20.1" fill="#f0f0f0"/>
        <polygon points="19.81 33.62 18.85 30.66 17.89 33.62 14.77 33.62 17.29 35.45 16.33 38.41 18.85 36.58 21.37 38.41 20.41 35.45 22.93 33.62 19.81 33.62" fill="#f0f0f0"/>
        <polygon points="7.52 33.62 6.55 30.66 5.59 33.62 2.47 33.62 5 35.45 4.03 38.41 6.55 36.58 9.07 38.41 8.11 35.45 10.63 33.62 7.52 33.62" fill="#f0f0f0"/>
        <polygon points="32.11 33.62 31.15 30.66 30.19 33.62 27.07 33.62 29.59 35.45 28.63 38.41 31.15 36.58 33.67 38.41 32.71 35.45 35.23 33.62 32.11 33.62" fill="#f0f0f0"/>
        <polygon points="44.41 33.62 43.45 30.66 42.48 33.62 39.37 33.62 41.89 35.45 40.92 38.41 43.45 36.58 45.97 38.41 45 35.45 47.53 33.62 44.41 33.62" fill="#f0f0f0"/>
      </g>
      <g>
        <path d="M10.39,74.25V25.75A26.64,26.64,0,0,1,30.24,0H0V100H30.24A26.66,26.66,0,0,1,10.39,74.25Z" opacity="0.2" style="isolation: isolate"/>
        <path d="M89.61,25.75V74.24A26.64,26.64,0,0,1,69.76,100H100V0H69.76A26.66,26.66,0,0,1,89.61,25.75Z" fill="#fff" opacity="0.1" style="isolation: isolate"/>
      </g>
    </g>
  </g>
</svg>
