<?xml version="1.0" encoding="utf-8"?>
<!-- Generator: Adobe Illustrator 23.0.0, SVG Export Plug-In . SVG Version: 6.00 Build 0)  -->
<svg version="1.0" id="Layer_1" xmlns="http://www.w3.org/2000/svg" xmlns:xlink="http://www.w3.org/1999/xlink" x="0px" y="0px"
	 viewBox="0 0 100 100" enable-background="new 0 0 100 100" xml:space="preserve">
<g>
	<defs>
		<path id="SVGID_3_" d="M73.3,99H26.7C12,99,0,87.1,0,72.4c0,0,0-0.1,0-0.1V25.7C0,11,11.9-1,26.6-1c0,0,0.1,0,0.1,0h46.7
			C88.1-1,100,10.9,100,25.6c0,0,0,0.1,0,0.1v46.7C100,87.1,88.1,99,73.3,99C73.4,99,73.3,99,73.3,99z"/>
	</defs>
	<clipPath id="SVGID_1_">
		<use xlink:href="#SVGID_3_"  overflow="visible"/>
	</clipPath>
	<g clip-path="url(#SVGID_1_)">
		<path fill="#009E49" d="M-28,0h166.7v100H-28V0z"/>
		<path fill="#FFFFFF" d="M-28,0l166.7,50L-28,100V0z"/>
		<path fill="#FCD116" d="M-28,4.3L124,50L-28,95.7V4.3z"/>
		<path d="M-28,0l83.3,50L-28,100V0z"/>
		<path fill="#CE1126" d="M-28,5.8L45.6,50L-28,94.2V5.8z"/>
	</g>
	<g clip-path="url(#SVGID_1_)">
		<path opacity="0.2" enable-background="new    " d="M9.4,73.3V24.8C9.4,12.7,17.5,2.1,29.2-1H-1V99h30.2
			C17.5,95.9,9.4,85.3,9.4,73.3z"/>
		<path opacity="0.1" fill="#FFFFFF" enable-background="new    " d="M88.6,24.8v48.5c0,12.1-8.2,22.7-19.8,25.8H99V-1H68.8
			C80.5,2.1,88.6,12.7,88.6,24.8z"/>
	</g>
</g>
</svg>
