<svg xmlns="http://www.w3.org/2000/svg" xmlns:xlink="http://www.w3.org/1999/xlink" width="100" height="100" viewBox="0 0 100 100">
  <defs>
    <clipPath id="a">
      <path d="M73.3,100H26.7A26.63,26.63,0,0,1,0,73.3V26.7A26.63,26.63,0,0,1,26.7,0H73.4A26.61,26.61,0,0,1,100,26.7V73.4A26.61,26.61,0,0,1,73.3,100Z" fill="none"/>
    </clipPath>
  </defs>
  <title>flag_az_cocos_island</title>
  <g clip-path="url(#a)">
    <g>
      <g>
        <rect width="100" height="100" fill="#6da544"/>
        <g>
          <polygon points="69.52 66.21 70.54 68.34 72.84 67.81 71.81 69.93 73.66 71.4 71.36 71.92 71.36 74.28 69.52 72.8 67.68 74.28 67.69 71.92 65.39 71.4 67.24 69.93 66.21 67.81 68.5 68.34 69.52 66.21" fill="#ffda44"/>
          <polygon points="60.05 43.63 61.07 45.76 63.37 45.23 62.34 47.35 64.19 48.82 61.89 49.34 61.89 51.7 60.05 50.22 58.21 51.7 58.22 49.34 55.92 48.82 57.77 47.35 56.74 45.23 59.03 45.76 60.05 43.63" fill="#ffda44"/>
          <polygon points="69.52 30.73 70.54 32.86 72.84 32.32 71.81 34.45 73.66 35.91 71.36 36.43 71.36 38.79 69.52 37.31 67.68 38.79 67.69 36.43 65.39 35.91 67.24 34.45 66.21 32.32 68.5 32.86 69.52 30.73" fill="#ffda44"/>
          <polygon points="77.8 40.4 78.81 42.53 81.11 42 80.08 44.13 81.93 45.59 79.63 46.11 79.64 48.47 77.8 46.99 75.95 48.47 75.96 46.11 73.66 45.59 75.51 44.13 74.48 42 76.78 42.53 77.8 40.4" fill="#ffda44"/>
          <polygon points="71.88 51.7 72.68 54.16 75.27 54.16 73.18 55.68 73.98 58.15 71.88 56.62 69.78 58.15 70.58 55.68 68.49 54.16 71.08 54.16 71.88 51.7" fill="#ffda44"/>
          <path d="M53.71,60.57a10.49,10.49,0,1,1,0-21,10.34,10.34,0,0,1,5,1.26,12.9,12.9,0,1,0,0,18.45A10.46,10.46,0,0,1,53.71,60.57Z" fill="#ffda44"/>
          <path d="M35.9,27.5a6.45,6.45,0,0,0-11.17,0Z" fill="#ffda44"/>
          <path d="M35.93,27.54l-5.61,5.61-5.61-5.61a6.38,6.38,0,0,0-.84,3.19,6.45,6.45,0,1,0,12.06-3.19Z" fill="#ffda44"/>
        </g>
        <path d="M28.71,31.53V37a6.58,6.58,0,0,0,3.22,0V31.53Z" fill="#a2001d"/>
      </g>
      <g>
        <path d="M10.39,74.25V25.75A26.64,26.64,0,0,1,30.24,0H0V100H30.24A26.66,26.66,0,0,1,10.39,74.25Z" opacity="0.2" style="isolation: isolate"/>
        <path d="M89.61,25.75V74.24A26.64,26.64,0,0,1,69.76,100H100V0H69.76A26.66,26.66,0,0,1,89.61,25.75Z" fill="#fff" opacity="0.1" style="isolation: isolate"/>
      </g>
    </g>
  </g>
</svg>
