<svg xmlns="http://www.w3.org/2000/svg" xmlns:xlink="http://www.w3.org/1999/xlink" width="100" height="100" viewBox="0 0 100 100">
  <defs>
    <clipPath id="a">
      <path d="M73.3,100H26.7A26.63,26.63,0,0,1,0,73.3V26.7A26.63,26.63,0,0,1,26.7,0H73.4A26.61,26.61,0,0,1,100,26.7V73.4A26.61,26.61,0,0,1,73.3,100Z" fill="none"/>
    </clipPath>
  </defs>
  <title>flag_as_c_kazakhstan</title>
  <g clip-path="url(#a)">
    <g>
      <g>
        <rect width="100" height="100" fill="#338af3"/>
        <path d="M70.45,52.08H29.55a5.26,5.26,0,0,0,5.28,5.12h-.17a5.11,5.11,0,0,0,5.11,5.11,5.11,5.11,0,0,0,5.12,5.11H55.11a5.11,5.11,0,0,0,5.12-5.11,5.11,5.11,0,0,0,5.11-5.11h-.17A5.26,5.26,0,0,0,70.45,52.08Z" fill="#ffda44"/>
        <path d="M64.16,45.4a14.16,14.16,0,0,1-28.32,0" fill="#338af3"/>
        <polygon points="64.04 44.07 58.3 46.39 61.36 51.17 55.13 50.15 54.34 55.56 50 51.58 45.66 55.56 44.87 50.15 38.64 51.17 41.7 46.39 35.96 44.07 41.7 41.75 38.64 36.97 44.87 37.99 45.66 32.58 50 36.56 54.34 32.58 55.13 37.99 61.36 36.97 58.3 41.75 64.04 44.07" fill="#ffda44"/>
      </g>
      <g>
        <path d="M10.39,74.25V25.75A26.64,26.64,0,0,1,30.24,0H0V100H30.24A26.66,26.66,0,0,1,10.39,74.25Z" opacity="0.2" style="isolation: isolate"/>
        <path d="M89.61,25.75V74.24A26.64,26.64,0,0,1,69.76,100H100V0H69.76A26.66,26.66,0,0,1,89.61,25.75Z" fill="#fff" opacity="0.1" style="isolation: isolate"/>
      </g>
    </g>
  </g>
</svg>
