<svg xmlns="http://www.w3.org/2000/svg" xmlns:xlink="http://www.w3.org/1999/xlink" width="100" height="100" viewBox="0 0 100 100">
  <defs>
    <clipPath id="a">
      <path d="M73.3,100H26.7A26.63,26.63,0,0,1,0,73.3V26.7A26.63,26.63,0,0,1,26.7,0H73.4A26.61,26.61,0,0,1,100,26.7V73.4A26.61,26.61,0,0,1,73.3,100Z" fill="none"/>
    </clipPath>
  </defs>
  <title>flag_sa_venezuela</title>
  <g clip-path="url(#a)">
    <g>
      <g>
        <rect width="100" height="100" fill="#d80027"/>
        <rect y="28.26" width="100" height="43.48" fill="#0052b4"/>
        <g>
          <polygon points="82.61 58.75 80.25 60.58 81.28 63.39 78.8 61.72 76.45 63.56 77.27 60.69 74.8 59.02 77.78 58.91 78.6 56.04 79.62 58.85 82.61 58.75" fill="#f0f0f0"/>
          <polygon points="76.58 48.31 75 50.84 76.92 53.13 74.02 52.41 72.44 54.94 72.23 51.96 69.33 51.24 72.1 50.12 71.89 47.14 73.81 49.43 76.58 48.31" fill="#f0f0f0"/>
          <polygon points="67.35 40.56 66.73 43.48 69.32 44.98 66.35 45.29 65.72 48.21 64.51 45.48 61.54 45.79 63.76 43.8 62.55 41.07 65.13 42.56 67.35 40.56" fill="#f0f0f0"/>
          <polygon points="56.03 36.44 56.44 39.4 59.38 39.92 56.7 41.23 57.11 44.18 55.04 42.03 52.35 43.34 53.76 40.71 51.68 38.56 54.62 39.08 56.03 36.44" fill="#f0f0f0"/>
          <polygon points="43.97 36.44 45.38 39.08 48.32 38.56 46.24 40.71 47.65 43.34 44.96 42.03 42.89 44.18 43.3 41.23 40.62 39.92 43.56 39.4 43.97 36.44" fill="#f0f0f0"/>
          <polygon points="32.65 40.56 34.87 42.56 37.45 41.07 36.24 43.8 38.46 45.79 35.49 45.48 34.27 48.21 33.65 45.29 30.68 44.98 33.27 43.48 32.65 40.56" fill="#f0f0f0"/>
          <polygon points="23.42 48.31 26.19 49.43 28.11 47.14 27.9 50.12 30.67 51.24 27.77 51.96 27.56 54.94 25.98 52.41 23.08 53.13 25 50.84 23.42 48.31" fill="#f0f0f0"/>
          <polygon points="17.39 58.75 20.38 58.85 21.4 56.04 22.22 58.91 25.21 59.02 22.73 60.69 23.55 63.56 21.2 61.72 18.72 63.39 19.75 60.58 17.39 58.75" fill="#f0f0f0"/>
        </g>
        <rect width="100" height="28.26" fill="#ffda44"/>
      </g>
      <g>
        <path d="M10.39,74.25V25.75A26.64,26.64,0,0,1,30.24,0H0V100H30.24A26.66,26.66,0,0,1,10.39,74.25Z" opacity="0.2" style="isolation: isolate"/>
        <path d="M89.61,25.75V74.24A26.64,26.64,0,0,1,69.76,100H100V0H69.76A26.66,26.66,0,0,1,89.61,25.75Z" fill="#fff" opacity="0.1" style="isolation: isolate"/>
      </g>
    </g>
  </g>
</svg>
