<svg xmlns="http://www.w3.org/2000/svg" xmlns:xlink="http://www.w3.org/1999/xlink" width="100" height="100" viewBox="0 0 100 100">
  <defs>
    <clipPath id="a">
      <path d="M73.3,100H26.7A26.63,26.63,0,0,1,0,73.3V26.7A26.63,26.63,0,0,1,26.7,0H73.4A26.61,26.61,0,0,1,100,26.7V73.4A26.61,26.61,0,0,1,73.3,100Z" fill="none"/>
    </clipPath>
  </defs>
  <title>flag_oc_micro_northern_marianas_islands</title>
  <g clip-path="url(#a)">
    <g>
      <g>
        <rect width="100" height="100" fill="#338af3"/>
        <path d="M48.8,73.61A2.45,2.45,0,0,1,46.62,72h0a2.48,2.48,0,0,1-2.57.89h0a2.45,2.45,0,0,1-1.82-2h0a2.46,2.46,0,0,1-2.7.35h0a2.47,2.47,0,0,1-1.37-2.35h0a2.44,2.44,0,0,1-2.71-.2h0a2.45,2.45,0,0,1-.88-2.57h0A2.44,2.44,0,0,1,32,65.36h0a2.45,2.45,0,0,1-.34-2.69h0a2.46,2.46,0,0,1-2.41-1.25h0a2.45,2.45,0,0,1,.2-2.71h0A2.47,2.47,0,0,1,27.3,57h0a2.47,2.47,0,0,1,.75-2.61h0a2.49,2.49,0,0,1-1.72-2.11h0a2.45,2.45,0,0,1,1.26-2.4h0a2.45,2.45,0,0,1-1.26-2.4h0A2.47,2.47,0,0,1,28,45.37h0a2.45,2.45,0,0,1-.75-2.61h0A2.47,2.47,0,0,1,29.39,41h0a2.47,2.47,0,0,1-.21-2.71h0a2.47,2.47,0,0,1,2.41-1.25h0a2.43,2.43,0,0,1,.34-2.69h0a2.45,2.45,0,0,1,2.61-.75h0a2.44,2.44,0,0,1,.87-2.57h0a2.43,2.43,0,0,1,2.7-.21h0a2.47,2.47,0,0,1,1.37-2.35h0a2.46,2.46,0,0,1,2.7.35h0a2.47,2.47,0,0,1,1.82-2h0a2.49,2.49,0,0,1,2.57.88h0a2.47,2.47,0,0,1,2.18-1.61h0a2.46,2.46,0,0,1,2.34,1.38h0a2.45,2.45,0,0,1,2.46-1.14h0a2.46,2.46,0,0,1,2,1.82h0a2.47,2.47,0,0,1,2.65-.63h0a2.46,2.46,0,0,1,1.6,2.19h0a2.47,2.47,0,0,1,2.72-.07h0a2.43,2.43,0,0,1,1.13,2.46h0a2.49,2.49,0,0,1,2.68.47h0A2.45,2.45,0,0,1,67,35.23h0a2.46,2.46,0,0,1,2.53,1h0a2.45,2.45,0,0,1,.07,2.71h0a2.48,2.48,0,0,1,2.28,1.49h0a2.46,2.46,0,0,1-.48,2.67h0A2.47,2.47,0,0,1,73.29,45h0a2.48,2.48,0,0,1-1,2.52h0a2.45,2.45,0,0,1,1.5,2.26h0v0h0v0h0a2.47,2.47,0,0,1-1.5,2.27h0a2.46,2.46,0,0,1,1,2.52h0a2.47,2.47,0,0,1-1.93,1.92h0a2.47,2.47,0,0,1,.49,2.67h0a2.45,2.45,0,0,1-2.28,1.49h0a2.47,2.47,0,0,1-.06,2.72h0a2.47,2.47,0,0,1-2.53,1h0a2.45,2.45,0,0,1-.61,2.65h0a2.45,2.45,0,0,1-2.67.47h0A2.46,2.46,0,0,1,62.58,70h0A2.45,2.45,0,0,1,59.87,70h0a2.47,2.47,0,0,1-1.6,2.2h0a2.46,2.46,0,0,1-2.64-.62h0a2.48,2.48,0,0,1-2,1.83h0a2.47,2.47,0,0,1-2.46-1.14h0a2.47,2.47,0,0,1-2.21,1.38H48.8Z" fill="#f3f3f3"/>
        <circle cx="49.99" cy="49.85" r="16.4" fill="#338af3"/>
        <path d="M53.58,44.29a3.28,3.28,0,0,0,1.33-2.64V40a3.28,3.28,0,0,0-3.28-3.28H48.35A3.28,3.28,0,0,0,45.07,40v1.64a3.3,3.3,0,0,0,1.33,2.64l-3,30.17S45.07,76.1,50,76.1s6.57-1.64,6.57-1.64Z" fill="#bdbcc1"/>
        <polygon points="49.99 36.73 52.84 45.5 62.07 45.5 54.6 50.92 57.45 59.7 49.99 54.28 42.53 59.7 45.38 50.92 37.92 45.5 47.14 45.5 49.99 36.73" fill="#f0f0f0"/>
      </g>
      <g>
        <path d="M10.39,74.25V25.75A26.64,26.64,0,0,1,30.24,0H0V100H30.24A26.66,26.66,0,0,1,10.39,74.25Z" opacity="0.2" style="isolation: isolate"/>
        <path d="M89.61,25.75V74.24A26.64,26.64,0,0,1,69.76,100H100V0H69.76A26.66,26.66,0,0,1,89.61,25.75Z" fill="#fff" opacity="0.1" style="isolation: isolate"/>
      </g>
    </g>
  </g>
</svg>
