<svg xmlns="http://www.w3.org/2000/svg" xmlns:xlink="http://www.w3.org/1999/xlink" width="100" height="100" viewBox="0 0 100 100">
  <defs>
    <clipPath id="a">
      <path d="M73.3,100H26.7A26.63,26.63,0,0,1,0,73.3V26.7A26.63,26.63,0,0,1,26.7,0H73.4A26.61,26.61,0,0,1,100,26.7V73.4A26.61,26.61,0,0,1,73.3,100Z" fill="none"/>
    </clipPath>
  </defs>
  <title>flag_af_m_angola</title>
  <g clip-path="url(#a)">
    <g>
      <g>
        <rect width="100" height="100"/>
        <rect width="100" height="50" fill="#d80027"/>
        <g>
          <polygon points="45.43 43.18 48.26 45.23 47.18 48.55 50 46.5 52.83 48.55 51.75 45.23 54.57 43.17 51.08 43.17 50 39.85 48.92 43.18 45.43 43.18" fill="#ffda44"/>
          <path d="M58.33,35.57A16.46,16.46,0,0,0,50,33.34v4.35a12.16,12.16,0,0,1,6.16,1.64A12.32,12.32,0,1,1,39.72,56.79l-3.63,2.39a16.46,16.46,0,0,0,5.58,5.25A16.66,16.66,0,0,0,58.33,35.57Z" fill="#ffda44"/>
          <path d="M40.39,47.1A4.35,4.35,0,0,0,42.12,53l14.12,7.72a3.51,3.51,0,0,0,1.3,4.85l3.82,2.09a3.64,3.64,0,0,0,4.92-1.44l2.08-3.82Z" fill="#ffda44"/>
        </g>
      </g>
      <g>
        <path d="M10.39,74.25V25.75A26.64,26.64,0,0,1,30.24,0H0V100H30.24A26.66,26.66,0,0,1,10.39,74.25Z" opacity="0.2" style="isolation: isolate"/>
        <path d="M89.61,25.75V74.24A26.64,26.64,0,0,1,69.76,100H100V0H69.76A26.66,26.66,0,0,1,89.61,25.75Z" fill="#fff" opacity="0.1" style="isolation: isolate"/>
      </g>
    </g>
  </g>
</svg>
