<svg xmlns="http://www.w3.org/2000/svg" xmlns:xlink="http://www.w3.org/1999/xlink" width="100" height="100" viewBox="0 0 100 100">
  <defs>
    <clipPath id="a">
      <path d="M73.3,100H26.7A26.63,26.63,0,0,1,0,73.3V26.7A26.63,26.63,0,0,1,26.7,0H73.4A26.61,26.61,0,0,1,100,26.7V73.4A26.61,26.61,0,0,1,73.3,100Z" fill="none"/>
    </clipPath>
  </defs>
  <title>flag_af_m_equatorial_guinea</title>
  <g clip-path="url(#a)">
    <g>
      <g>
        <rect width="100" height="100" fill="#f0f0f0"/>
        <rect width="100" height="33.33" fill="#6da544"/>
        <rect y="66.67" width="100" height="33.33" fill="#d80027"/>
        <polygon points="50 50 0 100 0 0 50 50" fill="#0052b4"/>
        <path d="M63.77,40.94V51.81c0,6.66,8.69,8.7,8.69,8.7s8.7-2,8.7-8.7V40.94Z" fill="#dedde0"/>
        <rect x="70.29" y="49.85" width="4.35" height="6.3" fill="#786145"/>
        <path d="M76.81,47.46a4.35,4.35,0,0,0-8.69,0,2.18,2.18,0,1,0,0,4.35h8.69a2.18,2.18,0,1,0,0-4.35Z" fill="#6da544"/>
      </g>
      <g>
        <path d="M10.39,74.25V25.75A26.64,26.64,0,0,1,30.24,0H0V100H30.24A26.66,26.66,0,0,1,10.39,74.25Z" opacity="0.2" style="isolation: isolate"/>
        <path d="M89.61,25.75V74.24A26.64,26.64,0,0,1,69.76,100H100V0H69.76A26.66,26.66,0,0,1,89.61,25.75Z" fill="#fff" opacity="0.1" style="isolation: isolate"/>
      </g>
    </g>
  </g>
</svg>
