<svg xmlns="http://www.w3.org/2000/svg" xmlns:xlink="http://www.w3.org/1999/xlink" width="100" height="100" viewBox="0 0 100 100">
  <defs>
    <clipPath id="a">
      <path d="M73.3,100H26.7A26.63,26.63,0,0,1,0,73.3V26.7A26.63,26.63,0,0,1,26.7,0H73.4A26.61,26.61,0,0,1,100,26.7V73.4A26.61,26.61,0,0,1,73.3,100Z" fill="none"/>
    </clipPath>
  </defs>
  <title>flag_as_se_brunei</title>
  <g clip-path="url(#a)">
    <g>
      <g>
        <rect width="100" height="100" fill="#ffda44"/>
        <polygon points="0 33.32 100 94.02 100 80.35 53.37 52.7 0 19.65 0 33.32"/>
        <polyline points="100 80.35 100 66.68 0 5.98 0 19.65" fill="#f0f0f0"/>
        <g>
          <path d="M59.42,46.38A9.42,9.42,0,1,1,41.71,41.9a11.59,11.59,0,1,0,16.58,0A9.39,9.39,0,0,1,59.42,46.38Z" fill="#d80027"/>
          <rect x="47.83" y="35.51" width="4.35" height="21.73" fill="#d80027"/>
          <path d="M57.25,39.86H42.75a1.87,1.87,0,0,0,1.88,1.81h-.06a1.81,1.81,0,0,0,1.81,1.81,1.81,1.81,0,0,0,1.81,1.81h3.62a1.81,1.81,0,0,0,1.81-1.81,1.81,1.81,0,0,0,1.81-1.81h-.06A1.87,1.87,0,0,0,57.25,39.86Z" fill="#d80027"/>
          <rect x="39.86" y="58.69" width="20.29" height="4.35" fill="#d80027"/>
          <rect x="54.35" y="60.14" width="8.69" height="4.35" fill="#d80027"/>
          <rect x="36.96" y="60.14" width="8.69" height="4.35" fill="#d80027"/>
        </g>
      </g>
      <g>
        <path d="M10.39,74.25V25.75A26.64,26.64,0,0,1,30.24,0H0V100H30.24A26.66,26.66,0,0,1,10.39,74.25Z" opacity="0.2" style="isolation: isolate"/>
        <path d="M89.61,25.75V74.24A26.64,26.64,0,0,1,69.76,100H100V0H69.76A26.66,26.66,0,0,1,89.61,25.75Z" fill="#fff" opacity="0.1" style="isolation: isolate"/>
      </g>
    </g>
  </g>
</svg>
