<svg xmlns="http://www.w3.org/2000/svg" xmlns:xlink="http://www.w3.org/1999/xlink" width="100" height="100" viewBox="0 0 100 100">
  <defs>
    <clipPath id="a">
      <path d="M73.3,100H26.7A26.63,26.63,0,0,1,0,73.3V26.7A26.63,26.63,0,0,1,26.7,0H73.4A26.61,26.61,0,0,1,100,26.7V73.4A26.61,26.61,0,0,1,73.3,100Z" fill="none"/>
    </clipPath>
  </defs>
  <title>flag_az_christmas_island</title>
  <g clip-path="url(#a)">
    <g>
      <g>
        <rect width="100" height="100" fill="#0052b4"/>
        <polyline points="0 0 100 0 100 100" fill="#6da544"/>
        <circle cx="50" cy="50" r="8.7" fill="#ffda44"/>
        <g>
          <polygon points="20.33 63.03 21.42 65.33 23.9 64.75 22.79 67.04 24.78 68.62 22.3 69.18 22.31 71.72 20.33 70.13 18.34 71.72 18.35 69.18 15.87 68.62 17.86 67.04 16.75 64.75 19.23 65.33 20.33 63.03" fill="#f0f0f0"/>
          <polygon points="13.15 43.92 14.25 46.21 16.73 45.64 15.62 47.93 17.61 49.51 15.13 50.06 15.13 52.61 13.15 51.02 11.17 52.61 11.18 50.06 8.7 49.51 10.69 47.93 9.58 45.64 12.05 46.21 13.15 43.92" fill="#f0f0f0"/>
          <polygon points="20.33 28.28 21.42 30.57 23.9 30 22.79 32.28 24.78 33.87 22.3 34.42 22.31 36.97 20.33 35.38 18.34 36.97 18.35 34.42 15.87 33.87 17.86 32.28 16.75 30 19.23 30.57 20.33 28.28" fill="#f0f0f0"/>
          <polygon points="29.24 40.44 30.34 42.73 32.81 42.16 31.7 44.45 33.7 46.03 31.22 46.59 31.22 49.13 29.24 47.54 27.26 49.13 27.26 46.59 24.78 46.03 26.77 44.45 25.67 42.16 28.14 42.73 29.24 40.44" fill="#f0f0f0"/>
          <polygon points="22.87 50.87 23.73 53.52 26.52 53.52 24.26 55.16 25.13 57.82 22.87 56.18 20.61 57.82 21.47 55.16 19.21 53.52 22 53.52 22.87 50.87" fill="#f0f0f0"/>
        </g>
        <path d="M50,55.8h2.9a4.67,4.67,0,0,0,0-4.35l2.9-2.9-1.45-2.9H52.9a3.63,3.63,0,0,1-3.63,2.18,3.62,3.62,0,0,1-3.62-2.18H44.2l1.45,2.9-1.45,2.9,1.45,1.45A3.18,3.18,0,0,1,50,51.45,4.48,4.48,0,0,1,50,55.8Z" fill="#6da544"/>
        <path d="M78.51,26.41a7.41,7.41,0,0,0,.15-1.5,7.92,7.92,0,0,0-5.47-7.52,14.75,14.75,0,0,1,1.51,6.53,15,15,0,0,1-.18,2.33,8.18,8.18,0,0,0-1.84-2.07,8.09,8.09,0,0,0-9.53-.41,15.08,15.08,0,0,1,6.21,2.95A15.84,15.84,0,0,1,72.94,31L60.87,34.79c11.86,2,21.74-5.93,21.74-5.93A4,4,0,0,0,78.51,26.41Z" fill="#ffda44"/>
      </g>
      <g>
        <path d="M10.39,74.25V25.75A26.64,26.64,0,0,1,30.24,0H0V100H30.24A26.66,26.66,0,0,1,10.39,74.25Z" opacity="0.2" style="isolation: isolate"/>
        <path d="M89.61,25.75V74.24A26.64,26.64,0,0,1,69.76,100H100V0H69.76A26.66,26.66,0,0,1,89.61,25.75Z" fill="#fff" opacity="0.1" style="isolation: isolate"/>
      </g>
    </g>
  </g>
</svg>
