<svg xmlns="http://www.w3.org/2000/svg" xmlns:xlink="http://www.w3.org/1999/xlink" width="100" height="100" viewBox="0 0 100 100">
  <defs>
    <clipPath id="a">
      <path d="M73.3,100H26.7A26.63,26.63,0,0,1,0,73.3V26.7A26.63,26.63,0,0,1,26.7,0H73.4A26.61,26.61,0,0,1,100,26.7V73.4A26.61,26.61,0,0,1,73.3,100Z" fill="none"/>
    </clipPath>
  </defs>
  <title>flag_af_s_eswatini_or_swaziland</title>
  <g clip-path="url(#a)">
    <g>
      <g>
        <path d="M0,0H100V100H0Z" fill="#3e5eb9"/>
        <path d="M0,18.75H100v62.5H0Z" fill="#ffd900"/>
        <path d="M0,25H100V75H0Z" fill="#b10c0c"/>
        <g>
          <g>
            <path d="M82.14,38.57l-4,2.14,4,2.15,4-2.15Z" fill="#fff" stroke="#000" stroke-width="1.01"/>
            <path d="M21,40H79.48c.28,0,.52.32.52.71h0c0,.4-.24.72-.52.72H21c-.28,0-.52-.32-.52-.72h0C20.47,40.32,20.71,40,21,40Z" fill="#ffd900" stroke="#000" stroke-width="1.01"/>
            <path d="M78.57,41.43c.24,0,.48-.36.48-.72s-.24-.71-.48-.71m-.47,1.43c.23,0,.47-.36.47-.72S78.33,40,78.1,40m-.48,1.43c.24,0,.48-.36.48-.72s-.24-.71-.48-.71" fill="#ffd900" stroke="#000" stroke-width="1.01"/>
          </g>
          <g>
            <path d="M78.26,42.86l-4,2.14,4,2.14,4-2.14Z" fill="#fff" stroke="#000" stroke-width="1.01"/>
            <path d="M17.11,44.29H75.6c.29,0,.52.32.52.71h0c0,.4-.23.72-.52.72H17.11c-.28,0-.51-.32-.51-.72h0C16.6,44.61,16.83,44.29,17.11,44.29Z" fill="#ffd900" stroke="#000" stroke-width="1.01"/>
            <path d="M74.7,45.72c.23,0,.47-.36.47-.72s-.24-.71-.47-.71m-.48,1.43c.24,0,.47-.36.47-.72s-.23-.71-.47-.71m-.48,1.43c.24,0,.48-.36.48-.72s-.24-.71-.48-.71" fill="#ffd900" stroke="#000" stroke-width="1.01"/>
          </g>
          <path d="M10.67,48.93H90.21c.39,0,.71.48.71,1.07h0c0,.59-.32,1.07-.71,1.07H10.67c-.39,0-.7-.48-.7-1.07h0C10,49.41,10.28,48.93,10.67,48.93Z" fill="#ffd900" stroke="#000" stroke-width="1.08"/>
        </g>
        <path d="M73.81,50C69.05,57.14,62.7,71.43,50,71.43,38.89,71.43,31,57.14,26.19,50,31,42.86,38.89,28.57,50,28.57,62.7,28.57,69.05,42.86,73.81,50Z" fill="#fff" stroke="#000" stroke-width="1.51"/>
        <path d="M48.34,36c1.26,2.14.21,3,1.55,3.14s.61,2.26,1.8,2.34c.83,0-.08,5,.72,6.68s1.49.5,1.51,1.74S51.7,51.07,51.66,55c-.07,2.27-1.88,2.42-2,3.88s3.58,2.15,3.53,3.38-4,1-4.15,2.44C49,66,54.47,67,54.91,70.64a14.73,14.73,0,0,1-4.91.79C38.89,71.44,31,57.14,26.19,50,31,42.86,38.89,28.57,50,28.57c0,0-3.3,4.52-1.66,7.45Z"/>
        <g>
          <g>
            <path d="M35.66,48.09V42.38m2.3,0v5.71m2.31-5.71v5.71" stroke="#fff" stroke-width="6.93"/>
            <path d="M35.66,57.62V51.91m2.3,0v5.71m2.31-5.71v5.71" stroke="#fff" stroke-width="6.93"/>
          </g>
          <g>
            <path d="M42.58,48.09V42.38m2.31,0v5.71m2.31-5.71v5.71" stroke="#fff" stroke-width="6.93"/>
            <path d="M42.58,57.62V51.91m2.31,0v5.71m2.31-5.71v5.71" stroke="#fff" stroke-width="6.93"/>
          </g>
        </g>
        <g>
          <g>
            <path d="M53.12,48.09V42.38m2.3,0v5.71m2.31-5.71v5.71" stroke="#000" stroke-width="6.93"/>
            <path d="M53.12,57.62V51.91m2.3,0v5.71m2.31-5.71v5.71" stroke="#000" stroke-width="6.93"/>
          </g>
          <g>
            <path d="M60,48.09V42.38m2.31,0v5.71m2.31-5.71v5.71" stroke="#000" stroke-width="6.93"/>
            <path d="M60,57.62V51.91m2.31,0v5.71m2.31-5.71v5.71" stroke="#000" stroke-width="6.93"/>
          </g>
        </g>
        <g>
          <path d="M85.23,49.15c-.73,1.87.55-.62,3.66,2.51A5.51,5.51,0,0,1,90,54.85a7.51,7.51,0,0,1-.42-.68c-.22.34.22,1.89.28,2.63-.48-.41-.44-.6-.6-1.11a18,18,0,0,0,.11,2.92c-.38-.16-.36-.62-.56-.72a23.39,23.39,0,0,1,0,2.34c-.22-.33-.46-.59-.56-.72,0,.39-.43,1.41-.44,1.78a1.05,1.05,0,0,1-.28-.62,14.84,14.84,0,0,0-1.13,2.59c-.64-.86-2.3-2.95-2.52-4a2.43,2.43,0,0,1-1,1.3c-.21-1.76-1-3.73-.59-5.24a12,12,0,0,0-.86.88,10.47,10.47,0,0,1,3.89-7Z" fill="#3d5da7" stroke="#000" stroke-width="1.28"/>
          <path d="M82.54,58.43c.29-.9.57-1.18.76-1.76.35-1,.39-1.83.69-1.71s.3.54-.09,1.54A3.84,3.84,0,0,1,82.54,58.43Zm2,2.14c0-.68.09-1,.07-1.41,0-.77-.25-1.31,0-1.34s.4.22.41,1a2.77,2.77,0,0,1-.5,1.75Zm1.54,1.34c-.12-.95,0-1.38-.11-2-.13-1.08-.4-1.8-.14-1.9s.4.25.5,1.35a5.58,5.58,0,0,1-.25,2.54Zm1.6-6.69c-.38-.42-.6-.45-.84-.73-.43-.48-.64-1-.78-.74s0,.54.41,1a1.28,1.28,0,0,0,1.21.49Zm-.27,3.17c-.2-.62-.41-.77-.53-1.17-.23-.7-.23-1.3-.48-1.14s-.26.47,0,1.14A1.81,1.81,0,0,0,87.43,58.39Z" fill="#a70000"/>
          <path d="M13.46,51c0-.55,0-.62-.18-1,.32.21.34.75.73.36.15-.11.21-.11,0-.72.42,0,1.77.73,2,.74.57,0,1.6-.89,2.32.26s.47,2.13.47,3.59c-.28-.2-.15-.3-.44-.82a36.62,36.62,0,0,1,0,4.91c-.11-.33-.09-.19-.2-.52a8.81,8.81,0,0,0-.65,2.93c-.11-.57,0-.45-.12-.75-.29.93-2.21,1.73-1.47,2.67-.67-.59-1-.52-1.27-1a1.88,1.88,0,0,0-.35.69c-1.18-.81-.76-2.56-1.68-3.73a9.15,9.15,0,0,0-.26,1.22c-.19-1.11-.24-1.82-.45-2.63-.18.45-.16.28-.49,1a12,12,0,0,1-.27-2.56c-.35.37-.12.22-.47.67.33-3.46,1.76-6,2.78-5.2Z" fill="#3d5da7" stroke="#000" stroke-width="1.6"/>
          <path d="M12,56.6c.3-1.11.57-1.46.77-2.18.34-1.26.4-2.27.69-2.11s.29.67-.1,1.91A4.86,4.86,0,0,1,12,56.6Zm1.14,2.79c.13-1,.32-1.36.4-2,.14-1.13.06-2,.33-1.92s.33.47.15,1.59a4.84,4.84,0,0,1-.88,2.34Zm1.38,1.94c0-1,.18-1.35.2-2,0-1.1-.1-1.88.16-1.89s.35.39.27,1.49a5.18,5.18,0,0,1-.63,2.37ZM17.48,55c-.56-.85-.9-1-1.26-1.55-.64-1-.95-1.84-1.18-1.52s-.09.79.58,1.69A3,3,0,0,0,17.48,55Zm-.34,3.25c-.37-.85-.64-1.06-.87-1.61-.42-1-.56-1.78-.8-1.57s-.19.63.27,1.56a3.16,3.16,0,0,0,1.4,1.62Z" fill="#a70000"/>
          <path d="M42.3,32.38c-.66,1.91,1.16-.64,4,2.56a9.26,9.26,0,0,1,1.28,4,7.62,7.62,0,0,1-1.68-1.09A8.28,8.28,0,0,1,47.16,42c-.44-.42-.66-.35-.81-.87,0,.71.39,1.16.39,2.25a6.44,6.44,0,0,0-.86-.87c.42,1.09-.77,3.21-.17,3.91a3.85,3.85,0,0,1-2.52-2.3,1.31,1.31,0,0,0-.25,1s-1.58-1.79-1.43-2.5a3,3,0,0,0-.3,1.22,7.39,7.39,0,0,1-1.33-2.88c-.26.51-.28.51-.54,1a6,6,0,0,1,.19-3.26c-.27.28-.5.55-.78.89a11,11,0,0,1,3.55-7.14Z" fill="#3d5da7" stroke="#000" stroke-width="1.24"/>
          <path d="M40.67,41.73c.11-1.32.34-1.82.41-2.67.12-1.49,0-2.58.33-2.56s.45.58.28,2.07a6.78,6.78,0,0,1-1,3.16Zm1.85,2.41c-.08-1.11.06-1.59,0-2.3-.08-1.26-.34-2.12,0-2.2s.47.35.5,1.62a6.22,6.22,0,0,1-.49,2.88Zm2.87,2c-.31-1-.58-1.25-.78-1.87-.36-1.09-.43-2-.71-1.82s-.26.62.14,1.69A3.89,3.89,0,0,0,45.39,46.11Zm1-8.62c-.79-.63-1.2-.64-1.71-1-.91-.71-1.43-1.51-1.62-1.07s.06.88,1,1.52a2.7,2.7,0,0,0,2.35.59Zm.3,3.6c-.58-.72-.93-.83-1.3-1.3-.66-.81-1-1.61-1.21-1.29s-.07.76.62,1.53a2.64,2.64,0,0,0,1.89,1.06Z" fill="#a70000"/>
        </g>
      </g>
      <g>
        <path d="M10.39,74.25V25.75A26.64,26.64,0,0,1,30.24,0H0V100H30.24A26.66,26.66,0,0,1,10.39,74.25Z" opacity="0.2" style="isolation: isolate"/>
        <path d="M89.61,25.75V74.24A26.64,26.64,0,0,1,69.76,100H100V0H69.76A26.66,26.66,0,0,1,89.61,25.75Z" fill="#fff" opacity="0.1" style="isolation: isolate"/>
      </g>
    </g>
  </g>
</svg>
