<svg xmlns="http://www.w3.org/2000/svg" xmlns:xlink="http://www.w3.org/1999/xlink" width="100" height="100" viewBox="0 0 100 100">
  <defs>
    <clipPath id="a">
      <path d="M73.3,100H26.7A26.63,26.63,0,0,1,0,73.3V26.7A26.63,26.63,0,0,1,26.7,0H73.4A26.61,26.61,0,0,1,100,26.7V73.4A26.61,26.61,0,0,1,73.3,100Z" fill="none"/>
    </clipPath>
  </defs>
  <title>flag_as_w_israel</title>
  <g clip-path="url(#a)">
    <g>
      <g>
        <rect width="100" height="100" fill="#f0f0f0"/>
        <g>
          <path d="M68.75,39.17H56.25L50,28.35,43.75,39.17H31.25L37.5,50,31.25,60.83h12.5L50,71.65l6.25-10.82h12.5L62.5,50ZM57.68,50l-3.84,6.65H46.16L42.32,50l3.84-6.65h7.68ZM50,36.7l1.43,2.47H48.57ZM38.48,43.35h2.86l-1.43,2.47Zm0,13.3,1.43-2.47,1.43,2.47ZM50,63.3l-1.43-2.47h2.86Zm11.52-6.65H58.66l1.43-2.47Zm-2.86-13.3h2.86l-1.43,2.47Z" fill="#0052b4"/>
          <rect y="6.25" width="100" height="12.5" fill="#0052b4"/>
          <rect y="81.25" width="100" height="12.5" fill="#0052b4"/>
        </g>
      </g>
      <g>
        <path d="M10.39,74.25V25.75A26.64,26.64,0,0,1,30.24,0H0V100H30.24A26.66,26.66,0,0,1,10.39,74.25Z" opacity="0.2" style="isolation: isolate"/>
        <path d="M89.61,25.75V74.24A26.64,26.64,0,0,1,69.76,100H100V0H69.76A26.66,26.66,0,0,1,89.61,25.75Z" fill="#fff" opacity="0.1" style="isolation: isolate"/>
      </g>
    </g>
  </g>
</svg>
