<svg xmlns="http://www.w3.org/2000/svg" xmlns:xlink="http://www.w3.org/1999/xlink" width="100" height="100" viewBox="0 0 100 100">
  <defs>
    <clipPath id="a">
      <path d="M73.3,100H26.7A26.63,26.63,0,0,1,0,73.3V26.7A26.63,26.63,0,0,1,26.7,0H73.4A26.61,26.61,0,0,1,100,26.7V73.4A26.61,26.61,0,0,1,73.3,100Z" fill="none"/>
    </clipPath>
  </defs>
  <title>flag_af_s_namibia</title>
  <g clip-path="url(#a)">
    <g>
      <g>
        <g>
          <rect width="100" height="100" fill="#496e2d"/>
          <polygon points="87.7 0 87.7 0 78.48 0 78.48 0 87.7 0" fill="#496e2d"/>
        </g>
        <polygon points="78.48 0 0 0 0 78.48 78.48 0 78.48 0" fill="#0052b4"/>
        <polygon points="39.78 27.17 33.12 30.31 36.67 36.76 29.43 35.38 28.52 42.68 23.48 37.31 18.44 42.68 17.52 35.38 10.29 36.76 13.84 30.31 7.17 27.17 13.84 24.04 10.29 17.59 17.52 18.97 18.44 11.66 23.48 17.04 28.52 11.66 29.43 18.97 36.67 17.59 33.12 24.04 39.78 27.17" fill="#ffda44"/>
        <polygon points="100 0 100 21.52 21.52 100 0 100 0 78.48 78.48 0 87.7 0 87.7 0 100 0" fill="#f0f0f0"/>
        <polygon points="12.3 100 100 12.3 100 0 87.7 0 87.7 0 0 87.7 0 100 12.3 100" fill="#a2001d"/>
      </g>
      <g>
        <path d="M10.39,74.25V25.75A26.64,26.64,0,0,1,30.24,0H0V100H30.24A26.66,26.66,0,0,1,10.39,74.25Z" opacity="0.2" style="isolation: isolate"/>
        <path d="M89.61,25.75V74.24A26.64,26.64,0,0,1,69.76,100H100V0H69.76A26.66,26.66,0,0,1,89.61,25.75Z" fill="#fff" opacity="0.1" style="isolation: isolate"/>
      </g>
    </g>
  </g>
</svg>
