<svg xmlns="http://www.w3.org/2000/svg" xmlns:xlink="http://www.w3.org/1999/xlink" width="100" height="100" viewBox="0 0 100 100">
  <defs>
    <clipPath id="a">
      <path d="M73.3,100H26.7A26.63,26.63,0,0,1,0,73.3V26.7A26.63,26.63,0,0,1,26.7,0H73.4A26.61,26.61,0,0,1,100,26.7V73.4A26.61,26.61,0,0,1,73.3,100Z" fill="none"/>
    </clipPath>
  </defs>
  <title>flag_na_cr_dominica</title>
  <g clip-path="url(#a)">
    <g>
      <g>
        <rect width="100" height="100" fill="#496e2d"/>
        <polygon points="0 43.75 0 47.92 0 52.08 0 56.25 100 56.25 100 52.08 100 47.92 100 43.75 0 43.75"/>
        <rect y="43.75" width="100" height="4.17" fill="#ffda44"/>
        <rect y="52.08" width="100" height="4.17" fill="#f0f0f0"/>
        <rect x="43.75" width="12.5" height="100"/>
        <rect x="43.75" width="4.17" height="100" fill="#ffda44"/>
        <rect x="52.08" width="4.17" height="100" fill="#f0f0f0"/>
        <circle cx="50" cy="50" r="15.94" fill="#d80027"/>
        <g>
          <path d="M53.63,51.78C52.45,49.41,50.9,47,50.9,47s0-1.09,0-1.74a1.78,1.78,0,0,0-3.55-.16,1.41,1.41,0,0,0-.55,2.65A2,2,0,0,1,48,46.63a1.38,1.38,0,0,0,.28.19l.23.11a15.31,15.31,0,0,0-.85,3.66c0,3.6,2.37,4.71,2.37,4.71v0l-1.18,1.18h2.37V54.15l1.19,1.19S54.69,53.9,53.63,51.78Z" fill="#496e2d"/>
          <polygon points="50 36.96 50.54 38.62 52.29 38.62 50.87 39.64 51.41 41.3 50 40.28 48.59 41.3 49.13 39.64 47.71 38.62 49.46 38.62 50 36.96" fill="#496e2d"/>
          <polygon points="42.33 39.45 43.75 40.47 45.16 39.45 44.62 41.11 46.03 42.13 44.29 42.13 43.75 43.8 43.21 42.13 41.46 42.13 42.87 41.11 42.33 39.45" fill="#496e2d"/>
          <polygon points="37.59 45.97 39.34 45.97 39.88 44.31 40.42 45.97 42.17 45.97 40.75 47 41.29 48.66 39.88 47.63 38.47 48.66 39.01 47 37.59 45.97" fill="#496e2d"/>
          <polygon points="37.59 54.03 39.01 53 38.47 51.34 39.88 52.37 41.29 51.34 40.75 53 42.17 54.03 40.42 54.03 39.88 55.69 39.34 54.03 37.59 54.03" fill="#496e2d"/>
          <polygon points="42.33 60.55 42.87 58.89 41.46 57.87 43.21 57.87 43.75 56.2 44.29 57.87 46.03 57.87 44.62 58.89 45.16 60.55 43.75 59.53 42.33 60.55" fill="#496e2d"/>
          <polygon points="50 63.04 49.46 61.38 47.71 61.38 49.13 60.36 48.59 58.7 50 59.72 51.41 58.7 50.87 60.36 52.29 61.38 50.54 61.38 50 63.04" fill="#496e2d"/>
          <polygon points="57.67 60.55 56.25 59.53 54.84 60.55 55.38 58.89 53.97 57.87 55.71 57.87 56.25 56.2 56.79 57.87 58.54 57.87 57.13 58.89 57.67 60.55" fill="#496e2d"/>
          <polygon points="62.41 54.03 60.66 54.03 60.12 55.69 59.58 54.03 57.83 54.03 59.25 53 58.71 51.34 60.12 52.37 61.53 51.34 60.99 53 62.41 54.03" fill="#496e2d"/>
          <polygon points="62.41 45.97 60.99 47 61.53 48.66 60.12 47.63 58.71 48.66 59.25 47 57.83 45.97 59.58 45.97 60.12 44.31 60.66 45.97 62.41 45.97" fill="#496e2d"/>
          <polygon points="57.67 39.45 57.13 41.11 58.54 42.13 56.79 42.13 56.25 43.8 55.71 42.13 53.97 42.13 55.38 41.11 54.84 39.45 56.25 40.47 57.67 39.45" fill="#496e2d"/>
        </g>
      </g>
      <g>
        <path d="M10.39,74.25V25.75A26.64,26.64,0,0,1,30.24,0H0V100H30.24A26.66,26.66,0,0,1,10.39,74.25Z" opacity="0.2" style="isolation: isolate"/>
        <path d="M89.61,25.75V74.24A26.64,26.64,0,0,1,69.76,100H100V0H69.76A26.66,26.66,0,0,1,89.61,25.75Z" fill="#fff" opacity="0.1" style="isolation: isolate"/>
      </g>
    </g>
  </g>
</svg>
