<svg xmlns="http://www.w3.org/2000/svg" xmlns:xlink="http://www.w3.org/1999/xlink" width="100" height="100" viewBox="0 0 100 100">
  <defs>
    <clipPath id="a">
      <path d="M73.3,100H26.7A26.63,26.63,0,0,1,0,73.3V26.7A26.63,26.63,0,0,1,26.7,0H73.4A26.61,26.61,0,0,1,100,26.7V73.4A26.61,26.61,0,0,1,73.3,100Z" fill="none"/>
    </clipPath>
  </defs>
  <title>flag_eu_s_albania</title>
  <g clip-path="url(#a)">
    <g>
      <g>
        <rect width="100" height="100" fill="#d80027"/>
        <path d="M68.84,41.41H56.77A4.35,4.35,0,1,0,50,36a4.35,4.35,0,1,0-6.77,5.41H31.16a6,6,0,0,0,6,5.79H37A5.79,5.79,0,0,0,42.75,53a5.82,5.82,0,0,0,.75,2.85l-4.8,4.81,3.68,3.69,5.24-5.23a4.5,4.5,0,0,0,.63.17l-3.16,7.14L50,71.74l4.91-5.31-3.16-7.14a4.16,4.16,0,0,0,.63-.17l5.24,5.23,3.68-3.69-4.8-4.81A5.82,5.82,0,0,0,57.25,53,5.79,5.79,0,0,0,63,47.2h-.19A6,6,0,0,0,68.84,41.41Z"/>
      </g>
      <g>
        <path d="M10.39,74.25V25.75A26.64,26.64,0,0,1,30.24,0H0V100H30.24A26.66,26.66,0,0,1,10.39,74.25Z" opacity="0.2" style="isolation: isolate"/>
        <path d="M89.61,25.75V74.24A26.64,26.64,0,0,1,69.76,100H100V0H69.76A26.66,26.66,0,0,1,89.61,25.75Z" fill="#fff" opacity="0.1" style="isolation: isolate"/>
      </g>
    </g>
  </g>
</svg>
