<svg xmlns="http://www.w3.org/2000/svg" xmlns:xlink="http://www.w3.org/1999/xlink" width="100" height="100" viewBox="0 0 100 100">
  <defs>
    <clipPath id="a">
      <path d="M73.3,100H26.7A26.63,26.63,0,0,1,0,73.3V26.7A26.63,26.63,0,0,1,26.7,0H73.4A26.61,26.61,0,0,1,100,26.7V73.4A26.61,26.61,0,0,1,73.3,100Z" fill="none"/>
    </clipPath>
  </defs>
  <title>flag_oc_poly_cook_islands</title>
  <g clip-path="url(#a)">
    <g>
      <g>
        <rect width="100" height="100" fill="#2e52b2"/>
        <g>
          <polygon points="75 30.61 76.03 33.78 79.37 33.78 76.67 35.74 77.7 38.92 75 36.96 72.3 38.92 73.33 35.74 70.63 33.78 73.97 33.78 75 30.61" fill="#f0f0f0"/>
          <polygon points="61.29 36.29 64.26 37.8 66.62 35.44 66.1 38.74 69.07 40.25 65.78 40.78 65.25 44.07 63.74 41.1 60.44 41.62 62.8 39.26 61.29 36.29" fill="#f0f0f0"/>
          <polygon points="55.61 50 58.78 48.97 58.78 45.63 60.74 48.33 63.92 47.3 61.96 50 63.92 52.7 60.74 51.67 58.78 54.37 58.78 51.03 55.61 50" fill="#f0f0f0"/>
          <polygon points="61.29 63.71 62.8 60.74 60.44 58.38 63.74 58.9 65.25 55.93 65.78 59.22 69.07 59.74 66.1 61.26 66.62 64.56 64.26 62.2 61.29 63.71" fill="#f0f0f0"/>
          <polygon points="75 69.39 73.97 66.22 70.63 66.22 73.33 64.25 72.3 61.08 75 63.04 77.7 61.08 76.67 64.25 79.37 66.22 76.03 66.22 75 69.39" fill="#f0f0f0"/>
          <polygon points="88.71 63.71 85.74 62.2 83.38 64.56 83.9 61.26 80.93 59.74 84.22 59.22 84.75 55.93 86.26 58.9 89.56 58.38 87.2 60.74 88.71 63.71" fill="#f0f0f0"/>
          <polygon points="94.39 50 91.22 51.03 91.22 54.37 89.26 51.67 86.08 52.7 88.04 50 86.08 47.3 89.26 48.33 91.22 45.63 91.22 48.97 94.39 50" fill="#f0f0f0"/>
          <polygon points="88.71 36.29 87.2 39.26 89.56 41.62 86.26 41.1 84.75 44.07 84.22 40.78 80.93 40.25 83.9 38.74 83.38 35.44 85.74 37.8 88.71 36.29" fill="#f0f0f0"/>
          <polygon points="50 0 50 9.55 42.16 17.39 50 17.39 50 32.61 39.74 32.61 50 42.87 50 50 45.37 50 32.61 37.24 32.61 50 17.39 50 17.39 34.82 2.21 50 0 50 0 40.45 7.84 32.61 0 32.61 0 17.39 10.26 17.39 0 7.13 0 0 4.63 0 17.39 12.76 17.39 0 32.61 0 32.61 15.18 47.79 0 50 0" fill="#f0f0f0"/>
        </g>
        <polygon points="0 29.69 20.31 29.69 20.31 50 29.69 50 29.69 29.69 50 29.69 50 20.31 29.69 20.31 29.69 0 20.31 0 20.31 20.31 0 20.31 0 29.69" fill="#d80027"/>
        <polygon points="32.61 32.61 50 50 50 45.08 37.53 32.61 32.61 32.61" fill="#0052b4"/>
        <polygon points="32.61 32.61 50 50 50 45.08 37.53 32.61 32.61 32.61" fill="#f0f0f0"/>
        <g>
          <polygon points="32.61 32.61 50 50 50 45.08 37.53 32.61 32.61 32.61" fill="#d80027"/>
          <polygon points="12.47 32.61 0 45.08 0 50 0 50 17.39 32.61 12.47 32.61" fill="#d80027"/>
        </g>
        <polygon points="17.39 17.39 0 0 0 4.92 12.47 17.39 17.39 17.39" fill="#0052b4"/>
        <polygon points="17.39 17.39 0 0 0 4.92 12.47 17.39 17.39 17.39" fill="#f0f0f0"/>
        <g>
          <polygon points="17.39 17.39 0 0 0 4.92 12.47 17.39 17.39 17.39" fill="#d80027"/>
          <polygon points="37.53 17.39 50 4.92 50 0 50 0 32.61 17.39 37.53 17.39" fill="#d80027"/>
        </g>
      </g>
      <g>
        <path d="M10.39,74.25V25.75A26.64,26.64,0,0,1,30.24,0H0V100H30.24A26.66,26.66,0,0,1,10.39,74.25Z" opacity="0.2" style="isolation: isolate"/>
        <path d="M89.61,25.75V74.24A26.64,26.64,0,0,1,69.76,100H100V0H69.76A26.66,26.66,0,0,1,89.61,25.75Z" fill="#fff" opacity="0.1" style="isolation: isolate"/>
      </g>
    </g>
  </g>
</svg>
