<svg xmlns="http://www.w3.org/2000/svg" xmlns:xlink="http://www.w3.org/1999/xlink" width="100" height="100" viewBox="0 0 100 100">
  <defs>
    <clipPath id="a">
      <path d="M73.3,100H26.7A26.63,26.63,0,0,1,0,73.3V26.7A26.63,26.63,0,0,1,26.7,0H73.4A26.61,26.61,0,0,1,100,26.7V73.4A26.61,26.61,0,0,1,73.3,100Z" fill="none"/>
    </clipPath>
  </defs>
  <title>flag_az_new_zealand</title>
  <g clip-path="url(#a)">
    <g>
      <g>
        <rect width="100" height="100" fill="#0052b4"/>
        <polygon points="87.1 42.3 88.1 45.4 91.3 45.4 88.7 47.3 89.7 50.3 87.1 48.4 84.5 50.3 85.5 47.3 82.9 45.4 86.1 45.4 87.1 42.3" fill="#d80027"/>
        <polygon points="75.6 64.3 77.1 68.9 81.9 68.9 78 71.7 79.5 76.3 75.6 73.5 71.7 76.3 73.2 71.7 69.3 68.9 74.1 68.9 75.6 64.3" fill="#d80027"/>
        <polygon points="76.1 28.3 77.3 32.1 81.3 32.1 78.1 34.5 79.3 38.3 76.1 36 72.8 38.3 74 34.5 70.8 32.1 74.8 32.1 76.1 28.3" fill="#d80027"/>
        <polygon points="65 42.2 66.5 46.8 71.3 46.8 67.4 49.6 68.9 54.2 65 51.4 61.1 54.2 62.6 49.6 58.7 46.8 63.5 46.8 65 42.2" fill="#d80027"/>
        <polygon points="50 0 50 9.6 42.2 17.4 50 17.4 50 32.6 39.7 32.6 50 42.9 50 50 45.4 50 32.6 37.2 32.6 50 17.4 50 17.4 34.8 2.2 50 0 50 0 40.5 7.8 32.6 0 32.6 0 17.4 10.3 17.4 0 7.1 0 0 4.6 0 17.4 12.8 17.4 0 32.6 0 32.6 15.2 47.8 0 50 0" fill="#f0f0f0"/>
        <polygon points="0 29.7 20.3 29.7 20.3 50 29.7 50 29.7 29.7 50 29.7 50 20.3 29.7 20.3 29.7 0 20.3 0 20.3 20.3 0 20.3 0 29.7" fill="#d80027"/>
        <polygon points="32.6 32.6 50 50 50 45.1 37.5 32.6 32.6 32.6" fill="#0052b4"/>
        <polygon points="32.6 32.6 50 50 50 45.1 37.5 32.6 32.6 32.6" fill="#f0f0f0"/>
        <polygon points="32.6 32.6 50 50 50 45.1 37.5 32.6 32.6 32.6" fill="#d80027"/>
        <polygon points="12.5 32.6 0 45.1 0 50 0 50 17.4 32.6 12.5 32.6" fill="#d80027"/>
        <polygon points="17.4 17.4 0 0 0 4.9 12.5 17.4 17.4 17.4" fill="#0052b4"/>
        <polygon points="17.4 17.4 0 0 0 4.9 12.5 17.4 17.4 17.4" fill="#f0f0f0"/>
        <polygon points="17.4 17.4 0 0 0 4.9 12.5 17.4 17.4 17.4" fill="#d80027"/>
        <polygon points="37.5 17.4 50 4.9 50 0 50 0 32.6 17.4 37.5 17.4" fill="#d80027"/>
      </g>
      <g>
        <path d="M10.39,74.25V25.75A26.64,26.64,0,0,1,30.24,0H0V100H30.24A26.66,26.66,0,0,1,10.39,74.25Z" opacity="0.2" style="isolation: isolate"/>
        <path d="M89.61,25.75V74.24A26.64,26.64,0,0,1,69.76,100H100V0H69.76A26.66,26.66,0,0,1,89.61,25.75Z" fill="#fff" opacity="0.1" style="isolation: isolate"/>
      </g>
    </g>
  </g>
</svg>
