<svg xmlns="http://www.w3.org/2000/svg" xmlns:xlink="http://www.w3.org/1999/xlink" width="100" height="100" viewBox="0 0 100 100">
  <defs>
    <clipPath id="a">
      <path d="M73.3,100H26.7A26.63,26.63,0,0,1,0,73.3V26.7A26.63,26.63,0,0,1,26.7,0H73.4A26.61,26.61,0,0,1,100,26.7V73.4A26.61,26.61,0,0,1,73.3,100Z" fill="none"/>
    </clipPath>
  </defs>
  <title>flag_eu_s_gibraltar</title>
  <g clip-path="url(#a)">
    <g>
      <g>
        <rect width="100" height="100" fill="#f0f0f0"/>
        <g>
          <rect y="66.67" width="100" height="33.33" fill="#d80027"/>
          <polygon points="65 42.9 65 37.9 66.67 37.9 66.67 34.56 63.33 34.56 63.33 36.23 60 36.23 60 34.56 56.67 34.56 56.67 37.9 58.33 37.9 58.33 42.9 55 42.9 55 31.23 56.67 31.23 56.67 27.9 53.33 27.9 53.33 29.57 51.67 29.57 51.67 27.9 48.33 27.9 48.33 29.57 46.67 29.57 46.67 27.9 43.33 27.9 43.33 31.23 45 31.23 45 42.9 41.67 42.9 41.67 37.9 43.33 37.9 43.33 34.56 40 34.56 40 36.23 36.67 36.23 36.67 34.56 33.33 34.56 33.33 37.9 35 37.9 35 42.9 31.67 42.9 31.67 56.23 68.33 56.23 68.33 42.9 65 42.9" fill="#d80027"/>
        </g>
        <path d="M50,54.57a5,5,0,0,0-1.67,9.71v7h-5V77.9h8.34V64.28A5,5,0,0,0,50,54.57Zm0,6.66a1.67,1.67,0,1,1,1.67-1.66A1.66,1.66,0,0,1,50,61.23Z" fill="#ffda44"/>
      </g>
      <g>
        <path d="M10.39,74.25V25.75A26.64,26.64,0,0,1,30.24,0H0V100H30.24A26.66,26.66,0,0,1,10.39,74.25Z" opacity="0.2" style="isolation: isolate"/>
        <path d="M89.61,25.75V74.24A26.64,26.64,0,0,1,69.76,100H100V0H69.76A26.66,26.66,0,0,1,89.61,25.75Z" fill="#fff" opacity="0.1" style="isolation: isolate"/>
      </g>
    </g>
  </g>
</svg>
