<svg xmlns="http://www.w3.org/2000/svg" xmlns:xlink="http://www.w3.org/1999/xlink" width="100" height="100" viewBox="0 0 100 100">
  <defs>
    <clipPath id="a">
      <path d="M73.3,100H26.7A26.63,26.63,0,0,1,0,73.3V26.7A26.63,26.63,0,0,1,26.7,0H73.4A26.61,26.61,0,0,1,100,26.7V73.4A26.61,26.61,0,0,1,73.3,100Z" fill="none"/>
    </clipPath>
  </defs>
  <title>flag_oc_micro_guam</title>
  <g clip-path="url(#a)">
    <g>
      <g>
        <rect width="100" height="100" fill="#d80027"/>
        <rect x="2.17" y="2.17" width="95.65" height="95.65" fill="#0052b4"/>
        <path d="M47.92,73.22c-.5-.44-12.31-10.7-12.31-23.22S47.42,27.22,47.92,26.78L50,25l2.08,1.78c.5.43,12.31,10.7,12.31,23.22S52.58,72.79,52.08,73.22L50,75Z" fill="#d80027"/>
        <path d="M61.19,50C61.19,38.81,50,29.21,50,29.21S38.81,38.81,38.81,50a21.46,21.46,0,0,0,2.5,9.59H58.69A21.59,21.59,0,0,0,61.19,50Z" fill="#338af3"/>
        <path d="M61.19,50a21.46,21.46,0,0,1-2.5,9.59L50,61.19l-8.69-1.6A21.59,21.59,0,0,1,38.81,50Z" fill="#0052b4"/>
        <path d="M50,70.79a40.46,40.46,0,0,0,8.69-11.2H41.31A40.46,40.46,0,0,0,50,70.79Z" fill="#ffda44"/>
        <polygon points="42.8 43.6 57.2 43.6 50 50.8 42.8 43.6" fill="#6da544"/>
        <rect x="47.6" y="48.4" width="4.8" height="14.39" fill="#a2001d"/>
      </g>
      <g>
        <path d="M10.39,74.25V25.75A26.64,26.64,0,0,1,30.24,0H0V100H30.24A26.66,26.66,0,0,1,10.39,74.25Z" opacity="0.2" style="isolation: isolate"/>
        <path d="M89.61,25.75V74.24A26.64,26.64,0,0,1,69.76,100H100V0H69.76A26.66,26.66,0,0,1,89.61,25.75Z" fill="#fff" opacity="0.1" style="isolation: isolate"/>
      </g>
    </g>
  </g>
</svg>
