<svg xmlns="http://www.w3.org/2000/svg" xmlns:xlink="http://www.w3.org/1999/xlink" width="100" height="100" viewBox="0 0 100 100">
  <defs>
    <clipPath id="a">
      <path d="M73.3,100H26.7A26.63,26.63,0,0,1,0,73.3V26.7A26.63,26.63,0,0,1,26.7,0H73.4A26.61,26.61,0,0,1,100,26.7V73.4A26.61,26.61,0,0,1,73.3,100Z" fill="none"/>
    </clipPath>
  </defs>
  <title>flag_na_cr_puerto_rico</title>
  <g clip-path="url(#a)">
    <g>
      <g>
        <rect width="100" height="100" fill="#f0f0f0"/>
        <g>
          <rect width="100" height="20" fill="#d80027"/>
          <rect y="40" width="100" height="20" fill="#d80027"/>
          <rect y="80" width="100" height="20" fill="#d80027"/>
        </g>
        <polygon points="0 100 50 50 0 0 0 100" fill="#0052b4"/>
        <polygon points="16.3 36.56 19.64 46.83 30.43 46.83 21.7 53.17 25.04 63.44 16.3 57.09 7.57 63.44 10.91 53.17 2.17 46.83 12.97 46.83 16.3 36.56" fill="#f0f0f0"/>
      </g>
      <g>
        <path d="M10.39,74.25V25.75A26.64,26.64,0,0,1,30.24,0H0V100H30.24A26.66,26.66,0,0,1,10.39,74.25Z" opacity="0.2" style="isolation: isolate"/>
        <path d="M89.61,25.75V74.24A26.64,26.64,0,0,1,69.76,100H100V0H69.76A26.66,26.66,0,0,1,89.61,25.75Z" fill="#fff" opacity="0.1" style="isolation: isolate"/>
      </g>
    </g>
  </g>
</svg>
