<svg xmlns="http://www.w3.org/2000/svg" xmlns:xlink="http://www.w3.org/1999/xlink" width="100" height="100" viewBox="0 0 100 100">
  <defs>
    <clipPath id="a">
      <path d="M73.3,100H26.7A26.63,26.63,0,0,1,0,73.3V26.7A26.63,26.63,0,0,1,26.7,0H73.4A26.61,26.61,0,0,1,100,26.7V73.4A26.61,26.61,0,0,1,73.3,100Z" fill="none"/>
    </clipPath>
  </defs>
  <title>flag_na_cr_bonaire</title>
  <g clip-path="url(#a)">
    <g>
      <g>
        <rect width="100" height="100" fill="#f0f0f0"/>
        <polygon points="0 100 100 100 100 0 100 0 0 100" fill="#0052b4"/>
        <polygon points="48.91 0 0 0 0 0 0 48.91 48.91 0" fill="#ffda44"/>
        <path d="M36.73,48.87l2.87-1.55-2.87-1.56a10.15,10.15,0,0,0-8.47-8.47L26.7,34.42l-1.55,2.87a10.15,10.15,0,0,0-8.47,8.47L13.8,47.32l2.88,1.56a10.14,10.14,0,0,0,8.47,8.46l1.55,2.88,1.56-2.88A10.14,10.14,0,0,0,36.73,48.87Zm-10,4.25a5.8,5.8,0,1,1,5.8-5.8A5.8,5.8,0,0,1,26.7,53.12Z"/>
        <polygon points="26.7 42.97 27.96 45.15 30.47 45.15 29.21 47.32 30.47 49.49 27.96 49.49 26.7 51.67 25.45 49.49 22.94 49.49 24.19 47.32 22.94 45.15 25.45 45.15 26.7 42.97" fill="#d80027"/>
      </g>
      <g>
        <path d="M10.39,74.25V25.75A26.64,26.64,0,0,1,30.24,0H0V100H30.24A26.66,26.66,0,0,1,10.39,74.25Z" opacity="0.2" style="isolation: isolate"/>
        <path d="M89.61,25.75V74.24A26.64,26.64,0,0,1,69.76,100H100V0H69.76A26.66,26.66,0,0,1,89.61,25.75Z" fill="#fff" opacity="0.1" style="isolation: isolate"/>
      </g>
    </g>
  </g>
</svg>
