<svg xmlns="http://www.w3.org/2000/svg" xmlns:xlink="http://www.w3.org/1999/xlink" width="100" height="100" viewBox="0 0 100 100">
  <defs>
    <clipPath id="a">
      <path d="M73.3,100H26.7A26.63,26.63,0,0,1,0,73.3V26.7A26.63,26.63,0,0,1,26.7,0H73.4A26.61,26.61,0,0,1,100,26.7V73.4A26.61,26.61,0,0,1,73.3,100Z" fill="none"/>
    </clipPath>
  </defs>
  <title>flag_af_e_mozambique</title>
  <g clip-path="url(#a)">
    <g>
      <g>
        <rect width="100" height="100" fill="#f0f0f0"/>
        <rect y="69.57" width="100" height="30.43" fill="#ffda44"/>
        <rect width="100" height="30.62" fill="#496e2d"/>
        <rect y="36.78" width="100" height="26.27"/>
        <polygon points="50 50 0 100 0 0 50 50" fill="#a2001d"/>
        <polygon points="16.3 36.56 19.64 46.83 30.43 46.83 21.7 53.17 25.04 63.44 16.3 57.09 7.57 63.44 10.91 53.17 2.17 46.83 12.97 46.83 16.3 36.56" fill="#ffda44"/>
        <rect x="6.54" y="50" width="19.52" height="8.96" fill="#f0f0f0"/>
        <polygon points="29.77 39.73 26.6 36.56 16.3 46.85 6.01 36.56 2.84 39.73 13.15 50.01 2.84 60.31 6.01 63.44 16.3 53.16 26.6 63.44 29.77 60.31 19.46 50.01 29.77 39.73"/>
      </g>
      <g>
        <path d="M10.39,74.25V25.75A26.64,26.64,0,0,1,30.24,0H0V100H30.24A26.66,26.66,0,0,1,10.39,74.25Z" opacity="0.2" style="isolation: isolate"/>
        <path d="M89.61,25.75V74.24A26.64,26.64,0,0,1,69.76,100H100V0H69.76A26.66,26.66,0,0,1,89.61,25.75Z" fill="#fff" opacity="0.1" style="isolation: isolate"/>
      </g>
    </g>
  </g>
</svg>
