<svg xmlns="http://www.w3.org/2000/svg" xmlns:xlink="http://www.w3.org/1999/xlink" width="100" height="100" viewBox="0 0 100 100">
  <defs>
    <clipPath id="a">
      <path d="M73.3,100H26.7A26.63,26.63,0,0,1,0,73.3V26.7A26.63,26.63,0,0,1,26.7,0H73.4A26.61,26.61,0,0,1,100,26.7V73.4A26.61,26.61,0,0,1,73.3,100Z" fill="none"/>
    </clipPath>
  </defs>
  <title>flag_as_e_hong_kong</title>
  <g clip-path="url(#a)">
    <g>
      <g>
        <rect width="100" height="100" fill="#d80027"/>
        <g>
          <path d="M54.82,38c-1.14,4.75-3.17,3.85-4.16,8a10.92,10.92,0,1,1,5.1-21.24C53.77,33.07,55.84,33.79,54.82,38Z" fill="#f0f0f0"/>
          <path d="M39.61,41.55c4.16,2.56,2.67,4.2,6.3,6.43A10.92,10.92,0,0,1,27.29,36.56C34.55,41,35.88,39.27,39.61,41.55Z" fill="#f0f0f0"/>
          <path d="M38.25,57.11c3.71-3.17,4.82-1.25,8.06-4A10.92,10.92,0,0,1,29.7,67.28C36.18,61.75,34.93,60,38.25,57.11Z" fill="#f0f0f0"/>
          <path d="M52.63,63.21c-1.87-4.52.3-5-1.33-8.91a10.92,10.92,0,0,1,8.36,20.18C56.4,66.61,54.3,67.24,52.63,63.21Z" fill="#f0f0f0"/>
          <path d="M62.87,51.42c-4.87.38-4.64-1.83-8.88-1.5a10.92,10.92,0,1,1,21.77-1.7C67.27,48.88,67.22,51.08,62.87,51.42Z" fill="#f0f0f0"/>
        </g>
      </g>
      <g>
        <path d="M10.39,74.25V25.75A26.64,26.64,0,0,1,30.24,0H0V100H30.24A26.66,26.66,0,0,1,10.39,74.25Z" opacity="0.2" style="isolation: isolate"/>
        <path d="M89.61,25.75V74.24A26.64,26.64,0,0,1,69.76,100H100V0H69.76A26.66,26.66,0,0,1,89.61,25.75Z" fill="#fff" opacity="0.1" style="isolation: isolate"/>
      </g>
    </g>
  </g>
</svg>
