<svg xmlns="http://www.w3.org/2000/svg" xmlns:xlink="http://www.w3.org/1999/xlink" width="100" height="100" viewBox="0 0 100 100">
  <defs>
    <clipPath id="a">
      <path d="M73.3,100H26.7A26.63,26.63,0,0,1,0,73.3V26.7A26.63,26.63,0,0,1,26.7,0H73.4A26.61,26.61,0,0,1,100,26.7V73.4A26.61,26.61,0,0,1,73.3,100Z" fill="none"/>
    </clipPath>
  </defs>
  <title>flag_as_e_north_korea</title>
  <g clip-path="url(#a)">
    <g>
      <g>
        <rect y="16.67" width="100" height="66.67" fill="#91dc5a"/>
        <rect width="100" height="100" fill="#f0f0f0"/>
        <g>
          <rect width="100" height="16.75" fill="#0052b4"/>
          <rect y="83.25" width="100" height="16.75" fill="#0052b4"/>
        </g>
        <rect y="23.4" width="100" height="53.2" fill="#d80027"/>
        <circle cx="31.25" cy="50" r="18.75" fill="#f0f0f0"/>
        <polygon points="31.25 31.25 35.46 44.2 49.09 44.2 38.06 52.2 42.3 65.19 31.25 57.15 20.22 65.17 24.44 52.2 13.42 44.2 27.04 44.2 31.25 31.25" fill="#d80027"/>
      </g>
      <g>
        <path d="M10.39,74.25V25.75A26.64,26.64,0,0,1,30.24,0H0V100H30.24A26.66,26.66,0,0,1,10.39,74.25Z" opacity="0.2" style="isolation: isolate"/>
        <path d="M89.61,25.75V74.24A26.64,26.64,0,0,1,69.76,100H100V0H69.76A26.66,26.66,0,0,1,89.61,25.75Z" fill="#fff" opacity="0.1" style="isolation: isolate"/>
      </g>
    </g>
  </g>
</svg>
