<?xml version="1.0" encoding="utf-8"?>
<!-- Generator: Adobe Illustrator 23.0.0, SVG Export Plug-In . SVG Version: 6.00 Build 0)  -->
<svg version="1.0" id="Layer_1" xmlns="http://www.w3.org/2000/svg" xmlns:xlink="http://www.w3.org/1999/xlink" x="0px" y="0px"
	 viewBox="0 0 100 100" enable-background="new 0 0 100 100" xml:space="preserve">
<g>
	<g>
		<defs>
			<path id="SVGID_1_" d="M73.3,100H26.7C12,100,0,88.1,0,73.4v-0.1V26.7C0,12,11.9,0,26.6,0h0.1h46.7C88.1,0,100,11.9,100,26.6v0.1
				v46.7C100,88.1,88.1,100,73.3,100C73.4,100,73.3,100,73.3,100z"/>
		</defs>
		<clipPath id="SVGID_2_">
			<use xlink:href="#SVGID_1_"  overflow="visible"/>
		</clipPath>
		<g clip-path="url(#SVGID_2_)">
			<g>
				<g>
					<polygon fill="#FFDA44" points="46,0 0,100 83.5,0 					"/>
					<polygon fill="#6DA544" points="100,71.5 0,100 100,100 					"/>
					<polygon fill="#D80027" points="100,0 83.5,0 0,100 100,40.1 					"/>
					<polygon fill="#FEFEFE" points="100,71.5 100,40.1 0,100 					"/>
					<polygon fill="#0052B4" points="0,0 0,100 46,0 					"/>
				</g>
				<g>
					<path opacity="0.2" enable-background="new    " d="M10.4,74.3V25.8c0-12.1,8.2-22.7,19.8-25.8H0v100h30.2
						C18.5,96.9,10.4,86.3,10.4,74.3z"/>
					<path opacity="0.1" fill="#FFFFFF" enable-background="new    " d="M89.6,25.8v48.5c0,12.1-8.2,22.7-19.8,25.8H100V0H69.8
						C81.5,3.1,89.6,13.7,89.6,25.8z"/>
				</g>
			</g>
		</g>
	</g>
</g>
</svg>
