<svg xmlns="http://www.w3.org/2000/svg" xmlns:xlink="http://www.w3.org/1999/xlink" width="100" height="100" viewBox="0 0 100 100">
  <defs>
    <clipPath id="a">
      <path d="M73.3,100H26.7A26.63,26.63,0,0,1,0,73.3V26.7A26.63,26.63,0,0,1,26.7,0H73.4A26.61,26.61,0,0,1,100,26.7V73.4A26.61,26.61,0,0,1,73.3,100Z" fill="none"/>
    </clipPath>
  </defs>
  <title>flag_af_e_mayotte_(local)</title>
  <g clip-path="url(#a)">
    <g>
      <g>
        <rect width="100" height="100" fill="#fff"/>
        <path d="M24.54,30.67V23.41H26.9l1.55,5.53L30,23.41h2.37v7.26h-1.5V24.82l-1.58,5.85H27.64L26,24.82v5.85h-1.5m12.34-5.8L35.8,28H38l-1.08-3.09M36,23.41H37.8l2.8,7.26H38.92l-.53-1.49h-3l-.52,1.49H33.18L36,23.41m8.93,7.26h-1.6V28l-2.83-4.56h2l1.67,3.13,1.53-3.13h1.83L44.88,28v2.7m4.55-3.62A2.71,2.71,0,0,0,50,28.91a2,2,0,0,0,1.59.66,2,2,0,0,0,1.61-.66,2.71,2.71,0,0,0,.58-1.86,2.71,2.71,0,0,0-.58-1.86,2,2,0,0,0-1.61-.66,2,2,0,0,0-1.59.66,2.71,2.71,0,0,0-.58,1.86m-1.63,0a3.77,3.77,0,0,1,1-2.79,4.24,4.24,0,0,1,5.54,0,3.77,3.77,0,0,1,1,2.79,3.77,3.77,0,0,1-1,2.79,4.24,4.24,0,0,1-5.54,0,3.77,3.77,0,0,1-1-2.79m10.49,3.62v-6H56v-1.3h6.2v1.3H59.89v6h-1.6m6.42,0v-6H62.4v-1.3h6.21v1.3h-2.3v6h-1.6m4.82,0V23.41h5.64v1.27H71.11v1.54h3.72v1.24H71.11v1.87h4.25v1.34H69.53" fill="#d42e12"/>
        <g>
          <path d="M29.41,36a4.46,4.46,0,0,0-1.87.69,1.46,1.46,0,0,1-.46.21s-.08-.13-.1-.27a.93.93,0,0,0-.1-.32c-.09-.13-.18,0-.36.43-.08.21-.17.42-.19.45s-.2.06-.34-.11-.35-.23-.4-.1a1.21,1.21,0,0,0,0,.34c.08.45-.06.52-.45.22s-.46-.32-.59-.25-.13.17,0,.57.16.59,0,.39a1.4,1.4,0,0,0-.39-.26l-.63-.33a5.33,5.33,0,0,0-.51-.24,7.58,7.58,0,0,0-1.44-.21s.13.14.34.29a6.67,6.67,0,0,1,1.38,1.26c0,.06-.05.07-.38,0s-.42-.05-.33.4c0,.16,0,.26,0,.29s-.18,0-.4,0l-.39-.07c-.07,0,0,.38.07.7s.09.33,0,.38-.21,0-.93-.3a1.41,1.41,0,0,0-.78-.22,1,1,0,0,0-.39.08l-.13.06.31.34a4.36,4.36,0,0,1,.79,1.15c.11.35-.25.41-1.43.26a2.64,2.64,0,0,0-1.3,0,3.15,3.15,0,0,0-.74.7,2.7,2.7,0,0,0,.61.07,3.68,3.68,0,0,1,1.65.38c.4.22.39.27,0,.27a1.11,1.11,0,0,0-.76.21c-.1.07-.1.08,0,.18a1.24,1.24,0,0,0,.73.32l.32.07a1.39,1.39,0,0,1-.33.07,6.44,6.44,0,0,0-1.53.46c-.31.15-.32.17-.38.62l0,.18.15,0a10.46,10.46,0,0,1,1.67,0c.31.07.22.14-.25.2a4,4,0,0,0-1.08.21l-.13.07.26.13a3.57,3.57,0,0,0,.73.22c1.12.23,1.26.36.32.31-.76,0-1.07,0-1.05.11s.5.36,1,.48c.3.08.19.14-.3.16a1.22,1.22,0,0,0-.92.31,1,1,0,0,0,.09.85.19.19,0,0,0,.13,0,2.09,2.09,0,0,1,.43-.25c.37-.17.37-.17.89-.09.23,0,.42.22.59.56a4,4,0,0,0,.37.57l.32.39c.09.11.09.12,0,.32l-.13.28c-.08.3-1.54.2-2.69-.18a6.66,6.66,0,0,1-1.44-.71L16.33,49v.18A2.67,2.67,0,0,0,17,50.78l.23.2-.23.45c-.29.56-.31.77-.09,1s.14.19.12.22a.74.74,0,0,1-.27.21c-.43.25-.41.22-.24.31a1.49,1.49,0,0,0,.51.11.93.93,0,0,1,.41.09c.12.15-.13.46-.56.72-.07,0,0,.06.29.11s.51.05.68.06h.29l-.1.18a1.68,1.68,0,0,1-.53.56l-.13.09.15,0a1.64,1.64,0,0,0,.37,0,2.2,2.2,0,0,1,.89,0c.14.11,0,.36-.35.72l-.33.31.21,0A2.19,2.19,0,0,0,19.53,56a.85.85,0,0,1,.26-.11,2,2,0,0,1-.35.95c0,.05-.06.1,0,.12A2.35,2.35,0,0,0,20,57a1.42,1.42,0,0,0,.7-.09l.18-.08a.66.66,0,0,1,0,.22.58.58,0,0,1-.13.39l-.12.15h.14a3.22,3.22,0,0,0,1.3-.43c.17-.12.19-.11.19.06a1.25,1.25,0,0,1-.22.62c-.1.11-.08.11.39,0a3.27,3.27,0,0,0,1-.38c.18-.13.2-.12.16.08a.57.57,0,0,1-.32.47c-.08,0-.13.09-.12.1a6.12,6.12,0,0,0,1.27-.2,1.18,1.18,0,0,0,.3-.15c.08-.07.08-.07.08,0a1,1,0,0,1-.12.35l-.12.24s.27,0,.57-.17a1.42,1.42,0,0,1,.44-.14.72.72,0,0,1,.5.38,1,1,0,0,0,.44.34l.33.17,0-.19c0-.18.81-2.25.89-2.33a17.11,17.11,0,0,1,1.91,1.31A16.5,16.5,0,0,1,31.84,60a5.94,5.94,0,0,1,1.38,4A7.84,7.84,0,0,1,33,66.1a8,8,0,0,1-2.62,4.34,5,5,0,0,1-3.34.7c-2-.06-3.29-.48-4.23-1.4a4.86,4.86,0,0,1-1.35-2.63,7.51,7.51,0,0,1-.05-.93,3.57,3.57,0,0,1,.83-2.59,2.8,2.8,0,0,1,1.71-.92,2.3,2.3,0,0,1,1.83.53c.31.29.32.43.08.92s-.24.56-.1.7.39.12.7,0a1.32,1.32,0,0,0,.62-1.4,1.53,1.53,0,0,0-1-1.36,3.47,3.47,0,0,0-1.95-.38,3.16,3.16,0,0,0-1.31.14,2.85,2.85,0,0,0-1.67,1.09,6.8,6.8,0,0,0-1.05,4.63,6.87,6.87,0,0,0,7.27,5.31,7.74,7.74,0,0,0,4.57-1.23,8.23,8.23,0,0,0,3.26-4.22A4.32,4.32,0,0,0,35.52,66a1.15,1.15,0,0,1,.09-.48,1.63,1.63,0,0,0,.14-1.24l-.07-.23.15-.13a.81.81,0,0,0-.06-1.08l-.14-.16.15-.15A1.46,1.46,0,0,0,36,61.4c0-.37-.18-.87-.27-.87s0-.13.1-.21a.7.7,0,0,0,.33-.63,2.66,2.66,0,0,0-.42-1.53c-.07,0-.08-.16,0-.16s.25-.44.28-.85A1.45,1.45,0,0,0,35.77,56l-.14-.14.15-.31A.85.85,0,0,0,35.9,55a3.16,3.16,0,0,0-1-1.72c-.15-.1-.2-.16-.2-.27a2.21,2.21,0,0,0-.7-1.26,2.44,2.44,0,0,1-.7-1,1,1,0,0,0-.33-.53,3,3,0,0,0-1-.61c-.06,0-.09-.06-.09-.13a1.44,1.44,0,0,0-.72-1c-.17-.08-.19-.11-.19-.25s-.16-.39-.54-.65a4,4,0,0,0-1.82-.46C26.7,47,25.87,46.67,25,45.81a3,3,0,0,1-.92-1.58,2.67,2.67,0,0,1,0-1.53,3.15,3.15,0,0,1,.48-.9,1,1,0,0,1-.06.35,3.4,3.4,0,0,0,0,1.55,1.81,1.81,0,0,0,.9,1.11,2,2,0,0,0,.95.23,2,2,0,0,1,1.05.31,1.48,1.48,0,0,0,1.38.08,2.66,2.66,0,0,1,.6-.12l.34,0,.44.31c.46.32,2.44,1.43,2.79,1.57a1.35,1.35,0,0,0,1.65-.41c.24-.38,0-.74-1-1.68-.84-.75-1-1-1.15-1.45a6.13,6.13,0,0,0-.35-.89c-.35-.75-.35-.88,0-1.22a2.24,2.24,0,0,0,.31-.43,1.11,1.11,0,0,0,0-.63,1.41,1.41,0,0,0-.51.1c-.05,0-.06,0-.05-.38a1.85,1.85,0,0,0,0-.55l-.06-.15-.18.17c-.17.17-.3.21-.36.12a1.66,1.66,0,0,1-.07-.3c-.05-.3-.24-.77-.29-.71a1.79,1.79,0,0,0-.09.21c0,.1-.07.18-.1.18a.68.68,0,0,1-.07-.25c-.05-.41-.11-.58-.24-.7s-.13-.1-.16,0a.38.38,0,0,0,0,.19,2.83,2.83,0,0,1-.31,1c-.34.68-.67.61-1.33-.27-.39-.5-.44-.66-.34-.89a4.34,4.34,0,0,1,2.31-1.56,1.24,1.24,0,0,0,.34-.14c0-.09-.24-.3-.45-.4A1.54,1.54,0,0,0,29.41,36Z" fill="#dfdfdf"/>
          <path d="M19.56,45.45c.31-.17-1.16-.15-1.47-.14s-.4.15-.47.12,0-.26.05-.66a2,2,0,0,1,.73-.37l.73-.23a5.16,5.16,0,0,0,.73-.1,1.6,1.6,0,0,1-1.2-.48c.18-.11.25-.24.47-.3a1.9,1.9,0,0,1,.46,0c.34,0,.44.06.21-.1a2.88,2.88,0,0,0-1.14-.44,12.06,12.06,0,0,0-1.38-.09,2.66,2.66,0,0,1,.57-.62c.26-.32.87-.32,1.78-.17,1.44.18,1.52,0,.62-1.14l-.58-.64.36-.15h.4a9.17,9.17,0,0,1,1.16.5c.47.21.45,0,.3-.37s0-.32-.08-.67c.24,0,.86.23.86.08s-.08-.29-.13-.7c.21,0,.67.06.77,0s-.14-.26-.39-.48l-.63-.57-.9-.6,1.33.16a4.11,4.11,0,0,1,1.4.63,1.5,1.5,0,0,1,.44.23c.24.08,0,.32.13.1s-.32-.62-.27-.86c.3-.56.95.46,1.09.29s-.13-.66.08-.79.48.45.65.34.27-.92.53-1,.16.82.33.7A5.19,5.19,0,0,1,29,36,3.87,3.87,0,0,1,30.06,36a1,1,0,0,1,.74.57,5.35,5.35,0,0,0-1,.35,4.8,4.8,0,0,0-1.38.91c-.5.56-.5.61.06,1.32.7,1,1.05.91,1.44-.21a8.38,8.38,0,0,0,.18-.87,1,1,0,0,1,.31.25,3.24,3.24,0,0,1,.15.87c.07,0,.14-.23.21-.54a5.71,5.71,0,0,1,.28.61c.06.16,0,.59.19.59s.22-.2.44-.39a1.71,1.71,0,0,1,.09,1.13,4.44,4.44,0,0,1,.6-.16,1.27,1.27,0,0,1,0,.55,1.19,1.19,0,0,1-.37.6c-.35.3-.35.47,0,1.15a3.52,3.52,0,0,1,.41,1.14,4.05,4.05,0,0,0,1.2,1.32c.82.71,1.12,1.15,1,1.47a1.39,1.39,0,0,1-2,.47L30.69,46c-.46-.25-.76-.52-1-.69a2.29,2.29,0,0,0-1.17.22c-.59.09-1.06,0-1.17-.14a1.46,1.46,0,0,0-1-.33,1.89,1.89,0,0,1-2-1.91,3.76,3.76,0,0,1,.21-1.36,2.52,2.52,0,0,0-.45,2.4c.28,1.25,1.58,2.87,4.46,2.9a7.58,7.58,0,0,1,1.51.27c.33.19,1,.56.88,1a1.28,1.28,0,0,1,.91,1.15c1.31.39,1.48,1.15,1.48,1.3a2.45,2.45,0,0,0,.73,1,1.84,1.84,0,0,1,.63,1.34,2.48,2.48,0,0,1,.9.95c.23.47.62,1.07,0,1.78.6.22.57,1.93.09,2.17.36.25.43.84.51,1.65a.75.75,0,0,1-.52.73.67.67,0,0,1,.27.43,2.61,2.61,0,0,1,.1.72,2.19,2.19,0,0,1-.11.7c-.08.19-.19.33-.35.36.54.35.53,1.28.07,1.38.26.47.17,1.41-.16,1.59A4.26,4.26,0,0,1,35,67.77a8.31,8.31,0,0,1-1.59,2.59A8,8,0,0,1,31,72.13a9.71,9.71,0,0,1-7.54-.06A7,7,0,0,1,20,67.29c-.26-1.7.56-4.2,1.62-5,1.67-1.23,4.92-.82,5.39.68a1.56,1.56,0,0,1-.61,1.87c-.74.27-1-.08-.62-.73s.26-.65-.2-1a2.7,2.7,0,0,0-4,1.7,4.87,4.87,0,0,0,2.31,5.7c1.65.82,5,.88,6.13.14,2.29-1.44,3.73-5.34,3-8.27a9.7,9.7,0,0,0-4-5l-1.29-.91-.47,1.21c-.25.63-.47,1-.41,1.38-.38-.24-.52-.19-.78-.44s-.34-.56-.66-.47a3.76,3.76,0,0,1-1,.34c.15-.36.31-.37.29-.72-.24.3-.92.34-1.8.43.69-.39.56-.47.61-.8a3.31,3.31,0,0,1-1.69.62,1.05,1.05,0,0,0,.37-.91,2.92,2.92,0,0,1-1.68.57c.31-.36.31-.35.31-.79a2.14,2.14,0,0,1-1.55.13,1.78,1.78,0,0,0,.48-1.1,2,2,0,0,1-1.71.25,3.32,3.32,0,0,0,.74-.75c.14-.27.05-.35-.42-.35s-.55.2-1,0c.69-.27.87-1.16,1-1.17.62-.07-.86,1.12.46.87a3.13,3.13,0,0,1,.73,0,5.12,5.12,0,0,1-.35.45c-.17.25-.2.57-.59.77a1.27,1.27,0,0,0,.82-.14,6.47,6.47,0,0,1,.69-.58,1.4,1.4,0,0,1,0,.65,3.11,3.11,0,0,1-.26.83c.51.12.82,0,.91-.26s.32-.49.58-.56c.1.31,0,.33-.05.59s-.14.52-.23.8a2,2,0,0,0,1.15-.72c.56-.47.56-.47.38.15a2.79,2.79,0,0,1-.2.85,1.7,1.7,0,0,0,1.2-.71c.29-.44.32-.41.2.15a2.66,2.66,0,0,1,0,.8,1.42,1.42,0,0,0,1-.65c.3-.44.33-.41.21.14-.08.36.06.43-.15.8.51-.22.53-.16.71-.44s.31.08.54.52.35.36.49.37a4.42,4.42,0,0,1,.37-1,4.92,4.92,0,0,0,.41-1.23l-1.61-.85c-.85-.41-1.55-.88-1.55-1.06s-.15-.26-.36-.26a3,3,0,0,1-1.7-1.62,2.49,2.49,0,0,0-.58-1.08c-.44-.59-.94-.79-2.26-.94a7.55,7.55,0,0,1-2.2-.68c-.24-.12-.28-.23-.46-.3a1.44,1.44,0,0,0,.43.95,2.11,2.11,0,0,0,.56.36,3.93,3.93,0,0,0-.42.7c-.29.46-.29.61.12.76s.38.23.06.44c-.13.1-.33.17-.47.26a1.44,1.44,0,0,0,.81,0c.52-.32.56-.22.34.1a3.42,3.42,0,0,1-.59.82,1.64,1.64,0,0,0,.73-.14c.3-.12.54-.2.34.25s-.08-.17-.27.25a4.66,4.66,0,0,1-1.54-.14c.47-.25.64-.45.7-.59s-.17-.24-.4-.24a.85.85,0,0,1-.7-.24,2.34,2.34,0,0,0,.73-.46c-.6-.35-.26-.88-.11-1.13a4.92,4.92,0,0,1,.26-.51c-.19,0-.46-.36-.59-.6A2.4,2.4,0,0,1,16.28,49a4,4,0,0,0,.8.53,6.83,6.83,0,0,0,2.12.69c.79.12,1.49.1,1.49-.19s.31-.27.08-.5A3.17,3.17,0,0,1,20,48.28,1.17,1.17,0,0,0,19,48c-.23.12-.66.23-.86.52-.19-.09-.29-.68-.19-.95a1.3,1.3,0,0,1,.8-.36c.27,0,.42.07.66,0a3.69,3.69,0,0,1-.74-.23c-.26-.13-.52-.21-.48-.37s1.5-.07,1.7-.06-.32-.2-.68-.24a3.11,3.11,0,0,1-1.29-.45c.4-.25.6-.14.92-.26m1.21,0c-.12.25-1.53.18-1.14.28a4.48,4.48,0,0,1,1.46.51c.06.28-.32.4-.32.4l-1.39-.15c0,.19,1.35.26,1.3.55,0,.09.08.26-.37.21a3.39,3.39,0,0,0-1.23.14.44.44,0,0,0-.18.57,2.34,2.34,0,0,1,.7-.36,1.69,1.69,0,0,1,.9.13,1.18,1.18,0,0,1,.65.66,2,2,0,0,0,1.06,1,3.52,3.52,0,0,1,1.55,1,4.27,4.27,0,0,0,1.55,1.42c.88.79.12.51.49.57a3,3,0,0,1,1.75.62,2.33,2.33,0,0,0,1.05.59c.41.11.74.32.74.47s.2.29.47.29c.64,0,3.52,3,4,4.22A10.3,10.3,0,0,1,34.3,64a11.2,11.2,0,0,1-.47,3.41c-.59,1.37-3.09,4.14-3.77,4.14a.59.59,0,0,1-.21,0c-.06.1-.1.1-.33.21a2.94,2.94,0,0,1-1.28.26,10.56,10.56,0,0,1-1.84-.13,11.55,11.55,0,0,1-1.92-.42,1.88,1.88,0,0,1-.86-.42.32.32,0,0,1-.14-.32c-.11.1-.36.08-.65-.19s-.47-.32-.35-.54c-.32,0-.38-.16-.63-.52s-.35-.43-.27-.76c-.22,0-.32-.26-.45-.55s-.31-.6-.06-.73c-.28,0-.23-.33-.26-.57s-.11-.61.17-.67c-.28-.09-.16-.39-.12-.66s.1-.58.34-.63c-.22-.1-.09-.45.06-.93s.37-.53.67-.46c-.29-.22.23-.58.35-.67.31-.26.66-.36.73-.19,0-.31,1.08-.34,1.5-.29A2.14,2.14,0,0,1,25.7,63c.62.5.65.64.32,1.17s-.08.82.47.26.41-1.32-.44-2a2.5,2.5,0,0,0-2.2-.53c-2,.21-2.75.82-3.31,2.64a6,6,0,0,0,3,7.31,7.38,7.38,0,0,0,3.79.7c2.78,0,4.51-.7,6.13-2.49,1-1.09,2.11-3.92,1.76-4.45-.58-.25,0-.25.17-.25s.33-1.21-.11-1.43c.87,0,.41-1.09-.12-1.3.47,0,.71-.48.72-1a1.09,1.09,0,0,0-.59-1.12c-.31-.09,0-.17.26-.23s.47-.13.43-.74c0-.4-.19-1.06-.48-1.19a3.92,3.92,0,0,0-1-.18,3.94,3.94,0,0,1,.85-.18c.53-.22.71-1.29.24-1.59s-1.67.29-1.74.05c.24-.26,1-.32,1.28-.55.39-.39.75-.76.11-1.67-.33-.49-.27-.62-.65-.76s-1.56.65-2.37.63c.37-.31,1.64-.56,2-.86s.1-.74-.31-1.26-.71-.47-1.35-.18a10,10,0,0,1-1.89.49c.29-.31,1.62-.64,1.92-.87.55-.41.55-.58,0-1.17l-.79-.33-.89.47a5.94,5.94,0,0,1-1.64.56c0-.06.91-.47,1.38-.73s.8-.65.8-.85c0-.74-.67-.84-1.71-.11-.53.31-1.85.71-1.93.56s.89-.37,1.37-.6,1.39-.73,1.39-1c-.12-.4-.65-.68-3-.95a4,4,0,0,1-3.4-2,2.91,2.91,0,0,1,.49-4l1.06-1-.62.94c-1.14,1.64-.58,3.61,1,3.61a2.55,2.55,0,0,1,1.23.35,1.28,1.28,0,0,0,1.12.08l.56-.16.19,0-.81-.55c-.91-.44-1.29-1.29-.79-1.79.17-.18.23,0,.14.47s0,.82.41,1a9,9,0,0,1,1.27.77,21.7,21.7,0,0,0,3.13,2c.09,0,0-.29-.38-.67s-.14-.3.38.2c.8.71,1,.8,1.41.47.65-.53.56-.76-.55-1.46a3,3,0,0,1-1.38-1.71,7.13,7.13,0,0,0-.59-1.4c-.18-.21-.09-.47.18-.71a1.44,1.44,0,0,0,.47-.85.88.88,0,0,0-.33.12c-.14.09-.29,0-.29-.29a6.93,6.93,0,0,0,.07-.76,1.8,1.8,0,0,1-.36.46.21.21,0,0,1-.33-.2,6.24,6.24,0,0,0-.13-.75,3.65,3.65,0,0,1-.5.65,4.3,4.3,0,0,0,0-1.46,5.19,5.19,0,0,1-.21,1c-.31.44-.39.54-.74.64s-.44-.11-.85-.59a2.82,2.82,0,0,1-.69-1.13,3.6,3.6,0,0,1,1.9-1.7,7.51,7.51,0,0,1,.77-.27,1.77,1.77,0,0,0-.5-.18,2.74,2.74,0,0,0-1.28.18,5.1,5.1,0,0,0-1.7.92c-.22,0,0-.71-.23-.61s-.16.89-.38,1-.38-.4-.53-.4.12.68-.15.84-.8-.66-.87-.54.48.72.34.81-.16.33-.56.17a9.46,9.46,0,0,0-2.1-1,7.56,7.56,0,0,1,1,.82c.59.62.75.7.29.77s-.55-.2-.76-.06.09.63-.05.72-.65-.11-.7-.05c-.23.23.17.54,0,.88-.18.5-.26.5-.85.09s-1.07-.58-1.09-.46.12.25.38.63c.86,1.2.62,1.44-1.05,1.26,0,0-1.36-.39-1.77.23a4.1,4.1,0,0,1,1.62.23,4.08,4.08,0,0,1,.71.44c.13.11.05.19,0,.42a2.5,2.5,0,0,1-1,.16c1.09.43,1,.07,1.39.29-.28.47-.51.43-1.48.57a4.46,4.46,0,0,1-.73.24c-.28.08-.44.29-.38.31a5.18,5.18,0,0,0,.64-.07,6.22,6.22,0,0,1,.95.08c.37.09.53.36.46.51Z"/>
          <path d="M30,42.63c0,.17-.1.31-.22.31s-.22-.14-.22-.31.1-.31.22-.31.22.13.22.3"/>
          <path d="M30.47,42.86a.73.73,0,0,1-.92.4.7.7,0,0,1-.42-.9.73.73,0,0,1,.93-.39.68.68,0,0,1,.41.88" fill="none" stroke="#000" stroke-width="1.7"/>
          <path d="M27.88,41.7a2.66,2.66,0,0,1,2.21.27" fill="none" stroke="#000" stroke-width="1.7"/>
          <g>
            <path d="M20.94,50.11c0-.16,0-.23.29-.4a2.6,2.6,0,0,1,1.21.57,5.45,5.45,0,0,1,1,1.16A1.69,1.69,0,0,1,23,52a5.23,5.23,0,0,1-.59.36,3.39,3.39,0,0,0-.71-1.16c-.18-.28-.72-.49-1-.7C20.73,50.3,20.84,50.29,20.94,50.11Z" fill="#dfdfdf"/>
            <path d="M23.15,52.18c.27-.17.34-.42.52-.53.25.1.19.13.59.33s.27.21.61.66a4.34,4.34,0,0,1-.42.68c-.23.2-.23.36-.44.61a1.69,1.69,0,0,1-1-.61c-.21-.26-.47-.27-.57-.71A5.64,5.64,0,0,0,23.15,52.18Z" fill="#dfdfdf"/>
            <path d="M24.68,53.43c.2-.28.24-.47.41-.67A5,5,0,0,1,26,53a1.19,1.19,0,0,1,.79.52,4.69,4.69,0,0,0-.26,1.1,3.7,3.7,0,0,1-.29.83,6.26,6.26,0,0,1-1-.54,1.7,1.7,0,0,1-.85-.86c.18-.32.17-.42.34-.58Z" fill="#dfdfdf"/>
            <path d="M26.78,54.74A3.5,3.5,0,0,1,27,53.67c.3,0,.25.13.6.25s.61.19.81.59c-.32.3-.39.26-.5.74s.08.82-.07,1.12a4,4,0,0,1-.77-.49c-.35-.21-.39-.12-.61-.34.13-.39.2-.57.28-.8Z" fill="#dfdfdf"/>
            <path d="M28.23,55.28a1.41,1.41,0,0,1,.43-.58c.35.14.5,0,.83.35a11.16,11.16,0,0,1,1.22,1,1.71,1.71,0,0,0-.74.56c-.27.37-.19.46-.35.87-.3-.19-.44-.29-.71-.45a4.6,4.6,0,0,0-.73-.57,6.27,6.27,0,0,0,.05-1.2Z" fill="#dfdfdf"/>
            <path d="M30.17,56.86c.16-.34.4-.4.59-.57.35.14.49.44.82.74a6.8,6.8,0,0,1,.68.81,2.24,2.24,0,0,0-.67.41,4.25,4.25,0,0,0-.56.48,6.15,6.15,0,0,0-.45-.49c-.29-.26-.32-.25-.7-.6A4.48,4.48,0,0,1,30.17,56.86Z" fill="#dfdfdf"/>
            <path d="M31.78,58.49c.2-.15.39-.26.56-.38a2.22,2.22,0,0,1,.42.56,1.83,1.83,0,0,1,.3.52c-.3.15-.27.11-.49.22a6.17,6.17,0,0,0-.58.4c-.21-.24-.06-.16-.33-.42s-.21-.29-.41-.5a2.49,2.49,0,0,1,.53-.4Z" fill="#dfdfdf"/>
            <path d="M32.58,59.68l.56-.26c.13.26.17.29.27.51s.1.27.21.56l-.45.18-.49.26c-.17-.31-.16-.24-.26-.42a4.1,4.1,0,0,0-.31-.48C32.35,59.85,32.43,59.78,32.58,59.68Z" fill="#dfdfdf"/>
            <path d="M33.19,60.9a4.67,4.67,0,0,1,.45-.18,5.65,5.65,0,0,1,.3,1,8,8,0,0,1,.12,1.06c-.22,0-.13,0-.32,0a2,2,0,0,0-.4.13,4,4,0,0,0-.22-.94,4.72,4.72,0,0,0-.38-.9C33,61,33,61,33.19,60.9Z" fill="#dfdfdf"/>
            <path d="M33.72,63.07,34,63a8.56,8.56,0,0,1,0,1.24c0,.57,0,1-.14,1.61a.89.89,0,0,0-.31-.07h-.38a5.7,5.7,0,0,0,.18-1.38,8.7,8.7,0,0,0,0-1.24c.15,0,.21-.08.34-.11Z" fill="#dfdfdf"/>
            <path d="M33.46,66.07c.07,0,.26,0,.42,0A5,5,0,0,1,33.24,68,12.43,12.43,0,0,1,32,69.6c-.06,0-.1-.1-.16-.15s-.1-.07-.17-.14a7.12,7.12,0,0,0,1-1.65A8.28,8.28,0,0,0,33.16,66a.36.36,0,0,0,.3,0Z" fill="#dfdfdf"/>
            <path d="M31.68,69.6l.2.14c-.23.27-.4.43-.83.86a3.43,3.43,0,0,1-1.09.72.92.92,0,0,1-.12-.16.57.57,0,0,1-.1-.18,2.68,2.68,0,0,0,1-.59,5.32,5.32,0,0,0,.81-.88.73.73,0,0,1,.13.09Z" fill="#dfdfdf"/>
            <path d="M29.57,71.26c.06.08,0,.11.09.21a2.75,2.75,0,0,1-1.12.34,9.11,9.11,0,0,1-1.72,0c0-.12,0-.13,0-.23a1.08,1.08,0,0,1,0-.18,7.23,7.23,0,0,0,1.45,0,6,6,0,0,0,1.21-.23c.06.12.06.09.07.17Z" fill="#dfdfdf"/>
            <path d="M26.59,71.54c0,.09,0,.07,0,.19-.71-.12-.72-.1-1.58-.28a4.74,4.74,0,0,1-1.26-.54c0-.14,0-.12,0-.18s0,0,.1-.11a5,5,0,0,0,1.26.46,14.49,14.49,0,0,0,1.52.23c0,.12,0,.15,0,.23Z" fill="#dfdfdf"/>
            <path d="M23.53,70.55c-.11.08-.11.12-.25.1s-.25-.09-.46-.27-.26-.24-.23-.3.11-.31.21-.16a3.21,3.21,0,0,0,.63.48C23.6,70.51,23.57,70.52,23.53,70.55Z" fill="#dfdfdf"/>
            <path d="M22.47,69.82c-.12,0-.09.07-.19,0a3.21,3.21,0,0,1-.3-.37,2.39,2.39,0,0,1-.27-.47c0-.19.09-.31.17-.15a3,3,0,0,0,.6.81c.14.13,0,.19,0,.2Z" fill="#dfdfdf"/>
            <path d="M21.71,68.6c-.12,0-.11.06-.21,0a1.57,1.57,0,0,1-.27-.47c-.05-.13-.18-.32-.14-.44s.24-.23.28-.06a6.88,6.88,0,0,0,.26.67C21.69,68.41,21.76,68.58,21.71,68.6Z" fill="#dfdfdf"/>
            <path d="M21.3,67.29c-.05.1-.14.09-.29,0s-.07-.24-.09-.47a1.4,1.4,0,0,1,0-.41c0-.15.3-.2.32,0s0,.2,0,.42.08.39,0,.46Z" fill="#dfdfdf"/>
            <path d="M21.19,66.06c0,.08-.14.06-.21,0s0-.27,0-.47a1,1,0,0,1,.11-.41c0-.1.19-.11.19.07s0,.19,0,.38a2.24,2.24,0,0,1-.07.46Z" fill="#dfdfdf"/>
            <path d="M21.4,64.82c0,.08-.15,0-.18-.1s.08-.34.13-.53a.79.79,0,0,1,.24-.46c.09-.08.27-.13.23.05s-.22.38-.28.6-.09.31-.14.44Z" fill="#dfdfdf"/>
            <path d="M22.18,63.4c-.08,0-.18,0-.15-.08s.11-.14.29-.28a1.85,1.85,0,0,1,.33-.24c.1,0,.3-.12.23.05s-.12.09-.28.2-.36.34-.42.35Z" fill="#dfdfdf"/>
          </g>
        </g>
        <g>
          <path d="M70.59,36a4.46,4.46,0,0,1,1.87.69,1.46,1.46,0,0,0,.46.21s.08-.13.1-.27a.93.93,0,0,1,.1-.32c.09-.13.18,0,.36.43.08.21.17.42.19.45s.2.06.34-.11.35-.23.4-.1a1.21,1.21,0,0,1,0,.34c-.08.45.06.52.45.22s.46-.32.59-.25.13.17,0,.57-.16.59,0,.39a1.4,1.4,0,0,1,.39-.26l.63-.33a5.33,5.33,0,0,1,.51-.24,7.58,7.58,0,0,1,1.44-.21s-.13.14-.34.29a6.67,6.67,0,0,0-1.38,1.26c0,.06,0,.07.38,0s.42-.05.33.4c0,.16,0,.26,0,.29s.18,0,.4,0l.39-.07c.07,0,0,.38-.07.7s-.09.33,0,.38.21,0,.93-.3a1.41,1.41,0,0,1,.78-.22,1,1,0,0,1,.39.08l.13.06-.31.34a4.36,4.36,0,0,0-.79,1.15c-.11.35.25.41,1.43.26a2.64,2.64,0,0,1,1.3,0,3.15,3.15,0,0,1,.74.7,2.7,2.7,0,0,1-.61.07,3.68,3.68,0,0,0-1.65.38c-.4.22-.39.27,0,.27a1.11,1.11,0,0,1,.76.21c.1.07.1.08,0,.18a1.24,1.24,0,0,1-.73.32l-.32.07a1.39,1.39,0,0,0,.33.07,6.44,6.44,0,0,1,1.53.46c.31.15.32.17.38.62l0,.18-.15,0a10.46,10.46,0,0,0-1.67,0c-.31.07-.22.14.25.2a4,4,0,0,1,1.08.21l.13.07-.26.13a3.57,3.57,0,0,1-.73.22c-1.12.23-1.26.36-.32.31.76,0,1.07,0,1.05.11s-.5.36-1,.48c-.3.08-.19.14.3.16a1.22,1.22,0,0,1,.92.31,1,1,0,0,1-.09.85.19.19,0,0,1-.13,0,2.09,2.09,0,0,0-.43-.25C81,47.9,81,47.9,80.45,48c-.23,0-.42.22-.59.56a4,4,0,0,1-.37.57l-.32.39c-.09.11-.09.12,0,.32l.13.28c.08.3,1.54.2,2.69-.18a6.66,6.66,0,0,0,1.44-.71l.23-.17v.18A2.67,2.67,0,0,1,83,50.78l-.23.2.23.45c.29.56.31.77.09,1s-.14.19-.12.22a.74.74,0,0,0,.27.21c.43.25.41.22.24.31a1.49,1.49,0,0,1-.51.11.93.93,0,0,0-.41.09c-.12.15.13.46.56.72.07,0,0,.06-.29.11s-.51.05-.68.06h-.29l.1.18a1.68,1.68,0,0,0,.53.56l.13.09-.15,0a1.64,1.64,0,0,1-.37,0,2.2,2.2,0,0,0-.89,0c-.14.11,0,.36.35.72l.33.31-.21,0A2.19,2.19,0,0,1,80.47,56a.85.85,0,0,0-.26-.11,2,2,0,0,0,.35.95c0,.05.06.1,0,.12A2.35,2.35,0,0,1,80,57a1.42,1.42,0,0,1-.7-.09l-.18-.08a.66.66,0,0,0,0,.22.58.58,0,0,0,.13.39l.12.15h-.14a3.22,3.22,0,0,1-1.3-.43c-.17-.12-.19-.11-.19.06a1.25,1.25,0,0,0,.22.62c.1.11.08.11-.39,0a3.27,3.27,0,0,1-1-.38c-.18-.13-.2-.12-.16.08a.57.57,0,0,0,.32.47c.08,0,.13.09.12.1a6.12,6.12,0,0,1-1.27-.2,1.18,1.18,0,0,1-.3-.15c-.08-.07-.08-.07-.08,0a1,1,0,0,0,.12.35l.12.24s-.27,0-.57-.17a1.42,1.42,0,0,0-.44-.14.72.72,0,0,0-.5.38,1,1,0,0,1-.44.34L73.2,59l0-.19c0-.18-.81-2.25-.89-2.33a17.11,17.11,0,0,0-1.91,1.31A16.5,16.5,0,0,0,68.16,60a5.94,5.94,0,0,0-1.38,4A7.84,7.84,0,0,0,67,66.1a8,8,0,0,0,2.62,4.34,5,5,0,0,0,3.34.7c2-.06,3.29-.48,4.23-1.4a4.86,4.86,0,0,0,1.35-2.63,7.51,7.51,0,0,0,0-.93,3.57,3.57,0,0,0-.83-2.59,2.8,2.8,0,0,0-1.71-.92,2.3,2.3,0,0,0-1.83.53c-.31.29-.32.43-.08.92s.24.56.1.7-.39.12-.7,0a1.32,1.32,0,0,1-.62-1.4A1.53,1.53,0,0,1,74,62a3.47,3.47,0,0,1,2-.38,3.16,3.16,0,0,1,1.31.14,2.85,2.85,0,0,1,1.67,1.09,6.8,6.8,0,0,1,1.05,4.63,6.87,6.87,0,0,1-7.27,5.31,7.74,7.74,0,0,1-4.57-1.23,8.23,8.23,0,0,1-3.26-4.22A4.32,4.32,0,0,1,64.48,66a1.15,1.15,0,0,0-.09-.48,1.63,1.63,0,0,1-.14-1.24l.07-.23-.15-.13a.81.81,0,0,1,.06-1.08l.14-.16-.15-.15A1.46,1.46,0,0,1,64,61.4c0-.37.18-.87.27-.87s0-.13-.1-.21a.7.7,0,0,1-.33-.63,2.66,2.66,0,0,1,.42-1.53c.07,0,.08-.16,0-.16s-.25-.44-.28-.85A1.45,1.45,0,0,1,64.23,56l.14-.14-.15-.31A.85.85,0,0,1,64.1,55a3.16,3.16,0,0,1,1-1.72c.15-.1.2-.16.2-.27a2.21,2.21,0,0,1,.7-1.26,2.44,2.44,0,0,0,.7-1,1,1,0,0,1,.33-.53,3,3,0,0,1,1-.61c.06,0,.09-.06.09-.13a1.44,1.44,0,0,1,.72-1c.17-.08.19-.11.19-.25s.16-.39.54-.65a4,4,0,0,1,1.82-.46c1.85-.16,2.68-.47,3.55-1.33a3,3,0,0,0,.92-1.58,2.67,2.67,0,0,0,0-1.53,3.15,3.15,0,0,0-.48-.9,1,1,0,0,0,.06.35,3.4,3.4,0,0,1,0,1.55,1.81,1.81,0,0,1-.9,1.11,2,2,0,0,1-1,.23,2,2,0,0,0-1,.31,1.48,1.48,0,0,1-1.38.08,2.66,2.66,0,0,0-.6-.12l-.34,0-.44.31c-.46.32-2.44,1.43-2.79,1.57a1.35,1.35,0,0,1-1.65-.41c-.24-.38,0-.74,1-1.68.84-.75,1-1,1.15-1.45a6.13,6.13,0,0,1,.35-.89c.35-.75.35-.88,0-1.22a2.24,2.24,0,0,1-.31-.43,1.11,1.11,0,0,1-.05-.63,1.41,1.41,0,0,1,.51.1s.06,0,0-.38a1.85,1.85,0,0,1,0-.55l.06-.15.18.17c.17.17.3.21.36.12a1.66,1.66,0,0,0,.07-.3c0-.3.24-.77.29-.71a1.79,1.79,0,0,1,.09.21c0,.1.07.18.1.18a.68.68,0,0,0,.07-.25c0-.41.11-.58.24-.7s.13-.1.16,0a.38.38,0,0,1,.05.19,2.83,2.83,0,0,0,.31,1c.34.68.67.61,1.33-.27.39-.5.44-.66.34-.89a4.34,4.34,0,0,0-2.31-1.56,1.24,1.24,0,0,1-.34-.14c0-.09.24-.3.45-.4A1.54,1.54,0,0,1,70.59,36Z" fill="#dfdfdf"/>
          <path d="M80.44,45.45c-.31-.17,1.16-.15,1.47-.14s.4.15.47.12,0-.26,0-.66a2,2,0,0,0-.73-.37l-.73-.23a5.16,5.16,0,0,1-.73-.1,1.6,1.6,0,0,0,1.2-.48c-.18-.11-.25-.24-.47-.3a1.9,1.9,0,0,0-.46,0c-.34,0-.44.06-.21-.1a2.88,2.88,0,0,1,1.14-.44,12.06,12.06,0,0,1,1.38-.09,2.66,2.66,0,0,0-.57-.62c-.26-.32-.87-.32-1.78-.17-1.44.18-1.52,0-.62-1.14l.58-.64L80,39.91h-.4a9.17,9.17,0,0,0-1.16.5c-.47.21-.45,0-.3-.37s0-.32.08-.67c-.24,0-.86.23-.86.08s.08-.29.13-.7c-.21,0-.67.06-.77,0s.14-.26.39-.48l.63-.57.9-.6-1.33.16a4.11,4.11,0,0,0-1.4.63,1.5,1.5,0,0,0-.44.23c-.24.08,0,.32-.13.1s.32-.62.27-.86c-.3-.56-1,.46-1.09.29s.13-.66-.08-.79-.48.45-.65.34-.27-.92-.53-1-.16.82-.33.7A5.19,5.19,0,0,0,71,36,3.87,3.87,0,0,0,69.94,36a1,1,0,0,0-.74.57,5.35,5.35,0,0,1,1,.35,4.8,4.8,0,0,1,1.38.91c.5.56.5.61-.06,1.32-.7,1-1.05.91-1.44-.21a8.38,8.38,0,0,1-.18-.87,1,1,0,0,0-.31.25,3.24,3.24,0,0,0-.15.87c-.07,0-.14-.23-.21-.54a5.71,5.71,0,0,0-.28.61c-.06.16,0,.59-.19.59s-.22-.2-.44-.39a1.71,1.71,0,0,0-.09,1.13,4.44,4.44,0,0,0-.6-.16,1.27,1.27,0,0,0,0,.55,1.19,1.19,0,0,0,.37.6c.35.3.35.47,0,1.15a3.52,3.52,0,0,0-.41,1.14,4.05,4.05,0,0,1-1.2,1.32c-.82.71-1.12,1.15-1,1.47a1.39,1.39,0,0,0,2,.47L69.31,46c.46-.25.76-.52,1-.69a2.29,2.29,0,0,1,1.17.22c.59.09,1.06,0,1.17-.14a1.46,1.46,0,0,1,1-.33,1.89,1.89,0,0,0,2-1.91,3.76,3.76,0,0,0-.21-1.36,2.52,2.52,0,0,1,.45,2.4c-.28,1.25-1.58,2.87-4.46,2.9a7.58,7.58,0,0,0-1.51.27c-.33.19-1,.56-.88,1a1.28,1.28,0,0,0-.91,1.15c-1.31.39-1.48,1.15-1.48,1.3a2.45,2.45,0,0,1-.73,1,1.84,1.84,0,0,0-.63,1.34,2.48,2.48,0,0,0-.9.95c-.23.47-.62,1.07,0,1.78-.6.22-.57,1.93-.09,2.17-.36.25-.43.84-.51,1.65a.75.75,0,0,0,.52.73.67.67,0,0,0-.27.43,2.61,2.61,0,0,0-.1.72,2.19,2.19,0,0,0,.11.7c.08.19.19.33.35.36-.54.35-.53,1.28-.07,1.38-.26.47-.17,1.41.16,1.59A4.26,4.26,0,0,0,65,67.77a8.31,8.31,0,0,0,1.59,2.59A8,8,0,0,0,69,72.13a9.71,9.71,0,0,0,7.54-.06A7,7,0,0,0,80,67.29c.26-1.7-.56-4.2-1.62-5-1.67-1.23-4.92-.82-5.39.68a1.56,1.56,0,0,0,.61,1.87c.74.27,1-.08.62-.73s-.26-.65.2-1a2.7,2.7,0,0,1,4,1.7,4.87,4.87,0,0,1-2.31,5.7c-1.65.82-5,.88-6.13.14-2.29-1.44-3.73-5.34-3-8.27a9.7,9.7,0,0,1,4-5l1.29-.91.47,1.21c.25.63.47,1,.41,1.38.38-.24.52-.19.78-.44s.34-.56.66-.47a3.76,3.76,0,0,0,1,.34c-.15-.36-.31-.37-.29-.72.24.3.92.34,1.8.43-.69-.39-.56-.47-.61-.8a3.31,3.31,0,0,0,1.69.62,1.05,1.05,0,0,1-.37-.91,2.92,2.92,0,0,0,1.68.57c-.31-.36-.31-.35-.31-.79a2.14,2.14,0,0,0,1.55.13,1.78,1.78,0,0,1-.48-1.1,2,2,0,0,0,1.71.25,3.32,3.32,0,0,1-.74-.75c-.14-.27,0-.35.42-.35s.55.2,1,0c-.69-.27-.87-1.16-1-1.17-.62-.07.86,1.12-.46.87a3.13,3.13,0,0,0-.73,0,5.12,5.12,0,0,0,.35.45c.17.25.2.57.59.77a1.27,1.27,0,0,1-.82-.14,6.47,6.47,0,0,0-.69-.58,1.4,1.4,0,0,0,0,.65,3.11,3.11,0,0,0,.26.83c-.51.12-.82,0-.91-.26s-.32-.49-.58-.56c-.1.31,0,.33.05.59s.14.52.23.8a2,2,0,0,1-1.15-.72c-.56-.47-.56-.47-.38.15a2.79,2.79,0,0,0,.2.85,1.7,1.7,0,0,1-1.2-.71c-.29-.44-.32-.41-.2.15a2.66,2.66,0,0,0,0,.8,1.42,1.42,0,0,1-1-.65c-.3-.44-.33-.41-.21.14.08.36-.06.43.15.8-.51-.22-.53-.16-.71-.44s-.31.08-.54.52-.35.36-.49.37a4.42,4.42,0,0,0-.37-1,4.92,4.92,0,0,1-.41-1.23l1.61-.85c.85-.41,1.55-.88,1.55-1.06s.15-.26.36-.26a3,3,0,0,0,1.7-1.62,2.49,2.49,0,0,1,.58-1.08c.44-.59.94-.79,2.26-.94a7.55,7.55,0,0,0,2.2-.68c.24-.12.28-.23.46-.3a1.44,1.44,0,0,1-.43.95,2.11,2.11,0,0,1-.56.36,3.93,3.93,0,0,1,.42.7c.29.46.29.61-.12.76s-.38.23-.06.44c.13.1.33.17.47.26a1.44,1.44,0,0,1-.81,0c-.52-.32-.56-.22-.34.1a3.42,3.42,0,0,0,.59.82,1.64,1.64,0,0,1-.73-.14c-.3-.12-.54-.2-.34.25s.08-.17.27.25a4.66,4.66,0,0,0,1.54-.14c-.47-.25-.64-.45-.7-.59s.17-.24.4-.24a.85.85,0,0,0,.7-.24,2.34,2.34,0,0,1-.73-.46c.6-.35.26-.88.11-1.13a4.92,4.92,0,0,0-.26-.51c.19,0,.46-.36.59-.6A2.4,2.4,0,0,0,83.72,49a4,4,0,0,1-.8.53,6.83,6.83,0,0,1-2.12.69c-.79.12-1.49.1-1.49-.19s-.31-.27-.08-.5A3.17,3.17,0,0,0,80,48.28,1.17,1.17,0,0,1,81,48c.23.12.66.23.86.52.19-.09.29-.68.19-.95a1.3,1.3,0,0,0-.8-.36c-.27,0-.42.07-.66,0a3.69,3.69,0,0,0,.74-.23c.26-.13.52-.21.48-.37s-1.5-.07-1.7-.06.32-.2.68-.24a3.11,3.11,0,0,0,1.29-.45c-.4-.25-.6-.14-.92-.26m-1.21,0c.12.25,1.53.18,1.14.28a4.48,4.48,0,0,0-1.46.51c-.06.28.32.4.32.4l1.39-.15c0,.19-1.35.26-1.3.55,0,.09-.08.26.37.21a3.39,3.39,0,0,1,1.23.14.44.44,0,0,1,.18.57,2.34,2.34,0,0,0-.7-.36,1.69,1.69,0,0,0-.9.13,1.18,1.18,0,0,0-.65.66,2,2,0,0,1-1.06,1,3.52,3.52,0,0,0-1.55,1,4.27,4.27,0,0,1-1.55,1.42c-.88.79-.12.51-.49.57a3,3,0,0,0-1.75.62,2.33,2.33,0,0,1-1.05.59c-.41.11-.74.32-.74.47s-.2.29-.47.29c-.64,0-3.52,3-4,4.22A10.3,10.3,0,0,0,65.7,64a11.2,11.2,0,0,0,.47,3.41c.59,1.37,3.09,4.14,3.77,4.14a.59.59,0,0,0,.21,0c.06.1.1.1.33.21a2.94,2.94,0,0,0,1.28.26,10.56,10.56,0,0,0,1.84-.13,11.55,11.55,0,0,0,1.92-.42,1.88,1.88,0,0,0,.86-.42.32.32,0,0,0,.14-.32c.11.1.36.08.65-.19s.47-.32.35-.54c.32,0,.38-.16.63-.52s.35-.43.27-.76c.22,0,.32-.26.45-.55s.31-.6.06-.73c.28,0,.23-.33.26-.57s.11-.61-.17-.67c.28-.09.16-.39.12-.66s-.1-.58-.34-.63c.22-.1.09-.45-.06-.93s-.37-.53-.67-.46c.29-.22-.23-.58-.35-.67-.31-.26-.66-.36-.73-.19,0-.31-1.08-.34-1.5-.29A2.14,2.14,0,0,0,74.3,63c-.62.5-.65.64-.32,1.17s.08.82-.47.26-.41-1.32.44-2a2.5,2.5,0,0,1,2.2-.53c2,.21,2.75.82,3.31,2.64a6,6,0,0,1-3,7.31,7.38,7.38,0,0,1-3.79.7c-2.78,0-4.51-.7-6.13-2.49-1-1.09-2.11-3.92-1.76-4.45.58-.25,0-.25-.17-.25s-.33-1.21.11-1.43c-.87,0-.41-1.09.12-1.3-.47,0-.71-.48-.72-1a1.09,1.09,0,0,1,.59-1.12c.31-.09,0-.17-.26-.23s-.47-.13-.43-.74c0-.4.19-1.06.48-1.19a3.92,3.92,0,0,1,1-.18,3.94,3.94,0,0,0-.85-.18c-.53-.22-.71-1.29-.24-1.59s1.67.29,1.74.05c-.24-.26-1-.32-1.28-.55-.39-.39-.75-.76-.11-1.67.33-.49.27-.62.65-.76s1.56.65,2.37.63c-.37-.31-1.64-.56-2-.86s-.1-.74.31-1.26.71-.47,1.35-.18a10,10,0,0,0,1.89.49c-.29-.31-1.62-.64-1.92-.87-.55-.41-.55-.58,0-1.17l.79-.33.89.47a5.94,5.94,0,0,0,1.64.56c0-.06-.91-.47-1.38-.73s-.8-.65-.8-.85c0-.74.67-.84,1.71-.11.53.31,1.85.71,1.93.56s-.89-.37-1.37-.6-1.39-.73-1.39-1c.12-.4.65-.68,3-.95a4,4,0,0,0,3.4-2,2.91,2.91,0,0,0-.49-4l-1.06-1,.62.94c1.14,1.64.58,3.61-1,3.61a2.55,2.55,0,0,0-1.23.35,1.28,1.28,0,0,1-1.12.08l-.56-.16-.19,0,.81-.55c.91-.44,1.29-1.29.79-1.79-.17-.18-.23,0-.14.47s0,.82-.41,1a9,9,0,0,0-1.27.77,21.7,21.7,0,0,1-3.13,2c-.09,0,.05-.29.38-.67s.14-.3-.38.2c-.8.71-1,.8-1.41.47-.65-.53-.56-.76.55-1.46a3,3,0,0,0,1.38-1.71,7.13,7.13,0,0,1,.59-1.4c.18-.21.09-.47-.18-.71a1.44,1.44,0,0,1-.47-.85.88.88,0,0,1,.33.12c.14.09.29,0,.29-.29a6.93,6.93,0,0,1-.07-.76,1.8,1.8,0,0,0,.36.46.21.21,0,0,0,.33-.2,6.24,6.24,0,0,1,.13-.75,3.65,3.65,0,0,0,.5.65,4.3,4.3,0,0,1,0-1.46,5.19,5.19,0,0,0,.21,1c.31.44.39.54.74.64s.44-.11.85-.59a2.82,2.82,0,0,0,.69-1.13,3.6,3.6,0,0,0-1.9-1.7,7.51,7.51,0,0,0-.77-.27,1.77,1.77,0,0,1,.5-.18,2.74,2.74,0,0,1,1.28.18,5.1,5.1,0,0,1,1.7.92c.22,0,0-.71.23-.61s.16.89.38,1,.38-.4.53-.4-.12.68.15.84.8-.66.87-.54-.48.72-.34.81.16.33.56.17a9.46,9.46,0,0,1,2.1-1,7.56,7.56,0,0,0-1,.82c-.59.62-.75.7-.29.77s.55-.2.76-.06-.09.63,0,.72.65-.11.7-.05c.23.23-.17.54,0,.88.18.5.26.5.85.09s1.07-.58,1.09-.46-.12.25-.38.63c-.86,1.2-.62,1.44,1,1.26,0,0,1.36-.39,1.77.23a3,3,0,0,0-2.33.67c-.13.11,0,.19,0,.42a2.5,2.5,0,0,0,1,.16c-1.09.43-1,.07-1.39.29.28.47.51.43,1.48.57a4.46,4.46,0,0,0,.73.24c.28.08.44.29.38.31a5.18,5.18,0,0,1-.64-.07,6.22,6.22,0,0,0-1,.08c-.37.09-.53.36-.46.51Z"/>
          <path d="M70,42.63c0,.17.1.31.22.31s.22-.14.22-.31-.1-.31-.22-.31-.22.13-.22.3"/>
          <path d="M69.53,42.86a.73.73,0,0,0,.92.4.7.7,0,0,0,.42-.9.73.73,0,0,0-.93-.39.68.68,0,0,0-.41.88" fill="none" stroke="#000" stroke-width="1.7"/>
          <path d="M72.12,41.7a2.66,2.66,0,0,0-2.21.27" fill="none" stroke="#000" stroke-width="1.7"/>
          <g>
            <path d="M79.06,50.11c0-.16,0-.23-.29-.4a2.6,2.6,0,0,0-1.21.57,5.45,5.45,0,0,0-1,1.16A1.69,1.69,0,0,0,77,52a5.23,5.23,0,0,0,.59.36,3.39,3.39,0,0,1,.71-1.16c.18-.28.72-.49,1-.7C79.27,50.3,79.16,50.29,79.06,50.11Z" fill="#dfdfdf"/>
            <path d="M76.85,52.18c-.27-.17-.34-.42-.52-.53-.25.1-.19.13-.59.33s-.27.21-.61.66a4.34,4.34,0,0,0,.42.68c.23.2.23.36.44.61a1.69,1.69,0,0,0,1-.61c.21-.26.47-.27.57-.71A5.64,5.64,0,0,1,76.85,52.18Z" fill="#dfdfdf"/>
            <path d="M75.32,53.43c-.2-.28-.24-.47-.41-.67A5,5,0,0,0,74,53a1.19,1.19,0,0,0-.79.52,4.69,4.69,0,0,1,.26,1.1,3.7,3.7,0,0,0,.29.83,6.26,6.26,0,0,0,1-.54,1.7,1.7,0,0,0,.85-.86c-.18-.32-.17-.42-.34-.58Z" fill="#dfdfdf"/>
            <path d="M73.22,54.74A3.5,3.5,0,0,0,73,53.67c-.3,0-.25.13-.6.25s-.61.19-.81.59c.32.3.39.26.5.74s-.08.82.07,1.12a4,4,0,0,0,.77-.49c.35-.21.39-.12.61-.34-.13-.39-.2-.57-.28-.8Z" fill="#dfdfdf"/>
            <path d="M71.77,55.28a1.41,1.41,0,0,0-.43-.58c-.35.14-.5,0-.83.35a11.16,11.16,0,0,0-1.22,1,1.71,1.71,0,0,1,.74.56c.27.37.19.46.35.87.3-.19.44-.29.71-.45a4.6,4.6,0,0,1,.73-.57,6.27,6.27,0,0,1,0-1.2Z" fill="#dfdfdf"/>
            <path d="M69.83,56.86c-.16-.34-.4-.4-.59-.57-.35.14-.49.44-.82.74a6.8,6.8,0,0,0-.68.81,2.24,2.24,0,0,1,.67.41,4.25,4.25,0,0,1,.56.48,6.15,6.15,0,0,1,.45-.49c.29-.26.32-.25.7-.6A4.48,4.48,0,0,0,69.83,56.86Z" fill="#dfdfdf"/>
            <path d="M68.22,58.49c-.2-.15-.39-.26-.56-.38a2.22,2.22,0,0,0-.42.56,1.83,1.83,0,0,0-.3.52c.3.15.27.11.49.22a6.17,6.17,0,0,1,.58.4c.21-.24.06-.16.33-.42s.21-.29.41-.5a2.49,2.49,0,0,0-.53-.4Z" fill="#dfdfdf"/>
            <path d="M67.42,59.68l-.56-.26c-.13.26-.17.29-.27.51s-.1.27-.21.56c.23.09.3.11.45.18l.49.26c.17-.31.16-.24.26-.42a4.1,4.1,0,0,1,.31-.48C67.65,59.85,67.57,59.78,67.42,59.68Z" fill="#dfdfdf"/>
            <path d="M66.81,60.9a4.67,4.67,0,0,0-.45-.18,5.65,5.65,0,0,0-.3,1,8,8,0,0,0-.12,1.06c.22,0,.13,0,.32,0a2,2,0,0,1,.4.13,4,4,0,0,1,.22-.94,4.72,4.72,0,0,1,.38-.9C67.05,61,67,61,66.81,60.9Z" fill="#dfdfdf"/>
            <path d="M66.28,63.07,66,63a8.56,8.56,0,0,0,0,1.24c0,.57,0,1,.14,1.61a.89.89,0,0,1,.31-.07h.38a5.7,5.7,0,0,1-.18-1.38,8.7,8.7,0,0,1,0-1.24c-.15,0-.21-.08-.34-.11Z" fill="#dfdfdf"/>
            <path d="M66.54,66.07c-.07,0-.26,0-.42,0A5,5,0,0,0,66.76,68,12.43,12.43,0,0,0,68,69.6c.06,0,.1-.1.16-.15s.1-.07.17-.14a7.12,7.12,0,0,1-1-1.65A8.28,8.28,0,0,1,66.84,66a.36.36,0,0,1-.3,0Z" fill="#dfdfdf"/>
            <path d="M68.32,69.6l-.2.14c.23.27.4.43.83.86a3.43,3.43,0,0,0,1.09.72.92.92,0,0,0,.12-.16.57.57,0,0,0,.1-.18,2.68,2.68,0,0,1-1-.59,5.32,5.32,0,0,1-.81-.88.73.73,0,0,0-.13.09Z" fill="#dfdfdf"/>
            <path d="M70.43,71.26c-.06.08,0,.11-.09.21a2.75,2.75,0,0,0,1.12.34,9.11,9.11,0,0,0,1.72,0c0-.12,0-.13,0-.23a1.08,1.08,0,0,0,0-.18,7.23,7.23,0,0,1-1.45,0,6,6,0,0,1-1.21-.23c-.06.12-.06.09-.07.17Z" fill="#dfdfdf"/>
            <path d="M73.41,71.54c0,.09,0,.07,0,.19.71-.12.72-.1,1.58-.28a4.74,4.74,0,0,0,1.26-.54c0-.14,0-.12,0-.18s0,0-.1-.11a5,5,0,0,1-1.26.46,14.49,14.49,0,0,1-1.52.23c0,.12,0,.15,0,.23Z" fill="#dfdfdf"/>
            <path d="M76.47,70.55c.11.08.11.12.25.1s.25-.09.46-.27.26-.24.23-.3-.11-.31-.21-.16a3.21,3.21,0,0,1-.63.48C76.4,70.51,76.43,70.52,76.47,70.55Z" fill="#dfdfdf"/>
            <path d="M77.53,69.82c.12,0,.09.07.19,0a3.21,3.21,0,0,0,.3-.37,2.39,2.39,0,0,0,.27-.47c0-.19-.09-.31-.17-.15a3,3,0,0,1-.6.81c-.14.13,0,.19,0,.2Z" fill="#dfdfdf"/>
            <path d="M78.29,68.6c.12,0,.11.06.21,0a1.57,1.57,0,0,0,.27-.47c0-.13.18-.32.14-.44s-.24-.23-.28-.06a6.88,6.88,0,0,1-.26.67C78.31,68.41,78.24,68.58,78.29,68.6Z" fill="#dfdfdf"/>
            <path d="M78.7,67.29c0,.1.14.09.29,0s.07-.24.09-.47a1.4,1.4,0,0,0,0-.41c0-.15-.3-.2-.32,0s0,.2,0,.42-.08.39,0,.46Z" fill="#dfdfdf"/>
            <path d="M78.81,66.06c0,.08.14.06.21,0s0-.27,0-.47a1,1,0,0,0-.11-.41c0-.1-.19-.11-.19.07s0,.19,0,.38a2.24,2.24,0,0,0,.07.46Z" fill="#dfdfdf"/>
            <path d="M78.6,64.82c0,.08.15,0,.18-.1s-.08-.34-.13-.53a.79.79,0,0,0-.24-.46c-.09-.08-.27-.13-.23.05s.22.38.28.6.09.31.14.44Z" fill="#dfdfdf"/>
            <path d="M77.82,63.4c.08,0,.18,0,.15-.08s-.11-.14-.29-.28a1.85,1.85,0,0,0-.33-.24c-.1,0-.3-.12-.23.05s.12.09.28.2.36.34.42.35Z" fill="#dfdfdf"/>
          </g>
        </g>
        <g>
          <path d="M37.18,71.65A28.13,28.13,0,0,0,32,74.12c-.32.23-.29.5.2,1.49a6.19,6.19,0,0,0,.77,1.21,19.25,19.25,0,0,0,2.14-1,19.71,19.71,0,0,1,3.11-1.35,6.43,6.43,0,0,0,1.21-.3,5.2,5.2,0,0,0,.24.54c.29.61.11.6.61.76s1.84-.53,1.84-.53c1.52-.53,2.38-.59,7.86-.59s6.34.06,7.86.62l1.39.47a.62.62,0,0,0,.4,0c.15,0,.31-.27.38-.41s.34-.81.42-1.09a12.85,12.85,0,0,0,1.34.48c.62.21,2,.82,3.08,1.35a20.22,20.22,0,0,0,2.14,1,6.19,6.19,0,0,0,.77-1.21c.7-1.37.76-1.26-1.79-2.58-3.41-1.76-6.81-2.55-7.13-1.7-.06.16-.11.26-.19.47-.34-.08-1.23-.29-2.13-.44a57.22,57.22,0,0,0-13.08,0,15.76,15.76,0,0,0-2,.53c-.28-.57-.22-.34-.28-.5-.24-.59-1.79-.5-3.93.26Z"/>
          <g>
            <path d="M40,71.23a17.67,17.67,0,0,0-6,2.07c-2.05,1-2.11,1.08-1.55,2.17.23.5.5.94.53,1h0A10.68,10.68,0,0,0,35,75.55a24.32,24.32,0,0,1,3.14-1.34A7.33,7.33,0,0,1,39.34,74c-.07-.44,0-.06-.27-.89a2.83,2.83,0,0,1,1.6-1.71,1.38,1.38,0,0,0-.7-.12Z" fill="#dfdfdf"/>
            <path d="M49.6,71.25a53.49,53.49,0,0,0-5.91.32,10.41,10.41,0,0,0-3.56,1.25,6.72,6.72,0,0,1-.75.4c.22.5.21.8.39,1.23s.1.74.64.76a5.86,5.86,0,0,0,1.7-.56c1.49-.53,2.38-.59,7.83-.59s6.59.17,7.86.61c.92.32,1.3.57,1.67.5.19,0,.28-.3.42-.63a7.86,7.86,0,0,0,.51-1.81c-.29,0-.17.1-.56-.07-.85-.38-1-.41-1.57-.65A11,11,0,0,0,56,71.55c-1.15-.18-3.69-.24-6.17-.3Z" fill="#dfdfdf"/>
            <path d="M59.8,71.26a1.75,1.75,0,0,0-.43,0c.26.16.56.43.72.52.62.32.62.62.56,1.17a4.34,4.34,0,0,1-.15.71c.23.1.79.34,1.26.5a26.2,26.2,0,0,1,3.11,1.34,10.59,10.59,0,0,0,2.07.92h0c0-.06.3-.5.53-1,.38-.74.41-1,.12-1.23a25.25,25.25,0,0,0-5.13-2.38,9.23,9.23,0,0,0-2.67-.6Z" fill="#dfdfdf"/>
            <path d="M59.06,71.5l-.06.07a.74.74,0,0,0-.12.36,4.61,4.61,0,0,0,1.18.46l.17,0h0a1.77,1.77,0,0,0-.47-.32,6.33,6.33,0,0,1-.71-.48Z" fill="#dfdfdf"/>
            <path d="M40.85,71.5c-.2.15-.52.35-.73.5a1.44,1.44,0,0,0-.6.81v0h0a3.78,3.78,0,0,1,1-.51,6.84,6.84,0,0,0,.64-.26,2.66,2.66,0,0,1-.3-.49l0-.07Z" fill="#dfdfdf"/>
          </g>
          <path d="M43.39,72.37l.07.59.39,0a.47.47,0,0,0,.3-.11.29.29,0,0,0,.06-.24.24.24,0,0,0-.11-.2.47.47,0,0,0-.31,0l-.4,0m-.25-.17.66-.08H44a.32.32,0,0,1,.14,0,.4.4,0,0,1,.19.15.52.52,0,0,1,.08.24.47.47,0,0,1,0,.24.39.39,0,0,1-.16.18.19.19,0,0,1,.15.08.42.42,0,0,1,.08.21l.06.28a.39.39,0,0,0,0,.14s0,0,.06,0v.05l-.27,0a.61.61,0,0,1-.07-.22h0l0-.22c0-.11-.05-.19-.1-.21a.53.53,0,0,0-.31,0l-.38,0,.09.74-.24,0-.19-1.71m2,.8.54,0-.32-.74-.22.77m-.44.76L45.24,72l.26,0,.77,1.67-.26,0-.22-.5-.67,0-.15.53-.24,0m2.37-.15-.05-1.73h.23l0,.71.9,0,0-.71h.23l.05,1.73h-.23l0-.8-.89,0,0,.81H47.1m2-.77h.53l-.27-.76-.26.76m-.5.72.63-1.73h.26l.65,1.73h-.25L49.74,73h-.67l-.19.51h-.24m2.94-.62h.23a.71.71,0,0,1-.23.5.73.73,0,0,1-.52.18.7.7,0,0,1-.56-.26,1.05,1.05,0,0,1-.2-.69.92.92,0,0,1,.23-.64.72.72,0,0,1,.59-.23.75.75,0,0,1,.48.16.61.61,0,0,1,.21.41h-.23a.4.4,0,0,0-.15-.26.49.49,0,0,0-.32-.1.45.45,0,0,0-.41.17.89.89,0,0,0-.16.52.88.88,0,0,0,.14.51.52.52,0,0,0,.75.07.49.49,0,0,0,.15-.34m.49.65.08-1.72h.24l0,.7.9,0,0-.71h.24l-.08,1.72H53.2l0-.81-.9,0,0,.81h-.24m1.74.09L53.93,72h.23L54,73.7l-.23,0m1-1.45-.06.58.4,0a.52.52,0,0,0,.31,0,.27.27,0,0,0,.11-.23.25.25,0,0,0-.06-.22.54.54,0,0,0-.3-.1l-.4,0M54.59,72l.67.07.23,0,.14.06a.45.45,0,0,1,.14.19.42.42,0,0,1,0,.25.43.43,0,0,1-.09.23.4.4,0,0,1-.19.14.23.23,0,0,1,.14.11.63.63,0,0,1,0,.23v.28a.53.53,0,0,0,0,.14s0,.06,0,.07v0l-.27,0a1,1,0,0,1,0-.23h0v-.22c0-.12,0-.2-.05-.24A.75.75,0,0,0,55.1,73l-.37,0-.08.73-.23,0L54.59,72M56,73.89l.23-1.71.23,0-.23,1.71-.23,0"/>
        </g>
        <g>
          <path d="M40,38.07a2.18,2.18,0,0,0-1.27,1.85,2.27,2.27,0,0,0,.64,2,2.29,2.29,0,0,1,.43.5,1.65,1.65,0,0,1-.4.47,2.43,2.43,0,0,0-.8,1.76,2.39,2.39,0,0,0,.76,1.76l.46.5-.5.55a2.32,2.32,0,0,0,.07,3.44l.45.47H60.28l.5-.54a2.29,2.29,0,0,0,0-3.34l-.49-.59.46-.55a2.34,2.34,0,0,0,0-3.45c-.47-.51-.48-.61-.11-.84a2.7,2.7,0,0,0,.69-2.59,2.55,2.55,0,0,0-3.18-1.53,7.32,7.32,0,0,0-.89.6,2.58,2.58,0,0,1-.62.43,3.1,3.1,0,0,1-.57-.44,2.31,2.31,0,0,0-3.35.19l-.4.39-.54-.49a2.38,2.38,0,0,0-3.52.1l-.4.39-.44-.39a2.36,2.36,0,0,0-1.81-.78,2.52,2.52,0,0,0-1.89.85l-.26.27-.56-.47a2.32,2.32,0,0,0-2.9-.52Z" fill="#171796" stroke="#000" stroke-width="2"/>
          <path d="M39.43,52a2.41,2.41,0,0,0,0,3.59l.4.45-.46.5a4.09,4.09,0,0,0-.61.86,2.46,2.46,0,0,0,.6,2.6c.41.4.42.57,0,1a3.88,3.88,0,0,0-.45.66,2.43,2.43,0,0,0,2.2,3.48,2.25,2.25,0,0,0,1.76-.75c.39-.42.59-.43.94-.06a2.55,2.55,0,0,0,1.75.92,2.28,2.28,0,0,0,1.75-.85l.52-.5.46.51c1,1.09,2,1.12,3.4.09l.55-.42.48.44a2.12,2.12,0,0,0,3.34-.18l.57-.54.43.39c.84.75,1.3,1,1.9,1a2.36,2.36,0,0,0,1.71-.77,2,2,0,0,0,.83-1.67,4.41,4.41,0,0,0-1-1.91l-.31-.3.49-.56a2.29,2.29,0,0,0,0-3.46L60.37,56l.46-.56a2.29,2.29,0,0,0,0-3.42l-.56-.58H39.89l-.46.51Z" fill="#d42e12" stroke="#000" stroke-width="2"/>
          <path d="M37.18,50.59s0,10.18,0,14.07c0,.57.3.71.79,1.1.8.61,1.65,1.26,6.22.91,4.2,0,5.08.35,5.52,2l.23.94.21-.94c.32-1.61,1.31-2,5.36-2,5.21.08,5.65-.25,6.39-.89a2.38,2.38,0,0,0,.69-.82,1.64,1.64,0,0,0,.08-.82V36.34H37.18V50.59Zm25.23.12.05,11.74c0,1.58.12,2.07-.05,2.37a5.82,5.82,0,0,1-.51.7c-.79.79-1.47,1-5.08.91a31.59,31.59,0,0,0-5.43.36c-.29.26-1.08.24-1.45,1.74-.48-1.5-.82-1.44-.82-1.44-1.95-.82-2.83-.65-6-.69-2,.3-4.19-.08-5-.91,0,0-.12,0-.68-.61,0-2.87,0-14.17,0-14.17V36.63H62.41V50.71Z"/>
          <path d="M46.41,42.75c-.77,1.6-.8,2.31-.16,3.59a4.18,4.18,0,0,0,1.89,2A4.46,4.46,0,0,0,54,46.66a4.33,4.33,0,0,0-.14-4.11l-.2-.23-.18.69a3.87,3.87,0,0,1-1.05,2,3.15,3.15,0,0,1-3.71.61c-1.08-.49-1.52-1.15-1.92-3l-.1-.47-.27.57Z" fill="#fff"/>
          <path d="M46.16,42.85a3.54,3.54,0,0,0,.2,3.75,4.3,4.3,0,0,0,8.13-2.05,4.14,4.14,0,0,0-.41-2,7.54,7.54,0,0,0-.41-.64c-.06.22-.14.61-.3,1.25-.58,2.26-2.52,3.32-4.54,2.47-1.15-.47-1.68-1.24-2-2.82l-.2-1-.5,1.09Zm2,2.9a3.82,3.82,0,0,0,4.64-.58,4.62,4.62,0,0,0,.82-1.68,5,5,0,0,0,.19-.83,3.25,3.25,0,0,1,.35,1.16,4.11,4.11,0,0,1-.28,2.11,3.9,3.9,0,0,1-6.36,1.58c-1-.91-1.79-2.69-1.36-3.85.15-.4.19-.64.39-1.07a6.13,6.13,0,0,0,.26,1.32,3.24,3.24,0,0,0,1.35,1.84Z"/>
          <g>
            <path d="M45,56.34a4.93,4.93,0,0,0,.11,1.4A5.35,5.35,0,0,0,44,57c-.57-.33-1.28-.64-1.52-.24s.43.91,1,1.2a6.8,6.8,0,0,0,1.27.52,8.47,8.47,0,0,0-1.22.58c-.47.3-1.17.92-.9,1.31s1,0,1.49-.34a7.08,7.08,0,0,0,1-.83A9.71,9.71,0,0,0,45,60.55c0,.66.1,1.39.59,1.39s.61-.87.6-1.45A7.43,7.43,0,0,0,46,59.14,10.76,10.76,0,0,0,47,60c.36.28,1.23.7,1.49.3s-.15-.81-.91-1.29a6.76,6.76,0,0,0-1.25-.6,5.92,5.92,0,0,0,1.29-.52c.83-.5,1.18-.84.93-1.27s-.75-.2-1.51.29a7.42,7.42,0,0,0-1,.85,10.27,10.27,0,0,0,.12-1.39c0-.63-.15-1.44-.58-1.45s-.54.71-.56,1.4Z" fill="#e9d315" stroke="#000" stroke-width="1.63"/>
            <path d="M46.22,58.44a.67.67,0,0,1-.67.67.67.67,0,0,1,0-1.34.67.67,0,0,1,.67.67" fill="#fff" stroke="#000" stroke-width="2.79"/>
          </g>
          <g>
            <path d="M53.74,56.34a4.93,4.93,0,0,0,.11,1.4A5.35,5.35,0,0,0,52.77,57c-.57-.33-1.28-.64-1.52-.24s.43.91,1,1.2a6.8,6.8,0,0,0,1.27.52,9,9,0,0,0-1.22.58c-.47.3-1.16.92-.9,1.31s1,0,1.49-.34a7.08,7.08,0,0,0,1-.83,9.71,9.71,0,0,0-.14,1.39c0,.66.1,1.39.59,1.39s.61-.87.6-1.45a7.43,7.43,0,0,0-.14-1.35,11.14,11.14,0,0,0,1,.88c.35.28,1.22.7,1.48.3s-.15-.81-.91-1.29a6.76,6.76,0,0,0-1.25-.6,5.92,5.92,0,0,0,1.29-.52c.83-.5,1.19-.84.93-1.27s-.75-.2-1.51.29a7.42,7.42,0,0,0-1,.85,10.27,10.27,0,0,0,.12-1.39c0-.63-.15-1.44-.58-1.45s-.54.71-.56,1.4Z" fill="#e9d315" stroke="#000" stroke-width="1.63"/>
            <path d="M55,58.44a.67.67,0,1,1-.67-.67.67.67,0,0,1,.67.67" fill="#fff" stroke="#000" stroke-width="2.79"/>
          </g>
        </g>
      </g>
      <g>
        <path d="M10.39,74.25V25.75A26.64,26.64,0,0,1,30.24,0H0V100H30.24A26.66,26.66,0,0,1,10.39,74.25Z" opacity="0.2" style="isolation: isolate"/>
        <path d="M89.61,25.75V74.24A26.64,26.64,0,0,1,69.76,100H100V0H69.76A26.66,26.66,0,0,1,89.61,25.75Z" fill="#fff" opacity="0.1" style="isolation: isolate"/>
      </g>
    </g>
  </g>
</svg>
