<svg xmlns="http://www.w3.org/2000/svg" xmlns:xlink="http://www.w3.org/1999/xlink" width="100" height="100" viewBox="0 0 100 100">
  <defs>
    <clipPath id="a">
      <path d="M73.3,100H26.7A26.63,26.63,0,0,1,0,73.3V26.7A26.63,26.63,0,0,1,26.7,0H73.4A26.61,26.61,0,0,1,100,26.7V73.4A26.61,26.61,0,0,1,73.3,100Z" fill="none"/>
    </clipPath>
  </defs>
  <title>flag_as_w_azerbaijan</title>
  <g clip-path="url(#a)">
    <g>
      <g>
        <rect width="100" height="100" fill="#d80027"/>
        <rect width="100" height="33.33" fill="#338af3"/>
        <rect y="66.67" width="100" height="33.33" fill="#6da544"/>
        <g>
          <path d="M51,63.54a13.54,13.54,0,1,1,6.44-25.45,16.67,16.67,0,1,0,0,23.82A13.44,13.44,0,0,1,51,63.54Z" fill="#f0f0f0"/>
          <polygon points="61.46 40.63 63.25 45.67 68.09 43.37 65.79 48.21 70.83 50 65.79 51.79 68.09 56.63 63.25 54.33 61.46 59.38 59.66 54.33 54.83 56.63 57.13 51.79 52.08 50 57.13 48.21 54.83 43.37 59.66 45.67 61.46 40.63" fill="#f0f0f0"/>
        </g>
      </g>
      <g>
        <path d="M10.39,74.25V25.75A26.64,26.64,0,0,1,30.24,0H0V100H30.24A26.66,26.66,0,0,1,10.39,74.25Z" opacity="0.2" style="isolation: isolate"/>
        <path d="M89.61,25.75V74.24A26.64,26.64,0,0,1,69.76,100H100V0H69.76A26.66,26.66,0,0,1,89.61,25.75Z" fill="#fff" opacity="0.1" style="isolation: isolate"/>
      </g>
    </g>
  </g>
</svg>
