<?xml version="1.0" encoding="utf-8"?>
<!-- Generator: Adobe Illustrator 23.0.0, SVG Export Plug-In . SVG Version: 6.00 Build 0)  -->
<svg version="1.0" id="Layer_1" xmlns="http://www.w3.org/2000/svg" xmlns:xlink="http://www.w3.org/1999/xlink" x="0px" y="0px"
	 width="100px" height="100px" viewBox="0 0 100 100" enable-background="new 0 0 100 100" xml:space="preserve">
<g id="g132">
	<path id="path5" fill="#244AA5" d="M0,0h100v100H0V0z"/>
	<path id="path26" fill="#D0A650" d="M50.8,31.7c0.6,0.7,1,1.4,1,2.2c-0.5,0.2-1.2,0.3-1.6,0.8c2.4-0.3,2.9,2.5,5.7,1.4
		c0.1,0.4,0.5,0.7,1,0.6l0.3-0.8c1.1-0.3,0.8,1.5,2,1.1c0.6,0.5,0.2,1.3,0.6,1.9c0,0.7,0.3,1.3,0.6,1.9c0.3-0.3,0.5-0.8,1.2-0.7
		c0.5,0.5,0.9,1,1,1.6c-0.2,1.1-0.5,2.1,0.7,2.7v0.3c0.8,0.3,2.5-0.3,2.5,1c-0.1,0.5,0.5,0,0.7,0.3c0.5-0.2,1.2-0.1,1.8-0.1
		c0.5,1-0.6,1.8-0.9,2.7c0.5,0.5,0.3,1.4,0.2,2l-0.3,0.1c0.8,0.1,1.8-0.1,2.4,0.3l1.3,0.5c0.6-0.3,1.3-0.4,2-0.3
		c0.6,0.4-0.2,1.2,0.3,1.5c0.7,0,1.3,0.1,1.4,0.7l0.1,0.2c0.5-0.9,1.9-0.3,2.4-0.9c1,0,1.2,1.1,1.7,1.7c0.2,1.5-1.7,2.2-1.1,3.7
		c-0.4,0.7-1.2,1.3-1.8,2c0.2,0.1,0.1,0.3,0.1,0.5c-0.6,0.3-0.1,1.4-0.9,1.5c-0.1,0.6-1.3,0.4-0.9,1.1c0.8,1-0.4,1.7-0.4,2.6
		c-0.5,0.5-1.5-0.5-1.5,0.5c-0.6,0.1-1.2-0.5-1.6,0c-0.2,0.7,0.4,0.9,0.3,1.6c1-0.1,1.3,0.9,1.7,1.5l1,1c-1,0.8-2.2-0.1-3.4,0.3
		c-0.3-0.1,0-0.5-0.3-0.7c-0.3-0.3-0.9-0.3-1.4-0.4c0.1,0.4-0.8,0.6-0.4,1.1c0,0.1,0.2,0.6-0.2,0.6c-0.8,0.2-0.7-0.7-1.4-0.3
		c-0.9,0.3-0.2,1.7-1.5,1.5c0.2,1.2-2,2-0.5,3c0.2,0.2,0.1,0.6,0.1,0.9c-0.9,0.8-2.4,0.5-3.4,0.2c-0.8-0.2-0.3-1.2-0.6-1.7
		c-0.3-0.5-1.2-0.8-1.2-1.5c-0.6-0.2-1.1-0.4-1.5-0.9c-1.4,1.3-3,2.6-5,2.6c-0.9,0.4-1.4,2.2-2.7,1.5c-0.5,0.9-2.1,0-2.2,1.3
		c-0.6,0.2-0.3,1.1-0.7,1.5c-0.1,1,0,1.8,0.8,2.4c0.3,0.7-0.7,0.7-0.3,1.4c0.1,0.2,0,0.6-0.1,0.7c-0.3,0.1-0.4,0.3-0.3,0.6
		c-0.2,0-0.3,0.1-0.5,0.3c-0.2,0.5-1,0.7-1.6,1.1c-0.5,0.1-0.9-0.2-1.3-0.6c-0.1,0.5-0.5,0.8-1.1,0.8c-0.8,0-0.6-0.7-1.2-1
		c0.2-0.9-0.5-1.3-0.3-2c0.6-0.5,1.7-0.8,1.4-1.9c-0.7-0.8-0.4-2-1.1-3c-0.4-0.4-1.2-1-0.9-1.9c0.6-0.7,0-1.6-0.3-2.4
		c-0.1-0.6-0.5-1.2-0.5-2c-1.1-0.6-1.1-2.3-2.6-2.4c-1.1,0-1.3-1.4-2.3-1.3c-0.1-0.2-0.3-0.3-0.5-0.5c-0.8,0.5-1.8-0.1-2.7,0.1
		c-0.6-1.1,0.5-2.5-1.2-3.2v-0.7c0.2,0.1,0.3-0.1,0.3-0.2c0.1-0.7-1.2-0.8-0.7-1.7c-0.3-0.2-0.6-0.3-0.4-0.8
		c-0.7-1.5-2.9-1.4-3.4-2.9c0.4-0.3,0.4-0.7,0.5-1c-0.3-0.6-0.4-1.2-0.3-1.9c0.3-0.1,0.5-0.5,0.7-0.9c-0.4-0.3-1-0.7-1.5-0.6
		c-0.9-0.1-1.5-0.8-2.3-1.2c-0.2-0.2-0.1-0.5-0.1-0.8c1.1-0.3-0.1-1.9,1.2-1.7c0.3-0.4,1.1-0.6,1.6-0.9c0.5-0.1,1,0.1,1.5,0.2
		c0.4,0.6,1.2,0.3,1.7,0.8c0.4-0.1,1-0.3,1.5-0.1c0-0.8,0.4-1.3,1-1.9c0.1-0.3,0.6-0.6,1.1-0.8c0.8,0.2,1.8,0.2,2.4-0.4
		c0.4,0.2,0.7-0.2,1.2-0.2c0.5-0.1,1,0,1.4,0.3c0-1,1.8-0.1,2.1-1.3c0.4-0.8-1.1-1.1-1-1.8c-0.2-0.8,0.3-1.2,0.6-1.7
		c0.3-0.1,0.7-0.3,1.2-0.2c1.1-0.4,0.2-2.7,2.1-1.9c0,0.2-0.1,0.5,0,0.6c0.6,0,0.7-0.7,1.2-1c0.2-0.7-0.2-1.5,0.3-2
		c0.3,0,0.5-0.1,0.7-0.4c0-0.5-0.3-0.8-0.7-1.2c-0.1,0.2-0.5,0-0.8,0.1c0-0.6-0.3-1-0.4-1.5c-0.3-0.1-0.4-0.4-0.3-0.7
		c0.4-0.4,0-1.5,1-1.3c0.4-0.3,1.1-0.1,1.5-0.7c1-0.6,2.4-0.6,3.2-1.7c0.3,0,0.7-0.3,1.1,0C49.8,31.3,50.8,31.1,50.8,31.7"/>
	<path id="polygon37" fill="#FFFFFF" d="M58.3,18.4L57,14.3l-1.3,4.1h-4.4l3.5,2.6l-1.4,4.1l3.5-2.6l3.5,2.6L59.1,21l3.5-2.6H58.3z"
		/>
	<path id="polygon39" fill="#FFFFFF" d="M72,20.9l-1.3-4.1l-1.3,4.1H65l3.5,2.6l-1.3,4.1l3.5-2.6l3.5,2.6l-1.3-4.1l3.5-2.6L72,20.9z
		"/>
	<path id="polygon41" fill="#FFFFFF" d="M85.2,25.6l-1.3-4.1l-1.3,4.1h-4.4l3.5,2.6l-1.3,4.1l3.5-2.6l3.5,2.6L86,28.2l3.5-2.6H85.2z
		"/>
	<path id="polygon43" fill="#FFFFFF" d="M44.4,18.4L43,14.3l-1.4,4.1h-4.4l3.5,2.6l-1.4,4.1l3.5-2.6l3.5,2.6L45.2,21l3.5-2.6H44.4z"
		/>
	<path id="polygon45" fill="#FFFFFF" d="M30.6,20.9l-1.3-4.1l-1.4,4.1h-4.4l3.5,2.6l-1.4,4.1l3.5-2.6l3.5,2.6l-1.4-4.1l3.5-2.6
		L30.6,20.9z"/>
	<path id="polygon47" fill="#FFFFFF" d="M17.5,25.6l-1.4-4.1l-1.3,4.1h-4.4l3.5,2.6l-1.4,4.1l3.5-2.6l3.5,2.6l-1.4-4.1l3.5-2.6H17.5
		z"/>
</g>
<path id="flag_x5F_shadow" opacity="0.2" d="M10.4,74.2V25.8C10.4,13.4,18.8,3,30.2,0H0v100h30.2C18.8,97,10.4,86.6,10.4,74.2z"/>
<path id="flag_x5F_highlight" opacity="0.1" fill="#FFFFFF" d="M89.6,25.8v48.5c0,12.4-8.4,22.7-19.9,25.8H100V0H69.8
	C81.2,3,89.6,13.4,89.6,25.8z"/>
</svg>
