<svg xmlns="http://www.w3.org/2000/svg" xmlns:xlink="http://www.w3.org/1999/xlink" width="100" height="100" viewBox="0 0 100 100">
  <defs>
    <clipPath id="a">
      <path d="M73.3,100H26.7A26.63,26.63,0,0,1,0,73.3V26.7A26.63,26.63,0,0,1,26.7,0H73.4A26.61,26.61,0,0,1,100,26.7V73.4A26.61,26.61,0,0,1,73.3,100Z" fill="none"/>
    </clipPath>
  </defs>
  <title>flag_af_e_rwanda</title>
  <g clip-path="url(#a)">
    <g>
      <g>
        <rect width="100" height="100" fill="#338af3"/>
        <rect y="50" width="100" height="23.91" fill="#ffda44"/>
        <rect y="73.91" width="100" height="26.09" fill="#496e2d"/>
        <polygon points="60.58 25 65.95 27.53 63.09 32.73 68.92 31.61 69.66 37.5 73.72 33.17 77.78 37.5 78.52 31.61 84.35 32.73 81.49 27.52 86.86 25 81.49 22.47 84.35 17.27 78.52 18.39 77.78 12.5 73.72 16.83 69.66 12.5 68.92 18.39 63.09 17.27 65.95 22.48 60.58 25" fill="#ffda44"/>
      </g>
      <g>
        <path d="M10.39,74.25V25.75A26.64,26.64,0,0,1,30.24,0H0V100H30.24A26.66,26.66,0,0,1,10.39,74.25Z" opacity="0.2" style="isolation: isolate"/>
        <path d="M89.61,25.75V74.24A26.64,26.64,0,0,1,69.76,100H100V0H69.76A26.66,26.66,0,0,1,89.61,25.75Z" fill="#fff" opacity="0.1" style="isolation: isolate"/>
      </g>
    </g>
  </g>
</svg>
