<svg xmlns="http://www.w3.org/2000/svg" xmlns:xlink="http://www.w3.org/1999/xlink" width="100" height="100" viewBox="0 0 100 100">
  <defs>
    <clipPath id="a">
      <path d="M73.3,100H26.7A26.63,26.63,0,0,1,0,73.3V26.7A26.63,26.63,0,0,1,26.7,0H73.4A26.61,26.61,0,0,1,100,26.7V73.4A26.61,26.61,0,0,1,73.3,100Z" fill="none"/>
    </clipPath>
  </defs>
  <title>flag_af_w_cape_verde</title>
  <g clip-path="url(#a)">
    <g>
      <g>
        <rect width="100" height="100" fill="#0052b4"/>
        <rect y="63.04" width="100" height="4.35" fill="#d80027"/>
        <g>
          <rect y="58.7" width="100" height="4.35" fill="#f0f0f0"/>
          <rect y="67.39" width="100" height="4.35" fill="#f0f0f0"/>
        </g>
        <g>
          <polygon points="35.23 51.03 35.82 52.84 37.72 52.84 36.18 53.95 36.77 55.76 35.23 54.64 33.7 55.76 34.28 53.95 32.74 52.84 34.65 52.84 35.23 51.03" fill="#ffda44"/>
          <polygon points="35.23 74.67 35.82 76.48 37.72 76.48 36.18 77.6 36.77 79.4 35.23 78.29 33.7 79.4 34.28 77.6 32.74 76.48 34.65 76.48 35.23 74.67" fill="#ffda44"/>
          <polygon points="24.23 66.68 24.81 68.48 26.71 68.48 25.18 69.6 25.76 71.41 24.23 70.29 22.69 71.41 23.28 69.6 21.74 68.48 23.64 68.48 24.23 66.68" fill="#ffda44"/>
          <polygon points="28.43 53.4 29.02 55.2 30.91 55.2 29.38 56.32 29.97 58.12 28.43 57.01 26.89 58.12 27.48 56.32 25.94 55.2 27.84 55.2 28.43 53.4" fill="#ffda44"/>
          <polygon points="21.74 60.83 23.64 60.83 24.23 59.03 24.81 60.83 26.71 60.83 25.18 61.95 25.76 63.76 24.23 62.64 22.69 63.76 23.27 61.95 21.74 60.83" fill="#ffda44"/>
          <polygon points="26.89 76.69 27.48 74.89 25.94 73.77 27.84 73.77 28.43 71.97 29.02 73.77 30.91 73.77 29.38 74.89 29.96 76.69 28.43 75.58 26.89 76.69" fill="#ffda44"/>
          <polygon points="46.23 66.68 45.65 68.48 43.75 68.48 45.28 69.6 44.7 71.41 46.23 70.29 47.77 71.41 47.18 69.6 48.72 68.48 46.82 68.48 46.23 66.68" fill="#ffda44"/>
          <polygon points="42.03 53.4 41.44 55.2 39.54 55.2 41.08 56.32 40.49 58.12 42.03 57.01 43.57 58.12 42.98 56.32 44.52 55.2 42.62 55.2 42.03 53.4" fill="#ffda44"/>
          <polygon points="48.72 60.83 46.82 60.83 46.23 59.03 45.65 60.83 43.75 60.83 45.28 61.95 44.7 63.76 46.23 62.64 47.77 63.76 47.18 61.95 48.72 60.83" fill="#ffda44"/>
          <polygon points="43.57 76.69 42.98 74.89 44.52 73.77 42.62 73.77 42.03 71.97 41.44 73.77 39.54 73.77 41.08 74.89 40.49 76.69 42.03 75.58 43.57 76.69" fill="#ffda44"/>
        </g>
      </g>
      <g>
        <path d="M10.39,74.25V25.75A26.64,26.64,0,0,1,30.24,0H0V100H30.24A26.66,26.66,0,0,1,10.39,74.25Z" opacity="0.2" style="isolation: isolate"/>
        <path d="M89.61,25.75V74.24A26.64,26.64,0,0,1,69.76,100H100V0H69.76A26.66,26.66,0,0,1,89.61,25.75Z" fill="#fff" opacity="0.1" style="isolation: isolate"/>
      </g>
    </g>
  </g>
</svg>
