<svg xmlns="http://www.w3.org/2000/svg" xmlns:xlink="http://www.w3.org/1999/xlink" width="100" height="100" viewBox="0 0 100 100">
  <defs>
    <clipPath id="a">
      <path d="M73.3,100H26.7A26.63,26.63,0,0,1,0,73.3V26.7A26.63,26.63,0,0,1,26.7,0H73.4A26.61,26.61,0,0,1,100,26.7V73.4A26.61,26.61,0,0,1,73.3,100Z" fill="none"/>
    </clipPath>
  </defs>
  <title>flag_oc_melan_papua_new_guinea</title>
  <g clip-path="url(#a)">
    <g>
      <g>
        <rect width="100" height="100"/>
        <polyline points="0 0 100 0 100 100" fill="#a2001d"/>
        <g>
          <polygon points="37.63 68.52 38.33 70.67 40.59 70.67 38.76 72.01 39.46 74.16 37.63 72.83 35.79 74.16 36.49 72.01 34.66 70.67 36.92 70.67 37.63 68.52" fill="#f0f0f0"/>
          <polygon points="31.84 47.83 33 51.42 36.78 51.42 33.73 53.64 34.89 57.23 31.84 55.01 28.78 57.23 29.95 53.64 26.89 51.42 30.67 51.42 31.84 47.83" fill="#f0f0f0"/>
          <polygon points="31.84 74.16 33 77.75 36.78 77.75 33.73 79.97 34.89 83.57 31.84 81.35 28.78 83.57 29.95 79.97 26.89 77.75 30.67 77.75 31.84 74.16" fill="#f0f0f0"/>
          <polygon points="42.88 57.23 44.05 60.82 47.83 60.82 44.77 63.05 45.94 66.64 42.88 64.42 39.83 66.64 40.99 63.05 37.94 60.82 41.71 60.82 42.88 57.23" fill="#f0f0f0"/>
          <polygon points="20.79 57.23 21.96 60.82 25.74 60.82 22.68 63.05 23.85 66.64 20.79 64.42 17.73 66.64 18.9 63.05 15.85 60.82 19.62 60.82 20.79 57.23" fill="#f0f0f0"/>
        </g>
        <path d="M73.54,39.88A8.7,8.7,0,0,0,68,37.35l6.23-4.84a11.55,11.55,0,0,0-9.05-3.36A8.53,8.53,0,0,0,63,25.34l-2.46,4.92a3.47,3.47,0,0,0-.62-.82,3.62,3.62,0,1,0-5.12,5.12,3.69,3.69,0,0,0,.82.62l-4.92,2.46a8.77,8.77,0,0,0,3.81,2.22,11.58,11.58,0,0,0,3.36,9l5.44-7a2.17,2.17,0,0,1,1.53-.62A2.17,2.17,0,0,1,67,43.46,2.16,2.16,0,0,1,66.37,45l2,2a5.09,5.09,0,0,0,.48-6.62,5.65,5.65,0,0,1,2.59,1.5,5.79,5.79,0,0,1,0,8.19l2.05,2.05a8.68,8.68,0,0,0,0-12.29Z" fill="#ffda44"/>
      </g>
      <g>
        <path d="M10.39,74.25V25.75A26.64,26.64,0,0,1,30.24,0H0V100H30.24A26.66,26.66,0,0,1,10.39,74.25Z" opacity="0.2" style="isolation: isolate"/>
        <path d="M89.61,25.75V74.24A26.64,26.64,0,0,1,69.76,100H100V0H69.76A26.66,26.66,0,0,1,89.61,25.75Z" fill="#fff" opacity="0.1" style="isolation: isolate"/>
      </g>
    </g>
  </g>
</svg>
