<svg xmlns="http://www.w3.org/2000/svg" xmlns:xlink="http://www.w3.org/1999/xlink" width="100" height="100" viewBox="0 0 100 100">
  <defs>
    <clipPath id="a">
      <path d="M73.3,100H26.7A26.63,26.63,0,0,1,0,73.3V26.7A26.63,26.63,0,0,1,26.7,0H73.4A26.61,26.61,0,0,1,100,26.7V73.4A26.61,26.61,0,0,1,73.3,100Z" fill="none"/>
    </clipPath>
  </defs>
  <title>flag_as_e_macao</title>
  <g clip-path="url(#a)">
    <g>
      <g>
        <rect width="100" height="100" fill="#496e2d"/>
        <path d="M57.48,48.47a8.91,8.91,0,0,0-3,.54,9.12,9.12,0,0,0,.85-3.74c0-5.34-5.34-9.35-5.34-9.35s-5.34,4-5.34,9.35A9.12,9.12,0,0,0,45.51,49a8.9,8.9,0,0,0-3-.54c-5.34,0-9.35,5.34-9.35,5.34s4,5.34,9.35,5.34c3.13,0,5.8-1.84,7.47-3.36,1.68,1.52,4.35,3.36,7.48,3.36,5.33,0,9.34-5.34,9.34-5.34S62.81,48.47,57.48,48.47Z" fill="#f0f0f0"/>
        <g>
          <polygon points="50 24.1 51.1 27.49 54.67 27.49 51.78 29.59 52.89 32.98 50 30.89 47.11 32.98 48.22 29.59 45.33 27.49 48.9 27.49 50 24.1" fill="#ffda44"/>
          <polygon points="36.43 30.04 38.55 31.95 41.02 30.52 39.86 33.13 41.98 35.04 39.14 34.74 37.98 37.35 37.39 34.55 34.55 34.26 37.02 32.83 36.43 30.04" fill="#ffda44"/>
          <polygon points="26.49 39.97 29.29 40.56 30.71 38.09 31.01 40.93 33.8 41.52 31.2 42.69 31.5 45.52 29.58 43.4 26.98 44.56 28.4 42.09 26.49 39.97" fill="#ffda44"/>
          <polygon points="63.57 30.04 61.45 31.95 58.98 30.52 60.14 33.13 58.02 35.04 60.86 34.74 62.02 37.35 62.61 34.55 65.45 34.26 62.98 32.83 63.57 30.04" fill="#ffda44"/>
          <polygon points="73.51 39.97 70.71 40.56 69.29 38.09 68.99 40.93 66.2 41.52 68.8 42.69 68.5 45.52 70.42 43.4 73.02 44.56 71.6 42.09 73.51 39.97" fill="#ffda44"/>
        </g>
        <g>
          <path d="M50,74.1a18.63,18.63,0,0,0,11.29-3.8H38.71A18.63,18.63,0,0,0,50,74.1Z" fill="#f0f0f0"/>
          <path d="M32.87,62.89a18.49,18.49,0,0,0,2.23,3.79H64.9a18.49,18.49,0,0,0,2.23-3.79Z" fill="#f0f0f0"/>
        </g>
      </g>
      <g>
        <path d="M10.39,74.25V25.75A26.64,26.64,0,0,1,30.24,0H0V100H30.24A26.66,26.66,0,0,1,10.39,74.25Z" opacity="0.2" style="isolation: isolate"/>
        <path d="M89.61,25.75V74.24A26.64,26.64,0,0,1,69.76,100H100V0H69.76A26.66,26.66,0,0,1,89.61,25.75Z" fill="#fff" opacity="0.1" style="isolation: isolate"/>
      </g>
    </g>
  </g>
</svg>
