<svg xmlns="http://www.w3.org/2000/svg" xmlns:xlink="http://www.w3.org/1999/xlink" width="100" height="100" viewBox="0 0 100 100">
  <defs>
    <clipPath id="a">
      <path d="M73.3,100H26.7A26.63,26.63,0,0,1,0,73.3V26.7A26.63,26.63,0,0,1,26.7,0H73.4A26.61,26.61,0,0,1,100,26.7V73.4A26.61,26.61,0,0,1,73.3,100Z" fill="none"/>
    </clipPath>
  </defs>
  <title>flag_as_se_malaysia</title>
  <g clip-path="url(#a)">
    <g>
      <g>
        <rect width="100" height="100" fill="#f0f0f0"/>
        <g>
          <rect y="12.5" width="100" height="12.5" fill="#d80027"/>
          <rect y="37.5" width="100" height="12.5" fill="#d80027"/>
          <rect y="62.5" width="100" height="12.5" fill="#d80027"/>
          <rect y="87.5" width="100" height="12.5" fill="#d80027"/>
        </g>
        <rect width="50" height="50" fill="#0052b4"/>
        <g>
          <path d="M27.92,34.55A9.55,9.55,0,1,1,32.46,16.6a11.75,11.75,0,1,0,0,16.8A9.5,9.5,0,0,1,27.92,34.55Z" fill="#ffda44"/>
          <polygon points="30.61 18.29 32.31 21.83 36.14 20.95 34.42 24.48 37.5 26.92 33.67 27.79 33.68 31.71 30.61 29.26 27.55 31.71 27.56 27.79 23.73 26.92 26.8 24.48 25.09 20.95 28.92 21.83 30.61 18.29" fill="#ffda44"/>
        </g>
      </g>
      <g>
        <path d="M10.39,74.25V25.75A26.64,26.64,0,0,1,30.24,0H0V100H30.24A26.66,26.66,0,0,1,10.39,74.25Z" opacity="0.2" style="isolation: isolate"/>
        <path d="M89.61,25.75V74.24A26.64,26.64,0,0,1,69.76,100H100V0H69.76A26.66,26.66,0,0,1,89.61,25.75Z" fill="#fff" opacity="0.1" style="isolation: isolate"/>
      </g>
    </g>
  </g>
</svg>
