<svg xmlns="http://www.w3.org/2000/svg" xmlns:xlink="http://www.w3.org/1999/xlink" width="100" height="100" viewBox="0 0 100 100">
  <defs>
    <clipPath id="a">
      <path d="M73.3,100H26.7A26.63,26.63,0,0,1,0,73.3V26.7A26.63,26.63,0,0,1,26.7,0H73.4A26.61,26.61,0,0,1,100,26.7V73.4A26.61,26.61,0,0,1,73.3,100Z" fill="none"/>
    </clipPath>
  </defs>
  <title>flag_oc_poly_samoa</title>
  <g clip-path="url(#a)">
    <g>
      <g>
        <rect width="100" height="100" fill="#d80027"/>
        <rect width="50" height="50" fill="#0052b4"/>
        <g>
          <polygon points="36.71 28.48 37.58 31.14 40.37 31.14 38.11 32.78 38.97 35.43 36.71 33.79 34.45 35.43 35.32 32.78 33.06 31.14 35.85 31.14 36.71 28.48" fill="#f0f0f0"/>
          <polygon points="22.68 7.61 24.12 12.04 28.78 12.04 25.01 14.77 26.45 19.2 22.68 16.46 18.91 19.2 20.35 14.77 16.59 12.04 21.24 12.04 22.68 7.61" fill="#f0f0f0"/>
          <polygon points="36.59 12.25 38.03 16.68 42.69 16.68 38.92 19.41 40.36 23.84 36.59 21.1 32.83 23.84 34.27 19.41 30.5 16.68 35.16 16.68 36.59 12.25" fill="#f0f0f0"/>
          <polygon points="25.6 30.8 27.04 35.23 31.69 35.23 27.93 37.96 29.36 42.39 25.6 39.65 21.83 42.39 23.27 37.96 19.5 35.23 24.16 35.23 25.6 30.8" fill="#f0f0f0"/>
          <polygon points="13.41 19.2 14.85 23.63 19.5 23.63 15.73 26.37 17.17 30.8 13.41 28.06 9.64 30.8 11.08 26.37 7.31 23.63 11.97 23.63 13.41 19.2" fill="#f0f0f0"/>
        </g>
      </g>
      <g>
        <path d="M10.39,74.25V25.75A26.64,26.64,0,0,1,30.24,0H0V100H30.24A26.66,26.66,0,0,1,10.39,74.25Z" opacity="0.2" style="isolation: isolate"/>
        <path d="M89.61,25.75V74.24A26.64,26.64,0,0,1,69.76,100H100V0H69.76A26.66,26.66,0,0,1,89.61,25.75Z" fill="#fff" opacity="0.1" style="isolation: isolate"/>
      </g>
    </g>
  </g>
</svg>
