<svg xmlns="http://www.w3.org/2000/svg" xmlns:xlink="http://www.w3.org/1999/xlink" width="100" height="100" viewBox="0 0 100 100">
  <defs>
    <clipPath id="a">
      <path d="M73.3,100H26.7A26.63,26.63,0,0,1,0,73.3V26.7A26.63,26.63,0,0,1,26.7,0H73.4A26.61,26.61,0,0,1,100,26.7V73.4A26.61,26.61,0,0,1,73.3,100Z" fill="none"/>
    </clipPath>
  </defs>
  <title>flag_af_m_congo</title>
  <g clip-path="url(#a)">
    <g>
      <g>
        <rect width="100" height="100" fill="#338af3"/>
        <polygon points="100 0 100 21.52 21.52 100 0 100 0 78.48 78.48 0 87.7 0 87.7 0 100 0" fill="#ffda44"/>
        <polygon points="12.3 100 100 12.3 100 0 87.7 0 87.7 0 0 87.7 0 100 12.3 100" fill="#d80027"/>
        <polygon points="25 11.89 27.95 20.97 37.5 20.97 29.77 26.59 32.73 35.67 25 30.05 17.27 35.67 20.23 26.59 12.5 20.97 22.05 20.97 25 11.89" fill="#ffda44"/>
      </g>
      <g>
        <path d="M10.39,74.25V25.75A26.64,26.64,0,0,1,30.24,0H0V100H30.24A26.66,26.66,0,0,1,10.39,74.25Z" opacity="0.2" style="isolation: isolate"/>
        <path d="M89.61,25.75V74.24A26.64,26.64,0,0,1,69.76,100H100V0H69.76A26.66,26.66,0,0,1,89.61,25.75Z" fill="#fff" opacity="0.1" style="isolation: isolate"/>
      </g>
    </g>
  </g>
</svg>
