<svg xmlns="http://www.w3.org/2000/svg" xmlns:xlink="http://www.w3.org/1999/xlink" width="100" height="100" viewBox="0 0 100 100">
  <defs>
    <clipPath id="a">
      <path d="M73.3,100H26.7A26.63,26.63,0,0,1,0,73.3V26.7A26.63,26.63,0,0,1,26.7,0H73.4A26.61,26.61,0,0,1,100,26.7V73.4A26.61,26.61,0,0,1,73.3,100Z" fill="none"/>
    </clipPath>
  </defs>
  <title>flag_oc_micro_kiribati</title>
  <g clip-path="url(#a)">
    <g>
      <g>
        <rect width="100" height="54" fill="#c81010"/>
        <g>
          <path d="M52,9.11C46.64,6.48,43.37,6,39.72,6c-5.3,0-7.83,2.75-12.87,3,2,2.56,9.25,3.19,12.3-.18,4.55.56,5.58,2,6.8,3.84-1.9-.36-4.09-1-5.9,1.38-1.53.37-2.24,0-4.85,0-1.22,0-1.65.71-1.63,2,.79-1.3,6.25-.53,7.59,0,1,.41,2.12,2.11,3.42,2.38,3.42.73,8.32-1.4,12.84-2.84L67.19,14H60.48l8.39-2H59.75a6.35,6.35,0,0,0-1-.89,17.39,17.39,0,0,0,4.94-6.64A36.3,36.3,0,0,0,73.91,3C52.29.19,57.21,3.26,52,9.11Z" fill="#f8d000" stroke="#000" stroke-miterlimit="22.93" stroke-width="0.46"/>
          <g>
            <path d="M42,13.3a.46.46,0,0,1,.42.5.43.43,0,1,1-.84,0A.46.46,0,0,1,42,13.3Z"/>
            <path d="M42,13.3a.46.46,0,0,1,.42.5.43.43,0,1,1-.84,0A.46.46,0,0,1,42,13.3Z" fill="none" stroke="#000" stroke-miterlimit="22.93" stroke-width="0.15"/>
          </g>
          <path d="M47.61,12.76A7,7,0,0,1,44.69,14" fill="none" stroke="#000" stroke-miterlimit="22.93" stroke-width="0.46"/>
          <path d="M57.42,15.54A5.62,5.62,0,0,1,60.48,14" fill="none" stroke="#000" stroke-miterlimit="22.93" stroke-width="0.46"/>
          <path d="M31.84,8.2a15.17,15.17,0,0,1,1.92-1" fill="none" stroke="#000" stroke-miterlimit="22.93" stroke-width="0.46"/>
          <path d="M37.25,7a10.33,10.33,0,0,1,4.37-1" fill="none" stroke="#000" stroke-miterlimit="22.93" stroke-width="0.46"/>
          <path d="M42.85,7.3a13.25,13.25,0,0,1,5.22.12" fill="none" stroke="#000" stroke-miterlimit="22.93" stroke-width="0.46"/>
          <path d="M46,8.08a9.61,9.61,0,0,1,4.41.28" fill="none" stroke="#000" stroke-miterlimit="22.93" stroke-width="0.46"/>
          <path d="M48.28,8.9a11.18,11.18,0,0,1,3.44.56" fill="none" stroke="#000" stroke-miterlimit="22.93" stroke-width="0.46"/>
          <path d="M26.85,9a8.1,8.1,0,0,0,5.83-.45" fill="none" stroke="#000" stroke-miterlimit="22.93" stroke-width="0.46"/>
          <path d="M27.26,9.41s4.18,1.23,6.09-1.05" fill="none" stroke="#000" stroke-miterlimit="22.93" stroke-width="0.46"/>
          <path d="M28.66,10.27a5,5,0,0,0,5.62-1.91" fill="none" stroke="#000" stroke-miterlimit="22.93" stroke-width="0.46"/>
          <path d="M31.58,11a7.14,7.14,0,0,0,3.51-2.65" fill="none" stroke="#000" stroke-miterlimit="22.93" stroke-width="0.46"/>
          <path d="M33.57,11.08a10.62,10.62,0,0,0,2.32-2.66" fill="none" stroke="#000" stroke-miterlimit="22.93" stroke-width="0.46"/>
          <path d="M55.55,9.49s.67,1,3.18,1.62" fill="none" stroke="#000" stroke-miterlimit="22.93" stroke-width="0.46"/>
          <path d="M56,9a5.54,5.54,0,0,0,3.33,1.6" fill="none" stroke="#000" stroke-miterlimit="22.93" stroke-width="0.46"/>
          <path d="M56.54,8.42A6.6,6.6,0,0,0,60,10" fill="none" stroke="#000" stroke-miterlimit="22.93" stroke-width="0.46"/>
          <path d="M57.08,7.77a7.63,7.63,0,0,0,3.58,1.49" fill="none" stroke="#000" stroke-miterlimit="22.93" stroke-width="0.46"/>
          <path d="M57.74,6.93a6,6,0,0,0,3.5,1.63" fill="none" stroke="#000" stroke-miterlimit="22.93" stroke-width="0.46"/>
          <path d="M58.23,6.26a6.11,6.11,0,0,0,3.54,1.6" fill="none" stroke="#000" stroke-miterlimit="22.93" stroke-width="0.46"/>
          <path d="M58.72,5.56S59.56,6.72,62.34,7" fill="none" stroke="#000" stroke-miterlimit="22.93" stroke-width="0.46"/>
          <path d="M59.21,4.81S60.15,6,62.79,6.3" fill="none" stroke="#000" stroke-miterlimit="22.93" stroke-width="0.46"/>
          <path d="M59.59,4.18a6,6,0,0,0,3.57,1.46" fill="none" stroke="#000" stroke-miterlimit="22.93" stroke-width="0.46"/>
          <path d="M59.92,3.62s2.18,1.56,3.49,1.51" fill="none" stroke="#000" stroke-miterlimit="22.93" stroke-width="0.46"/>
          <path d="M60.32,2.9a9.72,9.72,0,0,0,3.35,1.57" fill="none" stroke="#000" stroke-miterlimit="22.93" stroke-width="0.46"/>
          <path d="M52.85,10.13a2.35,2.35,0,0,0,1.36.6" fill="none" stroke="#000" stroke-miterlimit="22.93" stroke-width="0.46"/>
          <path d="M53.26,9.66a2.2,2.2,0,0,0,1.44.61" fill="none" stroke="#000" stroke-miterlimit="22.93" stroke-width="0.46"/>
          <path d="M53.75,9.09a1.9,1.9,0,0,0,1.51.62" fill="none" stroke="#000" stroke-miterlimit="22.93" stroke-width="0.46"/>
          <path d="M54.21,8.53a3,3,0,0,0,1.56.65" fill="none" stroke="#000" stroke-miterlimit="22.93" stroke-width="0.46"/>
          <path d="M54.73,7.9a2.59,2.59,0,0,0,1.58.69" fill="none" stroke="#000" stroke-miterlimit="22.93" stroke-width="0.46"/>
          <path d="M55.19,7.21A2.65,2.65,0,0,0,56.82,8" fill="none" stroke="#000" stroke-miterlimit="22.93" stroke-width="0.46"/>
          <path d="M55.67,6.71a3.67,3.67,0,0,0,1.68.63" fill="none" stroke="#000" stroke-miterlimit="22.93" stroke-width="0.46"/>
          <path d="M56.11,6.13a7.93,7.93,0,0,0,1.8.49" fill="none" stroke="#000" stroke-miterlimit="22.93" stroke-width="0.46"/>
          <path d="M56.62,5.41a2.84,2.84,0,0,0,1.8.51" fill="none" stroke="#000" stroke-miterlimit="22.93" stroke-width="0.46"/>
          <path d="M57.08,4.7a3.15,3.15,0,0,0,1.75.62" fill="none" stroke="#000" stroke-miterlimit="22.93" stroke-width="0.46"/>
          <path d="M57.41,4a3.2,3.2,0,0,0,1.92.54" fill="none" stroke="#000" stroke-miterlimit="22.93" stroke-width="0.46"/>
          <path d="M57.79,3.21A2.38,2.38,0,0,0,59.66,4" fill="none" stroke="#000" stroke-miterlimit="22.93" stroke-width="0.46"/>
          <path d="M58.05,2.85a3.22,3.22,0,0,0,2,.58" fill="none" stroke="#000" stroke-miterlimit="22.93" stroke-width="0.46"/>
          <path d="M58.55,2.4a3.29,3.29,0,0,0,1.7.62" fill="none" stroke="#000" stroke-miterlimit="22.93" stroke-width="0.46"/>
          <path d="M59.45,2.08A4,4,0,0,0,63.17,2" fill="none" stroke="#000" stroke-miterlimit="22.93" stroke-width="0.46"/>
          <path d="M60.8,2.76s3.2.88,4.58-.65" fill="none" stroke="#000" stroke-miterlimit="22.93" stroke-width="0.46"/>
          <path d="M63.31,3A10.91,10.91,0,0,0,68,2.34" fill="none" stroke="#000" stroke-miterlimit="22.93" stroke-width="0.46"/>
          <path d="M64.77,3a27.54,27.54,0,0,0,9.14,0" fill="none" stroke="#000" stroke-miterlimit="22.93" stroke-width="0.46"/>
          <path d="M34.48,11a8.31,8.31,0,0,0,2.11-2.52" fill="none" stroke="#000" stroke-miterlimit="22.93" stroke-width="0.46"/>
          <path d="M35.6,10.77a11.73,11.73,0,0,0,1.55-2.25" fill="none" stroke="#000" stroke-miterlimit="22.93" stroke-width="0.46"/>
          <path d="M36.7,10.41a6.31,6.31,0,0,0,1.21-1.79" fill="none" stroke="#000" stroke-miterlimit="22.93" stroke-width="0.46"/>
          <path d="M31.88,8.55S34,8,39.15,8.78" fill="none" stroke="#000" stroke-miterlimit="22.93" stroke-width="0.46"/>
          <path d="M33.86,7.53a13.64,13.64,0,0,1,3.4-1.35" fill="none" stroke="#000" stroke-miterlimit="22.93" stroke-width="0.46"/>
          <path d="M35.65,7.1A11.88,11.88,0,0,1,38.9,6" fill="none" stroke="#000" stroke-miterlimit="22.93" stroke-width="0.46"/>
          <path d="M38.63,7a9.11,9.11,0,0,1,4-.83" fill="none" stroke="#000" stroke-miterlimit="22.93" stroke-width="0.46"/>
          <path d="M40.93,7a13.35,13.35,0,0,1,4.79-.29" fill="none" stroke="#000" stroke-miterlimit="22.93" stroke-width="0.46"/>
          <path d="M47.61,8.43A13.66,13.66,0,0,1,51.7,9" fill="none" stroke="#000" stroke-miterlimit="22.93" stroke-width="0.46"/>
          <path d="M44.36,7.52A20.51,20.51,0,0,1,49,7.76" fill="none" stroke="#000" stroke-miterlimit="22.93" stroke-width="0.46"/>
          <path d="M61.21,2.86a7.58,7.58,0,0,0,3.56,1.58" fill="none" stroke="#000" stroke-miterlimit="22.93" stroke-width="0.46"/>
          <path d="M62.69,3a9.94,9.94,0,0,0,3.8,1.35" fill="none" stroke="#000" stroke-miterlimit="22.93" stroke-width="0.46"/>
          <path d="M64.24,3a11.21,11.21,0,0,0,4.25,1.13" fill="none" stroke="#000" stroke-miterlimit="22.93" stroke-width="0.46"/>
          <path d="M66.53,3.26a15.54,15.54,0,0,0,4.71.44" fill="none" stroke="#000" stroke-miterlimit="22.93" stroke-width="0.46"/>
          <path d="M39.85,6.93a9.3,9.3,0,0,1,4-.65" fill="none" stroke="#000" stroke-miterlimit="22.93" stroke-width="0.46"/>
          <path d="M49.27,9.47a3.31,3.31,0,0,1,1.92.48" fill="none" stroke="#000" stroke-miterlimit="22.93" stroke-width="0.46"/>
          <path d="M46,12.62a6.08,6.08,0,0,0,1.66.14A20.81,20.81,0,0,0,52,9.11" fill="none" stroke="#000" stroke-miterlimit="22.93" stroke-width="0.46"/>
        </g>
        <g>
          <g>
            <g>
              <path d="M36.23,49.6a13.94,13.94,0,0,1-9.73-7.22,12,12,0,0,0,11.42,1.31" fill="#f8d000" stroke="#000" stroke-miterlimit="22.93" stroke-width="0.46"/>
              <path d="M36.15,53.57,24.44,49.14l12.2-1.79" fill="#f8d000" stroke="#000" stroke-miterlimit="22.93" stroke-width="0.46"/>
            </g>
            <g>
              <path d="M37.92,43.68A16.65,16.65,0,0,1,31,32.77a13.4,13.4,0,0,0,10.25,6.12" fill="#f8d000" stroke="#000" stroke-miterlimit="22.93" stroke-width="0.46"/>
              <path d="M36.64,47.35l-9.58-9.17L39,41.76" fill="#f8d000" stroke="#000" stroke-miterlimit="22.93" stroke-width="0.46"/>
            </g>
            <g>
              <path d="M41.28,38.89a19,19,0,0,1-3.11-13.14,16,16,0,0,0,7.71,10.12" fill="#f8d000" stroke="#000" stroke-miterlimit="22.93" stroke-width="0.46"/>
              <path d="M39,41.76,32.83,29.09l10,8.46" fill="#f8d000" stroke="#000" stroke-miterlimit="22.93" stroke-width="0.46"/>
            </g>
          </g>
          <g>
            <g>
              <path d="M45.88,35.87A19.45,19.45,0,0,1,47,22.28,18.49,18.49,0,0,0,51.08,35" fill="#f8d000" stroke="#000" stroke-miterlimit="22.93" stroke-width="0.46"/>
              <path d="M42.86,37.55,41,23.09l6.78,12.2" fill="#f8d000" stroke="#000" stroke-miterlimit="22.93" stroke-width="0.46"/>
            </g>
            <g>
              <path d="M51.08,35a17.91,17.91,0,0,1,5.14-12.2,19.55,19.55,0,0,0,0,13.65" fill="#f8d000" stroke="#000" stroke-miterlimit="22.93" stroke-width="0.46"/>
              <path d="M47.75,35.29,50.38,21,53,35.29" fill="#f8d000" stroke="#000" stroke-miterlimit="22.93" stroke-width="0.46"/>
            </g>
            <g>
              <path d="M56.19,36.47a15.19,15.19,0,0,1,8.5-9.17A18.43,18.43,0,0,0,60.51,40" fill="#f8d000" stroke="#000" stroke-miterlimit="22.93" stroke-width="0.46"/>
              <path d="M53,35.29l6.79-12.2L57.9,37.55" fill="#f8d000" stroke="#000" stroke-miterlimit="22.93" stroke-width="0.46"/>
            </g>
          </g>
          <g>
            <g>
              <path d="M60.51,40a12.9,12.9,0,0,1,10.71-4.89,15.92,15.92,0,0,0-7.76,10.06" fill="#f8d000" stroke="#000" stroke-miterlimit="22.93" stroke-width="0.46"/>
              <path d="M57.9,37.55l10-8.46L61.78,41.76" fill="#f8d000" stroke="#000" stroke-miterlimit="22.93" stroke-width="0.46"/>
            </g>
            <g>
              <path d="M63.46,45.18a12,12,0,0,1,11.48,0,13.34,13.34,0,0,0-10.29,6" fill="#f8d000" stroke="#000" stroke-miterlimit="22.93" stroke-width="0.46"/>
              <path d="M61.78,41.76,73.7,38.18l-9.58,9.17" fill="#f8d000" stroke="#000" stroke-miterlimit="22.93" stroke-width="0.46"/>
            </g>
            <g>
              <path d="M64.65,51.26a12.9,12.9,0,0,1,10.69,5,12.05,12.05,0,0,0-11.43,1.22" fill="#f8d000" stroke="#000" stroke-miterlimit="22.93" stroke-width="0.46"/>
              <path d="M64.12,47.35l12.2,1.79L64.6,53.57" fill="#f8d000" stroke="#000" stroke-miterlimit="22.93" stroke-width="0.46"/>
            </g>
          </g>
          <ellipse cx="50.38" cy="52" rx="14.29" ry="17" fill="#f8d000" stroke="#000" stroke-miterlimit="22.93" stroke-width="0.46"/>
        </g>
        <rect y="54" width="100" height="46" fill="#183070"/>
        <g>
          <path d="M92.83,52.29a15.76,15.76,0,0,1-14.31,0c-6.37-3-13.11-3-20,0a19.4,19.4,0,0,1-16.19,0c-6.93-3-13.68-3-20,0a15.76,15.76,0,0,1-14.31,0A22.66,22.66,0,0,0,0,50.08v8a17.5,17.5,0,0,1,5.43,1.61,21.5,21.5,0,0,0,19.3,0c4.86-2.31,9.85-2.29,15.25,0a25.29,25.29,0,0,0,20.79,0c5.41-2.34,10.4-2.36,15.25,0a21.52,21.52,0,0,0,19.31,0,17.86,17.86,0,0,1,4.67-1.5V50.15A22.9,22.9,0,0,0,92.83,52.29Z" fill="#fff"/>
          <path d="M92.83,68.29a15.76,15.76,0,0,1-14.31,0c-6.37-3-13.11-3.05-20-.05a19.4,19.4,0,0,1-16.19,0c-6.93-3-13.68-3-20,.05a15.76,15.76,0,0,1-14.31,0A22.66,22.66,0,0,0,0,66.08v8a17.5,17.5,0,0,1,5.43,1.61,21.5,21.5,0,0,0,19.3,0c4.86-2.31,9.85-2.29,15.25.05a25.29,25.29,0,0,0,20.79,0c5.41-2.34,10.4-2.36,15.25-.05a21.52,21.52,0,0,0,19.31,0,17.86,17.86,0,0,1,4.67-1.5V66.15A22.9,22.9,0,0,0,92.83,68.29Z" fill="#fff"/>
          <path d="M92.83,84.29a15.76,15.76,0,0,1-14.31,0c-6.37-3-13.11-3.05-20-.05a19.4,19.4,0,0,1-16.19,0c-6.93-3-13.68-3-20,.05a15.76,15.76,0,0,1-14.31,0A22.66,22.66,0,0,0,0,82.08v8a17.5,17.5,0,0,1,5.43,1.61,21.5,21.5,0,0,0,19.3,0c4.86-2.31,9.85-2.29,15.25.05a25.29,25.29,0,0,0,20.79,0c5.41-2.34,10.4-2.36,15.25-.05a21.52,21.52,0,0,0,19.31,0,17.86,17.86,0,0,1,4.67-1.5V82.15A22.9,22.9,0,0,0,92.83,84.29Z" fill="#fff"/>
        </g>
      </g>
      <g>
        <path d="M10.39,74.25V25.75A26.64,26.64,0,0,1,30.24,0H0V100H30.24A26.66,26.66,0,0,1,10.39,74.25Z" opacity="0.2" style="isolation: isolate"/>
        <path d="M89.61,25.75V74.24A26.64,26.64,0,0,1,69.76,100H100V0H69.76A26.66,26.66,0,0,1,89.61,25.75Z" fill="#fff" opacity="0.1" style="isolation: isolate"/>
      </g>
    </g>
  </g>
</svg>
