<svg xmlns="http://www.w3.org/2000/svg" xmlns:xlink="http://www.w3.org/1999/xlink" width="100" height="100" viewBox="0 0 100 100">
  <defs>
    <clipPath id="a">
      <path d="M73.3,100H26.7A26.63,26.63,0,0,1,0,73.3V26.7A26.63,26.63,0,0,1,26.7,0H73.4A26.61,26.61,0,0,1,100,26.7V73.4A26.61,26.61,0,0,1,73.3,100Z" fill="none"/>
    </clipPath>
  </defs>
  <title>flag_af_w_saint_helena</title>
  <g clip-path="url(#a)">
    <g>
      <g>
        <rect width="100" height="100" fill="#0052b4"/>
        <polygon points="50 0 50 9.6 42.2 17.4 50 17.4 50 32.6 39.7 32.6 50 42.9 50 50 45.4 50 32.6 37.2 32.6 50 17.4 50 17.4 34.8 2.2 50 0 50 0 40.5 7.8 32.6 0 32.6 0 17.4 10.3 17.4 0 7.1 0 0 4.6 0 17.4 12.8 17.4 0 32.6 0 32.6 15.2 47.8 0 50 0" fill="#f0f0f0"/>
        <polygon points="0 29.7 20.3 29.7 20.3 50 29.7 50 29.7 29.7 50 29.7 50 20.3 29.7 20.3 29.7 0 20.3 0 20.3 20.3 0 20.3 0 29.7" fill="#d80027"/>
        <polygon points="32.6 32.6 50 50 50 45.1 37.5 32.6 32.6 32.6" fill="#0052b4"/>
        <polygon points="32.6 32.6 50 50 50 45.1 37.5 32.6 32.6 32.6" fill="#f0f0f0"/>
        <polygon points="32.6 32.6 50 50 50 45.1 37.5 32.6 32.6 32.6" fill="#d80027"/>
        <polygon points="12.5 32.6 0 45.1 0 50 0 50 17.4 32.6 12.5 32.6" fill="#d80027"/>
        <polygon points="17.4 17.4 0 0 0 4.9 12.5 17.4 17.4 17.4" fill="#0052b4"/>
        <polygon points="17.4 17.4 0 0 0 4.9 12.5 17.4 17.4 17.4" fill="#f0f0f0"/>
        <polygon points="17.4 17.4 0 0 0 4.9 12.5 17.4 17.4 17.4" fill="#d80027"/>
        <polygon points="37.5 17.4 50 4.9 50 0 50 0 32.6 17.4 37.5 17.4" fill="#d80027"/>
        <g>
          <path d="M85.91,50.4c0,7.85-1.27,16.31-11.5,20.33-10.24-4-11.49-12.48-11.51-20.33Z" fill="#128bbf"/>
          <path d="M74.41,70.73a17,17,0,0,0,9.18-8,2.12,2.12,0,0,0-1,0c-.25,0-9.9-.73-11-1.14s-4.74.31-6.5.93A16.41,16.41,0,0,0,74.41,70.73Z" fill="#e8ece9"/>
          <path d="M67.25,65.87a1.6,1.6,0,0,1,.57,0c.14,0,.17,0,.22-.11s.16-.11.25,0a.31.31,0,0,0,.4-.09c.09-.12.12-.11.2,0s.13.06.22,0a.6.6,0,0,0,.31-.27c.08-.13.19-.18.25-.11a.23.23,0,0,0,.22.1c.09,0,.11.08.1.19s0,.14.25,0c.19.19.25.11.25-.09a4.42,4.42,0,0,0-.12-1,1.48,1.48,0,0,1-.17-.61c0-.43,0-.45-.54-.72,0-.15,0-.21-.4-.18a.42.42,0,0,0-.13-.27c-.07-.06-.09-.08,0-.26a.44.44,0,0,0,.41-.14c.08-.12.37-.1.55,0a1.42,1.42,0,0,0,.74,0,4.27,4.27,0,0,1,.57-.34c.22-.12.29-.17.3-.35a2.65,2.65,0,0,0-.25-1.2c-.13-.24-.17-.54-.34-.91a2.65,2.65,0,0,0-.4-.76.41.41,0,0,1-.14-.26.78.78,0,0,0-.22-.47,5.26,5.26,0,0,1-.68-2.28c-.08-.47,0-1.59-.22-1.76a1.66,1.66,0,0,0-.73-.32,5.33,5.33,0,0,1-.39-1.07c-.24,0-.41.29-.57.38s-.19.08-.19.31a1.79,1.79,0,0,1-.35.88c-.23.35-.6.25-.92.78-.69-.84-.7-1.08-.75-1.31s-.17-.29-.56-.63a4.09,4.09,0,0,1,0-.72c-.29-.24-.5-.2-.64,0s-.24.44-.46.54A12.55,12.55,0,0,0,63,53.76c.29,4.34,1.28,8.66,4.25,12.11Z" fill="#69522b"/>
          <path d="M85.91,50.4c0-2.95-.15-5.82-.08-8.34C82,40.36,77,40,74.41,40S66.8,40.36,63,42.06c.07,2.52-.09,5.39-.08,8.34Z" fill="#bca76b"/>
          <path d="M63.52,53.82a2.74,2.74,0,0,1,.38.74,1.39,1.39,0,0,0,.17-.38c0-.11.16-.33.1-.45s-.08-.21.06-.12.11.23.08.46c-.08.61-.34.74-.38,1.15.37.87.09,1.18.5,2,.06,0,.23,0,.28,0,.21-.15.37-.1.67,0a.53.53,0,0,1,.47.46.58.58,0,0,0,.06.35c.06.11.19.29.16.41a.33.33,0,0,0,.07.26c0,.07,0,.2,0,.29s0,.2.12.39a3.27,3.27,0,0,1,.51,1.43c0,.47,0,.68.21.77s.25.16.23.36a12.6,12.6,0,0,0,.11,1.4c0,.16.09.12.16.21a.4.4,0,0,0,.38.19,5,5,0,0,1,.66,0,2.62,2.62,0,0,1,.42,1c0,.26,0,.62.13.62s.18,0,.15-.32a.78.78,0,0,0-.16-.53c-.12-.16-.18-.24-.12-.34a.52.52,0,0,0,0-.39c0-.12-.06-.31.16-.06s.27.31.33.4a.63.63,0,0,1,.08.4c0,.15,0,.21.1.14s.2.05.15.21a.22.22,0,0,0,.17.31c.15,0,.21.09.25.2s.16.16.16-.06a3.4,3.4,0,0,0-.15-.85,3.22,3.22,0,0,1-.13-.66c0-.19,0-.24-.13-.28a.25.25,0,0,1-.18-.18.14.14,0,0,0-.15-.12s-.1-.05-.13-.11a.13.13,0,0,0-.13-.07c-.06,0-.16,0-.19-.07a1.64,1.64,0,0,0-.14-.33c-.07-.08-.12-.1-.13-.38s0-.32-.1-.42a3,3,0,0,1-.3-.48c-.06-.11-.13-.22-.13,0s0,.36.15.45.19.08.13.21,0,.21,0,.3.08.17,0,.26-.15.06-.13-.08a.83.83,0,0,0-.1-.41c-.07-.11-.12-.18-.19-.12s-.14,0-.09-.06a.08.08,0,0,0,0-.13s0-.07,0-.15.06-.11,0-.29a8.94,8.94,0,0,0-.44-1.25c-.13-.2-.12-.35.05-.15a1.17,1.17,0,0,1,.31.54.61.61,0,0,0,.1.33c0,.06.09,0,.11-.1s.13-.09,0-.35a3.42,3.42,0,0,1-.62-1.49,6.42,6.42,0,0,0-.31-1.52.87.87,0,0,1-.17-.47,1.28,1.28,0,0,0-.09-.54c-.09-.15-.15-.18-.16,0a2.41,2.41,0,0,0,.07.81c.06.08,0,.31,0,.43s-.21.25.2.5a.26.26,0,0,1,.12.33c0,.09,0,.07-.14-.06a2,2,0,0,0-.26-.33c-.09-.07-.11-.12-.09-.3s.05-.3,0-.36-.08,0-.1.09a3,3,0,0,1-.1.45c-.05.07-.08,0-.12-.14a1.64,1.64,0,0,1,.1-.7,1.89,1.89,0,0,0,.07-1c-.08-.38,0-.49-.33-.8a3.16,3.16,0,0,1-.76-1,3.27,3.27,0,0,0-.31-.9,2.27,2.27,0,0,0-.5-.46v-.58a.18.18,0,0,0-.23-.2c-.16,0-.26.17-.37.35s-.17.1-.31.43-.34.48-.34.83Z" fill="#cfa763"/>
          <path d="M64.43,57.48a.28.28,0,0,0,.34,0c.16-.07.34-.29.54-.08a1.34,1.34,0,0,1,.31.84,1.44,1.44,0,0,0,.32,1.08,1.33,1.33,0,0,1,.49,1,6.09,6.09,0,0,0,.19,1.1.9.9,0,0,0,.22.42,1.21,1.21,0,0,1,.19.69,4.71,4.71,0,0,0,0,.66c0,.15,0,.27-.11.2a.43.43,0,0,1-.2-.24c-.07-.12-.14-.1-.08.09a.51.51,0,0,0,.42.36.35.35,0,0,1,.31.13c.1.1.11.15.29.15a.92.92,0,0,1,.37.05.3.3,0,0,0,.25,0c.09,0,.17,0,.24.21a4.12,4.12,0,0,1,.21.73.6.6,0,0,0,.09.38c.09.12.06.25,0,.17s-.1,0-.18,0-.12,0-.22-.09,0-.05-.14-.2-.16-.2-.16-.09,0,.25-.09.19-.12-.06-.18,0-.09.11-.16,0a.31.31,0,0,0-.24-.15c-.08,0-.08,0-.11-.14a.26.26,0,0,0-.26-.14.14.14,0,0,1-.16-.12.24.24,0,0,0-.13-.16s0-.13,0-.22-.09,0-.14-.07-.09,0-.09-.14,0-.16-.09-.25,0-.17,0-.27a.24.24,0,0,0-.07-.25c-.07-.09,0-.18-.21-.35s-.3,0-.36-.44a6.3,6.3,0,0,0-.31-1.4c-.11-.14-.19-.24-.3-.27s-.19,0-.2-.25a1.13,1.13,0,0,0-.24-.69,2.38,2.38,0,0,0-.29-.26c-.07-.07-.1-.18,0-.39a1.33,1.33,0,0,0,0-.64,1.74,1.74,0,0,1,0-.46,1,1,0,0,0,0-.44c0-.1-.09-.12,0-.2Z" fill="#cfa763"/>
          <path d="M68.25,64.32c-.07.15-.16.1-.24,0s-.16-.07-.12-.21,0-.16-.08-.24l0,0h-.12c-.18,0-.19,0-.29-.15l-.06-.06v.09c0,.14,0,.12-.14.15s-.11-.13-.14-.25,0,0,0-.06a.57.57,0,0,1-.37-.36c-.06-.19,0-.21.08-.09a.43.43,0,0,0,.2.24c.11.07.15-.05.11-.2A.86.86,0,0,1,67,63a.38.38,0,0,0-.11-.11c-.21-.08-.14-.11-.13-.27s0-.16-.15-.08-.14,0-.14-.26-.16-.25-.2-.07-.1.06-.18-.19-.17-.31-.19-.07-.06.24-.19.13q0,.22.06.39c.06.41.16.26.36.44s.14.26.21.35a.24.24,0,0,1,.07.25c0,.1-.07.18,0,.27s.09.13.09.25,0,.11.09.14.07,0,.1,0a.64.64,0,0,1,.1-.13c.15-.15.38,0,.45.2s.17.23.28.08.07-.12.2,0,.18.11.18.11a.23.23,0,0,1,.21,0c.09.08.14.07.3-.17s-.07-.16-.15,0Z" fill="#d7c99c"/>
          <path d="M74.41,70.86l0,0c-4.68-1.84-7.84-4.72-9.64-8.79-1.7-3.83-1.93-8.23-1.94-11.65v-.11H86v.11c0,3.42-.24,7.82-1.93,11.65-1.81,4.07-5,7-9.65,8.79ZM63,50.52c0,8.12,1.47,16.16,11.4,20.09,9.92-3.93,11.35-12,11.39-20.09Z"/>
          <path d="M67.46,53.93a2.67,2.67,0,0,1-.59.57c-.23.17-.54.3-.37.58s.3.32.34.53.08.4.25.45.23,0,.23.37,0,.48.16.62.13.26.2.58A6.16,6.16,0,0,0,68,59.1a6.57,6.57,0,0,1,.6,1.53c0,.18-.12.31.08.53a1.39,1.39,0,0,1,.36.72c0,.18.05.25.25.18a.73.73,0,0,0,.37-.22c.06-.08.2-.06.38,0s.47.2.64.1.25-.25.4-.25a1.35,1.35,0,0,0,.37-.62c0-.1,0-.1-.08-.2s0-.27-.07-.43a2.19,2.19,0,0,0-.28-.79,8,8,0,0,0-.46-.93,1,1,0,0,1-.22-.53c0-.13-.16-.25-.26-.35s-.21-.25-.32-.83-.2-1-.2-1.1,0-.12-.12-.15a.26.26,0,0,1-.12-.29c0-.08,0-.16-.07-.26a.52.52,0,0,1,.07-.38,1,1,0,0,0,0-.62c-.06-.23-.13-.43-.4-.47a.42.42,0,0,1-.42-.31,6.82,6.82,0,0,1-.23-.69c0-.08-.09-.1-.29.07a.53.53,0,0,0-.27.53.7.7,0,0,0,.1.39.93.93,0,0,1,.14.46c.05.32.33.82,0,1.1s-.31.35-.3.55-.1.33-.16,0a.47.47,0,0,1,.2-.58c.2-.14.38-.3.25-.48a1.87,1.87,0,0,1-.2-.82c0-.2,0-.27-.17-.12Z" fill="#cfa763"/>
          <path d="M64.47,58.18a2.6,2.6,0,0,0,0,.4,1.33,1.33,0,0,1,0,.64c-.1.21-.07.32,0,.39h0a.3.3,0,0,0,.18-.41.38.38,0,0,1,0-.37c.06-.12.06-.19,0-.27s0-.08,0-.32-.09-.2-.21-.07Z" fill="#d7c99c"/>
          <path d="M66.62,61.41a6.09,6.09,0,0,1-.19-1.1,1.33,1.33,0,0,0-.49-1,1.22,1.22,0,0,1-.31-.87c-.19-.11-.27-.06-.25.15s.24.33.21.66,0,.24.12.4.22.3.14.37a.13.13,0,0,0,0,.23c.12,0,.13.16.11.28s.09.14.16.22a.41.41,0,0,1,0,.4c-.07.12-.08.3,0,.2s.17,0,.26.15.15.1.24.06A.89.89,0,0,1,66.62,61.41Z" fill="#d7c99c"/>
          <path d="M65.63,54.47c-.12,0-.21.12-.13.5s-.14.18-.21.06a4.34,4.34,0,0,0-.25-.58c-.13-.22-.06.15-.08.35s.12.2.23.37,0,.23-.11.23-.07.26,0,.45,0,.21-.13.06,0-.38,0-.66,0-.22-.15-.28-.15-.1-.08-.27.13-.25,0-.33-.07-.14.06-.15.09-.12.21-.15.16,0,.18-.2.08-.3.21-.24a7.3,7.3,0,0,0,.26.84Z" fill="#d7c99c"/>
          <path d="M68.7,57.46c0-.36,0-.73.17-.86s.33-.4.32.16,0,.54-.15.67-.22.17-.1.38a.78.78,0,0,1,.11.57c0,.33,0,.47.12.63s.17.19.2.37a1.14,1.14,0,0,0,.3.56,1.47,1.47,0,0,1,.34.79c0,.26.25.33.47.51s0,.32-.22.24-.1,0-.2.11-.13.14-.22-.06a.92.92,0,0,0-.5-.39c-.14,0-.25-.26-.37-.48a.66.66,0,0,0-.48-.34.73.73,0,0,1,.06.31c0,.18-.12.31.08.53a1.48,1.48,0,0,1,.36.72c0,.18.05.25.25.18a.73.73,0,0,0,.37-.22c.06-.08.2-.06.38,0s.47.2.64.1.25-.25.4-.25a1.35,1.35,0,0,0,.37-.62c0-.1,0-.1-.08-.2s0-.27-.07-.43a2.19,2.19,0,0,0-.28-.79,8,8,0,0,0-.46-.93,1,1,0,0,1-.22-.53c0-.13-.16-.25-.26-.35s-.21-.25-.32-.83-.17-.81-.19-1c-.12.19-.21.23-.25.1s-.12-.23-.18-.13S69,56,69,55.86s0-.1-.1-.1,0-.13-.05-.38-.08-.28-.12,0-.2.48-.13.55,0,.2,0,.4a.57.57,0,0,0,0,.45,1.7,1.7,0,0,1-.06.6c0,.21.13.43.18.06Z" fill="#d7c99c"/>
          <path d="M67.32,56.43c0,.35,0,.48.16.62s.13.26.2.58A6.16,6.16,0,0,0,68,59.1l.22.49a1,1,0,0,0,.25-.31c0-.12-.11-.35-.22-.55s0-.27.13-.52,0-.26-.2-.33-.18-.23-.29-.5a.57.57,0,0,1,0-.53c.07-.15,0-.27-.12-.3s-.1-.14,0-.3.08-.2-.12-.15-.19.06-.23.12a1.16,1.16,0,0,1,0,.21Z" fill="#d7c99c"/>
          <g>
            <g>
              <polygon points="70.12 60.7 70.06 60.69 70.47 56.29 70.52 56.3 70.12 60.7"/>
              <path d="M71.13,61.31l-.06,0c.21-.68.43-1.52.6-2.31l.06,0C71.55,59.78,71.33,60.63,71.13,61.31Z"/>
              <path d="M78.12,57.47a4,4,0,0,0-.45-.19,2.14,2.14,0,0,1-.73-.39l0,0a2.19,2.19,0,0,0,.71.38,3.35,3.35,0,0,1,.45.19Z"/>
              <polygon points="78.79 60.52 78.73 60.51 78.95 58.81 79.01 58.82 78.79 60.52"/>
              <polygon points="78.39 60.64 78.34 60.63 78.74 58.89 78.79 58.9 78.39 60.64"/>
              <path d="M70.78,61.11l-.06,0c0-.1.07-.19.11-.28.2-.57.42-1.15.58-1.77h0a18.54,18.54,0,0,1-.58,1.78C70.85,60.92,70.81,61,70.78,61.11Z"/>
            </g>
            <path d="M80.16,63.14h-.23l0,0v0l0,0,0,0,0,0,0,0v0l0,0v0a.63.63,0,0,1-.32.14.83.83,0,0,1-.35,0,.77.77,0,0,1-.42-.08.4.4,0,0,0-.34,0c-.07,0-.08.11-.16.14s-.27,0-.35,0a1.09,1.09,0,0,1-.43-.09.27.27,0,0,0-.33,0,.47.47,0,0,1-.25.14,1.42,1.42,0,0,1-.52,0c-.15,0-.2-.09-.34-.13s-.23.05-.33.09a.53.53,0,0,1-.37.07,1.29,1.29,0,0,1-.46,0,.89.89,0,0,1-.31-.14c-.1-.07-.28,0-.36,0s-.2.13-.38.12a2.78,2.78,0,0,1-.38-.12.82.82,0,0,0-.44-.14.45.45,0,0,1-.33.12,1.12,1.12,0,0,1-.33,0c-.24,0-.36-.26-.53-.4l-.88-.87c0-.15.06-.18,0-.28s-.07-.18,0-.34-.11-.09-.16-.16-.15-.1-.25-.13l-.27-.15a2,2,0,0,1-.25-.14c-.07-.05-.15-.09-.21-.14a1.1,1.1,0,0,1-.21-.14c-.09,0-.13-.09-.21-.13a1.7,1.7,0,0,0-.22-.15,1.89,1.89,0,0,0-.33-.13.09.09,0,0,1,.05-.18.49.49,0,0,1,.25.12,2.34,2.34,0,0,0,.4.13,2.21,2.21,0,0,0,.27.12c.09.07.2.08.31.15a1.21,1.21,0,0,1,.28.15c.09,0,.13.09.23.13a.65.65,0,0,0,.15.1l.23.12a1.76,1.76,0,0,1,.2.12c.07,0,.56.27.53.24.48.09.69.12,1.17.19l3.47.05,1.26-.52.38-.61,1.87-.34s3.26-.11,3.33.16c0,.12.12.35,0,.41s-3.12-.39-3.16-.11a7.89,7.89,0,0,0,0,1l.05.36,0,.36,0,.36,0,.36Z" fill="#666"/>
            <g>
              <path d="M69,60.11l0,0a12.76,12.76,0,0,0,1.71-1.63l0,0A14.29,14.29,0,0,1,69,60.11Z"/>
              <polygon points="73.83 55.87 73.79 55.83 75.6 54.26 75.64 54.31 73.83 55.87"/>
              <path d="M74.31,58.05A4.23,4.23,0,0,1,73,57.42l0-.05a3.72,3.72,0,0,0,1.31.62Z"/>
              <path d="M74,56a1.93,1.93,0,0,1-1.3-.92l0,0a1.83,1.83,0,0,0,1.26.89Z"/>
              <path d="M71.1,52.37l0,0a3.1,3.1,0,0,0,1.14-.87l0,0A3.15,3.15,0,0,1,71.1,52.37Z"/>
              <path d="M73.86,54.23a2.82,2.82,0,0,1-1-.54l0,0a2.86,2.86,0,0,0,1,.52Z"/>
              <path d="M73.4,61.48c-.21-.76-.37-1.49-.55-2.36h.06c.17.87.33,1.6.54,2.35Z"/>
              <path d="M72.76,61.47l-.05,0A10.79,10.79,0,0,0,75,58.25l.06,0A11,11,0,0,1,72.76,61.47Z"/>
              <path d="M78,55.49a2.18,2.18,0,0,1-1.12-.7l0,0a2.1,2.1,0,0,0,1.09.68Z"/>
              <path d="M79.07,54.81l-.23-.28a6.26,6.26,0,0,1-.64-.9l0,0a6.15,6.15,0,0,0,.64.89c.07.1.15.19.22.28Z"/>
              <path d="M75,53.5l0,0a2.12,2.12,0,0,1,.11-.21,3.17,3.17,0,0,0,.39-1.09h0a3,3,0,0,1-.39,1.1Z"/>
              <path d="M75,53.44l0-.06a3.61,3.61,0,0,0,1-.87l.1-.12.05,0-.11.12A3.49,3.49,0,0,1,75,53.44Z"/>
              <path d="M75.36,51.25l0-.06a4,4,0,0,0,.8-.43l0,.05A3.91,3.91,0,0,1,75.36,51.25Z"/>
              <path d="M78.59,55.28l0-.05a3.76,3.76,0,0,0,.88-.85l.12-.15,0,0-.13.15A3.66,3.66,0,0,1,78.59,55.28Z"/>
              <path d="M78.57,58l0,0a5.51,5.51,0,0,0,.77-.68l.31-.31,0,.05c-.11.09-.21.2-.31.3A4.59,4.59,0,0,1,78.57,58Z"/>
              <path d="M79.71,60.29l0,0a12.51,12.51,0,0,0,2-1.33l0,.05A12.62,12.62,0,0,1,79.71,60.29Z"/>
              <path d="M80.05,60.35l0,0A11.1,11.1,0,0,0,81.61,59l.06-.06,0,0-.06.06A9.58,9.58,0,0,1,80.05,60.35Z"/>
              <path d="M80.49,55.18a2.23,2.23,0,0,1-.65-.85l0,0a2.33,2.33,0,0,0,.64.83Z"/>
            </g>
            <g>
              <path d="M79.47,51.33l0,9,.66,0-.28-9Z" fill="#bca76b"/>
              <path d="M79.4,60.36v0l.06-9,.36,0v0l.27,9h0Zm.09-9,0,9,.62,0-.28-9Z" fill="#472b1f"/>
            </g>
            <g>
              <g>
                <path d="M79.91,63a1.57,1.57,0,0,1,.37.3c.29.27.48.27.89,0a1.55,1.55,0,0,0,.48.07,1.59,1.59,0,0,0,.43-.06c.17,0,.2-.25.26-.39a2.78,2.78,0,0,1,.28-.47A1.48,1.48,0,0,0,83,62a.62.62,0,0,0,.08-.5c0-.16,0-.31,0-.47s.14-.36.13-.57a1.12,1.12,0,0,0-.41-.15,4.42,4.42,0,0,0-.73-.1l-.59-.06-.59,0a5,5,0,0,0-.67,0,1.86,1.86,0,0,0-.48.09,1.9,1.9,0,0,0-.1.46,2.88,2.88,0,0,0,0,.42,2.77,2.77,0,0,0,0,.76c0,.2.06.4.1.6a.68.68,0,0,0,.14.44Z" fill="#333"/>
                <path d="M80.68,63.51a.64.64,0,0,1-.44-.22,1.7,1.7,0,0,0-.36-.29h0a.71.71,0,0,1-.16-.48l0-.24c0-.11,0-.23-.07-.35a2.09,2.09,0,0,1,0-.56v-.21a2.81,2.81,0,0,1,0-.43,1.47,1.47,0,0,1,.1-.47v0h0a.78.78,0,0,1,.31-.07l.18,0a3.39,3.39,0,0,1,.45,0h.23l.59,0,.33,0,.27,0a5.58,5.58,0,0,1,.73.1l.1,0a.75.75,0,0,1,.33.14l0,0v0a.68.68,0,0,1-.06.29.45.45,0,0,0-.06.27h0a3.71,3.71,0,0,0,0,.47.62.62,0,0,1-.09.53,1.42,1.42,0,0,1-.41.36h0a2.64,2.64,0,0,0-.27.46.94.94,0,0,0,0,.09c0,.13-.1.29-.27.33a1.52,1.52,0,0,1-.44,0,.73.73,0,0,1-.33,0l-.13,0A1,1,0,0,1,80.68,63.51ZM80,62.9a2.17,2.17,0,0,1,.37.31c.27.25.43.25.82,0h0l.17,0a.72.72,0,0,0,.29,0h0a1.86,1.86,0,0,0,.42,0c.1,0,.14-.14.18-.25a.36.36,0,0,1,0-.11,2.43,2.43,0,0,1,.29-.49h0l0,0A1.33,1.33,0,0,0,83,62a.53.53,0,0,0,.06-.45,3.77,3.77,0,0,1,0-.48.5.5,0,0,1,.06-.32.66.66,0,0,0,.06-.22,1,1,0,0,0-.27-.1l-.1,0a5.27,5.27,0,0,0-.71-.11l-.27,0-.33,0-.58,0h-.24a2,2,0,0,0-.42,0l-.19,0a.92.92,0,0,0-.25.05,1.76,1.76,0,0,0-.09.42,2.67,2.67,0,0,0,0,.42.74.74,0,0,1,0,.21,1.84,1.84,0,0,0,0,.53c0,.12,0,.25.06.36a1.87,1.87,0,0,0,0,.25A.62.62,0,0,0,80,62.9Z"/>
              </g>
              <g>
                <rect x="81.08" y="58.45" width="0.06" height="1.89" transform="translate(-18.42 45.25) rotate(-28.13)"/>
                <path d="M82.87,60.34a3.37,3.37,0,0,1-.64-1l.06,0a3.35,3.35,0,0,0,.62,1Z"/>
              </g>
            </g>
            <g>
              <path d="M82.83,57.71l.29.21h0a.74.74,0,0,0-.31-.22Z" fill="#472b1f"/>
              <path d="M82.21,57.8h0l-.41,1.61Z" fill="#472b1f"/>
              <path d="M84.18,57.86a1.14,1.14,0,0,0-.3.09l.18-.06.22,0Z" fill="#472b1f"/>
              <path d="M82.26,59.33h0l.11,0Z" fill="#472b1f"/>
              <path d="M82.42,59.42a2,2,0,0,0,.32.18Z" fill="#472b1f"/>
              <path d="M83.38,59.5l-.55.11A1.54,1.54,0,0,0,83.38,59.5Z" fill="#472b1f"/>
            </g>
            <path d="M82.24,57.7l-.48,1.72.5-.09.52.29.79-.16.4.06a4.62,4.62,0,0,1,.42-1.67l-.33,0-.52.19-.42-.16-.33-.23Z" fill="#fff"/>
            <path d="M83,57.91a1.48,1.48,0,0,0-.18.51,2.79,2.79,0,0,0-.36-.1,2.28,2.28,0,0,0-.38,0h0l-.11.41a2.64,2.64,0,0,1,.46,0,1.8,1.8,0,0,1,.29.11c0,.22-.1.44-.16.66l.1,0,.21.06H83a1.94,1.94,0,0,1,.17-.63,2.09,2.09,0,0,0,.5.08l.44,0a2.9,2.9,0,0,1,.06-.41,1.9,1.9,0,0,1-.49.07,1.74,1.74,0,0,1-.39-.15,3.69,3.69,0,0,1,.17-.42Z" fill="#c8102e"/>
            <path d="M81.86,57.7a12.9,12.9,0,0,1-.58-2.27h.06a12.77,12.77,0,0,0,.58,2.26Z"/>
            <g>
              <path d="M82.88,59.67h-.11a.78.78,0,0,1-.29-.13.68.68,0,0,0-.22-.12,1.72,1.72,0,0,0-.56.07l-.1,0L82,57.78h0a2.31,2.31,0,0,1,.76-.08.87.87,0,0,1,.31.18.54.54,0,0,0,.28.16.65.65,0,0,0,.39-.11,1.27,1.27,0,0,1,.36-.12,2,2,0,0,1,.4.05h.06l-.33,1.22v.54l-.07,0a3.08,3.08,0,0,0-.65-.08,1.55,1.55,0,0,0-.31.07A1.29,1.29,0,0,1,82.88,59.67Zm-.71-.39.12,0a.79.79,0,0,1,.26.13.68.68,0,0,0,.24.12.85.85,0,0,0,.44-.07l.34-.08a2.84,2.84,0,0,1,.61.07v-.41l.3-1.11a1,1,0,0,0-.3,0,.72.72,0,0,0-.32.11.8.8,0,0,1-.45.12.72.72,0,0,1-.34-.19.66.66,0,0,0-.27-.15,2.2,2.2,0,0,0-.67.06l-.37,1.47A2.52,2.52,0,0,1,82.17,59.28Z" fill="#472b1f"/>
              <g>
                <g>
                  <path d="M82.17,57.81H82l-.66,2.32h.31Z" fill="#bca76b"/>
                  <path d="M81.63,60.17h-.34L82,57.8h.25Zm-.3,0h.27l.55-2.31H82Z" fill="#472b1f"/>
                </g>
                <g>
                  <path d="M82,57.82a.25.25,0,0,1-.11-.29c0-.11.23-.13.34-.1s.3.17.25.29S82.11,57.9,82,57.82Z" fill="#bca76b"/>
                  <path d="M82.17,57.88a.46.46,0,0,1-.21,0h0a.3.3,0,0,1-.12-.32.32.32,0,0,1,.36-.1.45.45,0,0,1,.26.19.17.17,0,0,1,0,.12.24.24,0,0,1-.13.13ZM82,57.81a.44.44,0,0,0,.34,0,.17.17,0,0,0,.12-.1.18.18,0,0,0,0-.1.41.41,0,0,0-.24-.17.3.3,0,0,0-.32.09.25.25,0,0,0,.11.27Z" fill="#472b1f"/>
                </g>
              </g>
            </g>
            <path d="M84.36,57.87A4.45,4.45,0,0,0,84,59.49l.27.06v-.48l.16-.53.18-.63Z" fill="#472b1f"/>
            <g>
              <path d="M81.72,57.29a8.19,8.19,0,0,1-.56-.66,2.85,2.85,0,0,0-.55-.61l0-.05a3,3,0,0,1,.57.62,8,8,0,0,0,.55.66Z"/>
              <path d="M81.21,55.16a8.81,8.81,0,0,1-.47-2.45h.05a9.36,9.36,0,0,0,.47,2.43Z"/>
              <polygon points="80.76 60.22 80.25 58.88 80.3 58.86 80.82 60.2 80.76 60.22"/>
              <path d="M80.78,52.11a1.38,1.38,0,0,1-1-.7h.06a1.31,1.31,0,0,0,.9.66Z"/>
              <path d="M77.92,52.55h0v-.06h0a2.83,2.83,0,0,0,1.4-1.09l.05,0A2.82,2.82,0,0,1,77.92,52.55Z"/>
              <polygon points="81.14 60.2 80.43 58.69 80.48 58.66 81.19 60.17 81.14 60.2"/>
              <polygon points="80.41 59.21 80.39 59.16 80.91 58.96 80.92 59.02 80.41 59.21"/>
              <polygon points="80.5 59.49 80.48 59.44 81.03 59.21 81.05 59.26 80.5 59.49"/>
              <polygon points="80.72 60.06 80.7 60.01 81.3 59.75 81.32 59.8 80.72 60.06"/>
              <polygon points="80.8 57.85 80.08 57.08 80.12 57.04 80.84 57.82 80.8 57.85"/>
              <polygon points="78.1 60.62 78.05 60.61 78.54 58.93 78.6 58.94 78.1 60.62"/>
              <polygon points="78.43 59.34 78.43 59.28 78.94 59.27 78.94 59.33 78.43 59.34"/>
              <polygon points="78.9 59.77 78.31 59.75 78.31 59.69 78.9 59.71 78.9 59.77"/>
              <polygon points="78.81 60.3 78.17 60.18 78.18 60.12 78.82 60.24 78.81 60.3"/>
            </g>
            <g>
              <g>
                <path d="M79.86,51.1a.76.76,0,0,0-.55,0c-.06.06,0,.23.07.23a1,1,0,0,0,.45,0c.07-.05.11-.22,0-.25Z" fill="#bca76b"/>
                <path d="M79.55,51.4h-.17s-.08,0-.1-.1,0-.13,0-.16a.76.76,0,0,1,.57,0,.07.07,0,0,1,0,.07.26.26,0,0,1-.08.2A.57.57,0,0,1,79.55,51.4Zm.09-.31a.53.53,0,0,0-.32.08.12.12,0,0,0,0,.12s0,.08.07.08h0a.91.91,0,0,0,.4,0,.21.21,0,0,0,.07-.17s0,0,0,0A.65.65,0,0,0,79.64,51.09Z" fill="#472b1f"/>
              </g>
              <g>
                <path d="M78,52.51c.22.88,1.15.73,1.11-.07" fill="#bca76b"/>
                <path d="M78.64,53.13c-.24,0-.51-.18-.62-.62h0c.11.45.41.62.65.58a.55.55,0,0,0,.42-.64h0a.6.6,0,0,1-.46.69Z" fill="#472b1f"/>
              </g>
              <g>
                <path d="M78.9,52.47c.28,1,1.49.84,1.44-.08" fill="#bca76b"/>
                <path d="M79.68,53.18a.87.87,0,0,1-.81-.71h.06a.79.79,0,0,0,.86.66.64.64,0,0,0,.52-.73h.06a.7.7,0,0,1-.57.79Z" fill="#472b1f"/>
              </g>
              <g>
                <path d="M79.93,52.45c.27.74.66.59,1.12-.08" fill="#bca76b"/>
                <path d="M80.37,53h0c-.18,0-.32-.18-.44-.5l0,0q.17.45.39.48c.19,0,.42-.17.69-.56l0,0C80.8,52.78,80.57,53,80.37,53Z" fill="#472b1f"/>
              </g>
              <g>
                <path d="M81.31,52.1l-3.41.19v.23l3.44-.17Z" fill="#bca76b"/>
                <path d="M77.88,52.55v-.28h0l3.43-.2,0,.3Zm0-.24v.19l3.39-.18,0-.2Z" fill="#472b1f"/>
              </g>
              <g>
                <path d="M78.17,55.52c.2,1,1.18.83,1.15-.05" fill="#bca76b"/>
                <path d="M78.79,56.22c-.26,0-.54-.21-.65-.69h0c.1.49.4.68.65.64s.47-.25.45-.69h0a.64.64,0,0,1-.49.74Z" fill="#472b1f"/>
              </g>
              <g>
                <path d="M79.06,55.49c.27,1.12,1.54.95,1.5-.06" fill="#bca76b"/>
                <path d="M79.87,56.29A.9.9,0,0,1,79,55.5h.06a.84.84,0,0,0,.87.74.71.71,0,0,0,.57-.8h.06a.77.77,0,0,1-.62.86Z" fill="#472b1f"/>
              </g>
              <g>
                <path d="M80.13,55.49c.27.82.67.67,1.16-.06" fill="#bca76b"/>
                <path d="M80.59,56.07h0c-.18,0-.33-.21-.45-.57l.05,0c.11.33.25.51.4.53s.44-.17.72-.6l0,0Q80.89,56.07,80.59,56.07Z" fill="#472b1f"/>
              </g>
              <g>
                <path d="M81.58,55.13,78,55.28v.26l3.59-.13Z" fill="#bca76b"/>
                <path d="M78,55.56v-.3h0l3.58-.15,0,.32h0Zm0-.25v.2l3.53-.13,0-.22Z" fill="#472b1f"/>
              </g>
              <g>
                <path d="M78.08,58.25c.22,1,1.22.83,1.18-.07" fill="#bca76b"/>
                <path d="M78.72,59c-.26,0-.56-.2-.67-.69h0c.12.5.42.68.68.65s.47-.27.45-.72h0a.67.67,0,0,1-.49.78Z" fill="#472b1f"/>
              </g>
              <g>
                <path d="M79,58.21c.25,1.47,1.6.94,1.54-.09" fill="#bca76b"/>
                <path d="M79.74,59.15c-.31,0-.66-.24-.78-.94H79c.12.71.48.92.79.89a.87.87,0,0,0,.68-1h.07a1,1,0,0,1-.75,1Z" fill="#472b1f"/>
              </g>
              <g>
                <path d="M80.09,58.19c.29.83.7.67,1.19-.09" fill="#bca76b"/>
                <path d="M80.56,58.77h0c-.19,0-.34-.21-.47-.57l0,0c.12.33.26.52.42.53s.44-.18.73-.62l0,0C81,58.55,80.78,58.77,80.56,58.77Z" fill="#472b1f"/>
              </g>
              <g>
                <path d="M81.57,57.79,77.92,58v.26l3.67-.2Z" fill="#bca76b"/>
                <path d="M77.91,58.3l0-.31h0l3.67-.23,0,.34h0ZM78,58v.2l3.63-.19,0-.23Z" fill="#472b1f"/>
              </g>
              <g>
                <g>
                  <path d="M80.34,53.86,79,53.9v.33h1.37Z" fill="#bca76b"/>
                  <path d="M79,54.25v-.37h0l1.36,0,0,.4Zm0-.34v.31h1.33v-.34Z" fill="#472b1f"/>
                </g>
                <g>
                  <path d="M80.35,56.72l-1.35,0v.33h1.36Z" fill="#bca76b"/>
                  <path d="M79,57.11v-.37h0l1.36,0,0,.4H79Zm0-.34v.31h1.33v-.34Z" fill="#472b1f"/>
                </g>
              </g>
            </g>
            <g>
              <rect x="77.44" y="58.18" width="0.06" height="2.6" transform="translate(-16.9 34.29) rotate(-22.57)"/>
              <path d="M71.47,61.49h0c.16-.63.34-1.54.47-2.45H72A21.73,21.73,0,0,1,71.47,61.49Z"/>
              <g>
                <path d="M83.11,60.49a16.62,16.62,0,0,0-1.71-.21,10.24,10.24,0,0,0-1.36,0,9.37,9.37,0,0,0-2,.29.58.58,0,0,0-.24.11c-.17.18-.19.47-.34.67a5.23,5.23,0,0,1-.9.64,27.47,27.47,0,0,1-4.9-.25l-.26-.29-.1-.1.28.1.65,0,1.58-.06s1.33,0,2,0c.37,0,.75,0,1.12-.09a.93.93,0,0,0,.24-.05c.11-.07.15-.22.23-.33s.12-.24.22-.3a2.08,2.08,0,0,1,1-.25c.37-.08.71-.09,1.09-.14a11.42,11.42,0,0,1,1.3-.12,6.07,6.07,0,0,1,.85,0,3,3,0,0,1,1.26.21c.07,0,.19.12.15.18s-.1,0-.15,0Z"/>
                <path d="M75.56,62.07a25.45,25.45,0,0,1-3.87-.27h0l-.25-.29-.11-.1,0,0,.29.1.64,0,1.58-.06s1.34,0,2,0c.43,0,.78,0,1.13-.09H77a.27.27,0,0,0,.16,0,.5.5,0,0,0,.15-.2s0-.09.07-.13a.61.61,0,0,0,.07-.1.56.56,0,0,1,.16-.21,1.44,1.44,0,0,1,.72-.22l.25,0,.64-.09.45,0a12.08,12.08,0,0,1,1.3-.12h.1a4.7,4.7,0,0,1,.75,0h.27a2.14,2.14,0,0,1,1,.2c.07,0,.15.09.16.15a0,0,0,0,1,0,.05s-.07,0-.11,0l0,0h0a15.23,15.23,0,0,0-1.67-.2,9.42,9.42,0,0,0-1.35.05l-.3,0a8.44,8.44,0,0,0-1.66.26.63.63,0,0,0-.23.12.81.81,0,0,0-.2.35,1.47,1.47,0,0,1-.15.31,3.37,3.37,0,0,1-.73.53l-.17.12h-1Zm-3.86-.3a26.6,26.6,0,0,0,4.88.25.94.94,0,0,0,.17-.11,3.2,3.2,0,0,0,.72-.53.94.94,0,0,0,.15-.3,1,1,0,0,1,.2-.36.53.53,0,0,1,.25-.12,7.26,7.26,0,0,1,1.67-.26l.29,0a9.84,9.84,0,0,1,1.37,0,13.35,13.35,0,0,1,1.67.2h0l.06,0s.07,0,.07,0,0,0,0,0a.37.37,0,0,0-.15-.13,2.15,2.15,0,0,0-1-.2h-.27a6.26,6.26,0,0,0-.75,0H81c-.42,0-.87,0-1.31.11l-.45.06c-.21,0-.42,0-.64.08l-.25,0a1.46,1.46,0,0,0-.7.21.5.5,0,0,0-.15.2.61.61,0,0,1-.07.1l-.07.12a.47.47,0,0,1-.16.21.37.37,0,0,1-.18.05H77c-.35,0-.7.07-1.12.09-.66,0-2,0-2,0l-1.58.06h-.65l-.21-.08,0,.05Z"/>
              </g>
              <g>
                <path d="M77.46,51.18a2.43,2.43,0,0,1-1-.37l0-.05a2.33,2.33,0,0,0,1,.36Z"/>
                <path d="M74.58,57.62v0A5,5,0,0,0,76,56.86l0,0A4.69,4.69,0,0,1,74.58,57.62Z"/>
                <rect x="76.88" y="59.01" width="0.06" height="2.23" transform="translate(-16.37 31.35) rotate(-20.87)"/>
                <rect x="77.1" y="58.31" width="0.06" height="2.55" transform="translate(-16.26 31.68) rotate(-21.05)"/>
                <polygon points="76.57 59.04 76.55 58.98 77.16 58.77 77.18 58.83 76.57 59.04"/>
              </g>
            </g>
            <g>
              <path d="M76.14,50.48,76,61.55l.66,0-.13-11Z" fill="#bca76b"/>
              <path d="M75.93,61.57v0l.19-11.09h.38v0l.12,11.05Zm.22-11.07-.18,11,.62,0-.12-11Z" fill="#472b1f"/>
            </g>
            <path d="M78.18,53.37A2.67,2.67,0,0,1,76.9,52.2l0,0a2.52,2.52,0,0,0,1.25,1.13Z"/>
            <g>
              <g>
                <path d="M74.78,51.5c.21,1,1.18.83,1.15-.06" fill="#bca76b"/>
                <path d="M75.4,52.19c-.25,0-.54-.2-.64-.68h0c.1.48.4.67.65.64s.46-.26.45-.7h0c0,.47-.25.72-.5.75Z" fill="#472b1f"/>
              </g>
              <g>
                <path d="M75.67,51.47c.28,1.11,1.54,1,1.5-.06" fill="#bca76b"/>
                <path d="M76.48,52.27a.9.9,0,0,1-.83-.79l0,0c.14.58.54.79.88.74a.7.7,0,0,0,.56-.79h.06a.74.74,0,0,1-.62.85Z" fill="#472b1f"/>
              </g>
              <g>
                <path d="M76.74,51.47c.27.82.77.89,1.17-.06" fill="#bca76b"/>
                <path d="M77.28,52.13h0c-.22,0-.41-.24-.55-.65l0,0c.13.39.3.61.5.61h0c.21,0,.42-.25.61-.68l0,0C77.74,51.88,77.51,52.13,77.28,52.13Z" fill="#472b1f"/>
              </g>
              <g>
                <path d="M78.19,51.11l-3.55.15v.25l3.58-.13Z" fill="#bca76b"/>
                <path d="M74.62,51.54v-.3h0l3.58-.16,0,.33h0Zm0-.26v.21l3.54-.13,0-.23Z" fill="#472b1f"/>
              </g>
              <g>
                <path d="M74.78,53.73c.21,1,1.18.83,1.15,0" fill="#bca76b"/>
                <path d="M75.4,54.43c-.25,0-.54-.21-.64-.69h0c.1.49.4.67.65.64s.46-.25.45-.69h0a.65.65,0,0,1-.5.74Z" fill="#472b1f"/>
              </g>
              <g>
                <path d="M75.67,53.7c.28,1.12,1.54.95,1.5-.06" fill="#bca76b"/>
                <path d="M76.48,54.5a.89.89,0,0,1-.83-.79h0a.84.84,0,0,0,.88.74.71.71,0,0,0,.56-.8h.06a.76.76,0,0,1-.62.86Z" fill="#472b1f"/>
              </g>
              <g>
                <path d="M76.74,53.7c.27.82,1.09.68,1.17-.06" fill="#bca76b"/>
                <path d="M77.35,54.28c-.22,0-.49-.15-.63-.57l0,0c.14.43.42.56.63.54a.6.6,0,0,0,.48-.59h.05a.65.65,0,0,1-.53.64Z" fill="#472b1f"/>
              </g>
              <g>
                <path d="M78.19,53.34l-3.55.15v.26l3.58-.13Z" fill="#bca76b"/>
                <path d="M74.62,53.77v-.3h0l3.58-.16,0,.33h0Zm0-.25v.2l3.54-.13,0-.22Z" fill="#472b1f"/>
              </g>
            </g>
            <path d="M74.82,55.6l0-.05a2.8,2.8,0,0,0,.8-.44l.23-.16,0,0-.23.16A2.86,2.86,0,0,1,74.82,55.6Z"/>
            <g>
              <g>
                <path d="M74.68,55.83c.2,1,1.18.82,1.15-.06" fill="#bca76b"/>
                <path d="M75.3,56.52c-.26,0-.55-.2-.65-.69h0c.1.49.4.68.65.65s.47-.26.45-.7h0c0,.47-.24.72-.49.75Z" fill="#472b1f"/>
              </g>
              <g>
                <path d="M75.57,55.8c.27,1.11,1.54,1,1.5-.06" fill="#bca76b"/>
                <path d="M76.38,56.6a.91.91,0,0,1-.84-.79l.06,0c.14.58.54.79.87.74a.69.69,0,0,0,.57-.79h.06a.76.76,0,0,1-.62.85Z" fill="#472b1f"/>
              </g>
              <g>
                <path d="M76.64,55.8c.27.81,1,.56,1.16-.07" fill="#bca76b"/>
                <path d="M77.18,56.34c-.25,0-.45-.2-.57-.54h0c.11.32.29.5.52.5h0a.71.71,0,0,0,.59-.56h0a.76.76,0,0,1-.64.6Z" fill="#472b1f"/>
              </g>
              <g>
                <path d="M78.09,55.44l-3.56.15v.25l3.59-.13Z" fill="#bca76b"/>
                <path d="M74.51,55.87v-.3h0l3.58-.15,0,.33h0Zm0-.26v.21l3.53-.13,0-.23Z" fill="#472b1f"/>
              </g>
            </g>
            <g>
              <path d="M74.33,61.49l-.06,0c.09-.3.19-.6.28-.89a9.75,9.75,0,0,0,.55-2.22h.05a9.82,9.82,0,0,1-.54,2.23C74.51,60.89,74.41,61.19,74.33,61.49Z"/>
              <path d="M74.85,61.44h0c0-.2.1-.39.16-.59a14.26,14.26,0,0,0,.53-2.47h.06A13.69,13.69,0,0,1,75,60.86Z"/>
              <path d="M75.34,61.44l0,0a21.37,21.37,0,0,0,.53-3.15h.06A20.5,20.5,0,0,1,75.34,61.44Z"/>
            </g>
            <g>
              <g>
                <path d="M74.72,57.83c.21,1,1.18.83,1.15,0" fill="#bca76b"/>
                <path d="M75.34,58.53c-.25,0-.54-.21-.64-.69h0c.1.49.4.67.65.64s.46-.25.45-.69h.05c0,.47-.25.71-.5.74Z" fill="#472b1f"/>
              </g>
              <g>
                <path d="M75.61,57.8c.28,1.12,1.54,1,1.5-.06" fill="#bca76b"/>
                <path d="M76.42,58.6a.89.89,0,0,1-.83-.79h0a.84.84,0,0,0,.87.74.71.71,0,0,0,.57-.8h.06a.76.76,0,0,1-.62.86Z" fill="#472b1f"/>
              </g>
              <g>
                <path d="M76.68,57.8c.27.82,1,.66,1.17-.06" fill="#bca76b"/>
                <path d="M77.25,58.37c-.25,0-.47-.2-.59-.56l0,0c.11.35.32.54.55.53a.68.68,0,0,0,.56-.59l.05,0a.72.72,0,0,1-.61.62Z" fill="#472b1f"/>
              </g>
              <g>
                <path d="M78.13,57.44l-3.55.15v.26l3.58-.13Z" fill="#bca76b"/>
                <path d="M74.55,57.87v-.3h0l3.58-.15,0,.32h0Zm0-.25v.2l3.54-.13,0-.22Z" fill="#472b1f"/>
              </g>
              <g>
                <path d="M77,52.61l-1.27,0V53H77Z" fill="#bca76b"/>
                <path d="M75.71,53v-.36h0l1.3,0h0V53Zm0-.33V53H77v-.34Z" fill="#472b1f"/>
              </g>
              <g>
                <path d="M77,54.77l-1.14,0v.31H77Z" fill="#bca76b"/>
                <path d="M75.8,55.14V54.8h0l1.15,0v.37H75.8Zm0-.32v.29H77v-.33Z" fill="#472b1f"/>
              </g>
              <g>
                <path d="M77,56.87l-1.23,0v.34H77Z" fill="#bca76b"/>
                <path d="M75.78,57.26V56.9l1.26,0,0,.4H75.78Zm0-.34v.31H77v-.34Z" fill="#472b1f"/>
              </g>
            </g>
            <g>
              <rect x="75.4" y="58.49" width="0.06" height="0.68" transform="translate(2.49 120.72) rotate(-78.27)"/>
              <polygon points="75.71 59.43 74.94 59.41 74.94 59.35 75.71 59.37 75.71 59.43"/>
              <polygon points="75.61 60.08 74.82 59.85 74.83 59.8 75.62 60.02 75.61 60.08"/>
              <rect x="74.61" y="60.48" width="0.93" height="0.06" transform="translate(-2.75 3.58) rotate(-2.68)"/>
              <rect x="74.44" y="61.06" width="0.98" height="0.06" transform="translate(-1.64 2.07) rotate(-1.57)"/>
              <path d="M75.17,61.47c-.1-.25-.21-.5-.34-.77a4.65,4.65,0,0,1-.64-2.36h0a4.71,4.71,0,0,0,.64,2.34,8.28,8.28,0,0,1,.34.77Z"/>
              <rect x="77.2" y="60.75" width="0.66" height="0.06" transform="translate(-14.13 24.67) rotate(-16.59)"/>
              <polygon points="77.07 60.56 77.05 60.51 77.76 60.21 77.79 60.26 77.07 60.56"/>
              <polygon points="76.84 60.03 76.83 59.97 77.56 59.76 77.58 59.81 76.84 60.03"/>
              <polygon points="76.68 59.53 76.67 59.47 77.39 59.28 77.4 59.34 76.68 59.53"/>
            </g>
            <path d="M72.82,63.44c-.08,0-.16,0-.25,0l-.24-.09a1.7,1.7,0,0,1-.22-.15,1.35,1.35,0,0,1-.19-.16,7.16,7.16,0,0,1-.45-.45,1.47,1.47,0,0,1-.21-.22c-.06-.06-.06-.17-.11-.24s-.22,0-.23-.15,0-.15-.13-.14,0,.05,0,0,0,.08,0,0l0,.13c0,.08,0,.17.06.18s.11.12.2.16a2.23,2.23,0,0,0,.22.21,1,1,0,0,1,.17.23c0,.07.13.11.18.17a1.3,1.3,0,0,0,.15.2.87.87,0,0,0,.21.17l.2.11a1,1,0,0,0,.23.11,1.35,1.35,0,0,0,.29.05.36.36,0,0,0,.27-.06c.08,0,0,0,0-.06Z"/>
            <path d="M78,60.92a3,3,0,0,1-.53.9,5.23,5.23,0,0,0,2.06-.18,2.71,2.71,0,0,1-.05-1C79,60.74,78.56,60.87,78,60.92Z"/>
            <path d="M78.08,61a2.1,2.1,0,0,1-.37.71,4.17,4.17,0,0,0,1.7-.16,1.29,1.29,0,0,1,0-.73c-.45,0-.86.13-1.3.18Z" fill="#333"/>
            <path d="M71.49,62.1l2.21.17A38.47,38.47,0,0,0,79.28,62c.08,0,.19,0,.22,0s-.09.19-.18.21a44.31,44.31,0,0,1-6.1.14L72,62.31Z"/>
            <path d="M70.53,58.3l0,0a7.28,7.28,0,0,0,1.74-1.1l0,0,0,.05,0,0A7.15,7.15,0,0,1,70.53,58.3Z"/>
            <path d="M70.81,56.15l0,0A6,6,0,0,0,72,55.33l.39-.3,0,0-.4.3A5.55,5.55,0,0,1,70.81,56.15Z"/>
            <g>
              <path d="M72.2,51.25l0,10.35.57,0-.33-10.37Z" fill="#bca76b"/>
              <path d="M72.17,61.61h0V51.23l.26-.06v0l.33,10.38Zm0-10.35V61.58l.54,0-.33-10.33Z" fill="#472b1f"/>
            </g>
            <path d="M73.62,52.32l-.22-.18a8.89,8.89,0,0,1-1-.93l0,0a9.94,9.94,0,0,0,1,.93l.22.18Z"/>
            <g>
              <path d="M72.57,50.89A.53.53,0,0,0,72,51c-.07.08,0,.34.07.34s.37,0,.44,0S72.65,50.93,72.57,50.89Z" fill="#bca76b"/>
              <path d="M72.26,51.33H72.1s-.07,0-.09-.08A.33.33,0,0,1,72,51a.57.57,0,0,1,.57-.08h0a.16.16,0,0,1,0,.08.45.45,0,0,1-.08.31C72.5,51.32,72.38,51.33,72.26,51.33Zm.09-.46A.41.41,0,0,0,72,51s0,.17,0,.25,0,.05,0,.05h0c.15,0,.34,0,.39-.05a.41.41,0,0,0,.07-.27s0,0,0-.05A.56.56,0,0,0,72.35,50.87Z" fill="#472b1f"/>
            </g>
            <g>
              <path d="M72.24,62.93c0-.08.09-.11.17-.12s.2,0,.26,0a.89.89,0,0,1,.17.08A.53.53,0,0,0,73,63c.19.07.09-.15.19-.16s.19,0,.26,0a.31.31,0,0,1,.14.11.32.32,0,0,1,.1.1c0,.06.22.16.22,0s0-.24.17-.22a3,3,0,0,1,.42,0,.5.5,0,0,1,.2.11s0,.09.1.09.11-.09.15-.15.14,0,.19-.08a.7.7,0,0,1,.3,0l.2.11a.42.42,0,0,1,.13.16c0,.07.07.12.13.07s.09-.08.15-.12a.26.26,0,0,0,.14-.09s.07-.09.11-.12a.78.78,0,0,1,.29,0,.79.79,0,0,1,.26.09A.27.27,0,0,0,77,63c0,.07.11,0,.17,0l.16-.09a.29.29,0,0,1,.21-.08c.12,0,.18,0,.27.06s.18,0,.23.09.15.08.21,0,0-.15,0-.19a.58.58,0,0,1,.43,0,.56.56,0,0,1,.27,0c.07,0,.08.07.1.14s.2,0,.26,0,0-.08,0-.11a.48.48,0,0,1-.09-.11c.09-.05.13,0,.2,0s.1,0,.14.1a.53.53,0,0,0,.23,0c.1,0,.06.17-.06.14a1.05,1.05,0,0,1-.31,0h-.48c-.08,0-.21,0-.3,0a2.71,2.71,0,0,1-.29,0,1.79,1.79,0,0,1-.33,0l-.3,0a2.35,2.35,0,0,1-.27,0c-.14,0-.32,0-.47,0a2.65,2.65,0,0,1-.27,0l-.29,0c-.1,0-.18,0-.3,0s-.35,0-.52,0a2.46,2.46,0,0,0-.28,0,1,1,0,0,0-.25,0c-.08,0-.2,0-.27,0s-.25,0-.39,0H73.6c-.06,0-.18,0-.26,0h-.43a1.21,1.21,0,0,1-.34,0c-.15,0-.34-.07-.33-.2Z"/>
              <path d="M75.86,63.3h-.69a.75.75,0,0,0-.15,0h-.14a.22.22,0,0,1-.14,0H73.59a.32.32,0,0,0-.14,0h-.68a.78.78,0,0,1-.21,0c-.11,0-.37-.07-.36-.24h0a.19.19,0,0,1,.19-.16h.09a.44.44,0,0,1,.2,0l.11.05.06,0h0A.34.34,0,0,0,73,63h.08a.43.43,0,0,0,0-.05s0-.11.1-.12h.11a.25.25,0,0,1,.17,0,.19.19,0,0,1,.13.1h0l0,0,.09.09a.16.16,0,0,0,.13.07s0,0,0,0v0s0,0,0-.07,0-.19.18-.17a1.32,1.32,0,0,1,.29,0l.13,0h0l0,0a.35.35,0,0,1,.16.1.17.17,0,0,1,.06.06v0h0l0,0a.49.49,0,0,0,0-.07.14.14,0,0,1,0-.09.17.17,0,0,1,.13-.07l.06,0h0a.84.84,0,0,1,.3,0h0l.12.06.08,0h0a.41.41,0,0,1,.14.17v0a.09.09,0,0,0,0,0h0a.14.14,0,0,1,.11-.09l0,0h0a.23.23,0,0,0,.12-.08h0s0,0,0,0l.05-.06a.41.41,0,0,1,.23,0h.1l.07,0a.4.4,0,0,1,.2.08l0,0A.14.14,0,0,0,77,63h0v0h0s0,0,.07,0h0a.45.45,0,0,1,.16-.09.29.29,0,0,1,.23-.09.36.36,0,0,1,.19,0l.08,0h0l.1,0a.3.3,0,0,1,.15.07s.11.06.15,0h0v-.06s0-.09,0-.11a.59.59,0,0,1,.47,0h.06a.51.51,0,0,1,.22,0c.07,0,.09.08.11.13v0l0,0a.24.24,0,0,0,.15,0l0,0a.33.33,0,0,1-.11-.13v0l0,0a.14.14,0,0,1,.17,0l.05,0h0l0,0a.24.24,0,0,1,.08.06h0a.32.32,0,0,0,.18,0h0a.1.1,0,0,1,.08.14.11.11,0,0,1-.14.08.44.44,0,0,1-.2,0H78.9a.86.86,0,0,1-.17,0l-.13,0h-.13a1,1,0,0,1-.17,0H78l-.2,0H77.4a1.48,1.48,0,0,1-.3,0h-.17l-.16,0h-.1l-.15,0h-.66Zm.2-.2-.06,0s-.06,0-.07.06v0h.59l.15,0h.1l.16,0h.84l.2,0h.62l.15,0a.66.66,0,0,0,.15,0h.21A.1.1,0,0,1,79,63l0,0c0-.06,0-.08-.06-.09h0a.42.42,0,0,0-.17,0h-.1a.52.52,0,0,0-.37,0s0,0,0,.05a.18.18,0,0,1,0,.13s0,0,0,0-.12.06-.24,0a.25.25,0,0,0-.13,0l-.09,0a.17.17,0,0,1-.1,0,.36.36,0,0,0-.15,0,.22.22,0,0,0-.19.07h0l-.16.08,0,0a.17.17,0,0,1-.14,0l0,0a.26.26,0,0,1-.09-.09l0,0a.38.38,0,0,0-.17-.06l-.07,0h-.08a.45.45,0,0,0-.18,0l0,0a.18.18,0,0,1-.08.07A.28.28,0,0,1,76.06,63.1Zm-.43.12h.15a.17.17,0,0,1-.06-.1.49.49,0,0,0-.11-.14l-.08,0-.11-.06a.71.71,0,0,0-.26,0h0l-.1,0S75,63,75,63a.12.12,0,0,0,0,.07s0,.09-.06.11h.73Zm-.88-.06h0s-.06,0-.07-.06l0,0h0a.34.34,0,0,0-.14-.08l0,0-.14,0a1.18,1.18,0,0,0-.27,0c-.07,0-.08,0-.1.11l0,.08a.06.06,0,0,1,0,0h.62a1.2,1.2,0,0,0,.19,0Zm-1.14,0h.09a.13.13,0,0,1-.06-.07L73.58,63l0,0,0,0s0-.07-.1-.08h-.25a.12.12,0,0,0,0,.05s0,.09-.06.11-.07,0-.12,0h0a.28.28,0,0,1-.14-.1l-.06,0-.1,0h0a.27.27,0,0,0-.16,0h-.08c-.08,0-.11,0-.12.09s.22.14.29.15h0a.55.55,0,0,0,.19,0l.13,0h.53A.47.47,0,0,1,73.61,63.15ZM79.42,63h.08a.31.31,0,0,0,.17,0h0a0,0,0,0,0,.06,0,0,0,0,0,0,0,0,.4.4,0,0,1-.21,0l0,0-.07,0-.06,0-.07,0,0,0a.12.12,0,0,0,.05,0h0c0,.05.08.1.07.14l0,0-.07,0h.18Z"/>
            </g>
            <g>
              <g>
                <path d="M71,52.52c.19.67,1,.57,1,0" fill="#bca76b"/>
                <path d="M71.54,53a.59.59,0,0,1-.56-.48h0a.55.55,0,0,0,.6.45.43.43,0,0,0,.37-.48h0a.48.48,0,0,1-.4.52Z" fill="#472b1f"/>
              </g>
              <g>
                <path d="M71.78,52.5c.23.77,1.34.66,1.31,0" fill="#bca76b"/>
                <path d="M72.49,53.05a.76.76,0,0,1-.74-.54l0,0a.71.71,0,0,0,.81.51.51.51,0,0,0,.45-.54h0a.55.55,0,0,1-.49.58Z" fill="#472b1f"/>
              </g>
              <g>
                <path d="M72.71,52.5c.24.56.67.61,1,0" fill="#bca76b"/>
                <path d="M73.18,53h0c-.18,0-.35-.17-.47-.45l0,0c.11.27.27.42.44.43s.38-.16.54-.48l0,0C73.58,52.78,73.38,53,73.18,53Z" fill="#472b1f"/>
              </g>
              <g>
                <path d="M74,52.25l-3.11.1v.18L74,52.44Z" fill="#bca76b"/>
                <path d="M70.85,52.55v-.21h0l3.12-.1,0,.23Zm0-.18v.14L74,52.42l0-.15Z" fill="#472b1f"/>
              </g>
            </g>
            <path d="M70.86,54.31h0v0a2,2,0,0,0,1-.52l0,.05A2.27,2.27,0,0,1,70.86,54.31Z"/>
            <path d="M68.94,60.34l0,0c.84-2.22,1.71-4.93,2.37-7.44l0,0A77.3,77.3,0,0,1,68.94,60.34Z"/>
            <g>
              <g>
                <path d="M71,54.45c.18.72,1.06.62,1,0" fill="#bca76b"/>
                <path d="M71.52,55a.61.61,0,0,1-.58-.51h0a.55.55,0,0,0,.61.47.45.45,0,0,0,.38-.51h0a.49.49,0,0,1-.42.55Z" fill="#472b1f"/>
              </g>
              <g>
                <path d="M71.7,54.44c.25,1,1.38.82,1.35-.06" fill="#bca76b"/>
                <path d="M72.43,55.13a.8.8,0,0,1-.75-.68l0,0a.74.74,0,0,0,.79.64.61.61,0,0,0,.5-.68h0a.67.67,0,0,1-.55.75Z" fill="#472b1f"/>
              </g>
              <g>
                <path d="M72.72,54.43c.27.61.77.66,1.17,0" fill="#bca76b"/>
                <path d="M73.26,54.92h0c-.21,0-.4-.18-.54-.48l0,0c.13.29.31.45.5.46s.44-.17.63-.51l0,0C73.71,54.73,73.48,54.92,73.26,54.92Z" fill="#472b1f"/>
              </g>
              <g>
                <path d="M74,54.09l-3.19.14v.23l3.22-.12Z" fill="#bca76b"/>
                <path d="M70.81,54.48v-.27L74,54.06l0,.3Zm0-.23v.19L74,54.32l0-.21Z" fill="#472b1f"/>
              </g>
              <g>
                <path d="M70.79,56.3c.2.88,1.15.75,1.12,0" fill="#bca76b"/>
                <path d="M71.4,56.93c-.25,0-.53-.19-.63-.63h0c.11.45.4.62.65.59a.56.56,0,0,0,.43-.63h0a.59.59,0,0,1-.48.67Z" fill="#472b1f"/>
              </g>
              <g>
                <path d="M71.66,56.29c.29,1.3,1.6,1.11,1.56-.07" fill="#bca76b"/>
                <path d="M72.51,57.22c-.35,0-.74-.28-.88-.93h.07c.14.66.54.91.88.87s.63-.35.61-.93h.07c0,.63-.33,1-.67,1Z" fill="#472b1f"/>
              </g>
              <g>
                <path d="M72.7,56.27c.27.74.75.81,1.14-.06" fill="#bca76b"/>
                <path d="M73.22,56.87h0c-.21,0-.4-.22-.53-.59l0,0c.12.35.29.55.48.56s.42-.21.61-.62l0,0C73.62,56.75,73.39,56.87,73.22,56.87Z" fill="#472b1f"/>
              </g>
              <g>
                <path d="M74.11,55.94l-3.63.14v.23l3.67-.12Z" fill="#bca76b"/>
                <path d="M70.46,56.34v-.28l3.68-.14,0,.29h0Zm0-.24v.19l3.61-.12,0-.2Z" fill="#472b1f"/>
              </g>
              <g>
                <path d="M70.73,58.45c.21,1,1.24.81,1.21-.05" fill="#bca76b"/>
                <path d="M71.38,59.13c-.27,0-.57-.2-.68-.67h0c.11.48.43.66.7.63a.6.6,0,0,0,.47-.68h0a.66.66,0,0,1-.52.74Z" fill="#472b1f"/>
              </g>
            </g>
            <path d="M74.14,61.47A23,23,0,0,1,73.39,59h0a25.16,25.16,0,0,0,.75,2.51Z"/>
            <path d="M73.72,61.46a15.77,15.77,0,0,1-.61-2.54h.06a16.3,16.3,0,0,0,.61,2.54Z"/>
            <g>
              <g>
                <path d="M71.67,58.42c.26,1.27,1.59,1.16,1.58-.06" fill="#bca76b"/>
                <path d="M72.53,59.36c-.35,0-.76-.28-.89-.93h.06c.13.65.54.91.89.87s.63-.33.63-.93h.06c0,.63-.34,1-.68,1Z" fill="#472b1f"/>
              </g>
              <g>
                <path d="M72.8,58.42c.28.8.8.88,1.23-.06" fill="#bca76b"/>
                <path d="M73.36,59.07h0c-.23,0-.44-.24-.58-.64l0,0c.14.38.32.6.53.61h0c.22,0,.45-.24.64-.67l0,0C73.79,58.94,73.54,59.07,73.36,59.07Z" fill="#472b1f"/>
              </g>
              <g>
                <path d="M74.32,58l-4,.17v.27l4.08-.14Z" fill="#bca76b"/>
                <path d="M70.25,58.49v-.33l4.1-.17,0,.36h0Zm0-.28v.22l4-.14,0-.24Z" fill="#472b1f"/>
              </g>
              <g>
                <path d="M73,53.46l-1.16,0v.26H73Z" fill="#bca76b"/>
                <path d="M71.83,53.77v-.29h0l1.17,0,0,.31h-1.2Zm0-.26v.23H73v-.26Z" fill="#472b1f"/>
              </g>
              <g>
                <path d="M73,55.35l-1.16,0v.26H73Z" fill="#bca76b"/>
                <path d="M71.83,55.65v-.28h0l1.17,0,0,.32h-1.2Zm0-.26v.24H73v-.26Z" fill="#472b1f"/>
              </g>
              <g>
                <path d="M73.07,57.4l-1.23,0v.26h1.25Z" fill="#bca76b"/>
                <path d="M71.83,57.7v-.28h0l1.25,0v.31H71.83Zm0-.26v.23h1.23l0-.26Z" fill="#472b1f"/>
              </g>
            </g>
            <g>
              <g>
                <rect x="72.86" y="59.25" width="0.68" height="0.06" transform="translate(-10.5 16.08) rotate(-11.7)"/>
                <rect x="72.97" y="59.76" width="0.68" height="0.06" transform="translate(-10.6 16.11) rotate(-11.7)"/>
                <polygon points="73.78 60.3 73.11 60.26 73.11 60.2 73.78 60.24 73.78 60.3"/>
                <rect x="73.28" y="60.82" width="0.7" height="0.06" transform="translate(-8.22 11.61) rotate(-8.54)"/>
                <polygon points="71.57 60.85 70.87 60.72 70.88 60.66 71.58 60.8 71.57 60.85"/>
                <rect x="71.36" y="59.87" width="0.06" height="0.64" transform="translate(-2.69 117.03) rotate(-77.64)"/>
                <polygon points="71.81 59.86 71.23 59.71 71.25 59.65 71.83 59.8 71.81 59.86"/>
                <polygon points="71.86 59.42 71.34 59.31 71.35 59.26 71.88 59.36 71.86 59.42"/>
              </g>
              <g>
                <path d="M83.1,61.84a8.1,8.1,0,0,0-3-.2l-.46,0v-.11l.46,0a8.15,8.15,0,0,1,3,.21Z"/>
                <path d="M82.92,62.15a7,7,0,0,0-3.2-.1l0-.11A7,7,0,0,1,83,62Z"/>
                <path d="M79.84,62.82l0-.11a6.12,6.12,0,0,1,2.56,0l0,.11A6.09,6.09,0,0,0,79.84,62.82Z"/>
                <path d="M81.25,63.16A6.21,6.21,0,0,1,79.9,63l0-.12a5.37,5.37,0,0,0,2.39,0l0,.11A4.18,4.18,0,0,1,81.25,63.16Z"/>
              </g>
            </g>
            <path d="M68.61,60.25l2.51,1.51,0-.06-.79-.55A8,8,0,0,0,68.61,60.25Z"/>
            <g>
              <g>
                <rect x="80.61" y="60.65" width="0.06" height="0.84" transform="translate(-1.41 1.91) rotate(-1.35)"/>
                <rect x="80.88" y="60.66" width="0.06" height="0.86"/>
                <rect x="81.35" y="60.63" width="0.06" height="0.9"/>
                <rect x="81.87" y="60.7" width="0.06" height="0.86"/>
                <rect x="82.19" y="60.7" width="0.06" height="0.88" transform="translate(-0.68 0.93) rotate(-0.64)"/>
                <rect x="82.6" y="60.79" width="0.06" height="0.81"/>
                <rect x="82.38" y="61.2" width="0.91" height="0.06" transform="translate(20.64 143.35) rotate(-89.33)"/>
                <rect x="80.36" y="62.21" width="0.79" height="0.06" transform="translate(17.57 142.26) rotate(-89.33)"/>
                <rect x="80.46" y="61.89" width="0.06" height="0.75"/>
                <rect x="80.79" y="62.21" width="0.75" height="0.06" transform="translate(15.8 140.92) rotate(-87.76)"/>
                <polygon points="81.45 62.61 81.4 62.6 81.41 61.86 81.46 61.86 81.45 62.61"/>
                <rect x="81.43" y="62.18" width="0.73" height="0.06" transform="translate(14.28 139.69) rotate(-86.19)"/>
                <polygon points="82.07 62.62 82.02 62.61 82.16 61.94 82.21 61.95 82.07 62.62"/>
              </g>
              <path d="M83.09,60.9l-.49,0a13.12,13.12,0,0,0-2.94-.09v-.12a13.3,13.3,0,0,1,3,.1l.49,0Z"/>
            </g>
          </g>
          <path d="M86,50.52H62.78V50.4c0-1.27,0-2.53,0-3.74,0-1.63.08-3.17,0-4.6V42l.07,0C67.23,40,72.8,39.9,74.41,39.9S81.58,40,85.88,42L86,42v.07c0,1.43,0,3,0,4.59,0,1.22,0,2.48,0,3.75Zm-23-.23H85.8c0-1.24,0-2.46-.06-3.64,0-1.59-.07-3.1,0-4.52-4.25-1.86-9.72-2-11.3-2s-7.06.14-11.31,2c0,1.42,0,2.93,0,4.53C63,47.84,63,49.06,63,50.29Z"/>
          <g>
            <g>
              <path d="M73.71,45.6a5.35,5.35,0,0,1,.53.95,1.4,1.4,0,0,1,.06.5,3.6,3.6,0,0,1-.24.91c-.06.21-.21.36-.13.56s.08.19.18.17.1-.09.15-.13a.52.52,0,0,1,.11-.08c.06,0,.14,0,.19,0a.14.14,0,0,0,0-.16s-.1,0-.14,0-.15.05-.21,0-.1-.19-.1-.19l.19-.51a2.44,2.44,0,0,0,.18-.41.75.75,0,0,0,0-.15c0-.07,0-.16,0-.22s.13,0,.14,0-.24-.29-.31-.46,0-.14,0-.21a2,2,0,0,0-.22-.4Z" fill="#69737c"/>
              <path d="M74.09,48.78c-.15,0-.2-.14-.24-.23a.56.56,0,0,1,.06-.46.77.77,0,0,0,.07-.16l.06-.16a3,3,0,0,0,.18-.72,1.27,1.27,0,0,0-.06-.48,5.41,5.41,0,0,0-.52-.92l-.14-.21.67.22v0a2.59,2.59,0,0,1,.24.41s0,.09,0,.13a.19.19,0,0,0,0,.08.48.48,0,0,0,.14.15c.11.1.24.21.18.37a.17.17,0,0,1-.16.08h0a.11.11,0,0,0,0,.08v.08s0,0,0,0a.34.34,0,0,1,0,.1.92.92,0,0,1-.11.29.84.84,0,0,0-.06.14c-.06.14-.16.4-.19.48l0,.12.07,0h.12a.18.18,0,0,1,.19,0,.23.23,0,0,1,0,.28.23.23,0,0,1-.17,0h0l-.06,0,0,0s0,0,0,0a.23.23,0,0,1-.14.11Zm0-.61c-.07.14-.1.22-.06.32s.06.12.09.12l0,0,.06-.06,0,0a.26.26,0,0,1,.11-.07.3.3,0,0,1-.13,0A.36.36,0,0,1,74.07,48.17Zm.36.22h.07v0h-.08Zm-.51-2.63a3.7,3.7,0,0,1,.4.76,1.39,1.39,0,0,1,.07.54,2.25,2.25,0,0,1-.06.36.78.78,0,0,0,.09-.24.06.06,0,0,0,0-.06V47a.31.31,0,0,1,.06-.22.15.15,0,0,1,.12,0,.44.44,0,0,0-.12-.13.59.59,0,0,1-.19-.23.35.35,0,0,1,0-.13.19.19,0,0,0,0-.08,2,2,0,0,0-.19-.35Z"/>
            </g>
            <g>
              <path d="M75,46.08a2.3,2.3,0,0,1,.41.73c0,.06,0,.12,0,.18s0,.19,0,.29a4.45,4.45,0,0,1-.26.91c-.06.25-.17.77-.17.77l.24,0,0-.39.18-.67a3.59,3.59,0,0,1,.12-.47,2.59,2.59,0,0,0,.14-.29.64.64,0,0,0,0-.41c0-.05-.09-.05-.12-.09a1,1,0,0,1-.19-.29,3,3,0,0,1-.12-.33l-.29.08Z" fill="#66452b"/>
              <path d="M74.89,49.06l0-.11s.11-.53.17-.78a3.58,3.58,0,0,1,.11-.35,1.8,1.8,0,0,0,.14-.54.5.5,0,0,0,0-.12.86.86,0,0,1,0-.17.35.35,0,0,1,0-.11.13.13,0,0,0,0-.06,2.28,2.28,0,0,0-.38-.69L74.85,46,75,46l.28-.07.09,0,0,.09a2,2,0,0,0,.11.31,1.05,1.05,0,0,0,.17.27l0,0a.19.19,0,0,1,.11.09.69.69,0,0,1,0,.47,1.08,1.08,0,0,1-.08.19.6.6,0,0,0-.06.11,2.06,2.06,0,0,0-.07.29.85.85,0,0,0,0,.17c-.06.21-.17.61-.18.67l0,.45Zm.49-1.23,0,.05c0,.11-.08.22-.11.33s-.11.49-.15.66h.05l0-.33.18-.67Zm-.23-1.7a1.87,1.87,0,0,1,.35.67.49.49,0,0,1,0,.14.14.14,0,0,0,0,.06.26.26,0,0,0,0,.11.84.84,0,0,1,0,.18.43.43,0,0,0,0,.05l.06-.1a.42.42,0,0,0,.06-.14.57.57,0,0,0,0-.36h0a.14.14,0,0,1-.08,0,1.06,1.06,0,0,1-.21-.31l-.1-.26Z"/>
            </g>
            <path d="M73.27,45.24l.26.21.46.28h.2l.24.08h.3l.21.23.06,0,.25,0,.09-.09.46-.71-.11-1.16-2.2.14Z" fill="#fff"/>
            <path d="M75.65,43.28a5.11,5.11,0,0,1,.81.8c.18.22.29.5.56.64.37.39,2,.85,2,1-.37-.14-.53.35-.88.27-.33.1-.6-.12-.89-.24A2.33,2.33,0,0,0,76,46c-.21.11-.46-.06-.62,0l0,0,0,0m-2-.76a8.33,8.33,0,0,1-.67-.5,1.45,1.45,0,0,1-.41-.85,2.32,2.32,0,0,1,0-1.17c-.12-.26-.29-.33-.42-.59s-.46-.56-.24-.83a2.33,2.33,0,0,1,.72-.57,1.32,1.32,0,0,1,.76.05c.32,0,.49.31.66.55a2.58,2.58,0,0,1,.4,1.05c.15.3.54.37.83.5a3.25,3.25,0,0,1,.7.4" fill="#fff"/>
            <path d="M77.38,45.34c-.12,0-.42.11-.34-.08a3.22,3.22,0,0,1-.93-.06,5.18,5.18,0,0,0-1-.33c-.32,0-.7.06-.94-.2s-.63,0-.86-.26a1,1,0,0,1-.37-.79c0-.3-.16-.71.18-.89s.43,0,.57-.23a1.18,1.18,0,0,1,.79.19c.28.14.6.23.88.39s.49.4.74.6a3.08,3.08,0,0,1,.55.71,1.79,1.79,0,0,0,.73.63c.16,0,.54.22.18.27Z"/>
            <path d="M74.26,44.34a.86.86,0,0,1-.44-.15c-.1-.06-.35-.2-.19-.32s.29.05.41,0a2,2,0,0,0,.54-.13c.15-.08.34,0,.5-.08s.1-.31.29-.26.12.28,0,.17c-.1.13.16.18.23.26s-.16.19-.19.31c-.2.06-.34-.19-.53-.12,0,.07,0,.2-.14.17s-.3,0-.46,0c0,0-.06.17,0,.16Z" fill="#69737c"/>
            <path d="M77.63,45.51c-.09,0-.2,0-.31,0a.49.49,0,0,1-.2,0c-.1,0-.29-.11-.32,0s.18.09,0,.11a.88.88,0,0,1-.39-.08s-.16-.11-.13,0-.07.15-.15.15a.54.54,0,0,1-.35-.13c-.07.08.09.19.18.19s-.14,0-.19,0a.39.39,0,0,0-.24,0c-.1,0-.11.13,0,.12A.48.48,0,0,0,76,46a1.26,1.26,0,0,1,.42-.16l.35,0a3.85,3.85,0,0,1,.48,0,.34.34,0,0,0,.35,0c.07,0,.27-.1.13-.15s0,0-.06,0Z" fill="#69737c"/>
            <path d="M77.21,45.72a.29.29,0,0,0,.18,0,1.06,1.06,0,0,1,.19-.06c.08,0,.11-.11,0-.13l-.15-.07s-.12-.06-.16-.1a1.71,1.71,0,0,1,.11-.14.52.52,0,0,1,.18,0,.34.34,0,0,1,.14,0,1.63,1.63,0,0,1,.19.09l.2.08.17.06a.68.68,0,0,0,.2.07c.07,0,.09.09.17.08a.39.39,0,0,1,.21.08s.12.06.12.1-.12-.05-.18,0-.09.06-.15,0-.12.07-.17.13a.74.74,0,0,1-.21.13.22.22,0,0,1-.18,0,1.62,1.62,0,0,0-.22,0,.38.38,0,0,1-.21,0,.86.86,0,0,1-.16-.1l-.25-.08-.06,0Z"/>
            <path d="M72.48,40.68a.42.42,0,0,0-.19,0,.48.48,0,0,0-.27.17,1.31,1.31,0,0,1-.31.27.47.47,0,0,0-.13.15.14.14,0,0,0,.21,0,.6.6,0,0,1,.27-.2,1.24,1.24,0,0,1,.27,0,1,1,0,0,0,.24.09l.18,0,.26.07a.76.76,0,0,0,.3,0h.07a.16.16,0,0,0,0,.08.44.44,0,0,0,.06.16.86.86,0,0,0,.1.16l.07.18a1,1,0,0,1,.07.15.36.36,0,0,0,.08.15,1.67,1.67,0,0,1,.12.16,1.19,1.19,0,0,1,.09.15.24.24,0,0,0,.15.09.57.57,0,0,0,.18,0h0a.32.32,0,0,1-.12-.14l0-.18a.47.47,0,0,0,0-.17.88.88,0,0,1,0-.15.94.94,0,0,1-.06-.15.77.77,0,0,0-.07-.16l-.09-.16a1.29,1.29,0,0,0-.09-.16.18.18,0,0,0-.07-.05.09.09,0,0,0,0-.09.79.79,0,0,1-.14-.17.92.92,0,0,0-.27-.16,1.58,1.58,0,0,0-.36-.09.9.9,0,0,0-.28,0Z"/>
            <path d="M73.59,42.25c0-.08-.12,0-.15,0s-.09.13-.16.18-.24.08-.34.16a.73.73,0,0,1-.18.17.45.45,0,0,0-.21.18c0,.06-.06.14,0,.19s0,.11,0,.16a.14.14,0,0,0,.19,0,.5.5,0,0,0,.21-.17.85.85,0,0,1,.27-.23.3.3,0,0,0,.17-.12s0-.12.09-.13a.43.43,0,0,0,.15-.15c0-.07,0-.13,0-.2s0-.06,0-.08Z" fill="#69737c"/>
            <g>
              <path d="M74.81,49h-.43c-.07,0-.12-.14-.21-.1l-.23.11a.46.46,0,0,0-.18.16c0,.05-.14.1,0,.1s.15-.09.25-.11a.59.59,0,0,1,.23,0h.42c.11,0,0,.07-.07.09a1.34,1.34,0,0,1-.27.07.57.57,0,0,0-.26,0,1.23,1.23,0,0,0-.25.14s-.14.07,0,.08a.62.62,0,0,0,.23,0,1.8,1.8,0,0,1,.4-.1,2,2,0,0,1,.26-.07c.05,0,.2,0,.15.07a.7.7,0,0,1-.21.14.44.44,0,0,1-.22.1c-.06,0-.19,0-.1.09s.15,0,.22,0l.22-.1.27-.1c.07-.05.15-.06.22-.11s.16-.08.2-.17a.21.21,0,0,1,.15-.14c.07,0,.16,0,.24,0s.06-.16,0-.16l-.21-.14a.52.52,0,0,0-.27-.05.26.26,0,0,0-.18.12c0,.06-.06.16-.15.13a.15.15,0,0,1-.13,0Z" fill="#66452b"/>
              <path d="M74.32,49.92a.14.14,0,0,1-.13-.07c-.06-.05-.07-.11,0-.15a.21.21,0,0,1,.21-.09.18.18,0,0,0,.11,0l0,0,.11-.05-.12,0-.13,0a1.93,1.93,0,0,0-.38.09.63.63,0,0,1-.27,0,.11.11,0,0,1-.12-.08c0-.08.06-.12.13-.16a1.49,1.49,0,0,1,.25-.13.56.56,0,0,1,.25-.05H74l-.08,0a.29.29,0,0,1-.19.06.13.13,0,0,1-.12-.06.11.11,0,0,1,.06-.13v0h0A.46.46,0,0,1,73.9,49a1.34,1.34,0,0,1,.24-.12c.1-.05.19,0,.23.07l0,0h.44l.07,0h0l0,0,0-.06a.33.33,0,0,1,.24-.16.87.87,0,0,1,.31,0h0l.13.09a.18.18,0,0,1,.07,0,.18.18,0,0,1,.13.18.14.14,0,0,1-.13.15h-.23a.2.2,0,0,0-.09.09.41.41,0,0,1-.2.19l0,0a.4.4,0,0,1-.13.07l-.09,0h0a1.69,1.69,0,0,1-.27.11l-.21.09h0A.43.43,0,0,1,74.32,49.92Zm.39-.62a.18.18,0,0,1,.15.06.14.14,0,0,1,0,.13v0l0,0,.1,0,.12,0,.09-.05,0,0a.28.28,0,0,0,.13-.1.29.29,0,0,1,.2-.19.39.39,0,0,1,.15,0h0L75.61,49l-.11-.07a.38.38,0,0,0-.22,0,.13.13,0,0,0-.11.07v0l0,0a.18.18,0,0,1-.19.12.34.34,0,0,1-.15,0h-.11a.12.12,0,0,1,.08.08A.14.14,0,0,1,74.71,49.3Zm-.49-.22h.11a.16.16,0,0,1-.08-.06l0,0-.18.08h.19Z"/>
            </g>
            <g>
              <path d="M72.72,49.56a1.21,1.21,0,0,1,.19-.41,2.37,2.37,0,0,1,.82-.36,8,8,0,0,1-.82.1,2.47,2.47,0,0,0-.58.33,2.84,2.84,0,0,1,.24-.4,1.28,1.28,0,0,1,1.15-.31l.42.05s.07,0,0,.11a.86.86,0,0,1-.4.27A3.41,3.41,0,0,0,72.72,49.56Z" fill="#66452b"/>
              <path d="M72.79,49.61l-.16-.07a1.42,1.42,0,0,1,.21-.45,1.1,1.1,0,0,1,.21-.14l-.12,0a2.48,2.48,0,0,0-.54.32l-.13-.1a2.24,2.24,0,0,1,.25-.43,1.38,1.38,0,0,1,1.23-.34l.43.06h0a.16.16,0,0,1,.07.22.72.72,0,0,1-.38.28l-.05,0-.3.14A2.07,2.07,0,0,0,72.79,49.61Zm.83-.7a1.87,1.87,0,0,0-.65.31.1.1,0,0,0,0,.05,3.2,3.2,0,0,1,.52-.27l.21-.1Zm-.17-.34a1.1,1.1,0,0,0-.82.31l0,.07a1.14,1.14,0,0,1,.3-.14,1.75,1.75,0,0,1,.4-.05,1.51,1.51,0,0,0,.3,0l.13,0,.05.14h0a.7.7,0,0,0,.29-.19l-.38-.06Z"/>
            </g>
            <g>
              <path d="M74,48.51c-.33.22-1.1.62-1.07.64a5.53,5.53,0,0,0,1-.29c.1,0,.25-.09.29-.2a.17.17,0,0,0-.06-.16A.09.09,0,0,0,74,48.51Z" fill="#69737c"/>
              <path d="M72.89,49.25l-.07,0v-.05c0-.06,0-.07.46-.33.23-.13.49-.28.65-.39h0a.2.2,0,0,1,.2,0,.25.25,0,0,1,.1.27.42.42,0,0,1-.27.22l-.06,0a6.41,6.41,0,0,1-1,.3ZM74,48.58l-.56.33a2,2,0,0,0,.35-.13l.08,0c.07,0,.15-.06.16-.11a.06.06,0,0,0,0-.07Z"/>
            </g>
            <path d="M75.57,46.76c-.08,0-.09.14-.1.22s0,.16.06.16.09-.12.09-.19,0-.19-.05-.19Z" fill="#69737c"/>
            <g>
              <path d="M75.23,48.94c0-.06-.08,0-.12,0a.91.91,0,0,0-.22.11s-.11.06-.17.1-.21.12-.32.18l-.15,0s0,0,0,0a.45.45,0,0,0,.23,0l.25-.08a1.51,1.51,0,0,1,.18-.09l.19-.06c.08,0,0-.09.13-.09a0,0,0,0,0,0-.09s0,0,0,0Z" fill="#69737c"/>
              <path d="M74.34,49.49h-.09a.1.1,0,0,1-.11-.09.1.1,0,0,1,.09-.11l.13-.05.16-.09.16-.09.07,0,.09,0,0,0a.68.68,0,0,1,.21-.1.19.19,0,0,1,.18,0,.15.15,0,0,1,0,.06.13.13,0,0,1,.06.13.13.13,0,0,1-.13.12.38.38,0,0,1-.09.08l-.1,0-.08,0-.09,0-.08,0,0,0-.19.06-.08,0A.47.47,0,0,1,74.34,49.49Zm.79-.48a.35.35,0,0,0-.16.08h0l-.07,0h0l.13,0,.07,0s0,0,0,0A.05.05,0,0,1,75.13,49Zm.11,0Z"/>
            </g>
            <g>
              <path d="M74.47,49.65l.18,0,.21-.06.1,0a.58.58,0,0,0,.14-.17l.08-.15s0-.06-.07,0l-.11.09-.12.09a1.53,1.53,0,0,1-.11.16l-.08,0a1.54,1.54,0,0,1-.19.08l0,0Z" fill="#69737c"/>
              <path d="M74.24,49.8l.16-.21,0,0,.11,0,.09,0,.06,0,.05-.07a.24.24,0,0,1,.06-.09l.08-.07,0,0,.07-.05,0,0a.13.13,0,0,1,.14,0,.12.12,0,0,1,.06.14v0l0,0-.06.11h0a.58.58,0,0,1-.16.19h0l-.1,0-.23.08-.11,0h-.07Zm.74-.44,0,0,0,0Z"/>
            </g>
            <path d="M75,46.17a.2.2,0,0,1-.16-.08l0,0L74.76,46v0a.6.6,0,0,1-.16-.19l-.06-.08,0-.07,0-.06h0l.16-.08v0a.05.05,0,0,0,0,0,.21.21,0,0,0,0,.06.22.22,0,0,0,0,.08h0a.65.65,0,0,0,.13.16h0l.09.09,0,0h0a.17.17,0,0,1,.1,0h0v-.05a.38.38,0,0,1,0-.1v-.1a.27.27,0,0,1,.06-.12l0,0s0-.05,0-.07,0-.06,0-.09a.14.14,0,0,0,0-.09l.15-.09a.34.34,0,0,1,.05.17s0,0,0,.07a.29.29,0,0,1,0,.09h0a.22.22,0,0,1-.05.13l0,0v0a.28.28,0,0,1,0,.09.06.06,0,0,0,0,.06.36.36,0,0,1,0,.14.19.19,0,0,1-.19.08H75Z"/>
            <path d="M74.6,45.91h-.24l-.1,0-.07,0h-.13l0,0a.34.34,0,0,0-.08-.09h0l-.08-.06a.23.23,0,0,1-.08-.09.25.25,0,0,1,0-.07v0s0,0,0-.06a.08.08,0,0,1,0,0,.1.1,0,0,1,0-.08l.17,0a.06.06,0,0,0,0,0l0,.05,0,0,0,0,0,0v0l0,0h0l0,0,0,0,0,0,.08.08a.13.13,0,0,1,.08,0l0,0h.11l.06,0h.27v.17H74.6ZM74,45.48Z"/>
            <path d="M74.08,45.85a.29.29,0,0,1-.1,0h-.06l0,0,0,0,0,0h0l0,0-.06,0-.07,0,0,0h0l0,0-.09-.07h0l0,0-.11-.09a.26.26,0,0,1-.1-.17.36.36,0,0,0,0-.11l0,0v0a.08.08,0,0,1,0-.07l.17,0v0a.2.2,0,0,1,0,0,.57.57,0,0,1,0,.14s0,0,0,.07l.09.07,0,0h0l.11.07.06,0,0,0h0l0,0,0,0h0l.08,0,.06,0h0l0,0h0a0,0,0,0,0,0,0l.17,0a.11.11,0,0,1-.07.09Z"/>
            <path d="M77.38,45.77a.33.33,0,0,0,.14,0l.13,0s.08-.07.14-.06a.26.26,0,0,0,.15,0,.1.1,0,0,1,.11,0,.3.3,0,0,1,.13,0l.13,0,.12.06s0,.05-.05.07-.09,0-.13,0a.26.26,0,0,0-.09.09s-.07,0-.11,0h-.12s-.07,0-.11,0l-.13,0s-.06-.06-.11-.06l-.17-.08,0,0Z" fill="#bca76b"/>
            <g>
              <path d="M71.85,41.81a1.67,1.67,0,0,0-.31,0,1.31,1.31,0,0,1-.28,0,.81.81,0,0,0-.31,0c-.16,0-.3.08-.45.11h-.62c-.15,0,0-.17.09-.16a3,3,0,0,1,.57-.14c.15,0,.29-.07.43-.09l.36-.1a1.09,1.09,0,0,1,.36,0,2.72,2.72,0,0,0,.38-.11c.11-.06.24,0,.34-.09s.19-.09.29-.08a.45.45,0,0,1,.3.16c.08.11-.17.1-.09.22a.24.24,0,0,1-.2.05.32.32,0,0,1-.17,0,1,1,0,0,1-.25-.15c-.09,0-.1.15-.21.13a1.35,1.35,0,0,1-.45,0,.92.92,0,0,1,.28.14s0,.06-.06.07Z"/>
              <path d="M70.25,42h-.37a.11.11,0,0,1-.11,0,.13.13,0,0,1,0-.12.28.28,0,0,1,.19-.12l.13,0a2.16,2.16,0,0,1,.44-.1l.23-.05.19,0,.17,0,.18,0h0a1.09,1.09,0,0,1,.36,0h0a1.93,1.93,0,0,0,.34-.11l.18,0a.33.33,0,0,0,.15,0,.35.35,0,0,1,.33-.1.53.53,0,0,1,.35.18.13.13,0,0,1,0,.1s0,.07-.09.09l0,0h0l0,0,0,0a.33.33,0,0,1-.24.07h0a.41.41,0,0,1-.15,0l-.16-.1-.08,0,0,0a.17.17,0,0,1-.15.1l-.19,0,0,0v0a.09.09,0,0,1,0,.08.13.13,0,0,1-.11.07h-.18l-.13,0h-.3a.89.89,0,0,0-.29,0l-.22.05-.23,0ZM70,41.9h.51l.22,0,.23-.06a1.13,1.13,0,0,1,.32,0h.29a.21.21,0,0,0,.11,0,.43.43,0,0,1,.16,0,.58.58,0,0,0-.18-.08h0l0-.12h.09a1,1,0,0,0,.34,0h0s0,0,.06,0,.07-.1.14-.09h0l.1.06.15.09h0s.05,0,.09,0h0l.13,0c0-.08,0-.12.08-.14l0,0h0a.4.4,0,0,0-.26-.14c-.11,0-.19,0-.23.06l0,0a.56.56,0,0,1-.21.06.32.32,0,0,0-.14,0,2.47,2.47,0,0,1-.36.11h0a1,1,0,0,0-.33,0h0l-.17,0-.17,0-.2,0-.24.05a3.06,3.06,0,0,0-.41.1l-.15,0h0a.14.14,0,0,0-.08.06Z"/>
            </g>
            <path d="M72.45,41.4l.09,0,.06-.08s.08.12,0,.16-.19,0-.19,0Z" fill="#fff"/>
            <path d="M72.7,41.17s-.08-.08,0-.09.2,0,.29,0a.86.86,0,0,1,.47.27,4.07,4.07,0,0,1,.33.66,1.27,1.27,0,0,1,.13.32c0,.09.16.18.09.27s-.16,0-.24,0-.05.11,0,.12.09.15,0,.14l-.3,0c-.08,0,0-.13.06-.15s.14-.09.13-.17-.1-.26-.12-.4a1.41,1.41,0,0,0-.1-.31.65.65,0,0,0-.46-.45l-.27-.14Z" fill="#fff"/>
            <path d="M73.45,41.28l.09,0a1.21,1.21,0,0,1,.1.14.24.24,0,0,1,0,.08.56.56,0,0,0,0,.08l.05.12a.31.31,0,0,1,0,.1.29.29,0,0,0,0,.09s0,.07,0,.07a.12.12,0,0,1-.08,0,.41.41,0,0,1-.07-.11.11.11,0,0,1,0-.08s0-.07,0-.1l0-.09,0-.11s-.09-.13-.07-.18v0Z" fill="#bca76b"/>
            <path d="M72.78,41a.1.1,0,0,1-.06-.05l-.06,0s0,0,0,0l0,0,0-.05s0,0,0,0h.23s0,0,0,0h0s0,0,.05,0a.05.05,0,0,1,0,0,0,0,0,0,1,0,0s0,0,0,0l-.06,0-.06,0Z" fill="#bca76b"/>
            <path d="M72.72,41a.2.2,0,0,1-.11,0s0,0-.06,0l-.07,0,0,0s0,0,0,0l-.06,0s0,0,0,0a.11.11,0,0,1,0,0s0,0,0,0h.12a.09.09,0,0,1,.07,0s0,0,0,0l.11.1Z" fill="#fff"/>
            <path d="M72.9,40.89s0,0,.08,0l.09,0,.09,0,.09,0,.08,0,.08,0,.07.07s0,.06,0,0l-.09,0-.07,0-.09,0L73.09,41,73,41l-.1,0s0,0,0,0Z" fill="#fff"/>
            <path d="M73.33,41.5c-.12,0-.23,0-.35,0s-.15.05-.23.08-.11.13-.2.12-.16-.06-.23,0a2.26,2.26,0,0,1,.44.22.6.6,0,0,0,.25.16c.06,0,.14.09.11.17s-.17.11-.17.21-.12.13-.15.21-.12.1-.12.18.13,0,.13,0,.07-.16.15-.12.14-.06.21,0,.12.08.15,0,.13-.06.08-.13.1-.07.14-.11.12-.1,0-.16,0-.19-.06-.27,0-.19,0-.27-.07-.18-.14-.21Z"/>
            <path d="M76.43,44.65c-.13,0-.24.1-.37.11s0,.09.09.13a2.14,2.14,0,0,0,.42.16.69.69,0,0,0,.42.07c.14,0,0-.16,0-.24s-.22-.17-.32-.27a.17.17,0,0,0-.24,0Z" fill="#69737c"/>
            <path d="M76.34,44.93l-.14,0a.32.32,0,0,1-.17,0,.35.35,0,0,1-.17-.06s-.1,0-.12-.08,0,0,.07-.06a.53.53,0,0,1,.18,0l.2.08a.45.45,0,0,1,.14.1v0Z" fill="#fff"/>
            <path d="M77,44.89c0,.06-.09,0-.12,0a.31.31,0,0,1-.19,0,1.63,1.63,0,0,0-.31-.11c-.05,0-.15-.06-.07-.12a.46.46,0,0,1,.2-.09.5.5,0,0,1,.2.08.84.84,0,0,1,.21.11.18.18,0,0,1,.08.15Z" fill="#fff"/>
            <path d="M75.2,44.25a.61.61,0,0,1-.32.08c-.1,0-.27,0-.3.08s.08.15.15.2a1.36,1.36,0,0,0,.66.12c.07,0,.26,0,.16-.1a1.42,1.42,0,0,1-.29-.31s-.05,0-.06-.07Z" fill="#69737c"/>
            <path d="M76.33,44.32l-.13,0A1.4,1.4,0,0,1,76,44.2a1.71,1.71,0,0,0-.23-.13s0-.06,0,0,.06-.07.1,0a.49.49,0,0,1,.14.11.39.39,0,0,0,.16.1c.05,0,.12,0,.12.11Z" fill="#69737c"/>
            <path d="M76.18,44.53a.62.62,0,0,1-.3,0l-.21-.07a1.09,1.09,0,0,1-.23-.14.09.09,0,0,1,.1-.14s0-.13.1-.08a1.46,1.46,0,0,1,.3.17l.17.15Z" fill="#69737c"/>
            <path d="M74.65,43.09a.67.67,0,0,1,.38.22c.12.15-.11.23-.22.15a2.58,2.58,0,0,0-.54-.23c-.17,0,.08.13.13.17a.3.3,0,0,1,.15.23c-.12.09-.27,0-.4,0s-.22-.14-.31-.23a.19.19,0,0,0-.23-.07c0,.12.09.15.15.25s.23.21,0,.21a.61.61,0,0,1-.33-.24c-.08-.09-.14-.26,0-.28a.89.89,0,0,1,.48-.13,3.27,3.27,0,0,0,.54,0S74.67,43,74.65,43.09Z" fill="#69737c"/>
            <path d="M73.27,43.2a.25.25,0,0,0,0,.12.71.71,0,0,0,0,.14l0,.11.09.1a.33.33,0,0,0,.1.06l.08,0,.11,0s.07,0,.08,0,0-.05,0-.06-.06,0-.08-.05a.39.39,0,0,1-.08-.1.41.41,0,0,0,0-.09l-.06-.07-.09-.09-.07-.09s0,0,0,0Z" fill="#fff"/>
            <path d="M74.47,43.67l-.29-.06a.55.55,0,0,1-.26-.19,1.5,1.5,0,0,0-.24-.2c-.09,0-.13.1-.07.16s.12.14.18.22a1,1,0,0,0,.24.17.83.83,0,0,0,.36.09c.07,0,.16,0,.17-.13S74.51,43.67,74.47,43.67Z" fill="#fff"/>
            <path d="M74.2,44.28a.25.25,0,0,1-.19,0,.33.33,0,0,1-.13-.13.46.46,0,0,0-.17-.14c-.06,0-.14,0-.12.1a.29.29,0,0,0,.09.15,1.12,1.12,0,0,0,.24.13l.14,0s.13,0,.14,0,0,0,0-.06Z" fill="#fff"/>
            <path d="M74.87,44.09a.1.1,0,0,1,.06.15.21.21,0,0,1-.19.09h-.19a1.11,1.11,0,0,1-.19-.09c-.07,0-.08-.11-.13-.15s.07-.08.11-.07.11.09.17.11a.39.39,0,0,0,.17.06s.12,0,.15,0l0-.06Z" fill="#fff"/>
            <path d="M75.46,43.94a.11.11,0,0,1,0,.17.37.37,0,0,1-.18,0A1,1,0,0,1,75,44s-.11,0-.15-.1a.09.09,0,0,1,.12-.1,1.15,1.15,0,0,1,.28.09.66.66,0,0,0,.2.06Z" fill="#fff"/>
            <path d="M77.93,46.07a1.35,1.35,0,0,1-.56-.17l-.18-.09A2.27,2.27,0,0,0,76,46a.59.59,0,0,1-.43,0l-.18,0,0,0,0,0-.12-.13h0l0-.06h0a.61.61,0,0,1,.3,0,.41.41,0,0,0,.31,0,2.37,2.37,0,0,1,1.3-.23h0l.2.1a.79.79,0,0,0,.62.14h.05c.13,0,.23-.05.34-.13a.74.74,0,0,1,.21-.13l-.34-.14A5.11,5.11,0,0,1,77,44.79a1.15,1.15,0,0,1-.41-.44l-.15-.21a4.65,4.65,0,0,0-.81-.79l.06-.07-.06.07A2.14,2.14,0,0,0,75,43l-.1,0-.22-.09a1,1,0,0,1-.65-.46v0a2.53,2.53,0,0,0-.38-1l0,0c-.15-.21-.31-.43-.57-.46h0a.94.94,0,0,0-1.2.32l-.19.18c-.09.12,0,.2.08.38a1.51,1.51,0,0,1,.18.36,1.34,1.34,0,0,0,.19.26,1.13,1.13,0,0,1,.22.32l0,0,0,0a1.79,1.79,0,0,0,0,.93,1.11,1.11,0,0,0,0,.19,1.14,1.14,0,0,0,.3.69l.08.1.29.23a2.26,2.26,0,0,0,.36.27l-.08.15a1.58,1.58,0,0,1-.39-.29,2.77,2.77,0,0,0-.29-.22h0a.76.76,0,0,0-.08-.11,1.35,1.35,0,0,1-.34-.8,1.11,1.11,0,0,0,0-.17,2.08,2.08,0,0,1,.06-1,1.6,1.6,0,0,0-.18-.25,1.23,1.23,0,0,1-.22-.3v0a.92.92,0,0,0-.16-.31c-.11-.18-.24-.37-.06-.59h0l.19-.18a1.09,1.09,0,0,1,1.37-.37,1.06,1.06,0,0,1,.68.54l0,0a2.85,2.85,0,0,1,.41,1.08.94.94,0,0,0,.55.36l.23.09.1.05a2.17,2.17,0,0,1,.62.37,4.53,4.53,0,0,1,.83.81c.06.07.11.15.16.22a1.14,1.14,0,0,0,.36.39l0,0a5,5,0,0,0,1.31.66c.57.22.67.27.67.37v.14l-.13,0c-.14-.06-.23,0-.37.11a.59.59,0,0,1-.47.16A.5.5,0,0,1,77.93,46.07Z"/>
          </g>
        </g>
      </g>
      <g>
        <path d="M10.39,74.25V25.75A26.64,26.64,0,0,1,30.24,0H0V100H30.24A26.66,26.66,0,0,1,10.39,74.25Z" opacity="0.2" style="isolation: isolate"/>
        <path d="M89.61,25.75V74.24A26.64,26.64,0,0,1,69.76,100H100V0H69.76A26.66,26.66,0,0,1,89.61,25.75Z" fill="#fff" opacity="0.1" style="isolation: isolate"/>
      </g>
    </g>
  </g>
</svg>
