<svg xmlns="http://www.w3.org/2000/svg" xmlns:xlink="http://www.w3.org/1999/xlink" width="100" height="100" viewBox="0 0 100 100">
  <defs>
    <clipPath id="a">
      <path d="M73.3,100H26.7A26.63,26.63,0,0,1,0,73.3V26.7A26.63,26.63,0,0,1,26.7,0H73.4A26.61,26.61,0,0,1,100,26.7V73.4A26.61,26.61,0,0,1,73.3,100Z" fill="none"/>
    </clipPath>
  </defs>
  <title>flag_na_cr_barbados</title>
  <g clip-path="url(#a)">
    <g>
      <g>
        <rect width="100" height="100" fill="#ffda44"/>
        <g>
          <rect width="33.33" height="100" fill="#0052b4"/>
          <rect x="66.67" width="33.33" height="100" fill="#0052b4"/>
        </g>
        <path d="M60.14,37l2,1-2-1L58.2,36a36.12,36.12,0,0,0-3.07,13.3h-3V37L50,34.06,47.83,37V49.28h-3A36.12,36.12,0,0,0,41.8,36l-3.89,2a33,33,0,0,1,2.67,13.52v2.17h7.25V65.94h4.34V53.62h7.25V51.45a36.51,36.51,0,0,1,1.33-9.79,25.37,25.37,0,0,1,1.34-3.74Z"/>
      </g>
      <g>
        <path d="M10.39,74.25V25.75A26.64,26.64,0,0,1,30.24,0H0V100H30.24A26.66,26.66,0,0,1,10.39,74.25Z" opacity="0.2" style="isolation: isolate"/>
        <path d="M89.61,25.75V74.24A26.64,26.64,0,0,1,69.76,100H100V0H69.76A26.66,26.66,0,0,1,89.61,25.75Z" fill="#fff" opacity="0.1" style="isolation: isolate"/>
      </g>
    </g>
  </g>
</svg>
