<svg xmlns="http://www.w3.org/2000/svg" xmlns:xlink="http://www.w3.org/1999/xlink" width="105.29" height="100" viewBox="0 0 105.29 100">
  <defs>
    <clipPath id="a" transform="translate(5.02)">
      <path d="M73.3,100H26.7A26.63,26.63,0,0,1,0,73.3V26.7A26.63,26.63,0,0,1,26.7,0H73.4A26.61,26.61,0,0,1,100,26.7V73.4A26.61,26.61,0,0,1,73.3,100Z" fill="none"/>
    </clipPath>
    <clipPath id="b" transform="translate(5.02)">
      <rect width="100" height="100" fill="none"/>
    </clipPath>
    <clipPath id="c" transform="translate(5.02)">
      <rect x="10.24" y="83.19" width="0.32" height="1.25" fill="none"/>
    </clipPath>
    <clipPath id="d" transform="translate(5.02)">
      <rect x="9.64" y="83.91" width="0.52" height="1.13" fill="none"/>
    </clipPath>
    <clipPath id="e" transform="translate(5.02)">
      <rect x="9.53" y="84.19" width="0.38" height="1.04" fill="none"/>
    </clipPath>
    <clipPath id="f" transform="translate(5.02)">
      <rect x="8.75" y="84.48" width="0.36" height="1.03" fill="none"/>
    </clipPath>
    <clipPath id="g" transform="translate(5.02)">
      <rect x="8.51" y="84.52" width="0.38" height="0.85" fill="none"/>
    </clipPath>
    <clipPath id="h" transform="translate(5.02)">
      <rect x="6.63" y="83.59" width="0.55" height="0.59" fill="none"/>
    </clipPath>
    <clipPath id="i" transform="translate(5.02)">
      <rect x="6.67" y="83.98" width="0.71" height="0.35" fill="none"/>
    </clipPath>
    <clipPath id="j" transform="translate(5.02)">
      <rect x="6.56" y="84.65" width="0.45" height="0.53" fill="none"/>
    </clipPath>
    <clipPath id="k" transform="translate(5.02)">
      <rect x="10.18" y="92.43" width="0.32" height="1.25" fill="none"/>
    </clipPath>
    <clipPath id="l" transform="translate(5.02)">
      <rect x="9.59" y="93.15" width="0.52" height="1.13" fill="none"/>
    </clipPath>
    <clipPath id="m" transform="translate(5.02)">
      <rect x="9.48" y="93.43" width="0.38" height="1.04" fill="none"/>
    </clipPath>
    <clipPath id="n" transform="translate(5.02)">
      <rect x="8.69" y="93.72" width="0.36" height="1.03" fill="none"/>
    </clipPath>
    <clipPath id="o" transform="translate(5.02)">
      <rect x="8.46" y="93.77" width="0.38" height="0.85" fill="none"/>
    </clipPath>
    <clipPath id="p" transform="translate(5.02)">
      <rect x="6.57" y="92.83" width="0.55" height="0.59" fill="none"/>
    </clipPath>
    <clipPath id="q" transform="translate(5.02)">
      <rect x="6.62" y="93.22" width="0.71" height="0.35" fill="none"/>
    </clipPath>
    <clipPath id="r" transform="translate(5.02)">
      <rect x="6.51" y="93.89" width="0.45" height="0.53" fill="none"/>
    </clipPath>
  </defs>
  <title>flag_na_n_st_pierre_and_miquelon</title>
  <g clip-path="url(#a)">
    <g>
      <g clip-path="url(#b)">
        <g>
          <path d="M-1.49,33.43c-.33,0-.45.4-.57.65-.31.79-.45,1.63-.8,2.41a6.92,6.92,0,0,1-1.29,2.15c-.1.08-.23.15-.08.25s.56,0,.77-.14.41-.37.48-.32a2.3,2.3,0,0,1-.49,1.09c.2,0,.44,0,.58-.16a7.51,7.51,0,0,0,.72-1c.19.45.2,1,.64,1.31.25.16.48-.22.55-.41s.11-.73.24-.84a2.91,2.91,0,0,0,.94,1,.88.88,0,0,0,.4,0,1.91,1.91,0,0,1-.58-1A2.46,2.46,0,0,0,1.11,39l.44,0A5.84,5.84,0,0,1,.41,37.57a9,9,0,0,1-1.1-2.63,4,4,0,0,0-.55-1.38.34.34,0,0,0-.25-.13Z" transform="translate(5.02)"/>
          <path d="M8,33.43c-.33,0-.45.4-.57.65-.31.79-.44,1.63-.8,2.41a6.92,6.92,0,0,1-1.29,2.15c-.1.08-.23.15-.08.25s.56,0,.77-.14.41-.37.48-.32a2.21,2.21,0,0,1-.49,1.09c.2,0,.44,0,.58-.16a7.51,7.51,0,0,0,.72-1c.19.45.2,1,.65,1.31.24.16.47-.22.55-.41s.1-.73.23-.84a2.91,2.91,0,0,0,.94,1,.93.93,0,0,0,.41,0,1.86,1.86,0,0,1-.59-1,2.51,2.51,0,0,0,1.09.58l.44,0A5.8,5.8,0,0,1,10,37.57a8.71,8.71,0,0,1-1.11-2.63,4.23,4.23,0,0,0-.54-1.38A.38.38,0,0,0,8,33.43Z" transform="translate(5.02)"/>
          <path d="M17.57,33.43c-.32,0-.45.4-.57.65-.31.79-.44,1.63-.8,2.41a6.92,6.92,0,0,1-1.29,2.15c-.1.08-.23.15-.08.25s.56,0,.77-.14.41-.37.48-.32a2.21,2.21,0,0,1-.49,1.09c.21,0,.44,0,.58-.16a6.68,6.68,0,0,0,.72-1c.19.45.2,1,.65,1.31.24.16.47-.22.55-.41s.11-.73.23-.84a2.91,2.91,0,0,0,.94,1,.93.93,0,0,0,.41,0,1.86,1.86,0,0,1-.59-1,2.51,2.51,0,0,0,1.09.58l.44,0a5.8,5.8,0,0,1-1.13-1.43,8.71,8.71,0,0,1-1.11-2.63,4,4,0,0,0-.54-1.38.38.38,0,0,0-.26-.13Z" transform="translate(5.02)"/>
          <path d="M27.1,33.43c-.32,0-.45.4-.57.65-.31.79-.44,1.63-.79,2.41a7,7,0,0,1-1.3,2.15c-.09.08-.22.15-.08.25s.56,0,.78-.14.4-.37.47-.32a2.21,2.21,0,0,1-.49,1.09c.21,0,.44,0,.59-.16a7.44,7.44,0,0,0,.71-1c.19.45.2,1,.65,1.31.24.16.47-.22.55-.41s.11-.73.23-.84c.29.35.52.78.94,1a.92.92,0,0,0,.41,0,1.85,1.85,0,0,1-.58-1A2.43,2.43,0,0,0,29.7,39l.44,0A6,6,0,0,1,29,37.57a8.71,8.71,0,0,1-1.11-2.63,3.83,3.83,0,0,0-.54-1.38.38.38,0,0,0-.26-.13Z" transform="translate(5.02)"/>
          <path d="M3.27,41.79c-.32,0-.44.4-.56.65-.32.79-.45,1.63-.8,2.4A7.17,7.17,0,0,1,.62,47c-.1.08-.23.15-.09.25s.56,0,.78-.15.41-.36.47-.32a2.25,2.25,0,0,1-.49,1.1c.21,0,.44,0,.59-.17a6.71,6.71,0,0,0,.71-1c.19.44.21,1,.65,1.31.25.16.47-.22.55-.42s.11-.72.23-.83c.29.35.52.78,1,1a.88.88,0,0,0,.4,0,1.85,1.85,0,0,1-.58-1,2.41,2.41,0,0,0,1.09.58l.43,0a6,6,0,0,1-1.13-1.43,8.8,8.8,0,0,1-1.1-2.63,4,4,0,0,0-.55-1.38.38.38,0,0,0-.26-.13Z" transform="translate(5.02)"/>
          <path d="M2.13,41a.56.56,0,0,0-.46.23,1.51,1.51,0,0,0-.54-.1,1.65,1.65,0,0,0-.32,0,2.08,2.08,0,0,0-.93.56l-.14.16.21,0a7.45,7.45,0,0,0,1.1,0h.72a.57.57,0,0,0,.36.13.54.54,0,1,0,0-1.07" transform="translate(5.02)"/>
          <path d="M3.87,40.71a.56.56,0,0,0-.23-.46,1.15,1.15,0,0,0,.1-.54,1.55,1.55,0,0,0,0-.31,1.87,1.87,0,0,0-.56-.93L3,38.33l0,.2a9.39,9.39,0,0,0,0,1.11v.71a.59.59,0,0,0-.13.36.54.54,0,1,0,1.07,0" transform="translate(5.02)"/>
          <path d="M4.55,42.07A.56.56,0,0,0,5,41.84a1.29,1.29,0,0,0,.54.1,1.55,1.55,0,0,0,.31,0,2,2,0,0,0,.93-.56l.14-.16-.21,0a7.45,7.45,0,0,0-1.1,0H4.91A.59.59,0,0,0,4.55,41a.54.54,0,1,0,0,1.07" transform="translate(5.02)"/>
          <path d="M12.81,41.79c-.33,0-.45.4-.57.65-.32.79-.45,1.63-.8,2.4A7.17,7.17,0,0,1,10.15,47c-.1.08-.23.15-.09.25s.56,0,.78-.15.41-.36.47-.32a2.25,2.25,0,0,1-.49,1.1c.21,0,.44,0,.59-.17a7.64,7.64,0,0,0,.72-1c.19.44.2,1,.64,1.31.25.16.47-.22.55-.42s.11-.72.23-.83c.29.35.53.78.95,1a.88.88,0,0,0,.4,0,1.91,1.91,0,0,1-.58-1,2.46,2.46,0,0,0,1.09.58l.44,0a5.84,5.84,0,0,1-1.14-1.43,8.8,8.8,0,0,1-1.1-2.63,4,4,0,0,0-.55-1.38.34.34,0,0,0-.25-.13Z" transform="translate(5.02)"/>
          <path d="M11.66,41a.56.56,0,0,0-.46.23,1.51,1.51,0,0,0-.54-.1,1.65,1.65,0,0,0-.32,0,2.08,2.08,0,0,0-.93.56l-.13.16.2,0a7.45,7.45,0,0,0,1.1,0h.72a.57.57,0,0,0,.36.13.54.54,0,1,0,0-1.07" transform="translate(5.02)"/>
          <path d="M13.41,40.71a.57.57,0,0,0-.24-.46,1.15,1.15,0,0,0,.1-.54,1.55,1.55,0,0,0,0-.31,1.87,1.87,0,0,0-.56-.93l-.16-.14,0,.2c0,.28,0,.7,0,1.11v.71a.59.59,0,0,0-.13.36.54.54,0,1,0,1.08,0" transform="translate(5.02)"/>
          <path d="M14.08,42.07a.56.56,0,0,0,.46-.23,1.29,1.29,0,0,0,.54.1,1.75,1.75,0,0,0,.32,0,2,2,0,0,0,.92-.56l.14-.16-.2,0a7.49,7.49,0,0,0-1.1,0h-.72a.57.57,0,0,0-.36-.13.54.54,0,1,0,0,1.07" transform="translate(5.02)"/>
          <path d="M22.34,41.79c-.33,0-.45.4-.57.65-.31.79-.45,1.63-.8,2.4A7,7,0,0,1,19.68,47c-.1.08-.23.15-.09.25s.56,0,.78-.15.41-.36.48-.32a2.44,2.44,0,0,1-.49,1.1c.2,0,.43,0,.58-.17a6.77,6.77,0,0,0,.72-1c.19.44.2,1,.64,1.31.25.16.48-.22.55-.42s.11-.72.23-.83c.29.35.53.78,1,1a.88.88,0,0,0,.4,0,1.91,1.91,0,0,1-.58-1,2.46,2.46,0,0,0,1.09.58l.44,0a5.84,5.84,0,0,1-1.14-1.43,9.06,9.06,0,0,1-1.1-2.63,4,4,0,0,0-.55-1.38.34.34,0,0,0-.25-.13Z" transform="translate(5.02)"/>
          <path d="M21.19,41a.56.56,0,0,0-.46.23,1.51,1.51,0,0,0-.54-.1,1.65,1.65,0,0,0-.32,0,2,2,0,0,0-.92.56l-.14.16.2,0a7.49,7.49,0,0,0,1.1,0h.72a.57.57,0,0,0,.36.13.54.54,0,1,0,0-1.07" transform="translate(5.02)"/>
          <path d="M22.94,40.71a.57.57,0,0,0-.24-.46,1.31,1.31,0,0,0,.11-.54,1.54,1.54,0,0,0,0-.31,1.87,1.87,0,0,0-.56-.93l-.15-.14,0,.2c0,.28,0,.7,0,1.11v.71a.59.59,0,0,0-.13.36.54.54,0,1,0,1.08,0" transform="translate(5.02)"/>
          <path d="M23.61,42.07a.56.56,0,0,0,.46-.23,1.29,1.29,0,0,0,.54.1,1.75,1.75,0,0,0,.32,0,2,2,0,0,0,.92-.56l.14-.16-.2,0a7.49,7.49,0,0,0-1.1,0H24a.57.57,0,0,0-.36-.13.54.54,0,1,0,0,1.07" transform="translate(5.02)"/>
          <path d="M-1.49,50.15c-.33,0-.45.39-.57.65-.31.78-.45,1.63-.8,2.4a7,7,0,0,1-1.29,2.16c-.1.08-.23.14-.08.25s.56,0,.77-.15.41-.36.48-.32a2.38,2.38,0,0,1-.49,1.1.68.68,0,0,0,.58-.17,7.41,7.41,0,0,0,.72-1c.19.44.2,1,.64,1.31.25.15.48-.23.55-.42s.11-.72.24-.83a3.11,3.11,0,0,0,.94,1,.75.75,0,0,0,.4,0,1.87,1.87,0,0,1-.58-1,2.48,2.48,0,0,0,1.09.59l.44,0A5.84,5.84,0,0,1,.41,54.29a9,9,0,0,1-1.1-2.64,3.91,3.91,0,0,0-.55-1.37.34.34,0,0,0-.25-.13" transform="translate(5.02)"/>
          <path d="M-2.64,49.35a.57.57,0,0,0-.46.24,1.15,1.15,0,0,0-.54-.1,1.75,1.75,0,0,0-.32,0,1.88,1.88,0,0,0-.92.56l-.14.16.2,0a9.21,9.21,0,0,0,1.1,0H-3a.57.57,0,0,0,.36.13.55.55,0,0,0,.55-.54.55.55,0,0,0-.55-.54" transform="translate(5.02)"/>
          <path d="M-.89,49.07a.55.55,0,0,0-.24-.46A1.31,1.31,0,0,0-1,48.07a1.19,1.19,0,0,0-.05-.32,1.88,1.88,0,0,0-.56-.92l-.15-.14,0,.2c0,.27,0,.7,0,1.1v.72a.57.57,0,0,0-.13.36.55.55,0,0,0,.54.55.55.55,0,0,0,.54-.55" transform="translate(5.02)"/>
          <path d="M-.22,50.43a.55.55,0,0,0,.46-.24,1.34,1.34,0,0,0,.54.11,1.13,1.13,0,0,0,.32,0A1.83,1.83,0,0,0,2,49.69l.14-.15-.2,0c-.27,0-.7,0-1.1,0s-.53,0-.72,0a.57.57,0,0,0-.36-.13.55.55,0,0,0-.55.54.55.55,0,0,0,.55.54" transform="translate(5.02)"/>
          <path d="M8,50.15c-.33,0-.45.39-.57.65-.31.78-.44,1.63-.8,2.4a7,7,0,0,1-1.29,2.16c-.1.08-.23.14-.08.25s.56,0,.77-.15.41-.36.48-.32a2.29,2.29,0,0,1-.49,1.1.68.68,0,0,0,.58-.17,7.41,7.41,0,0,0,.72-1c.19.44.2,1,.65,1.31.24.15.47-.23.55-.42s.1-.72.23-.83a3.11,3.11,0,0,0,.94,1,.79.79,0,0,0,.41,0,1.83,1.83,0,0,1-.59-1,2.53,2.53,0,0,0,1.09.59l.44,0A5.8,5.8,0,0,1,10,54.29a8.77,8.77,0,0,1-1.11-2.64,4.09,4.09,0,0,0-.54-1.37A.38.38,0,0,0,8,50.15" transform="translate(5.02)"/>
          <path d="M6.89,49.35a.57.57,0,0,0-.46.24,1.15,1.15,0,0,0-.54-.1,1.55,1.55,0,0,0-.31,0,1.87,1.87,0,0,0-.93.56l-.14.16.2,0a9.32,9.32,0,0,0,1.11,0h.71a.59.59,0,0,0,.36.13.55.55,0,0,0,.55-.54.55.55,0,0,0-.55-.54" transform="translate(5.02)"/>
          <path d="M8.64,49.07a.55.55,0,0,0-.24-.46,1.31,1.31,0,0,0,.11-.54,1.19,1.19,0,0,0,0-.32,1.88,1.88,0,0,0-.56-.92l-.15-.14,0,.2c0,.27,0,.7,0,1.1s0,.53,0,.72a.57.57,0,0,0-.13.36.55.55,0,0,0,.54.55.55.55,0,0,0,.54-.55" transform="translate(5.02)"/>
          <path d="M9.31,50.43a.55.55,0,0,0,.46-.24,1.34,1.34,0,0,0,.54.11,1.13,1.13,0,0,0,.32,0,1.92,1.92,0,0,0,.93-.56l.14-.15-.21,0c-.27,0-.69,0-1.1,0s-.53,0-.72,0a.57.57,0,0,0-.36-.13.55.55,0,0,0-.55.54.55.55,0,0,0,.55.54" transform="translate(5.02)"/>
          <path d="M17.57,50.15c-.32,0-.45.39-.57.65-.31.78-.44,1.63-.8,2.4a7,7,0,0,1-1.29,2.16c-.1.08-.23.14-.08.25s.56,0,.77-.15.41-.36.48-.32a2.29,2.29,0,0,1-.49,1.1c.21,0,.44,0,.58-.17a6.59,6.59,0,0,0,.72-1c.19.44.2,1,.65,1.31.24.15.47-.23.55-.42s.11-.72.23-.83a3.11,3.11,0,0,0,.94,1,.79.79,0,0,0,.41,0,1.83,1.83,0,0,1-.59-1,2.53,2.53,0,0,0,1.09.59l.44,0a5.8,5.8,0,0,1-1.13-1.43,8.77,8.77,0,0,1-1.11-2.64,3.89,3.89,0,0,0-.54-1.37.38.38,0,0,0-.26-.13" transform="translate(5.02)"/>
          <path d="M16.42,49.35a.57.57,0,0,0-.46.24,1.15,1.15,0,0,0-.54-.1,1.55,1.55,0,0,0-.31,0,1.92,1.92,0,0,0-.93.56l-.14.16.21,0a9.14,9.14,0,0,0,1.1,0h.71a.59.59,0,0,0,.36.13.54.54,0,0,0,.55-.54.55.55,0,0,0-.55-.54" transform="translate(5.02)"/>
          <path d="M18.17,49.07a.56.56,0,0,0-.23-.46,1.47,1.47,0,0,0,.1-.54,1.75,1.75,0,0,0,0-.32,2,2,0,0,0-.56-.92l-.16-.14,0,.2a9,9,0,0,0,0,1.1c0,.27,0,.53,0,.72a.56.56,0,0,0-.12.36.54.54,0,1,0,1.07,0" transform="translate(5.02)"/>
          <path d="M18.85,50.43a.54.54,0,0,0,.45-.24,1.34,1.34,0,0,0,.54.11,1.13,1.13,0,0,0,.32,0,1.92,1.92,0,0,0,.93-.56l.14-.15-.21,0c-.27,0-.69,0-1.1,0s-.52,0-.72,0a.54.54,0,0,0-.35-.13.56.56,0,0,0-.56.54.55.55,0,0,0,.56.54" transform="translate(5.02)"/>
          <path d="M27.1,50.15c-.32,0-.45.39-.57.65-.31.78-.44,1.63-.79,2.4a7,7,0,0,1-1.3,2.16c-.09.08-.22.14-.08.25s.56,0,.78-.15.4-.36.47-.32a2.29,2.29,0,0,1-.49,1.1.7.7,0,0,0,.59-.17,7.34,7.34,0,0,0,.71-1c.19.44.2,1,.65,1.31.24.15.47-.23.55-.42s.11-.72.23-.83c.29.34.52.77.94,1a.78.78,0,0,0,.41,0,1.81,1.81,0,0,1-.58-1,2.44,2.44,0,0,0,1.08.59l.44,0A6,6,0,0,1,29,54.29a8.77,8.77,0,0,1-1.11-2.64,3.71,3.71,0,0,0-.54-1.37.38.38,0,0,0-.26-.13" transform="translate(5.02)"/>
          <path d="M26,49.35a.55.55,0,0,0-.45.24,1.22,1.22,0,0,0-.55-.1,1.55,1.55,0,0,0-.31,0,1.92,1.92,0,0,0-.93.56l-.14.16.21,0a9.14,9.14,0,0,0,1.1,0h.72a.54.54,0,0,0,.35.13.55.55,0,0,0,.56-.54.56.56,0,0,0-.56-.54" transform="translate(5.02)"/>
          <path d="M27.7,49.07a.56.56,0,0,0-.23-.46,1.47,1.47,0,0,0,.1-.54,1.75,1.75,0,0,0,0-.32,2,2,0,0,0-.56-.92l-.16-.14,0,.2a7.49,7.49,0,0,0,0,1.1v.72a.57.57,0,0,0-.13.36.54.54,0,1,0,1.07,0" transform="translate(5.02)"/>
          <path d="M28.38,50.43a.53.53,0,0,0,.45-.24,1.38,1.38,0,0,0,.55.11,1.06,1.06,0,0,0,.31,0,1.92,1.92,0,0,0,.93-.56l.14-.15-.21,0c-.27,0-.69,0-1.1,0s-.52,0-.72,0a.54.54,0,0,0-.35-.13.56.56,0,0,0-.56.54.55.55,0,0,0,.56.54" transform="translate(5.02)"/>
          <path d="M3.27,58.5c-.32,0-.44.4-.56.65-.32.79-.45,1.64-.8,2.41A7,7,0,0,1,.62,63.71c-.1.08-.23.15-.09.26s.56,0,.78-.15.41-.36.47-.32a2.21,2.21,0,0,1-.49,1.09.66.66,0,0,0,.59-.16,8.09,8.09,0,0,0,.71-1c.19.44.21,1,.65,1.3.25.16.47-.22.55-.41s.11-.72.23-.83c.29.34.52.77,1,1a.67.67,0,0,0,.4,0,1.81,1.81,0,0,1-.58-1A2.41,2.41,0,0,0,5.88,64l.43,0a6,6,0,0,1-1.13-1.43A8.85,8.85,0,0,1,4.08,60a3.91,3.91,0,0,0-.55-1.37.4.4,0,0,0-.26-.14Z" transform="translate(5.02)"/>
          <path d="M2.13,57.71a.55.55,0,0,0-.46.24,1.34,1.34,0,0,0-.54-.11,1.64,1.64,0,0,0-.32,0,1.92,1.92,0,0,0-.93.56l-.14.15.21,0c.27,0,.69,0,1.1,0h.72a.57.57,0,0,0,.36.13.54.54,0,1,0,0-1.08" transform="translate(5.02)"/>
          <path d="M3.87,57.43A.56.56,0,0,0,3.64,57a1.17,1.17,0,0,0,.1-.54,1.65,1.65,0,0,0,0-.32,1.92,1.92,0,0,0-.56-.93L3,55l0,.21a9.14,9.14,0,0,0,0,1.1v.72a.57.57,0,0,0-.13.36.54.54,0,1,0,1.07,0" transform="translate(5.02)"/>
          <path d="M4.55,58.79A.55.55,0,0,0,5,58.55a1.31,1.31,0,0,0,.54.11,1.54,1.54,0,0,0,.31,0,1.87,1.87,0,0,0,.93-.56l.14-.15-.21,0c-.27,0-.69,0-1.1,0H4.91a.59.59,0,0,0-.36-.13.54.54,0,1,0,0,1.08Z" transform="translate(5.02)"/>
          <path d="M12.81,58.5c-.33,0-.45.4-.57.65-.32.79-.45,1.64-.8,2.41a7,7,0,0,1-1.29,2.15c-.1.08-.23.15-.09.26s.56,0,.78-.15.41-.36.47-.32a2.21,2.21,0,0,1-.49,1.09.66.66,0,0,0,.59-.16,9.48,9.48,0,0,0,.72-1c.19.44.2,1,.64,1.3.25.16.47-.22.55-.41s.11-.72.23-.83c.29.34.53.77.95,1a.67.67,0,0,0,.4,0,1.87,1.87,0,0,1-.58-1,2.46,2.46,0,0,0,1.09.58l.44,0a5.84,5.84,0,0,1-1.14-1.43A8.85,8.85,0,0,1,13.61,60a3.91,3.91,0,0,0-.55-1.37.35.35,0,0,0-.25-.14Z" transform="translate(5.02)"/>
          <path d="M11.66,57.71a.55.55,0,0,0-.46.24,1.34,1.34,0,0,0-.54-.11,1.64,1.64,0,0,0-.32,0,1.92,1.92,0,0,0-.93.56l-.13.15.2,0c.27,0,.69,0,1.1,0h.72a.57.57,0,0,0,.36.13.54.54,0,1,0,0-1.08" transform="translate(5.02)"/>
          <path d="M13.41,57.43a.57.57,0,0,0-.24-.46,1.17,1.17,0,0,0,.1-.54,1.65,1.65,0,0,0,0-.32,1.92,1.92,0,0,0-.56-.93L12.51,55l0,.21c0,.27,0,.69,0,1.1v.72a.57.57,0,0,0-.13.36.54.54,0,1,0,1.08,0" transform="translate(5.02)"/>
          <path d="M14.08,58.79a.55.55,0,0,0,.46-.24,1.31,1.31,0,0,0,.54.11,1.77,1.77,0,0,0,.32,0,1.88,1.88,0,0,0,.92-.56l.14-.15-.2,0c-.27,0-.7,0-1.1,0h-.72a.57.57,0,0,0-.36-.13.54.54,0,1,0,0,1.08Z" transform="translate(5.02)"/>
          <path d="M22.34,58.5c-.33,0-.45.4-.57.65-.31.79-.45,1.64-.8,2.41a6.81,6.81,0,0,1-1.29,2.15c-.1.08-.23.15-.09.26s.56,0,.78-.15.41-.36.48-.32a2.41,2.41,0,0,1-.49,1.09.65.65,0,0,0,.58-.16,8.18,8.18,0,0,0,.72-1c.19.44.2,1,.64,1.3.25.16.48-.22.55-.41s.11-.72.23-.83c.29.34.53.77,1,1a.67.67,0,0,0,.4,0,1.87,1.87,0,0,1-.58-1,2.46,2.46,0,0,0,1.09.58l.44,0a5.84,5.84,0,0,1-1.14-1.43A9.12,9.12,0,0,1,23.14,60a3.91,3.91,0,0,0-.55-1.37.35.35,0,0,0-.25-.14Z" transform="translate(5.02)"/>
          <path d="M21.19,57.71a.55.55,0,0,0-.46.24,1.34,1.34,0,0,0-.54-.11,1.64,1.64,0,0,0-.32,0,1.83,1.83,0,0,0-.92.56l-.14.15.2,0c.27,0,.7,0,1.1,0h.72a.57.57,0,0,0,.36.13.54.54,0,1,0,0-1.08" transform="translate(5.02)"/>
          <path d="M22.94,57.43A.57.57,0,0,0,22.7,57a1.34,1.34,0,0,0,.11-.54,1.64,1.64,0,0,0,0-.32,1.92,1.92,0,0,0-.56-.93L22.05,55l0,.21c0,.27,0,.69,0,1.1v.72a.57.57,0,0,0-.13.36.54.54,0,1,0,1.08,0" transform="translate(5.02)"/>
          <path d="M23.61,58.79a.55.55,0,0,0,.46-.24,1.31,1.31,0,0,0,.54.11,1.77,1.77,0,0,0,.32,0,1.88,1.88,0,0,0,.92-.56L26,57.9l-.2,0c-.27,0-.7,0-1.1,0H24a.57.57,0,0,0-.36-.13.54.54,0,1,0,0,1.08Z" transform="translate(5.02)"/>
        </g>
        <g>
          <path d="M27.74,0H100V100H27.74Z" transform="translate(5.02)" fill="#002395"/>
          <g>
            <path d="M96.52,36l-3,11.83" transform="translate(5.02)" fill="none" stroke="#000" stroke-linecap="round" stroke-width="7.5"/>
            <path d="M50.54,20,41.46,64.81" transform="translate(5.02)" fill="none" stroke="#000" stroke-linecap="round" stroke-width="7.51"/>
            <path d="M68.17,18.4,59.1,63.65" transform="translate(5.02)" fill="none" stroke="#000" stroke-linecap="round" stroke-width="7.54"/>
            <path d="M84.68,18.46,75.6,63.21" transform="translate(5.02)" fill="none" stroke="#000" stroke-linecap="round" stroke-width="7.5"/>
            <path d="M48.26,53.05c8.47,20.56,32.94,9.78,35,1.93.38.07,7.15.15,7.54.15a20.37,20.37,0,0,1-4.08,6.93c.08.85-.08,2.85,0,3.47,1.38,1.15,3.62,2.77,3.85,4.31.23,2.23-.16,1.54-.93,2.77a10.54,10.54,0,0,0-4.85-.92,1.85,1.85,0,0,1-1.38-1.31s-.62.92-1.62,2.15c-1.15,2.23-5.69,1.85-7.69.31-2.08-2-4.31-1-6,0a6.47,6.47,0,0,1-8.38.54,6.49,6.49,0,0,0-7.24-.92c-1.84.77-2.87,2.3-5.77-1.39-1.23-2.31-10.15-10.25-11-10.71v.43c-.48-.21-2-.91-2.31-1.06v-1.5c3.08-.37.71-2.5-1-3.66a4.17,4.17,0,0,1,0-.5l1.75,0a10.9,10.9,0,0,0,8,4.74c0-.6.15-5.85.15-5.85Z" transform="translate(5.02)" fill="#ffd203"/>
            <path d="M48.26,53.05c8.47,20.56,32.94,9.78,35,1.93.38.07,7.15.15,7.54.15a20.37,20.37,0,0,1-4.08,6.93c.08.85-.08,2.85,0,3.47,1.38,1.15,3.62,2.77,3.85,4.31.23,2.23-.16,1.54-.93,2.77a10.54,10.54,0,0,0-4.85-.92,1.85,1.85,0,0,1-1.38-1.31s-.62.92-1.62,2.15c-1.15,2.23-5.69,1.85-7.69.31-2.08-2-4.31-1-6,0a6.47,6.47,0,0,1-8.38.54,6.49,6.49,0,0,0-7.24-.92c-1.84.77-2.87,2.3-5.77-1.39-1.23-2.31-10.15-10.25-11-10.71v.43c-.48-.21-2-.91-2.31-1.06v-1.5c3.08-.37.71-2.5-1-3.66a4.17,4.17,0,0,1,0-.5l1.75,0a10.9,10.9,0,0,0,8,4.74c0-.6.15-5.85.15-5.85Z" transform="translate(5.02)" fill="none" stroke="#000" stroke-width="2.5"/>
            <path d="M58,26.15c-9.48,4.57-11.43,11.09-12.32,21-1.94-5.55-4.06-5.46-6.22-.21.09-6.57.81-12.28,2.84-15.24C44.67,30.81,52.2,28,58,26.15" transform="translate(5.02)" fill="#ffd203"/>
            <path d="M58,26.15c-9.48,4.57-11.43,11.09-12.32,21-1.94-5.55-4.06-5.46-6.22-.21.09-6.57.81-12.28,2.84-15.24C44.67,30.81,52.2,28,58,26.15Z" transform="translate(5.02)" fill="none" stroke="#000" stroke-width="3.75"/>
            <path d="M72.71,27.84c-7.62,9.05-8.1,21.89-3.91,34.82-4.26-7.07-9.74-12-18-5.64-1.77-9.46,1.43-20.13,5-22.75,2.54-1.17,10.1-3.69,16.14-6.14Z" transform="translate(5.02)" fill="#ffd203"/>
            <path d="M72.71,27.84c-7.62,9.05-8.1,21.89-3.91,34.82-4.26-7.07-9.74-12-18-5.64-1.77-9.46,1.43-20.13,5-22.75,2.54-1.17,10.1-3.69,16.14-6.14Z" transform="translate(5.02)" fill="none" stroke="#000" stroke-width="4.41"/>
            <path d="M87.91,28C81.73,36.56,78.26,44.55,82,55.43c-7-6.18-10.28-4.36-9.75,7.14-2.85-8-3.39-23.11,1-29.51,2.25-1,9.18-3,14.66-5.05" transform="translate(5.02)" fill="#ffd203"/>
            <path d="M87.91,28C81.73,36.56,78.26,44.55,82,55.43c-7-6.18-10.28-4.36-9.75,7.14-2.85-8-3.39-23.11,1-29.51C75.5,32.08,82.43,30.08,87.91,28Z" transform="translate(5.02)" fill="none" stroke="#000" stroke-width="3.81"/>
            <path d="M39.16,49.4h10v4.08h-10Z" transform="translate(5.02)" fill="#ffd203" stroke="#000" stroke-width="2.5"/>
            <path d="M42.26,51.5a.85.85,0,0,1-.88.84.85.85,0,1,1,.88-.84" transform="translate(5.02)"/>
            <path d="M42.26,51.5a.85.85,0,0,1-.88.84.85.85,0,1,1,.88-.84Z" transform="translate(5.02)" fill="none" stroke="#000"/>
            <path d="M45.06,51.5a.89.89,0,1,1-.89-.85.86.86,0,0,1,.89.85" transform="translate(5.02)"/>
            <path d="M45.06,51.5a.89.89,0,1,1-.89-.85A.86.86,0,0,1,45.06,51.5Z" transform="translate(5.02)" fill="none" stroke="#000"/>
            <path d="M48.09,51.5a.89.89,0,1,1-.89-.85.86.86,0,0,1,.89.85" transform="translate(5.02)"/>
            <path d="M48.09,51.5a.89.89,0,1,1-.89-.85A.86.86,0,0,1,48.09,51.5Z" transform="translate(5.02)" fill="none" stroke="#000"/>
            <path d="M84.69,47.62h10V51.7h-10Z" transform="translate(5.02)" fill="#ffd203" stroke="#000" stroke-width="2.5"/>
            <path d="M87.79,49.72a.87.87,0,0,1-.89.84.85.85,0,1,1,0-1.69.87.87,0,0,1,.89.85" transform="translate(5.02)"/>
            <path d="M87.79,49.72a.87.87,0,0,1-.89.84.85.85,0,1,1,0-1.69A.87.87,0,0,1,87.79,49.72Z" transform="translate(5.02)" fill="none" stroke="#000"/>
            <path d="M90.58,49.72a.86.86,0,0,1-.88.84.85.85,0,1,1,.88-.84" transform="translate(5.02)"/>
            <path d="M90.58,49.72a.86.86,0,0,1-.88.84.85.85,0,1,1,.88-.84Z" transform="translate(5.02)" fill="none" stroke="#000"/>
            <path d="M93.61,49.72a.86.86,0,0,1-.88.84.85.85,0,1,1,.88-.84" transform="translate(5.02)"/>
            <path d="M93.61,49.72a.86.86,0,0,1-.88.84.85.85,0,1,1,.88-.84Z" transform="translate(5.02)" fill="none" stroke="#000"/>
            <path d="M35.67,60.33a5.93,5.93,0,0,1,0-1.12h3.22C56.64,76,79.48,70.28,86.75,62" transform="translate(5.02)" fill="none" stroke="#000" stroke-width="2.5"/>
            <path d="M86.69,65.62l-3.32,4.9" transform="translate(5.02)" fill="none" stroke="#000" stroke-width="2.5"/>
            <path d="M54.39,65a.86.86,0,0,1-.88.85.85.85,0,1,1,0-1.69.86.86,0,0,1,.88.84" transform="translate(5.02)"/>
            <path d="M54.39,65a.86.86,0,0,1-.88.85.85.85,0,1,1,0-1.69A.86.86,0,0,1,54.39,65Z" transform="translate(5.02)" fill="none" stroke="#000"/>
            <path d="M66.07,67a.86.86,0,0,1-.88.84.85.85,0,1,1,.88-.84" transform="translate(5.02)"/>
            <path d="M66.07,67a.86.86,0,0,1-.88.84.85.85,0,1,1,.88-.84Z" transform="translate(5.02)" fill="none" stroke="#000"/>
            <path d="M76.93,65.06a.89.89,0,0,1-1.77,0,.89.89,0,0,1,1.77,0" transform="translate(5.02)"/>
            <path d="M76.93,65.06a.89.89,0,0,1-1.77,0,.89.89,0,0,1,1.77,0Z" transform="translate(5.02)" fill="none" stroke="#000"/>
            <path d="M27.82,71.69a3.65,3.65,0,0,1,1.67.77c2,1.61,5.24,2,7.22.51a5.31,5.31,0,0,1,6.46-.21c3.13,1.8,5.19,1.62,7.73.45,2.57-1.75,6.22-2,7.79-.27a7.2,7.2,0,0,0,9.24.15,4.61,4.61,0,0,1,6.2-.16,8.39,8.39,0,0,0,8.75,0c1.8-1.06,4.07-2.16,6.9-.19a6.91,6.91,0,0,0,7.29-.32,7.89,7.89,0,0,1,2.73-1.35" transform="translate(5.02)" fill="none" stroke="#fff" stroke-width="3.75"/>
            <path d="M27.82,74.46a3.65,3.65,0,0,1,1.67.77c2,1.61,5.24,2,7.22.51a5.31,5.31,0,0,1,6.46-.21c3.13,1.8,5.19,1.62,7.73.45,2.57-1.75,6.22-2,7.79-.27a7.21,7.21,0,0,0,9.24.15,4.61,4.61,0,0,1,6.2-.16,8.39,8.39,0,0,0,8.75,0c1.8-1.06,4.07-2.16,6.9-.19a6.91,6.91,0,0,0,7.29-.32,7.89,7.89,0,0,1,2.73-1.35" transform="translate(5.02)" fill="none" stroke="#fff" stroke-width="3.75"/>
            <path d="M27.82,77.23a3.65,3.65,0,0,1,1.67.77c2,1.61,5.24,2,7.22.51a5.31,5.31,0,0,1,6.46-.21c3.13,1.8,5.19,1.62,7.73.45,2.57-1.75,6.22-2,7.79-.27a7.21,7.21,0,0,0,9.24.15,4.61,4.61,0,0,1,6.2-.16,8.39,8.39,0,0,0,8.75,0c1.8-1.06,4.07-2.16,6.9-.19A6.91,6.91,0,0,0,97.07,78a7.89,7.89,0,0,1,2.73-1.35" transform="translate(5.02)" fill="none" stroke="#fff" stroke-width="3.75"/>
            <path d="M29.94,53.71a6.46,6.46,0,0,0,1.58.93,15.85,15.85,0,0,0,2-1c-2.33-3.63-3.75-1.36-3.62.1Z" transform="translate(5.02)" fill="#ffd203"/>
            <path d="M29.94,53.71a6.46,6.46,0,0,0,1.58.93,15.85,15.85,0,0,0,2-1c-2.33-3.63-3.75-1.36-3.62.1Z" transform="translate(5.02)" fill="none" stroke="#000" stroke-width="2.5"/>
            <path d="M85,51.73l8.38-.08-1.22,3.4L83,55.11s2-3.38,2-3.38" transform="translate(5.02)" fill="#ffd203"/>
            <path d="M85,51.73l8.38-.08-1.22,3.4L83,55.11S85,51.73,85,51.73Z" transform="translate(5.02)" fill="none" stroke="#000" stroke-width="2.5"/>
            <path d="M89.44,36.79a19.3,19.3,0,0,0,6.93-.16,16.08,16.08,0,0,1-1,4.51c-.43,0-6.93,0-7.3,0a6.16,6.16,0,0,0,1.34-4.35" transform="translate(5.02)" fill="#ffd203"/>
            <path d="M89.44,36.79a19.3,19.3,0,0,0,6.93-.16,16.08,16.08,0,0,1-1,4.51c-.43,0-6.93,0-7.3,0A6.16,6.16,0,0,0,89.44,36.79Z" transform="translate(5.02)" fill="none" stroke="#000" stroke-width="2.5"/>
            <path d="M74.93,20.14a77.07,77.07,0,0,0,9.3-1.06c.34.49-.16,2.57-.42,3.06-.57.09-9.27.75-9.78.77,1.11-1.14,1.14-1.8.9-2.77" transform="translate(5.02)" fill="#ffd203"/>
            <path d="M74.93,20.14a77.07,77.07,0,0,0,9.3-1.06c.34.49-.16,2.57-.42,3.06-.57.09-9.27.75-9.78.77C75.14,21.77,75.17,21.11,74.93,20.14Z" transform="translate(5.02)" fill="none" stroke="#000" stroke-width="2.19"/>
            <path d="M58.85,19.5c2.63-.11,6-.27,9.06-.64.28.45-.22,1.84-.41,2.34a78.88,78.88,0,0,0-8.84.58c1-.7,1.5-1.24.12-2.34Z" transform="translate(5.02)" fill="#ffd203"/>
            <path d="M58.85,19.5c2.63-.11,6-.27,9.06-.64.28.45-.22,1.84-.41,2.34a78.88,78.88,0,0,0-8.84.58c1-.7,1.5-1.24.12-2.34Z" transform="translate(5.02)" fill="none" stroke="#000" stroke-width="1.97"/>
            <path d="M42,21.16l8.13-.76-.83,3.37L41,23.9Z" transform="translate(5.02)" fill="#ffd203"/>
            <path d="M42,21.16l8.13-.76-.83,3.37L41,23.9Z" transform="translate(5.02)" fill="none" stroke="#000" stroke-width="2.5"/>
          </g>
        </g>
        <g>
          <path d="M0,0H27.74V33.24H0V0Z" transform="translate(5.02)" fill="#ed2939"/>
          <path d="M27.74,4.27V0h-3.2L0,29v4.22H3.38Z" transform="translate(5.02)" fill="#007300"/>
          <path d="M0,4.19V0H3.38L27.74,29v4.22H24.31Z" transform="translate(5.02)" fill="#007300"/>
          <path d="M0,20.24V13.56l27.75,0v6.68Z" transform="translate(5.02)" fill="#fff"/>
          <path d="M11.6,0h4.53l0,33.24H11.63Z" transform="translate(5.02)" fill="#fff"/>
        </g>
        <g>
          <path d="M0,66.69H27.74V100H0Z" transform="translate(5.02)" fill="#ed2939"/>
          <path d="M14.54,87.31c-.09.14.16.77.54.76a1.56,1.56,0,0,1-.22-.85Z" transform="translate(5.02)" fill="#002395"/>
          <path d="M14.54,87.31c-.09.14.16.77.54.76a1.56,1.56,0,0,1-.22-.85Z" transform="translate(5.02)" fill="none" stroke="#650000" stroke-width="1.08"/>
          <path d="M13.58,86.63c-.14,0-.47.85.06,1.14a1.48,1.48,0,0,1,.27-.82l-.28-.23Z" transform="translate(5.02)" fill="#002395"/>
          <path d="M13.58,86.63c-.14,0-.47.85.06,1.14a1.48,1.48,0,0,1,.27-.82l-.28-.23Z" transform="translate(5.02)" fill="none" stroke="#650000" stroke-width="1.08"/>
          <path d="M13.52,86.13c-.14-.14-.72.26-.7.86a1,1,0,0,1,.79-.37Z" transform="translate(5.02)" fill="#002395"/>
          <path d="M13.52,86.13c-.14-.14-.72.26-.7.86a1,1,0,0,1,.79-.37Z" transform="translate(5.02)" fill="none" stroke="#650000" stroke-width="1.08"/>
          <path d="M14.19,85.65c0-.19-.52-.4-.78,0A.9.9,0,0,1,14,86Z" transform="translate(5.02)" fill="#002395"/>
          <path d="M14.19,85.65c0-.19-.52-.4-.78,0A.9.9,0,0,1,14,86Z" transform="translate(5.02)" fill="none" stroke="#650000" stroke-width="1.08"/>
          <path d="M24.41,87.39a.36.36,0,0,0,.12.32,1.61,1.61,0,0,1,.19.39s.28-.76.21-.86-.5.14-.52.15" transform="translate(5.02)" fill="#002395"/>
          <path d="M24.41,87.39a.36.36,0,0,0,.12.32,1.61,1.61,0,0,1,.19.39s.28-.76.21-.86S24.43,87.38,24.41,87.39Z" transform="translate(5.02)" fill="none" stroke="#650000" stroke-width="1.08"/>
          <path d="M22.94,87.08c-.14,0-.4.59-.18,1a1.2,1.2,0,0,1,.41-.71Z" transform="translate(5.02)" fill="#002395"/>
          <path d="M22.94,87.08c-.14,0-.4.59-.18,1a1.2,1.2,0,0,1,.41-.71Z" transform="translate(5.02)" fill="none" stroke="#650000" stroke-width="1.08"/>
          <path d="M22.27,86.89c-.11-.12-.57.23-.55.74a.8.8,0,0,1,.62-.32Z" transform="translate(5.02)" fill="#002395"/>
          <path d="M22.27,86.89c-.11-.12-.57.23-.55.74a.8.8,0,0,1,.62-.32Z" transform="translate(5.02)" fill="none" stroke="#650000" stroke-width="1.08"/>
          <path d="M22.62,86.09c-.07-.16-.59,0-.7.47a.75.75,0,0,1,.67,0Z" transform="translate(5.02)" fill="#002395"/>
          <path d="M22.62,86.09c-.07-.16-.59,0-.7.47a.75.75,0,0,1,.67,0Z" transform="translate(5.02)" fill="none" stroke="#650000" stroke-width="1.08"/>
          <path d="M5.25,85.74c0-.17-.34-.66-.7-.47A1.33,1.33,0,0,1,5,86Z" transform="translate(5.02)" fill="#002395"/>
          <path d="M5.25,85.74c0-.17-.34-.66-.7-.47A1.33,1.33,0,0,1,5,86Z" transform="translate(5.02)" fill="none" stroke="#650000" stroke-width="1.08"/>
          <path d="M3.75,86.83c-.13-.15-.68.29-.64,1a.87.87,0,0,1,.73-.41Z" transform="translate(5.02)" fill="#002395"/>
          <path d="M3.75,86.83c-.13-.15-.68.29-.64,1a.87.87,0,0,1,.73-.41Z" transform="translate(5.02)" fill="none" stroke="#650000" stroke-width="1.08"/>
          <path d="M3.8,85.87c-.06-.22-.7-.19-.92.42a.83.83,0,0,1,.8.13Z" transform="translate(5.02)" fill="#002395"/>
          <path d="M3.8,85.87c-.06-.22-.7-.19-.92.42a.83.83,0,0,1,.8.13Z" transform="translate(5.02)" fill="none" stroke="#650000" stroke-width="1.08"/>
          <path d="M4.45,87.69a.42.42,0,0,0,.07.35,2,2,0,0,1,.13.42S5,87.8,5,87.69s-.51,0-.53,0" transform="translate(5.02)" fill="#002395"/>
          <path d="M4.45,87.69a.42.42,0,0,0,.07.35,2,2,0,0,1,.13.42S5,87.8,5,87.69,4.47,87.69,4.45,87.69Z" transform="translate(5.02)" fill="none" stroke="#650000" stroke-width="1.08"/>
          <path d="M2.86,80.1c0-.24-.61-.48-1,0a1,1,0,0,1,.72.46Z" transform="translate(5.02)" fill="#002395"/>
          <path d="M2.86,80.1c0-.24-.61-.48-1,0a1,1,0,0,1,.72.46Z" transform="translate(5.02)" fill="none" stroke="#650000" stroke-width="1.08"/>
          <path d="M2.22,81c-.13-.16-.67.29-.64,1a.88.88,0,0,1,.74-.4Z" transform="translate(5.02)" fill="#002395"/>
          <path d="M2.22,81c-.13-.16-.67.29-.64,1a.88.88,0,0,1,.74-.4Z" transform="translate(5.02)" fill="none" stroke="#650000" stroke-width="1.08"/>
          <path d="M4.45,80a.61.61,0,0,0-.91-.44,1.3,1.3,0,0,1,.56.76Z" transform="translate(5.02)" fill="#002395"/>
          <path d="M4.45,80a.61.61,0,0,0-.91-.44,1.3,1.3,0,0,1,.56.76Z" transform="translate(5.02)" fill="none" stroke="#650000" stroke-width="1.08"/>
          <path d="M5.18,80.83c.11-.13-.09-.8-.47-.84a1.68,1.68,0,0,1,.15.87Z" transform="translate(5.02)" fill="#002395"/>
          <path d="M5.18,80.83c.11-.13-.09-.8-.47-.84a1.68,1.68,0,0,1,.15.87Z" transform="translate(5.02)" fill="none" stroke="#650000" stroke-width="1.08"/>
          <path d="M7.23,81.61c-.38-.44,0-1.23.34-.89-.18-.33.12-.59.25-.42-.06-.27.22-.44.36-.2,0-.29.37-.47.48-.14,0-.29.42-.52.51-.1.08-.33.54-.37.58.1.14-.27.48-.25.5.14.15-.19.53.09.47.42.23,0,.52.41.24.76.51-.27.63.59.32,1,.16.1.17,0,.32.09a3,3,0,0,0,.63.24c.22,0,1,0,1.16,0s.38-.11.64-.19.67-.09,1-.18,8.33.13,8.56.11.57-.24.56-.51a.58.58,0,0,0-.56-.47,14.72,14.72,0,0,0-1.88,0,1.93,1.93,0,0,0-.79.33c-.08.06-.22.26-.34.39s-.43.11-.43,0,0,0-.11,0-.55.08-.53,0,0-.11-.12,0a1.7,1.7,0,0,1-.84,0c.07-.11.07-.11-.12,0s-.61.09-.65,0-.06,0-.13,0c-.56.14-.62,0-.53-.09s.23-.49.08-.46l-1.33.24c-.3,0-2.49,0-2.79,0a.73.73,0,0,1-.66-.69c0-.63.49-.79.82-.89a8,8,0,0,1,1.44-.23,7.35,7.35,0,0,0,1.48,0,8.44,8.44,0,0,1,1.22-.38,2.22,2.22,0,0,1,1.65.58c-.22.09-.33.15-.08.06l1.46-.3c.8,0,.59.09.2.18-.13.41-1.31,1-1.68,1a5.4,5.4,0,0,1-1.35,0,3.7,3.7,0,0,1-1.32-.25,4.14,4.14,0,0,0-1.81-.53c-.38,0-1.45.12-1.45.48,0,.64,1,.67,1.43.65a10.76,10.76,0,0,0,1.8-.2,4.62,4.62,0,0,1,1.31-.14c.35,0,.87.07,1,0a2.16,2.16,0,0,0,.72-.15,1.88,1.88,0,0,1,.95-.24c.39,0,3.3-.11,3.69-.09a1.11,1.11,0,0,1,1,1.11,1,1,0,0,1-.22.65c.17,0,.61.06.76.09s.71.34.76.61a2.11,2.11,0,0,0-.84-.33c-.06,0-6.4,0-6.9,0a3.58,3.58,0,0,1,2.65,1.74c.23.36.8.22,1,.17a1.68,1.68,0,0,0,.65-.43.67.67,0,0,1,.58-.17.25.25,0,0,1,.22.41c-.11.14,0,.08.3.08a.88.88,0,0,1,.7.32c-.16.15-.24,0,0,0s.51.44.34.55-.19,0,0,.07.37.21.41.54c-.25,0-.12,0,0,.09s.31.64-.14.66c-.16-.07-.16-.08-.12.08s-.06.57-.31.57-.66-.12-.69-.33,0,.41-.52.51a.62.62,0,0,1-.75-.28c0-.12,0,0-.19,0s-.4,0-.5-.31,0-.39.35-.42c.14,0,.18-.21.08-.23s0-.38.21-.29.77.12.89.24.16-.09,0-.28a2.83,2.83,0,0,0-1.7-.43,4.68,4.68,0,0,1-2.21.26,1,1,0,0,1-1.12-.79,2,2,0,0,0-1.54-1.38c-2-.18-1.91,0-.61,0,0,.17-.05.51.16.56s1.1-.2,1.28-.06a.62.62,0,0,1,.32.6c0,.33,0,.24-.15.38a.33.33,0,0,0,.16.53,1.44,1.44,0,0,1,.52.35c.16.15-.07.43-.21.34s-.15-.1-.16.09-.2.56-.5.58c-.06,0-.05-.12,0-.19s-.06.2-.15.31a1.09,1.09,0,0,1-.71.13c.07-.15,0-.08-.09,0s-.78.13-.49-.17c.08-.11-.1.14-.2.18s-.48.08-.48-.06c-.12.1-.41.1-.46,0s-.1.07-.26.1-.5,0-.52-.22,0-.07-.16,0c-.48.3-.71-.12-.71-.27a1,1,0,0,1,0-.4c.05-.1-.33-.13-.21-.32s.27-.4.53-.35.11,0,.05-.15.15-.14.38,0a.87.87,0,0,1,.46.55c.07.21.62,0,.86.07s.24-.36.1-.48-.53-.55-.69-.69-.06-.65.09-.77c.83-.54.37-.72.07-.67a3.41,3.41,0,0,0-1.33.61c-.25.27-2.19,1.56-2.36,1.7s-.44.18-.55,0-.18,0-.16.19A1,1,0,0,1,10,87.35a.67.67,0,0,1-.35-.15c-.11.5-.57.55-1,.51,0-.06.08-.18,0-.13s-.56.15-.92.13c0-.11.13-.24,0-.17-.12.23-.33.19-.66.16,0,0,.15-.2.08-.11s-.46.11-.7.11c0,0,.12-.28,0-.11a.85.85,0,0,1-.69.12c0-.12.06-.12.09-.19s0,0-.13,0-.21,0-.27-.1,0,.12-.07.19a.51.51,0,0,1-.29.23c-.18,0-.64.1-.71-.12a.4.4,0,0,1-.07-.43c.07-.11-.34.24-.52.27-.52.1-.58-.7-.35-.77s.19-.19.07-.28-.2-.48,0-.6a.8.8,0,0,1,.77,0c.13.09.43.41.37.17a.43.43,0,0,1,.18-.42c.1-.08.4-.11.48.08.19.44.32.63.55.62A8.78,8.78,0,0,1,7.29,86a8,8,0,0,0,1.58-.31,1.55,1.55,0,0,1-1.21,0c-.09,0-.31-.08-.31-.15s.2-.12-.08-.08a.57.57,0,0,1-.47-.19c0-.09.19-.39.27-.65-.19,0-.59.28-.73.56-.09-.11-.13,0-.46.07a.77.77,0,0,1-.56,0c-.14-.07-.7-.48-.43-.53a.69.69,0,0,0-.2-.07c-.2-.08-.38-.24-.33-.28s.06-.08,0-.09S4,84,4,84l-.3-.15a.75.75,0,0,1-.26-.43c-.12,0-.36-.2-.25-.27C3,83,2.88,82.76,3,82.68c-.1-.08-.18-.23-.1-.17-.12-.14-.08-.28,0-.28s0-.38-.11-.38-.42.12-.61,0A.86.86,0,0,1,2.05,81c.14-.22.43-.46.57-.43s.07.07,0-.14.2-.38.35-.43a.78.78,0,0,1,.66.07c.11.09.14.09.14-.07s.14-.18.26-.21a.43.43,0,0,1,.44.09c.11.15.18.33,0,.47s0,0,.22,0,.41,0,.46.17.11.45,0,.59-.4.51-.27.63.52.64.6.71.2.24.34.22l.43-.07c.49-.1.72-.15.08-.13a1,1,0,0,1,.57-.29c-.11-.16.31-.52.31-.56Z" transform="translate(5.02)" fill="#ffd203"/>
          <path d="M7.23,81.61c-.38-.44,0-1.23.34-.89-.18-.33.12-.59.25-.42-.06-.27.22-.44.36-.2,0-.29.37-.47.48-.14,0-.29.42-.52.51-.1.08-.33.54-.37.58.1.14-.27.48-.25.5.14.15-.19.53.09.47.42.23,0,.52.41.24.76.51-.27.63.59.32,1,.16.1.17,0,.32.09a3,3,0,0,0,.63.24c.22,0,1,0,1.16,0s.38-.11.64-.19.67-.09,1-.18,8.33.13,8.56.11.57-.24.56-.51a.58.58,0,0,0-.56-.47,14.72,14.72,0,0,0-1.88,0,1.93,1.93,0,0,0-.79.33c-.08.06-.22.26-.34.39s-.43.11-.43,0,0,0-.11,0-.55.08-.53,0,0-.11-.12,0a1.7,1.7,0,0,1-.84,0c.07-.11.07-.11-.12,0s-.61.09-.65,0-.06,0-.13,0c-.56.14-.62,0-.53-.09s.23-.49.08-.46l-1.33.24c-.3,0-2.49,0-2.79,0a.73.73,0,0,1-.66-.69c0-.63.49-.79.82-.89a8,8,0,0,1,1.44-.23,7.35,7.35,0,0,0,1.48,0,8.44,8.44,0,0,1,1.22-.38,2.22,2.22,0,0,1,1.65.58c-.22.09-.33.15-.08.06l1.46-.3c.8,0,.59.09.2.18-.13.41-1.31,1-1.68,1a5.4,5.4,0,0,1-1.35,0,3.7,3.7,0,0,1-1.32-.25,4.14,4.14,0,0,0-1.81-.53c-.38,0-1.45.12-1.45.48,0,.64,1,.67,1.43.65a10.76,10.76,0,0,0,1.8-.2,4.62,4.62,0,0,1,1.31-.14c.35,0,.87.07,1,0a2.16,2.16,0,0,0,.72-.15,1.88,1.88,0,0,1,.95-.24c.39,0,3.3-.11,3.69-.09a1.11,1.11,0,0,1,1,1.11,1,1,0,0,1-.22.65c.17,0,.61.06.76.09s.71.34.76.61a2.11,2.11,0,0,0-.84-.33c-.06,0-6.4,0-6.9,0a3.58,3.58,0,0,1,2.65,1.74c.23.36.8.22,1,.17a1.68,1.68,0,0,0,.65-.43.67.67,0,0,1,.58-.17.25.25,0,0,1,.22.41c-.11.14,0,.08.3.08a.88.88,0,0,1,.7.32c-.16.15-.24,0,0,0s.51.44.34.55-.19,0,0,.07.37.21.41.54c-.25,0-.12,0,0,.09s.31.64-.14.66c-.16-.07-.16-.08-.12.08s-.06.57-.31.57-.66-.12-.69-.33,0,.41-.52.51a.62.62,0,0,1-.75-.28c0-.12,0,0-.19,0s-.4,0-.5-.31,0-.39.35-.42c.14,0,.18-.21.08-.23s0-.38.21-.29.77.12.89.24.16-.09,0-.28a2.83,2.83,0,0,0-1.7-.43,4.68,4.68,0,0,1-2.21.26,1,1,0,0,1-1.12-.79,2,2,0,0,0-1.54-1.38c-2-.18-1.91,0-.61,0,0,.17-.05.51.16.56s1.1-.2,1.28-.06a.62.62,0,0,1,.32.6c0,.33,0,.24-.15.38a.33.33,0,0,0,.16.53,1.44,1.44,0,0,1,.52.35c.16.15-.07.43-.21.34s-.15-.1-.16.09-.2.56-.5.58c-.06,0-.05-.12,0-.19s-.06.2-.15.31a1.09,1.09,0,0,1-.71.13c.07-.15,0-.08-.09,0s-.78.13-.49-.17c.08-.11-.1.14-.2.18s-.48.08-.48-.06c-.12.1-.41.1-.46,0s-.1.07-.26.1-.5,0-.52-.22,0-.07-.16,0c-.48.3-.71-.12-.71-.27a1,1,0,0,1,0-.4c.05-.1-.33-.13-.21-.32s.27-.4.53-.35.11,0,.05-.15.15-.14.38,0a.87.87,0,0,1,.46.55c.07.21.62,0,.86.07s.24-.36.1-.48-.53-.55-.69-.69-.06-.65.09-.77c.83-.54.37-.72.07-.67a3.41,3.41,0,0,0-1.33.61c-.25.27-2.19,1.56-2.36,1.7s-.44.18-.55,0-.18,0-.16.19A1,1,0,0,1,10,87.35a.67.67,0,0,1-.35-.15c-.11.5-.57.55-1,.51,0-.06.08-.18,0-.13s-.56.15-.92.13c0-.11.13-.24,0-.17-.12.23-.33.19-.66.16,0,0,.15-.2.08-.11s-.46.11-.7.11c0,0,.12-.28,0-.11a.85.85,0,0,1-.69.12c0-.12.06-.12.09-.19s0,0-.13,0-.21,0-.27-.1,0,.12-.07.19a.51.51,0,0,1-.29.23c-.18,0-.64.1-.71-.12a.4.4,0,0,1-.07-.43c.07-.11-.34.24-.52.27-.52.1-.58-.7-.35-.77s.19-.19.07-.28-.2-.48,0-.6a.8.8,0,0,1,.77,0c.13.09.43.41.37.17a.43.43,0,0,1,.18-.42c.1-.08.4-.11.48.08.19.44.32.63.55.62A8.78,8.78,0,0,1,7.29,86a8,8,0,0,0,1.58-.31,1.55,1.55,0,0,1-1.21,0c-.09,0-.31-.08-.31-.15s.2-.12-.08-.08a.57.57,0,0,1-.47-.19c0-.09.19-.39.27-.65-.19,0-.59.28-.73.56-.09-.11-.13,0-.46.07a.77.77,0,0,1-.56,0c-.14-.07-.7-.48-.43-.53a.69.69,0,0,0-.2-.07c-.2-.08-.38-.24-.33-.28s.06-.08,0-.09S4,84,4,84l-.3-.15a.75.75,0,0,1-.26-.43c-.12,0-.36-.2-.25-.27C3,83,2.88,82.76,3,82.68c-.1-.08-.18-.23-.1-.17-.12-.14-.08-.28,0-.28s0-.38-.11-.38-.42.12-.61,0A.86.86,0,0,1,2.05,81c.14-.22.43-.46.57-.43s.07.07,0-.14.2-.38.35-.43a.78.78,0,0,1,.66.07c.11.09.14.09.14-.07s.14-.18.26-.21a.43.43,0,0,1,.44.09c.11.15.18.33,0,.47s0,0,.22,0,.41,0,.46.17.11.45,0,.59-.4.51-.27.63.52.64.6.71.2.24.34.22l.43-.07c.49-.1.72-.15.08-.13a1,1,0,0,1,.57-.29c-.11-.16.31-.52.31-.56Z" transform="translate(5.02)" fill="none" stroke="#650000" stroke-width="1.98"/>
          <path d="M8.06,82.48c.24.4.8.16.95.32s-.14.72-.23,1a.61.61,0,0,1-.86.05A10.64,10.64,0,0,0,8,82.67Z" transform="translate(5.02)" fill="#002395"/>
          <path d="M8.06,82.48c.24.4.8.16.95.32s-.14.72-.23,1a.61.61,0,0,1-.86.05A10.64,10.64,0,0,0,8,82.67Z" transform="translate(5.02)" fill="none" stroke="#650000" stroke-width="2.09"/>
          <path d="M25.09,86.85a.46.46,0,0,0-.31-.26" transform="translate(5.02)" fill="none" stroke="#650000" stroke-width="1.98"/>
          <g clip-path="url(#c)">
            <g opacity="0.3">
              <path d="M10.31,83.23a1.26,1.26,0,0,1,0,1.16" transform="translate(5.02)" fill="none" stroke="#650000" stroke-width="1.81"/>
            </g>
          </g>
          <g clip-path="url(#d)">
            <g opacity="0.3">
              <path d="M9.68,84a1.29,1.29,0,0,1,.39.84L10,85" transform="translate(5.02)" fill="none" stroke="#650000" stroke-width="1.81"/>
            </g>
          </g>
          <g clip-path="url(#e)">
            <g opacity="0.3">
              <path d="M9.61,84.22a2.25,2.25,0,0,1,.21.85l0,.14" transform="translate(5.02)" fill="none" stroke="#650000" stroke-width="1.81"/>
            </g>
          </g>
          <g clip-path="url(#f)">
            <g opacity="0.3">
              <path d="M9,84.5a1.31,1.31,0,0,1-.07.85l-.11.1" transform="translate(5.02)" fill="none" stroke="#650000" stroke-width="1.81"/>
            </g>
          </g>
          <g clip-path="url(#g)">
            <g opacity="0.3">
              <path d="M8.8,84.55c-.1.33-.21.8-.21.8" transform="translate(5.02)" fill="none" stroke="#650000" stroke-width="1.81"/>
            </g>
          </g>
          <g clip-path="url(#h)">
            <g opacity="0.3">
              <path d="M7.12,83.66a3,3,0,0,0-.42.47" transform="translate(5.02)" fill="none" stroke="#650000" stroke-width="1.81"/>
            </g>
          </g>
          <g clip-path="url(#i)">
            <g opacity="0.3">
              <path d="M7.33,84.13c-.28-.19-.6.14-.6.14" transform="translate(5.02)" fill="none" stroke="#650000" stroke-width="1.81"/>
            </g>
          </g>
          <path d="M11.19,81.53c-.18.08-.15.5-.15.5" transform="translate(5.02)" fill="none" stroke="#600" stroke-width="2.37"/>
          <path d="M7.26,80.93c.2.14.12.55.12.55" transform="translate(5.02)" fill="none" stroke="#600" stroke-width="2.08"/>
          <g clip-path="url(#j)">
            <g opacity="0.6">
              <path d="M7,84.65c-.07.22-.2.39-.18.53l-.11-.05c.09,0-.11-.36-.16-.28l.11-.08,0,0,0,0Z" transform="translate(5.02)" fill="#390000"/>
            </g>
          </g>
          <path d="M2.69,80.59a.77.77,0,0,1,.65.59l.14.41" transform="translate(5.02)" fill="none" stroke="#650000" stroke-width="1.98"/>
          <path d="M4.47,80.43a1.19,1.19,0,0,0-.19.73" transform="translate(5.02)" fill="none" stroke="#650000" stroke-width="1.98"/>
          <path d="M10.89,85.94c.13-.47.39-.57.7-.73s.83-.52.52-.23a5.84,5.84,0,0,1-.91.57c-.15.1-.25.33-.17.44" transform="translate(5.02)" fill="none" stroke="#650000" stroke-width="1.98"/>
          <path d="M10.24,84.17a1,1,0,0,1-.26,1.3" transform="translate(5.02)" fill="none" stroke="#650000" stroke-linecap="round" stroke-width="1.98"/>
          <path d="M11.2,82.56c.48.19.49.64.56.9-.17-.08-.29,0-.41-.09" transform="translate(5.02)" fill="none" stroke="#650000" stroke-width="1.98"/>
          <path d="M10.84,84.1a.69.69,0,0,1-.43.64" transform="translate(5.02)" fill="none" stroke="#650000" stroke-width="1.98"/>
          <path d="M3.8,80.13a.84.84,0,0,1-.08.5,1.76,1.76,0,0,0,0,.57" transform="translate(5.02)" fill="none" stroke="#650000" stroke-width="1.98"/>
          <path d="M23.57,84.59a1.46,1.46,0,0,0-.49.08" transform="translate(5.02)" fill="none" stroke="#650000" stroke-width="1.98"/>
          <path d="M24.47,85a2.13,2.13,0,0,1-.58.13" transform="translate(5.02)" fill="none" stroke="#650000" stroke-width="1.98"/>
          <path d="M24.81,85.55l-.4,0" transform="translate(5.02)" fill="none" stroke="#650000" stroke-width="1.98"/>
          <path d="M25.27,86.12a3.65,3.65,0,0,0-.6,0" transform="translate(5.02)" fill="none" stroke="#650000" stroke-width="1.98"/>
          <path d="M22.81,87.33a.78.78,0,0,1,.65-.56h.21" transform="translate(5.02)" fill="none" stroke="#650000" stroke-width="1.98"/>
          <path d="M22.49,86.64a2.75,2.75,0,0,1,.6-.1" transform="translate(5.02)" fill="none" stroke="#650000" stroke-width="1.98"/>
          <path d="M6.8,82.48a1,1,0,0,0-.65,1.32" transform="translate(5.02)" fill="none" stroke="#650000" stroke-width="1.98"/>
          <path d="M9.51,83.93c0,.37.06,1.4-.34,1.67a1.51,1.51,0,0,1-1.28.17" transform="translate(5.02)" fill="none" stroke="#650000" stroke-width="1.97"/>
          <path d="M8.63,84.5c0,.37-.41,1.27-1.15,1.15" transform="translate(5.02)" fill="none" stroke="#650000" stroke-width="1.98"/>
          <path d="M20.18,82c.1-.28.55-.54.55-.54" transform="translate(5.02)" fill="none" stroke="#650000" stroke-width="1.98"/>
          <path d="M19.54,82a1.7,1.7,0,0,1,.54-.55" transform="translate(5.02)" fill="none" stroke="#650000" stroke-width="1.98"/>
          <path d="M18.59,82a2.22,2.22,0,0,0,.48-.33l.31-.29" transform="translate(5.02)" fill="none" stroke="#650000" stroke-width="1.98"/>
          <path d="M17.77,82a5,5,0,0,0,.53-.28,1.29,1.29,0,0,0,.3-.29" transform="translate(5.02)" fill="none" stroke="#650000" stroke-width="1.88"/>
          <path d="M18,81.1a2,2,0,0,1-1-.68" transform="translate(5.02)" fill="none" stroke="#650000" stroke-width="1.98"/>
          <path d="M19.09,80.14a4.3,4.3,0,0,1-1.42.1" transform="translate(5.02)" fill="none" stroke="#650000" stroke-width="1.98"/>
          <path d="M7.42,85.42a2.12,2.12,0,0,0,.42-.56" transform="translate(5.02)" fill="none" stroke="#650000" stroke-width="1.98"/>
          <path d="M7.23,83.55a1.24,1.24,0,0,0-.92,1.57" transform="translate(5.02)" fill="none" stroke="#650000" stroke-width="2.14"/>
          <path d="M6.64,83.1c-.44.11-.62.89-.38,1.31" transform="translate(5.02)" fill="none" stroke="#650000" stroke-width="2.47"/>
          <path d="M11,82.82a2.1,2.1,0,0,1,.46.83c0,.26,0,.89-.73.88a1.43,1.43,0,0,0,0-.89" transform="translate(5.02)" fill="none" stroke="#650000" stroke-width="1.81"/>
          <path d="M9.9,81.2l0,.21" transform="translate(5.02)" fill="none" stroke="#650000" stroke-linecap="round" stroke-width="3.85"/>
          <path d="M8.45,80.81a2.79,2.79,0,0,1-.11.33" transform="translate(5.02)" fill="none" stroke="#650000" stroke-linecap="round" stroke-width="3.12"/>
          <path d="M9,80.44c.06.48-.16.74-.3.74s-.29.18-.21.47" transform="translate(5.02)" fill="none" stroke="#650000" stroke-width="1.98"/>
          <path d="M9.58,80.37a1.11,1.11,0,0,0-.22,1c.08.3,0,.39,0,.39" transform="translate(5.02)" fill="none" stroke="#650000" stroke-width="1.98"/>
          <path d="M10.68,82h-.31s-.19.41-.52.3,0,0,0,0" transform="translate(5.02)" fill="none" stroke="#650000" stroke-width="1.98"/>
          <path d="M9.06,81.65c.47,0,.37.38,0,.34,0,.44-.52.39-.47.05-.33,0-.46-.44,0-.38" transform="translate(5.02)" fill="none" stroke="#650000" stroke-width="1.98"/>
          <path d="M9.69,82.25c0,.49-.91.85-.89.1" transform="translate(5.02)" fill="none" stroke="#650000" stroke-width="1.98"/>
          <path d="M8.8,82.38a.38.38,0,0,1-.71.13c-.14-.21-.21-.32-.31-.34s-.09-.33-.11-.37a1.36,1.36,0,0,0-.11-.28" transform="translate(5.02)" fill="none" stroke="#650000" stroke-width="2"/>
          <path d="M10.25,80.87l-.25.26" transform="translate(5.02)" fill="none" stroke="#650000" stroke-width="1.98"/>
          <path d="M10.49,81.31c-.31,0-.33,0-.33,0" transform="translate(5.02)" fill="none" stroke="#650000" stroke-width="1.98"/>
          <path d="M9.38,81.13c.23-.08.77,0,.76.18s-.21.25-.76,0v-.21Z" transform="translate(5.02)" fill="none" stroke="#650000" stroke-width="2.24"/>
          <path d="M8.66,81.16c0-.28-.53-.55-.66-.4s.3.49.43.49,0,0,0,0" transform="translate(5.02)" fill="none" stroke="#650000" stroke-width="1.82"/>
          <path d="M10.17,82.19a1.77,1.77,0,0,0,0,1.09" transform="translate(5.02)" fill="none" stroke="#650000" stroke-width="1.98"/>
          <path d="M7.68,82.34a.35.35,0,0,1-.32.09" transform="translate(5.02)" fill="none" stroke="#650000" stroke-width="1.98"/>
          <path d="M8,82.36a1.18,1.18,0,0,1-.31.79" transform="translate(5.02)" fill="none" stroke="#650000" stroke-width="2.08"/>
          <path d="M7.73,82.12a1.73,1.73,0,0,0,0,1" transform="translate(5.02)" fill="none" stroke="#650000" stroke-width="2.3"/>
          <path d="M9.2,82.78a1.31,1.31,0,0,0,.22.83" transform="translate(5.02)" fill="none" stroke="#650000" stroke-width="2.08"/>
          <path d="M9.52,82.59a1.66,1.66,0,0,1-.16,1" transform="translate(5.02)" fill="none" stroke="#650000" stroke-width="2.29"/>
          <path d="M11.28,82.27a1.8,1.8,0,0,1,.47.11.54.54,0,0,1-.51.2" transform="translate(5.02)" fill="none" stroke="#650000" stroke-width="1.98"/>
          <path d="M3,82.69a1,1,0,0,0,.47,0" transform="translate(5.02)" fill="none" stroke="#650000" stroke-width="1.98"/>
          <path d="M3.17,83.09A1.08,1.08,0,0,0,3.9,83" transform="translate(5.02)" fill="none" stroke="#650000" stroke-width="1.8"/>
          <path d="M4.88,84.68a1.69,1.69,0,0,0,.63-.33" transform="translate(5.02)" fill="none" stroke="#650000" stroke-width="1.98"/>
          <path d="M3.7,86.66a2.28,2.28,0,0,1,.6,0" transform="translate(5.02)" fill="none" stroke="#650000" stroke-width="1.98"/>
          <path d="M4.42,87.27a1.64,1.64,0,0,1,.39-.39" transform="translate(5.02)" fill="none" stroke="#650000" stroke-width="1.98"/>
          <path d="M6.6,87.55A1.44,1.44,0,0,0,6.69,87" transform="translate(5.02)" fill="none" stroke="#650000" stroke-width="1.98"/>
          <path d="M7.3,87.55A1,1,0,0,0,7.46,87" transform="translate(5.02)" fill="none" stroke="#650000" stroke-width="1.98"/>
          <path d="M7.86,87.54A1.21,1.21,0,0,0,8,86.92" transform="translate(5.02)" fill="none" stroke="#650000" stroke-width="1.98"/>
          <path d="M8.74,87.57a1.3,1.3,0,0,0,.1-.52" transform="translate(5.02)" fill="none" stroke="#650000" stroke-width="1.98"/>
          <path d="M15,86.74c-.35-.07-.56.39-.56.39" transform="translate(5.02)" fill="none" stroke="#650000" stroke-width="1.98"/>
          <path d="M15.48,86.67a1.42,1.42,0,0,1-.31.65" transform="translate(5.02)" fill="none" stroke="#650000" stroke-width="1.98"/>
          <path d="M16,86.64a1.65,1.65,0,0,1-.33.68" transform="translate(5.02)" fill="none" stroke="#650000" stroke-width="1.98"/>
          <path d="M16.71,86.53a1.28,1.28,0,0,1-.33.66" transform="translate(5.02)" fill="none" stroke="#650000" stroke-width="1.98"/>
          <path d="M17.21,86.39a1.66,1.66,0,0,1-.27,1" transform="translate(5.02)" fill="none" stroke="#650000" stroke-width="1.98"/>
          <path d="M17.81,86.54a1,1,0,0,1,0,.44" transform="translate(5.02)" fill="none" stroke="#650000" stroke-width="1.98"/>
          <path d="M14,85.83a.62.62,0,0,1,.36.31" transform="translate(5.02)" fill="none" stroke="#650000" stroke-width="1.98"/>
          <path d="M13.63,86.48c.12-.41.65-.21.71-.1" transform="translate(5.02)" fill="none" stroke="#650000" stroke-width="1.98"/>
          <path d="M12,85.7c-.33.11-.49.12-.6,0" transform="translate(5.02)" fill="none" stroke="#650000" stroke-linecap="round" stroke-width="1.98"/>
          <path d="M12.32,85.43c-.29.11-.46.15-.6.06" transform="translate(5.02)" fill="none" stroke="#650000" stroke-linecap="round" stroke-width="1.91"/>
          <path d="M12.81,85.1c-.19.11-.3.15-.4.06" transform="translate(5.02)" fill="none" stroke="#650000" stroke-linecap="round" stroke-width="1.56"/>
          <path d="M13.16,84.84c-.24.11-.38.15-.49.06" transform="translate(5.02)" fill="none" stroke="#650000" stroke-linecap="round" stroke-width="1.73"/>
          <path d="M3.77,80.13a.93.93,0,0,1-.07.5,1.59,1.59,0,0,0,0,.57" transform="translate(5.02)" fill="none" stroke="#650000" stroke-width="1.98"/>
          <path d="M4.51,80.43a1.19,1.19,0,0,0-.19.73" transform="translate(5.02)" fill="none" stroke="#650000" stroke-width="1.98"/>
          <path d="M2.71,80.54a.8.8,0,0,1,.68.59c.08.26.14.41.14.41" transform="translate(5.02)" fill="none" stroke="#650000" stroke-width="2"/>
          <path d="M14.48,96.55c-.09.14.16.77.55.76a1.63,1.63,0,0,1-.23-.85Z" transform="translate(5.02)" fill="#002395"/>
          <path d="M14.48,96.55c-.09.14.16.77.55.76a1.63,1.63,0,0,1-.23-.85Z" transform="translate(5.02)" fill="none" stroke="#650000" stroke-width="1.08"/>
          <path d="M13.53,95.87c-.14,0-.48.85.06,1.14a1.48,1.48,0,0,1,.27-.82L13.58,96Z" transform="translate(5.02)" fill="#002395"/>
          <path d="M13.53,95.87c-.14,0-.48.85.06,1.14a1.48,1.48,0,0,1,.27-.82L13.58,96Z" transform="translate(5.02)" fill="none" stroke="#650000" stroke-width="1.08"/>
          <path d="M13.46,95.37c-.13-.13-.71.26-.69.86a1,1,0,0,1,.78-.37Z" transform="translate(5.02)" fill="#002395"/>
          <path d="M13.46,95.37c-.13-.13-.71.26-.69.86a1,1,0,0,1,.78-.37Z" transform="translate(5.02)" fill="none" stroke="#650000" stroke-width="1.08"/>
          <path d="M14.14,94.89c0-.19-.52-.4-.79,0a.9.9,0,0,1,.61.39Z" transform="translate(5.02)" fill="#002395"/>
          <path d="M14.14,94.89c0-.19-.52-.4-.79,0a.9.9,0,0,1,.61.39Z" transform="translate(5.02)" fill="none" stroke="#650000" stroke-width="1.08"/>
          <path d="M24.36,96.63a.37.37,0,0,0,.12.33,1.32,1.32,0,0,1,.18.38s.28-.75.21-.86-.5.14-.51.15" transform="translate(5.02)" fill="#002395"/>
          <path d="M24.36,96.63a.37.37,0,0,0,.12.33,1.32,1.32,0,0,1,.18.38s.28-.75.21-.86S24.37,96.62,24.36,96.63Z" transform="translate(5.02)" fill="none" stroke="#650000" stroke-width="1.08"/>
          <path d="M22.89,96.32c-.14,0-.4.59-.18,1a1.25,1.25,0,0,1,.41-.71Z" transform="translate(5.02)" fill="#002395"/>
          <path d="M22.89,96.32c-.14,0-.4.59-.18,1a1.25,1.25,0,0,1,.41-.71Z" transform="translate(5.02)" fill="none" stroke="#650000" stroke-width="1.08"/>
          <path d="M22.22,96.13c-.11-.12-.58.23-.56.74a.8.8,0,0,1,.63-.31Z" transform="translate(5.02)" fill="#002395"/>
          <path d="M22.22,96.13c-.11-.12-.58.23-.56.74a.8.8,0,0,1,.63-.31Z" transform="translate(5.02)" fill="none" stroke="#650000" stroke-width="1.08"/>
          <path d="M22.57,95.33c-.08-.16-.6,0-.7.47a.73.73,0,0,1,.67,0Z" transform="translate(5.02)" fill="#002395"/>
          <path d="M22.57,95.33c-.08-.16-.6,0-.7.47a.73.73,0,0,1,.67,0Z" transform="translate(5.02)" fill="none" stroke="#650000" stroke-width="1.08"/>
          <path d="M5.2,95c0-.17-.34-.66-.7-.47a1.33,1.33,0,0,1,.42.7Z" transform="translate(5.02)" fill="#002395"/>
          <path d="M5.2,95c0-.17-.34-.66-.7-.47a1.33,1.33,0,0,1,.42.7Z" transform="translate(5.02)" fill="none" stroke="#650000" stroke-width="1.08"/>
          <path d="M3.7,96.07c-.13-.15-.68.3-.65,1a.92.92,0,0,1,.74-.41Z" transform="translate(5.02)" fill="#002395"/>
          <path d="M3.7,96.07c-.13-.15-.68.3-.65,1a.92.92,0,0,1,.74-.41Z" transform="translate(5.02)" fill="none" stroke="#650000" stroke-width="1.08"/>
          <path d="M3.75,95.11c-.06-.22-.7-.19-.92.42a.81.81,0,0,1,.79.13Z" transform="translate(5.02)" fill="#002395"/>
          <path d="M3.75,95.11c-.06-.22-.7-.19-.92.42a.81.81,0,0,1,.79.13Z" transform="translate(5.02)" fill="none" stroke="#650000" stroke-width="1.08"/>
          <path d="M4.4,96.93a.39.39,0,0,0,.07.35,1.76,1.76,0,0,1,.12.42s.39-.66.34-.77-.51,0-.53,0" transform="translate(5.02)" fill="#002395"/>
          <path d="M4.4,96.93a.39.39,0,0,0,.07.35,1.76,1.76,0,0,1,.12.42s.39-.66.34-.77S4.42,96.93,4.4,96.93Z" transform="translate(5.02)" fill="none" stroke="#650000" stroke-width="1.08"/>
          <path d="M2.81,89.34c0-.24-.62-.48-1,0a1,1,0,0,1,.72.47Z" transform="translate(5.02)" fill="#002395"/>
          <path d="M2.81,89.34c0-.24-.62-.48-1,0a1,1,0,0,1,.72.47Z" transform="translate(5.02)" fill="none" stroke="#650000" stroke-width="1.08"/>
          <path d="M2.17,90.28c-.13-.16-.68.29-.65,1a.89.89,0,0,1,.74-.41Z" transform="translate(5.02)" fill="#002395"/>
          <path d="M2.17,90.28c-.13-.16-.68.29-.65,1a.89.89,0,0,1,.74-.41Z" transform="translate(5.02)" fill="none" stroke="#650000" stroke-width="1.08"/>
          <path d="M4.4,89.26a.61.61,0,0,0-.91-.44,1.35,1.35,0,0,1,.56.76Z" transform="translate(5.02)" fill="#002395"/>
          <path d="M4.4,89.26a.61.61,0,0,0-.91-.44,1.35,1.35,0,0,1,.56.76Z" transform="translate(5.02)" fill="none" stroke="#650000" stroke-width="1.08"/>
          <path d="M5.13,90.07c.1-.13-.09-.8-.47-.84a1.68,1.68,0,0,1,.15.87Z" transform="translate(5.02)" fill="#002395"/>
          <path d="M5.13,90.07c.1-.13-.09-.8-.47-.84a1.68,1.68,0,0,1,.15.87Z" transform="translate(5.02)" fill="none" stroke="#650000" stroke-width="1.08"/>
          <path d="M7.18,90.85c-.39-.44,0-1.23.34-.89-.18-.33.11-.59.25-.42-.06-.27.22-.44.36-.2-.05-.29.37-.47.48-.14,0-.29.42-.52.51-.1.08-.32.54-.37.58.1.13-.27.48-.25.5.14.14-.19.53.09.46.42.24-.05.53.41.24.76.52-.27.64.59.32,1,.17.1.18,0,.32.09a2.88,2.88,0,0,0,.64.24c.21,0,1,0,1.16,0a5,5,0,0,0,.64-.19c.27-.09.67-.09,1-.18s8.33.13,8.56.11.57-.24.55-.51a.57.57,0,0,0-.55-.47,14.86,14.86,0,0,0-1.89,0,1.77,1.77,0,0,0-.78.34,2.74,2.74,0,0,0-.35.38c-.11.1-.42.11-.42,0s0,0-.11,0-.56.07-.54,0,0-.12-.12,0a1.66,1.66,0,0,1-.83,0c.07-.11.07-.11-.12,0s-.62.1-.65,0-.06,0-.13,0c-.57.14-.62,0-.53-.09s.22-.49.08-.46L15.85,91c-.31,0-2.5,0-2.8,0a.75.75,0,0,1-.66-.69c0-.63.5-.79.82-.88a7.22,7.22,0,0,1,1.44-.24,7.45,7.45,0,0,0,1.49,0,9.4,9.4,0,0,1,1.22-.38,2.23,2.23,0,0,1,1.65.58c-.23.1-.33.15-.08.06s1.23-.24,1.46-.3c.8,0,.59.09.2.18-.13.41-1.31,1-1.69,1a5.33,5.33,0,0,1-1.34,0,4,4,0,0,1-1.33-.24,4.13,4.13,0,0,0-1.81-.54c-.37,0-1.44.12-1.44.48,0,.64,1,.67,1.42.65a11.7,11.7,0,0,0,1.8-.19,4.66,4.66,0,0,1,1.31-.15c.36,0,.88.07,1,.05a1.89,1.89,0,0,0,.71-.15,2,2,0,0,1,1-.24c.39,0,3.3-.11,3.69-.09a1.09,1.09,0,0,1,1,1.11.93.93,0,0,1-.22.65c.18,0,.62.06.76.09s.72.34.77.61a2.18,2.18,0,0,0-.84-.33h-6.9a3.6,3.6,0,0,1,2.65,1.74c.23.36.8.22,1,.17a1.72,1.72,0,0,0,.64-.43.68.68,0,0,1,.58-.17.25.25,0,0,1,.22.41c-.1.14,0,.08.3.08a.88.88,0,0,1,.71.32c-.16.15-.24,0,0,0s.51.44.34.56-.2,0,0,.07.37.2.41.53c-.25,0-.13,0,0,.09s.3.65-.15.67C25,96,25,96,25,96.18s-.05.57-.3.57a.58.58,0,0,1-.7-.33c0-.22,0,.41-.52.51a.62.62,0,0,1-.74-.27c0-.12,0,0-.2,0s-.4,0-.49-.31,0-.39.35-.42c.14,0,.18-.2.07-.23s0-.38.22-.29.76.12.89.24.16-.09,0-.28a3,3,0,0,0-1.71-.43,4.66,4.66,0,0,1-2.21.26,1.05,1.05,0,0,1-1.12-.79A2,2,0,0,0,17,93c-2-.18-1.91,0-.6,0,0,.17-.06.51.16.56s1.09-.2,1.27-.06a.59.59,0,0,1,.32.6c0,.33,0,.24-.14.38a.33.33,0,0,0,.16.53,1.44,1.44,0,0,1,.52.35c.16.15-.08.43-.22.34s-.14-.1-.16.09-.19.56-.49.58c-.07,0,0-.12,0-.19s-.06.21-.16.31a1.12,1.12,0,0,1-.7.14c.06-.15,0-.09-.1,0s-.78.13-.48-.17c.07-.11-.11.14-.21.18s-.47.08-.47-.06c-.12.11-.42.11-.46,0s-.1.08-.26.1-.51,0-.53-.22,0-.07-.16,0a.43.43,0,0,1-.71-.27.84.84,0,0,1,0-.4c0-.1-.33-.13-.22-.32s.28-.39.54-.35.1,0,0-.15.14-.14.37,0a.86.86,0,0,1,.47.55c.07.21.62,0,.85.07s.25-.36.11-.48-.54-.55-.7-.69,0-.65.09-.77c.83-.54.38-.72.07-.67a3.2,3.2,0,0,0-1.32.62c-.25.26-2.19,1.55-2.37,1.69s-.43.18-.54,0-.18,0-.16.19A1,1,0,0,1,10,96.59a.73.73,0,0,1-.36-.15c-.1.51-.56.56-1,.51,0-.06.07-.17,0-.13s-.56.15-.92.13c0-.11.12-.24,0-.17-.12.23-.33.19-.67.16,0,0,.16-.2.08-.11s-.45.11-.69.12c0,0,.12-.29,0-.12a.82.82,0,0,1-.68.12c-.05-.12,0-.12.08-.19s0,0-.12,0-.22,0-.27-.1,0,.12-.07.19-.11.19-.29.24-.64.09-.71-.12a.38.38,0,0,1-.07-.43c.07-.12-.34.23-.52.26-.52.1-.59-.69-.36-.77s.2-.19.07-.28-.19-.48,0-.6a.78.78,0,0,1,.76-.05c.14.09.43.41.38.17a.43.43,0,0,1,.17-.41c.1-.09.41-.12.49.07.18.44.32.63.55.63a9.27,9.27,0,0,1,1.35-.28A8,8,0,0,0,8.81,95a1.56,1.56,0,0,1-1.21,0c-.08,0-.3-.08-.3-.15s.2-.12-.09-.07a.59.59,0,0,1-.46-.2c0-.09.19-.39.26-.64-.18,0-.59.27-.72.55-.09-.11-.13,0-.47.07a.75.75,0,0,1-.55,0c-.14-.07-.7-.48-.43-.53a.65.65,0,0,0-.21-.07c-.19-.08-.38-.24-.32-.28s.05-.07,0-.09-.37-.21-.31-.28a2.59,2.59,0,0,0-.29-.14.8.8,0,0,1-.27-.44c-.11,0-.36-.2-.25-.27C3,92.22,2.83,92,3,91.92c-.11-.08-.18-.23-.11-.17-.11-.14-.08-.28,0-.28s.06-.38-.1-.38-.42.12-.61,0A.85.85,0,0,1,2,90.25c.14-.22.42-.45.57-.43s.07.07,0-.14.2-.38.36-.43a.78.78,0,0,1,.66.07c.1.09.14.09.14-.07S3.9,89.07,4,89a.44.44,0,0,1,.43.09c.11.15.18.33,0,.47s0,0,.21,0,.42,0,.47.17a.59.59,0,0,1-.06.6c-.16.14-.39.5-.26.62s.51.64.6.71.2.24.34.22l.43-.07c.49-.1.71-.15.08-.13a1,1,0,0,1,.57-.29c-.11-.16.31-.51.31-.56Z" transform="translate(5.02)" fill="#ffd203"/>
          <path d="M7.18,90.85c-.39-.44,0-1.23.34-.89-.18-.33.11-.59.25-.42-.06-.27.22-.44.36-.2-.05-.29.37-.47.48-.14,0-.29.42-.52.51-.1.08-.32.54-.37.58.1.13-.27.48-.25.5.14.14-.19.53.09.46.42.24-.05.53.41.24.76.52-.27.64.59.32,1,.17.1.18,0,.32.09a2.88,2.88,0,0,0,.64.24c.21,0,1,0,1.16,0a5,5,0,0,0,.64-.19c.27-.09.67-.09,1-.18s8.33.13,8.56.11.57-.24.55-.51a.57.57,0,0,0-.55-.47,14.86,14.86,0,0,0-1.89,0,1.77,1.77,0,0,0-.78.34,2.74,2.74,0,0,0-.35.38c-.11.1-.42.11-.42,0s0,0-.11,0-.56.07-.54,0,0-.12-.12,0a1.66,1.66,0,0,1-.83,0c.07-.11.07-.11-.12,0s-.62.1-.65,0-.06,0-.13,0c-.57.14-.62,0-.53-.09s.22-.49.08-.46L15.85,91c-.31,0-2.5,0-2.8,0a.75.75,0,0,1-.66-.69c0-.63.5-.79.82-.88a7.22,7.22,0,0,1,1.44-.24,7.45,7.45,0,0,0,1.49,0,9.4,9.4,0,0,1,1.22-.38,2.23,2.23,0,0,1,1.65.58c-.23.1-.33.15-.08.06s1.23-.24,1.46-.3c.8,0,.59.09.2.18-.13.41-1.31,1-1.69,1a5.33,5.33,0,0,1-1.34,0,4,4,0,0,1-1.33-.24,4.13,4.13,0,0,0-1.81-.54c-.37,0-1.44.12-1.44.48,0,.64,1,.67,1.42.65a11.7,11.7,0,0,0,1.8-.19,4.66,4.66,0,0,1,1.31-.15c.36,0,.88.07,1,.05a1.89,1.89,0,0,0,.71-.15,2,2,0,0,1,1-.24c.39,0,3.3-.11,3.69-.09a1.09,1.09,0,0,1,1,1.11.93.93,0,0,1-.22.65c.18,0,.62.06.76.09s.72.34.77.61a2.18,2.18,0,0,0-.84-.33h-6.9a3.6,3.6,0,0,1,2.65,1.74c.23.36.8.22,1,.17a1.72,1.72,0,0,0,.64-.43.68.68,0,0,1,.58-.17.25.25,0,0,1,.22.41c-.1.14,0,.08.3.08a.88.88,0,0,1,.71.32c-.16.15-.24,0,0,0s.51.44.34.56-.2,0,0,.07.37.2.41.53c-.25,0-.13,0,0,.09s.3.65-.15.67C25,96,25,96,25,96.18s-.05.57-.3.57a.58.58,0,0,1-.7-.33c0-.22,0,.41-.52.51a.62.62,0,0,1-.74-.27c0-.12,0,0-.2,0s-.4,0-.49-.31,0-.39.35-.42c.14,0,.18-.2.07-.23s0-.38.22-.29.76.12.89.24.16-.09,0-.28a3,3,0,0,0-1.71-.43,4.66,4.66,0,0,1-2.21.26,1.05,1.05,0,0,1-1.12-.79A2,2,0,0,0,17,93c-2-.18-1.91,0-.6,0,0,.17-.06.51.16.56s1.09-.2,1.27-.06a.59.59,0,0,1,.32.6c0,.33,0,.24-.14.38a.33.33,0,0,0,.16.53,1.44,1.44,0,0,1,.52.35c.16.15-.08.43-.22.34s-.14-.1-.16.09-.19.56-.49.58c-.07,0,0-.12,0-.19s-.06.21-.16.31a1.12,1.12,0,0,1-.7.14c.06-.15,0-.09-.1,0s-.78.13-.48-.17c.07-.11-.11.14-.21.18s-.47.08-.47-.06c-.12.11-.42.11-.46,0s-.1.08-.26.1-.51,0-.53-.22,0-.07-.16,0a.43.43,0,0,1-.71-.27.84.84,0,0,1,0-.4c0-.1-.33-.13-.22-.32s.28-.39.54-.35.1,0,0-.15.14-.14.37,0a.86.86,0,0,1,.47.55c.07.21.62,0,.85.07s.25-.36.11-.48-.54-.55-.7-.69,0-.65.09-.77c.83-.54.38-.72.07-.67a3.2,3.2,0,0,0-1.32.62c-.25.26-2.19,1.55-2.37,1.69s-.43.18-.54,0-.18,0-.16.19A1,1,0,0,1,10,96.59a.73.73,0,0,1-.36-.15c-.1.51-.56.56-1,.51,0-.06.07-.17,0-.13s-.56.15-.92.13c0-.11.12-.24,0-.17-.12.23-.33.19-.67.16,0,0,.16-.2.08-.11s-.45.11-.69.12c0,0,.12-.29,0-.12a.82.82,0,0,1-.68.12c-.05-.12,0-.12.08-.19s0,0-.12,0-.22,0-.27-.1,0,.12-.07.19-.11.19-.29.24-.64.09-.71-.12a.38.38,0,0,1-.07-.43c.07-.12-.34.23-.52.26-.52.1-.59-.69-.36-.77s.2-.19.07-.28-.19-.48,0-.6a.78.78,0,0,1,.76-.05c.14.09.43.41.38.17a.43.43,0,0,1,.17-.41c.1-.09.41-.12.49.07.18.44.32.63.55.63a9.27,9.27,0,0,1,1.35-.28A8,8,0,0,0,8.81,95a1.56,1.56,0,0,1-1.21,0c-.08,0-.3-.08-.3-.15s.2-.12-.09-.07a.59.59,0,0,1-.46-.2c0-.09.19-.39.26-.64-.18,0-.59.27-.72.55-.09-.11-.13,0-.47.07a.75.75,0,0,1-.55,0c-.14-.07-.7-.48-.43-.53a.65.65,0,0,0-.21-.07c-.19-.08-.38-.24-.32-.28s.05-.07,0-.09-.37-.21-.31-.28a2.59,2.59,0,0,0-.29-.14.8.8,0,0,1-.27-.44c-.11,0-.36-.2-.25-.27C3,92.22,2.83,92,3,91.92c-.11-.08-.18-.23-.11-.17-.11-.14-.08-.28,0-.28s.06-.38-.1-.38-.42.12-.61,0A.85.85,0,0,1,2,90.25c.14-.22.42-.45.57-.43s.07.07,0-.14.2-.38.36-.43a.78.78,0,0,1,.66.07c.1.09.14.09.14-.07S3.9,89.07,4,89a.44.44,0,0,1,.43.09c.11.15.18.33,0,.47s0,0,.21,0,.42,0,.47.17a.59.59,0,0,1-.06.6c-.16.14-.39.5-.26.62s.51.64.6.71.2.24.34.22l.43-.07c.49-.1.71-.15.08-.13a1,1,0,0,1,.57-.29c-.11-.16.31-.51.31-.56Z" transform="translate(5.02)" fill="none" stroke="#650000" stroke-width="1.98"/>
          <path d="M8,91.72c.23.4.8.16,1,.32s-.14.73-.24,1a.59.59,0,0,1-.85,0c.09-.38.1-1.2.12-1.23Z" transform="translate(5.02)" fill="#002395"/>
          <path d="M8,91.72c.23.4.8.16,1,.32s-.14.73-.24,1a.59.59,0,0,1-.85,0c.09-.38.1-1.2.12-1.23Z" transform="translate(5.02)" fill="none" stroke="#650000" stroke-width="2.09"/>
          <path d="M25,96.09a.44.44,0,0,0-.31-.26" transform="translate(5.02)" fill="none" stroke="#650000" stroke-width="1.98"/>
          <g clip-path="url(#k)">
            <g opacity="0.3">
              <path d="M10.26,92.47a1.26,1.26,0,0,1,0,1.16" transform="translate(5.02)" fill="none" stroke="#650000" stroke-width="1.81"/>
            </g>
          </g>
          <g clip-path="url(#l)">
            <g opacity="0.3">
              <path d="M9.63,93.23a1.29,1.29,0,0,1,.38.85l0,.18" transform="translate(5.02)" fill="none" stroke="#650000" stroke-width="1.81"/>
            </g>
          </g>
          <g clip-path="url(#m)">
            <g opacity="0.3">
              <path d="M9.56,93.46a2.72,2.72,0,0,1,.21.85l0,.14" transform="translate(5.02)" fill="none" stroke="#650000" stroke-width="1.81"/>
            </g>
          </g>
          <g clip-path="url(#n)">
            <g opacity="0.3">
              <path d="M8.93,93.74a1.31,1.31,0,0,1-.07.85l-.11.1" transform="translate(5.02)" fill="none" stroke="#650000" stroke-width="1.81"/>
            </g>
          </g>
          <g clip-path="url(#o)">
            <g opacity="0.3">
              <path d="M8.75,93.79c-.1.33-.21.8-.21.8" transform="translate(5.02)" fill="none" stroke="#650000" stroke-width="1.81"/>
            </g>
          </g>
          <g clip-path="url(#p)">
            <g opacity="0.3">
              <path d="M7.07,92.9a3.29,3.29,0,0,0-.43.47" transform="translate(5.02)" fill="none" stroke="#650000" stroke-width="1.81"/>
            </g>
          </g>
          <g clip-path="url(#q)">
            <g opacity="0.3">
              <path d="M7.28,93.37c-.28-.19-.6.14-.6.14" transform="translate(5.02)" fill="none" stroke="#650000" stroke-width="1.81"/>
            </g>
          </g>
          <path d="M11.14,90.77c-.18.08-.16.51-.16.51" transform="translate(5.02)" fill="none" stroke="#600" stroke-width="2.37"/>
          <path d="M7.2,90.18c.2.13.12.54.12.54" transform="translate(5.02)" fill="none" stroke="#600" stroke-width="2.08"/>
          <g clip-path="url(#r)">
            <g opacity="0.6">
              <path d="M7,93.89c-.08.22-.2.39-.18.53l-.12,0c.09,0-.1-.36-.15-.28L6.62,94l0,0,0,0Z" transform="translate(5.02)" fill="#390000"/>
            </g>
          </g>
          <path d="M2.63,89.83a.77.77,0,0,1,.66.59c.08.26.14.41.14.41" transform="translate(5.02)" fill="none" stroke="#650000" stroke-width="1.98"/>
          <path d="M4.42,89.67a1.26,1.26,0,0,0-.2.74" transform="translate(5.02)" fill="none" stroke="#650000" stroke-width="1.98"/>
          <path d="M10.83,95.18a1.06,1.06,0,0,1,.71-.73c.33-.13.83-.52.52-.23a5.55,5.55,0,0,1-.91.57c-.16.1-.25.34-.17.44" transform="translate(5.02)" fill="none" stroke="#650000" stroke-width="1.98"/>
          <path d="M10.18,93.41a1,1,0,0,1-.26,1.3" transform="translate(5.02)" fill="none" stroke="#650000" stroke-linecap="round" stroke-width="1.98"/>
          <path d="M11.15,91.8c.47.19.49.64.56.9-.17-.07-.29,0-.42-.09" transform="translate(5.02)" fill="none" stroke="#650000" stroke-width="1.98"/>
          <path d="M10.79,93.34a.67.67,0,0,1-.44.64" transform="translate(5.02)" fill="none" stroke="#650000" stroke-width="1.98"/>
          <path d="M3.75,89.37a.84.84,0,0,1-.08.5,1.5,1.5,0,0,0,0,.57" transform="translate(5.02)" fill="none" stroke="#650000" stroke-width="1.98"/>
          <path d="M23.51,93.84a1.28,1.28,0,0,0-.48.07" transform="translate(5.02)" fill="none" stroke="#650000" stroke-width="1.98"/>
          <path d="M24.41,94.19a2.13,2.13,0,0,1-.58.13" transform="translate(5.02)" fill="none" stroke="#650000" stroke-width="1.98"/>
          <path d="M24.76,94.79l-.41,0" transform="translate(5.02)" fill="none" stroke="#650000" stroke-width="1.98"/>
          <path d="M25.21,95.36a3.68,3.68,0,0,0-.6,0" transform="translate(5.02)" fill="none" stroke="#650000" stroke-width="1.98"/>
          <path d="M22.75,96.57a.8.8,0,0,1,.66-.56h.21" transform="translate(5.02)" fill="none" stroke="#650000" stroke-width="1.98"/>
          <path d="M22.43,95.88a3.61,3.61,0,0,1,.6-.1" transform="translate(5.02)" fill="none" stroke="#650000" stroke-width="1.98"/>
          <path d="M6.75,91.72A1,1,0,0,0,6.09,93" transform="translate(5.02)" fill="none" stroke="#650000" stroke-width="1.98"/>
          <path d="M9.45,93.17c0,.37.06,1.4-.33,1.67A1.48,1.48,0,0,1,7.84,95" transform="translate(5.02)" fill="none" stroke="#650000" stroke-width="1.97"/>
          <path d="M8.58,93.74c0,.37-.42,1.28-1.15,1.15" transform="translate(5.02)" fill="none" stroke="#650000" stroke-width="1.98"/>
          <path d="M20.13,91.23c.1-.28.54-.54.54-.54" transform="translate(5.02)" fill="none" stroke="#650000" stroke-width="1.98"/>
          <path d="M19.48,91.22a1.79,1.79,0,0,1,.55-.55" transform="translate(5.02)" fill="none" stroke="#650000" stroke-width="1.98"/>
          <path d="M18.54,91.25a2.07,2.07,0,0,0,.47-.33l.31-.28" transform="translate(5.02)" fill="none" stroke="#650000" stroke-width="1.98"/>
          <path d="M17.72,91.24a3.49,3.49,0,0,0,.52-.28,1.22,1.22,0,0,0,.31-.29" transform="translate(5.02)" fill="none" stroke="#650000" stroke-width="1.88"/>
          <path d="M17.89,90.34a2.06,2.06,0,0,1-1-.68" transform="translate(5.02)" fill="none" stroke="#650000" stroke-width="1.98"/>
          <path d="M19,89.38a4.23,4.23,0,0,1-1.41.1" transform="translate(5.02)" fill="none" stroke="#650000" stroke-width="1.98"/>
          <path d="M7.37,94.66a2,2,0,0,0,.41-.56" transform="translate(5.02)" fill="none" stroke="#650000" stroke-width="1.98"/>
          <path d="M7.18,92.79a1.25,1.25,0,0,0-.93,1.57" transform="translate(5.02)" fill="none" stroke="#650000" stroke-width="2.14"/>
          <path d="M6.59,92.34c-.44.11-.62.89-.39,1.31" transform="translate(5.02)" fill="none" stroke="#650000" stroke-width="2.47"/>
          <path d="M11,92.06a2,2,0,0,1,.46.83.68.68,0,0,1-.72.88,1.43,1.43,0,0,0,0-.89" transform="translate(5.02)" fill="none" stroke="#650000" stroke-width="1.81"/>
          <path d="M9.84,90.44l0,.21" transform="translate(5.02)" fill="none" stroke="#650000" stroke-linecap="round" stroke-width="3.85"/>
          <path d="M8.4,90.05a1.73,1.73,0,0,1-.12.33" transform="translate(5.02)" fill="none" stroke="#650000" stroke-linecap="round" stroke-width="3.12"/>
          <path d="M9,89.68c.05.48-.17.74-.3.74s-.29.18-.21.47" transform="translate(5.02)" fill="none" stroke="#650000" stroke-width="1.98"/>
          <path d="M9.52,89.61a1.16,1.16,0,0,0-.22,1c.08.29,0,.38,0,.38" transform="translate(5.02)" fill="none" stroke="#650000" stroke-width="1.98"/>
          <path d="M10.62,91.23h-.3s-.19.41-.52.3,0,0,0,0" transform="translate(5.02)" fill="none" stroke="#650000" stroke-width="1.98"/>
          <path d="M9,90.89c.47,0,.38.38,0,.34,0,.45-.52.39-.47,0-.33,0-.47-.44,0-.38" transform="translate(5.02)" fill="none" stroke="#650000" stroke-width="1.98"/>
          <path d="M9.64,91.49c0,.49-.91.86-.89.1" transform="translate(5.02)" fill="none" stroke="#650000" stroke-width="1.98"/>
          <path d="M8.75,91.62a.38.38,0,0,1-.71.13c-.14-.21-.22-.31-.32-.34s-.08-.33-.1-.37-.08-.22-.11-.28" transform="translate(5.02)" fill="none" stroke="#650000" stroke-width="2"/>
          <path d="M10.2,90.11l-.25.26" transform="translate(5.02)" fill="none" stroke="#650000" stroke-width="1.98"/>
          <path d="M10.43,90.55c-.31,0-.32,0-.32,0" transform="translate(5.02)" fill="none" stroke="#650000" stroke-width="1.98"/>
          <path d="M9.33,90.38c.23-.09.76,0,.76.17s-.21.25-.76,0v-.2Z" transform="translate(5.02)" fill="none" stroke="#650000" stroke-width="2.24"/>
          <path d="M8.61,90.4c0-.28-.53-.55-.67-.39s.31.48.43.48.05,0,.05,0" transform="translate(5.02)" fill="none" stroke="#650000" stroke-width="1.82"/>
          <path d="M10.12,91.44a1.79,1.79,0,0,0,0,1.08" transform="translate(5.02)" fill="none" stroke="#650000" stroke-width="1.98"/>
          <path d="M7.63,91.58a.36.36,0,0,1-.32.09" transform="translate(5.02)" fill="none" stroke="#650000" stroke-width="1.98"/>
          <path d="M8,91.6a1.18,1.18,0,0,1-.31.79" transform="translate(5.02)" fill="none" stroke="#650000" stroke-width="2.08"/>
          <path d="M7.68,91.36a1.73,1.73,0,0,0,0,1" transform="translate(5.02)" fill="none" stroke="#650000" stroke-width="2.3"/>
          <path d="M9.15,92a1.24,1.24,0,0,0,.22.83" transform="translate(5.02)" fill="none" stroke="#650000" stroke-width="2.08"/>
          <path d="M9.46,91.83a1.61,1.61,0,0,1-.15,1" transform="translate(5.02)" fill="none" stroke="#650000" stroke-width="2.29"/>
          <path d="M11.22,91.51a1.76,1.76,0,0,1,.48.11.59.59,0,0,1-.52.21" transform="translate(5.02)" fill="none" stroke="#650000" stroke-width="1.98"/>
          <path d="M3,91.93a.88.88,0,0,0,.47,0" transform="translate(5.02)" fill="none" stroke="#650000" stroke-width="1.98"/>
          <path d="M3.12,92.33a1.12,1.12,0,0,0,.73-.07" transform="translate(5.02)" fill="none" stroke="#650000" stroke-width="1.8"/>
          <path d="M4.83,93.92a1.8,1.8,0,0,0,.63-.33" transform="translate(5.02)" fill="none" stroke="#650000" stroke-width="1.98"/>
          <path d="M3.65,95.9a2.28,2.28,0,0,1,.6,0" transform="translate(5.02)" fill="none" stroke="#650000" stroke-width="1.98"/>
          <path d="M4.37,96.52a1.33,1.33,0,0,1,.38-.39" transform="translate(5.02)" fill="none" stroke="#650000" stroke-width="1.98"/>
          <path d="M6.54,96.79a1.31,1.31,0,0,0,.1-.54" transform="translate(5.02)" fill="none" stroke="#650000" stroke-width="1.98"/>
          <path d="M7.25,96.79a1,1,0,0,0,.16-.54" transform="translate(5.02)" fill="none" stroke="#650000" stroke-width="1.98"/>
          <path d="M7.81,96.78a1.34,1.34,0,0,0,.13-.62" transform="translate(5.02)" fill="none" stroke="#650000" stroke-width="1.98"/>
          <path d="M8.69,96.81a1.28,1.28,0,0,0,.1-.52" transform="translate(5.02)" fill="none" stroke="#650000" stroke-width="1.98"/>
          <path d="M15,96c-.34-.08-.56.39-.56.39" transform="translate(5.02)" fill="none" stroke="#650000" stroke-width="1.98"/>
          <path d="M15.42,95.91a1.42,1.42,0,0,1-.31.65" transform="translate(5.02)" fill="none" stroke="#650000" stroke-width="1.98"/>
          <path d="M16,95.88a1.65,1.65,0,0,1-.33.68" transform="translate(5.02)" fill="none" stroke="#650000" stroke-width="1.98"/>
          <path d="M16.66,95.77a1.37,1.37,0,0,1-.33.66" transform="translate(5.02)" fill="none" stroke="#650000" stroke-width="1.98"/>
          <path d="M17.16,95.63a1.81,1.81,0,0,1-.27,1" transform="translate(5.02)" fill="none" stroke="#650000" stroke-width="1.98"/>
          <path d="M17.76,95.78a1,1,0,0,1,0,.44" transform="translate(5.02)" fill="none" stroke="#650000" stroke-width="1.98"/>
          <path d="M14,95.07a.66.66,0,0,1,.37.31" transform="translate(5.02)" fill="none" stroke="#650000" stroke-width="1.98"/>
          <path d="M13.58,95.72c.12-.41.64-.21.71-.1" transform="translate(5.02)" fill="none" stroke="#650000" stroke-width="1.98"/>
          <path d="M11.89,95c-.33.11-.48.11-.59,0" transform="translate(5.02)" fill="none" stroke="#650000" stroke-linecap="round" stroke-width="1.98"/>
          <path d="M12.27,94.67c-.3.11-.46.15-.61.06" transform="translate(5.02)" fill="none" stroke="#650000" stroke-linecap="round" stroke-width="1.91"/>
          <path d="M12.76,94.34c-.19.11-.3.15-.4.06" transform="translate(5.02)" fill="none" stroke="#650000" stroke-linecap="round" stroke-width="1.56"/>
          <path d="M13.1,94.09c-.23.11-.37.14-.49,0" transform="translate(5.02)" fill="none" stroke="#650000" stroke-linecap="round" stroke-width="1.73"/>
          <path d="M3.72,89.37a.84.84,0,0,1-.08.5,1.5,1.5,0,0,0,0,.57" transform="translate(5.02)" fill="none" stroke="#650000" stroke-width="1.98"/>
          <path d="M4.46,89.67a1.26,1.26,0,0,0-.2.74" transform="translate(5.02)" fill="none" stroke="#650000" stroke-width="1.98"/>
          <path d="M2.66,89.78a.81.81,0,0,1,.68.59c.08.26.14.41.14.41" transform="translate(5.02)" fill="none" stroke="#650000" stroke-width="2"/>
        </g>
      </g>
      <g>
        <path d="M10.39,74.25V25.75A26.64,26.64,0,0,1,30.24,0H0V100H30.24A26.66,26.66,0,0,1,10.39,74.25Z" transform="translate(5.02)" opacity="0.2" style="isolation: isolate"/>
        <path d="M89.61,25.75V74.24A26.64,26.64,0,0,1,69.76,100H100V0H69.76A26.66,26.66,0,0,1,89.61,25.75Z" transform="translate(5.02)" fill="#fff" opacity="0.1" style="isolation: isolate"/>
      </g>
    </g>
  </g>
</svg>
