<svg xmlns="http://www.w3.org/2000/svg" xmlns:xlink="http://www.w3.org/1999/xlink" width="100" height="100" viewBox="0 0 100 100">
  <defs>
    <clipPath id="a">
      <path d="M73.3,100H26.7A26.63,26.63,0,0,1,0,73.3V26.7A26.63,26.63,0,0,1,26.7,0H73.4A26.61,26.61,0,0,1,100,26.7V73.4A26.61,26.61,0,0,1,73.3,100Z" fill="none"/>
    </clipPath>
  </defs>
  <title>flag_as_e_china</title>
  <g clip-path="url(#a)">
    <g>
      <g>
        <rect width="100" height="100" fill="#d80027"/>
        <g>
          <polygon points="32.74 32.7 36.55 44.45 48.91 44.45 38.91 51.71 42.73 63.45 32.74 56.2 22.75 63.45 26.56 51.71 16.57 44.45 28.92 44.45 32.74 32.7" fill="#ffda44"/>
          <polygon points="56.79 71.77 53.05 69.05 49.3 71.77 50.73 67.36 46.98 64.64 51.62 64.64 53.05 60.24 54.48 64.64 59.11 64.64 55.36 67.36 56.79 71.77" fill="#ffda44"/>
          <polygon points="66.57 58.32 61.94 58.32 60.51 62.72 59.08 58.32 54.44 58.32 58.19 55.59 56.76 51.19 60.51 53.91 64.25 51.19 62.82 55.59 66.57 58.32" fill="#ffda44"/>
          <polygon points="66.57 41.69 62.82 44.41 64.25 48.81 60.51 46.09 56.76 48.81 58.19 44.41 54.44 41.69 59.08 41.69 60.51 37.28 61.94 41.69 66.57 41.69" fill="#ffda44"/>
          <polygon points="56.79 28.23 55.36 32.63 59.11 35.36 54.48 35.36 53.05 39.76 51.62 35.36 46.98 35.36 50.73 32.63 49.3 28.23 53.05 30.95 56.79 28.23" fill="#ffda44"/>
        </g>
      </g>
      <g>
        <path d="M10.39,74.25V25.75A26.64,26.64,0,0,1,30.24,0H0V100H30.24A26.66,26.66,0,0,1,10.39,74.25Z" opacity="0.2" style="isolation: isolate"/>
        <path d="M89.61,25.75V74.24A26.64,26.64,0,0,1,69.76,100H100V0H69.76A26.66,26.66,0,0,1,89.61,25.75Z" fill="#fff" opacity="0.1" style="isolation: isolate"/>
      </g>
    </g>
  </g>
</svg>
