<svg xmlns="http://www.w3.org/2000/svg" xmlns:xlink="http://www.w3.org/1999/xlink" width="100" height="100" viewBox="0 0 100 100">
  <defs>
    <clipPath id="a">
      <path d="M73.3,100H26.7A26.63,26.63,0,0,1,0,73.3V26.7A26.63,26.63,0,0,1,26.7,0H73.4A26.61,26.61,0,0,1,100,26.7V73.4A26.61,26.61,0,0,1,73.3,100Z" fill="none"/>
    </clipPath>
  </defs>
  <title>flag_as_w_cyprus</title>
  <g clip-path="url(#a)">
    <g>
      <g>
        <rect width="100" height="100" fill="#fcfcfc"/>
        <path d="M68.75,45.68H64.42a14.42,14.42,0,1,1-28.84,0H31.25a18.74,18.74,0,0,0,13.63,18,4.81,4.81,0,0,0,.5,5.24l4.72-3.78L54.81,69a4.79,4.79,0,0,0,.48-5.29A18.75,18.75,0,0,0,68.75,45.68Z" fill="#6da544"/>
        <path d="M38.46,44.24s0,7.21,7.21,7.21l1.45,1.44H50s1.44-4.32,4.33-4.32a2.83,2.83,0,0,1,2.88-2.89h4.33s-1.44-5.77,5.77-10.1l-2.89-1.44s-10.09,7.21-17.3,5.77V42.8H44.23l-1.44-1.45Z" fill="#ffda44"/>
      </g>
      <g>
        <path d="M10.39,74.25V25.75A26.64,26.64,0,0,1,30.24,0H0V100H30.24A26.66,26.66,0,0,1,10.39,74.25Z" opacity="0.2" style="isolation: isolate"/>
        <path d="M89.61,25.75V74.24A26.64,26.64,0,0,1,69.76,100H100V0H69.76A26.66,26.66,0,0,1,89.61,25.75Z" fill="#fff" opacity="0.1" style="isolation: isolate"/>
      </g>
    </g>
  </g>
</svg>
