<svg xmlns="http://www.w3.org/2000/svg" xmlns:xlink="http://www.w3.org/1999/xlink" width="100" height="100" viewBox="0 0 100 100">
  <defs>
    <clipPath id="a">
      <path d="M73.3,100H26.7A26.63,26.63,0,0,1,0,73.3V26.7A26.63,26.63,0,0,1,26.7,0H73.4A26.61,26.61,0,0,1,100,26.7V73.4A26.61,26.61,0,0,1,73.3,100Z" fill="none"/>
    </clipPath>
  </defs>
  <title>flag_eu_n_guernsey</title>
  <g clip-path="url(#a)">
    <g>
      <g>
        <rect width="100" height="100" fill="#f0f0f0"/>
        <g>
          <rect x="43.75" width="12.5" height="100" fill="#d80027"/>
          <rect y="43.75" width="100" height="12.5" fill="#d80027"/>
        </g>
        <polygon points="64.13 52.17 67.39 54.35 67.39 45.65 64.13 47.83 52.17 47.83 52.17 35.87 54.35 32.61 45.65 32.61 47.83 35.87 47.83 47.83 35.87 47.83 32.61 45.65 32.61 54.35 35.87 52.17 47.83 52.17 47.83 64.13 45.65 67.39 54.35 67.39 52.17 64.13 52.17 52.17 64.13 52.17" fill="#ffda44"/>
      </g>
      <g>
        <path d="M10.39,74.25V25.75A26.64,26.64,0,0,1,30.24,0H0V100H30.24A26.66,26.66,0,0,1,10.39,74.25Z" opacity="0.2" style="isolation: isolate"/>
        <path d="M89.61,25.75V74.24A26.64,26.64,0,0,1,69.76,100H100V0H69.76A26.66,26.66,0,0,1,89.61,25.75Z" fill="#fff" opacity="0.1" style="isolation: isolate"/>
      </g>
    </g>
  </g>
</svg>
