<svg xmlns="http://www.w3.org/2000/svg" xmlns:xlink="http://www.w3.org/1999/xlink" width="100" height="100" viewBox="0 0 100 100">
  <defs>
    <clipPath id="a">
      <path d="M73.3,100H26.7A26.63,26.63,0,0,1,0,73.3V26.7A26.63,26.63,0,0,1,26.7,0H73.4A26.61,26.61,0,0,1,100,26.7V73.4A26.61,26.61,0,0,1,73.3,100Z" fill="none"/>
    </clipPath>
    <linearGradient id="b" x1="-460.42" y1="526.74" x2="-460.18" y2="533.48" gradientTransform="matrix(0.94, 0, 0, -0.4, 506.78, 255.83)" gradientUnits="userSpaceOnUse">
      <stop offset="0" stop-color="#474747"/>
      <stop offset="1" stop-color="#f50"/>
    </linearGradient>
    <linearGradient id="c" x1="-638.91" y1="452.63" x2="-638.9" y2="449.51" gradientTransform="matrix(0.76, 0, 0, -0.5, 563.01, 277.62)" gradientUnits="userSpaceOnUse">
      <stop offset="0" stop-color="#b50000"/>
      <stop offset="1" stop-color="#ffc500"/>
    </linearGradient>
    <linearGradient id="d" x1="-1768.09" y1="332.11" x2="-1760.83" y2="332.42" gradientTransform="matrix(0.35, 0, 0, -1.09, 698.73, 419.71)" gradientUnits="userSpaceOnUse">
      <stop offset="0" stop-color="#d5dfff"/>
      <stop offset="1" stop-color="#fff"/>
    </linearGradient>
    <linearGradient id="e" x1="-1268.24" y1="380.09" x2="-1266.27" y2="380.09" gradientTransform="matrix(0.46, 0, 0, -0.83, 662.03, 355.85)" xlink:href="#b"/>
    <linearGradient id="f" x1="-129.07" y1="625.62" x2="-134.96" y2="631.12" gradientTransform="matrix(1.59, 0, 0, -0.24, 294.34, 216.25)" xlink:href="#d"/>
    <linearGradient id="g" x1="-999.98" y1="386.87" x2="-1001.43" y2="389.8" gradientTransform="matrix(0.55, 0, 0, -0.69, 632.67, 323.62)" xlink:href="#d"/>
  </defs>
  <title>flag_sa_south_georgia_and_the_south_sandwich_islands</title>
  <g clip-path="url(#a)">
    <g>
      <g>
        <rect width="100" height="100" fill="#012169"/>
        <polygon points="50 0 50 9.55 42.16 17.39 50 17.39 50 32.61 39.74 32.61 50 42.87 50 50 45.37 50 32.61 37.24 32.61 50 17.39 50 17.39 34.82 2.21 50 0 50 0 40.45 7.84 32.61 0 32.61 0 17.39 10.26 17.39 0 7.13 0 0 4.63 0 17.39 12.76 17.39 0 32.61 0 32.61 15.18 47.79 0 50 0" fill="#f0f0f0"/>
        <polygon points="0 29.69 20.31 29.69 20.31 50 29.69 50 29.69 29.69 50 29.69 50 20.31 29.69 20.31 29.69 0 20.31 0 20.31 20.31 0 20.31 0 29.69" fill="#d80027"/>
        <polygon points="32.61 32.61 50 50 50 45.08 37.53 32.61 32.61 32.61" fill="#0052b4"/>
        <polygon points="32.61 32.61 50 50 50 45.08 37.53 32.61 32.61 32.61" fill="#f0f0f0"/>
        <g>
          <polygon points="32.61 32.61 50 50 50 45.08 37.53 32.61 32.61 32.61" fill="#d80027"/>
          <polygon points="12.47 32.61 0 45.08 0 50 0 50 17.39 32.61 12.47 32.61" fill="#d80027"/>
        </g>
        <polygon points="17.39 17.39 0 0 0 4.92 12.47 17.39 17.39 17.39" fill="#0052b4"/>
        <polygon points="17.39 17.39 0 0 0 4.92 12.47 17.39 17.39 17.39" fill="#f0f0f0"/>
        <g>
          <polygon points="17.39 17.39 0 0 0 4.92 12.47 17.39 17.39 17.39" fill="#d80027"/>
          <polygon points="37.53 17.39 50 4.92 50 0 50 0 32.61 17.39 37.53 17.39" fill="#d80027"/>
        </g>
        <g>
          <path d="M73.57,66s-.31.82-.49.82a3.64,3.64,0,0,1-.82-.36s-.47.76-.71.8a3.22,3.22,0,0,1-.89-.11S70,67.13,70,67a.58.58,0,0,1,0-.26s-.89.71-1.09.66-.87-.89-.87-.89L68,67,66.7,67l-1.11-.71s-.62,1-.64,1-1.09.25-1.09.25l-.07-.2-.71-.43s.56-.77.56-.8a1.53,1.53,0,0,0-.27-.11l-.4.34-.82.53-.82-.38.35-.66,0-.49.64-1,7.89-7.67,3.89,7.18L73.57,66Z" fill="#6a4c2d" stroke="#000"/>
          <path d="M79.18,66.44l2-.07-.87-.44,7.82-.29-1.11-.42-1-1.33L82,63.59a1,1,0,0,0-.8-.12,1.61,1.61,0,0,0-.4-.73l-2.5-.19-1.55,1.07,1,2.69,1.34.13Z" fill="#fff" stroke="#000"/>
          <path d="M71.19,43.44l.2-.7a2.85,2.85,0,0,0,.36-.88,1.17,1.17,0,0,1,.27-.59s.83-.24,1,.27c.89-1.34,1.93-.06,1.93-.06l.29-.34.59-.73a6.46,6.46,0,0,1,.85.92c0,.14.14.05.14.05l.91-.08a1.09,1.09,0,0,1,.34,1c.32.19.61,1.3.61,1.3Z" stroke="#000" fill="url(#b)"/>
          <path d="M79.18,51.81a.9.9,0,0,0,.59-1,.87.87,0,0,0-1-.78,1.2,1.2,0,0,0-.66.33l-1.16-.74s.58-3.65,1.19-3.88c.59-.42.69-.61.69-.7s-.22-.34-.22-.34l-3.77-.45-3.57.42s-.28.43-.24.6.05.35.69.84,1.19,3.67,1.19,3.67a5.59,5.59,0,0,1-1.06.43.81.81,0,0,0-1.2.88,1.47,1.47,0,0,0,.52,1.09s3.42-.4,3.92.54C75.55,51.61,78.79,52,79.18,51.81Z" fill="#656263" stroke="#000"/>
          <path d="M82.85,48a.85.85,0,0,1,.33-.58,4.85,4.85,0,0,1,2.62,0c.45.28.62,1.68.62,1.68a2.42,2.42,0,0,1,.31.85c0,.36,0,.6,0,.6a7.72,7.72,0,0,1,1.53,3.74A16.73,16.73,0,0,1,88,60a5.18,5.18,0,0,1-.66,2.53,1.09,1.09,0,0,1,.13.55,1.27,1.27,0,0,1-.17.54l2.21,1.1-.81-.3.81.68s-.92-.44-.92-.44l.55.55s-1.34-.6-1.34-.6.62.58.58.56l-1-.47s.6.64.59.61-.87-.38-.87-.38l0,.32s-.68,0-.68-.55a2.24,2.24,0,0,1-.56-.45L84.29,64l-1.78-5.3.42-9,.11-.45L82.85,48Z" stroke="#000" stroke-linejoin="round" stroke-opacity="0.98" stroke-width="1.25"/>
          <path d="M81.67,76.68s-.91-1.91-1.36-1.94c-.41-.78,1.42-7.15,5-7.52,2,.16.16,2.25-1.12,1.61a5.31,5.31,0,0,0,.8,1.36s-2.54,1.1-3.28,6.49Z" fill="#fb0" stroke="#000" stroke-width="0.99"/>
          <path d="M69.47,77s.76-2.17,1.21-2.2-1.21-7.26-4.83-7.31c-2,.16-.17,2.25,1.12,1.61a5.43,5.43,0,0,1-.8,1.37S68.72,71.53,69.47,77Z" fill="#fb0" stroke="#000"/>
          <path d="M72.8,63.36s-.9.28-.32,1.25a.93.93,0,0,1,.45-.6,1,1,0,0,0,0,1.34,1,1,0,0,1,.45-.76s-.46,1.33,0,1.6a1.05,1.05,0,0,1,.39-.76s-.41,1.19,0,1.46a.89.89,0,0,1,.34-.65s-.18,1.24.3,1.33a1.7,1.7,0,0,1,.36-.87s-.16,1,.6,1.06a3.21,3.21,0,0,1,.14-.82s.35,1.07.84.9c0-.32,0-.91,0-.91s.32,1,.91.83a1.22,1.22,0,0,1,0-.63s.31.64.88.43a1,1,0,0,0,0-.57s.83.86,1.08.34-.67-.69-.67-.69h.63a1.23,1.23,0,0,0-1-.64.87.87,0,0,1,.58,0,1.09,1.09,0,0,0-1-.73,1.51,1.51,0,0,1,.7,0s-.12-.62-1.06-.8c.15-.17.55-.11.55-.11s-.37-.59-.8-.55-4.31-.4-4.3-.39Z" fill="#00713d" stroke="#000"/>
          <g>
            <g>
              <path d="M76.62,66.52s.35.16.34.31" fill="none" stroke="#3ec26d" stroke-linecap="round" stroke-width="1.25"/>
              <path d="M76.83,66.25s.43.3.43.53" fill="none" stroke="#3ec26d" stroke-linecap="round" stroke-width="1.25"/>
              <path d="M77.21,66.09a.82.82,0,0,1,.37.56" fill="none" stroke="#3ec26d" stroke-linecap="round" stroke-width="1.25"/>
              <path d="M77.8,66.23s.17.38.11.45" fill="none" stroke="#3ec26d" stroke-linecap="round" stroke-width="1.25"/>
              <path d="M78.15,66.43c0,.3,0,.32,0,.32" fill="none" stroke="#3ec26d" stroke-linecap="round" stroke-width="1.25"/>
            </g>
            <path d="M73.83,64.55s.42.26.38.63" fill="none" stroke="#3ec26d" stroke-linecap="round" stroke-width="1.25"/>
            <path d="M73.81,64.87s.19.18.15.3" fill="none" stroke="#3ec26d" stroke-linecap="round" stroke-width="1.25"/>
            <path d="M74.32,64.56s.27.38.18.64" fill="none" stroke="#3ec26d" stroke-linecap="round" stroke-width="1.25"/>
            <path d="M74.78,64.8s.12.24,0,.37" fill="none" stroke="#3ec26d" stroke-linecap="round" stroke-width="1.25"/>
            <path d="M75,64.92s.15.23,0,.31" fill="none" stroke="#3ec26d" stroke-linecap="round" stroke-width="1.25"/>
            <path d="M74.83,65.7s.39.08.44.37" fill="none" stroke="#3ec26d" stroke-linecap="round" stroke-width="1.25"/>
            <path d="M75.06,65.43a.5.5,0,0,1,.45.46" fill="none" stroke="#3ec26d" stroke-linecap="round" stroke-width="1.25"/>
            <path d="M75.59,65.29s.27.46.23.61" fill="none" stroke="#3ec26d" stroke-linecap="round" stroke-width="1.25"/>
            <path d="M76.11,65.33a1.44,1.44,0,0,1,0,.58" fill="none" stroke="#3ec26d" stroke-linecap="round" stroke-width="1.25"/>
            <path d="M76.44,65.5s0,.52,0,.52" fill="none" stroke="#3ec26d" stroke-linecap="round" stroke-width="1.25"/>
            <path d="M75.93,64.8a.37.37,0,0,1,.24.35" fill="none" stroke="#3ec26d" stroke-linecap="round" stroke-width="1.25"/>
            <path d="M76.17,64.58a.59.59,0,0,1,.29.53" fill="none" stroke="#3ec26d" stroke-linecap="round" stroke-width="1.25"/>
            <path d="M76.55,64.43a.83.83,0,0,1,.17.7" fill="none" stroke="#3ec26d" stroke-linecap="round" stroke-width="1.25"/>
            <path d="M77,64.51a1.79,1.79,0,0,0-.07.57" fill="none" stroke="#3ec26d" stroke-linecap="round" stroke-width="1.25"/>
            <path d="M77.33,64.79s-.18.14-.08.31" fill="none" stroke="#3ec26d" stroke-linecap="round" stroke-width="1.25"/>
            <path d="M75.74,66.39s.06.31,0,.36" fill="none" stroke="#3ec26d" stroke-linecap="round" stroke-width="1.25"/>
            <path d="M75.34,66.2s.2.35.13.53" fill="none" stroke="#3ec26d" stroke-linecap="round" stroke-width="1.25"/>
            <path d="M74.91,66.19a.87.87,0,0,1,.22.47" fill="none" stroke="#3ec26d" stroke-linecap="round" stroke-width="1.25"/>
            <path d="M74.56,66.24s.21.2.19.31" fill="none" stroke="#3ec26d" stroke-linecap="round" stroke-width="1.25"/>
            <path d="M74.38,66.54s.2.21.19.26" fill="none" stroke="#3ec26d" stroke-linecap="round" stroke-width="1.25"/>
          </g>
          <path d="M70,52.19l2.89,0s1.91,0,2.12.62c.36-.83,2-.78,2-.78l3-.1c0,2.41,0,4.82,0,7.23a7.73,7.73,0,0,1-4.86,5.63,7.43,7.43,0,0,1-4.9-5.68q-.16-3.44-.31-6.87Z" fill="#fff" stroke="#000"/>
          <path d="M71.06,52.16l4.21,11.23,3.81-11.47c-1.18.07-3.72-.19-4,.89C74.56,51.84,71.9,52.23,71.06,52.16Z" fill="#006b00" stroke="#000"/>
          <path d="M73.93,58.24c.16.08.15-3.05.37-3.14.06-.26.09-.38.16-.65-.18-.33-1-.31-1.3,0,.13.43.19.58.19.58C73.77,55.66,73.68,58.31,73.93,58.24Z" fill="#ffc900" stroke="#006b00" stroke-linecap="round" stroke-width="0.69"/>
          <path d="M72.8,34a2.29,2.29,0,0,0,.31-.42A3.25,3.25,0,0,0,75.26,32c.45-.79,0-.33,0-.33l0-.37s.56-.53.35-.82-.13.37-.46.36-.14-.71-.14-.71a.23.23,0,0,0-.13-.12c-.13,0-.09.26-.21.28s-.23-.56-.23-.56-.21-.27-.38.58c.09.9.68.73.68,1.32A1.22,1.22,0,0,1,74,32.69c-.15,0-.09-.5-.09-.5s-.08-.24-.14-.24.3-.06.25-.73-.22.19-.44.15-.05-.75,0-.83-.1-.42-.57.45c0,.42-.09-.11-.19-.08a.76.76,0,0,0,.1.89,1.43,1.43,0,0,1,.54.78c0,.17-.19.53-.43.53s0-.44,0-.59a3.52,3.52,0,0,0-.42-.69,2.77,2.77,0,0,1-.26-.48s0-.08-.16.4-.3-.32-.3-.32a1,1,0,0,0,.21.94c-.31,0-.33.08-.33.08,0,.16.42.23.47.51s-.43.45-.43.45.2.28.77-.27a.89.89,0,0,1-.22.59c.19.09.34.08.37.3Z" fill="#cdad56" stroke="#000" stroke-linejoin="round" stroke-width="1.25"/>
          <path d="M70.94,34a2.84,2.84,0,0,1-.26-.45,2,2,0,0,1-1.83-1.41c-.38-.71,0-.29,0-.29l0-.35s-.4-.49-.23-.75.1.33.32.33.13-.64.13-.64a.2.2,0,0,1,.1-.11c.12,0,.17.39.27.41s.32-.43.38-.53.09-.38.24.39c-.08.83-.76.67-.76,1.21a1.13,1.13,0,0,0,.56,1c.13,0,.08-.45.08-.45s.07-.22.12-.22-.4.08-.36-.53.34,0,.52,0,0-.61,0-.7.28-.46.39.37c0,.38.24-.33.32-.31a1.14,1.14,0,0,1-.25,1,1.21,1.21,0,0,0-.41.75c0,.14.08.33.29.33s.07-.26.08-.4a2.48,2.48,0,0,1,.35-.57c.07-.11,0-.31.09-.4s.16-.16.27.27.25-.28.25-.28a.9.9,0,0,1-.18.85c.26,0,.29.07.29.07s-.13.21-.18.47a.46.46,0,0,0,.14.41s-.17.25-.65-.25a.85.85,0,0,0,.18.54C71.09,33.84,71,33.83,70.94,34Z" fill="#cdad56" stroke="#000" stroke-linejoin="round" stroke-width="1.1"/>
          <path d="M78.37,53.84c-.25-.23-.28,0-.4-.08a.7.7,0,0,1-.16-.14.37.37,0,0,0-.16-.09,1.59,1.59,0,0,0-.07.2c0,.07.06.18.06.28a.35.35,0,0,1-.27.33c.06-.11.09-.11.07-.24s-.19-.18-.17-.24.09-.22,0-.32c-.08.06-.18,0-.26.06s-.07.15-.16.2a.6.6,0,0,1-.47-.07c.11-.08.19,0,.3-.11s0-.21.1-.25.18-.08.23-.12,0-.14-.09-.19-.26-.05-.3-.1-.08-.25-.18-.36c.25.09.21.21.28.2a.46.46,0,0,1,.29,0c.06,0,.17.18.23.2a2,2,0,0,0,.08-.22c0-.07-.1-.18-.08-.25s.16-.26.21-.39c0,.13,0,.24,0,.37s.14.1.15.16-.07.22-.06.29a1.94,1.94,0,0,1,.24,0c.07,0,.12-.18.19-.19a1,1,0,0,1,.38,0c-.1.1-.18.1-.25.18s0,.18-.13.27-.21,0-.26,0l.14.16c0,.06.26.08.31.14a.39.39,0,0,1,.11.35Z" fill="#ffc900"/>
          <path d="M71.9,54c.25-.23.28,0,.4-.08a.7.7,0,0,0,.16-.14.83.83,0,0,1,.16-.09c0,.07,0,.14.07.2s-.06.18-.06.28a.34.34,0,0,0,.27.33c-.05-.1-.09-.11-.07-.24S73,54,73,54s-.09-.22,0-.32c.08.06.18,0,.26.06s.07.15.16.2a.6.6,0,0,0,.47-.07c-.11-.08-.19,0-.3-.11s-.05-.21-.1-.25-.18-.08-.23-.12,0-.14.09-.19.26-.05.31-.1.07-.25.17-.36c-.25.09-.21.21-.27.2a.49.49,0,0,0-.3,0c-.06,0-.17.18-.23.2a1.43,1.43,0,0,1-.08-.22c0-.07.1-.18.08-.25s-.16-.26-.21-.39c0,.13,0,.24,0,.37s-.14.1-.15.16.07.22.06.29a1.94,1.94,0,0,0-.24,0c-.07,0-.12-.18-.19-.19a1,1,0,0,0-.38,0c.1.1.19.1.25.19s0,.17.13.26.21,0,.26,0l-.14.16c0,.06-.26.08-.31.13a.42.42,0,0,0-.11.36Z" fill="#ffc900"/>
          <path d="M78.15,54.56c-.23.18-1.7.55-1.72,1.83s.26,1.57,0,1.61c-.54,0-.61-1.43-.6-2.06s0-.54,0-.54.37.1.34.41.36-.77.23-1.06a.5.5,0,0,0,.56.13s-.18-.21-.26-.35.27.08.27.08,0-.25-.29-.23.07-.13.07-.13.22.21.38,0a1.44,1.44,0,0,0-.42-.27s-.21-.41-.5-.49-.29.15-.67.12c-.07.14-.07.16.08.21-.26.18-.12.53-.12.53s.41-.18.39.11-.24.25-.39.07-.18.08-.18.08l.21.23s-.41,0-.52.26a.63.63,0,0,1,.35.05s-.47.21-.52.32-.06-.13-.07-.13l-.46-.16-.15.7s.3.3.47.21.47-.39.66-.31A10,10,0,0,1,74,56.83c-.07-.07-.33-.33-.44-.2s0,.3.11.28-.44.13-.32.37.11.23.21.16-.09-.08.31-.19.38-.23.38-.23a.44.44,0,0,1-.29.23c-.22,0-.38,0-.34.11s.14.18.11.25.44-.34.56,0a.45.45,0,0,0,.38-.63c0,.24.17.32.08.44s.71-.38.32-.67a1.72,1.72,0,0,1,.12.44s.18,0,.23-.08-.09.18,0,.22.35.33.22.52c-.07-.11-.09-.29-.18-.27s-.47.29-.7.31.28.84.28.84a1.64,1.64,0,0,0-.4,0s-.27-.29-.32-.09.08.14.08.14-.2-.1-.31,0-.21.22-.13.27a1,1,0,0,0,.45,0,1.39,1.39,0,0,0-.41.09s-.09.22,0,.29a.35.35,0,0,0,.34-.08s0,.17,0,.17a.35.35,0,0,0,.39-.37c0-.4,0,.29,0,.29a.34.34,0,0,0,.41-.34c0-.4,0,.28,0,.28s.26-.08.26-.15a3.09,3.09,0,0,1-.2,1.06.32.32,0,0,0-.47.13,4.2,4.2,0,0,1,0,.58c0,.11.2-.06.22-.11s.28-.18.3-.21l.09-.2s-.06.23-.17.26S75,60.9,75,61s.21.17.27.26.27-.56.27-.56l0,.14s.27-.06.3-.19-.29-.25,0-.46,0,.2,0,.2.09.31.15.31.22-.59.07-.73.22.17.22.17.22-.6,0-.68l-.34-.11s.13-.16.06-.18.32.36.38.26.16-.39-.28-.55,0-.62,0-.62.27.33.47.15,0-.18,0-.18.56-.35.57-.53a1,1,0,0,0-.28,0,.55.55,0,0,0,.24-.55.38.38,0,0,1-.29.18A.76.76,0,0,0,77,56.8c-.17.13-.15.22-.26.19s-.29-1.05.14-1.12.19.5.21.5.64-.25,0-.68c.15,0,.47.25.47.25s-.14-.72-.82-.28c.17-.18.27-.29.41-.26s.62,0,.62-.16-.38,0-.51,0,1-.13.88-.68Z" fill="#ffc900" stroke="#006b00" stroke-linecap="round" stroke-linejoin="round" stroke-width="0.69"/>
          <path d="M73.33,55s.61-.34.91.08" fill="none" stroke="#006b00" stroke-linecap="round" stroke-width="1.25"/>
          <path d="M74.48,55.71s-.21.21-.25.21" fill="none" stroke="#006b00" stroke-linecap="round" stroke-width="1.25"/>
          <path d="M74.9,56.39a1,1,0,0,0,.92-.55" fill="none" stroke="#006b00" stroke-linecap="round" stroke-width="1.25"/>
          <path d="M75.5,56.21s0,.33.14.33-.15.08-.24,0c.1.15.16.41,0,.5" fill="none" stroke="#006b00" stroke-linecap="round" stroke-width="1.25"/>
          <path d="M75.21,60.3a.75.75,0,0,1-.44.24" fill="#e80000" stroke="#006b00" stroke-linecap="round" stroke-width="1.25"/>
          <path d="M75.44,59.26a2.46,2.46,0,0,1,0-.81c0-.21.24-.29.39-.57" fill="none" stroke="#006b00" stroke-linecap="round" stroke-width="1.25"/>
          <path d="M75.38,58.79s-.15.39-.82.26" fill="none" stroke="#006b00" stroke-linecap="round" stroke-width="1.25"/>
          <path d="M75.56,57.82s0,.52-.56.32" fill="none" stroke="#006b00" stroke-linecap="round" stroke-width="1.25"/>
          <path d="M74.82,55.48a.57.57,0,0,0-.15.54" fill="none" stroke="#006b00" stroke-linecap="round" stroke-width="1.25"/>
          <path d="M75.73,54.92a1.77,1.77,0,0,0,.38-.2.88.88,0,0,0,.2-.29c0-.1-.21-.24-.09-.45s.18-.12.36,0-.16-.36-.35-.38-.3.13-.35.1,0,.13-.06.13S76,54,76,54s.24.36.23.42A1.83,1.83,0,0,1,75.73,54.92Z" fill="#006b00"/>
          <path d="M76,53.85c.14,0,.16,0,.14.13A.44.44,0,0,1,76,53.85Z" fill="#ffc900" stroke="#ffc900" stroke-linecap="round" stroke-linejoin="round" stroke-width="1.25"/>
          <path d="M75,61.07s0,.34.07.36a.4.4,0,0,1,.06-.25.81.81,0,0,1-.13-.11Z" fill="#e80000" stroke="#006b00" stroke-linejoin="round" stroke-width="1.25"/>
          <path d="M74.71,60.65c-.12,0-.31.08-.26.21.1-.09.18,0,.25-.08s0-.1,0-.13Z" fill="#e80000" stroke="#006b00" stroke-linejoin="round" stroke-width="1.25"/>
          <path d="M74.7,60.41s-.18,0-.2.1.16,0,.2,0a.32.32,0,0,0,0-.1Z" fill="#e80000" stroke="#006b00" stroke-linejoin="round" stroke-width="1.25"/>
          <path d="M73.94,58.49a.27.27,0,0,1,.14.17C74.16,58.6,74.2,58.35,73.94,58.49Z" fill="#e80000" stroke="#006b00" stroke-linejoin="round"/>
          <path d="M73.67,58.78s.23-.14.25,0-.07.08-.11.09S73.73,58.78,73.67,58.78Z" fill="#e80000" stroke="#006b00" stroke-linejoin="round"/>
          <path d="M73.65,59.25s.14-.13.19,0,0,.08,0,.08Z" fill="#e80000" stroke="#006b00" stroke-linejoin="round"/>
          <path d="M73.45,56.64s-.18-.07-.25.06a.38.38,0,0,1,.21.11C73.39,56.75,73.37,56.67,73.45,56.64Z" fill="#e80000" stroke="#006b00" stroke-linejoin="round"/>
          <path d="M73.11,57.63a.52.52,0,0,1,.1-.32c.06,0,.07.09.11.16a.21.21,0,0,0-.21.16Z" fill="#e80000" stroke="#006b00" stroke-linejoin="round"/>
          <path d="M73.58,57.47s-.2.09-.13.2a.13.13,0,0,1,.13-.05Z" fill="#e80000" stroke="#006b00" stroke-linejoin="round"/>
          <path d="M73.3,55.35c-.07.09.08.27.25.24C73.59,55.4,73.34,55.29,73.3,55.35Z" fill="#ffc900" stroke="#006b00" stroke-linejoin="round"/>
          <path d="M73.29,55c0,.1.11.23.18.19S73.33,54.9,73.29,55Z" fill="none"/>
          <path d="M73.48,55.2s0,.16.17.12a.41.41,0,0,0-.12-.21S73.55,55.2,73.48,55.2Z" fill="#e80000" stroke="#006b00" stroke-linejoin="round"/>
          <path d="M73.57,55.65s.08.09.23-.09a.35.35,0,0,1-.19,0S73.61,55.64,73.57,55.65Z" fill="#e80000" stroke="#006b00" stroke-linejoin="round"/>
          <path d="M73.29,55c-.07.08,0,.2.19.17C73.52,55,73.33,54.94,73.29,55Z" fill="#ffc900" stroke="#006b00" stroke-linejoin="round"/>
          <path d="M73.35,54.22a1.33,1.33,0,0,1,1,.09c.34.28.34,0,.34,0a2.08,2.08,0,0,0,.66.15c.14,0-.11,0,.09-.11s-.4,0-.45-.23,0-.36-.2-.29c-.15-.19.09-.32,0-.52-.15.1-.23,0-.35.22-.28-.05,0-.44-.35-.48,0,.28-.23.3-.24.46S73.18,54,73.35,54.22Z" fill="url(#c)"/>
          <path d="M65.82,75.51A6.29,6.29,0,0,1,69.43,77a15,15,0,0,0-.65-3s-1.38-.39-1.56-.2A9.78,9.78,0,0,0,65.82,75.51Z" fill="#c01500" stroke="#000"/>
          <path d="M65.12,67.69a.72.72,0,0,0-.48.4c-.19.46-.33,1.61-.6,1.88s-.51.3-.51.54a1,1,0,0,0,.76,1c.72,0,1.88-1.15,1.88-1.15A4.6,4.6,0,0,0,67,69c-1.4.49-2.39-.8-1.88-1.34Z" fill="#c01500" stroke="#000"/>
          <path d="M85.34,75.24a6.41,6.41,0,0,0-3.63,1.45,14.74,14.74,0,0,1,.65-3c.16,0,1.35-.39,1.53-.2A9.74,9.74,0,0,1,85.34,75.24Z" fill="#c01500" stroke="#000" stroke-width="0.99"/>
          <path d="M86,67.46c.16,0,.22.24.35.51A5.21,5.21,0,0,0,87,69.35a1.63,1.63,0,0,1,.51.91c0,.24-.06.56-.78.78-.72,0-1.76-.9-1.76-.9a4.48,4.48,0,0,1-.83-1.34c1.39.48,2.29-.76,1.87-1.34Z" fill="#c01500" stroke="#000" stroke-width="0.99"/>
          <path d="M64.31,74s1.45,1,1.48,1.45a12.2,12.2,0,0,1,19.52-.4,4.25,4.25,0,0,1,1.53-1.32C80.87,66,69,66.94,64.31,74Z" fill="#fb0" stroke="#000"/>
          <g>
            <path d="M79.1,51.92l.57,0-1,1.29,1.21,1.42-2.39,3,2.26,2.72A7.22,7.22,0,0,1,78.82,62l-1.3-1.43,2.35-2.94-1.93-2.19Z" fill="#1e5aa6" stroke="#000"/>
            <path d="M71,52.17l-.6,0,1.13,1.23-1.2,1.5,2.5,2.72-2.07,2.77a8.38,8.38,0,0,0,1,1.79L73,60.64l-2.53-2.81,1.85-2.35Z" fill="#1e5aa6" stroke="#000"/>
            <path d="M73.8,59.48l-.89,1.19,3.19,3.69a7.77,7.77,0,0,0,1.49-1l-1.67-1.92.68-2,1,1.13-3,3.88a6.8,6.8,0,0,1-1.58-1l1.61-2-.76-2Z" fill="#1e5aa6" stroke="#000"/>
            <path d="M72.81,57.63l.58.73-.38-1Z" fill="#1e5aa6" stroke="#000"/>
            <path d="M77,58.27l.47-.62-.18-.24Z" fill="#1e5aa6" stroke="#000" stroke-width="0.97"/>
          </g>
          <g>
            <g style="isolation: isolate">
              <text transform="matrix(0.65, -0.76, 0.76, 0.65, 65.74, 74.52)" font-size="1.3" font-family="Arial-BoldMT, Arial" font-weight="700" style="isolation: isolate">L</text>
            </g>
            <g style="isolation: isolate">
              <text transform="translate(66.25 73.87) rotate(-45.39)" font-size="1.3" font-family="Arial-BoldMT, Arial" font-weight="700" style="isolation: isolate">E</text>
            </g>
            <g style="isolation: isolate">
              <text transform="matrix(0.81, -0.58, 0.6, 0.8, 66.74, 73.25)" font-size="1.23" font-family="Arial-BoldMT, Arial" font-weight="700" style="isolation: isolate">O</text>
            </g>
            <g style="isolation: isolate">
              <text transform="matrix(0.83, -0.56, 0.56, 0.83, 67.77, 72.37)" font-size="1.3" font-family="Arial-BoldMT, Arial" font-weight="700" style="isolation: isolate">T</text>
            </g>
            <g style="isolation: isolate">
              <text transform="matrix(0.9, -0.43, 0.43, 0.9, 68.33, 71.93)" font-size="1.3" font-family="Arial-BoldMT, Arial" font-weight="700" style="isolation: isolate">E</text>
            </g>
            <g style="isolation: isolate">
              <text transform="matrix(0.91, -0.41, 0.41, 0.91, 69.04, 71.47)" font-size="1.3" font-family="Arial-BoldMT, Arial" font-weight="700" style="isolation: isolate">R</text>
            </g>
            <g style="isolation: isolate">
              <text transform="matrix(0.93, -0.37, 0.37, 0.93, 69.79, 71.05)" font-size="1.3" font-family="Arial-BoldMT, Arial" font-weight="700" style="isolation: isolate">R</text>
            </g>
            <g style="isolation: isolate">
              <text transform="matrix(1, -0.08, 0.08, 1, 73.73, 69.86)" font-size="1.3" font-family="Arial-BoldMT, Arial" font-weight="700" style="isolation: isolate">R</text>
            </g>
            <g style="isolation: isolate">
              <text transform="matrix(1, 0.01, -0.01, 1, 76.06, 69.74)" font-size="1.3" font-family="Arial-BoldMT, Arial" font-weight="700" style="isolation: isolate">R</text>
            </g>
            <g style="isolation: isolate">
              <text transform="matrix(0.87, 0.49, -0.49, 0.87, 80.77, 70.75)" font-size="1.3" font-family="Arial-BoldMT, Arial" font-weight="700" style="isolation: isolate">R</text>
            </g>
            <g style="isolation: isolate">
              <text transform="matrix(0.77, 0.64, -0.64, 0.77, 82.98, 72.02)" font-size="1.3" font-family="Arial-BoldMT, Arial" font-weight="700" style="isolation: isolate">E</text>
            </g>
            <g style="isolation: isolate">
              <text transform="matrix(1, 0.19, -0.16, 0.99, 81.62, 71.28)" font-size="1.26" font-family="Arial-BoldMT, Arial" font-weight="700" style="isolation: isolate">O</text>
            </g>
            <g style="isolation: isolate">
              <text transform="matrix(0.92, -0.13, 0.14, 0.99, 74.54, 69.78)" font-size="1.28" font-family="Arial-BoldMT, Arial" font-weight="700" style="isolation: isolate">O</text>
            </g>
            <g style="isolation: isolate">
              <text transform="matrix(0.94, -0.35, 0.35, 0.94, 70.62, 70.66)" font-size="1.3" font-family="Arial-BoldMT, Arial" font-weight="700" style="isolation: isolate">A</text>
            </g>
            <g style="isolation: isolate">
              <text transform="matrix(0.7, 0.71, -0.71, 0.7, 84.32, 73.11)" font-size="1.3" font-family="Arial-BoldMT, Arial" font-weight="700" style="isolation: isolate">A</text>
            </g>
            <g style="isolation: isolate">
              <text transform="matrix(0.98, 0.2, -0.2, 0.98, 77.52, 69.79)" font-size="1.3" font-family="Arial-BoldMT, Arial" font-weight="700" style="isolation: isolate">A</text>
            </g>
            <g style="isolation: isolate">
              <text transform="matrix(0.98, -0.18, 0.18, 0.98, 71.41, 70.33)" font-size="1.3" font-family="Arial-BoldMT, Arial" font-weight="700" style="isolation: isolate">M</text>
            </g>
            <g style="isolation: isolate">
              <text transform="matrix(0.99, -0.1, 0.1, 0.99, 72.95, 69.96)" font-size="1.3" font-family="Arial-BoldMT, Arial" font-weight="700" style="isolation: isolate">P</text>
            </g>
            <g style="isolation: isolate">
              <text transform="translate(75.36 69.74) rotate(-1.46)" font-size="1.3" font-family="Arial-BoldMT, Arial" font-weight="700" style="isolation: isolate">P</text>
            </g>
            <g style="isolation: isolate">
              <text transform="matrix(0.87, 0.49, -0.49, 0.87, 80.03, 70.37)" font-size="1.3" font-family="Arial-BoldMT, Arial" font-weight="700" style="isolation: isolate">P</text>
            </g>
            <g style="isolation: isolate">
              <text transform="matrix(0.99, 0.11, -0.11, 0.99, 76.98, 69.76)" font-size="1.3" font-family="Arial-BoldMT, Arial" font-weight="700" style="isolation: isolate">I</text>
            </g>
            <g style="isolation: isolate">
              <text transform="matrix(0.69, 0.73, -0.73, 0.69, 84.88, 73.7)" font-size="1.3" font-family="Arial-BoldMT, Arial" font-weight="700" style="isolation: isolate">T</text>
            </g>
            <g style="isolation: isolate">
              <text transform="translate(82.28 71.56) rotate(36.82)" font-size="1.3" font-family="Arial-BoldMT, Arial" font-weight="700" style="isolation: isolate">T</text>
            </g>
            <g style="isolation: isolate">
              <text transform="matrix(0.96, 0.28, -0.28, 0.96, 78.38, 69.96)" font-size="1.3" font-family="Arial-BoldMT, Arial" font-weight="700" style="isolation: isolate">M</text>
            </g>
            <g style="isolation: isolate">
              <text transform="matrix(0.67, 0.74, -0.74, 0.67, 83.61, 72.46)" font-size="1.3" font-family="Arial-BoldMT, Arial" font-weight="700" style="isolation: isolate">G</text>
            </g>
          </g>
          <g>
            <path d="M83.71,48.11a2.13,2.13,0,0,1,1-.49" fill="none" stroke="#fff700" stroke-linecap="round"/>
            <path d="M83.79,48s3.35-.48,3.45-.58" fill="none" stroke="#fff700" stroke-linecap="round"/>
            <path d="M83.8,48.07l3.74-.32" fill="none" stroke="#fff700" stroke-linecap="round"/>
            <path d="M83.79,48.08a29.55,29.55,0,0,1,4.2,0" fill="none" stroke="#fff700" stroke-linecap="round"/>
            <path d="M83.77,48.07s3.89,0,4,.12" fill="none" stroke="#fff700" stroke-linecap="round"/>
            <path d="M83.79,48.07l3.74.31" fill="none" stroke="#fff700" stroke-linecap="round"/>
            <path d="M83.75,48.1s3.8.33,4.18.81" fill="none" stroke="#fff700" stroke-linecap="round"/>
            <path d="M88.13,49.59a5.77,5.77,0,0,0-4.4-1.51" fill="none" stroke="#fff700" stroke-linecap="round"/>
            <path d="M83.75,48.11s2.15.15,2.83.9" fill="none" stroke="#fff700" stroke-linecap="round"/>
            <path d="M83.79,48.08s1.38-.26,2.84,1.49" fill="none" stroke="#fff700" stroke-linecap="round"/>
          </g>
          <path d="M82.91,49.67s1.93.08,1.93.27-1.44.55-1.46,1.34,1.1.85,1.17,1.85-.86,1.15-1,1.42a4.78,4.78,0,0,0-.59,2.38c.06.83.3,3.64.74,4.21.34.26.85,1.11,1.4.85s.17-1.23.11-1.49.23-.7.23-1.1a4.16,4.16,0,0,0-.19-.81,1.72,1.72,0,0,1,1.43,1.85c-.09,1.49-.7,1-.7,1s.19,1.83-.28,2.08a1.31,1.31,0,0,1-1.47-.1l.08.38-.65-.34a12,12,0,0,1-1-1.72,14.64,14.64,0,0,1-.34-3.4c.08-.51.13-3.49.09-3.64a24.17,24.17,0,0,1-.09-3C82.34,51.34,82.93,49.67,82.91,49.67Z" stroke="#000" fill="url(#d)"/>
          <path d="M80.83,49.18S82.17,47.88,83,48c.4,0,0,.28,0,.28s.68.06.77.36c0,.13-.32.17-.32.17s.28.06.3.31S80.85,49.2,80.83,49.18Z" fill="#ff7000" stroke="#000"/>
          <path d="M80.91,49.13a4.37,4.37,0,0,0,2-.8" fill="none" stroke="#000"/>
          <path d="M82.36,48.73s1.06,0,1.06.11" fill="none" stroke="#000"/>
          <path d="M86.12,64.18s.91-.21,1.15-.53C87.43,63.54,88.22,64.84,86.12,64.18Z" fill="#fff" stroke="#000" stroke-linejoin="round" stroke-width="1.25"/>
          <path d="M85.88,56.68a1.87,1.87,0,0,1-.21,1.17c-.17.19-.68.51-.68.74s.19.53.15.79-.32.53-.3.76.32,1.43.28,1.45" fill="none" stroke="#fff" stroke-linecap="round" stroke-width="1.25"/>
          <path d="M84.21,54.42a1.39,1.39,0,0,0-.86,1" fill="none" stroke="#fff" stroke-linecap="round" stroke-width="1.25"/>
          <path d="M83.91,48.73s.25.68,1,0A.62.62,0,0,0,83.91,48.73Z" fill="#c75b00" stroke="#000"/>
          <path d="M84.5,48.7a.08.08,0,0,1-.09.07.07.07,0,1,1,0-.14A.08.08,0,0,1,84.5,48.7Z"/>
          <path d="M77.43,47.15s1.5,1.63,2.47,1.61c.18.48-.44.92-.69,1.14-.49-.16-.94,0-2.09-1.39A4.55,4.55,0,0,1,77.43,47.15Z" fill="#fff" stroke="#000"/>
          <path d="M79.46,43.36c.2-.6.59-1.08.92-1.13a4.2,4.2,0,0,1,3-3.27c.14,1-1,2.07-1,2.07s3.41-.59,4.1-1.45c-.07.39-.76,2.81-4.4,2.79,1.38,1.31-.45,2.36-1.23,2C82.33,43.31,80.49,42.66,79.46,43.36Z" fill="#fff" stroke="#000"/>
          <path d="M80.63,42.51a1.7,1.7,0,0,1,1.5-.35c-.4.05-.4.07-.4.07s0,.05.21.28A1.82,1.82,0,0,0,80.63,42.51Z" fill="#cccccd" stroke="#ccc"/>
          <path d="M80.36,42.23s1.37-.72,2.13-1.22" fill="none" stroke="#000"/>
          <path d="M79.2,49.89s1.87.52,2.08-2.17c-.4-1.17-1-3.68-.1-4.41a1.58,1.58,0,0,0-1.67,0,2.78,2.78,0,0,0,.2,2.9c-2.27-.6-1.35,1.54-1.35,1.54.09-.34,1.3-.65,1.6,1.06C80.08,49.26,79.14,49.91,79.2,49.89Z" fill="blue" stroke="#000"/>
          <path d="M81.3,47.74a4,4,0,0,0,1.93-3.56c-1.68,0-2.28,2.21-2.28,2.21Z" fill="blue" stroke="#000"/>
          <path d="M72.42,47.61s-1.47,1.28-2.3.87c-.62.37-1.35-.28-1.35-.28s.85,3.13,3.89.86A7.62,7.62,0,0,0,72.42,47.61Z" fill="#fff" stroke="#000"/>
          <path d="M70.1,48.43c.12-.66.64-1,1-.36.55.11,1.1-2.14-.85-1.77.55-2.94-1.09-4-1.09-4s-.59,3.25-.32,3.85a4.91,4.91,0,0,0-2.5-1.59,4.28,4.28,0,0,0,2.36,3.61A1.34,1.34,0,0,0,70.1,48.43Z" fill="blue" stroke="#000"/>
          <path d="M70.29,46.28a2.11,2.11,0,0,0-.71,1.84" fill="none" stroke="#000"/>
          <path d="M68.89,46.18A3,3,0,0,0,69.14,48" fill="none" stroke="#000"/>
          <path d="M68.75,48.27s.43-.69,1.35.19" fill="none" stroke="#000"/>
          <path d="M68.93,43.49s-1.4,0-.57,1.41a1.14,1.14,0,0,1-1-1.91c-3.13-.07-4.41-1.57-4.41-3,.92,1,3.12.56,3.9,1.15a2.52,2.52,0,0,1-.76-2.11s2.67.8,3.15,3.17C69,42.71,69,43.52,68.93,43.49Z" fill="#fff" stroke="#000"/>
          <path d="M66.78,41.13c.52.52,1.84.68,2.51,1.26" fill="none" stroke="#000"/>
          <path d="M67.39,42.67s1.1-.14,1.42.25a2.23,2.23,0,0,0-1.2.13c.18-.09.13-.25.23-.25S67.44,42.67,67.39,42.67Z" fill="#cccccd" stroke="#ccc" stroke-width="0.95"/>
          <path d="M72.86,34.09A1,1,0,0,1,74.12,34c-.3.88-1.37.55-1.37.55a1.55,1.55,0,0,1-.07.65,1.78,1.78,0,0,1,.39.69s1.1-.27,1.33.21a2.35,2.35,0,0,1,.72,0,8.08,8.08,0,0,1,1.16-.21,2.83,2.83,0,0,1,1.34.43c.09.17.41,1.36.62,1.34s-.51.28-.71,0-.14.39-.14.39a9.14,9.14,0,0,1,.67.78c.07.14-.37,1.29,0,2.09a.36.36,0,0,0-.32.33c0,.36-.46.45-.46.45l-.11-.48-.3.18.13-.37a10.19,10.19,0,0,0,.44-1.31c0-.32-.37-.89-.69-.89s-.55,1-.55,1a4,4,0,0,0-.11.83l-.21-.25a3.1,3.1,0,0,1-.25.61.63.63,0,0,1-.33.19,1.71,1.71,0,0,1-.11-.64c0-.17.87-.86.8-1.36s0-.37,0-.39-.43-.37-.44-.57-.53.25-1.21.11a4,4,0,0,0-.23,1.26s-.07,1.08.07,1.2-.35.39-.35.39l-.35.48-.13-.29a2,2,0,0,1-.25.18l.15-.35a14.36,14.36,0,0,0,.34-1.62c0-.62,0-1.28,0-1.28A.58.58,0,0,0,73,39c0,.68-.16.71-.13.9a3.12,3.12,0,0,1,.16.91c0,.16-.26.21-.26.21l-.06.09s-.65.3-.63.42a3,3,0,0,0,0-.35l0-.51a1,1,0,0,0,.39-.87c0-.62-.09-.71-.07-.85a6,6,0,0,0,.09-.71s-.37.14-.48.14.2-.37.23-.63-.35.24-.67-.06c.15-.32.37-.42.41-.67s-.25.21-.5,0a.81.81,0,0,1,.27-.45,1.33,1.33,0,0,0-.29,0c-.15-.05.18-.3.2-.65a.64.64,0,0,0-.2-.52A2.64,2.64,0,0,1,71,35a.78.78,0,0,1,0-.26s-.59.42-1.28-.48a1.16,1.16,0,0,1,1.31-.14s.18-.5,1-.46,1,.49.94.44Z" fill="#923f00" stroke="#000"/>
          <path d="M77.31,43.24s1.5,0,1.52.85-.46.58-.47.58l-1.09-.13Z" fill="blue" stroke="#000"/>
          <path d="M75.87,43s1.85,0,1.75.8-.57.65-.57.65l-.9-.08Z" fill="#fffeff" stroke="#000"/>
          <path d="M74.82,42.93,75.9,43a.71.71,0,0,1,.62.71.68.68,0,0,1-.67.64l-1-.06Z" fill="blue" stroke="#000"/>
          <path d="M72.3,43.24s-1.5,0-1.52.85.46.58.47.58l1.1-.13Z" fill="#fff" stroke="#000"/>
          <path d="M73.74,43s-1.85,0-1.75.8.58.65.58.65l.89-.08Z" fill="blue" stroke="#000"/>
          <path d="M74.79,42.93,73.72,43a.7.7,0,0,0-.62.71.67.67,0,0,0,.66.64l1-.06Z" fill="#fff" stroke="#000"/>
          <path d="M77.67,51.88s.78-1.14,1.1-1,.07,1-.07,1.05Z" fill="#5e0043" stroke="#000"/>
          <path d="M72.37,52.09c-.24-.34-.6-1.28-.92-1-.29.09-.07,1,.06,1.06Z" fill="#5e0043" stroke="#000"/>
          <path d="M72.88,49.83a8.69,8.69,0,0,0,2,1c.5,0,2.07-1.21,2.07-1.21" fill="none" stroke="#000"/>
          <path d="M73,46.19l.29-.36,1.44.73,1.48-.65.28.3-1.64,1.16Z" fill="#5e0043" stroke="#000"/>
          <path d="M71.88,46.17A6.36,6.36,0,0,1,73.1,48.4c.17.94-.1-1.29-.1-1.29s1.16.56,1.2.93.55,0,.57-.09l-3.35-2.18Z" fill="#474747" stroke="#474747" stroke-linejoin="round" stroke-width="1.25"/>
          <path d="M77.6,46.11a5.58,5.58,0,0,0-1.08,3.35,6.48,6.48,0,0,1,0-2.22l-.27.17s-.28,1.18-.63,1.36c-.06-.14,0-.19,0-.19s-.38.48-.45.53a12.55,12.55,0,0,0,0,1.63s.13,1.14.27,1.13c-.16.08-.36.21-.36.21L74.87,49l.34-.35a2.25,2.25,0,0,0,.49-1.09.94.94,0,0,1-.42.21s-.06.78-.24.88a.43.43,0,0,0-.19.32l0-1Z" fill="#474747" stroke="#474747" stroke-linejoin="round" stroke-width="1.25"/>
          <path d="M74.81,48l.24,4.83" fill="none" stroke="#000" stroke-linecap="round" stroke-width="1.25"/>
          <path d="M71.84,50.27a1.93,1.93,0,0,1,.76,1.31c1.81-.13,2.38.51,2.38.51a5.35,5.35,0,0,1,2.17-.58,5.19,5.19,0,0,1,.93-1.16" fill="none" stroke="#000"/>
          <path d="M71.09,45.54,74.81,48l3.35-2.26s.7-.39.64-.66-.3-.17-.42-.12-3.51,2.44-3.51,2.44l-3.6-2.28S71,45,71,45.19,71.05,45.45,71.09,45.54Z" fill="#b4b6b9" stroke="#000"/>
          <path d="M77.75,44.91s-1-.41-1-.06a.77.77,0,0,0,.18.61c.16.23-.11.37-.11.37s0-.1-.09-.25-.57-.26-.61-.44.1-.47-.2-.5a.57.57,0,0,0-.67.47,7,7,0,0,1-.46,1.17l.06-1.86c.67,0,1.92.2,2.87.31-.28,0,.11,0,.1.11S77.74,44.93,77.75,44.91Z" fill="#474747" stroke="#474747" stroke-linejoin="round" stroke-width="1.25"/>
          <path d="M74.38,44.44a4.77,4.77,0,0,0-1.24.22c-.22.13.35.33.27.5s-.08.51-.35.44-1.17-.52-1.2-.68-.22-.16-.22-.16S74.25,44.41,74.38,44.44Z" fill="#474747" stroke="#474747" stroke-linejoin="round" stroke-width="1.25"/>
          <path d="M74.79,44.22v2.29" fill="none" stroke="#000"/>
          <path d="M73,41.53s-1,1.7-1.07,1.75" fill="none" stroke="#000"/>
          <path d="M75,41.49s.46.62.4.8a2.24,2.24,0,0,1,.4.72" stroke="#000" fill="url(#e)"/>
          <path d="M76.71,41.39a12.33,12.33,0,0,0-.95,1.49" fill="none" stroke="#000"/>
          <path d="M71.68,34.8c0,.08-.15.11-.28.06s-.22-.13-.2-.21.15-.11.28-.07S71.7,34.72,71.68,34.8Z"/>
          <path d="M72.07,34.77c0,.08.15.11.28.07s.22-.14.2-.22-.15-.1-.28-.06S72.05,34.69,72.07,34.77Z"/>
          <path d="M83.57,63.47s-.36.07-.35.11a6.41,6.41,0,0,1-1.08,0s-.16.18-.16.18l.17-.1s.26.27.34.25,0,.1,0,.13.1,0,.1,0l1.77,0Z" fill="#ff7000" stroke="#000" stroke-linejoin="round"/>
          <path d="M84.23,64l-1.45,0a3,3,0,0,0-.38.4c0,.08.24.11.24.11l.08.27.18-.07a7.52,7.52,0,0,0,2.36-.07c.56-.2.66-.43.27-.58a5.58,5.58,0,0,0-1.3-.11Z" fill="#ff7000" stroke="#000" stroke-linejoin="round" stroke-width="1.25"/>
          <path d="M79.28,67l2.6-.12-.48-.41,7-.28-.24-.56-7.88.31,1,.45-2.13.06.07.22-.56,0s.62.24.64.35Z" stroke="#000" fill="url(#f)"/>
          <path d="M82.2,52.62a2.54,2.54,0,0,0-2.13.43l0,2.34s1.49-.81,2.21-.62C82.28,54,82.28,53.12,82.2,52.62Z" stroke="#000" fill="url(#g)"/>
          <g>
            <path d="M67.82,59.71,61.68,65.8" fill="none" stroke="#000"/>
            <path d="M70.55,59.75l-5,6.56" fill="none" stroke="#000"/>
            <path d="M70.33,58l-6.65,8.05" fill="none" stroke="#000"/>
            <path d="M63.48,66l.65-.76" fill="none" stroke="#000"/>
            <path d="M71.59,62.09,69,65.64" fill="none" stroke="#000"/>
            <path d="M68.9,66.11,69,67.46" fill="none" stroke="#000"/>
            <path d="M72.77,63.33,70,66.75" fill="none" stroke="#000"/>
            <path d="M72.28,66.49l1.11-1.83" fill="none" stroke="#000"/>
            <path d="M72.7,64.31l-1.33,1.51" fill="none" stroke="#000"/>
            <path d="M72.31,62.89,71.39,64" fill="none" stroke="#000"/>
            <path d="M71.13,61.26a43,43,0,0,0-2.74,4.4" fill="none" stroke="#000"/>
            <path d="M70.84,60.73c-.07,0-2.4,3.13-2.4,3.13" fill="none" stroke="#000"/>
            <path d="M68.3,64.84l-.42.51" fill="none" stroke="#000"/>
            <path d="M67.35,66.13,66.7,67" fill="none" stroke="#000"/>
          </g>
          <path d="M67.51,50.35s-.19.59,0,.89,1.37,2.68,1.37,2.68.81-1,1.11-1,.16,2.58.16,2.58-.49.46-.78.43.72,1,.7,1.91-1.35,5.3-1.83,5.38.21-.81.19-1.05-.17-.08-.27-.35.16-.67.1-.94-.29-.22-.32-.4.16-.24.14-.46-.33-.16-.3-.35a1.11,1.11,0,0,0,0-.46c0-.35-.08.24-.38.27s-.54.7-.54.7-.59.83-1.18.46c.35.75.08,1.07,0,1.1s.1.59-.22.62.24,1.26-.13,1.37c.4.19.08.43.08.43s-.93.08-.73,1.29c-2.74-1-4.08-2.63-4.06-4.33s.57-3.22,1.88-3.79a25.05,25.05,0,0,1,1-2.9,3.48,3.48,0,0,1,0-1,2,2,0,0,1,.46-.81s-.06-1,0-1.45a6.15,6.15,0,0,1,.24-1c0-.27-.08-1.64.19-1.88s.78-.22,1-.38a1.94,1.94,0,0,1,1-.43,1.32,1.32,0,0,1,.64.27s1.32,0,1.4.51a.65.65,0,0,1-.27.7,1.44,1.44,0,0,1-.62,1.4Z" fill="#8a9396" stroke="#2b2b2b"/>
          <path d="M66.34,48.49c0,.07,0,.21-.21.29s-.33.1-.37,0,0-.21.22-.3S66.3,48.41,66.34,48.49Z" fill="#cecfcf" stroke="#2b2b2b"/>
          <path d="M66.12,48.62a.1.1,0,0,1-.1.09.09.09,0,1,1,0-.18A.1.1,0,0,1,66.12,48.62Z"/>
          <path d="M68.09,49.51A5.18,5.18,0,0,1,68,52" fill="none" stroke="#2b2b2b" stroke-width="0.63"/>
          <path d="M68.19,48.87a3.12,3.12,0,0,1,.55,1.89" fill="none" stroke="#2b2b2b" stroke-width="0.63"/>
          <path d="M68.25,48.69s.53.45.51.76" fill="none" stroke="#2b2b2b" stroke-width="0.63"/>
          <path d="M68.37,48.5a1.33,1.33,0,0,1,.43.5" fill="none" stroke="#2b2b2b" stroke-width="0.63"/>
          <path d="M68.21,48.36s-1.26,2-1.09,3.31" fill="none" stroke="#000"/>
          <path d="M68.29,48.3s-1.67,1-2,4.21" fill="none" stroke="#2b2b2b" stroke-width="0.63"/>
          <path d="M68.1,48.89l-.65.5" fill="none" stroke="#000"/>
          <path d="M65.7,52.7s.92-3.85,2.57-4.4" fill="none" stroke="#2b2b2b" stroke-width="0.63"/>
          <path d="M68.9,54s.89-1.11,1.09-1.07a10.69,10.69,0,0,1,.15,2.57s-.66.49-.8.47.74,1.19.72,1.65,0,.45,0,.45a1.85,1.85,0,0,0-.2-.7,3.34,3.34,0,0,0-1.42-2c-.33-.68.66.41.86.24S68.88,54,68.9,54Z" fill="#2b2b2b" stroke="#2b2b2b"/>
          <path d="M67.33,47.74s-.37.1-.42.25-.27.31-.39.26a2.18,2.18,0,0,1-.33-.24" fill="none" stroke="#2b2b2b"/>
          <path d="M65.22,49s-.55.56-.28.63.55-.44.55-.44,0,.86.24.72.93-.62.93-.62a1.37,1.37,0,0,1,.29,0s.64.52,1,.34c-.22.57-.48.64-.48.64a1,1,0,0,1-.93.4c-.52-.12-.65-.34-.65-.34s-.44,0-.58-.16a3.24,3.24,0,0,1-.18-.32s-.26.25-.33.13S64.83,49.21,65.22,49Z" fill="#2b2b2b" stroke="#2b2b2b" stroke-linejoin="round" stroke-width="1.25"/>
          <path d="M68.38,48.26s-1-.3-1.38.21-.27.79-.09.84" fill="none" stroke="#2b2b2b"/>
          <path d="M68.54,48.24a.2.2,0,1,1-.39,0,.2.2,0,1,1,.39,0Z"/>
          <path d="M65.54,50.86a2.36,2.36,0,0,0,.92.83c.5.18-.34.33-.85,0a1.06,1.06,0,0,1-.26-.85A.12.12,0,0,1,65.54,50.86Z" fill="#2b2b2b" stroke="#2b2b2b"/>
          <path d="M69.14,54.68S68,53,67.62,53s.26-.16.62.18-.1-.56-.1-.56Z" fill="#2b2b2b" stroke="#2b2b2b"/>
          <path d="M65.43,64.15c.45-.12,2.42,1.13,2.87,1.45a2.21,2.21,0,0,0,1.37.11A3.2,3.2,0,0,1,69,66c-.26.07.8.07.8.07a7.56,7.56,0,0,1-5.08-.66C64.45,64.39,65.24,64.16,65.43,64.15Z" fill="#2b2b2b" stroke="#2b2b2b" stroke-linejoin="round" stroke-width="1.25"/>
          <path d="M68.31,55.08a1,1,0,0,1-.5-.26,6.89,6.89,0,0,0-.66-.87,4.9,4.9,0,0,0-2-.84c-.45,0-.59,0-.64-.11s-.24,0-.21.26-.35.75-.21,1A7.36,7.36,0,0,0,65,55.52c.13,0,0,.57,0,.57a4,4,0,0,0,.72.61c.14,0,.29.14.27.28a5.43,5.43,0,0,1-.63.89s-.66.34-.67.54a.8.8,0,0,0,.69.72,4.92,4.92,0,0,0,2-.09,2.61,2.61,0,0,0,.14-.92.9.9,0,0,0-.58-.26c-.17,0-.33.18-.32.21s-.25.17-.25,0,.53-.71.57-.66.8.12.93.49.14.64.53.6a1.17,1.17,0,0,0,1-1.14,1.62,1.62,0,0,0-.56-1.32c-.12-.07-.53-.31-.56-.43s-.11-.48,0-.57Z" fill="#2b2b2b" stroke="#2b2b2b"/>
          <path d="M61.33,58.36A13.11,13.11,0,0,1,62.9,58a5.22,5.22,0,0,1,1.9.93c.35.34,1.08,1.17,1.56,1.09a1.59,1.59,0,0,0,.61-.17l-.18.36a1.85,1.85,0,0,1-.59.06,2.09,2.09,0,0,1-1-.54,4.1,4.1,0,0,0-2.54-1.31,2.25,2.25,0,0,0-1.57,1,3.64,3.64,0,0,1,0-.58c0-.1-.21.23-.21.23l.35-.8Z" fill="#2b2b2b" stroke="#2b2b2b"/>
          <path d="M65.94,59.33a2.86,2.86,0,0,0,.83.09,1.27,1.27,0,0,0,.79-.23l0-.2.08-.28s.4.4.39.48-.16.11-.16.11l-.06-.19-.14.17s-.75.6-1.16.51-.79-.36-.69-.42S66,59.33,65.94,59.33Z" fill="#2b2b2b" stroke="#2b2b2b"/>
          <path d="M64.11,60.39a1.9,1.9,0,0,0-.65.09c-.2.09-.28.21-.41.2s-.25-.2-.21-.27.33-.26.84-.22.43.2.43.2Z" fill="#2b2b2b" stroke="#2b2b2b"/>
          <path d="M65.7,61.61a1.8,1.8,0,0,0-.29-.92.77.77,0,0,0-.69-.22c-.14,0,.51.31.57.5s.28.7.22.83-.16-.36-.56-.5-.94-.06-.83.11.56,0,.78.4a7,7,0,0,1,.4.78l.07-.27.2-.06,0-.52.1-.13Z" fill="#2b2b2b" stroke="#2b2b2b"/>
          <path d="M65.37,63.68,65,62.86s-.13-.53-.48-.67-.8-.12-.81.05.74.41.79.51,0,.25,0,.26-.4-.12-.57-.08-.26.26-.51.19-.46-.86-.37-.94-.18.15-.24-.06.08-.87,0-.95a5.3,5.3,0,0,1-.57-.42c0-.06,0-3.21,2.67-.6C63.68,58.81,63.23,59,63,59a1.55,1.55,0,0,0-1.44,1.4c-.25,1.3-.56.49-.56.49s-.06.56.22.73-.13.63-.13.63a5.09,5.09,0,0,1-.42-1.73,4.06,4.06,0,0,0,.53,2.6,8.46,8.46,0,0,0,3.24,2.28c1-1.47.91-1.65.91-1.67Z" fill="#2b2b2b" stroke="#2b2b2b" stroke-linejoin="round" stroke-width="1.25"/>
          <path d="M63.64,63.69s.54.06.68.34a2.42,2.42,0,0,1,.21.69,1.08,1.08,0,0,1,.31-.46c.18-.13.31-.14.3-.24a1.9,1.9,0,0,0-.85-.72,1.73,1.73,0,0,0-.78.31s-.08.13.13.08Z" fill="#8a9396" stroke="#2b2b2b" stroke-linejoin="round" stroke-width="1.25"/>
          <g>
            <path d="M64.86,65.08a10,10,0,0,0,3.66.67" fill="none" stroke="#8a9396" stroke-linecap="round" stroke-width="1.25"/>
            <path d="M69.47,58.67a14.39,14.39,0,0,1-1,3.44" fill="none" stroke="#2b2b2b" stroke-linecap="round" stroke-width="1.25"/>
            <path d="M69.3,59.38a3.57,3.57,0,0,1-1,1.46" fill="none" stroke="#2b2b2b"/>
          </g>
        </g>
      </g>
      <g>
        <path d="M10.39,74.25V25.75A26.64,26.64,0,0,1,30.24,0H0V100H30.24A26.66,26.66,0,0,1,10.39,74.25Z" opacity="0.2" style="isolation: isolate"/>
        <path d="M89.61,25.75V74.24A26.64,26.64,0,0,1,69.76,100H100V0H69.76A26.66,26.66,0,0,1,89.61,25.75Z" fill="#fff" opacity="0.1" style="isolation: isolate"/>
      </g>
    </g>
  </g>
</svg>
