<svg xmlns="http://www.w3.org/2000/svg" xmlns:xlink="http://www.w3.org/1999/xlink" width="100" height="100" viewBox="0 0 100 100">
  <defs>
    <clipPath id="a">
      <path d="M73.3,100H26.7A26.63,26.63,0,0,1,0,73.3V26.7A26.63,26.63,0,0,1,26.7,0H73.4A26.61,26.61,0,0,1,100,26.7V73.4A26.61,26.61,0,0,1,73.3,100Z" fill="none"/>
    </clipPath>
  </defs>
  <title>flag_af_e_uganda</title>
  <g clip-path="url(#a)">
    <g>
      <g>
        <rect width="100" height="100"/>
        <rect y="16.67" width="100" height="16.67" fill="#ffda44"/>
        <rect y="33.33" width="100" height="16.67" fill="#d80027"/>
        <rect y="66.67" width="100" height="16.67" fill="#ffda44"/>
        <rect y="83.33" width="100" height="16.67" fill="#d80027"/>
        <path d="M66.67,50A16.67,16.67,0,1,1,50,33.33,16.67,16.67,0,0,1,66.67,50Z" fill="#f0f0f0"/>
        <path d="M56.11,50.85,50,48.2s1.43-4.74,1.5-5.06a3.06,3.06,0,0,0,.09-.74,3.23,3.23,0,0,0-1-2.3l1.53-1.54a5.43,5.43,0,0,0-7.68,0L46,40.1a3.23,3.23,0,0,0-1,2.3,3.19,3.19,0,0,0,.14.94L42.9,45.66h4.21a39.17,39.17,0,0,0-2.69,4.75,4.37,4.37,0,0,0,2.21,5.73l1.26.56,2.11,2v2.17L47.83,63h4.34V58.69l2-2h4.1l.06-.12A4.34,4.34,0,0,0,56.11,50.85Z"/>
      </g>
      <g>
        <path d="M10.39,74.25V25.75A26.64,26.64,0,0,1,30.24,0H0V100H30.24A26.66,26.66,0,0,1,10.39,74.25Z" opacity="0.2" style="isolation: isolate"/>
        <path d="M89.61,25.75V74.24A26.64,26.64,0,0,1,69.76,100H100V0H69.76A26.66,26.66,0,0,1,89.61,25.75Z" fill="#fff" opacity="0.1" style="isolation: isolate"/>
      </g>
    </g>
  </g>
</svg>
