<svg xmlns="http://www.w3.org/2000/svg" xmlns:xlink="http://www.w3.org/1999/xlink" width="100" height="100" viewBox="0 0 100 100">
  <defs>
    <clipPath id="a">
      <path d="M73.3,100H26.7A26.63,26.63,0,0,1,0,73.3V26.7A26.63,26.63,0,0,1,26.7,0H73.4A26.61,26.61,0,0,1,100,26.7V73.4A26.61,26.61,0,0,1,73.3,100Z" fill="none"/>
    </clipPath>
  </defs>
  <title>flag_na_cr_sint maarten</title>
  <g clip-path="url(#a)">
    <g>
      <g>
        <rect width="100" height="100" fill="#0052b4"/>
        <polygon points="100 0 100 48.83 0 50.05 0 0 100 0" fill="#d80027"/>
        <polygon points="50 50 0 100 0 0 50 50" fill="#f0f0f0"/>
        <g>
          <path d="M8.75,50c0,.37,0,.74,0,1.12a14.51,14.51,0,0,0,29,0c0-.38,0-.75,0-1.12Z" fill="#ffda44"/>
          <circle cx="23.22" cy="38.84" r="4.46" fill="#ffda44"/>
        </g>
        <path d="M13.17,37.72V52.23c0,7.69,10,10.05,10,10.05s10-2.36,10-10.05V37.72Z" fill="#d80027"/>
        <path d="M23.22,57.6c-1.86-.67-5.59-2.38-5.59-5.37v-10H28.8v10C28.79,55.23,25.07,56.94,23.22,57.6Z" fill="#338af3"/>
        <polygon points="25.45 47.77 25.45 45.53 23.21 44.42 20.98 45.53 20.98 47.77 19.87 48.88 19.87 53.35 26.56 53.35 26.56 48.88 25.45 47.77" fill="#f3f3f3"/>
      </g>
      <g>
        <path d="M10.39,74.25V25.75A26.64,26.64,0,0,1,30.24,0H0V100H30.24A26.66,26.66,0,0,1,10.39,74.25Z" opacity="0.2" style="isolation: isolate"/>
        <path d="M89.61,25.75V74.24A26.64,26.64,0,0,1,69.76,100H100V0H69.76A26.66,26.66,0,0,1,89.61,25.75Z" fill="#fff" opacity="0.1" style="isolation: isolate"/>
      </g>
    </g>
  </g>
</svg>
