<svg xmlns="http://www.w3.org/2000/svg" xmlns:xlink="http://www.w3.org/1999/xlink" width="100" height="100" viewBox="0 0 100 100">
  <defs>
    <clipPath id="a">
      <path d="M73.3,100H26.7A26.63,26.63,0,0,1,0,73.3V26.7A26.63,26.63,0,0,1,26.7,0H73.4A26.61,26.61,0,0,1,100,26.7V73.4A26.61,26.61,0,0,1,73.3,100Z" fill="none"/>
    </clipPath>
  </defs>
  <title>flag_eu_e_slovakia</title>
  <g clip-path="url(#a)">
    <g>
      <g>
        <rect width="100" height="100" fill="#f0f0f0"/>
        <rect y="32.61" width="100" height="34.78" fill="#0052b4"/>
        <rect y="67.39" width="100" height="32.61" fill="#d80027"/>
        <path d="M16.33,27.6V56.28c0,16.32,21.31,21.32,21.31,21.32S59,72.6,59,56.28V27.6Z" fill="#f0f0f0"/>
        <path d="M21.33,27.6V56.28A11.9,11.9,0,0,0,22.6,61.7H52.69A12,12,0,0,0,54,56.28V27.6Z" fill="#d80027"/>
        <polygon points="47.64 47.6 40.14 47.6 40.14 42.6 45.14 42.6 45.14 37.6 40.14 37.6 40.14 32.6 35.14 32.6 35.14 37.6 30.14 37.6 30.14 42.6 35.14 42.6 35.14 47.6 27.64 47.6 27.64 52.6 35.14 52.6 35.14 57.6 40.14 57.6 40.14 52.6 47.64 52.6 47.64 47.6" fill="#f0f0f0"/>
        <path d="M29.42,68.68a36.13,36.13,0,0,0,8.22,3.73,36,36,0,0,0,8.23-3.73,17.88,17.88,0,0,0,6.82-7,8.76,8.76,0,0,0-7-1.37,8.75,8.75,0,0,0-16,0,8.73,8.73,0,0,0-7,1.37A17.88,17.88,0,0,0,29.42,68.68Z" fill="#0052b4"/>
      </g>
      <g>
        <path d="M10.39,74.25V25.75A26.64,26.64,0,0,1,30.24,0H0V100H30.24A26.66,26.66,0,0,1,10.39,74.25Z" opacity="0.2" style="isolation: isolate"/>
        <path d="M89.61,25.75V74.24A26.64,26.64,0,0,1,69.76,100H100V0H69.76A26.66,26.66,0,0,1,89.61,25.75Z" fill="#fff" opacity="0.1" style="isolation: isolate"/>
      </g>
    </g>
  </g>
</svg>
