<svg xmlns="http://www.w3.org/2000/svg" xmlns:xlink="http://www.w3.org/1999/xlink" width="100" height="100" viewBox="0 0 100 100">
  <defs>
    <clipPath id="a">
      <path d="M73.3,100H26.7A26.63,26.63,0,0,1,0,73.3V26.7A26.63,26.63,0,0,1,26.7,0H73.4A26.61,26.61,0,0,1,100,26.7V73.4A26.61,26.61,0,0,1,73.3,100Z" fill="none"/>
    </clipPath>
  </defs>
  <title>flag_na_n_bermuda</title>
  <g clip-path="url(#a)">
    <g>
      <g clip-path="url(#a)">
        <g>
          <g>
            <rect width="100" height="100" fill="#d80027"/>
            <path d="M62.5,33.93V53.57c0,9.57,25,9.57,25,0V33.93Z" fill="#f3f3f3"/>
            <path d="M62.5,53.57h0c0,9.57,12.5,12.5,12.5,12.5s12.5-2.93,12.5-12.5h-25Z" fill="#6da544"/>
            <polygon points="75 45.71 69.2 48.21 69.2 53.57 75 57.14 80.8 53.57 80.8 48.21 75 45.71" fill="#a2001d"/>
            <rect x="69.2" y="42.86" width="11.61" height="5.36" fill="#338af3"/>
            <rect width="50" height="50" fill="#f0f0f0"/>
            <polygon points="0 29.69 20.31 29.69 20.31 50 29.69 50 29.69 29.69 50 29.69 50 20.31 29.69 20.31 29.69 0 20.31 0 20.31 20.31 0 20.31 0 29.69" fill="#d80027"/>
            <g>
              <polygon points="39.74 32.61 50 42.87 50 32.61 39.74 32.61" fill="#0052b4"/>
              <polygon points="32.61 32.61 50 50 50 45.08 37.53 32.61 32.61 32.61" fill="#0052b4"/>
              <polygon points="45.37 50 32.61 37.24 32.61 50 45.37 50" fill="#0052b4"/>
            </g>
            <polygon points="32.61 32.61 50 50 50 45.08 37.53 32.61 32.61 32.61" fill="#f0f0f0"/>
            <polygon points="32.61 32.61 50 50 50 45.08 37.53 32.61 32.61 32.61" fill="#d80027"/>
            <g>
              <polygon points="7.84 32.61 0 40.45 0 32.61 7.84 32.61" fill="#0052b4"/>
              <polygon points="17.39 34.82 17.39 50 2.21 50 17.39 34.82" fill="#0052b4"/>
            </g>
            <polygon points="12.47 32.61 0 45.08 0 50 0 50 17.39 32.61 12.47 32.61" fill="#d80027"/>
            <g>
              <polygon points="10.26 17.39 0 7.13 0 17.39 10.26 17.39" fill="#0052b4"/>
              <polygon points="17.39 17.39 0 0 0 4.92 12.47 17.39 17.39 17.39" fill="#0052b4"/>
              <polygon points="4.63 0 17.39 12.76 17.39 0 4.63 0" fill="#0052b4"/>
            </g>
            <polygon points="17.39 17.39 0 0 0 4.92 12.47 17.39 17.39 17.39" fill="#f0f0f0"/>
            <polygon points="17.39 17.39 0 0 0 4.92 12.47 17.39 17.39 17.39" fill="#d80027"/>
            <g>
              <polygon points="42.16 17.39 50 9.55 50 17.39 42.16 17.39" fill="#0052b4"/>
              <polygon points="32.61 15.18 32.61 0 47.79 0 32.61 15.18" fill="#0052b4"/>
            </g>
            <polygon points="37.53 17.39 50 4.92 50 0 50 0 32.61 17.39 37.53 17.39" fill="#d80027"/>
          </g>
          <g>
            <path d="M10.39,74.25V25.75A26.64,26.64,0,0,1,30.24,0H0V100H30.24A26.66,26.66,0,0,1,10.39,74.25Z" opacity="0.2" style="isolation: isolate"/>
            <path d="M89.61,25.75V74.24A26.64,26.64,0,0,1,69.76,100H100V0H69.76A26.66,26.66,0,0,1,89.61,25.75Z" fill="#fff" opacity="0.1" style="isolation: isolate"/>
          </g>
        </g>
      </g>
      <g>
        <path d="M10.39,74.25V25.75A26.64,26.64,0,0,1,30.24,0H0V100H30.24A26.66,26.66,0,0,1,10.39,74.25Z" opacity="0.2" style="isolation: isolate"/>
        <path d="M89.61,25.75V74.24A26.64,26.64,0,0,1,69.76,100H100V0H69.76A26.66,26.66,0,0,1,89.61,25.75Z" fill="#fff" opacity="0.1" style="isolation: isolate"/>
      </g>
    </g>
  </g>
</svg>
