<svg xmlns="http://www.w3.org/2000/svg" xmlns:xlink="http://www.w3.org/1999/xlink" width="100" height="100" viewBox="0 0 100 100">
  <defs>
    <clipPath id="a">
      <path d="M73.3,100H26.7A26.63,26.63,0,0,1,0,73.3V26.7A26.63,26.63,0,0,1,26.7,0H73.4A26.61,26.61,0,0,1,100,26.7V73.4A26.61,26.61,0,0,1,73.3,100Z" fill="none"/>
    </clipPath>
  </defs>
  <title>flag_af_m_sao_tome_and_principe</title>
  <g clip-path="url(#a)">
    <g>
      <g>
        <rect width="100" height="100" fill="#ffda44"/>
        <g>
          <rect width="100" height="33.33" fill="#6da544"/>
          <rect y="66.67" width="100" height="33.33" fill="#6da544"/>
        </g>
        <polygon points="50 50 0 100 0 0 50 50" fill="#d80027"/>
        <polygon points="65.5 42.4 67.38 48.2 73.49 48.2 68.55 51.8 70.44 57.6 65.5 54.01 60.55 57.6 62.44 51.8 57.5 48.2 63.61 48.2 65.5 42.4"/>
        <polygon points="84.5 42.4 86.39 48.2 92.5 48.2 87.56 51.8 89.45 57.6 84.5 54.01 79.56 57.6 81.45 51.8 76.51 48.2 82.62 48.2 84.5 42.4"/>
      </g>
      <g>
        <path d="M10.39,74.25V25.75A26.64,26.64,0,0,1,30.24,0H0V100H30.24A26.66,26.66,0,0,1,10.39,74.25Z" opacity="0.2" style="isolation: isolate"/>
        <path d="M89.61,25.75V74.24A26.64,26.64,0,0,1,69.76,100H100V0H69.76A26.66,26.66,0,0,1,89.61,25.75Z" fill="#fff" opacity="0.1" style="isolation: isolate"/>
      </g>
    </g>
  </g>
</svg>
