<svg xmlns="http://www.w3.org/2000/svg" xmlns:xlink="http://www.w3.org/1999/xlink" width="100" height="100" viewBox="0 0 100 100">
  <defs>
    <clipPath id="a">
      <path d="M73.3,100H26.7A26.63,26.63,0,0,1,0,73.3V26.7A26.63,26.63,0,0,1,26.7,0H73.4A26.61,26.61,0,0,1,100,26.7V73.4A26.61,26.61,0,0,1,73.3,100Z" fill="none"/>
    </clipPath>
  </defs>
  <title>flag_as_s_bhutan</title>
  <g clip-path="url(#a)">
    <g>
      <g>
        <rect width="100" height="100" fill="#ff9811"/>
        <polyline points="100 0 0 0 0 100" fill="#ffda44"/>
        <path d="M68.86,35.51v-5.8H57.75l-.85.85c-3,3-2.52,6.54-2.14,9.11.34,2.39.38,3.3-.51,4.19s-1.8.85-4.18.5C47.5,44,44,43.48,41,46.5S38.44,53,38.81,55.62c.35,2.38.39,3.29-.5,4.18s-1.8.85-4.18.5A22.42,22.42,0,0,0,31.21,60l-.07,5.8A16.3,16.3,0,0,1,33.3,66a21.57,21.57,0,0,0,3.06.28,8.74,8.74,0,0,0,3.51-.67v4.64h8.7V65.94H44.22V63h2.9V58.7H44.8a17.3,17.3,0,0,0-.25-3.91c-.34-2.39-.38-3.3.5-4.19s1.8-.85,4.19-.5a11.83,11.83,0,0,0,6.57-.39v4.64h8.7V50H60.16V47.1h2.9V42.75H60.74a17.25,17.25,0,0,0-.25-3.9,7.3,7.3,0,0,1-.06-3.34Z" fill="#f0f0f0"/>
      </g>
      <g>
        <path d="M10.39,74.25V25.75A26.64,26.64,0,0,1,30.24,0H0V100H30.24A26.66,26.66,0,0,1,10.39,74.25Z" opacity="0.2" style="isolation: isolate"/>
        <path d="M89.61,25.75V74.24A26.64,26.64,0,0,1,69.76,100H100V0H69.76A26.66,26.66,0,0,1,89.61,25.75Z" fill="#fff" opacity="0.1" style="isolation: isolate"/>
      </g>
    </g>
  </g>
</svg>
