<svg xmlns="http://www.w3.org/2000/svg" xmlns:xlink="http://www.w3.org/1999/xlink" width="100" height="100" viewBox="0 0 100 100">
  <defs>
    <clipPath id="a">
      <path d="M73.3,100H26.7A26.63,26.63,0,0,1,0,73.3V26.7A26.63,26.63,0,0,1,26.7,0H73.4A26.61,26.61,0,0,1,100,26.7V73.4A26.61,26.61,0,0,1,73.3,100Z" fill="none"/>
    </clipPath>
  </defs>
  <title>flag_na_cr_saint_kitts_and_nevis</title>
  <g clip-path="url(#a)">
    <g>
      <g>
        <rect width="100" height="100" fill="#d80027"/>
        <polyline points="100 0 0 0 0 100" fill="#6da544"/>
        <polygon points="100 0 100 21.52 21.52 100 0 100 0 78.48 78.48 0 87.7 0 87.7 0 100 0" fill="#ffda44"/>
        <polygon points="12.3 100 100 12.3 100 0 87.7 0 87.7 0 0 87.7 0 100 12.3 100"/>
        <g>
          <polygon points="34.85 56.4 38.6 58.31 41.57 55.34 40.91 59.49 44.66 61.4 40.51 62.06 39.85 66.21 37.94 62.47 33.79 63.12 36.76 60.15 34.85 56.4" fill="#f0f0f0"/>
          <polygon points="56.4 34.85 60.15 36.76 63.12 33.79 62.47 37.94 66.21 39.85 62.06 40.51 61.4 44.66 59.49 40.91 55.34 41.57 58.31 38.6 56.4 34.85" fill="#f0f0f0"/>
        </g>
      </g>
      <g>
        <path d="M10.39,74.25V25.75A26.64,26.64,0,0,1,30.24,0H0V100H30.24A26.66,26.66,0,0,1,10.39,74.25Z" opacity="0.2" style="isolation: isolate"/>
        <path d="M89.61,25.75V74.24A26.64,26.64,0,0,1,69.76,100H100V0H69.76A26.66,26.66,0,0,1,89.61,25.75Z" fill="#fff" opacity="0.1" style="isolation: isolate"/>
      </g>
    </g>
  </g>
</svg>
