<svg xmlns="http://www.w3.org/2000/svg" xmlns:xlink="http://www.w3.org/1999/xlink" width="100" height="100" viewBox="0 0 100 100">
  <defs>
    <clipPath id="a">
      <path d="M73.3,100H26.7A26.63,26.63,0,0,1,0,73.3V26.7A26.63,26.63,0,0,1,26.7,0H73.4A26.61,26.61,0,0,1,100,26.7V73.4A26.61,26.61,0,0,1,73.3,100Z" fill="none"/>
    </clipPath>
  </defs>
  <title>flag_as_se_singapore</title>
  <g clip-path="url(#a)">
    <g>
      <g>
        <rect width="100" height="100" fill="#f0f0f0"/>
        <rect width="100" height="50" fill="#d80027"/>
        <g>
          <path d="M13.59,25A14.57,14.57,0,0,1,25.05,10.76a14.58,14.58,0,1,0-3.13,28.82,14.71,14.71,0,0,0,3.13-.34A14.57,14.57,0,0,1,13.59,25Z" fill="#f0f0f0"/>
          <polygon points="32.34 11.46 33.37 14.64 36.72 14.64 34.01 16.61 35.05 19.79 32.34 17.82 29.63 19.79 30.66 16.61 27.96 14.64 31.3 14.64 32.34 11.46" fill="#f0f0f0"/>
          <polygon points="24.22 17.71 25.25 20.89 28.6 20.89 25.89 22.86 26.93 26.04 24.22 24.07 21.51 26.04 22.55 22.86 19.84 20.89 23.18 20.89 24.22 17.71" fill="#f0f0f0"/>
          <polygon points="40.46 17.71 41.49 20.89 44.84 20.89 42.13 22.86 43.16 26.04 40.46 24.07 37.75 26.04 38.78 22.86 36.08 20.89 39.42 20.89 40.46 17.71" fill="#f0f0f0"/>
          <polygon points="37.33 27.08 38.37 30.27 41.71 30.27 39 32.23 40.04 35.42 37.33 33.45 34.62 35.42 35.66 32.23 32.95 30.27 36.3 30.27 37.33 27.08" fill="#f0f0f0"/>
          <polygon points="27.34 27.08 28.38 30.27 31.72 30.27 29.02 32.23 30.05 35.42 27.34 33.45 24.64 35.42 25.67 32.23 22.96 30.27 26.31 30.27 27.34 27.08" fill="#f0f0f0"/>
        </g>
      </g>
      <g>
        <path d="M10.39,74.25V25.75A26.64,26.64,0,0,1,30.24,0H0V100H30.24A26.66,26.66,0,0,1,10.39,74.25Z" opacity="0.2" style="isolation: isolate"/>
        <path d="M89.61,25.75V74.24A26.64,26.64,0,0,1,69.76,100H100V0H69.76A26.66,26.66,0,0,1,89.61,25.75Z" fill="#fff" opacity="0.1" style="isolation: isolate"/>
      </g>
    </g>
  </g>
</svg>
