<svg xmlns="http://www.w3.org/2000/svg" xmlns:xlink="http://www.w3.org/1999/xlink" width="100" height="100" viewBox="0 0 100 100">
  <defs>
    <clipPath id="a">
      <path d="M73.3,100H26.7A26.63,26.63,0,0,1,0,73.3V26.7A26.63,26.63,0,0,1,26.7,0H73.4A26.61,26.61,0,0,1,100,26.7V73.4A26.61,26.61,0,0,1,73.3,100Z" fill="none"/>
    </clipPath>
  </defs>
  <title>flag_af_w_liberia</title>
  <g clip-path="url(#a)">
    <g>
      <g>
        <rect width="100" height="100" fill="#f0f0f0"/>
        <g>
          <rect width="100" height="9.09" fill="#d80027"/>
          <rect y="18.18" width="100" height="9.09" fill="#d80027"/>
          <rect y="36.36" width="100" height="9.09" fill="#d80027"/>
          <rect y="54.55" width="100" height="9.09" fill="#d80027"/>
          <rect y="72.73" width="100" height="9.09" fill="#d80027"/>
          <rect y="90.91" width="100" height="9.09" fill="#d80027"/>
        </g>
        <rect width="50" height="45.45" fill="#0052b4"/>
        <polygon points="25 10.32 28.08 19.8 38.04 19.8 29.98 25.66 33.06 35.13 25 29.27 16.94 35.13 20.02 25.66 11.96 19.8 21.92 19.8 25 10.32" fill="#f0f0f0"/>
      </g>
      <g>
        <path d="M10.39,74.25V25.75A26.64,26.64,0,0,1,30.24,0H0V100H30.24A26.66,26.66,0,0,1,10.39,74.25Z" opacity="0.2" style="isolation: isolate"/>
        <path d="M89.61,25.75V74.24A26.64,26.64,0,0,1,69.76,100H100V0H69.76A26.66,26.66,0,0,1,89.61,25.75Z" fill="#fff" opacity="0.1" style="isolation: isolate"/>
      </g>
    </g>
  </g>
</svg>
