<svg xmlns="http://www.w3.org/2000/svg" xmlns:xlink="http://www.w3.org/1999/xlink" width="100" height="100" viewBox="0 0 100 100">
  <defs>
    <clipPath id="a">
      <path d="M73.3,100H26.7A26.63,26.63,0,0,1,0,73.3V26.7A26.63,26.63,0,0,1,26.7,0H73.4A26.61,26.61,0,0,1,100,26.7V73.4A26.61,26.61,0,0,1,73.3,100Z" fill="none"/>
    </clipPath>
  </defs>
  <title>flag_eu_e_belarus</title>
  <g clip-path="url(#a)">
    <g>
      <g>
        <rect width="100" height="100" fill="#a2001d"/>
        <rect x="29.35" y="67.39" width="70.65" height="32.61" fill="#6da544"/>
        <g>
          <path d="M3.8,90.14l5.44-9.7,5.43,9.7,5.44-9.7,5.43,9.7L20.11,100h9.24V0H20.11l5.43,9.7-5.43,9.86L14.67,9.7,9.24,19.56,3.8,9.7,9.24,0H0V100H9.24Zm16.31-17-5.44-9.86L9.24,73.19,3.8,63.33l5.44-9.71,5.43,9.71,5.44-9.71,5.43,9.71ZM9.24,26.81l5.43,9.71,5.44-9.71,5.43,9.71-5.43,9.86-5.44-9.86L9.24,46.38,3.8,36.52Z" fill="#f0f0f0"/>
          <polygon points="14.67 90.14 9.24 100 20.11 100 14.67 90.14" fill="#f0f0f0"/>
          <polygon points="14.67 9.71 20.11 0 9.24 0 14.67 9.71" fill="#f0f0f0"/>
        </g>
        <g>
          <polygon points="25.54 36.52 20.11 26.81 14.67 36.52 20.11 46.38 25.54 36.52" fill="#a2001d"/>
          <polygon points="9.24 46.38 14.67 36.52 9.24 26.81 3.8 36.52 9.24 46.38" fill="#a2001d"/>
          <polygon points="20.11 53.62 14.67 63.33 20.11 73.19 25.54 63.33 20.11 53.62" fill="#a2001d"/>
          <polygon points="3.8 63.33 9.24 73.19 14.67 63.33 9.24 53.62 3.8 63.33" fill="#a2001d"/>
          <polygon points="25.54 90.14 20.11 80.44 14.67 90.14 20.11 100 20.11 100 25.54 90.14" fill="#a2001d"/>
          <polygon points="14.67 90.14 9.24 80.44 3.8 90.14 9.24 100 9.24 100 14.67 90.14" fill="#a2001d"/>
          <polygon points="14.67 9.71 20.11 19.57 25.54 9.71 20.11 0 20.11 0 14.67 9.71" fill="#a2001d"/>
          <polygon points="3.8 9.71 9.24 19.57 14.67 9.71 9.24 0 9.24 0 3.8 9.71" fill="#a2001d"/>
        </g>
      </g>
      <g>
        <path d="M10.39,74.25V25.75A26.64,26.64,0,0,1,30.24,0H0V100H30.24A26.66,26.66,0,0,1,10.39,74.25Z" opacity="0.2" style="isolation: isolate"/>
        <path d="M89.61,25.75V74.24A26.64,26.64,0,0,1,69.76,100H100V0H69.76A26.66,26.66,0,0,1,89.61,25.75Z" fill="#fff" opacity="0.1" style="isolation: isolate"/>
      </g>
    </g>
  </g>
</svg>
