<?xml version="1.0" encoding="utf-8"?>
<!-- Generator: Adobe Illustrator 23.0.0, SVG Export Plug-In . SVG Version: 6.00 Build 0)  -->
<svg version="1.0" id="Layer_1" xmlns="http://www.w3.org/2000/svg" xmlns:xlink="http://www.w3.org/1999/xlink" x="0px" y="0px"
	 viewBox="0 0 50 50" enable-background="new 0 0 50 50" xml:space="preserve">
<path fill="#FFFFFF" d="M38.7,17.3c0,0.3,0.1,0.5,0.3,0.5s0.4-0.1,0.5-0.3c0.1-1.5,0.3-3,0.5-4.5c-0.1-0.1-0.1-0.2-0.1-0.3
	c-0.1-0.7-0.7-1.3-1.5-1.5c-0.5-0.1-1-0.1-1.5-0.1c-0.1,0-0.3,0.1-0.5,0.1c-0.3,0.2-0.5,0.5-0.5,0.9c-0.1,0.7-0.1,1.4-0.2,2.1
	c-0.1,0-0.3,0-0.4,0c-7.8-0.3-15.5-0.3-23.2,0.1c-1.3,0.1-2.3,1.2-2.1,2.5c0.3,1.8,0.3,3.7,0.4,5.5c0,0.1,0,0.2,0,0.3
	c0,0.2,0.2,0.3,0.4,0.3c0.3,0,0.4-0.1,0.3-0.3c0-0.1,0-0.2,0-0.3c-0.1-1.9-0.3-3.8-0.4-5.7c-0.1-0.9,0.3-1.3,1.1-1.4
	c7.8-0.4,15.5-0.5,23.3-0.1c0.1,0,0.2,0,0.3,0c0,0.1,0,0.3,0,0.4c-0.2,2.9-0.3,5.7-0.4,8.5c-0.1,2.3-0.1,4.7-0.1,7
	c0,0.8,0.4,1.2,1.2,1.2c0.3,0,0.5,0,0.8,0c0.6,0,1,0.5,1.1,1c0.1,0.6-0.3,1.1-0.8,1.3c-0.1,0.1-0.3,0.1-0.5,0.1
	c-7.9,0.3-15.8,0.3-23.7,0c-0.6,0-1.3-0.1-1.9,0.3c0-0.2,0-0.3,0-0.4c0.1-3.3,0.1-6.6,0-9.9c0-0.3-0.1-0.5-0.4-0.5
	c-0.3,0-0.4,0.2-0.4,0.5c0.1,4,0.1,8.1-0.1,12c0,1,0.7,2.1,1.8,2.1c0.7,0.1,1.5,0.1,2.2,0.1c0.7,0.1,1.1-0.4,1.1-1.1
	c0.1-0.6,0.1-1.2,0.1-1.8c0-0.1,0-0.2,0-0.3c0.1,0,0.3,0,0.4,0c7,0.3,14,0.2,20.9-0.1c0.1,0,0.2,0,0.3,0c0.9-0.1,1.5-0.7,1.7-1.5
	c0-0.1,0.1-0.2,0.1-0.3c-0.1-4.8,0-9.6,0.5-14.5c-0.1-0.2-0.3-0.3-0.5-0.3c-0.3,0.1-0.3,0.3-0.3,0.5c-0.3,3.9-0.4,7.9-0.3,11.8
	c0,0.1,0,0.2,0,0.4c-0.6-0.4-1.3-0.3-1.9-0.3c-0.2,0-0.3-0.1-0.3-0.3c0-0.1,0-0.1,0-0.2c0-6.1,0.3-12.3,0.8-18.4
	c0-0.5,0-0.5,0.5-0.5c0.2,0.1,0.4,0.1,0.6,0.1c0.7,0.1,1.1,0.5,1.1,1.3C38.9,14.7,38.8,16,38.7,17.3z M14.6,37.6
	c0,0.1-0.1,0.2-0.2,0.2c-0.7,0-1.5-0.1-2.3-0.1c-0.5-0.1-0.9-0.6-0.9-1.2c0.1-0.6,0.5-1.1,1.1-1.1c0.8,0.1,1.6,0.1,2.4,0.1
	C14.7,36.3,14.7,36.9,14.6,37.6z"/>
<path fill="#FFFFFF" d="M30.7,29.2c-0.1,0-0.2,0-0.3,0c-0.8,0-1.7,0.1-2.6,0.1c-0.1,0-0.2,0-0.3,0c0-0.6,0-2.8,0-3.8
	c0-0.1,0-0.2,0-0.3c0-0.1,0-0.1,0,0c0-0.4,0-0.9,0-1.3c0.1-0.5-0.1-0.8-0.4-1.2c-1.1-1.1-2.2-2.2-3.3-3.2c-0.4-0.4-0.8-0.4-1.3,0
	c-1.1,1.1-2.2,2.2-3.3,3.3c-0.3,0.3-0.4,0.7-0.4,1.1c0,1.7,0,3.4,0,5.1c0,0.2,0,0.3,0,0.5c-0.8,0-1.6-0.1-2.4-0.2
	c-0.3,0-0.7,0.8,0,0.8c4.7,0.1,9.4,0.1,14.1,0c0.1,0,0.2,0,0.3,0c0.2,0,0.3-0.2,0.3-0.3C31,29.4,30.9,29.3,30.7,29.2z M24.6,29.2
	c0,0.1,0,0.1,0,0.1c-0.9,0-1.8,0-2.8,0c0-0.1,0-0.2,0-0.2c0-1.2,0-2.4,0-3.6c0-0.3,0.1-0.3,0.3-0.3c0.8,0,1.5,0,2.3,0
	c0.2,0,0.2,0.1,0.2,0.2C24.6,26.6,24.6,27.9,24.6,29.2z M25.3,29.3c0-0.1,0-0.2,0-0.3c0-1.2,0-2.4,0-3.7c0-0.6-0.3-0.9-0.9-0.9
	c-0.8,0-1.6,0-2.4,0c-0.6,0-0.9,0.3-0.9,1c0,1.2,0,2.4,0,3.7c0,0.1,0,0.2,0,0.3c-0.6,0-1.1,0-1.7,0v-0.1c0-1.9,0-3.7,0-5.6
	c0-0.2,0.1-0.3,0.2-0.4c1.1-1.1,2.3-2.2,3.4-3.3c0.2-0.1,0.2-0.1,0.4,0c1.1,1.1,2.3,2.2,3.4,3.3c0.1,0.1,0.2,0.3,0.2,0.4
	c0,0.6,0,1.2,0,1.8c0,0.6,0,3,0,3.6c0,0.1,0,0.2,0,0.2"/>
</svg>
