<?xml version="1.0" encoding="utf-8"?>
<!-- Generator: Adobe Illustrator 23.0.0, SVG Export Plug-In . SVG Version: 6.00 Build 0)  -->
<svg version="1.0" id="Layer_1" xmlns="http://www.w3.org/2000/svg" xmlns:xlink="http://www.w3.org/1999/xlink" x="0px" y="0px"
	 viewBox="0 0 50 50" enable-background="new 0 0 50 50" xml:space="preserve">
<g>
	<path fill="#FFFFFF" d="M15.6,30c0.1,0,0.2,0,0.2,0.1c0.2,0.2,2.4,1.2,2.6,1.4c1.7,0.9,4.6,2.6,6.4,3.5c0.2,0.1,0.2,0.2,0.2,0.3
		c0,0.2-0.2,0.4-0.4,0.3c0,0-0.1,0-0.1-0.1c-1.9-1.1-6.8-3.6-8.9-4.7c-0.1,0-0.1-0.1-0.2-0.1c-0.2-0.1-0.2-0.2-0.2-0.3
		C15.4,30.2,15.5,30.1,15.6,30z"/>
	<path fill="#FFFFFF" d="M25.3,36.4c-0.2,0.1-0.4,0.2-0.7,0.2c-0.2,0.1-0.2,0-0.3-0.2c-0.1-0.2,0-0.3,0.2-0.4c0,0,0.1,0,0.1-0.1
		c0.2-0.1,0.4-0.2,0.6-0.2c0.2-0.1,0.3-0.3,0.2-0.6c-0.1-0.2-0.2-0.4-0.2-0.7c-0.1-0.2,0-0.4,0.2-0.4c0.2-0.1,0.3,0,0.4,0.2
		c0.2,0.4,0.2,0.9,0.4,1.4c0.1,0.2,0,0.3-0.2,0.4C25.7,36.2,25.5,36.3,25.3,36.4L25.3,36.4z"/>
	<path fill="#FFFFFF" d="M14.4,30.5c-0.2-0.2-0.2-0.5-0.2-0.7c-0.1-0.2,0-0.4,0.2-0.4c0.4-0.2,0.8-0.3,1.2-0.4
		c0.2-0.1,0.3,0,0.4,0.2s0,0.3-0.2,0.4c-0.2,0.1-0.4,0.2-0.7,0.2c-0.2,0.2-0.3,0.3-0.2,0.7c0.1,0.2,0.2,0.4,0.2,0.7
		c0,0.2,0,0.4-0.2,0.4c-0.2,0.1-0.3,0-0.4-0.2C14.6,31,14.5,30.8,14.4,30.5z"/>
</g>
<g>
	<path fill="#FFFFFF" d="M12.9,26.4c-0.1-0.1-0.1-0.2-0.1-0.3c-0.1-0.3-0.1-0.6-0.1-0.8c-0.3-2.3-0.8-4.5-1.4-6.7
		c-0.1-0.1,0-0.3,0.1-0.3c0.2-0.1,0.5,0.1,0.7,0.3c0,0.1,0,0.1,0,0.1c0.6,2.5,1,4.9,1.4,7.5c0,0.1,0,0.1,0,0.1
		c0,0.1-0.1,0.3-0.1,0.3C13.2,26.5,13,26.5,12.9,26.4z"/>
	<path fill="#FFFFFF" d="M12.2,17.3c0.3,0.2,0.5,0.4,0.7,0.6c0.1,0.1,0.2,0.3,0.1,0.5c-0.1,0.2-0.3,0.1-0.5,0
		c-0.1,0-0.1-0.1-0.1-0.1c-0.2-0.2-0.4-0.3-0.7-0.5s-0.6-0.3-0.7-0.1c-0.1,0.1-0.3,0.3-0.4,0.5c-0.1,0.2-0.3,0.1-0.5,0
		c-0.2-0.1-0.3-0.4-0.1-0.5c0.3-0.3,0.6-0.7,0.8-0.9c0.1-0.1,0.3-0.1,0.5,0.1C11.6,16.9,11.9,17.1,12.2,17.3L12.2,17.3z"/>
	<path fill="#FFFFFF" d="M14,27.4c-0.2,0.1-0.3,0.3-0.5,0.5c-0.2,0.2-0.3,0.1-0.5,0c-0.4-0.4-0.7-0.7-1-1c-0.1-0.1-0.2-0.4-0.1-0.5
		c0.1-0.1,0.3-0.1,0.5,0c0.2,0.2,0.4,0.3,0.5,0.5c0.3,0.2,0.5,0.2,0.7,0c0.1-0.1,0.3-0.3,0.4-0.5c0.1-0.1,0.3-0.1,0.5,0
		c0.2,0.1,0.2,0.3,0.1,0.5C14.3,27,14.2,27.2,14,27.4z"/>
</g>
<g>
	<path fill="#FFFFFF" d="M32.3,35.4c0-0.1,0.1-0.2,0.2-0.2c0.3-0.2,0.4-0.3,0.7-0.3c1.8-0.9,3.5-1.8,5.3-2.7c0.2-0.1,0.3-0.1,0.3,0
		c0.2,0.2,0.2,0.4,0,0.6l-0.1,0.1c-2,1-3.9,2-5.8,2.9c-0.1,0-0.1,0.1-0.2,0.1c-0.2,0.1-0.3,0.1-0.3-0.1
		C32.3,35.8,32.3,35.6,32.3,35.4z"/>
	<path fill="#FFFFFF" d="M39.7,32.7c-0.1,0.3-0.2,0.5-0.3,0.8c-0.1,0.2-0.2,0.3-0.3,0.2c-0.2-0.1-0.3-0.2-0.2-0.4c0-0.1,0-0.1,0-0.2
		c0.1-0.2,0.2-0.4,0.2-0.7c0.1-0.3,0-0.5-0.3-0.7c-0.2-0.1-0.4-0.2-0.6-0.3c-0.2-0.1-0.3-0.3-0.2-0.4c0.1-0.2,0.3-0.3,0.4-0.2
		c0.4,0.2,0.8,0.4,1.3,0.6c0.2,0.2,0.2,0.4,0.2,0.6C39.9,32.2,39.8,32.5,39.7,32.7L39.7,32.7z"/>
	<path fill="#FFFFFF" d="M31.9,36.7c-0.2-0.1-0.4-0.2-0.7-0.3c-0.2-0.1-0.3-0.2-0.2-0.4c0.2-0.4,0.3-0.9,0.4-1.3
		c0.1-0.2,0.2-0.3,0.4-0.2c0.2,0.1,0.3,0.3,0.2,0.4c-0.1,0.2-0.2,0.4-0.2,0.7c-0.1,0.3,0,0.5,0.3,0.6c0.2,0.1,0.4,0.2,0.6,0.3
		c0.2,0.1,0.3,0.3,0.2,0.4c-0.1,0.2-0.2,0.3-0.4,0.2C32.3,36.9,32.1,36.8,31.9,36.7z"/>
</g>
<path fill="#FFFFFF" d="M28.5,34.8c-1.3-0.8-2.6-1.4-4-2.2c-1.3-0.8-6.2-3.3-7.7-4.1c-0.6-0.3-0.9-0.8-0.9-1.4
	c-0.4-3.5-0.7-5.2-1.5-8.8c-0.2-0.7,0.1-1.2,0.7-1.4c2.7-1.2,5.6-2.4,8.9-3.7c0.7-0.3,1.3-0.3,1.9,0c3.3,1.4,10.3,4.5,12.9,5.7
	c0.6,0.3,0.8,0.8,0.7,1.5c-0.8,3.5-1,5.2-1.3,8.8c-0.1,0.8-0.4,1.3-0.9,1.5c-2.5,1.3-5.1,2.5-7.5,3.9c-0.2,0.1-0.3,0.2-0.4,0.2
	C28.8,34.8,28.6,34.8,28.5,34.8z M38.2,19.6c-0.3-0.2-0.5-0.3-0.8-0.4c-2.3-1.2-8.9-4-11.9-5.3c-0.6-0.3-1-0.3-1.5,0
	c-3,1.3-6,2.4-8.6,3.6c-0.3,0.2-0.4,0.4-0.4,0.8c0.8,3.5,1,5.2,1.4,8.7c0.1,0.4,0.2,0.7,0.6,0.8c2.7,1.3,8.7,4.6,11.1,6
	c0.3,0.2,0.7,0.2,0.9,0c2.4-1.3,4.9-2.5,7.5-3.9c0.4-0.2,0.6-0.4,0.6-0.9c0.3-3.5,0.5-5.1,1.3-8.7c0-0.1,0-0.2,0.1-0.3
	c-0.2,0.1-0.2,0.1-0.3,0.2c-3.2,1.6-6.1,3-8.8,4.4c-0.2,0.1-0.2,0.2-0.3,0.4c-0.1,2.9-0.2,4-0.2,6.8c0,0.2,0,0.2,0,0.3
	c-0.1,0.2-0.2,0.3-0.3,0.3s-0.3-0.2-0.3-0.3c0-0.1,0-0.2,0-0.3c0-2.9,0.1-4,0.2-6.8c0-0.2-0.1-0.3-0.2-0.3c-1.8-0.9-3.6-1.9-5.6-2.8
	c-0.4-0.2-5.1-2.5-5.6-2.8c-0.3-0.2-0.3-0.3-0.3-0.5c0.1-0.2,0.3-0.3,0.5-0.2c0.1,0,0.2,0.1,0.2,0.1c2.6,1.3,9,4.4,11.1,5.6
	c0.2,0.1,0.3,0.1,0.4,0c2.1-1.1,4.4-2.2,6.7-3.3C36.6,20.4,37.4,20.1,38.2,19.6z"/>
</svg>
