<?xml version="1.0" encoding="utf-8"?>
<!-- Generator: Adobe Illustrator 23.0.0, SVG Export Plug-In . SVG Version: 6.00 Build 0)  -->
<svg version="1.0" id="Layer_1" xmlns="http://www.w3.org/2000/svg" xmlns:xlink="http://www.w3.org/1999/xlink" x="0px" y="0px"
	 viewBox="0 0 50 50" enable-background="new 0 0 50 50" xml:space="preserve">
<path fill="#FFFFFF" d="M24.1,40c-0.5-0.1-1.1-0.1-1.6-0.3c-3.3-0.7-6-2.3-8.1-5c-1.9-2.2-3.1-4.8-3.5-7.7c-0.6-4,0.1-7.6,2.4-10.9
	c2.1-2.9,4.9-4.9,8.5-5.7c4.5-1,8.6,0,12.1,2.8c2.8,2.3,4.5,5.3,5.1,8.8c0.1,0.6,0.1,1.3,0.2,1.9c0,0.1,0,0.2,0.1,0.3
	c0,0.6-0.1,1.1-0.1,1.7c0,0.2-0.1,0.4-0.1,0.6c-0.4,3.1-1.6,5.9-3.7,8.4c-2.2,2.6-4.9,4.3-8.1,4.9c-0.5,0.1-1.1,0.1-1.6,0.3
	C25.2,40,24.7,40,24.1,40z M12.2,25c0.3,7,5.5,13.2,12.8,13.4C32.2,38.2,37.4,32,37.7,25c0.2-7.3-5.4-13.3-12.7-13.4
	C17.6,11.7,12.1,17.8,12.2,25z"/>
<path fill="#FFFFFF" d="M19,30.7c0.4-1.3,0.7-2.5,1.1-3.7c0.9-2.9,1.7-5.7,2.6-8.6c0.1-0.1,0.1-0.2,0.3-0.2c1.2,0,2.4,0,3.6,0
	c0.1,0,0.2,0.1,0.3,0.2c1.3,4.3,2.7,8.6,4,12.9c0.1,0.2-0.1,0.3-0.3,0.3c-0.9,0-1.8,0-2.7,0c-0.1,0-0.2-0.1-0.3-0.2
	c-0.3-1-0.6-2.1-0.9-3.1c-0.1-0.1-0.1-0.2-0.3-0.2c-1.1,0-2.3,0-3.5,0c-0.1,0-0.2,0.1-0.3,0.2c-0.3,1-0.5,2-0.8,3
	c0,0.1-0.1,0.2-0.3,0.2c-0.5,0.1-1.1,0-1.5,0.1c-0.5,0.1-0.9-0.1-1.1-0.7C19,30.9,19,30.9,19,30.7z M23.2,26c1,0,1.9,0,2.9,0
	c0-0.1,0-0.1-0.1-0.2c-0.3-0.9-0.5-1.9-0.8-2.9c-0.1-0.5-0.3-1-0.5-1.5c-0.1-0.2-0.2-0.3-0.3-0.2c-0.1,0.1-0.1,0.1-0.1,0.3
	c-0.4,1.5-0.7,2.9-1.1,4.3C23.2,25.9,23.2,26,23.2,26z"/>
</svg>
