<?xml version="1.0" encoding="utf-8"?>
<!-- Generator: Adobe Illustrator 23.0.0, SVG Export Plug-In . SVG Version: 6.00 Build 0)  -->
<svg version="1.0" id="Layer_1" xmlns="http://www.w3.org/2000/svg" xmlns:xlink="http://www.w3.org/1999/xlink" x="0px" y="0px"
	 viewBox="0 0 50 50" enable-background="new 0 0 50 50" xml:space="preserve">
<path fill="#FFFFFF" d="M35.7,19.9c0,0.2-0.1,0.5-0.2,0.7c-0.4,1.8-0.8,3.6-1.3,5.4c-0.1,0.5-0.4,0.8-0.7,1.1
	c-4.7,3.9-9.2,7.8-13.5,12c-1,0.9-2,1.2-3,0.7c-0.2-0.2-0.5-0.3-0.6-0.5c-2.3-2.8-4.2-5.7-6.1-8.8c-0.7-1.1-0.3-2.8,1-4
	c4.7-4.3,9-8.1,13.2-12c0.2-0.2,0.5-0.3,0.8-0.3c1.8,0,3.6,0,5.4,0c0.3,0,0.4-0.1,0.5-0.5c0.6-2.1,2.5-3.8,4.8-3.8
	c2,0,3.7,1.7,3.8,4.1c0.1,2.6-1.8,5-4.1,5.8C35.9,19.8,35.8,19.9,35.7,19.9z M34.5,16.1c-0.1,0-0.1,0-0.2,0
	c-2.8,0.1-5.7,0.1-8.6,0.1c-0.1,0-0.3,0.1-0.4,0.2c-4,3.8-8.4,7.5-13,11.7c-0.5,0.5-0.5,0.8-0.3,1.2c1.9,3,3.7,5.8,6,8.6
	c0.3,0.4,0.5,0.4,1,0c4.3-4.1,8.8-7.8,13.3-11.7c0.1-0.1,0.3-0.3,0.3-0.4c0.4-1.8,0.9-3.5,1.3-5.4c0-0.2,0-0.3-0.2-0.3
	c-0.8-0.2-1.3-0.6-1.8-1.2c-0.2-0.3-0.2-0.8,0-1.2c0.2-0.4,0.6-0.6,1-0.5c0.2,0.1,0.4,0.2,0.5,0.3c0.2,0.2,0.5,0.5,0.8,0.5
	C34.4,17.2,34.5,16.7,34.5,16.1z M36.1,17.8c1.1-0.4,2.1-1.8,2.2-3.1c0-1.5-1-2.6-2.4-2.6c-1.2,0-2.5,0.9-2.7,2.1c0.1,0,0.2,0,0.3,0
	c0.7,0,1.4-0.1,2.1-0.1c0.7,0,1,0.3,0.9,1.1c0,0.5-0.1,0.9-0.1,1.4C36.3,16.9,36.2,17.3,36.1,17.8z"/>
<path fill="#FFFFFF" d="M20,29.4c-0.2,0.2-0.4,0.4-0.6,0.6c-0.5,0.4-1,0.5-1.2,0.1c-0.2-0.3-0.1-0.9,0.4-1.3
	c0.2-0.2,0.5-0.4,0.7-0.6c-0.3-0.4-0.6-0.8-0.8-1.2c-0.2-0.2-0.2-0.5-0.1-0.8c0.1-0.3,0.4-0.6,0.7-0.7c0.3-0.1,0.6,0,0.8,0.2
	c0.5,0.8,1,1.5,1.5,2.3c0.1,0.1,0.1,0.1,0.1,0.2c0.2,0.3,0.7,0.3,1.1,0c0.4-0.3,0.5-0.9,0.4-1.2c-0.3-0.5-0.6-0.9-0.9-1.4
	c-0.8-1.4,0.1-3.5,1.8-4.2c1-0.4,1.7-0.2,2.4,0.4c0.1,0.1,0.1,0.1,0.2,0.2c0.2-0.2,0.4-0.4,0.7-0.6c0.4-0.3,0.9-0.3,1.1,0
	c0.3,0.3,0.1,0.9-0.3,1.2c-0.2,0.2-0.5,0.3-0.7,0.6c0.3,0.4,0.6,0.8,0.8,1.2c0.2,0.3,0.1,0.5,0,0.9s-0.4,0.6-0.8,0.6
	c-0.3,0.1-0.5-0.1-0.6-0.3c-0.5-0.8-1.1-1.6-1.6-2.3c-0.2-0.3-0.4-0.3-0.7-0.3c-0.6,0.1-1,1-0.7,1.5c0.3,0.5,0.6,0.9,0.9,1.3
	c0.6,1,0.2,2.6-1,3.6c-1.1,1-2.5,1.1-3.3,0.2C20.2,29.6,20.1,29.6,20,29.4z"/>
</svg>
