<?xml version="1.0" encoding="utf-8"?>
<!-- Generator: Adobe Illustrator 23.0.0, SVG Export Plug-In . SVG Version: 6.00 Build 0)  -->
<svg version="1.0" id="Layer_1" xmlns="http://www.w3.org/2000/svg" xmlns:xlink="http://www.w3.org/1999/xlink" x="0px" y="0px"
	 viewBox="0 0 50 50" enable-background="new 0 0 50 50" xml:space="preserve">
<path fill="#FFFFFF" d="M20,10c0.3,0.1,0.5,0.4,0.5,0.7c0.1,1,0.9,1.6,1.9,1.7c0.5,0,0.8,0.5,0.6,0.9c-0.1,0.2-0.3,0.4-0.6,0.4
	c-0.6,0-1.1,0.3-1.4,0.8c-0.2,0.3-0.3,0.7-0.3,1.1c0,0.4-0.2,0.7-0.6,0.7s-0.6-0.2-0.6-0.7c-0.1-1.1-0.9-1.7-1.9-1.7
	c-0.4,0-0.7-0.2-0.7-0.6c0-0.3,0.2-0.6,0.6-0.6c1-0.1,1.7-0.8,1.7-1.9c0-0.3,0.1-0.6,0.4-0.8C19.7,10,19.8,10,20,10z M19.5,13.2
	c0.2,0.1,0.4,0.3,0.6,0.5c0.1-0.2,0.3-0.4,0.5-0.6c-0.2-0.2-0.4-0.4-0.6-0.5C19.8,12.8,19.6,13,19.5,13.2z"/>
<g>
	<path fill="none" d="M17.9,24.5c0,0.7-0.6,1.1-1.2,0.8c-0.1,0-0.1-0.1-0.2-0.2c-0.2,1-0.5,1.9-0.7,2.9c0,0.1-0.1,0.2-0.1,0.3
		c2.8,0.1,5.6,0.2,8.5,0.2c0-2,0-3.9,0-6c-0.1,0-0.2,0-0.3,0c-1.8,0-3.6,0-5.4,0c-0.1,0.1-0.1,0.1-0.2,0.2
		C17.9,23.3,17.9,23.9,17.9,24.5z"/>
	<path fill="none" d="M16.6,19.9c-0.2,0.3-0.4,0.6-0.7,0.8c0,0,0.1,0.1,0.1,0.1c0.1,0,0.3-0.1,0.5-0.1c0.3,0,0.6,0,0.8,0
		c0,0,0,0,0,0C17.1,20.4,16.8,20.2,16.6,19.9z"/>
	<path fill="none" d="M15.4,30.2c-0.1,0-0.2,0.1-0.3,0.2c-0.4,1.6-0.8,3.1-1.3,4.6c-0.2,0.8-0.5,1.7-0.7,2.5
		c3.7,0.4,7.4,0.6,11.1,0.6c0-2.5,0-5.1,0-7.7c-0.1,0-0.1,0-0.1,0C21.2,30.5,18.3,30.4,15.4,30.2z"/>
	<path fill="none" d="M35,30.6c-0.1-0.2-0.1-0.3-0.4-0.3c-2.8,0.1-5.7,0.1-8.4,0.2c-0.1,0-0.2,0-0.3,0c0,2.6,0,5.2,0,7.8
		c3.6-0.1,7.3-0.3,11-0.7c0-0.1-0.1-0.2-0.1-0.3C36.2,35.1,35.5,32.9,35,30.6z"/>
	<path fill="none" d="M34.3,28.4c0-0.1-0.1-0.2-0.1-0.3c-0.4-1.7-0.8-3.4-1.3-5.1c-0.1-0.2-0.1-0.3-0.4-0.3c-2.2,0-4.4,0-6.5,0
		c-0.1,0-0.1,0-0.3,0c0.1,1.9,0.1,3.9,0.1,5.9C28.7,28.5,31.5,28.4,34.3,28.4z"/>
	<path fill="#FFFFFF" d="M38.8,37.9c-1.6-5.2-2.9-10.6-4.2-16.2c-0.1-0.7-0.4-1-1.1-1c-4.1-0.1-8.3-0.1-12.4,0c0,0.1,0,0.2,0,0.3
		c-0.1,0.4-0.4,0.6-0.7,0.6c-0.7,0.1-1.4,0.4-1.8,1c1.8,0,3.7,0,5.4,0c0.1,0,0.2,0,0.3,0c0,2,0,3.9,0,6c-2.9,0-5.7-0.1-8.5-0.2
		c0-0.1,0.1-0.2,0.1-0.3c0.2-1,0.4-1.9,0.7-2.9c-0.2-0.2-0.3-0.5-0.3-0.7c-0.1-0.7-0.4-1.3-0.9-1.8c-0.8,3.7-1.6,7.3-2.6,10.8
		c-0.5,1.6-1,3.3-1.5,4.8c0,0.1,0,0.2-0.1,0.4c0.1,0.4,0.3,0.6,0.6,0.8c9.2,0.8,17.3,0.8,26.6,0c0.3-0.2,0.5-0.4,0.6-0.8
		c0-0.1,0-0.2,0-0.4C38.9,38,38.8,38,38.8,37.9z M24.2,38.2c-3.7,0-7.4-0.2-11.1-0.6c0.2-0.8,0.5-1.7,0.7-2.5
		c0.4-1.6,0.9-3.1,1.3-4.6c0.1-0.1,0.1-0.2,0.3-0.2c2.8,0.1,5.7,0.2,8.6,0.2c0.1,0,0.1,0,0.1,0C24.2,33.1,24.2,35.7,24.2,38.2z
		 M25.8,22.6c0.1,0,0.2,0,0.3,0c2.2,0,4.4,0,6.5,0c0.2,0,0.3,0.1,0.4,0.3c0.4,1.7,0.8,3.4,1.3,5.1c0,0.1,0.1,0.2,0.1,0.3
		c-2.8,0.1-5.7,0.1-8.5,0.1C25.9,26.5,25.9,24.6,25.8,22.6z M25.9,38.3c0-2.6,0-5.2,0-7.8c0.1,0,0.2,0,0.3,0
		c2.8-0.1,5.6-0.1,8.4-0.2c0.2,0,0.3,0.1,0.4,0.3c0.5,2.3,1.2,4.5,1.9,6.8c0,0.1,0.1,0.2,0.1,0.3C33.2,38,29.6,38.3,25.9,38.3z"/>
	<path fill="#FFFFFF" d="M17,22.9c-0.2,0.8-0.3,1.5-0.5,2.3c0.1,0.1,0.1,0.1,0.2,0.2c0.6,0.3,1.2-0.1,1.2-0.8c0-0.6,0.1-1.2,0.4-1.7
		c0.1-0.1,0.1-0.1,0.2-0.2c-0.4,0-0.7,0-1.1,0C17.1,22.6,17.1,22.6,17,22.9z"/>
	<path fill="#FFFFFF" d="M16,20.8c0,0-0.1-0.1-0.1-0.1c0.2-0.2,0.4-0.5,0.7-0.8c0.2,0.3,0.5,0.5,0.8,0.8c0,0,0,0,0,0
		c1.2,0,2.5,0,3.7,0c0-0.6-0.4-1-0.9-1c-0.8-0.1-1.6-0.4-2.2-1c-0.4-0.5-0.7-1.1-0.8-1.8c-0.1-0.6-0.5-0.9-1-0.9
		c-0.5,0.1-0.8,0.4-0.9,1c0.1,0.6,0,1.2-0.3,1.7c-0.4,0.7-1,1.2-1.9,1.3c-0.4,0.1-0.6,0.2-0.7,0.6c-0.1,0.6,0.3,1.3,1,1.3
		c0.6,0,1.1,0.1,1.6,0.5c0.2,0.1,0.3,0.2,0.4,0.4c0.1-0.3,0.2-0.7,0.2-1C15.6,21.1,15.8,20.9,16,20.8z"/>
	<path fill="#FFFFFF" d="M16.2,24.4c0.1,0.3,0.2,0.6,0.3,0.7c0.2-0.8,0.4-1.5,0.5-2.3c0.1-0.2,0.1-0.3,0.4-0.3c0.4,0,0.7,0,1.1,0
		c0.5-0.6,1.1-0.9,1.8-1c0.3,0,0.6-0.2,0.7-0.6c0-0.1,0-0.2,0-0.3c-1.2,0-2.5,0-3.7,0c-0.2,0.2-0.4,0.5-0.6,0.8
		c-0.3-0.3-0.5-0.5-0.7-0.7c-0.3,0.1-0.4,0.3-0.5,0.8c-0.1,0.3-0.2,0.7-0.2,1C15.8,23.1,16,23.7,16.2,24.4z"/>
</g>
</svg>
