<?xml version="1.0" encoding="utf-8"?>
<!-- Generator: Adobe Illustrator 23.0.0, SVG Export Plug-In . SVG Version: 6.00 Build 0)  -->
<svg version="1.0" id="Layer_1" xmlns="http://www.w3.org/2000/svg" xmlns:xlink="http://www.w3.org/1999/xlink" x="0px" y="0px"
	 viewBox="0 0 50 50" enable-background="new 0 0 50 50" xml:space="preserve">
<path fill="#FFFFFF" d="M38.5,18.8c0,0.3,0.1,0.5,0.6,0.5c0.6,0-0.4,0,0.3,0c0.3,0,0.6,0,0.6-0.3c0-3.1,0-5-0.1-8.1
	c0-0.4-0.3-0.7-0.7-0.7c-9-0.1-17-0.1-28.3,0c-0.3,0.1-0.6,0.4-0.7,0.7c-0.1,11.6-0.1,19.6,0,28.3c0.2,0.5,0.6,0.7,1.3,0.7
	c10.9,0.1,18.6,0.1,27.3,0c0.6,0,1.1-0.2,1.3-0.7C40,33.3,40,31.4,40,25.5c0-0.4-0.3-0.6-0.6-0.6c-0.5,0-0.1,0-0.6,0
	c-0.4,0-0.5,0.3-0.5,0.7s0-0.2,0,0.3c-0.1,0-0.3,0-0.4,0c-2,0-4.2,0-6.2,0c-0.5,0-0.6,0.2-0.6,0.4c0,0.5,0-0.1,0,0.5
	c0,0.4,0.1,0.6,0.6,0.6c0.7,0,1.5,0,2.1,0c0.1,0,0.2,0,0.3,0c0,3.8,0,7.2,0,10.4c-2.8,0-5.5,0-8.3,0c0-0.1,0-0.3,0-0.4
	c0-1.4,0-2.8,0-4.2c0-0.5-0.1-0.6-0.6-0.6s0.2,0-0.4,0c-0.5,0-0.6,0.1-0.6,0.6c0,1.4,0,2.8,0,4.2c0,0.1,0,0.2,0,0.3
	c-0.2,0-1.8,0-2,0c0-0.3,0-0.6,0-1c0-0.2-0.1-0.5-0.2-0.6c-0.3-0.3-0.3-0.6-0.3-1c0-0.2,0-0.4,0-0.6c0-1.1-0.9-1.9-1.9-1.9
	c-1.1,0-2,0.7-2,1.9c0,0.3,0,0.7,0,1.1c0,0.1,0,0.2-0.1,0.3c-0.3,0.2-0.4,0.6-0.4,1c0,0.3,0,0.6,0,0.9c-1.6,0-3.2,0-4.7,0
	c0-1.7,0-3.5,0-5.2c0.1,0,0.2,0,0.3,0c1.2,0,2.5,0,3.6,0c0.7,0,1.2-0.4,1.2-1.2c0-1.2,0-2.5,0-3.6c0-0.1,0-0.2,0-0.3
	c1.8,0,4.8,0,6.6,0c0,0.5,0-0.2,0,0.2c0,0.3,0.2,0.5,0.5,0.5c0.6,0,0.1,0,0.8,0c0.3,0,0.4-0.2,0.5-0.5c0-0.3,0,0.1,0-0.1
	s0,0.1,0-0.2c0.5,0-0.3,0,0.1,0c0.5,0,0.6-0.1,0.6-0.6s0,0.3,0-0.3s-0.1-0.6-0.6-0.6c-0.4,0,0.3,0-0.1,0c0-0.5,0,0,0-0.4
	s-0.2-0.6-0.5-0.6c-0.5,0-0.1,0-0.7,0c-0.6,0-0.7,0.2-0.7,0.8c0,0.4,0-0.2,0,0.3c0.9,0-7.8,0-11.2,0c-0.1,0-0.2,0-0.4,0
	c0-4.2,0-9.7,0-13.9c0.4,0,0.7,0,1.1,0c0,0.1,0,0.3,0,0.4c0,2.3,0,5.3,0,8.7c0,0.7,0.3,0.9,1.2,0.9c1.9,0,3.5,0,5.4,0
	c0.9,0,1-0.1,1-0.9c0-3,0-5.9,0-8.8c0-0.1,0-0.2,0-0.3c0.4,0,2.4,0,2.9,0c0,0.1,0,0.3,0,0.4c0,2.1,0,4.2,0,6.3
	c0,0.4,0.1,0.6,0.6,0.6s0.1,0,0.6,0c0.6,0,0.7-0.1,0.7-0.7c0-2,0-4,0-6.2c0-0.1,0-0.2,0-0.4c1.1,0,0.2,0,1.3,0c0,0.3,0,1.3,0,1.7
	c0,0.7,0.4,1.1,1.1,1.1c1.7,0,6.3,0,8,0c0.7,0,1.1-0.3,1.1-1.1c0-0.3,0-1.4,0-1.7c0.7,0,0.4,0,1.1,0c0,0.1,0,0.2,0,0.3
	C38.4,14.4,38.5,16.7,38.5,18.8z M18.6,34.6c0.1-0.5,0.6-0.9,1.1-0.9c0.5,0,1,0.4,1,1c0,0.4,0,0.9,0,1.3c-0.7,0-1.4,0-2.1,0
	C18.6,35.4,18.5,35,18.6,34.6z M18.1,36.9c1.1,0,2.1,0,3.2,0c0,0.3,0,0.7,0,1.1c-1.1,0-2.1,0-3.2,0C18.1,37.7,18.1,37.3,18.1,36.9z
	 M16.6,31.7c-1.4,0-2.8,0-4.3,0c0-1.4,0-2.8,0-4.2c0.5,0,1.1,0,1.6,0c0,0.3,0,0.6,0,1c0,0.4,0.2,0.5,0.4,0.6c0.3,0,0.4-0.2,0.5-0.6
	c0-0.3,0-0.6,0-1c0.5,0,1.2,0,1.7,0C16.7,29,16.6,30.3,16.6,31.7z M15.2,13.2c0,0.7,0.3,1,1.1,1c0.6,0,1.3,0,1.9,0
	c0.6,0,1.1-0.4,1.1-1.1c0-0.3,0-0.6,0-1.1c0.4,0,0.7,0,1.1,0c0,1.1,0,2.1,0,3.2c-2.1,0-4.2,0-6.3,0c0-1.1,0-2.1,0-3.2
	c0.3,0,0.7,0,1.1,0C15.2,12.3,15.2,12.8,15.2,13.2z M15.9,13.3c0-0.4,0-1,0-1.3c0.7,0,1.9,0,2.7,0c0,0.3,0,1,0,1.3
	C17.8,13.3,16.6,13.3,15.9,13.3z M20.3,21.4c-2.1,0-4.2,0-6.3,0c0-1.7,0-4,0-5.8c2.1,0,4.2,0,6.3,0C20.3,17.3,20.3,19.7,20.3,21.4z
	 M36.7,14c-1.7,0-7,0-8.7,0c0-0.3,0-1.5,0-1.9c1.7,0,7,0,8.7,0C36.7,12.5,36.7,13.6,36.7,14z M34.8,36.9c1.1,0,2.5,0,3.5,0
	c0,0.3,0,0.7,0,1.1c-1.1,0-2.5,0-3.5,0C34.8,37.7,34.8,37.3,34.8,36.9z M34.8,36.2c0,0,0-4.9,0-7c1.1,0,2.5,0,3.5,0c0,2.1,0,7,0,7
	H34.8z M38.3,28.6c-1.1,0-2.5,0-3.5,0c0-0.3,0-0.7,0-1.1c1.1,0,2.5,0,3.5,0C38.3,27.9,38.3,28.3,38.3,28.6z M37.5,32.5
	c0,0.2,0,0.4,0,0.6c0,0.3-0.2,0.4-0.4,0.4c-0.2,0-0.4-0.2-0.4-0.5c0-0.1,0-0.2,0-0.2l0,0c0-0.1,0-0.2,0-0.2c0-0.2,0.1-0.4,0.4-0.4
	C37.2,32,37.5,32.1,37.5,32.5z"/>
</svg>
