<?xml version="1.0" encoding="utf-8"?>
<!-- Generator: Adobe Illustrator 23.0.0, SVG Export Plug-In . SVG Version: 6.00 Build 0)  -->
<svg version="1.0" id="Layer_1" xmlns="http://www.w3.org/2000/svg" xmlns:xlink="http://www.w3.org/1999/xlink" x="0px" y="0px"
	 viewBox="0 0 50 50" enable-background="new 0 0 50 50" xml:space="preserve">
<path fill="#FFFFFF" d="M39.1,24c-0.1,0.2-0.2,0.4-0.4,0.6c-0.3,0.3-0.8,0.4-1.2,0.3c-0.4-0.1-0.7-0.5-0.8-1c0-0.1,0-0.3,0-0.4
	c0-2,0.1-4,0.1-6.1c0-1.5-0.9-2.5-2.4-2.6c-0.4,0-0.8,0-1.3,0c0,0.4,0,0.8,0,1.2c-0.1,0.9-1,1.4-1.7,1c-0.3-0.3-0.5-0.6-0.5-1
	c0-0.4,0.1-0.7,0-1.2c-1.7,0-3.3,0-5,0c0,0.3,0,0.7,0,1.1c0,0.7-0.4,1.3-1,1.3c-0.6,0-1.1-0.5-1.1-1.3c0-0.3,0-0.7,0-1.1
	c-1.6,0-3.2,0-4.9,0.1c0,0.3,0.1,0.7,0,1.1c0,0.7-0.4,1.3-1,1.2c-0.6,0-1.1-0.5-1.2-1.2c0-0.3,0-0.7,0-1.1c-0.6,0.1-1.3,0-1.9,0.2
	c-1,0.2-1.7,1.2-1.7,2.2c0,0.3,0,0.6,0,0.9c0.1,5.6,0.1,11-0.2,16.6c-0.1,1,0.3,1.8,1.2,2.3c0.3,0.2,0.8,0.3,1.1,0.3
	c2.8,0.1,5.6,0.2,8.3,0.2c0.4,0,0.7,0.1,0.9,0.4c0.3,0.4,0.4,0.8,0.2,1.3c-0.1,0.5-0.5,0.7-0.9,0.8c-0.1,0-0.1,0-0.2,0
	c-2.8,0-5.7-0.1-8.6-0.3c-2.2-0.1-3.9-1.7-4.2-3.9c0-0.3-0.1-0.5-0.1-0.8c0.3-5.9,0.3-11.8,0.1-17.7c-0.1-2.2,1.5-4,3.6-4.5
	c0.4-0.2,0.9-0.2,1.4-0.2c0.2,0,0.6,0,0.9,0c0-0.3,0-0.6,0-0.9c-0.1-0.8,0.2-1.2,0.8-1.5c0.1,0,0.3,0,0.4,0c0.7,0.2,1,0.8,1,1.5
	c0,0.3,0,0.6,0.1,0.9c1.7-0.1,3.3-0.1,4.9-0.1c0-0.4,0-0.6,0-0.9c-0.1-0.8,0.2-1.3,0.9-1.6c0.1,0,0.3,0,0.4,0
	c0.7,0.3,0.9,0.8,0.9,1.6c0,0.3,0,0.6,0,0.9c1.7,0,3.3,0,5,0c0-0.3,0.1-0.6,0.1-0.9c0-0.8,0.3-1.3,1-1.5c0.1,0,0.3,0,0.4,0
	c0.7,0.3,0.9,0.8,0.8,1.5c-0.1,0.3,0,0.6,0,0.9c0.6,0,1.1,0,1.6,0c1.8,0.2,3.1,1.1,3.9,2.7c0.2,0.5,0.3,1,0.5,1.5
	C39.2,19.2,39.1,21.6,39.1,24z M39.2,33.3c-0.2,0.7-0.2,1.3-0.4,1.9c-1,3-4,5.2-7.2,4.6c-2.8-0.5-4.7-2.3-5.5-5.1
	c-0.9-2.9-0.2-5.2,1.6-7.2c1.7-1.8,3.9-2.3,6.3-1.6c2.6,0.8,4.3,2.7,4.9,5.5c0,0.2,0.1,0.4,0.1,0.6C39.2,32.6,39.2,33,39.2,33.3z
	 M36.9,32.7c-0.1-2.6-2.2-4.6-4.7-4.7c-2.4,0-4.3,2-4.3,4.6c0,2.6,2.1,4.9,4.6,4.9C35,37.5,37,35.3,36.9,32.7z M19.1,22.4
	c0,0.6-0.5,1.1-1.1,1.1c-0.6,0-1.1-0.5-1.1-1.1c0-0.6,0.5-1.1,1.1-1.1C18.6,21.3,19.1,21.8,19.1,22.4z M23.8,22.4
	c0,0.6-0.4,1.1-1,1.1c-0.6,0-1.1-0.5-1.1-1.1c0-0.6,0.5-1.1,1-1.1C23.3,21.3,23.7,21.8,23.8,22.4z M28.3,22.4c0,0.6-0.5,1.1-1.1,1.1
	c-0.6,0-1.1-0.5-1-1.1c0-0.6,0.5-1.1,1-1.1C27.8,21.3,28.3,21.8,28.3,22.4z M33,22.4c0,0.6-0.5,1.1-1.1,1.1c-0.6,0-1.1-0.5-1.1-1.2
	c0-0.6,0.5-1.1,1.1-1.1C32.5,21.3,33,21.8,33,22.4z M18,28.4c-0.6,0-1.1-0.5-1.1-1.1c0-0.6,0.5-1.1,1.1-1.1c0.6,0,1,0.5,1.1,1.1
	C19.1,27.9,18.6,28.4,18,28.4z M23.7,27.3c0,0.6-0.5,1.1-1.1,1.1c-0.6,0-1-0.5-1.1-1.1c0-0.6,0.5-1.1,1.1-1.1
	C23.2,26.2,23.7,26.6,23.7,27.3z M17.8,33.3c-0.6,0-1.1-0.5-1-1.2c0-0.7,0.6-1.1,1.2-1.1c0.6,0,1.1,0.5,1,1.2
	C19,32.8,18.5,33.4,17.8,33.3z M23.7,32.2c0,0.7-0.5,1.2-1.1,1.1c-0.6,0-1.1-0.5-1-1.2c0-0.6,0.5-1.1,1.1-1.1
	C23.2,31,23.8,31.6,23.7,32.2z M33.4,31.5c0.2,0,0.3,0,0.6,0c0.6,0,1.1,0.6,1.1,1.2c0,0.6-0.4,1.1-1,1.2c-0.6,0-1.1,0-1.6,0
	c-0.6,0-1.1-0.5-1.1-1.2c0-0.8-0.1-1.6-0.1-2.4c0-0.7,0.5-1.1,1.1-1.1c0.6,0,1,0.5,1.1,1.1C33.4,30.7,33.4,31.1,33.4,31.5z"/>
</svg>
