<?xml version="1.0" encoding="utf-8"?>
<!-- Generator: Adobe Illustrator 23.0.0, SVG Export Plug-In . SVG Version: 6.00 Build 0)  -->
<svg version="1.0" id="Layer_1" xmlns="http://www.w3.org/2000/svg" xmlns:xlink="http://www.w3.org/1999/xlink" x="0px" y="0px"
	 viewBox="0 0 50 50" enable-background="new 0 0 50 50" xml:space="preserve">
<g>
	<path fill="#FFFFFF" d="M18.1,40c-0.2-0.8-0.4-1.6-0.5-2.4c-0.1-0.3,0.1-0.6,0.4-0.7c0.3-0.1,0.7-0.2,1-0.3c0.5-0.2,0.7-0.5,0.7-1
		c0-0.2-0.1-0.5-0.1-0.7c0.3-0.1,0.6-0.2,1-0.3c0.5-0.2,0.7-0.5,0.7-1.1c0-0.2-0.1-0.5-0.1-0.7c0.3-0.1,0.6-0.2,0.9-0.3
		c0.6-0.2,0.8-0.6,0.7-1.1c-0.1-0.6-0.1-1.1,0.4-1.6c0.4-0.5,0.8-1,1.2-1.6c0.2-0.3,0.3-0.6,0.1-0.9c-1.4-2.7-0.7-6,1.7-7.8
		c2.9-2.3,7.2-1.5,9.1,1.7c0,0.1,0.1,0.1,0.1,0.2c1.5-0.6,3.4-2.6,3.1-5.5c-0.3-2.5-2.3-4.5-4.8-4.8c-2.8-0.3-4.9,1.4-5.6,3.2
		c2.1,0.3,3.8,1.4,4.8,3.3c-0.6-0.2-1.2-0.4-1.8-0.5c-3.7-0.7-7.5,2-8.2,5.7c-0.2,0.9-0.2,1.7-0.1,2.6c0,0.2,0,0.3-0.2,0.4
		c-3.1,1.8-6.1,3.7-9.2,5.5c-0.1,0.1-0.2,0.1-0.3,0.1c-0.8-0.3-1.6-0.5-2.4-0.8c0.1-0.6,0.2-1.3,0.3-1.9c0-0.1,0.1-0.3,0.1-0.4
		c0.1-0.4,0.3-0.6,0.7-0.5c0.3,0,0.7,0.1,1,0.1c0.5,0,0.8-0.2,1-0.7c0-0.2,0.1-0.3,0.1-0.5c0-0.2,0.2-0.3,0.4-0.2
		c0.2,0,0.5,0.1,0.7,0.1c0.5,0.1,0.9-0.2,1-0.7c0.1-0.2,0.1-0.5,0.2-0.8c0.3,0,0.6,0.1,0.8,0.1c0.7,0.1,1.1-0.1,1.2-0.8
		c0.1-0.6,0.4-1,0.9-1.3c0.6-0.3,1.1-0.7,1.7-1c0.4-0.2,0.5-0.5,0.4-0.9c-0.2-1.5,0.1-2.8,0.9-4c1-1.6,2.5-2.5,4.4-2.8
		c0.3,0,0.4-0.1,0.5-0.4c1.1-2.7,3.8-4.2,6.5-3.9c2.9,0.3,5.3,2.4,5.8,5.5c0.4,2.7-1,5.5-3.4,6.7c-0.2,0.1-0.2,0.2-0.2,0.4
		c1.1,3.8-1.6,7.6-5.5,7.9c-0.6,0-1.2,0-1.7-0.1c-0.4-0.1-0.6,0-0.8,0.3c-2.2,3-4.4,5.9-6.6,8.9c-0.1,0.2-0.3,0.3-0.5,0.3
		c-0.7,0-1.3,0.1-2,0.2C18.4,40,18.3,40,18.1,40z M33.3,23c-0.3,0-0.7,0-1-0.1c-0.1,0-0.2,0.1-0.2,0.1c-0.2,0.2-0.5,0.3-0.8,0.2
		c-0.5-0.1-0.8-0.5-0.9-0.9c0-0.5,0.3-0.9,0.7-1c0.5-0.2,0.9,0,1.2,0.4c0.1,0.1,0.1,0.2,0.2,0.2c0.3,0,0.6,0,0.9,0
		c-0.1-1-1.1-1.8-2.1-1.7c-1,0-1.9,0.9-2,1.9c-0.1,1,0.7,2,1.7,2.2C32,24.4,33,23.9,33.3,23z"/>
</g>
</svg>
