<?xml version="1.0" encoding="utf-8"?>
<!-- Generator: Adobe Illustrator 23.0.0, SVG Export Plug-In . SVG Version: 6.00 Build 0)  -->
<svg version="1.0" id="Layer_1" xmlns="http://www.w3.org/2000/svg" xmlns:xlink="http://www.w3.org/1999/xlink" x="0px" y="0px"
	 viewBox="0 0 50 50" enable-background="new 0 0 50 50" xml:space="preserve">
<g>
	<g>
		<path fill="#FFFFFF" d="M27.1,37c-1.6-0.9-3.1-1.8-4.7-2.6c-1.6-0.8-7.5-4-9.2-4.9c-0.7-0.4-1.1-0.9-1.1-1.8
			c-0.5-4.1-0.8-6.2-1.8-10.5c-0.2-0.8,0.1-1.4,0.8-1.7c3.2-1.5,6.7-2.8,10.6-4.4c0.8-0.3,1.5-0.3,2.3,0c4,1.8,12.2,5.3,15.3,6.9
			c0.7,0.4,0.9,0.9,0.8,1.8c-0.9,4.2-1.2,6.2-1.6,10.5c-0.1,0.9-0.5,1.5-1.1,1.8c-3.1,1.5-6,3.1-8.9,4.7c-0.2,0.1-0.4,0.2-0.5,0.2
			C27.4,37.1,27.2,37.1,27.1,37z M38.7,19c-0.3-0.2-0.6-0.3-0.9-0.5c-2.7-1.4-10.7-4.8-14.2-6.3c-0.7-0.3-1.2-0.3-1.8,0
			c-3.7,1.5-7.1,2.9-10.2,4.4c-0.4,0.2-0.5,0.5-0.5,1c0.9,4.2,1.2,6.2,1.7,10.3c0.1,0.5,0.2,0.8,0.7,1c3.2,1.6,10.4,5.5,13.3,7.2
			c0.4,0.2,0.8,0.2,1.1,0c2.9-1.6,5.8-3.1,8.9-4.7c0.5-0.2,0.7-0.5,0.7-1.1c0.4-4.2,0.6-6.1,1.5-10.3c0-0.1,0-0.2,0.1-0.3
			c-0.2,0.1-0.2,0.1-0.3,0.2c-3.8,1.9-7.3,3.6-10.5,5.3c-0.2,0.1-0.2,0.2-0.3,0.5c-0.1,3.4-0.2,4.7-0.2,8.1c0,0.2,0,0.2,0,0.4
			c-0.1,0.2-0.2,0.3-0.4,0.3c-0.2,0-0.3-0.2-0.4-0.4c0-0.1,0-0.2,0-0.3c0-3.4,0.1-4.7,0.2-8.1c0-0.2-0.1-0.3-0.2-0.4
			c-2.1-1.1-4.3-2.2-6.6-3.4c-0.5-0.2-6.1-3.1-6.7-3.4c-0.3-0.2-0.4-0.4-0.3-0.6s0.3-0.3,0.6-0.2c0.1,0,0.2,0.1,0.2,0.1
			c3.1,1.5,10.8,5.3,13.3,6.6c0.2,0.1,0.3,0.1,0.5,0c2.5-1.3,5.2-2.6,8-4C36.7,19.9,37.7,19.5,38.7,19z"/>
	</g>
	<g>
		<path fill="#FFFFFF" d="M11.7,31c0.1,0,0.2,0,0.3,0.1c0.3,0.2,2.9,1.5,3.1,1.7c2.1,1.1,5.6,3.1,7.7,4.2c0.2,0.1,0.2,0.2,0.2,0.4
			c0,0.3-0.2,0.5-0.5,0.4c0,0-0.1,0-0.1-0.1c-2.3-1.3-8.2-4.4-10.7-5.7c-0.1,0-0.1-0.1-0.2-0.1c-0.2-0.1-0.2-0.2-0.2-0.4
			C11.5,31.2,11.6,31.1,11.7,31z"/>
		<path fill="#FFFFFF" d="M23.4,38.7c-0.2,0.1-0.5,0.2-0.8,0.3c-0.2,0.1-0.3,0-0.4-0.2c-0.1-0.2,0-0.4,0.2-0.5c0,0,0.1,0,0.1-0.1
			c0.2-0.1,0.5-0.2,0.7-0.2c0.3-0.1,0.4-0.4,0.3-0.7c-0.1-0.2-0.2-0.5-0.2-0.8c-0.1-0.2,0-0.5,0.2-0.5c0.2-0.1,0.4,0,0.5,0.2
			c0.2,0.5,0.3,1.1,0.5,1.7c0.1,0.2,0,0.4-0.2,0.5C23.9,38.5,23.7,38.6,23.4,38.7L23.4,38.7z"/>
		<path fill="#FFFFFF" d="M10.3,31.6c-0.2-0.3-0.2-0.6-0.3-0.8c-0.1-0.2,0-0.5,0.2-0.5c0.5-0.2,1-0.4,1.5-0.5c0.2-0.1,0.4,0,0.5,0.2
			s0,0.4-0.2,0.5c-0.3,0.1-0.5,0.2-0.8,0.3c-0.3,0.2-0.4,0.4-0.3,0.8c0.1,0.2,0.2,0.5,0.2,0.8s0,0.5-0.2,0.5c-0.2,0.1-0.4,0-0.5-0.2
			C10.5,32.2,10.4,31.9,10.3,31.6z"/>
	</g>
</g>
</svg>
