<?xml version="1.0" encoding="utf-8"?>
<!-- Generator: Adobe Illustrator 23.0.0, SVG Export Plug-In . SVG Version: 6.00 Build 0)  -->
<svg version="1.0" id="Layer_1" xmlns="http://www.w3.org/2000/svg" xmlns:xlink="http://www.w3.org/1999/xlink" x="0px" y="0px"
	 viewBox="0 0 50 50" enable-background="new 0 0 50 50" xml:space="preserve">
<path fill="#FFFFFF" d="M24.6,25.9c0-1.1,0-4.1,0-5.2c0-0.1,0-0.2,0-0.3c0.1-0.2,0.2-0.3,0.4-0.3s0.3,0.1,0.4,0.3c0,0.1,0,0.2,0,0.3
	c0,2.2,0,6.3,0,8.6c0,0.4-0.1,0.6-0.4,0.6s-0.4-0.2-0.4-0.6C24.6,28.1,24.6,27,24.6,25.9z"/>
<path fill="#FFFFFF" d="M22.1,26c0,1.1,0,2.2,0,3.4c0,0.1,0,0.2,0,0.2c0,0.2-0.2,0.3-0.4,0.3c-0.2,0-0.3-0.1-0.4-0.3
	c0-0.1,0-0.2,0-0.3c0-2.2,0-6.3-0.1-8.6c0-0.1,0-0.2,0.1-0.3c0.1-0.1,0.2-0.2,0.4-0.2c0.2,0,0.3,0.1,0.3,0.3c0,0.1,0,0.2,0,0.3
	C22.1,21.9,22.1,24.8,22.1,26z"/>
<path fill="#FFFFFF" d="M28,25.9c0-1.1,0-4.1,0-5.2c0-0.1,0-0.2,0-0.3c0.1-0.1,0.2-0.2,0.3-0.3c0.2-0.1,0.3,0.1,0.4,0.2
	c0,0.1,0,0.2,0,0.3c0,2.2-0.1,6.3-0.1,8.6c0,0.1,0,0.2,0,0.3c-0.1,0.2-0.2,0.3-0.4,0.3s-0.3-0.1-0.4-0.3c0-0.1,0-0.2,0-0.2
	C28,28.2,28,27,28,25.9z"/>
<g>
	<path fill="none" d="M29,32.8c-0.4,0-0.6-0.1-0.6-0.4c0-0.4,0.2-0.5,0.7-0.5c0.4,0,0.8,0,1.2,0c0-4,0.1-10,0.1-14
		c-3.6,0-7.2,0-10.7,0c-0.1,4,0,9.9,0,14c0.1,0,0.2,0,0.4,0c2.2,0,4.4,0.1,6.6,0c0.1,0,0.1,0,0.3,0c0.2,0,0.4,0.1,0.4,0.4
		c0,0.3-0.1,0.4-0.4,0.5c-0.1,0-0.2,0-0.4,0c-2.5,0-5.1,0-7.6-0.1c-0.1,0-0.2,0-0.3,0c-0.3,0-0.4,0.2-0.4,0.4c0,0.3,0.1,0.5,0.4,0.6
		c0.1,0.1,0.3,0.1,0.4,0.1c1.9,0.1,3.7,0.1,5.5,0.1c2.1,0,4.3,0,6.4-0.1c0.4,0,0.6-0.2,0.6-0.6c0-0.4-0.2-0.5-0.6-0.5
		C30.4,32.8,29.7,32.8,29,32.8z"/>
	<path fill="none" d="M33.5,38c-0.1-0.1-0.2-0.2-0.3-0.2C33.4,37.9,33.5,38,33.5,38z"/>
	<path fill="none" d="M19,38.6v-0.4l0.3-0.3h0.3c-0.8,0-1.6,0-2.5-0.1c-0.1,0-0.2,0-0.3,0c-0.2,0-0.4,0.2-0.4,0.5
		c0,0.3,0.1,0.5,0.4,0.6c0.1,0,0.2,0,0.3,0c2.5,0.1,5.2,0.1,7.8,0.1s5.3-0.1,8-0.2c0.1,0,0.2,0,0.3,0c0.2-0.1,0.4-0.3,0.4-0.5
		c0-0.1,0-0.2-0.1-0.3c0,0-2,0.3-2.1,0.4C31.4,38.5,19,38.6,19,38.6z"/>
	<polygon fill="#FFFFFF" points="33.5,38 33.5,38 33.5,38 	"/>
</g>
<g>
	<path fill="none" d="M30.5,34.8c-3.6,0.1-7.2,0.1-10.7,0c-0.6,0-0.9,0.1-1.1,0.7c-0.1,0.4-0.4,0.9-0.6,1.3c0.7,0,1.5,0,2,0
		s1,0.1,0.9,0.6c0,0.4-0.8,0.4-0.8,0.4h-0.5c-0.8,0-1.6,0-2.5-0.1c-0.1,0-0.2,0-0.3,0c-0.2,0-0.4,0.2-0.4,0.5c0,0.3,0.1,0.5,0.4,0.6
		c0.1,0,0.2,0,0.3,0c2.5,0.1,5.2,0.1,7.8,0.1s7.9-0.2,8.2-0.2c0.2,0,0.4-0.3,0.4-0.5c0-0.1,0-0.2-0.1-0.3c0,0,0,0,0,0s0,0,0,0
		c-0.1-0.2-0.2-0.3-0.6-0.3c-0.3,0-0.6-0.2-0.8-0.3c-0.2-0.1-0.3-0.5-0.3-0.5c-0.3-0.6-0.6-1.1-0.9-1.7
		C30.9,34.9,30.7,34.8,30.5,34.8z"/>
	<path fill="none" d="M19,16C19,16,19,16,19,16C19,15.9,19,15.9,19,16z"/>
	<path fill="none" d="M29,32.8c-0.4,0-0.6-0.1-0.6-0.4c0-0.4,0.2-0.5,0.7-0.5c0.4,0,0.8,0,1.2,0c0-4,0.1-10,0.1-14
		c-3.6,0-7.2,0-10.7,0c-0.1,4,0,9.9,0,14c0.1,0,0.2,0,0.4,0c2.2,0,4.4,0.1,6.6,0c0.1,0,0.1,0,0.3,0c0.2,0,0.4,0.1,0.4,0.4
		c0,0.3-0.1,0.4-0.4,0.5c-0.1,0-0.2,0-0.4,0c-2.5,0-5.1,0-7.6-0.1c-0.1,0-0.2,0-0.3,0c-0.3,0-0.4,0.2-0.4,0.4c0,0.3,0.1,0.5,0.4,0.6
		c0.1,0.1,0.3,0.1,0.4,0.1c1.9,0.1,3.7,0.1,5.5,0.1c2.1,0,4.3,0,6.4-0.1c0.4,0,0.6-0.2,0.6-0.6c0-0.4-0.2-0.5-0.6-0.5
		C30.4,32.8,29.7,32.8,29,32.8z"/>
	<path fill="#FFFFFF" d="M34.3,10.4c-0.6-0.2-1.1-0.3-1.7-0.4c-0.4-0.1-15.1,0-15.3,0c-0.6,0-1.1,0.1-1.7,0.4
		c-1.4,0.7-2.1,2.4-1.8,3.9c0.4,1.5,1.9,2.6,3.3,2.7c0.1,0,0.2,0,0.3,0.1c0.3,0.5,0.7,0.8,1.4,0.9c0.1,4,0.1,9.9,0.1,13.9
		c-0.7,0.1-1.1,0.4-1.4,1.1c-0.1,0.7,0.1,1.3,0.7,1.7c-0.4,0.6-0.6,1.4-1,2c0,0.1-0.1,0.1-0.2,0.1c-0.9,0.1-1.4,0.6-1.4,1.4
		c0,0.8,0.6,1.4,1.4,1.5c5.4,0.3,10.7,0.3,16.1,0c0.9,0,1.5-0.7,1.5-1.5c0-0.9-0.6-1.4-1.4-1.4c-0.1,0-0.2-0.1-0.3-0.1
		c-0.4-0.6-0.6-1.3-1-2c0.6-0.4,0.9-1,0.7-1.7c-0.2-0.7-0.7-1-1.4-1.1c0.1-4,0.1-9.9,0.1-13.9c0.6-0.1,1-0.3,1.3-0.8
		c0.1-0.1,0.2-0.2,0.4-0.2c1.5,0,2.9-1.3,3.2-2.7C36.6,12.8,35.8,11,34.3,10.4z M32.2,37.3c0.2,0.1,0.5,0.3,0.8,0.3
		c0.3,0,0.5,0.1,0.6,0.3c0,0,0,0,0,0s0,0,0,0c0.1,0.1,0.1,0.2,0.1,0.3c0,0.2-0.2,0.5-0.4,0.5c-0.4,0-5.6,0.2-8.2,0.2
		s-5.3-0.1-7.8-0.1c-0.1,0-0.2,0-0.3,0c-0.3-0.1-0.4-0.3-0.4-0.6c0-0.3,0.2-0.5,0.4-0.5c0.1,0,0.2,0,0.3,0c0.8,0,1.6,0.1,2.5,0.1
		h0.5c0,0,0.7,0.1,0.8-0.4c0-0.4-0.4-0.6-0.9-0.6s-1.3,0-2,0c0.2-0.4,0.5-0.9,0.6-1.3c0.2-0.6,0.6-0.7,1.1-0.7
		c3.6,0.1,7.2,0.1,10.7,0c0.2,0,0.4,0.1,0.4,0.3c0.3,0.6,0.6,1.1,0.9,1.7C31.8,36.8,32,37.2,32.2,37.3z M31.7,33.3
		c0,0.4-0.2,0.6-0.6,0.6c-2.1,0.1-4.3,0.1-6.4,0.1c-1.8,0-3.7,0-5.5-0.1c-0.1,0-0.2,0-0.4-0.1c-0.3-0.1-0.4-0.3-0.4-0.6
		c0-0.2,0.1-0.4,0.4-0.4c0.1,0,0.2,0,0.3,0c2.5,0.1,5.1,0.1,7.6,0.1c0.1,0,0.2,0,0.4,0c0.3-0.1,0.4-0.2,0.4-0.5
		c-0.1-0.3-0.2-0.4-0.4-0.4c-0.1,0-0.2,0-0.3,0c-2.2,0.1-4.4,0-6.6,0c-0.1,0-0.2,0-0.4,0c0-4.1-0.1-10,0-14c3.5,0,7.1,0,10.7,0
		c0,4-0.1,10-0.1,14c-0.4,0-0.8,0-1.2,0c-0.5,0-0.7,0.1-0.7,0.5c0,0.3,0.2,0.4,0.6,0.4c0.6-0.1,1.4-0.1,2-0.1
		C31.5,32.8,31.7,32.9,31.7,33.3z M32.6,16c-0.7-0.1-1.3-0.9-1.2-1.6c0-0.8,0.6-1.4,1.4-1.4c0.3,0,0.5,0.1,0.6,0.5
		c0,0.4,0.2,0.6,0.5,0.5c0.3-0.1,0.4-0.3,0.4-0.6c-0.1-0.9-1.1-1.4-2-1.2c-1.1,0.1-1.8,1.3-1.9,2.4c0,0.1,0,0.3,0,0.5
		c-3.5-0.1-3.7,0-3.8,0.4c0,0.5-0.3,0.5,3.9,0.6c0.1,0,0.3,0.1,0.4,0.1c0.3,0.1,0.5,0.4,0.8,0.6C31.5,17,31.3,17,31,17
		c-2.2-0.1-4.4-0.1-6.6-0.1c-1.9,0-3.8,0.1-5.7,0.1c-0.2,0-0.4,0-0.6-0.2c0.3-0.3,0.6-0.6,0.9-0.8c0.6-0.4,0.6-1,0.6-1
		c0-0.1,0-0.3,0-0.4c0.1-1.3-1-2.4-2.3-2.5c-0.8,0-1.5,0.6-1.6,1.4c0,0.3,0.1,0.6,0.4,0.6c0.3,0,0.4-0.1,0.5-0.5
		c0.1-0.4,0.3-0.6,0.7-0.5c0.9,0.1,1.4,0.8,1.4,1.6c-0.1,0.8-0.7,1.4-1.5,1.4c-1.4,0-2.4-1.2-2.5-2.4c-0.1-1.2,0.9-2.6,2.3-2.7
		c0.1,0,0.1,0,0.2,0c5.2-0.1,10.4-0.1,15.6,0c1.3,0,2.4,1,2.5,2.3C35.5,14.7,34.1,16.2,32.6,16z"/>
</g>
</svg>
