<?xml version="1.0" encoding="utf-8"?>
<!-- Generator: Adobe Illustrator 23.0.0, SVG Export Plug-In . SVG Version: 6.00 Build 0)  -->
<svg version="1.0" id="Layer_1" xmlns="http://www.w3.org/2000/svg" xmlns:xlink="http://www.w3.org/1999/xlink" x="0px" y="0px"
	 viewBox="0 0 50 50" enable-background="new 0 0 50 50" xml:space="preserve">
<g>
	<path fill="#FFFFFF" d="M40,19.1c-0.2-0.9-1.3-1.7-2.5-1.7c-8.3,0.2-16.5,0.2-24.8,0c-1.3-0.1-2.5,0.9-2.5,2.2
		c-0.3,3.6-0.1,7.2,0.4,10.8c0.1,0.2,0.1,0.5,0.2,0.7c0.4,1,1.4,1.6,2.5,1.5c7.2-0.3,14.3-0.3,21.4-0.1c0.8,0,1.5,0.1,2.3,0.1
		c1.1,0.1,2.3-0.8,2.5-1.7C39.6,30,40.1,20,40,19.1z M36.4,26.5c-0.4-0.8-1.3-1.3-2.3-1.1c-0.9,0.1-1.7,0.8-1.9,1.6
		c-0.1,0.3,0,0.5,0.3,0.6c0.2,0.1,0.4-0.1,0.6-0.4c0-0.1,0.1-0.1,0.1-0.2c0.2-0.5,0.9-0.9,1.5-0.7c0.7,0.1,1,0.6,1,1.2
		c0,0.7-0.5,1.2-1.3,1.3c-0.3,0-0.5,0.2-0.5,0.4c0,0.2,0.1,0.4,0.4,0.4c0.1,0,0.1,0,0.2,0c0.5,0.1,0.9,0.4,0.9,0.8
		c-1.7,0-3.5-0.1-5.3-0.1c0.1-3.6,0.2-7.1,0.3-10.6c0.3,0,2.6,0.1,3.2,0.1c0,0,0,0,0,0c0.2,0,0.5,0,0.9,0c-0.1,0.1-0.1,0.2-0.2,0.3
		c-0.5,0.7-1,1.3-1.6,2c-0.3,0.4-0.1,0.8,0.4,0.8c1.2,0,2.4,0,3.6,0c0.3,0,0.4-0.1,0.4-0.4c0-0.2-0.1-0.4-0.4-0.4
		c-0.1,0-0.2,0-0.4,0c-0.7,0-1.4,0-2.1,0c-0.1,0-0.1,0-0.3,0c0.5-0.7,1-1.3,1.5-2c0.1-0.1,0.2-0.2,0.4-0.2c0.8,0,1.6-0.1,2.4-0.1
		c0.1,0,0.2,0,0.3,0c0.1,3.6,0.1,7.3-0.4,10.9c-0.6-0.1-1.1-0.1-1.6-0.1c0,0-0.1-0.1-0.1-0.1c-0.2-0.4-0.4-0.8-0.6-1.2
		c0-0.1,0.1-0.1,0.1-0.2C36.6,28.3,36.8,27.3,36.4,26.5z M20.9,20c0-0.2,0.1-0.3,0.4-0.3c2.6,0,5.1,0,7.7,0c0.3,0,0.4,0.1,0.4,0.3
		c0,1.7,0,3.3,0,5c-0.1,1.7-0.1,3.3-0.1,5c0,0.2-0.1,0.3-0.4,0.3c-2.5,0-5,0-7.5,0c-0.3,0-0.4-0.1-0.4-0.3
		C20.9,26.6,20.8,23.3,20.9,20z M11.8,19.8c2.7,0.1,5.6,0.1,8.3,0.1c-0.1,3.6,0,7.1,0.1,10.7c-0.1,0-0.2,0-0.4,0
		c-1.5,0-3,0.1-4.4,0.1c-0.1,0-0.2,0-0.4,0c-0.3,0-2.6,0-2.9,0C11.7,27,11.6,23.4,11.8,19.8z"/>
	<path fill="#FFFFFF" d="M15.5,28.9c1.3,0.1,2.4-0.7,2.6-1.9c0.1-0.7,0-1.3,0-1.9c0.1-0.5,0.1-1,0.1-1.6c-0.1-1.3-1.1-2.3-2.5-2.3
		c-1.4,0-2.5,1-2.5,2.3c0,1,0,2.1,0.1,3.1C13.3,27.8,14.3,28.8,15.5,28.9z M15.7,22.1c0.9,0,1.6,0.6,1.6,1.4c0,0.5,0,1,0,1.5
		c0,0.5,0,1,0.1,1.4c0,0.9-0.6,1.5-1.5,1.5c-0.8,0-1.5-0.6-1.6-1.4c-0.1-1-0.1-2-0.1-3C14.2,22.7,14.9,22.1,15.7,22.1z"/>
	<path fill="#FFFFFF" d="M24.2,22.3c0.3,0,0.6,0,1,0c0,0.1,0,0.3,0.1,0.4c0,1.8,0,3.6,0,5.3c0,0.1,0,0.2,0,0.4
		c0.1,0.1,0.2,0.3,0.4,0.3s0.4-0.1,0.4-0.3c0-0.1,0-0.2,0-0.4c0-1.9,0-3.9,0-5.8c0-0.1,0-0.1,0-0.2c0-0.4-0.2-0.5-0.6-0.5
		c-0.4,0-0.9,0-1.3,0c-0.3,0-0.5,0.1-0.5,0.4C23.7,22.1,23.9,22.3,24.2,22.3z"/>
</g>
</svg>
