<?xml version="1.0" encoding="utf-8"?>
<!-- Generator: Adobe Illustrator 23.0.0, SVG Export Plug-In . SVG Version: 6.00 Build 0)  -->
<svg version="1.0" id="Layer_1" xmlns="http://www.w3.org/2000/svg" xmlns:xlink="http://www.w3.org/1999/xlink" x="0px" y="0px"
	 viewBox="0 0 50 50" enable-background="new 0 0 50 50" xml:space="preserve">
<path fill="#FFFFFF" d="M28.4,30.5c-0.6,0.1-1.2,0.2-1.7,0.3c-0.7,0.1-1.3,0.3-2,0.4c-0.2-0.7-0.6-1.2-1.3-1.4
	c-0.9-0.3-1.7-0.7-2.5-1.1c-0.1-0.1-0.2-0.1-0.2-0.2c-0.6-0.9-1.6-1.3-2.8-1.2c-0.9,0.1-1.7,0.6-2.4,1.2c-0.1,0.1-0.2,0.1-0.4,0.1
	c-1.2-0.1-2.4-0.1-3.5-0.1c-0.3,0-0.5,0.1-0.7,0.2c-0.4,1.7-0.7,3.3-0.9,5c0.1,0.2,0.2,0.3,0.5,0.3c0.7,0.1,3.2,0.3,3.9,0.3
	c0.5,0.1,0.6-0.1,0.6-0.5c0.1-0.1,0.1-0.1,0.1-0.2c0-0.2,0-0.3,0.1-0.5c0.4,0.1,0.7,0.2,1.1,0.4c0.5,0.3,0.9,0.6,1.4,0.9
	c0.7,0.5,1.6,1,2.5,1.3c0.2,0.1,0.5,0.1,0.7,0.1c0.2-0.1,0.5-0.1,0.8-0.1c2.2-0.5,4.4-1,6.7-1.6c0.3-0.1,0.6-0.3,0.9-0.5
	c0.6-0.5,0.7-1.3,0.6-2.1C29.7,30.9,29.2,30.4,28.4,30.5z M14.2,33.5c-0.6-0.1-2.8-0.2-3.3-0.3c0.2-1.3,0.5-2.7,0.8-4
	c0.6,0.1,2.7,0.2,3.3,0.2C14.6,30.8,14.4,32.2,14.2,33.5z M28.8,33c-0.2,0.2-0.5,0.3-0.7,0.4c-2.1,0.6-4.3,1.1-6.4,1.6
	C21.4,35,21,35.1,20.5,35c-0.4-0.1-0.8-0.2-1.2-0.4c-0.7-0.5-1.6-1-2.3-1.5c-0.6-0.4-1.2-0.6-1.8-0.7c0.1-0.3,0.1-0.6,0.1-0.9
	c0.1-0.7,0.2-1.4,0.4-2.1c0.1-0.1,0.1-0.2,0.1-0.2c0.5-0.6,1.1-1,1.8-1.1c1-0.2,1.8,0.2,2.2,0.9c0.1,0.1,0.2,0.2,0.3,0.3
	c1,0.4,1.9,0.8,2.9,1.3c0.2,0.1,0.4,0.2,0.5,0.4c0.3,0.3,0.2,0.7,0,1.1c-0.3,0.3-0.7,0.5-1,0.3c-0.6-0.3-1.1-0.5-1.7-0.7
	c-0.6-0.3-1.2-0.5-1.8-0.7c-0.1-0.1-0.2-0.1-0.3-0.1c-0.2,0-0.3,0.2-0.4,0.3c0,0.2,0.1,0.3,0.3,0.5c0.8,0.3,1.6,0.7,2.4,1
	c0.4,0.2,0.7,0.3,1.2,0.5c0.9,0.4,1.8,0.1,2.2-0.9c0.1-0.2,0.1-0.2,0.2-0.2c1-0.2,2.1-0.4,3.2-0.6c0.2,0,0.3-0.1,0.5,0
	C29.1,31.6,29.3,32.4,28.8,33z"/>
<path fill="#FFFFFF" d="M39.6,14.6c-0.9,0.1-3.4,0.3-4.3,0.3c-0.3,0-0.5,0.2-0.5,0.5c0,0.1,0,0.5-0.2,1c-0.5,0-0.9-0.1-1.2-0.4
	c-0.9-0.5-1.7-0.9-2.7-1.3c-0.8-0.3-1.8-0.3-2.8,0.1c-0.6,0.3-1.2,0.4-1.9,0.7c-0.1,0.1-0.2,0-0.3-0.1c-0.3-0.4-0.7-0.7-1.1-1.1
	c-0.3-0.3-0.5-0.3-0.9,0c-1.6,1.5-3.5,2.9-5.3,4.2c-0.4,0.3-0.4,0.5-0.2,0.8c2.1,2.4,3.9,4.9,5.7,7.7c0.2,0.4,0.4,0.4,0.8,0.1
	c1.7-1.1,3.4-2.4,5.2-3.7c0.2-0.2,0.4-0.2,0.6-0.2c0.2,0,0.3,0,0.5,0c0.9-0.1,1.7-0.7,2.5-1.4c0.2-0.2,0.3-0.2,0.5-0.2
	c1.2,0,2.4,0,3.6,0c0.3,0,0.6-0.1,0.7-0.5c0.6-2,1.2-4,1.5-6.1C40.1,14.7,39.9,14.5,39.6,14.6z M23.6,15.5c0.2-0.2,0.4-0.3,0.5-0.5
	c0.3,0.3,0.5,0.6,0.8,0.8c0,0.1,0.1,0.1,0.1,0.1c-0.6,0.4-1.5,0.4-2,0C23.2,15.9,23.4,15.7,23.6,15.5z M19.2,18.9
	c0.2-0.2,0.4-0.3,0.6-0.4c0.2-0.2,0.4-0.3,0.5-0.4c0.3,0.4,0.1,1.2-0.4,1.7C19.6,19.5,19.4,19.2,19.2,18.9z M24.7,26.2
	c-0.2-0.3-0.4-0.7-0.6-1c0.7-0.2,1.3-0.2,1.8,0.2C25.5,25.6,25.1,25.9,24.7,26.2z M28,23.9c-0.4,0.3-0.8,0.6-1.3,0.9
	c-0.8-0.7-1.9-0.7-3.1-0.2c-1-1.4-2-2.9-3.2-4.2c0.9-0.9,1.1-1.9,0.7-2.9c0.4-0.3,0.7-0.6,1.1-0.9c0.9,0.6,2,0.6,3.2,0
	c0.3,0.3,0.5,0.5,0.8,0.9c-0.1,0-0.1,0.1-0.2,0c-0.4,0.1-0.8,0.4-1.1,0.7c-0.1,0.1-0.2,0.2-0.3,0.2c-1.2,0.3-2.1,1.1-2.4,2.2
	c-0.3,1,0.1,1.9,1.1,2.3c1.1,0.4,2.6-0.1,3.4-1.3c0-0.1,0.1-0.1,0.1-0.2c0.1,0.1,0.2,0.1,0.3,0.1c0.3,0.1,0.6,0.2,0.8,0.3
	c0,0,0.1,0.1,0,0.2C27.8,22.6,27.8,23.2,28,23.9z M26.2,20.9c-0.1,0.6-1,1.1-1.7,1.2c-0.8,0.1-1.4-0.5-1.4-1.2
	c0-0.7,0.7-1.5,1.4-1.7C24.4,20.3,25.2,20.6,26.2,20.9z M28.8,23.3c0-0.3,0-0.6,0-0.9c0.3,0.2,0.4,0.3,0.7,0.4
	C29.2,23,29,23.1,28.8,23.3z M33.6,20.6c-0.1,0.1-0.1,0.1-0.1,0.2c-0.6,0.7-1.2,1.1-2,1.3c-1.1,0.2-1.8-0.1-2.3-0.9
	c-0.1-0.1-0.2-0.2-0.3-0.3c-1-0.4-1.9-0.7-2.9-1.1c-0.2-0.1-0.4-0.2-0.5-0.3c-0.2-0.2-0.2-0.6,0.1-1c0.2-0.3,0.7-0.5,1.1-0.3
	c1.1,0.4,2.3,0.8,3.4,1.1c0.1,0,0.1,0.1,0.2,0.1c0.2,0,0.5-0.1,0.6-0.3c0.1-0.2,0.1-0.5-0.1-0.5c-0.2-0.1-0.3-0.1-0.5-0.1
	c-0.7-0.2-1.5-0.5-2.3-0.7c-0.1,0-0.1,0-0.2-0.1c-0.4-0.5-0.8-1-1.3-1.5c0.6-0.2,1.2-0.5,1.8-0.8c0.7-0.2,1.4-0.2,2,0.1
	c0.9,0.4,1.7,0.9,2.6,1.3c0.4,0.3,0.9,0.4,1.4,0.4c0.2,0,0.2,0,0.2,0.2C34.2,18.4,34,19.5,33.6,20.6z M37.8,20.6c-0.6,0-2.8,0-3.3,0
	c0.4-1.6,0.9-3.2,1.1-4.8c0.6,0,2.8-0.2,3.4-0.2C38.7,17.3,38.3,18.9,37.8,20.6z"/>
</svg>
