<?xml version="1.0" encoding="utf-8"?>
<!-- Generator: Adobe Illustrator 23.0.0, SVG Export Plug-In . SVG Version: 6.00 Build 0)  -->
<svg version="1.0" id="Layer_1" xmlns="http://www.w3.org/2000/svg" xmlns:xlink="http://www.w3.org/1999/xlink" x="0px" y="0px"
	 viewBox="0 0 50 50" enable-background="new 0 0 50 50" xml:space="preserve">
<path fill="#FFFFFF" d="M35.9,10c0.5-0.1,1.5,0,0.6,1.5c-1.2,2.1-2.7,3.9-3.9,4.6c-1.5,0.7-2,1-3.6,1.2c-0.1,0-0.1,0-0.2,0
	c0,0.8,0,0.6,0,1.4c0.1,0,0.3,0,0.4,0c1.5,0,2.9-0.1,4.4-0.1c1.7,0,3.1,1,3.3,2.7c0.3,1.7,0.4,3.6,0.6,5.3c0.2,2.2,0.4,4.5,0.5,6.8
	c0.1,1.1,0.1,2.3,0.1,3.4c-0.1,2-1.6,3.3-3.5,3.1c-6.4-0.6-12.8-0.6-19.1,0c-2,0.1-3.6-1.4-3.6-3.5c0.1-3,0.3-5.9,0.6-8.9
	c0.2-2.1,0.4-4.1,0.7-6.2c0.3-1.8,1.7-2.9,3.6-2.8c1.4,0,2.7,0.1,4.1,0.1c0.1,0,0.2,0,0.3,0c0-0.8,0-0.6,0-1.3
	c-0.8-0.1-1.5-0.2-2.3-0.4c-3.7-1.5-5.3-4.8-5.5-5.2c-0.5-0.8-0.9-1.8,0.5-1.7C19,10.6,26.9,10.7,35.9,10z M25,38
	c3.1,0,6.3,0.1,9.4,0.3c0.1,0,0.2,0,0.3,0c0.9,0,1.5-0.6,1.5-1.5c-0.1-2.2-0.3-4.4-0.4-6.6c-0.2-2.8-0.6-5.5-0.9-8.2
	c-0.1-1-0.6-1.4-1.7-1.4c-5.5,0.1-10.9,0.1-16.3,0c-0.1,0-0.1,0-0.3,0c-0.8,0-1.4,0.5-1.5,1.2c-0.1,0.9-0.2,1.9-0.3,2.8
	c-0.5,4.1-0.8,8.1-1,12.3c0,0.6,0.3,1.3,0.9,1.4c0.3,0.1,0.6,0.1,0.8,0.1C18.7,38,21.9,38,25,38z M34,12c-7.3,0.6-10.9,0.5-18.2-0.1
	c0.1,0.1,0.3,0.4,0.3,0.4c2,2.1,2.5,3.1,5.4,3.3c2,0.1,4,0.1,5.9,0.1c1.7,0,2.8-0.2,3.6-0.6C32.6,14.3,33.6,13,34,12z M23.3,18.7
	c1.2,0,2.4,0,3.6,0c0-0.8,0-0.6,0-1.3c-1.2,0-2.4,0-3.6,0C23.3,18.2,23.3,18,23.3,18.7z"/>
<path fill="#FFFFFF" d="M25.1,34.2c-3.1,0-5.7-2.3-5.8-5.2c-0.1-3,2.5-5.4,5.8-5.4s5.9,2.4,5.8,5.3C30.8,31.9,28.1,34.2,25.1,34.2z
	 M29.4,28.9c0.1-2.2-1.9-4.1-4.4-4.1s-4.4,1.8-4.4,4.1c0.1,2.2,2,4,4.4,4S29.4,31.1,29.4,28.9z"/>
<path fill="#FFFFFF" d="M25.8,28.9c-0.1,0.1-0.1,0.3-0.3,0.4c-0.5,0.5-1.1,1-1.6,1.5c-0.3,0.3-0.7,0.3-1,0.1c-0.3-0.3-0.3-0.7,0-1
	c0.6-0.5,1.1-1,1.6-1.5c0.2-0.2,0.5-0.3,0.8-0.2S25.8,28.6,25.8,28.9z"/>
</svg>
