<?xml version="1.0" encoding="utf-8"?>
<!-- Generator: Adobe Illustrator 23.0.0, SVG Export Plug-In . SVG Version: 6.00 Build 0)  -->
<svg version="1.0" id="Layer_1" xmlns="http://www.w3.org/2000/svg" xmlns:xlink="http://www.w3.org/1999/xlink" x="0px" y="0px"
	 viewBox="0 0 50 50" enable-background="new 0 0 50 50" xml:space="preserve">
<g id="New_Symbol">
	<path fill="#FFFFFF" d="M24.3,39.9c-0.7-0.1-1.3-0.1-1.9-0.3c-3.9-0.7-6.9-2.5-8.9-6c-1.6-2.8-1.9-6-1.1-9.1c0.5-1.9,1.5-3.6,3-4.9
		c0.3-0.2,0.3-0.4,0.1-0.7c-0.4-0.5-0.8-1.1-1.2-1.6c-0.3-0.5-0.3-0.9,0.2-1.2c0.7-0.4,1.3-0.8,2-1.2c0.5-0.3,1-0.2,1.3,0.3
		c0.5,0.6,0.9,1.3,1.3,1.8c1.3-0.3,2.5-0.7,3.8-1c0-0.2,0-0.5,0-0.8c-0.1-0.5-0.5-0.8-1-0.8c-0.2,0-0.4,0-0.6,0
		c-0.5-0.1-0.9-0.4-0.9-0.9c0-0.9,0-1.9,0-2.9c0-0.5,0.5-0.8,1.1-0.8c1.7,0.1,3.5,0.1,5.2,0.1c0.7,0,1.3,0,1.9-0.1
		c0.7,0,1.1,0.3,1.1,0.9c0,0.9,0,1.7,0,2.7c0,0.6-0.4,0.9-1.1,1c-1.3,0.1-1.5,0.3-1.5,1.4c0,0.1,0,0.2,0,0.2
		c1.2,0.3,2.3,0.6,3.5,0.9c0.4-0.5,0.9-1.1,1.3-1.7c0.4-0.6,0.9-0.7,1.5-0.3s1.3,0.7,1.9,1.1c0.5,0.3,0.6,0.7,0.3,1.3
		c-0.5,0.6-0.9,1.3-1.3,1.9c0.5,0.5,1,1,1.4,1.5c2,2.5,2.7,5.5,2.3,8.6c-0.3,2.6-1.4,4.8-3.1,6.6c-1.5,1.5-3.2,2.6-5.3,3.3
		c-1.1,0.4-2.3,0.6-3.6,0.7c-0.1,0-0.1,0-0.2,0.1C25.4,39.9,24.9,39.9,24.3,39.9z M25.1,37.1c5.3,0,9.7-3.7,9.9-8.9
		c0.1-5.1-4.3-9.2-9.9-9.2c-5.5,0-10,4-10,9.2C15.3,33.3,19.8,37.1,25.1,37.1z"/>
	<path fill="#FFFFFF" d="M33.3,28C30.5,28,27.8,28,25.1,28c0-2.5,0-4.9,0-7.3C29.3,20.4,33.4,23.7,33.3,28z"/>
</g>
</svg>
