<?xml version="1.0" encoding="utf-8"?>
<!-- Generator: Adobe Illustrator 23.0.0, SVG Export Plug-In . SVG Version: 6.00 Build 0)  -->
<svg version="1.0" id="Layer_1" xmlns="http://www.w3.org/2000/svg" xmlns:xlink="http://www.w3.org/1999/xlink" x="0px" y="0px"
	 viewBox="0 0 50 50" enable-background="new 0 0 50 50" xml:space="preserve">
<g>
	<g>
		<path fill="#FFFFFF" d="M26.8,36.8c-1.6-0.9-3.1-1.7-4.7-2.6s-7.4-3.9-9.1-4.9c-0.7-0.4-1.1-0.9-1.1-1.7
			c-0.5-4.1-0.8-6.2-1.8-10.4c-0.2-0.8,0.1-1.4,0.8-1.7c3.2-1.4,6.7-2.8,10.6-4.4c0.8-0.3,1.5-0.3,2.3,0c3.9,1.7,12.2,5.3,15.3,6.8
			c0.7,0.4,0.9,0.9,0.8,1.8c-0.9,4.2-1.2,6.2-1.6,10.4c-0.1,0.9-0.5,1.5-1.1,1.8c-3,1.5-6,3-8.9,4.6c-0.2,0.1-0.4,0.2-0.5,0.2
			C27.2,36.9,27,36.9,26.8,36.8z M38.4,18.8c-0.3-0.2-0.6-0.3-0.9-0.5c-2.7-1.4-10.6-4.8-14.1-6.3c-0.7-0.3-1.2-0.3-1.8,0
			c-3.6,1.5-7.1,2.9-10.2,4.3c-0.4,0.2-0.5,0.5-0.5,1c0.9,4.2,1.2,6.2,1.7,10.3c0.1,0.5,0.2,0.8,0.7,1c3.2,1.6,10.3,5.5,13.2,7.1
			c0.4,0.2,0.8,0.2,1.1,0c2.9-1.6,5.8-3,8.9-4.6c0.5-0.2,0.7-0.5,0.7-1.1c0.4-4.2,0.6-6.1,1.5-10.3c0-0.1,0-0.2,0.1-0.3
			c-0.2,0.1-0.2,0.1-0.3,0.2c-3.8,1.9-7.2,3.6-10.5,5.2c-0.2,0.1-0.2,0.2-0.3,0.5c-0.1,3.4-0.2,4.7-0.2,8.1c0,0.2,0,0.2,0,0.4
			c-0.1,0.2-0.2,0.3-0.4,0.3c-0.2,0-0.3-0.2-0.4-0.4c0-0.1,0-0.2,0-0.3c0-3.4,0.1-4.7,0.2-8.1c0-0.2-0.1-0.3-0.2-0.4
			c-2.1-1.1-4.3-2.2-6.6-3.3c-0.5-0.2-6.1-3-6.7-3.3c-0.3-0.2-0.4-0.4-0.3-0.6s0.3-0.3,0.6-0.2c0.1,0,0.2,0.1,0.2,0.1
			c3.1,1.5,10.7,5.2,13.2,6.6c0.2,0.1,0.3,0.1,0.5,0c2.5-1.3,5.2-2.6,8-3.9C36.5,19.8,37.4,19.4,38.4,18.8z"/>
	</g>
	<g>
		<path fill="#FFFFFF" d="M30.8,37.2c0-0.1,0.1-0.2,0.2-0.2c0.3-0.2,0.5-0.3,0.8-0.4c2.1-1.1,4.2-2.1,6.3-3.2c0.2-0.1,0.3-0.1,0.4,0
			c0.2,0.2,0.2,0.5,0,0.7l-0.1,0.1c-2.4,1.2-4.6,2.4-6.9,3.5c-0.1,0-0.1,0.1-0.2,0.1c-0.2,0.1-0.3,0.1-0.4-0.1
			C30.8,37.6,30.8,37.4,30.8,37.2z"/>
		<path fill="#FFFFFF" d="M39.7,34c-0.1,0.3-0.2,0.6-0.3,0.9c-0.1,0.2-0.2,0.3-0.4,0.2c-0.2-0.1-0.3-0.2-0.2-0.5c0-0.1,0-0.1,0-0.2
			c0.1-0.2,0.2-0.5,0.2-0.8c0.1-0.3,0-0.6-0.3-0.8c-0.2-0.1-0.5-0.2-0.7-0.3c-0.2-0.1-0.3-0.3-0.2-0.5c0.1-0.2,0.3-0.3,0.5-0.2
			c0.5,0.2,1,0.5,1.5,0.7C40,32.7,40,33,40,33.2C39.9,33.4,39.8,33.7,39.7,34L39.7,34z"/>
		<path fill="#FFFFFF" d="M30.4,38.7c-0.2-0.1-0.5-0.2-0.8-0.3c-0.2-0.1-0.3-0.2-0.2-0.5c0.2-0.5,0.3-1.1,0.5-1.6
			c0.1-0.2,0.2-0.3,0.5-0.2c0.2,0.1,0.3,0.3,0.2,0.5c-0.1,0.2-0.2,0.5-0.2,0.8c-0.1,0.3,0,0.6,0.3,0.7c0.2,0.1,0.5,0.2,0.7,0.3
			c0.2,0.1,0.3,0.3,0.2,0.5c-0.1,0.2-0.2,0.3-0.5,0.2C30.9,39,30.6,38.8,30.4,38.7z"/>
	</g>
</g>
</svg>
