<?xml version="1.0" encoding="utf-8"?>
<!-- Generator: Adobe Illustrator 23.0.0, SVG Export Plug-In . SVG Version: 6.00 Build 0)  -->
<svg version="1.0" id="Layer_1" xmlns="http://www.w3.org/2000/svg" xmlns:xlink="http://www.w3.org/1999/xlink" x="0px" y="0px"
	 viewBox="0 0 50 50" enable-background="new 0 0 50 50" xml:space="preserve">
<g>
	<g>
		<path fill="#FFFFFF" d="M28.7,33.9c-1.4-0.8-2.9-1.6-4.3-2.3c-1.4-0.8-7-3.7-8.6-4.5c-0.7-0.3-1-0.8-1.2-1.6
			c-0.8-3.9,0.2,0.3-0.8-3.5c-0.2-0.8,0-1.2,0.6-1.5c2.8-1.4,5.9-2.8,9.4-4.1c0.7-0.3,1.4-0.3,2.1,0c3.7,1.4,10.9,4.9,13.6,6.3
			c0.6,0.3,0.8,0.9,0.6,1.7c-0.9,3.9-0.1-0.5-0.7,3.4c-0.1,0.8-0.5,1.4-1.2,1.7c-3,1.5-5.7,2.9-8.3,4.3c-0.1,0.1-0.3,0.1-0.6,0.2
			C29,33.9,28.9,33.9,28.7,33.9z M38.9,23.3c-0.3-0.1-0.6-0.3-0.8-0.4c-2.4-1.3-9.4-4.5-12.5-5.9c-0.6-0.3-1.1-0.3-1.7,0
			c-3.3,1.4-6.3,2.8-9,4.1c-0.3,0.2-0.5,0.5-0.3,0.9c1,3.8,0.1-0.4,0.8,3.4c0.1,0.4,0.3,0.7,0.7,0.9c3.1,1.5,9.8,5.1,12.4,6.6
			c0.3,0.2,0.7,0.2,1,0c2.7-1.4,5.4-2.8,8.3-4.3c0.4-0.2,0.6-0.6,0.7-1c0.6-3.8-0.2,0.6,0.6-3.2c0-0.1,0.1-0.1,0.1-0.3
			C39,24,39,24,38.9,24.1c-3.4,1.7-6.4,3.2-9.2,4.6c-0.1,0.1-0.2,0.2-0.2,0.4c-0.1,3.1,0-1.5-0.1,1.6c0,0.1,0,0.2,0,0.3
			c-0.1,0.2-0.2,0.3-0.3,0.3c-0.2,0-0.3-0.1-0.3-0.3c0-0.1,0-0.2,0-0.3c0.1-3.1-0.1,1.5,0-1.6c0-0.2-0.1-0.3-0.2-0.4
			c-1.9-1-3.8-2-5.8-3c-0.5-0.2-5.4-2.8-6-3c-0.3-0.1-0.3-0.3-0.3-0.6c0.1-0.2,0.3-0.3,0.6-0.1c0.1,0,0.1,0.1,0.1,0.1
			c2.8,1.3,9.5,4.8,11.7,6c0.1,0.1,0.3,0.1,0.5,0c2.2-1.2,4.5-2.3,7-3.5C37.2,24.2,38,23.8,38.9,23.3z"/>
	</g>
	<g>
		<path fill="#FFFFFF" d="M12,24.2c-0.1-0.1-0.1-0.1-0.1-0.3c-0.1-0.3,0.2,0.3-0.6-2.1c-0.1-0.1-0.1-0.3,0.1-0.3
			c0.2-0.1,0.6,0.1,0.7,0.3c0,0.1,0,0.1,0.1,0.1c0.8,2.6-0.2-0.8,0.4,1.9c0,0.1,0,0.1,0.1,0.1c0.1,0.1,0,0.3-0.1,0.3
			S12.2,24.3,12,24.2z"/>
		<path fill="#FFFFFF" d="M12.2,20.5c0.3,0.2,0.6,0.4,0.8,0.6c0.1,0.1,0.2,0.3,0.1,0.5c-0.1,0.1-0.3,0.1-0.5,0.1
			c-0.1,0-0.1-0.1-0.1-0.1c-0.2-0.2-0.5-0.3-0.7-0.6c-0.3-0.2-0.6-0.3-0.8-0.1c-0.1,0.1-0.3,0.3-0.3,0.5c-0.1,0.1-0.3,0.1-0.6,0
			c-0.2-0.1-0.3-0.4-0.1-0.6c0.3-0.3,0.6-0.8,0.8-1.1c0.1-0.1,0.3-0.1,0.5,0.1C11.7,20,11.9,20.2,12.2,20.5L12.2,20.5z"/>
		<path fill="#FFFFFF" d="M13.3,25.3c-0.1,0.2-0.3,0.3-0.4,0.6c-0.1,0.2-0.3,0.1-0.5,0c-0.4-0.4-0.9-0.8-1.4-1.2
			c-0.2-0.1-0.3-0.4-0.1-0.6c0.1-0.1,0.3-0.1,0.5,0c0.2,0.2,0.4,0.3,0.6,0.6c0.3,0.3,0.6,0.3,0.7,0c0.1-0.1,0.3-0.3,0.3-0.5
			c0.1-0.1,0.3-0.1,0.5,0c0.2,0.1,0.2,0.3,0.1,0.6C13.6,24.9,13.4,25.1,13.3,25.3z"/>
	</g>
</g>
</svg>
