<?xml version="1.0" encoding="utf-8"?>
<!-- Generator: Adobe Illustrator 23.0.0, SVG Export Plug-In . SVG Version: 6.00 Build 0)  -->
<svg version="1.0" id="Layer_1" xmlns="http://www.w3.org/2000/svg" xmlns:xlink="http://www.w3.org/1999/xlink" x="0px" y="0px"
	 viewBox="0 0 50 50" enable-background="new 0 0 50 50" xml:space="preserve">
<path fill="#FFFFFF" d="M10,28.3c0.2-0.6,0.7-0.8,1.4-0.7c0-0.1,0-0.2,0-0.3c0-1.1,0-2.1,0-3.2c-0.1-1.2,1-2,2.2-2
	c0.6,0.1,1.3,0,1.9,0c0.1,0,0.2,0,0.3,0c0.1-0.4-0.1-0.9,0.5-0.9s0.4,0.5,0.5,0.9c0.2,0,0.5,0,0.7,0c0.6,0,1.2,0,1.7,0
	c1,0,1.9,0.8,1.9,1.7c0,1.1,0,2.2,0,3.3c0,0.1,0,0.2,0,0.3c0.2,0,0.3,0,0.5,0c0.6,0,1,0.4,1,0.9c0,0.6,0,1.2,0,1.7
	c0,0.5-0.3,0.8-0.9,0.9c-0.1,0.5-0.2,1-0.3,1.5c-0.4,1.2-1.2,2.1-2.3,2.8c-0.2,0.1-0.2,0.2-0.2,0.4c0,0.6,0.1,1.1,0.1,1.6
	c3.1-0.1,7.2-0.1,10.3-0.1c0-0.1,0-0.2,0-0.2c0.1-1.7,0.1-3.5,0.1-5.3c0-0.2-0.1-0.2-0.2-0.3c-2.6-1.2-4-3-4.1-5.8
	c0-0.2,0-0.5,0-0.8v-0.1c-0.1,0-0.2-0.1-0.4-0.1c-0.7-0.2-1.2-0.8-1.1-1.5c0.1-0.6,0.7-1.1,1.4-1.2c0.3,0,0.6,0,1,0
	c0-0.1,0-0.2,0-0.3c0-1.8-0.1-3.6,0-5.4c0.1-2.5,2.2-4.6,4.8-5c3-0.4,5.7,1.2,6.4,4.1c0.1,0.4,0.1,0.8,0.1,1.2
	c0.1,1.7,0.1,3.3,0.2,5c0,0.1,0,0.2,0,0.4c0.3,0,0.6,0,0.9,0c0.9,0,1.5,0.5,1.6,1.2c0.1,0.7-0.5,1.4-1.4,1.5c0,0-0.1,0-0.1,0
	c0,0.2,0,0.5,0,0.7c-0.1,2.8-1.5,4.8-4.3,5.9c-0.1,0.1-0.2,0.1-0.2,0.2c-0.1,1.9-0.1,3.7-0.2,5.6c0,0,0,0.1,0,0.1c0.1,0,0.2,0,0.3,0
	c1.1,0.1,2.2,0.1,3.3,0.2c0.2,0,0.5,0.1,0.6,0.4c0.1,0.3-0.1,0.4-0.3,0.6c-8.3-0.4-17.2-0.4-25.5,0l-0.1-0.1
	c-0.2-0.1-0.3-0.3-0.2-0.6s0.2-0.3,0.5-0.4c0.2,0,0.4,0,0.7-0.1c0.4,0,0.7-0.1,1.2-0.1c-0.1-0.6-0.1-1.1-0.1-1.7
	c0-0.2-0.1-0.2-0.2-0.4c-1.1-0.5-1.9-1.3-2.4-2.4c-0.2-0.6-0.4-1.2-0.6-1.9c-0.5-0.1-0.6-0.2-0.9-0.7C10,29.8,10,29,10,28.3z
	 M26.9,22.2c0.8,0,1.6,0,2.4,0c0-0.2,0-0.3,0-0.4c0-0.2,0.2-0.4,0.5-0.4s0.4,0.2,0.5,0.4c0,0.1,0,0.3,0,0.4c0.4,0,0.6,0,1,0
	c0-0.1,0-0.2,0-0.4c0-0.7-0.1-1.4,0-2c0.1-0.6,0.6-1.1,1.3-1.2c1.1-0.1,1.8,0.9,1.5,1.9c-0.1,0.2-0.2,0.3-0.5,0.3s-0.4-0.1-0.4-0.3
	c0-0.1,0-0.2,0-0.4c0-0.4-0.2-0.6-0.5-0.6s-0.5,0.2-0.5,0.6c0,0.5,0,1,0,1.4c0,0.2,0,0.4,0,0.6c0.4,0,0.6,0,0.9,0
	c0.1-0.4-0.1-0.9,0.5-0.9c0.6,0,0.4,0.5,0.5,0.9c0.8,0,1.6,0,2.4,0c0-0.1,0-0.1,0-0.1c0-1.9-0.1-3.7-0.2-5.5c-0.2-2.7-3-4.6-5.8-4
	c-2.2,0.5-3.8,2.2-3.8,4.5c0,1.7,0,3.3,0,5C26.9,22,26.9,22,26.9,22.2z M25.9,24.8c-0.2,2.4,0.8,4.5,2.8,5.5
	c2.2,1.1,4.3,1.1,6.3-0.2c1.9-1.2,2.6-3.1,2.4-5.3C33.7,24.8,29.8,24.8,25.9,24.8z M12.4,27.5c2.6-0.1,5.1-0.1,7.7-0.1
	c0-0.1,0-0.1,0-0.1c0-1.1,0-2.2,0-3.3c0-0.7-0.4-1-1.1-1c-1.9,0-3.7,0-5.6-0.1c-0.7,0-1.1,0.3-1.1,1.1c0,1.1,0,2.2,0,3.2
	C12.4,27.4,12.4,27.4,12.4,27.5z M20.6,31.1c-2.9,0.1-5.8,0.1-8.7,0.2c0.1,1.5,0.8,2.6,2.1,3.3c1.5,0.9,3.1,0.8,4.6-0.1
	C20,33.7,20.6,32.6,20.6,31.1z M11,30.3c3.5-0.1,7.1-0.2,10.6-0.2c0-0.6,0-1.2,0-1.7c-3.5,0-7.1,0.1-10.6,0.1
	C11,29.1,11,29.7,11,30.3z M30.2,37.3c0.9,0,1.9,0.1,2.8,0.1c0.1-1.9,0.1-3.7,0.2-5.5c-0.9,0.2-1.9,0.1-2.8-0.1 M31.8,23
	c-2,0-4,0-5.9,0c-0.3,0-0.6,0-0.9,0c-0.2,0-0.4,0.2-0.4,0.4c0,0.2,0.2,0.4,0.4,0.5c0.1,0,0.1,0,0.2,0c4.4,0,8.9,0,13.2-0.1
	c0.1,0,0.2,0,0.2,0c0.2-0.1,0.4-0.2,0.4-0.5S38.9,23,38.6,23c-0.1,0-0.2,0-0.3,0C36.1,23,33.9,23,31.8,23z"/>
</svg>
