<?xml version="1.0" encoding="utf-8"?>
<!-- Generator: Adobe Illustrator 23.0.0, SVG Export Plug-In . SVG Version: 6.00 Build 0)  -->
<svg version="1.0" id="Layer_1" xmlns="http://www.w3.org/2000/svg" xmlns:xlink="http://www.w3.org/1999/xlink" x="0px" y="0px"
	 viewBox="0 0 50 50" enable-background="new 0 0 50 50" xml:space="preserve">
<path fill="#FFFFFF" d="M39.7,22.4c-0.1-1.7-0.5-3.3-1.5-4.7c-1.7-2.3-3.9-3.7-6.5-3.9c-2.4-0.1-4.8,0-7.2,0c-0.9,0-1.6,0.4-2.1,1.1
	c-0.2,0.3-0.5,0.5-0.8,0.4c-0.1,0-0.1,0-0.2,0c-1,0.1-1.7,0.5-2.1,1.3c-0.7,1.2-1.4,2.4-2,3.6c-0.6,1.1-0.5,2.2,0.5,3
	c0.1,0.1,0.1,0.2,0.1,0.3c-0.1,0.6,0.1,1.2,0.4,1.7c0.4,0.6,0.7,1.4,1.1,2.1c0,0.1,0.1,0.2,0.1,0.3c-0.2,0-0.3,0-0.4,0
	c-2.8,0-5.6-0.1-8.4-0.1c-0.3,0-0.6,0.1-0.7,0.3c-0.1,2.6-0.1,5.3,0.1,7.9c0.1,0.3,0.3,0.4,0.6,0.4c0.6,0,1.1,0.1,1.7,0.1
	c0.5,0,0.6-0.1,0.6-0.6c0-0.5,0-1.1,0-1.7c0-0.1,0-0.3,0-0.5c0.1,0,0.2,0,0.3,0c3.7,0.1,7.6,0.2,11.3,0.2c3.6,0.1,7.3,0.1,10.9,0
	c0.3,0,0.6-0.1,0.9-0.1c2.1-0.5,3.6-2.3,3.6-4.4C39.9,26.8,39.9,24.6,39.7,22.4z M14.3,32.4c1-1.3,1-2.6,0.1-3.9
	c0.6,0,1.1,0,1.7,0.1c0,0.5,0,1,0,1.4c0.3,0,0.6,0,1,0c0-0.5,0-0.9,0-1.4c0.3,0,0.6,0,1,0c0,0.5,0,0.9,0,1.4c0.4,0,0.7,0,1,0
	c0-0.5,0-0.9,0-1.4c0.4,0,0.7,0,1,0c0,0.5,0,1,0,1.4c0.1,0,0.2,0,0.3,0c0.5-0.1,0.6,0.1,0.8,0.5c0.3,0.6,0.6,1.3,1,1.9
	C19.5,32.5,17,32.5,14.3,32.4z M29.9,29.4c-3.2,0-5.8-2.6-5.8-5.8s2.5-5.8,5.7-5.8c3.1,0,5.8,2.7,5.9,5.8
	C35.7,26.8,33.1,29.4,29.9,29.4z"/>
</svg>
