<?xml version="1.0" encoding="utf-8"?>
<!-- Generator: Adobe Illustrator 23.0.0, SVG Export Plug-In . SVG Version: 6.00 Build 0)  -->
<svg version="1.0" id="Layer_1" xmlns="http://www.w3.org/2000/svg" xmlns:xlink="http://www.w3.org/1999/xlink" x="0px" y="0px"
	 viewBox="0 0 50 50" enable-background="new 0 0 50 50" xml:space="preserve">
<path fill="#FFFFFF" d="M12.1,39.8c-0.4-0.1-0.8-0.1-1.1-0.2c-0.8-0.4-1.1-1.1-1-2.1c0.2-1.9,0.9-13.9,1-15.9c0-0.5,0.4-0.9,0.8-1
	c0.5,0,0.9,0.3,1,0.8c0,0.1,0,0.2,0,0.2c-0.1,1.8-0.7,13.6-0.9,15.3c-0.1,0.7,0.3,1,0.9,0.9c2.8-0.3,15.3-0.5,18.1-0.3
	c0.7,0,1.1-0.3,1.1-1c0-0.3,0-0.5,0-0.7c0-0.6,0.4-0.9,0.9-0.9s0.9,0.5,0.9,1c0,0.5,0.1,1,0,1.5c-0.2,1.1-1.1,2-2.4,1.9
	C28.3,39.2,15.2,39.4,12.1,39.8z"/>
<path fill="#FFFFFF" d="M37.8,39.5c-0.2-0.1-0.3-0.3-0.5-0.5c-0.4-0.5-0.7-0.9-1.1-1.4c-0.3-0.4-0.2-0.9,0.2-1
	c0.2,0,0.4,0.1,0.6,0.3c0.1,0.1,0.1,0.1,0.1,0.2c0,0,0,0,0,0c-0.1-1.7,0.4-16.8,0.5-18.5c-0.1,0.1-0.1,0.1-0.1,0.2
	c-0.3,0.2-0.6,0.2-0.8,0c-0.2-0.3-0.2-0.6,0.1-0.9c0.4-0.4,0.8-0.7,1.2-1.2c0.3-0.3,0.7-0.3,0.9,0c0.3,0.4,0.7,0.8,1,1.3
	c0.1,0.1,0.1,0.2,0.2,0.3c0,0.1,0,0.2,0,0.3c0,0,0,0,0,0.1c-0.2,0.5-0.7,0.6-1,0.2c0,0-0.1-0.1-0.1-0.2c0,0,0,0,0,0
	c-0.1,1.7-0.5,16.9-0.4,18.7c0,0,0,0,0.1,0c0-0.1,0.1-0.1,0.1-0.2c0.3-0.2,0.8,0,1,0.6c0,0,0,0.1,0,0.1c0,0.1,0,0.1,0,0.2
	c0,0.2-0.1,0.3-0.2,0.4c-0.3,0.2-0.5,0.5-0.8,0.7c-0.1,0.1-0.3,0.2-0.4,0.2C38,39.5,37.9,39.5,37.8,39.5z"/>
<path fill="#FFFFFF" d="M13.5,11.6c2.9,0.3,13,0.6,19.1,0.2c-0.1-0.1-0.1-0.1-0.2-0.2c-0.3-0.3-0.3-0.7,0-1c0.3-0.3,0.8-0.3,1.1-0.1
	c0.5,0.4,0.9,0.8,1.4,1.2c0.3,0.3,0.3,0.7-0.1,1.1c-0.5,0.5-1,1-1.4,1.4c-0.3,0.3-0.8,0.4-1,0.1c-0.3-0.3-0.2-0.7,0-1
	c0,0,0.1-0.1,0.2-0.1c0,0-11.8-0.1-11.8-0.1c-2.5,0-5-0.1-7-0.2c0.1,0.1,0.2,0.1,0.2,0.2c0.3,0.3,0.3,0.7,0.1,1
	c-0.3,0.3-0.7,0.3-1-0.1c-0.6-0.5-1.1-1-1.7-1.6c-0.3-0.3-0.4-0.7-0.2-1c0.4-0.4,0.9-0.8,1.3-1.2c0.2-0.2,0.7-0.1,1.1,0.1
	c0.4,0.3,0.4,0.7,0.2,1C13.6,11.5,13.6,11.5,13.5,11.6z"/>
<path fill="#FFFFFF" d="M17.7,16.1c1.3,0,12.5-0.1,13.8-0.1c1.6,0,2.8,1.1,2.7,2.8c0,1.5-0.5,13.1-0.4,14.6c0,0.4-0.2,0.7-0.5,0.8
	c-0.3,0.1-0.7,0-1-0.2C32,33.7,32,33.5,32,33.2c0-1.4,0.4-13,0.5-14.4c0-0.4-0.1-0.7-0.5-0.9c-0.1,0-0.3-0.1-0.5-0.1
	c-2.2,0-14.1,0.1-16.3,0.1c-0.5,0-0.9,0-1.3,0c-0.6,0-0.9,0.3-0.9,0.9c-0.1,0.6-0.4,1-1,0.9c-0.5,0-0.8-0.5-0.9-1
	c0-0.2,0-0.5,0.1-0.7c0.3-1.2,1.3-2,2.5-1.9C15,16.1,16.3,16.1,17.7,16.1z"/>
</svg>
