<?xml version="1.0" encoding="utf-8"?>
<!-- Generator: Adobe Illustrator 23.0.0, SVG Export Plug-In . SVG Version: 6.00 Build 0)  -->
<svg version="1.0" id="_x30_" xmlns="http://www.w3.org/2000/svg" xmlns:xlink="http://www.w3.org/1999/xlink" x="0px" y="0px"
	 viewBox="0 0 50 50" enable-background="new 0 0 50 50" xml:space="preserve">
<path fill="#FFFFFF" d="M39.6,29.9c0.2-0.9,0.2-0.7,0.4-1.6l0,0c0,0,0,0,0-0.1v-0.1l0,0l0,0l0,0c0,0,0,0,0-0.1v-0.1l0,0
	c0,0-0.1,0-0.1-0.1l0,0l0,0l0,0l0,0c-3-1.5-4.5-2.1-7.2-3.2c0.8-0.3,1.2-0.5,2.1-0.8l0,0l0,0l0,0c0.1,0,0.1-0.1,0.1-0.1
	c0,0,0,0,0.1-0.1l0.1-0.1c0,0,0-0.1,0.1-0.1c0,0,0,0,0-0.1c0.3-1.1,0.3-1.8,0.7-3l0,0c0,0,0,0,0-0.1v-0.1l0,0l0,0l0,0c0,0,0,0,0-0.1
	v-0.1l0,0c0,0,0,0-0.1,0l0,0l0,0l0,0l0,0c-1.1-0.4-1.6-0.5-2.6-0.9c0.3-1.1,0.4-1.7,0.7-2.9l0,0c0,0,0,0,0-0.1v-0.1l0,0l0,0l0,0
	c0,0,0,0,0-0.1v-0.1l0,0c0,0,0,0-0.1,0c0,0,0,0-0.1,0l0,0l0,0l0,0c-2.8-1-4.3-1.6-7.6-3l0,0H26h-0.1c0,0,0,0-0.1,0s-0.1,0-0.1,0l0,0
	c-3,1.2-4.4,1.8-7,2.8l0,0l0,0l0,0l0,0l0,0c0,0,0,0-0.1,0c0,0-0.1,0-0.1,0.1l0,0v0.1c0,0,0,0,0,0.1l0,0l0,0l0,0v0.1c0,0,0,0,0,0.1
	l0,0c0.2,1.2,0.3,1.8,0.5,2.9c-1.4,0.5-2.1,0.8-3.5,1.3l0,0l0,0l0,0l0,0l0,0c0,0,0,0-0.1,0c0,0-0.1,0-0.1,0.1l0,0c0,0,0,0,0,0.1
	c0,0,0,0,0,0.1l0,0l0,0l0,0v0.1c0,0,0,0,0,0.1l0,0c0.3,1.2,0.4,1.8,0.6,2.9l0,0c0,0,0,0.1,0.1,0.1c0,0,0,0.1,0.1,0.1
	c0,0,0,0.1,0.1,0.1s0.1,0.1,0.1,0.1l0,0l0,0l0,0c0.5,0.2,0.7,0.3,1.3,0.5c-2.9,1.2-4.4,1.9-7.6,3.4l0,0l0,0l0,0l0,0l0,0l0,0
	c0,0-0.1,0-0.1,0.1l0,0v0.1l0,0l0,0l0,0l0,0v0.1c0,0,0,0,0,0.1l0,0c0.2,0.8,0.3,0.7,0.4,1.5c0,0,0,0,0,0.1c0,0,0,0.1,0.1,0.1
	l0.1,0.1c0,0,0,0.1,0.1,0.1c0.1,0,0.1,0.1,0.1,0.1l0,0l0,0l0,0c7.1,2.4,9,3.3,14.4,6.5l0,0c0.1,0,0.1,0,0.1,0s0.1,0,0.1,0l0,0
	C30.8,33.5,39.6,29.9,39.6,29.9z M31.7,24.5c-1.2,0.5-1.8,0.7-2.8,1.1c0.1-0.8,0.1-1.2,0.2-2.1c2.1-0.9,3.2-1.3,5.8-2.4
	c-0.2,0.9-0.3,1.4-0.5,2.2C33.2,23.9,32.7,24.1,31.7,24.5L31.7,24.5z M18.4,24.3C18.4,24.3,18.4,24.3,18.4,24.3
	c-0.7-0.3-1.1-0.4-1.8-0.7c-0.1-0.9-0.2-1.3-0.4-2.2c2.8,1.1,3.9,1.6,6.1,2.5c0.1,0.8,0.1,1.2,0.1,2C20.9,25.3,20.1,25,18.4,24.3z
	 M25.7,14c2.8,1.1,4.1,1.7,6.5,2.6c-2.6,1.1-3.8,1.6-5.9,2.4c-2.4-0.9-3.6-1.5-6.4-2.6C22,15.5,23.2,15.1,25.7,14z M28.7,23
	c-0.7-0.3-1.1-0.4-1.8-0.7c2-0.8,3.1-1.3,5.5-2.2c0.7,0.3,1.1,0.4,1.9,0.7C31.9,21.7,30.8,22.2,28.7,23z M19.3,17
	c2.9,1.2,4.1,1.7,6.6,2.6c0,0.9-0.1,1.4-0.1,2.2c-2.3-0.9-3.4-1.4-6.1-2.5C19.5,18.4,19.5,17.9,19.3,17z M32.2,19.4
	c-2.5,1-3.6,1.5-5.7,2.4c0.1-0.8,0.1-1.3,0.1-2.2c2.2-0.9,3.4-1.4,6.1-2.5C32.5,18,32.4,18.5,32.2,19.4z M19.4,19.9
	c2.6,1.1,3.7,1.6,5.9,2.4c-1.1,0.5-1.6,0.7-2.6,1.1c-2.2-0.9-3.3-1.4-6-2.5C17.7,20.5,18.2,20.3,19.4,19.9z M23,23.9
	c1.1-0.5,1.6-0.7,2.8-1.1c0,0.8,0,1.2-0.1,2c-1.1,0.5-1.6,0.7-2.7,1.1C23,25.1,23,24.7,23,23.9z M26.4,22.8c0.8,0.3,1.1,0.5,2,0.8
	c-0.1,0.8-0.1,1.2-0.1,2c-0.7-0.3-1.1-0.5-1.9-0.8C26.4,24,26.4,23.6,26.4,22.8z M20.9,26c-0.1,0.1-0.1,0.1-0.3,0.1
	c0.1,0.1,0.1,0.2,0.3,0.3c0.2-0.1,0.3-0.1,0.5-0.2c0.5,0.2,0.7,0.3,1.2,0.5l0,0c0.1,0,0.1,0,0.1,0s0.1,0,0.1,0l0,0
	c1.2-0.5,1.8-0.8,3.2-1.4c0.9,0.4,1.4,0.6,2.4,1l0,0c0.1,0,0.1,0,0.1,0s0.1,0,0.1,0l0,0c0.3-0.1,0.4-0.1,0.7-0.3
	c0.2,0.1,0.3,0.1,0.5,0.3c0.1-0.1,0.2-0.2,0.3-0.3c-0.1-0.1-0.1-0.1-0.3-0.1c0.7-0.3,1.1-0.5,1.9-0.7c2.7,1.1,4,1.8,6.9,3.2
	c-7.2,2.2-9,3-14,5.7c-5-2.7-6.8-3.6-13.9-5.9c3.1-1.5,4.5-2.2,7.4-3.4C19.4,25.3,19.9,25.6,20.9,26z M19.5,27.1
	C19.3,27,19.2,27,19,26.9c-0.3,0.1-0.4,0.2-0.6,0.3c0.2,0.1,0.3,0.1,0.5,0.1C19.1,27.3,19.3,27.2,19.5,27.1z M16.8,28.2
	c0,0.1,0.1,0.1,0.1,0.1c0.1,0.1,0.2,0.1,0.3,0.1c0.3,0,0.3-0.1,0.6-0.1c-0.1-0.1-0.2-0.1-0.3-0.1c-0.1,0-0.1,0-0.1-0.1
	c-0.1-0.1-0.1-0.1,0-0.1c-0.3,0-0.4,0-0.7,0C16.8,28.1,16.8,28.2,16.8,28.2z M22,30.2c-0.2-0.1-0.3-0.1-0.5-0.3
	c-0.1,0.1-0.1,0.2-0.2,0.3c0.3,0.1,0.3,0.2,0.6,0.3C22,30.5,22,30.3,22,30.2z M19.1,29.3c0.3,0.1,0.4,0.2,0.6,0.3
	c0.1-0.1,0.2-0.1,0.4-0.3c-0.2-0.1-0.3-0.1-0.5-0.3C19.3,29.1,19.2,29.2,19.1,29.3z M24.1,30.4c-0.1-0.1-0.1-0.3-0.1-0.4
	c-0.2,0.1-0.3,0.1-0.5,0.3c0.1,0.2,0.1,0.3,0.1,0.4C23.8,30.6,23.9,30.5,24.1,30.4z M28.2,30.6c0-0.2,0-0.3,0.1-0.5
	c-0.1-0.1-0.1-0.1-0.3-0.1c-0.1-0.1-0.1-0.1-0.3-0.1c-0.1,0.1-0.1,0.3-0.1,0.4c0.1,0.1,0.2,0.1,0.3,0.2C28,30.5,28,30.6,28.2,30.6z
	 M26.1,29.6c0-0.2,0-0.3,0.1-0.5c-0.2-0.1-0.4,0.1-0.6,0.1c0.1,0.2,0.1,0.3,0.1,0.5C25.7,29.7,25.9,29.5,26.1,29.6z M30.6,29.7
	c-0.1-0.1-0.2-0.2-0.4-0.3c-0.2,0.1-0.3,0.1-0.5,0.3c0.1,0.1,0.1,0.2,0.3,0.3C30.2,29.9,30.3,29.9,30.6,29.7z M32.8,27.8
	c0.3,0,0.4,0,0.7-0.1c-0.3-0.1-0.4-0.2-0.6-0.3c-0.2,0.1-0.3,0.1-0.6,0.1C32.5,27.6,32.6,27.6,32.8,27.8z M31.8,28.8
	c0.3,0.1,0.3,0.1,0.6,0.2c0.3-0.1,0.4-0.2,0.6-0.3c-0.3-0.1-0.4-0.1-0.6-0.1C32.1,28.6,32,28.7,31.8,28.8z M31.9,26.9
	c-0.3-0.1-0.4-0.2-0.6-0.3c-0.2,0.1-0.3,0.1-0.5,0.2c0.2,0.1,0.3,0.1,0.5,0.3C31.5,27,31.7,26.9,31.9,26.9z"/>
</svg>
