<?xml version="1.0" encoding="utf-8"?>
<!-- Generator: Adobe Illustrator 23.0.0, SVG Export Plug-In . SVG Version: 6.00 Build 0)  -->
<svg version="1.0" id="Layer_1" xmlns="http://www.w3.org/2000/svg" xmlns:xlink="http://www.w3.org/1999/xlink" x="0px" y="0px"
	 viewBox="0 0 50 50" enable-background="new 0 0 50 50" xml:space="preserve">
<g>
	<path fill="#FFFFFF" d="M27.8,40c-0.5-0.2-0.6-1-0.9-1.5c-0.3,0.1-0.5,0.2-0.8,0.3c-0.4,0.1-0.6,0.1-0.9-0.2s-0.2-0.7-0.1-1
		c0.4-0.9,0.6-1.9,1-2.8c-0.3-0.1-0.4-0.3-0.4-0.7c0-0.3,0-0.6,0-0.9c-0.2-0.1-0.5-0.1-0.8-0.2c-0.5-0.1-0.7-0.5-0.4-0.9
		c0.1-0.3,0.2-0.5,0.4-0.8c-0.2-0.1-0.4-0.3-0.6-0.5c-0.5-0.4-0.5-0.6-0.1-1.1c-0.1,0-0.2,0-0.4,0c-3.6,0-7.3,0-11.6,0.1
		c-0.1,0-0.3,0-0.4,0c-0.3-0.1-0.4-0.2-0.5-0.4c0-0.1,0-0.2,0-0.3c-0.4-6-0.4-11.8-0.1-17.9c0-0.6,0.1-0.8,0.8-0.8
		c8.8-0.4,17.3-0.4,26,0c0.7,0.1,0.8,0.2,0.8,0.8c0.3,6.1,0.2,11.9-0.2,17.8c-0.1,0.7-0.2,0.7-1,0.8c-1.1,0-2.1,0-3.1,0
		c-0.1,0-0.2,0-0.4,0c0.1,0.1,0.1,0.2,0.2,0.3c0.2,0.3,0.1,0.5-0.2,0.7c-0.3,0.2-0.5,0.4-0.8,0.6c0.1,0.3,0.3,0.5,0.4,0.8
		c0.2,0.5,0,0.8-0.4,0.9C33,33,32.8,33,32.5,33.1c-0.2,0.5,0.2,1.1-0.4,1.6c0.2,0.6,0.4,1.1,0.6,1.7c0.1,0.3,0.2,0.6,0.3,1
		c0.1,0.4,0.1,0.6-0.1,0.9c-0.2,0.3-0.5,0.3-0.8,0.3c-0.3-0.1-0.6-0.2-0.9-0.3c-0.1,0.3-0.2,0.6-0.4,0.9c-0.1,0.4-0.4,0.6-0.7,0.6
		c-0.4,0-0.5-0.2-0.7-0.6c-0.1-0.4-0.2-0.7-0.4-1.2c-0.1,0.4-0.3,0.8-0.4,1.1c-0.1,0.4-0.3,0.7-0.6,0.8C28,40,27.9,40,27.8,40z
		 M29.2,25.8c0.2-0.2,0.5-0.4,0.7-0.5c0.5-0.4,0.8-0.3,1,0.2c0.1,0.3,0.2,0.5,0.4,0.8c0.3-0.1,0.6-0.1,0.9-0.2
		c0.5-0.1,0.8,0.1,0.8,0.6c0,0.3,0,0.6-0.1,0.8c0,0,0,0,0.1,0c0.3,0.1,0.5,0.1,0.9,0.1c0.5,0.1,0.6,0.4,0.4,0.8
		c-0.1,0.1-0.1,0.2-0.2,0.3c1.2,0,2.5,0,3.8,0c0.4-5.8,0.4-11.4,0.3-17.4c-8.6-0.2-17.1-0.2-25.7,0c-0.1,6-0.1,11.6,0.3,17.4
		c4.5,0,8.3,0,12.1,0c-0.1-0.1-0.1-0.1-0.1-0.2c-0.2-0.6-0.1-0.8,0.5-0.9c0.2-0.1,0.5-0.1,0.7-0.1c0-0.3,0-0.6,0-0.9
		c0-0.4,0.3-0.7,0.7-0.6c0.3,0.1,0.6,0.1,0.9,0.2c0.1-0.2,0.3-0.6,0.4-0.8c0.2-0.4,0.6-0.5,0.9-0.2C28.7,25.4,29,25.6,29.2,25.8z
		 M26.7,33.6c0.2-0.1,0.4-0.1,0.6-0.2c0.4-0.1,0.5,0,0.7,0.3c0.1,0.2,0.2,0.4,0.3,0.7c0.2-0.2,0.4-0.3,0.5-0.5
		c0.2-0.2,0.5-0.2,0.7,0c0.2,0.1,0.4,0.3,0.5,0.5c0.1-0.3,0.2-0.5,0.3-0.7c0.2-0.3,0.4-0.5,0.7-0.3c0.2,0.1,0.4,0.1,0.6,0.2
		c0-0.3,0-0.5,0-0.7c0-0.5,0.1-0.6,0.6-0.7c0.2-0.1,0.4-0.1,0.6-0.1c-0.1-0.1-0.1-0.3-0.2-0.3c-0.1-0.1-0.1-0.2-0.2-0.3
		c-0.1-0.3-0.1-0.5,0.2-0.7c0.2-0.1,0.4-0.3,0.6-0.4c-0.1-0.1-0.3-0.2-0.4-0.3c-0.5-0.4-0.6-0.5-0.2-1c0.1-0.1,0.1-0.3,0.2-0.4
		c-0.1,0-0.1,0-0.1-0.1c-0.2-0.1-0.4-0.1-0.6-0.1c-0.4-0.1-0.5-0.3-0.5-0.6c0-0.2,0-0.4,0-0.7c-0.2,0.1-0.4,0.1-0.7,0.2
		c-0.4,0.1-0.6,0-0.8-0.4c-0.1-0.2-0.2-0.4-0.2-0.6c-0.1,0.1-0.3,0.2-0.4,0.3c-0.5,0.4-0.6,0.4-1.1,0c-0.1-0.1-0.2-0.2-0.4-0.3
		c-0.1,0.2-0.2,0.4-0.3,0.6c-0.2,0.4-0.4,0.4-0.7,0.4c-0.2-0.1-0.4-0.1-0.6-0.1c0,0.2,0,0.5,0,0.7c0,0.3-0.1,0.5-0.5,0.6
		c-0.2,0.1-0.4,0.1-0.7,0.1c0.1,0.2,0.2,0.4,0.2,0.5c0.2,0.4,0.2,0.6-0.2,0.9c-0.1,0.1-0.3,0.2-0.4,0.3c0,0.1,0,0.1,0,0.1
		c0.2,0.1,0.3,0.3,0.5,0.4c0.2,0.2,0.3,0.5,0.2,0.8c-0.1,0.2-0.2,0.4-0.3,0.7c0.2,0.1,0.4,0.1,0.7,0.1c0.4,0.1,0.5,0.3,0.5,0.7
		C26.7,33.1,26.7,33.3,26.7,33.6z M29.1,34.9C29.1,34.9,29.1,34.9,29.1,34.9c0.3,1.2,0.7,2.2,1.1,3.4c0.2-0.4,0.3-1,0.7-1.1
		c0.4-0.1,0.8,0,1.2,0.1c-0.3-0.9-0.7-1.9-1.1-3c-0.1,0.3-0.3,0.6-0.4,0.9c-0.3,0.5-0.6,0.6-1,0.2C29.5,35.3,29.3,35.1,29.1,34.9z
		 M26.1,37.6c0.4-0.1,0.8-0.2,1.1-0.1c0.4,0.1,0.5,0.6,0.7,1.1c0.2-0.7,0.4-1.2,0.6-1.8c0-0.1,0-0.1,0-0.2c-0.1-0.3-0.2-0.6-0.3-0.8
		c-0.4,0.1-0.6,0-0.7-0.4c-0.1-0.3-0.2-0.6-0.4-0.8C26.8,35.5,26.4,36.6,26.1,37.6z"/>
	<path fill="#FFFFFF" d="M25,19.5c-3.2,0-6.4,0-10-0.1c-0.1,0-0.3,0-0.4,0c-0.2-0.1-0.4-0.2-0.4-0.4c0-0.2,0.1-0.4,0.3-0.5
		c0.2-0.1,0.3-0.1,0.5-0.1c6.8,0.1,13.5,0.1,20.3,0c0.1,0,0.3,0,0.4,0.1c0.2,0.1,0.3,0.3,0.3,0.5c0,0.3-0.2,0.4-0.4,0.4
		c-0.1,0-0.3,0-0.4,0C31.5,19.5,28.3,19.5,25,19.5z"/>
	<path fill="#FFFFFF" d="M25.1,22.1c-3.2,0-6.4,0-9.9-0.1c-0.1,0-0.2,0-0.4,0c-0.3,0-0.5-0.2-0.5-0.5c0-0.3,0.2-0.4,0.5-0.5
		c0.1,0,0.2,0,0.3,0c6.7,0.1,13.4,0.1,20.1,0c0.1,0,0.3,0,0.4,0.1c0.2,0.1,0.3,0.2,0.3,0.4c0,0.3-0.2,0.4-0.4,0.4
		c-0.1,0-0.3,0-0.4,0C31.5,22.1,28.3,22.1,25.1,22.1z"/>
	<path fill="#FFFFFF" d="M20.2,16.9c-1.7,0-3.4,0-5.2-0.1c-0.5,0-0.7-0.2-0.8-0.5c0-0.3,0.2-0.5,0.7-0.5c3.6,0,7,0,10.3,0
		c0.1,0,0.3,0,0.3,0.1c0.2,0.1,0.3,0.3,0.3,0.5c0,0.3-0.1,0.4-0.3,0.5c-0.1,0-0.3,0-0.3,0C23.5,16.9,21.8,17,20.2,16.9z"/>
	<path fill="#FFFFFF" d="M28.2,30.2c0,0.6,0.5,1.1,1,1.1c0.6,0,1.1-0.5,1.1-1.1c0-0.6-0.5-1.1-1.1-1.1
		C28.6,29.2,28.2,29.7,28.2,30.2z"/>
</g>
</svg>
