<?xml version="1.0" encoding="utf-8"?>
<!-- Generator: Adobe Illustrator 23.0.0, SVG Export Plug-In . SVG Version: 6.00 Build 0)  -->
<svg version="1.0" id="Layer_1" xmlns="http://www.w3.org/2000/svg" xmlns:xlink="http://www.w3.org/1999/xlink" x="0px" y="0px"
	 viewBox="0 0 50 50" enable-background="new 0 0 50 50" xml:space="preserve">
<path fill="#FFFFFF" d="M20.1,13c1.9,0,3.5,1.6,3.4,3.5c0,2-1.5,3.6-3.4,3.6c-1.9,0-3.4-1.6-3.5-3.5C16.7,14.6,18.1,13,20.1,13z
	 M18.2,14.2c-1,0.8-1.3,2.4-0.8,3.6c0.6,1.3,2,2,3.3,1.7c1.2-0.3,2.2-1.5,2.2-2.7c-0.1,0-0.1,0-0.2,0c-0.9,0-1.7,0-2.6,0
	c-0.2,0-0.4-0.1-0.5-0.3C19.3,15.8,18.7,15,18.2,14.2z M18.6,14c0.5,0.8,1,1.5,1.5,2.2c0.6-0.7,1.3-1.3,1.9-2
	C21.2,13.4,19.5,13.2,18.6,14z M22.4,14.6c-0.6,0.6-1.2,1.2-1.7,1.8c0.8,0,1.6,0,2.4,0C23,15.7,22.8,15.1,22.4,14.6z"/>
<path fill="#FFFFFF" d="M18.9,30c-0.5,0-1.1,0-1.6,0c-0.3,0-0.5-0.1-0.5-0.4c0-0.2,0.1-0.3,0.5-0.3c1.1,0,3.5,0,4.6,0
	c0.3,0,0.5,0.1,0.5,0.3c0,0.3-0.1,0.3-0.5,0.3C21.3,30,19.4,30,18.9,30z"/>
<path fill="#FFFFFF" d="M17.9,31.2c0.3,0,2,0,2.3,0c0.2,0,0.4,0.1,0.3,0.3c0,0.3-0.1,0.3-0.4,0.3c-0.5,0-2.5,0-2.9,0
	c-0.2,0-0.4-0.1-0.3-0.3c0-0.3,0.1-0.3,0.4-0.3C17.4,31.2,17.6,31.2,17.9,31.2z"/>
<path fill="#FFFFFF" d="M28.9,34.6c0.4,0,0.6-0.3,0.6-0.7c0-0.4-0.3-0.6-0.6-0.6c-0.4,0-0.6,0.3-0.6,0.7
	C28.2,34.3,28.5,34.7,28.9,34.6z"/>
<path fill="#FFFFFF" d="M32.7,36.9c0-0.4-0.3-0.7-0.6-0.6c-0.4,0-0.6,0.3-0.6,0.7c0,0.4,0.3,0.6,0.6,0.6
	C32.4,37.6,32.7,37.3,32.7,36.9z"/>
<path fill="#FFFFFF" d="M31.4,24.9c1.2,0,3.3,0,4.5,0c0.3,0,0.4,0.1,0.4,0.4c0,0.5,0,1,0,1.5c0,0.3-0.1,0.4-0.4,0.4
	c-2.4,0-5.8,0.1-8.2,0.1c-0.3,0-0.4-0.1-0.4-0.4c0-0.5,0-1,0-1.5c0-0.3,0.1-0.4,0.4-0.4C29,24.9,30.1,24.9,31.4,24.9z M27.9,26.6
	c2.2,0,5.5,0,7.7,0c0-0.4,0-0.7,0-1.1c-2.2,0-5.5,0-7.8,0C27.9,25.9,27.9,26.3,27.9,26.6z"/>
<path fill="#FFFFFF" d="M28.9,37.7c-0.4,0-0.6-0.3-0.6-0.7s0.3-0.6,0.6-0.7c0.4,0,0.6,0.3,0.6,0.7S29.3,37.7,28.9,37.7z"/>
<path fill="#FFFFFF" d="M35.2,37.5c-0.4,0-0.6-0.3-0.6-0.6c0-0.4,0.3-0.7,0.6-0.7c0.4,0,0.6,0.3,0.6,0.6
	C35.8,37.2,35.5,37.5,35.2,37.5z"/>
<path fill="#FFFFFF" d="M35.7,33.8c0,0.4-0.3,0.7-0.6,0.7c-0.4,0-0.6-0.3-0.6-0.6c0-0.4,0.3-0.7,0.6-0.7
	C35.5,33.1,35.7,33.4,35.7,33.8z"/>
<path fill="#FFFFFF" d="M28.9,34.6c-0.4,0-0.6-0.3-0.6-0.7c0-0.4,0.3-0.7,0.6-0.7c0.3,0,0.6,0.3,0.6,0.6
	C29.5,34.3,29.3,34.6,28.9,34.6z"/>
<path fill="#FFFFFF" d="M35.1,31.5c-0.4,0-0.6-0.3-0.6-0.6c0-0.4,0.3-0.7,0.6-0.7s0.6,0.3,0.6,0.6C35.7,31.2,35.5,31.5,35.1,31.5z"
	/>
<path fill="#FFFFFF" d="M31.9,31.6c-0.4,0-0.6-0.3-0.6-0.6c0-0.4,0.3-0.7,0.6-0.7s0.6,0.3,0.6,0.6C32.6,31.3,32.3,31.5,31.9,31.6z"
	/>
<path fill="#FFFFFF" d="M32.7,36.9c0,0.4-0.3,0.7-0.6,0.7c-0.4,0-0.6-0.3-0.6-0.6c0-0.4,0.3-0.7,0.6-0.7
	C32.3,36.2,32.7,36.5,32.7,36.9z"/>
<path fill="#FFFFFF" d="M32.7,33.9c0,0.4-0.3,0.7-0.6,0.7c-0.4,0-0.6-0.3-0.6-0.6c0-0.4,0.3-0.7,0.6-0.7
	C32.3,33.2,32.7,33.5,32.7,33.9z"/>
<path fill="#FFFFFF" d="M28.9,31.6c-0.4,0-0.6-0.3-0.6-0.7s0.3-0.7,0.6-0.7c0.3,0,0.6,0.3,0.6,0.6C29.5,31.3,29.2,31.6,28.9,31.6z"
	/>
<path fill="#FFFFFF" d="M38.2,25.2c0-1.1-0.7-1.9-1.8-1.9c-1.4,0-2.8,0-4.1,0c-0.1,0-0.2,0-0.3,0c0-0.1,0-0.3,0-0.4
	c0-2.4,0.1-4.8,0.1-7.2c0-0.3-0.1-0.7-0.3-0.9c-1.4-1.5-2.8-3-4.2-4.5c-0.2-0.3-0.5-0.3-0.8-0.3c-4.1,0-8.2,0.1-12.3,0.2
	c-0.6,0-1,0.5-1,1.1c0,0.3,0,0.6,0.1,0.9c-0.3,0-0.6,0-0.9,0.1c-0.7-0.1-1.1,0.3-1,1c0,0.1,0,1.5,0.1,1.6C12,22,12,29.1,11.8,36.2
	c0,0.9,0.3,1.3,1.2,1.3c4.1,0.2,8.1,0.3,12.2,0.3c0.1,0,0.2,0,0.3,0c0,0.3,0,0.6,0.1,0.9c0,0.3,0.4,0.7,0.5,0.9
	c0.4,0.4,0.9,0.5,1.3,0.5c3.1-0.1,6.1-0.1,9.2-0.3c1.1-0.1,1.8-0.9,1.8-2C38.3,33.6,38.2,29.4,38.2,25.2z M27.3,11.1
	c1.3,1.3,2.4,2.6,3.6,3.9c-0.7,0-1.4,0-2.1-0.1c-0.9-0.1-1.5-0.9-1.5-1.8C27.3,12.5,27.3,11.8,27.3,11.1z M25.5,37
	c-0.1,0-0.2,0-0.3,0c-4.1,0-8.2-0.1-12.2-0.3c-0.5,0-0.5-0.1-0.5-0.5c0.1-7.6,0.1-15.2-0.2-22.8c0-0.5,0-0.5,0.5-0.5
	c0.2,0,0.5,0,0.7,0c0,0.2,0,0.3,0,0.4c0.3,7,0.4,14.2,0.3,21.2c0,0.9,0.3,1.2,1.1,1.2c3.4,0.1,6.8,0.1,10.3,0.1c0.1,0,0.2,0,0.3,0
	C25.5,36.3,25.5,36.6,25.5,37z M25.5,25.2c0,1,0,5.1,0,5.9c-0.3,0-0.5,0-0.8,0c-0.5,0-1,0-1.5,0c-0.3,0-0.4,0.1-0.4,0.3
	c0,0.3,0.1,0.3,0.4,0.3c0.7,0,1.5,0,2.3,0c0,1.1,0,2.1,0,3.2c-0.1,0-0.2,0-0.3,0c-3.4,0-6.9-0.1-10.3-0.1c-0.5,0-0.5-0.1-0.5-0.5
	c0.1-7.7,0-15.4-0.3-23.1c0-0.5,0-0.5,0.5-0.5c3.9,0,7.8-0.1,11.6-0.1c0.1,0,0.2,0,0.3,0c0,0.5,0,0.9,0,1.3c0,0.5,0,1.1,0.1,1.6
	c0.2,1.3,1.2,2.1,2.4,2.1c0.8,0,1.5,0,2.3,0c-0.1,2.5-0.1,5-0.1,7.6c-0.1,0-0.2,0-0.3,0c-1.2,0-2.4,0-3.5,0
	C26.3,23.3,25.5,24.1,25.5,25.2z M36.6,39.1c-3,0.1-6.1,0.2-9.1,0.3c-0.8,0-1.3-0.4-1.3-1.3c0-2.9,0-5.8,0-8.8c0-0.1,0-0.2,0-0.3
	c3.8,0,7.6,0,11.4-0.1c0,0.1,0,0.2,0,0.3c0,2.9,0.1,5.7,0.1,8.7C37.8,38.5,37.4,39,36.6,39.1z M37.6,28c-3.8,0.1-7.6,0.1-11.4,0.1
	c0-0.1,0-0.2,0-0.3c0-0.9,0-1.8,0-2.7c0-0.7,0.5-1.2,1.1-1.2c3,0,6.1,0,9.1,0c0.7,0,1.1,0.5,1.1,1.2C37.6,26.2,37.6,27.1,37.6,28z"
	/>
</svg>
