<?xml version="1.0" encoding="utf-8"?>
<!-- Generator: Adobe Illustrator 23.0.0, SVG Export Plug-In . SVG Version: 6.00 Build 0)  -->
<svg version="1.0" id="Layer_1" xmlns="http://www.w3.org/2000/svg" xmlns:xlink="http://www.w3.org/1999/xlink" x="0px" y="0px"
	 viewBox="0 0 50 50" enable-background="new 0 0 50 50" xml:space="preserve">
<path fill="#FFFFFF" d="M38,32c-1-3-2.5-5.7-4.1-8.4c-0.2-0.3-0.5-0.7-0.7-1c-0.1,0.1-0.1,0.1,0,0.1c-1.9,2.9-3.7,5.7-5,8.8
	c-0.4,1-0.7,2-0.8,2.9c-0.1,2.8,1.9,5.1,4.8,5.6c2.5,0.4,5.2-1.3,6.1-3.9C38.7,34.6,38.4,33.3,38,32z"/>
<path fill="#FFFFFF" d="M21.5,24.7c0,0.3-0.1,1.5-0.2,2c-0.2,1.2-0.7,1.7-1.1,1.7c-0.3,0-0.6-0.2-0.7-0.6c0-0.1-0.1-0.2-0.1-0.3
	c-0.6-2-1.8-3.6-3.5-4.8c-0.1-0.1-0.2-0.1-0.3-0.2c0.2,0.7,0.4,1.4,0.6,2c0.6,2.4-0.1,4.2-2.1,5.5c-0.6,0.4-1.2,1-1.6,1.6
	c-1.5,2-1.3,4.9,0.5,6.6c0.7,0.6,2,1.6,3.8,1.7c3.2,0.2,5.4-0.5,6.9-4.2c0.4-1,0.5-2.2,0.5-3.3C24.3,30.2,21.9,25.2,21.5,24.7z"/>
<path fill="#FFFFFF" d="M28.5,17.1c-1,0-1.3-0.5-0.8-1.4c1.1-1.8,2.1-3.5,3.1-5.3c0.1-0.1,0.1-0.3,0.2-0.4c-0.1,0-0.1,0-0.2,0
	c-2.2,0.1-4.4,0.1-6.6,0.1c-0.3,0-0.3,0.1-0.4,0.3c-0.9,2.6-1.7,5.2-2.6,7.9c0,0.1,0,0.3-0.1,0.4c0.2,0,0.4,0,0.5,0
	c1.3,0,2.6,0,3.9,0c1,0,1.2,0.5,1,1.3c-0.5,1.4-1,2.8-1.5,4.2c-0.1,0.2-0.1,0.5-0.2,0.7h0.1c2.2-2.5,4.4-5.1,6.7-7.8
	C30.4,17.1,29.4,17.1,28.5,17.1z"/>
</svg>
