<?xml version="1.0" encoding="utf-8"?>
<!-- Generator: Adobe Illustrator 23.0.0, SVG Export Plug-In . SVG Version: 6.00 Build 0)  -->
<svg version="1.0" id="Layer_1" xmlns="http://www.w3.org/2000/svg" xmlns:xlink="http://www.w3.org/1999/xlink" x="0px" y="0px"
	 viewBox="0 0 50 50" enable-background="new 0 0 50 50" xml:space="preserve">
<path fill="#FFFFFF" d="M30,37.3c-0.4,0.7-0.9,1.5-1.3,2.3c-0.1,0.2-0.3,0.4-0.5,0.4s-0.3-0.3-0.4-0.5c-0.8-2.4-1.5-4.9-2.3-7.3
	c0-0.1-0.1-0.2-0.1-0.3c-0.3,0-0.6,0-0.9,0c-0.1,0.3-0.3,0.7-0.4,1.1c-0.7,2.1-1.4,4.3-2.1,6.4v0.1c-0.1,0.3-0.2,0.4-0.4,0.4
	c-0.3,0-0.4-0.1-0.5-0.3c-0.3-0.7-0.7-1.3-1.1-2c-0.1-0.1-0.1-0.2-0.2-0.3c-0.7,0.3-1.5,0.5-2.2,0.7c-0.2,0.1-0.4,0.1-0.6-0.1
	c-0.2-0.2-0.1-0.5-0.1-0.7c0.7-2.3,1.5-4.7,2.3-7.1c0.1-0.2,0.1-0.4-0.1-0.6c-0.1-0.2-0.3-0.4-0.3-0.7c-0.3-0.6-0.7-1.1-1.3-1.3
	c-0.1,0-0.1-0.1-0.1-0.1c-1.1-0.5-1.7-1.5-1.6-2.7c0.1-0.8-0.3-1.8-0.8-2.4c-0.7-0.9-0.8-2.1-0.1-3c0.4-0.6,0.6-1.5,0.5-2.3
	c-0.3-1.3,0.3-2.3,1.5-2.8c0.7-0.3,1.2-0.9,1.5-1.6c0.4-1.2,1.5-1.9,2.7-1.7c0.8,0.1,1.8-0.3,2.4-0.7c1.1-0.7,1.9-0.7,3.3,0
	c0.6,0.5,1.6,0.7,2.3,0.7c1.3-0.1,2.3,0.5,2.8,1.7c0.3,0.7,0.8,1.2,1.5,1.6c1.1,0.5,1.7,1.5,1.5,2.8c-0.1,0.7,0.1,1.7,0.5,2.3
	c0.7,0.9,0.5,2.1-0.2,3c-0.5,0.6-0.8,1.5-0.7,2.3c0.1,1.2-0.6,2.2-1.7,2.7c-0.7,0.3-1.1,0.7-1.4,1.5c0,0.1-0.1,0.1-0.1,0.2
	c-0.4,0.5-0.3,0.9-0.1,1.5c0.7,2.2,1.4,4.4,2.1,6.6c0.1,0.3,0.1,0.5-0.1,0.7c-0.2,0.2-0.4,0.2-0.6,0.1C31.4,37.8,30.7,37.6,30,37.3z
	 M33.6,17.7c0.2-1.2-0.1-1.9-1.1-2.4c-0.8-0.4-1.3-1.1-1.7-1.9c-0.3-0.9-1-1.3-1.9-1.2c-0.4,0-0.8,0-1.2-0.1
	c-0.6-0.1-1.1-0.4-1.6-0.7c-0.5-0.5-1.6-0.5-2.2-0.1c-0.7,0.7-2,0.9-3,0.9c-0.8-0.1-1.5,0.3-1.8,1.1c-0.3,0.9-1.1,1.7-1.9,2.1
	c-0.7,0.3-1.1,1.1-1,1.9c0,0.1,0,0.1,0,0.1c0.1,1.1,0,1.9-0.6,2.7c-0.4,0.5-0.4,1.6,0.1,2.1c0.1,0.1,0.2,0.2,0.3,0.3
	c0.3,0.5,0.6,1.1,0.6,1.7c0,0.3,0,0.6,0,0.9c0,0.7,0.3,1.2,0.9,1.5c0.1,0.1,0.1,0.1,0.3,0.1c0.9,0.4,1.5,1.1,1.9,1.9
	c0.3,0.8,0.9,1.3,1.7,1.1c0.9-0.1,1.9,0.2,2.6,0.8c0.6,0.5,1.3,0.5,1.9,0c0.7-0.7,1.7-0.9,2.7-0.8c0.9,0.1,1.3-0.2,1.7-1.1
	c0.4-0.9,1.1-1.6,1.9-2c0.9-0.4,1.1-0.8,1.1-1.7c0-0.1,0-0.1,0-0.1c-0.1-1,0.3-1.9,0.9-2.7c0.5-0.5,0.6-1.5,0.1-2.1
	C34.1,20.1,34.1,20,34,20C33.6,19.2,33.4,18.4,33.6,17.7z M21.3,38.3c0.7-2.3,1.5-4.5,2.2-6.8c-0.5-0.5-1.1-0.8-1.8-0.7
	c-0.6,0.1-1.2,0.1-1.8-0.2c-0.7,2.1-1.3,4.2-2,6.3c0.6-0.2,1.1-0.4,1.7-0.5c0.4-0.1,0.5-0.1,0.7,0.3C20.7,37.2,21,37.7,21.3,38.3z
	 M28.4,38.3c0.1-0.1,0.1-0.2,0.2-0.3c0.3-0.5,0.5-1,0.8-1.5c0.2-0.3,0.3-0.4,0.7-0.3c0.1,0,0.2,0.1,0.3,0.1c0.5,0.1,0.9,0.3,1.5,0.5
	c-0.7-2.1-1.3-4.2-2-6.3c-0.6,0.3-1.2,0.3-1.9,0.2c-0.7-0.1-1.3,0.3-1.8,0.7C26.9,33.8,27.6,36.1,28.4,38.3z"/>
<path fill="#FFFFFF" d="M29.7,20c-0.1,0.1-0.2,0.2-0.3,0.3c-0.6,0.5-1.2,1.1-1.8,1.7c-0.2,0.2-0.2,0.3-0.2,0.5
	c0.1,0.8,0.3,1.7,0.3,2.5c0,0.2-0.1,0.4-0.2,0.5c-0.1,0.1-0.4,0.1-0.5,0c-0.7-0.4-1.4-0.8-2.1-1.2c-0.2-0.1-0.3-0.1-0.5,0
	c-0.7,0.4-1.4,0.8-2.1,1.1c-0.2,0.1-0.4,0.2-0.6,0.1c-0.2-0.2-0.2-0.4-0.2-0.6c0.1-0.8,0.2-1.6,0.3-2.4c0.1-0.2,0-0.4-0.2-0.5
	c-0.6-0.5-1.2-1.1-1.8-1.7c-0.2-0.2-0.3-0.3-0.2-0.5c0.1-0.2,0.3-0.3,0.5-0.3c0.8-0.1,1.6-0.3,2.4-0.4c0.2-0.1,0.3-0.1,0.4-0.3
	c0.3-0.7,0.7-1.4,1-2.2c0.1-0.2,0.2-0.4,0.5-0.4c0.3,0,0.4,0.2,0.5,0.4c0.3,0.7,0.7,1.4,1,2.2c0.1,0.2,0.3,0.3,0.5,0.3
	c0.8,0.1,1.6,0.3,2.4,0.4C29.6,19.5,29.7,19.7,29.7,20z M26.9,24.4c-0.1-0.7-0.2-1.3-0.3-2c-0.1-0.3,0-0.5,0.2-0.8
	c0.4-0.4,0.8-0.8,1.2-1.1c0.1-0.1,0.1-0.1,0.2-0.2c-0.6-0.1-1.2-0.2-1.7-0.3c-0.4-0.1-0.7-0.2-0.9-0.7c-0.2-0.5-0.5-1.1-0.8-1.6
	c-0.1,0.1-0.1,0.2-0.2,0.3c-0.3,0.5-0.5,1-0.7,1.5c-0.1,0.3-0.3,0.4-0.6,0.4c-0.3,0.1-0.7,0.1-1,0.2c-0.3,0.1-0.6,0.1-0.9,0.2
	c0.4,0.4,0.9,0.9,1.3,1.4c0.2,0.2,0.3,0.4,0.3,0.8c-0.1,0.7-0.2,1.3-0.3,2c0.5-0.3,1.1-0.6,1.6-0.9c0.3-0.2,0.6-0.2,0.9,0
	C25.8,23.8,26.3,24,26.9,24.4z"/>
</svg>
