<?xml version="1.0" encoding="utf-8"?>
<!-- Generator: Adobe Illustrator 23.0.0, SVG Export Plug-In . SVG Version: 6.00 Build 0)  -->
<svg version="1.0" id="Layer_1" xmlns="http://www.w3.org/2000/svg" xmlns:xlink="http://www.w3.org/1999/xlink" x="0px" y="0px"
	 viewBox="0 0 50 50" enable-background="new 0 0 50 50" xml:space="preserve">
<path fill="#FFFFFF" d="M39.1,37.6c0,0.1-0.1,0.1-0.1,0.1c-0.2,0.4-0.5,0.6-0.9,0.5c-0.4-0.1-0.7-0.4-0.7-0.9c0-0.3,0-0.5,0-0.9
	c-8.5,0.2-17,0.2-25.5,0c0,0.3,0,0.5,0,0.7c0,0.5-0.3,0.9-0.7,0.9c-0.4,0.1-0.7-0.1-1-0.6c0,0,0,0-0.1-0.1c0-1.3,0.1-2.7,0.1-4
	c0-0.1,0.1-0.1,0.1-0.1c0.2-0.3,0.6-0.5,0.9-0.4c0.4,0.1,0.7,0.5,0.7,0.9c0,0.3,0,0.6,0,0.9c8.5,0.1,17,0.1,25.5,0
	c0-0.3,0-0.5,0-0.7c0-0.5,0.3-0.9,0.7-1s0.7,0.1,1,0.5c0,0,0,0,0.1,0C39.1,34.9,39.1,36.3,39.1,37.6z"/>
<path fill="#FFFFFF" d="M39.7,14.8c-0.1,0.1-0.1,0.1-0.1,0.1c-0.3,0.4-0.7,0.5-1,0.5c-0.4-0.1-0.7-0.5-0.7-0.9
	c0-0.3,0.1-0.5,0.1-0.9c-1.2-0.1-2.3-0.1-3.5-0.1c-0.3,5.3-0.5,10.6-0.5,16c0.3,0,0.5,0,0.8,0c0.5,0,0.9,0.4,0.9,0.9
	c0,0.5-0.4,0.9-0.9,0.9c-1.1,0-2.2,0-3.3,0.1c-0.5,0-0.9-0.4-0.9-0.9c0-0.5,0.4-0.9,0.9-0.9c0.3,0,0.5,0,0.8,0
	c0.1-5.3,0.2-10.6,0.4-16c-1.2,0-2.3-0.1-3.5-0.1c0,0.3,0,0.5,0,0.8c0,0.6-0.4,1-0.9,1c-0.5,0-0.9-0.4-0.9-1c0-0.5,0-1.1,0-1.7
	c0-0.6,0.4-0.9,1-0.9c3.6,0.1,7.1,0.1,10.7,0.3c0.5,0,0.7,0.3,0.9,0.7C39.9,13.4,39.8,14.1,39.7,14.8z"/>
<path fill="#FFFFFF" d="M10,23.1c0.2-0.5,0.6-0.7,1.1-0.7c2.1,0,4.3,0,6.4-0.1c0.7,0,1,0.3,1.1,1.1c0,0.5,0,1,0,1.5
	s-0.3,0.9-0.9,0.9c-0.5,0-0.9-0.4-0.9-0.9c0-0.3,0-0.5,0-0.8c-0.6,0-1.1,0-1.7,0c0.1,1.7,0.1,3.5,0.1,5.3c0.3,0,0.5,0,0.7,0
	c0.5,0,0.9,0.4,0.9,0.9c0,0.5-0.4,0.9-0.9,0.9c-1.1,0-2.1,0-3.2-0.1c-0.5,0-0.9-0.4-0.9-0.9c0-0.5,0.4-0.9,0.9-0.9
	c0.3,0,0.5,0,0.7,0c0-1.8-0.1-3.5-0.1-5.3c-0.5,0-1.1,0-1.7,0c0,0.3,0,0.5,0,0.7c0,0.5-0.2,0.9-0.7,1c-0.4,0.1-0.7-0.1-1-0.6
	c0,0,0,0-0.1-0.1C10.1,24.6,10,23.8,10,23.1z"/>
<path fill="#FFFFFF" d="M22.8,18.8c-0.9,0-1.7,0-2.6,0c0,0.3,0,0.5,0,0.9c0,0.5-0.3,0.9-0.9,0.9c-0.5,0-0.9-0.4-0.9-0.9
	s0-1.1-0.1-1.7c0-0.5,0.3-0.9,0.9-0.9c2.9,0,5.8-0.1,8.6,0c0.5,0,0.9,0.4,0.9,0.9c0,0.6,0,1.1,0,1.7c0,0.5-0.4,0.9-0.9,0.9
	c-0.5,0-0.9-0.4-0.9-0.9c0-0.3,0-0.5,0-0.9c-0.9,0-1.7,0-2.6,0c0,3.6,0,7.1,0,10.7c0.3,0,0.5,0,0.7,0c0.5,0,0.9,0.4,0.9,0.9
	c0,0.5-0.4,0.9-0.9,0.9c-1.1,0-2.1,0-3.2,0c-0.5,0-0.9-0.4-0.9-0.9c0-0.5,0.4-0.9,0.9-0.9c0.3,0,0.5,0,0.7,0
	C22.9,26,22.9,22.4,22.8,18.8z"/>
</svg>
