<svg xmlns="http://www.w3.org/2000/svg" xmlns:xlink="http://www.w3.org/1999/xlink" width="100" height="100" viewBox="0 0 100 100">
  <defs>
    <clipPath id="a">
      <path d="M73.3,100H26.7A26.63,26.63,0,0,1,0,73.3V26.7A26.63,26.63,0,0,1,26.7,0H73.4A26.61,26.61,0,0,1,100,26.7V73.4A26.61,26.61,0,0,1,73.3,100Z" fill="none"/>
    </clipPath>
  </defs>
  <title>flag_na_cr_cayman_islands</title>
  <g clip-path="url(#a)">
    <g>
      <g>
        <rect width="100" height="100" fill="#2e52b2"/>
        <circle cx="75" cy="35.51" r="5.8" fill="#6da544"/>
        <rect x="64.85" y="34.06" width="20.29" height="8.7" fill="#d80027"/>
        <path d="M85.14,50Z" fill="#496e2d"/>
        <path d="M64.85,55.8v5.79H67.9a10.13,10.13,0,0,0,14.19,0h3V55.8Z" fill="#ffda44"/>
        <path d="M64.85,41.3V50C64.85,57.77,75,60.14,75,60.14S85.14,57.77,85.14,50V41.3Z" fill="#338af3"/>
        <g>
          <path d="M75,46c-2.54,0-2.54,2.32-5.07,2.32S67.39,46,64.85,46V50c2.54,0,2.54,2.32,5.08,2.32S72.46,50,75,50s2.54,2.32,5.07,2.32S82.61,50,85.14,50V46c-2.53,0-2.53,2.32-5.07,2.32S77.54,46,75,46Z" fill="#f3f3f3"/>
          <path d="M75,37.83c-2.54,0-2.54,2.31-5.07,2.31s-2.54-2.31-5.08-2.31v4.05c2.54,0,2.54,2.32,5.08,2.32s2.53-2.32,5.07-2.32,2.54,2.32,5.07,2.32,2.54-2.32,5.07-2.32V37.83c-2.53,0-2.53,2.31-5.07,2.31S77.54,37.83,75,37.83Z" fill="#f3f3f3"/>
        </g>
        <polygon points="50 0 50 9.55 42.16 17.39 50 17.39 50 32.61 39.74 32.61 50 42.87 50 50 45.37 50 32.61 37.24 32.61 50 17.39 50 17.39 34.82 2.21 50 0 50 0 40.45 7.84 32.61 0 32.61 0 17.39 10.26 17.39 0 7.13 0 0 4.63 0 17.39 12.76 17.39 0 32.61 0 32.61 15.18 47.79 0 50 0" fill="#f0f0f0"/>
        <polygon points="0 29.69 20.31 29.69 20.31 50 29.69 50 29.69 29.69 50 29.69 50 20.31 29.69 20.31 29.69 0 20.31 0 20.31 20.31 0 20.31 0 29.69" fill="#d80027"/>
        <polygon points="32.61 32.61 50 50 50 45.08 37.53 32.61 32.61 32.61" fill="#0052b4"/>
        <polygon points="32.61 32.61 50 50 50 45.08 37.53 32.61 32.61 32.61" fill="#f0f0f0"/>
        <g>
          <polygon points="32.61 32.61 50 50 50 45.08 37.53 32.61 32.61 32.61" fill="#d80027"/>
          <polygon points="12.47 32.61 0 45.08 0 50 0 50 17.39 32.61 12.47 32.61" fill="#d80027"/>
        </g>
        <polygon points="17.39 17.39 0 0 0 4.92 12.47 17.39 17.39 17.39" fill="#0052b4"/>
        <polygon points="17.39 17.39 0 0 0 4.92 12.47 17.39 17.39 17.39" fill="#f0f0f0"/>
        <g>
          <polygon points="17.39 17.39 0 0 0 4.92 12.47 17.39 17.39 17.39" fill="#d80027"/>
          <polygon points="37.53 17.39 50 4.92 50 0 50 0 32.61 17.39 37.53 17.39" fill="#d80027"/>
        </g>
      </g>
      <g>
        <path d="M10.39,74.25V25.75A26.64,26.64,0,0,1,30.24,0H0V100H30.24A26.66,26.66,0,0,1,10.39,74.25Z" opacity="0.2" style="isolation: isolate"/>
        <path d="M89.61,25.75V74.24A26.64,26.64,0,0,1,69.76,100H100V0H69.76A26.66,26.66,0,0,1,89.61,25.75Z" fill="#fff" opacity="0.1" style="isolation: isolate"/>
      </g>
    </g>
  </g>
</svg>
