<svg xmlns="http://www.w3.org/2000/svg" xmlns:xlink="http://www.w3.org/1999/xlink" width="100" height="100" viewBox="0 0 100 100">
  <defs>
    <clipPath id="a">
      <path d="M73.3,100H26.7A26.63,26.63,0,0,1,0,73.3V26.7A26.63,26.63,0,0,1,26.7,0H73.4A26.61,26.61,0,0,1,100,26.7V73.4A26.61,26.61,0,0,1,73.3,100Z" fill="none"/>
    </clipPath>
  </defs>
  <title>flag_as_c_turkmenistan</title>
  <g clip-path="url(#a)">
    <g>
      <g>
        <rect width="100" height="100" fill="#496e2d"/>
        <g>
          <path d="M79.65,28.81a15.22,15.22,0,0,0-6.23-18,15.43,15.43,0,0,1,3.19.77A15.22,15.22,0,0,1,66.33,40.2a14.67,14.67,0,0,1-2.95-1.44A15.2,15.2,0,0,0,79.65,28.81Z" fill="#f0f0f0"/>
          <polygon points="66.01 8.9 63.87 11.67 60.58 10.49 62.55 13.37 60.41 16.14 63.76 15.16 65.73 18.04 65.84 14.55 69.19 13.57 65.9 12.39 66.01 8.9" fill="#f0f0f0"/>
          <polygon points="71.78 17.9 69.64 20.67 66.35 19.49 68.32 22.37 66.18 25.14 69.54 24.16 71.5 27.04 71.61 23.55 74.96 22.57 71.67 21.39 71.78 17.9" fill="#f0f0f0"/>
          <polygon points="55.83 12.18 53.69 14.94 50.41 13.76 52.37 16.65 50.23 19.41 53.59 18.43 55.55 21.32 55.66 17.83 59.01 16.85 55.73 15.67 55.83 12.18" fill="#f0f0f0"/>
          <polygon points="55.6 22.49 53.46 25.25 50.17 24.07 52.14 26.96 50 29.72 53.35 28.74 55.32 31.63 55.42 28.14 58.78 27.16 55.49 25.98 55.6 22.49" fill="#f0f0f0"/>
          <polygon points="65.41 26.01 63.27 28.77 59.98 27.59 61.95 30.48 59.81 33.24 63.16 32.26 65.13 35.15 65.23 31.66 68.59 30.68 65.3 29.5 65.41 26.01" fill="#f0f0f0"/>
        </g>
        <rect x="8.15" width="26.09" height="100" fill="#d80027"/>
        <polygon points="18.11 26.32 13.74 23.07 13.74 18.47 18.11 15.22 24.29 15.22 28.65 18.47 28.65 23.07 24.29 26.32 18.11 26.32" fill="#f0f0f0"/>
        <g>
          <polygon points="21.2 15.22 18.11 15.22 13.74 18.47 13.74 20.72 21.2 20.72 21.2 15.22" fill="#ff9811"/>
          <polygon points="21.2 26.32 24.29 26.32 28.65 23.07 28.65 20.72 21.2 20.72 21.2 26.32" fill="#ff9811"/>
        </g>
        <polygon points="18.11 84.78 13.74 81.53 13.74 76.93 18.11 73.67 24.29 73.67 28.65 76.93 28.65 81.53 24.29 84.78 18.11 84.78" fill="#f0f0f0"/>
        <g>
          <polygon points="21.2 73.67 18.11 73.67 13.74 76.93 13.74 79.18 21.2 79.18 21.2 73.67" fill="#ff9811"/>
          <polygon points="21.2 84.78 24.29 84.78 28.65 81.53 28.65 79.18 21.2 79.18 21.2 84.78" fill="#ff9811"/>
        </g>
        <g>
          <polygon points="18.11 55.55 13.74 52.3 13.74 47.7 18.11 44.45 24.29 44.45 28.65 47.7 28.65 52.3 24.29 55.55 18.11 55.55" fill="#496e2d"/>
          <polygon points="28.8 62.71 26.9 62.71 26.9 60.81 23.56 60.81 21.2 58.45 18.83 60.81 15.49 60.81 15.49 62.71 13.59 62.71 13.59 66.52 15.49 66.52 15.49 68.42 18.83 68.42 21.2 70.78 23.56 68.42 26.9 68.42 26.9 66.52 28.8 66.52 28.8 62.71" fill="#496e2d"/>
          <polygon points="28.8 33.48 26.9 33.48 26.9 31.58 23.56 31.58 21.2 29.22 18.83 31.58 15.49 31.58 15.49 33.48 13.59 33.48 13.59 37.29 15.49 37.29 15.49 39.19 18.83 39.19 21.2 41.55 23.56 39.19 26.9 39.19 26.9 37.29 28.8 37.29 28.8 33.48" fill="#496e2d"/>
        </g>
        <g>
          <rect x="19.02" y="47.83" width="4.35" height="4.35" fill="#d80027"/>
          <circle cx="21.2" cy="35.38" r="2.17" fill="#d80027"/>
          <circle cx="21.2" cy="64.62" r="2.17" fill="#d80027"/>
        </g>
      </g>
      <g>
        <path d="M10.39,74.25V25.75A26.64,26.64,0,0,1,30.24,0H0V100H30.24A26.66,26.66,0,0,1,10.39,74.25Z" opacity="0.2" style="isolation: isolate"/>
        <path d="M89.61,25.75V74.24A26.64,26.64,0,0,1,69.76,100H100V0H69.76A26.66,26.66,0,0,1,89.61,25.75Z" fill="#fff" opacity="0.1" style="isolation: isolate"/>
      </g>
    </g>
  </g>
</svg>
