<svg xmlns="http://www.w3.org/2000/svg" xmlns:xlink="http://www.w3.org/1999/xlink" width="100" height="100" viewBox="0 0 100 100">
  <defs>
    <clipPath id="a">
      <path d="M73.3,100H26.7A26.63,26.63,0,0,1,0,73.3V26.7A26.63,26.63,0,0,1,26.7,0H73.4A26.61,26.61,0,0,1,100,26.7V73.4A26.61,26.61,0,0,1,73.3,100Z" fill="none"/>
    </clipPath>
  </defs>
  <title>flag_eu_n_wales</title>
  <g clip-path="url(#a)">
    <g>
      <g>
        <rect width="100" height="100" fill="#f0f0f0"/>
        <rect y="50" width="100" height="50" fill="#496e2d"/>
        <path d="M73.7,38.94a9.45,9.45,0,0,0-8.9-6.3H56.71a9.47,9.47,0,0,0-8.19,14.15c-3,0-5.78,0-7.53,0V37.55l.37-.37c1.67-1.67,1.12-4.45,1.12-4.45S39.7,32.18,38,33.84l-2,1.95H33.92a8.65,8.65,0,0,0-8.65,8.65h6.29v7.07a7.64,7.64,0,0,0,.58,2.92L30,56.23H26.84V53.08H23.7v6.29H37.85v6.29H34.7v3.15H41V62.52l2.88-3.46h6.82l2.88,3.46v3.14H50.43v3.15H63V51.51a4.72,4.72,0,0,1,4.72-4.72h.2a6.29,6.29,0,0,1,5.78-7.86Zm-17,26.72v-6.6H57l2.88,3.46v3.14Z" fill="#d80027"/>
      </g>
      <g>
        <path d="M10.39,74.25V25.75A26.64,26.64,0,0,1,30.24,0H0V100H30.24A26.66,26.66,0,0,1,10.39,74.25Z" opacity="0.2" style="isolation: isolate"/>
        <path d="M89.61,25.75V74.24A26.64,26.64,0,0,1,69.76,100H100V0H69.76A26.66,26.66,0,0,1,89.61,25.75Z" fill="#fff" opacity="0.1" style="isolation: isolate"/>
      </g>
    </g>
  </g>
</svg>
