<svg xmlns="http://www.w3.org/2000/svg" xmlns:xlink="http://www.w3.org/1999/xlink" width="100" height="100" viewBox="0 0 100 100">
  <defs>
    <clipPath id="a">
      <path d="M73.3,100H26.7A26.63,26.63,0,0,1,0,73.3V26.7A26.63,26.63,0,0,1,26.7,0H73.4A26.61,26.61,0,0,1,100,26.7V73.4A26.61,26.61,0,0,1,73.3,100Z" fill="none"/>
    </clipPath>
  </defs>
  <title>flag_na_cr_sint_eustatius</title>
  <g clip-path="url(#a)">
    <g>
      <g>
        <rect width="100" height="99.97" fill="#d80027"/>
        <rect x="2.17" y="2.17" width="95.65" height="95.62" fill="#0052b4"/>
        <g>
          <rect x="48.91" y="0.03" width="2.17" height="99.97" fill="#d80027"/>
          <rect y="48.93" width="100" height="2.17" fill="#d80027"/>
          <polygon points="25 49.98 50 34.27 75 49.98 50 65.69 25 49.98" fill="#d80027"/>
        </g>
        <polygon points="29.19 49.98 50 36.91 70.81 49.98 50 63.06 29.19 49.98" fill="#f0f0f0"/>
        <polygon points="63.83 54.37 61.35 55.93 38.11 55.93 38.24 55.67 41.08 49.98 44.05 52.95 50 52.95 52.97 48.5 55.95 49.98 58.92 47.01 63.83 54.37" fill="#6da544"/>
        <polygon points="50 41.07 50.74 43.34 53.13 43.34 51.19 44.74 51.93 47.01 50 45.61 48.07 47.01 48.81 44.74 46.87 43.34 49.26 43.34 50 41.07" fill="#ffda44"/>
      </g>
      <g>
        <path d="M10.39,74.25V25.75A26.64,26.64,0,0,1,30.24,0H0V100H30.24A26.66,26.66,0,0,1,10.39,74.25Z" opacity="0.2" style="isolation: isolate"/>
        <path d="M89.61,25.75V74.24A26.64,26.64,0,0,1,69.76,100H100V0H69.76A26.66,26.66,0,0,1,89.61,25.75Z" fill="#fff" opacity="0.1" style="isolation: isolate"/>
      </g>
    </g>
  </g>
</svg>
