<?xml version="1.0" encoding="utf-8"?>
<!-- Generator: Adobe Illustrator 23.0.0, SVG Export Plug-In . SVG Version: 6.00 Build 0)  -->
<svg version="1.0" id="Layer_1" xmlns="http://www.w3.org/2000/svg" xmlns:xlink="http://www.w3.org/1999/xlink" x="0px" y="0px"
	 width="100px" height="100px" viewBox="0 0 100 100" enable-background="new 0 0 100 100" xml:space="preserve">
<title>flag_af_n_egypt</title>
<g>
	<defs>
		<path id="SVGID_1_" d="M73.3,100H26.7C12,100,0,88.1,0,73.4c0,0,0-0.1,0-0.1V26.7C0,12,11.9,0,26.6,0c0,0,0.1,0,0.1,0h46.7
			C88.1,0,100,11.9,100,26.6c0,0,0,0.1,0,0.1v46.7C100,88.1,88.1,100,73.3,100C73.4,100,73.3,100,73.3,100z"/>
	</defs>
	<clipPath id="SVGID_2_">
		<use xlink:href="#SVGID_1_"  overflow="visible"/>
	</clipPath>
	<g clip-path="url(#SVGID_2_)">
		<g>
			<g>
				<rect fill="#F0F0F0" width="100" height="100"/>
				<rect fill="#D80027" width="100" height="33.3"/>
				<rect y="66.7" width="100" height="33.3"/>
			</g>
			<g>
				<path opacity="0.2" enable-background="new    " d="M10.4,74.3V25.8c0-12.1,8.2-22.7,19.8-25.8H0v100h30.2
					C18.5,96.9,10.4,86.3,10.4,74.3z"/>
				<path opacity="0.1" fill="#FFFFFF" enable-background="new    " d="M89.6,25.8v48.5c0,12.1-8.2,22.7-19.8,25.8H100V0H69.8
					C81.5,3.1,89.6,13.7,89.6,25.8z"/>
			</g>
		</g>
	</g>
</g>
<g>
	<path fill="#EEBC31" d="M58.2,58.6c-0.5-0.1-1.3,0-2-0.1c-0.1,0.1-0.1,0.3-0.2,0.4c0.1,0.1,0.2,0.1,0.3,0.2
		c0.2,0.2,0.3,0.5,0.6,0.6c-0.3,0.3-0.3,0.8-0.6,1c0.1,0.6-0.3,0.8-1,0.9c-3,0.6-7.7,0.7-10.8,0.2c-0.4-0.1-1.6-0.2-1.9-0.5
		c-0.1-0.1-0.2-0.3-0.2-0.6c-0.4-0.2-0.4-0.7-0.7-1c0.4-0.1,0.5-0.6,1-0.7c0-0.2-0.1-0.3-0.1-0.5c-0.7,0-1.5-0.1-2,0.1
		c0.1-0.7,0.1-1.6,0.1-2.4c0.1-1.1,0.1-2.5,0.2-3.6c0-0.6,0-1.2,0.1-1.8c0.1-1.1,0-2.2,0.1-3.2c0.1-1.1,0-2.3,0.1-3.3
		c0.1-1.1,0.4-2,1.7-1.9c1.5,0.1,2.4,1.4,4.1,1.4c0.8-0.5,1.3-2.3,1.1-3.7c-0.1-0.6-0.8-1.5-1.4-1.2c-0.1-1.1,0.9-0.9,1.6-0.6
		c0.2-0.1,0.3-0.3,0.5-0.4c0.5-0.1,1.3,0.1,1.5,0.3c0.5,0.3,0.7,1,0.7,1.9c0,0.5-0.1,0.9-0.1,1.4c0.1,1,0.4,1.8,0.8,2.2
		c1.5,0.1,2.6-1.2,4.1-1.4c0.6-0.1,1.2,0.2,1.4,0.6c0.4,1.6,0.3,3.3,0.4,5c0.1,1,0,2.1,0.1,3.2C58,53.7,58.1,56.1,58.2,58.6z
		 M50.9,41.6c-0.1-0.9,0.2-1.8-0.1-2.6c-0.1-0.1-0.2-0.3-0.4-0.4c-0.2,0-0.3,0-0.5,0c-0.2,0.1-0.3,0.4-0.6,0.5
		c-0.6,0.1-0.6-0.4-1.1-0.6c-0.1,0-0.3,0-0.4-0.1c-0.4-0.1-0.7-0.3-0.9,0.3c0.8,0,1.5,0.2,1.7,0.9c-0.5-0.1-0.3,0.3-0.3,0.5
		c0.2,1.3-0.1,2.4-0.6,3.1c-0.2,0.3-0.5,0.6-0.6,0.9c0.5-0.1,0.9-0.1,1.1-0.4c0.3-0.4,0.2-1.2,0.5-1.7c0,1-0.3,1.8-0.8,2.3
		c1.2-0.2,1.4-1.1,1.5-2.3c0.1,0.6-0.1,1.2-0.3,1.6c0.1,0.2,0.2,0.4,0.5,0.6c0.2-0.2,0.3-0.4,0.4-0.6c-0.2-0.4-0.4-1.1-0.2-1.6
		c0,1.2,0.3,2.1,1.4,2.3c-0.4-0.5-0.8-1.4-0.7-2.3c0,0.7,0.2,1.3,0.4,1.8c0.3,0.2,0.7,0.3,1.1,0.3C51.4,43.6,51,42.7,50.9,41.6z
		 M48.8,38.7c0,0,0,0.1,0,0.1c0.1,0,0.1,0.1,0.2,0c0,0,0-0.1,0-0.2C49,38.6,48.9,38.6,48.8,38.7z M42.6,42.5
		c-0.7,0.1-1.1,0.7-1.1,1.4c0.3-0.1,0.6-0.4,0.9-0.4c-0.2,4.9-0.4,9.3-0.6,14.1c-0.3,0.3-0.6,0.5-0.8,0.8c0.6,0,1.2,0,1.8,0
		c0.1-0.8,1-0.9,1.7-0.7c0.3-1.2,0.7-2.4,1-3.6c-0.3,0.2-0.5,0.6-0.8,0.7c0.1-3.1,0.3-6.2,0.4-9.3c0.5,0.4,1.3,0.4,2.1,0.3
		c1-0.1,1.8-0.7,2.4-1c0.6,0.6,1.8,1,2.9,1.1c0.7,0.1,1.1-0.2,1.5-0.3c0.1,3.2,0.3,6.3,0.4,9.3c-0.3-0.2-0.5-0.5-0.8-0.7
		c0.3,1.2,0.7,2.4,1,3.6c0.8-0.2,1.6,0,1.7,0.7c0.6,0,1.2,0,1.8,0c-0.2-0.4-0.7-0.5-0.8-0.8c-0.2-0.4,0-1.1-0.1-1.6
		c-0.2-3.9-0.4-8.6-0.5-12.5c0.4,0.1,0.6,0.3,0.9,0.4c-0.1-0.8-0.4-1.3-1.1-1.4c-1.7-0.1-2.6,1.4-4.3,1.4c0,0.2,0.3,0.3,0.3,0.4
		c-0.3,0-0.8,0-1.1-0.2c0,0.2,0.3,0.3,0.3,0.5c-0.6-0.1-1.1-0.4-1.5-0.7c-0.2,0.2-0.3,0.4-0.5,0.6c-0.2-0.2-0.3-0.5-0.5-0.6
		c-0.3,0.4-0.8,0.7-1.5,0.7c0.1-0.2,0.3-0.2,0.3-0.5c-0.3,0.1-0.8,0.2-1.1,0.1c0.1-0.1,0.3-0.2,0.3-0.4C45.3,44,44.2,42.4,42.6,42.5
		z M45.7,46c0.1,3.6,1.4,6.1,3.8,7.5c2.2-1.5,3.6-3.9,3.7-7.5c-1.1,0-2-0.2-2.7-0.5c-0.4-0.2-0.8-0.5-1.1-0.6
		C48.5,45.7,47.3,46,45.7,46z M45.8,48.4c0,1.6-0.3,3.5-0.2,5.1c0.3-0.9,0.2-2,0.3-3.1C46,49.6,46.1,48.8,45.8,48.4
		C45.8,48.4,45.8,48.4,45.8,48.4z M53,51.3c0,0.9,0,1.7,0.3,2.2c0-1.7-0.2-3.5-0.2-5.2c0,0,0,0-0.1,0C52.8,49.2,53,50.3,53,51.3z
		 M46.3,53.2c0.3-0.3,0.6-0.6,0.8-0.9c0-0.7-0.2-1.3-0.6-1.7C46.5,51.4,45.7,52.5,46.3,53.2z M51.8,52.3c0.3,0.3,0.6,0.8,0.9,0.9
		c0.5-0.8-0.2-1.6-0.3-2.5c0,0,0,0-0.1,0C52,51,51.8,51.5,51.8,52.3z M47.4,53.7c0.3-0.3,0.6-0.7,0.8-1c-0.4-0.3-0.7-0.8-1.1-1.1
		C47.2,52.3,47.3,53.1,47.4,53.7z M50.7,52.7c0.3,0.3,0.5,0.7,0.8,1c0.1-0.7,0.1-1.4,0.2-2.1c0,0,0-0.1-0.1-0.1
		C51.4,52,51,52.4,50.7,52.7z M46.2,53.4c0-0.2-0.1-0.3-0.2-0.5c-0.3,0.4-0.3,0.9-0.5,1.4c-0.1,0.2-0.2,0.3-0.2,0.5
		c0.4-0.2,0.5-0.5,0.9-0.7c0.1,0.3,0.2,0.5,0.3,0.8c0.3-0.1,0.3-0.6,0.6-0.8c0.1,0.5,0.3,1,0.5,1.5c0.3-0.3,0.7-0.5,0.8-1.1
		c-0.2-0.4-0.4-0.9-0.6-1.4c-0.3,0.2-0.4,0.6-0.6,0.7c-0.1-0.5,0-1.2-0.2-1.6C46.8,52.8,46.6,53.1,46.2,53.4z M51.6,54
		c-0.2-0.2-0.4-0.6-0.6-0.8c-0.1,0.2-0.2,0.4-0.3,0.6c-0.1,0.2-0.2,0.5-0.3,0.7c0,0.5,0.5,0.7,0.8,1.1c0.1-0.5,0.2-1.1,0.4-1.5
		c0.2,0.3,0.3,0.6,0.6,0.8c0.1-0.3,0.3-0.6,0.4-0.9c0.3,0.2,0.5,0.5,0.8,0.7c-0.1-0.6-0.3-1.4-0.6-2c-0.1,0.2-0.2,0.4-0.3,0.6
		c-0.3-0.3-0.5-0.7-0.9-0.9C51.7,52.9,51.6,53.5,51.6,54z M48.3,52.8c-0.5,0.4,0.1,1.1,0.3,1.6c0.1-0.4,0.2-0.8,0.3-1.1
		C48.6,53.1,48.5,52.9,48.3,52.8z M50.1,53.2c0.1,0.4,0.1,0.8,0.3,1.1c0.2-0.4,0.3-0.8,0.5-1.2c-0.1-0.1-0.2-0.3-0.3-0.4
		C50.5,53,50.2,53,50.1,53.2z M46.2,54.2c-0.3,0.3-0.5,0.5-0.8,0.7c-0.2,0.7,0.2,1.2,0.5,1.7c0.3-0.2,0.4-0.6,0.7-0.8
		c0.1,0.4,0.2,0.8,0.4,1.1c0.3-0.2,0.5-0.8,0.8-0.9c0.1,0.4,0.1,0.8,0.3,1c0.1-0.6,0.3-1.2,0.4-1.8c-0.3,0.1-0.5,0.5-0.7,0.6
		c-0.2-0.5-0.3-1-0.5-1.5c-0.3,0.2-0.3,0.6-0.5,0.8C46.5,54.8,46.4,54.5,46.2,54.2z M52.2,55.2c-0.2-0.3-0.3-0.6-0.6-0.8
		c-0.1,0.5-0.2,1-0.4,1.5c-0.3-0.2-0.5-0.6-0.7-0.6c0.1,0.6,0.2,1.3,0.5,1.8c0.1-0.4,0.1-0.7,0.2-1.1c0.3,0.3,0.4,0.7,0.8,0.9
		c0.1-0.4,0.2-0.7,0.4-1.1c0.3,0.2,0.4,0.6,0.7,0.8c0.2-0.5,0.6-1,0.5-1.7c-0.3-0.2-0.6-0.5-0.9-0.7C52.5,54.5,52.4,54.9,52.2,55.2z
		 M48.7,57.7c-0.2,0.1-0.3,0.2-0.5,0.3c-0.1-0.1-0.3-0.3-0.3-0.2c0,0.1-0.1,0.3-0.1,0.4c0.3,0,0.9-0.1,1.1,0.2
		c0.4-0.1,0.8,0.1,1.1,0c0.1,0,0.2-0.2,0.4-0.2c0.2,0,0.5,0,0.7,0c0-0.1,0-0.4-0.1-0.5c-0.2,0-0.2,0.2-0.4,0.2
		c-0.1-0.1-0.3-0.2-0.4-0.4c-0.1-0.9-0.2-1.9-0.4-2.7c-0.1,0.9,0.1,1.8,0.1,2.8c-0.2,0.1-0.3,0.4-0.5,0.5c-0.1-0.2-0.4-0.3-0.4-0.6
		c-0.1-0.8,0.3-2,0.1-2.7C48.9,55.9,48.9,56.9,48.7,57.7z M44.5,57.8c0.1,0.1,0.3,0.2,0.6,0.1c0.2-0.3,0.4-0.6,0.6-0.8
		c0.1,0.3,0.2,0.7,0.4,1c0.1,0,0.2,0,0.2,0c0.2-0.2,0.3-0.5,0.5-0.7c0.1,0.3,0.2,0.6,0.3,0.8c0.1,0.1,0.4,0,0.6,0
		c0.3-0.6,0.2-1.4,0-2c-0.3,0.3-0.5,0.7-0.8,0.9c-0.1-0.4-0.2-0.8-0.4-1.1c-0.2,0.3-0.4,0.5-0.6,0.8c-0.2-0.4-0.3-1-0.6-1.3
		C45,56.3,44.8,57.1,44.5,57.8z M53.1,56.9c-0.2-0.3-0.4-0.6-0.7-0.8c-0.2,0.3-0.2,0.8-0.4,1.1c-0.2-0.3-0.5-0.8-0.8-0.9
		c-0.1,0.7-0.3,1.4,0,2c0.2,0,0.4,0,0.6,0c0.1-0.2,0.2-0.6,0.3-0.8c0.1,0.2,0.3,0.5,0.4,0.7c0.1,0,0.2,0,0.3,0
		c0.1-0.3,0.2-0.7,0.4-1c0.2,0.3,0.4,0.6,0.6,0.8c0.2,0,0.4,0,0.5-0.2c-0.2-0.7-0.4-1.4-0.6-2.1c0,0-0.1,0-0.1,0
		C53.5,56,53.3,56.5,53.1,56.9z M45.2,58c0.3,0,0.5,0.1,0.8,0.1c-0.1-0.3-0.2-0.6-0.4-0.8C45.5,57.6,45.3,57.7,45.2,58z M53,58.1
		c0.2,0,0.5-0.1,0.7-0.1c0-0.2-0.3-0.4-0.4-0.6C53.1,57.5,53,57.8,53,58.1z M46.4,58.2c0.1,0.1,0.3,0,0.5,0
		c-0.1-0.2-0.1-0.4-0.2-0.5C46.6,57.8,46.5,58,46.4,58.2z M52,58.2c0.2,0,0.3,0,0.5,0c0-0.2-0.1-0.4-0.3-0.5
		C52.1,57.9,51.9,58.1,52,58.2z M55.1,57.7c-0.8,0.2-1.7,0.5-2.7,0.6c-0.7,0.1-1.4,0.1-2.1,0.1c-0.2,0.2-0.1,0.4,0,0.6
		c0.7,0.1,1.4,0.1,2,0c0-0.7,0.8-0.9,0.9-0.1c0.7-0.2,1.5-0.2,2-0.5C55.4,58.1,55.4,57.8,55.1,57.7z M45.9,58.2
		c-0.6-0.1-1.3-0.3-1.8-0.5c-0.3-0.1-0.4,0-0.5,0.1c0,0.2,0,0.3,0,0.5c0.6,0.2,1.3,0.4,2,0.5c0.1-0.7,0.9-0.6,0.8,0.1
		c0.7,0.1,1.3,0.1,2,0c0.1-0.2,0.2-0.4,0.1-0.6C47.7,58.4,46.9,58.4,45.9,58.2z M42.9,58.6c0.2-0.1,0.4-0.2,0.6-0.3
		c0-0.2,0-0.4,0-0.5C43.1,57.9,42.8,58.2,42.9,58.6z M55.5,58.4c0.2,0.1,0.3,0.2,0.6,0.3c0.1-0.4-0.2-0.7-0.5-0.8
		C55.4,58,55.5,58.2,55.5,58.4z M46,59.2c0.1-0.1,0.2-0.1,0.3-0.2c0-0.3,0-0.5-0.1-0.6C45.6,58.4,45.6,59.2,46,59.2z M52.6,59
		c0,0.1,0.2,0.1,0.3,0.2c0.1-0.1,0.2-0.2,0.3-0.3C53.2,58.2,52.4,58.5,52.6,59z M45.5,59c-0.9,0-1.7-0.6-2.5-0.3
		c0,0.2-0.1,0.2-0.1,0.5c-0.4,0-0.8,0.4-0.8,0.6c-0.1,0.4,0.3,0.6,0.5,0.9c0,0.2,0,0.4,0.1,0.5c2.7,0.9,7.3,0.9,10.7,0.6
		c1-0.1,2.6-0.2,2.9-0.8c0-0.1,0-0.3,0-0.4c0.4-0.1,0.4-0.5,0.5-0.8c-0.3-0.2-0.4-0.6-0.8-0.6c0.1-0.1-0.1-0.2-0.1-0.4
		c-0.4-0.3-0.9-0.1-1.5,0c-0.8,0.2-1.3,0.2-1.5,0.7c-0.1-0.2-0.3-0.3-0.4-0.4c-0.6,0.1-1.4,0.2-2.1,0c-0.2,0.3-0.5,0.3-0.6,0.7
		c-0.1-0.2-0.2-0.4-0.2-0.8c-0.1,0-0.2,0-0.3,0c0,0.3-0.1,0.6-0.3,0.8c0-0.4-0.4-0.4-0.5-0.7c-0.6,0.1-1.5,0-2.1,0
		c-0.2,0.1-0.3,0.3-0.5,0.4C45.9,59.2,45.7,59.1,45.5,59z M49.1,58.6c0,0.2,0.2,0.3,0.2,0.4c0.4,0.1,0.4-0.2,0.6-0.4
		C49.7,58.5,49.3,58.5,49.1,58.6z M48.6,59.1c0.1,0.1,0.3,0.3,0.5,0.4c0.1-0.3,0-0.8-0.3-0.9C48.8,58.9,48.6,58.9,48.6,59.1z
		 M50,58.6c-0.2,0.1-0.5,0.7-0.1,0.9c0.1-0.2,0.3-0.2,0.4-0.4C50.2,58.9,50.2,58.7,50,58.6z"/>
	<path fill="#EEBC31" d="M43.1,56.3c-0.3,0.3-0.8,0.7-1.1,0.9c0.2-4.4,0.4-9,0.6-13.6c0.3,0.2,0.7,0.5,1,0.8
		C43.5,48.5,43.3,52.1,43.1,56.3z"/>
	<path fill="#EEBC31" d="M56.9,57.2c-0.2,0-0.4-0.3-0.6-0.4c-0.2-0.2-0.5-0.3-0.6-0.5c-0.2-3.3-0.2-6.9-0.4-10.1
		c0-0.5-0.1-1.4-0.1-1.7c0.1-0.4,0.8-0.5,1-0.9C56.5,47.7,56.7,52.8,56.9,57.2z"/>
	<path fill="#EEBC31" d="M43.9,44.8c0.3,0.2,0.5,0.4,0.8,0.6c-0.1,2.6-0.2,5.7-0.4,8.3c0,0.4,0.1,1,0,1.3c-0.1,0.4-0.7,0.6-0.9,0.9
		C43.6,52.2,43.8,48.5,43.9,44.8z"/>
	<path fill="#EEBC31" d="M55.5,55.9c0,0-0.1-0.1-0.2-0.1c-0.2-0.2-0.5-0.5-0.6-0.7c-0.2-3.2-0.3-6.5-0.4-9.6
		c0.2-0.3,0.5-0.5,0.7-0.7C55.1,48.2,55.3,52.3,55.5,55.9z"/>
	<path fill="#EEBC31" d="M52.9,46.2c0,3.3-1.4,5.7-3.4,7.1c-2.1-1.4-3.3-3.8-3.5-7.1c1.5,0,2.7-0.4,3.5-1
		C50.3,45.9,51.5,46.1,52.9,46.2z M48.3,46c-0.1,1.3,0,3.1,0,4.6c0,0.5-0.1,1.2,0,1.6c0.1,0.2,0.4,0.4,0.6,0.6
		c0.2,0.2,0.4,0.4,0.6,0.5c0.3-0.2,1.1-0.6,1.2-1c0.1-0.4,0-1,0-1.5c0-1.5,0-3.2,0-4.6c-0.4-0.2-0.8-0.4-1.2-0.6
		C49.1,45.6,48.6,45.7,48.3,46z"/>
	<path fill="#EEBC31" d="M43.8,57.9c0.2,0.1,0.5,0,0.6,0.3c-0.2,0.1-0.3-0.2-0.6-0.1C43.8,58,43.8,58,43.8,57.9z"/>
	<path fill="#EEBC31" d="M55.1,58c-0.1,0.1-0.4,0.1-0.6,0.2C54.6,58,55,57.9,55.1,58z"/>
	<path fill="#EEBC31" d="M44.8,58.3c0.3,0,0.5,0.1,0.7,0.2C45.3,58.5,44.8,58.5,44.8,58.3z"/>
	<path fill="#EEBC31" d="M54.1,58.3c-0.1,0.1-0.5,0.2-0.7,0.2C53.6,58.4,53.9,58.2,54.1,58.3z"/>
	<path fill="#EEBC31" d="M52.4,58.7c-0.2,0.1-0.5,0.1-0.7,0C51.7,58.5,52.3,58.5,52.4,58.7z"/>
	<path fill="#EEBC31" d="M47.4,58.6c-0.1,0.2-0.5,0.1-0.8,0.1C46.6,58.5,47.1,58.6,47.4,58.6z"/>
	<path fill="#EEBC31" d="M48.3,58.7c-0.2,0.1-0.5,0.1-0.7,0.1C47.7,58.6,48.1,58.6,48.3,58.7z"/>
	<path fill="#EEBC31" d="M51.2,58.8c-0.2,0-0.5-0.1-0.7-0.1C50.7,58.6,51.2,58.6,51.2,58.8z"/>
	<path fill="#EEBC31" d="M55.7,60.1c0.1,0,0.1-0.2,0.2-0.2c0,0.1,0,0.1,0,0.2c-0.2,0.1-0.3,0.1-0.6,0.1c-0.3,0.1-0.6,0.6-0.9,0.3
		c-0.2,0-0.2,0.3-0.4,0.4c-0.3-0.2-0.5-0.1-0.9-0.1c-0.1,0.1-0.1,0.4-0.4,0.4c0-0.1,0.2-0.1,0.2-0.3c0-0.1-0.2-0.1-0.3-0.1
		c-0.1-0.3,0.1-0.3,0.2-0.4c0.1,0,0.2,0.2,0.2,0.4c0.1,0,0.2,0,0.3-0.1c0-0.2,0.1-0.3,0.2-0.4c0-0.2-0.1-0.4-0.1-0.5
		c0.2,0,0.1,0.4,0.2,0.5c0.2,0,0.4,0.1,0.5,0.2c0.3-0.1,0.3-0.4,0.6-0.4c0.1,0,0.2,0.1,0.4,0.1c0-0.4-0.1-1.3-0.6-1
		c0-0.2,0.3-0.1,0.5-0.1C55.4,59.2,55.1,60.1,55.7,60.1z M54.6,60.3c0.1,0.1,0.5,0.1,0.5-0.2C55,60,54.5,60,54.6,60.3z M53.9,60.5
		c0.1,0,0.2,0,0.2-0.1C54.2,60,53.6,60.2,53.9,60.5z M53.6,60.6c0.1,0,0.1-0.1,0.2-0.1c0-0.1,0-0.2-0.1-0.2
		C53.7,60.3,53.6,60.5,53.6,60.6z M52.9,60.6c0.1,0,0.1,0,0.2,0c0-0.1-0.1-0.1,0-0.2C52.9,60.4,52.8,60.5,52.9,60.6z M54,60.6
		c0.1,0.1,0.2,0,0.2-0.1C54.1,60.5,54,60.5,54,60.6z"/>
	<path fill="#EEBC31" d="M43.9,59.1c0,0.1,0,0.1,0,0.2c0,0.1-0.2,0-0.3,0c0-0.1,0-0.1,0-0.2C43.7,59,43.8,59.1,43.9,59.1z"/>
	<path fill="#EEBC31" d="M43.9,59.5c0,0.1,0,0.1,0,0.1c-0.1,0-0.3,0-0.3-0.1C43.6,59.5,43.8,59.5,43.9,59.5z"/>
	<path fill="#EEBC31" d="M50.7,59.8c0,0,0.1,0,0.1,0c0,0,0,0.2,0,0.3c0,0-0.1,0-0.1,0C50.6,60,50.6,59.8,50.7,59.8z"/>
	<path fill="#EEBC31" d="M47.1,59.8c0.1,0.4,0.2,1.3-0.2,1.4c-0.4,0.1-0.3-0.5-0.6-0.5c-0.2,0.1-0.5,0.2-0.7,0.1
		c-0.2,0-0.1,0.2-0.3,0.2c0.2-0.2,0.1-0.5,0.1-0.7c0.2,0,0.2,0.2,0.2,0.4c0.1,0.2,0.5,0.1,0.6,0c-0.1-0.1-0.2-0.3-0.2-0.4
		c0.2-0.1,0.2-0.2,0.4-0.2c0.3,0,0.4,0.5,0.1,0.6c0.2,0.1,0.2,0.3,0.4,0.5C47.3,61,47,60.2,47.1,59.8z M46.2,60.3
		c0,0.1,0.1,0.2,0.2,0.3C46.9,60.4,46.2,59.8,46.2,60.3z"/>
	<path fill="#EEBC31" d="M47.5,59.8c0.1,0.2,0,0.7-0.1,1C47.4,60.7,47.5,60.1,47.5,59.8z"/>
	<path fill="#EEBC31" d="M51.2,59.8c0.2,0.2,0,0.9,0.2,1.1c0.2-0.1,0.4,0,0.4-0.2c0-0.2-0.2-0.3-0.1-0.4c0.3,0,0.1,0.4,0.1,0.6
		c-0.3,0.1-0.7,0.1-1,0.1c0-0.2,0.2-0.2,0.3-0.2C51.3,60.4,51.1,60.1,51.2,59.8z"/>
	<path fill="#EEBC31" d="M51,60.2c0,0.2-0.4,0.1-0.3,0C50.7,60.1,51,60.1,51,60.2z"/>
	<path fill="#EEBC31" d="M52.2,61.3c0-0.2,0.2-0.3,0.2-0.4c-0.1-0.2-0.4-0.4-0.2-0.6C52.7,60.4,52.5,61.2,52.2,61.3z M52.2,60.4
		c0,0.1,0.1,0.2,0.2,0.2C52.5,60.6,52.3,60.3,52.2,60.4z"/>
	<path fill="#EEBC31" d="M55.8,60.4c0,0.2-0.2,0.1-0.3,0.1C55.5,60.3,55.6,60.3,55.8,60.4z"/>
	<path fill="#EEBC31" d="M48.5,60.4c0.3,0.2,0.8,0.3,1.2,0.2c0.1,0.1,0.1,0.3,0.2,0.4c0,0,0.1,0,0.2,0c-0.1-0.4,0.5-0.5,0.5-0.1
		C50.4,61,50.1,61,49.8,61c-0.1,0.1-0.1,0.3-0.3,0.4c-0.1-0.1-0.3-0.1-0.3-0.3c-0.5-0.1-0.5,0-1-0.1c-0.1,0.2-0.3,0.5-0.5,0.5
		c0.1-0.2,0.3-0.2,0.3-0.5c-0.1-0.1-0.3-0.2-0.2-0.4c0.3-0.1,0.2,0.4,0.4,0.4C48.6,60.8,48.4,60.6,48.5,60.4z M48.6,60.9
		c0.2,0,0.5,0,0.7,0c0.1,0.1,0.1,0.3,0.3,0.3c0.1-0.1,0.3-0.4,0.1-0.6C49.3,60.9,48.5,60.3,48.6,60.9z M50.2,60.9
		c0.2,0,0.2-0.1,0.2-0.2C50.3,60.5,50.1,60.7,50.2,60.9z"/>
	<path fill="#EEBC31" d="M43.7,60.5c0.1,0,0.1,0.1,0.2,0.1c0,0.1,0,0.2-0.1,0.2C43.6,60.8,43.6,60.6,43.7,60.5z"/>
	<path fill="#EEBC31" d="M44.3,60.7c0.1,0.2-0.2,0.3-0.3,0.2C44,60.7,44.1,60.6,44.3,60.7z"/>
	<path fill="#EEBC31" d="M44.8,60.9C44.7,60.9,44.7,61,44.8,60.9C44.6,61,44.6,61,44.5,61C44.3,60.7,44.8,60.6,44.8,60.9z"/>
	<path fill="#EEBC31" d="M51.1,61.1c0.2,0,0.2,0.3,0,0.3C51,61.4,51,61.2,51.1,61.1z"/>
	<path fill="#EEBC31" d="M51.6,61.5c-0.1,0-0.2-0.1-0.2-0.2C51.4,61,51.8,61.3,51.6,61.5z"/>
	<path fill="#EEBC31" d="M44.1,59.1C44.1,59.1,44.2,59.1,44.1,59.1c0.1,0.4-0.6,1.2,0.2,1.3c0.1-0.1,0.1-0.4,0.2-0.4
		c0,0.2-0.1,0.2-0.1,0.4c0.1,0.4,0.9,0.2,0.6-0.3c0.4,0,0.1,0.4,0,0.6c-0.2,0.1-0.5,0-0.7-0.1c-0.4,0-0.7-0.1-0.7-0.5
		C44,59.9,44.1,59.5,44.1,59.1z"/>
</g>
</svg>
