<svg xmlns="http://www.w3.org/2000/svg" xmlns:xlink="http://www.w3.org/1999/xlink" width="100" height="100" viewBox="0 0 100 100">
  <defs>
    <clipPath id="a">
      <path d="M73.3,100H26.7A26.63,26.63,0,0,1,0,73.3V26.7A26.63,26.63,0,0,1,26.7,0H73.4A26.61,26.61,0,0,1,100,26.7V73.4A26.61,26.61,0,0,1,73.3,100Z" fill="none"/>
    </clipPath>
  </defs>
  <title>flag_na_cr_antigua_and_barbuda</title>
  <g clip-path="url(#a)">
    <g>
      <g>
        <rect width="100" height="100"/>
        <polygon points="72.24 40.72 27.76 40.72 36.85 36.45 32.01 27.65 41.88 29.54 43.13 19.57 50 26.9 56.87 19.57 58.13 29.54 67.99 27.65 63.15 36.45 72.24 40.72" fill="#ffda44"/>
        <path d="M17.33,40a76.09,76.09,0,0,0,0,20L50,63l32.67-3a75.89,75.89,0,0,0,.66-10,75.77,75.77,0,0,0-.66-10" fill="#0052b4"/>
        <path d="M82.67,60H17.33C20.42,82.82,33.87,100,50,100S79.58,82.82,82.67,60Z" fill="#f0f0f0"/>
        <g>
          <polygon points="50 100 0 0 0 100 50 100" fill="#a2001d"/>
          <polygon points="100 100 100 0 50 100 100 100" fill="#a2001d"/>
        </g>
      </g>
      <g>
        <path d="M10.39,74.25V25.75A26.64,26.64,0,0,1,30.24,0H0V100H30.24A26.66,26.66,0,0,1,10.39,74.25Z" opacity="0.2" style="isolation: isolate"/>
        <path d="M89.61,25.75V74.24A26.64,26.64,0,0,1,69.76,100H100V0H69.76A26.66,26.66,0,0,1,89.61,25.75Z" fill="#fff" opacity="0.1" style="isolation: isolate"/>
      </g>
    </g>
  </g>
</svg>
