<svg xmlns="http://www.w3.org/2000/svg" xmlns:xlink="http://www.w3.org/1999/xlink" width="100" height="100" viewBox="0 0 100 100">
  <defs>
    <clipPath id="a">
      <path d="M73.3,100H26.7A26.63,26.63,0,0,1,0,73.3V26.7A26.63,26.63,0,0,1,26.7,0H73.4A26.61,26.61,0,0,1,100,26.7V73.4A26.61,26.61,0,0,1,73.3,100Z" fill="none"/>
    </clipPath>
  </defs>
  <title>flag_na_cr_british_indian_ocean_territory</title>
  <g clip-path="url(#a)">
    <g>
      <g>
        <rect width="100" height="100" fill="#f0f0f0"/>
        <g>
          <path d="M90.17,39c-.79,0-2.61-1-4-1.8-2.14-1.22-4.16-2.36-6.09-2.36s-4,1.14-6.1,2.36c-1.33.76-3.16,1.8-4,1.8s-2.61-1-3.94-1.8C64,36,62,34.88,60,34.88S56.09,36,54,37.24C52.61,38,50.78,39,50,39s-2.61-1-4-1.8C43.91,36,41.89,34.88,40,34.88s-4,1.14-6.1,2.36C32.53,38,30.7,39,29.92,39s-2.62-1-4-1.8c-2.14-1.22-4.16-2.36-6.1-2.36s-4,1.14-6.09,2.36C12.44,38,10.62,39,9.83,39s-2.61-1-3.95-1.8C3.82,36.07,1.87,35,0,34.88v4.37A16.1,16.1,0,0,1,3.74,41c2.14,1.22,4.16,2.36,6.09,2.36s4-1.14,6.1-2.36c1.33-.76,3.16-1.8,3.94-1.8s2.62,1,3.95,1.8c2.14,1.22,4.16,2.36,6.1,2.36S33.87,42.24,36,41c1.33-.76,3.16-1.8,4-1.8s2.61,1,3.95,1.8c2.14,1.22,4.16,2.36,6.09,2.36s4-1.14,6.09-2.36c1.34-.76,3.17-1.8,3.95-1.8s2.61,1,4,1.8c2.14,1.22,4.16,2.36,6.09,2.36s4-1.14,6.1-2.36c1.33-.76,3.16-1.8,3.95-1.8s2.61,1,3.94,1.8c2.14,1.22,4.17,2.36,6.1,2.36s4-1.14,6.09-2.36A16.1,16.1,0,0,1,100,39.25V34.88c-1.87.08-3.82,1.19-5.88,2.36C92.78,38,91,39,90.17,39Z" fill="#0052b4"/>
          <path d="M0,6.64A16.53,16.53,0,0,1,3.74,8.41c2.14,1.22,4.16,2.37,6.09,2.37s4-1.15,6.1-2.37c1.33-.76,3.16-1.79,3.94-1.79s2.62,1,3.95,1.79C26,9.63,28,10.78,29.92,10.78S33.87,9.63,36,8.41c1.33-.76,3.16-1.79,4-1.79s2.61,1,3.95,1.79c2.14,1.22,4.16,2.37,6.09,2.37s4-1.15,6.09-2.37c1.34-.76,3.17-1.79,3.95-1.79s2.61,1,4,1.79c2.14,1.22,4.16,2.37,6.09,2.37s4-1.15,6.1-2.37c1.33-.76,3.16-1.79,3.95-1.79s2.61,1,3.94,1.79c2.14,1.22,4.17,2.37,6.1,2.37s4-1.15,6.09-2.37A16.53,16.53,0,0,1,100,6.64V2.28c-1.87.07-3.82,1.18-5.88,2.35-1.34.76-3.17,1.8-4,1.8s-2.61-1-4-1.8c-2.14-1.21-4.16-2.36-6.09-2.36s-4,1.15-6.1,2.36c-1.33.76-3.16,1.8-4,1.8s-2.61-1-3.94-1.8C64,3.42,62,2.27,60,2.27S56.09,3.42,54,4.63c-1.34.76-3.17,1.8-4,1.8s-2.61-1-4-1.8C43.91,3.42,41.89,2.27,40,2.27s-4,1.15-6.1,2.36c-1.33.76-3.16,1.8-3.94,1.8s-2.62-1-4-1.8c-2.14-1.21-4.16-2.36-6.1-2.36s-4,1.15-6.09,2.36c-1.34.76-3.16,1.8-3.95,1.8s-2.61-1-3.95-1.8C3.82,3.46,1.87,2.35,0,2.28Z" fill="#0052b4"/>
          <path d="M90.17,17.3c-.79,0-2.61-1-4-1.8-2.14-1.21-4.16-2.36-6.09-2.36s-4,1.15-6.1,2.36c-1.33.76-3.16,1.8-4,1.8s-2.61-1-3.94-1.8C64,14.29,62,13.14,60,13.14S56.09,14.29,54,15.5c-1.34.76-3.17,1.8-4,1.8s-2.61-1-4-1.8c-2.14-1.21-4.16-2.36-6.09-2.36s-4,1.15-6.1,2.36c-1.33.76-3.16,1.8-3.94,1.8s-2.62-1-4-1.8c-2.14-1.21-4.16-2.36-6.1-2.36s-4,1.15-6.09,2.36c-1.34.76-3.16,1.8-3.95,1.8s-2.61-1-3.95-1.8c-2.06-1.17-4-2.28-5.88-2.35v4.36a16.1,16.1,0,0,1,3.74,1.77c2.14,1.22,4.16,2.36,6.09,2.36s4-1.14,6.1-2.36c1.33-.76,3.16-1.79,3.94-1.79s2.62,1,3.95,1.79C26,20.5,28,21.64,29.92,21.64S33.87,20.5,36,19.28c1.33-.76,3.16-1.79,4-1.79s2.61,1,3.95,1.79c2.14,1.22,4.16,2.36,6.09,2.36s4-1.14,6.09-2.36c1.34-.76,3.17-1.79,3.95-1.79s2.61,1,4,1.79c2.14,1.22,4.16,2.36,6.09,2.36s4-1.14,6.1-2.36c1.33-.76,3.16-1.79,3.95-1.79s2.61,1,3.94,1.79c2.14,1.22,4.17,2.36,6.1,2.36s4-1.14,6.09-2.36A16.1,16.1,0,0,1,100,17.51V13.15c-1.87.07-3.82,1.18-5.88,2.35C92.78,16.26,91,17.3,90.17,17.3Z" fill="#0052b4"/>
          <path d="M100,24c-1.87.08-3.82,1.19-5.88,2.36-1.34.76-3.17,1.8-4,1.8s-2.61-1-4-1.8C84.08,25.16,82.06,24,80.13,24s-4,1.15-6.1,2.36c-1.33.76-3.16,1.8-4,1.8s-2.61-1-3.94-1.8C64,25.16,62,24,60,24S56.09,25.16,54,26.37c-1.34.76-3.17,1.8-4,1.8s-2.61-1-4-1.8C43.91,25.16,41.89,24,40,24s-4,1.15-6.1,2.36c-1.33.76-3.16,1.8-3.94,1.8s-2.62-1-4-1.8C23.83,25.16,21.81,24,19.87,24s-4,1.15-6.09,2.36c-1.34.76-3.16,1.8-3.95,1.8s-2.61-1-3.95-1.8C3.82,25.2,1.87,24.09,0,24v4.37a16.1,16.1,0,0,1,3.74,1.77c2.14,1.22,4.16,2.36,6.09,2.36s4-1.14,6.1-2.36c1.33-.76,3.16-1.8,3.94-1.8s2.62,1,3.95,1.8c2.14,1.22,4.16,2.36,6.1,2.36s3.95-1.14,6.09-2.36c1.33-.76,3.16-1.8,4-1.8s2.61,1,3.95,1.8c2.14,1.22,4.16,2.36,6.09,2.36s4-1.14,6.09-2.36c1.34-.76,3.17-1.8,3.95-1.8s2.61,1,4,1.8c2.14,1.22,4.16,2.36,6.09,2.36s4-1.14,6.1-2.36c1.33-.76,3.16-1.8,3.95-1.8s2.61,1,3.94,1.8c2.14,1.22,4.17,2.36,6.1,2.36s4-1.14,6.09-2.36A16.1,16.1,0,0,1,100,28.38V24Z" fill="#0052b4"/>
          <path d="M90.17,49.91c-.79,0-2.61-1-4-1.8-2.14-1.22-4.16-2.36-6.09-2.36s-4,1.14-6.1,2.36c-1.33.76-3.16,1.8-4,1.8s-2.61-1-3.94-1.8C64,46.89,62,45.75,60,45.75S56.09,46.89,54,48.11c-1.34.76-3.17,1.8-4,1.8s-2.61-1-4-1.8c-2.14-1.22-4.16-2.36-6.09-2.36s-4,1.14-6.1,2.36c-1.33.76-3.16,1.8-3.94,1.8s-2.62-1-4-1.8c-2.14-1.22-4.16-2.36-6.1-2.36s-4,1.14-6.09,2.36c-1.34.76-3.16,1.8-3.95,1.8s-2.61-1-3.95-1.8c-2.06-1.17-4-2.28-5.88-2.36v4.37a16.1,16.1,0,0,1,3.74,1.77c2.14,1.22,4.16,2.36,6.09,2.36s4-1.14,6.1-2.36c1.33-.76,3.16-1.8,3.94-1.8s2.62,1,3.95,1.8c2.14,1.22,4.16,2.36,6.1,2.36s3.95-1.14,6.09-2.36c1.33-.76,3.16-1.8,4-1.8s2.61,1,3.95,1.8c2.14,1.22,4.16,2.36,6.09,2.36s4-1.14,6.09-2.36c1.34-.76,3.17-1.8,3.95-1.8s2.61,1,4,1.8c2.14,1.22,4.16,2.36,6.09,2.36s4-1.14,6.1-2.36c1.33-.76,3.16-1.8,3.95-1.8s2.61,1,3.94,1.8c2.14,1.22,4.17,2.36,6.1,2.36s4-1.14,6.09-2.36A16.1,16.1,0,0,1,100,50.12V45.75c-1.87.08-3.82,1.19-5.88,2.36C92.78,48.87,91,49.91,90.17,49.91Z" fill="#0052b4"/>
          <path d="M100,56.62c-1.87.08-3.82,1.19-5.88,2.36-1.34.76-3.17,1.8-4,1.8s-2.61-1-4-1.8c-2.14-1.22-4.16-2.36-6.09-2.36s-4,1.14-6.1,2.36c-1.33.76-3.16,1.8-4,1.8s-2.61-1-3.94-1.8C64,57.76,62,56.62,60,56.62S56.09,57.76,54,59c-1.34.76-3.17,1.8-4,1.8s-2.61-1-4-1.8c-2.14-1.22-4.16-2.36-6.09-2.36s-4,1.14-6.1,2.36c-1.33.76-3.16,1.8-3.94,1.8s-2.62-1-4-1.8c-2.14-1.22-4.16-2.36-6.1-2.36s-4,1.14-6.09,2.36c-1.34.76-3.16,1.8-3.95,1.8s-2.61-1-3.95-1.8c-2.06-1.17-4-2.28-5.88-2.36V61a16.1,16.1,0,0,1,3.74,1.77C5.88,64,7.9,65.12,9.83,65.12s4-1.14,6.1-2.36C17.26,62,19.09,61,19.87,61s2.62,1,3.95,1.8C26,64,28,65.12,29.92,65.12S33.87,64,36,62.76C37.34,62,39.17,61,40,61s2.61,1,3.95,1.8C46.05,64,48.07,65.12,50,65.12s4-1.14,6.09-2.36C57.43,62,59.26,61,60,61s2.61,1,4,1.8c2.14,1.22,4.16,2.36,6.09,2.36s4-1.14,6.1-2.36C77.51,62,79.34,61,80.13,61s2.61,1,3.94,1.8c2.14,1.22,4.17,2.36,6.1,2.36s4-1.14,6.09-2.36A16.1,16.1,0,0,1,100,61V56.62Z" fill="#0052b4"/>
          <path d="M100,67.49c-1.87.08-3.82,1.19-5.88,2.36-1.34.76-3.17,1.79-4,1.79s-2.61-1-4-1.79c-2.14-1.22-4.16-2.36-6.09-2.36s-4,1.14-6.1,2.36c-1.33.76-3.16,1.79-4,1.79s-2.61-1-3.94-1.79C64,68.63,62,67.49,60,67.49S56.09,68.63,54,69.85c-1.34.76-3.17,1.79-4,1.79s-2.61-1-4-1.79c-2.14-1.22-4.16-2.36-6.09-2.36s-4,1.14-6.1,2.36c-1.33.76-3.16,1.79-3.94,1.79s-2.62-1-4-1.79c-2.14-1.22-4.16-2.36-6.1-2.36s-4,1.14-6.09,2.36c-1.34.76-3.16,1.79-3.95,1.79s-2.61-1-3.95-1.79c-2.06-1.17-4-2.28-5.88-2.36v4.36a16.62,16.62,0,0,1,3.74,1.78C5.88,74.84,7.9,76,9.83,76s4-1.15,6.1-2.36c1.33-.76,3.16-1.8,3.94-1.8s2.62,1,3.95,1.8C26,74.84,28,76,29.92,76s3.95-1.15,6.09-2.36c1.33-.76,3.16-1.8,4-1.8s2.61,1,3.95,1.8C46.05,74.84,48.07,76,50,76s4-1.15,6.09-2.36c1.34-.76,3.17-1.8,3.95-1.8s2.61,1,4,1.8C66.13,74.84,68.15,76,70.08,76s4-1.15,6.1-2.36c1.33-.76,3.16-1.8,3.95-1.8s2.61,1,3.94,1.8c2.14,1.21,4.17,2.36,6.1,2.36s4-1.15,6.09-2.36A16.62,16.62,0,0,1,100,71.85V67.49Z" fill="#0052b4"/>
          <path d="M100,78.36c-1.87.08-3.82,1.19-5.88,2.36-1.34.76-3.17,1.79-4,1.79s-2.61-1-4-1.79c-2.14-1.22-4.16-2.36-6.09-2.36s-4,1.14-6.1,2.36c-1.33.76-3.16,1.79-4,1.79s-2.61-1-3.94-1.79C64,79.5,62,78.36,60,78.36S56.09,79.5,54,80.72c-1.34.76-3.17,1.79-4,1.79s-2.61-1-4-1.79c-2.14-1.22-4.16-2.36-6.09-2.36s-4,1.14-6.1,2.36c-1.33.76-3.16,1.79-3.94,1.79s-2.62-1-4-1.79c-2.14-1.22-4.16-2.36-6.1-2.36s-4,1.14-6.09,2.36c-1.34.76-3.16,1.79-3.95,1.79s-2.61-1-3.95-1.79c-2.06-1.17-4-2.28-5.88-2.36v4.36A16.62,16.62,0,0,1,3.74,84.5c2.14,1.21,4.16,2.36,6.09,2.36s4-1.15,6.1-2.36c1.33-.76,3.16-1.8,3.94-1.8s2.62,1,3.95,1.8c2.14,1.21,4.16,2.36,6.1,2.36S33.87,85.71,36,84.5c1.33-.76,3.16-1.8,4-1.8s2.61,1,3.95,1.8c2.14,1.21,4.16,2.36,6.09,2.36s4-1.15,6.09-2.36c1.34-.76,3.17-1.8,3.95-1.8s2.61,1,4,1.8c2.14,1.21,4.16,2.36,6.09,2.36s4-1.15,6.1-2.36c1.33-.76,3.16-1.8,3.95-1.8s2.61,1,3.94,1.8c2.14,1.21,4.17,2.36,6.1,2.36s4-1.15,6.09-2.36A16.62,16.62,0,0,1,100,82.72V78.36Z" fill="#0052b4"/>
          <path d="M100,89.23c-1.87.08-3.82,1.19-5.88,2.36-1.34.76-3.17,1.79-4,1.79s-2.61-1-4-1.79c-2.14-1.22-4.16-2.37-6.09-2.37s-4,1.15-6.1,2.37c-1.33.76-3.16,1.79-4,1.79s-2.61-1-3.94-1.79C64,90.37,62,89.22,60,89.22S56.09,90.37,54,91.59c-1.34.76-3.17,1.79-4,1.79s-2.61-1-4-1.79c-2.14-1.22-4.16-2.37-6.09-2.37s-4,1.15-6.1,2.37c-1.33.76-3.16,1.79-3.94,1.79s-2.62-1-4-1.79c-2.14-1.22-4.16-2.37-6.1-2.37s-4,1.15-6.09,2.37c-1.34.76-3.16,1.79-3.95,1.79s-2.61-1-3.95-1.79c-2.06-1.17-4-2.28-5.88-2.36v4.36a16.62,16.62,0,0,1,3.74,1.78c2.14,1.21,4.16,2.36,6.09,2.36s4-1.15,6.1-2.36c1.33-.76,3.16-1.8,3.94-1.8s2.62,1,3.95,1.8c2.14,1.21,4.16,2.36,6.1,2.36s3.95-1.15,6.09-2.36c1.33-.76,3.16-1.8,4-1.8s2.61,1,3.95,1.8c2.14,1.21,4.16,2.36,6.09,2.36s4-1.15,6.09-2.36c1.34-.76,3.17-1.8,3.95-1.8s2.61,1,4,1.8c2.14,1.21,4.16,2.36,6.09,2.36s4-1.15,6.1-2.36c1.33-.76,3.16-1.8,3.95-1.8s2.61,1,3.94,1.8c2.14,1.21,4.17,2.36,6.1,2.36s4-1.15,6.09-2.36A16.62,16.62,0,0,1,100,93.59V89.23Z" fill="#0052b4"/>
        </g>
        <g>
          <path d="M50,16.67h0Z" fill="#f0f0f0"/>
          <path d="M49.91,50H50v-.09Z" fill="#f0f0f0"/>
        </g>
        <polygon points="54.35 50 54.35 50 54.35 50 54.35 50" fill="#496e2d"/>
        <polygon points="68.48 32.97 81.52 32.97 75 39.49 68.48 32.97" fill="#6da544"/>
        <g>
          <rect x="73.55" y="38.04" width="2.9" height="7.97" fill="#a2001d"/>
          <rect x="73.55" y="59.06" width="2.9" height="7.97" fill="#a2001d"/>
        </g>
        <path d="M83.7,54.71a4.35,4.35,0,0,0-7.25-3.24V48.91H77.9V46H76.45V44.57h-2.9V46H72.1v2.9h1.45v2.56A4.35,4.35,0,1,0,67.75,58v2.56h14.5V58A4.34,4.34,0,0,0,83.7,54.71Z" fill="#ffda44"/>
        <path d="M79.35,53.26a1.43,1.43,0,0,0-1,.37l-1.93,1.73h-2.9l-1.93-1.73a1.43,1.43,0,0,0-1-.37,1.45,1.45,0,0,0-1,2.53l1,.87v1h8.7v-1l1-.86a1.45,1.45,0,0,0-1-2.53Z" fill="#d80027"/>
        <rect width="50" height="50" fill="#f0f0f0"/>
        <polygon points="0 29.69 20.31 29.69 20.31 50 29.69 50 29.69 29.69 50 29.69 50 20.31 29.69 20.31 29.69 0 20.31 0 20.31 20.31 0 20.31 0 29.69" fill="#d80027"/>
        <g>
          <polygon points="39.74 32.61 50 42.87 50 32.61 39.74 32.61" fill="#0052b4"/>
          <polygon points="32.61 32.61 50 50 50 45.08 37.53 32.61 32.61 32.61" fill="#0052b4"/>
          <polygon points="45.37 50 32.61 37.24 32.61 50 45.37 50" fill="#0052b4"/>
        </g>
        <polygon points="32.61 32.61 50 50 50 45.08 37.53 32.61 32.61 32.61" fill="#f0f0f0"/>
        <polygon points="32.61 32.61 50 50 50 45.08 37.53 32.61 32.61 32.61" fill="#d80027"/>
        <g>
          <polygon points="7.84 32.61 0 40.45 0 32.61 7.84 32.61" fill="#0052b4"/>
          <polygon points="17.39 34.82 17.39 50 2.21 50 17.39 34.82" fill="#0052b4"/>
        </g>
        <polygon points="12.47 32.61 0 45.08 0 50 0 50 17.39 32.61 12.47 32.61" fill="#d80027"/>
        <g>
          <polygon points="10.26 17.39 0 7.13 0 17.39 10.26 17.39" fill="#0052b4"/>
          <polygon points="17.39 17.39 0 0 0 4.92 12.47 17.39 17.39 17.39" fill="#0052b4"/>
          <polygon points="4.63 0 17.39 12.76 17.39 0 4.63 0" fill="#0052b4"/>
        </g>
        <polygon points="17.39 17.39 0 0 0 4.92 12.47 17.39 17.39 17.39" fill="#f0f0f0"/>
        <polygon points="17.39 17.39 0 0 0 4.92 12.47 17.39 17.39 17.39" fill="#d80027"/>
        <g>
          <polygon points="42.16 17.39 50 9.55 50 17.39 42.16 17.39" fill="#0052b4"/>
          <polygon points="32.61 15.18 32.61 0 47.79 0 32.61 15.18" fill="#0052b4"/>
        </g>
        <polygon points="37.53 17.39 50 4.92 50 0 50 0 32.61 17.39 37.53 17.39" fill="#d80027"/>
      </g>
      <g>
        <path d="M10.39,74.25V25.75A26.64,26.64,0,0,1,30.24,0H0V100H30.24A26.66,26.66,0,0,1,10.39,74.25Z" opacity="0.2" style="isolation: isolate"/>
        <path d="M89.61,25.75V74.24A26.64,26.64,0,0,1,69.76,100H100V0H69.76A26.66,26.66,0,0,1,89.61,25.75Z" fill="#fff" opacity="0.1" style="isolation: isolate"/>
      </g>
    </g>
  </g>
</svg>
