<svg xmlns="http://www.w3.org/2000/svg" xmlns:xlink="http://www.w3.org/1999/xlink" width="100" height="100" viewBox="0 0 100 100">
  <defs>
    <clipPath id="a">
      <path d="M73.3,100H26.7A26.63,26.63,0,0,1,0,73.3V26.7A26.63,26.63,0,0,1,26.7,0H73.4A26.61,26.61,0,0,1,100,26.7V73.4A26.61,26.61,0,0,1,73.3,100Z" fill="none"/>
    </clipPath>
  </defs>
  <title>flag_af_e_djibouti</title>
  <g clip-path="url(#a)">
    <g>
      <g>
        <rect width="100" height="100" fill="#6da544"/>
        <polygon points="100 0 100 50 0 50.05 0 0 100 0" fill="#338af3"/>
        <polygon points="50 50 0 100 0 0 50 50" fill="#f0f0f0"/>
        <polygon points="18.48 37.59 21.56 47.07 31.52 47.07 23.46 52.93 26.54 62.4 18.48 56.55 10.42 62.4 13.5 52.93 5.43 47.07 15.4 47.07 18.48 37.59" fill="#d80027"/>
      </g>
      <g>
        <path d="M10.39,74.25V25.75A26.64,26.64,0,0,1,30.24,0H0V100H30.24A26.66,26.66,0,0,1,10.39,74.25Z" opacity="0.2" style="isolation: isolate"/>
        <path d="M89.61,25.75V74.24A26.64,26.64,0,0,1,69.76,100H100V0H69.76A26.66,26.66,0,0,1,89.61,25.75Z" fill="#fff" opacity="0.1" style="isolation: isolate"/>
      </g>
    </g>
  </g>
</svg>
