<svg xmlns="http://www.w3.org/2000/svg" xmlns:xlink="http://www.w3.org/1999/xlink" width="100" height="100" viewBox="0 0 100 100">
  <defs>
    <clipPath id="a">
      <path d="M73.3,100H26.7A26.63,26.63,0,0,1,0,73.3V26.7A26.63,26.63,0,0,1,26.7,0H73.4A26.61,26.61,0,0,1,100,26.7V73.4A26.61,26.61,0,0,1,73.3,100Z" fill="none"/>
    </clipPath>
  </defs>
  <title>flag_na_cr_grenada</title>
  <g clip-path="url(#a)">
    <g>
      <g>
        <rect width="100" height="100" fill="#a2001d"/>
        <polygon points="50 50 8.7 91.3 8.7 8.7 50 50" fill="#496e2d"/>
        <g>
          <polygon points="50 50 91.3 91.3 8.7 91.3 50 50" fill="#ffda44"/>
          <polygon points="91.3 8.7 50 50 8.7 8.7 91.3 8.7" fill="#ffda44"/>
        </g>
        <polygon points="91.3 8.7 91.3 91.3 50 50 91.3 8.7" fill="#496e2d"/>
        <circle cx="50" cy="50" r="12.5" fill="#a2001d"/>
        <g>
          <polygon points="50 37.5 52.8 46.12 61.87 46.12 54.53 51.45 57.34 60.08 50 54.75 42.66 60.08 45.47 51.45 38.13 46.12 47.2 46.12 50 37.5" fill="#ffda44"/>
          <path d="M24,49.12a4.65,4.65,0,0,1-7.86,5c-2.48-3.93-1-10.34-1-10.34S21.46,45.19,24,49.12Z" fill="#ffda44"/>
        </g>
        <circle cx="21.26" cy="53.57" r="2.32" fill="#a2001d"/>
        <g>
          <polygon points="50 1.74 50.65 3.73 52.74 3.73 51.05 4.96 51.7 6.96 50 5.72 48.3 6.96 48.95 4.96 47.26 3.73 49.35 3.73 50 1.74" fill="#ffda44"/>
          <polygon points="33.22 1.74 33.87 3.73 35.96 3.73 34.27 4.96 34.92 6.96 33.22 5.72 31.53 6.96 32.17 4.96 30.48 3.73 32.57 3.73 33.22 1.74" fill="#ffda44"/>
          <polygon points="66.78 1.74 67.43 3.73 69.52 3.73 67.83 4.96 68.47 6.96 66.78 5.72 65.08 6.96 65.73 4.96 64.04 3.73 66.13 3.73 66.78 1.74" fill="#ffda44"/>
          <polygon points="50 93.04 50.65 95.04 52.74 95.04 51.05 96.27 51.7 98.26 50 97.03 48.3 98.26 48.95 96.27 47.26 95.04 49.35 95.04 50 93.04" fill="#ffda44"/>
          <polygon points="33.22 93.04 33.87 95.04 35.96 95.04 34.27 96.27 34.92 98.26 33.22 97.03 31.53 98.26 32.17 96.27 30.48 95.04 32.57 95.04 33.22 93.04" fill="#ffda44"/>
          <polygon points="66.78 93.04 67.43 95.04 69.52 95.04 67.83 96.27 68.47 98.26 66.78 97.03 65.08 98.26 65.73 96.27 64.04 95.04 66.13 95.04 66.78 93.04" fill="#ffda44"/>
        </g>
      </g>
      <g>
        <path d="M10.39,74.25V25.75A26.64,26.64,0,0,1,30.24,0H0V100H30.24A26.66,26.66,0,0,1,10.39,74.25Z" opacity="0.2" style="isolation: isolate"/>
        <path d="M89.61,25.75V74.24A26.64,26.64,0,0,1,69.76,100H100V0H69.76A26.66,26.66,0,0,1,89.61,25.75Z" fill="#fff" opacity="0.1" style="isolation: isolate"/>
      </g>
    </g>
  </g>
</svg>
