<svg xmlns="http://www.w3.org/2000/svg" xmlns:xlink="http://www.w3.org/1999/xlink" width="100" height="100" viewBox="0 0 100 100">
  <defs>
    <clipPath id="a">
      <path d="M73.3,100H26.7A26.63,26.63,0,0,1,0,73.3V26.7A26.63,26.63,0,0,1,26.7,0H73.4A26.61,26.61,0,0,1,100,26.7V73.4A26.61,26.61,0,0,1,73.3,100Z" fill="none"/>
    </clipPath>
  </defs>
  <title>flag_eu_s_bosnia_and_herzegovina</title>
  <g clip-path="url(#a)">
    <g>
      <g>
        <path d="M4.27,0H0V2.66l.88,2.7H6.26L1.91,8.52l1.66,5.12L0,11.05v89H88l-4.22-3.06h5.38l1.67-5.11,1.66,5.11h5.38L93.61,100H100V95.73ZM4,22.8l1.65-5.11L1.33,14.52H6.71L8.37,9.4,10,14.52h5.38l-4.36,3.16,1.67,5.12L8.37,19.64ZM13.18,32l1.66-5.12-4.35-3.16h5.38l1.66-5.12,1.66,5.12h5.38l-4.35,3.17L21.89,32l-4.36-3.17Zm9.16,9.16L24,36l-4.36-3.16H25l1.67-5.12,1.66,5.12h5.38L29.38,36,31,41.11,26.69,38Zm9.16,9.15,1.66-5.11L28.8,42h5.38l1.66-5.12L37.51,42h5.38l-4.35,3.16,1.66,5.12-4.35-3.16Zm9.15,9.16,1.66-5.12L38,51.15h5.38L45,46l1.66,5.12h5.39l-4.36,3.17,1.67,5.12L45,56.26Zm9.16,9.16,1.66-5.12-4.36-3.16H52.5l1.66-5.12,1.66,5.12H61.2l-4.35,3.16,1.67,5.12-4.36-3.16ZM59,77.74l1.66-5.11-4.36-3.16h5.38l1.66-5.12L65,69.46h5.38L66,72.62l1.66,5.12-4.35-3.16Zm9.16,9.16,1.65-5.11-4.35-3.17h5.38l1.66-5.12,1.67,5.12h5.38l-4.35,3.16,1.66,5.12-4.35-3.16ZM86,96.06l-4.36-3.17-4.35,3.17,1.66-5.12-4.35-3.16H80l1.66-5.12,1.66,5.12h5.38l-4.35,3.17Z" fill="#0052b4"/>
        <polygon points="100 0 4.27 0 4.27 0 100 95.73 100 0" fill="#ffda44"/>
        <g>
          <polygon points="1.91 8.52 6.26 5.36 0.88 5.36 0 2.66 0 11.05 3.57 13.64 1.91 8.52" fill="#f0f0f0"/>
          <polygon points="11.06 17.68 15.42 14.52 10.04 14.52 8.37 9.4 6.71 14.52 1.33 14.52 5.68 17.68 4.03 22.8 8.37 19.64 12.73 22.8 11.06 17.68" fill="#f0f0f0"/>
          <polygon points="20.22 26.84 24.57 23.67 19.19 23.68 17.53 18.56 15.87 23.68 10.49 23.68 14.84 26.84 13.18 31.96 17.53 28.79 21.89 31.95 20.22 26.84" fill="#f0f0f0"/>
          <polygon points="29.38 35.99 33.73 32.83 28.35 32.83 26.68 27.71 25.02 32.83 19.64 32.84 24 36 22.34 41.12 26.69 37.95 31.04 41.11 29.38 35.99" fill="#f0f0f0"/>
          <polygon points="38.54 45.15 42.89 41.99 37.51 41.99 35.84 36.87 34.18 41.99 28.8 41.99 33.16 45.16 31.5 50.27 35.85 47.11 40.2 50.27 38.54 45.15" fill="#f0f0f0"/>
          <polygon points="47.69 54.31 52.05 51.15 46.66 51.15 45 46.03 43.34 51.15 37.96 51.15 42.31 54.31 40.65 59.43 45 56.26 49.36 59.43 47.69 54.31" fill="#f0f0f0"/>
          <polygon points="56.85 63.47 61.2 60.3 55.82 60.3 54.16 55.19 52.5 60.3 47.12 60.31 51.47 63.47 49.81 68.59 54.16 65.42 58.52 68.58 56.85 63.47" fill="#f0f0f0"/>
          <polygon points="66.01 72.62 70.36 69.46 64.98 69.46 63.31 64.34 61.65 69.46 56.27 69.47 60.63 72.63 58.97 77.75 63.32 74.58 67.67 77.74 66.01 72.62" fill="#f0f0f0"/>
          <polygon points="75.17 81.78 79.52 78.62 74.14 78.62 72.47 73.5 70.81 78.62 65.43 78.62 69.78 81.79 68.13 86.9 72.47 83.74 76.83 86.9 75.17 81.78" fill="#f0f0f0"/>
          <polygon points="83.29 87.78 81.63 82.66 79.97 87.78 74.59 87.78 78.94 90.94 77.28 96.06 81.63 92.89 85.99 96.06 84.32 90.94 88.67 87.77 83.29 87.78" fill="#f0f0f0"/>
          <polygon points="92.45 96.93 90.79 91.81 89.12 96.93 83.74 96.94 87.96 100 93.61 100 97.83 96.93 92.45 96.93" fill="#f0f0f0"/>
        </g>
      </g>
      <g>
        <path d="M10.39,74.25V25.75A26.64,26.64,0,0,1,30.24,0H0V100H30.24A26.66,26.66,0,0,1,10.39,74.25Z" opacity="0.2" style="isolation: isolate"/>
        <path d="M89.61,25.75V74.24A26.64,26.64,0,0,1,69.76,100H100V0H69.76A26.66,26.66,0,0,1,89.61,25.75Z" fill="#fff" opacity="0.1" style="isolation: isolate"/>
      </g>
    </g>
  </g>
</svg>
