<svg xmlns="http://www.w3.org/2000/svg" xmlns:xlink="http://www.w3.org/1999/xlink" width="100" height="100" viewBox="0 0 100 100">
  <defs>
    <clipPath id="a">
      <path d="M73.3,100H26.7A26.63,26.63,0,0,1,0,73.3V26.7A26.63,26.63,0,0,1,26.7,0H73.4A26.61,26.61,0,0,1,100,26.7V73.4A26.61,26.61,0,0,1,73.3,100Z" fill="none"/>
    </clipPath>
  </defs>
  <title>flag_af_e_ethiopia</title>
  <g clip-path="url(#a)">
    <g>
      <g>
        <rect width="100" height="100" fill="#ffda44"/>
        <rect width="100" height="33.33" fill="#6da544"/>
        <rect y="66.67" width="100" height="33.33" fill="#d80027"/>
        <circle cx="50" cy="50" r="25" fill="#0052b4"/>
        <g>
          <polygon points="49.99 30.64 54.51 44.53 69.14 44.53 57.3 53.11 61.84 67.05 49.99 58.42 38.16 67.03 42.69 53.11 30.86 44.53 45.48 44.53 49.99 30.64" fill="#ffda44"/>
          <polygon points="67.99 53.46 53.68 48.8 62.52 36.63 58.85 33.95 50 46.13 41.15 33.95 37.47 36.63 46.32 48.8 32.01 53.46 33.41 57.78 47.73 53.13 47.73 68.18 52.27 68.18 52.27 53.13 66.59 57.78 67.99 53.46" fill="#ffda44"/>
        </g>
      </g>
      <g>
        <path d="M10.39,74.25V25.75A26.64,26.64,0,0,1,30.24,0H0V100H30.24A26.66,26.66,0,0,1,10.39,74.25Z" opacity="0.2" style="isolation: isolate"/>
        <path d="M89.61,25.75V74.24A26.64,26.64,0,0,1,69.76,100H100V0H69.76A26.66,26.66,0,0,1,89.61,25.75Z" fill="#fff" opacity="0.1" style="isolation: isolate"/>
      </g>
    </g>
  </g>
</svg>
