<svg xmlns="http://www.w3.org/2000/svg" xmlns:xlink="http://www.w3.org/1999/xlink" width="100" height="100" viewBox="0 0 100 100">
  <defs>
    <clipPath id="a">
      <path d="M73.3,100H26.7A26.63,26.63,0,0,1,0,73.3V26.7A26.63,26.63,0,0,1,26.7,0H73.4A26.61,26.61,0,0,1,100,26.7V73.4A26.61,26.61,0,0,1,73.3,100Z" fill="none"/>
    </clipPath>
  </defs>
  <title>flag_oc_micro_micronesia</title>
  <g clip-path="url(#a)">
    <g>
      <g>
        <rect width="100" height="100" fill="#338af3"/>
        <g>
          <polygon points="50 25 51.91 30.88 58.09 30.88 53.09 34.51 55 40.38 50 36.75 45 40.38 46.91 34.51 41.91 30.88 48.09 30.88 50 25" fill="#f0f0f0"/>
          <polygon points="25 50 30.88 48.09 30.88 41.91 34.51 46.91 40.38 45 36.75 50 40.38 55 34.51 53.09 30.88 58.09 30.88 51.91 25 50" fill="#f0f0f0"/>
          <polygon points="50 75 48.09 69.12 41.91 69.12 46.91 65.49 45 59.62 50 63.25 55 59.62 53.09 65.49 58.09 69.12 51.91 69.12 50 75" fill="#f0f0f0"/>
          <polygon points="75 50 69.12 51.91 69.12 58.09 65.49 53.09 59.62 55 63.25 50 59.62 45 65.49 46.91 69.12 41.91 69.12 48.09 75 50" fill="#f0f0f0"/>
        </g>
      </g>
      <g>
        <path d="M10.39,74.25V25.75A26.64,26.64,0,0,1,30.24,0H0V100H30.24A26.66,26.66,0,0,1,10.39,74.25Z" opacity="0.2" style="isolation: isolate"/>
        <path d="M89.61,25.75V74.24A26.64,26.64,0,0,1,69.76,100H100V0H69.76A26.66,26.66,0,0,1,89.61,25.75Z" fill="#fff" opacity="0.1" style="isolation: isolate"/>
      </g>
    </g>
  </g>
</svg>
