<svg xmlns="http://www.w3.org/2000/svg" xmlns:xlink="http://www.w3.org/1999/xlink" width="100" height="100" viewBox="0 0 100 100">
  <defs>
    <clipPath id="a">
      <path d="M73.3,100H26.7A26.63,26.63,0,0,1,0,73.3V26.7A26.63,26.63,0,0,1,26.7,0H73.4A26.61,26.61,0,0,1,100,26.7V73.4A26.61,26.61,0,0,1,73.3,100Z" fill="none"/>
    </clipPath>
  </defs>
  <title>flag_as_se_cambodia</title>
  <g clip-path="url(#a)">
    <g>
      <g>
        <rect width="100" height="100" fill="#d80027"/>
        <g>
          <rect width="100" height="33.33" fill="#0052b4"/>
          <rect y="66.67" width="100" height="33.33" fill="#0052b4"/>
        </g>
        <polygon points="62.5 57.09 62.5 52.4 59.38 52.4 59.38 46.15 56.25 43.02 53.13 46.15 53.13 39.9 50 36.77 46.88 39.9 46.88 46.15 43.75 43.02 40.63 46.15 40.63 52.4 37.5 52.4 37.5 57.09 34.38 57.09 34.38 61.77 65.63 61.77 65.63 57.09 62.5 57.09" fill="#f0f0f0"/>
      </g>
      <g>
        <path d="M10.39,74.25V25.75A26.64,26.64,0,0,1,30.24,0H0V100H30.24A26.66,26.66,0,0,1,10.39,74.25Z" opacity="0.2" style="isolation: isolate"/>
        <path d="M89.61,25.75V74.24A26.64,26.64,0,0,1,69.76,100H100V0H69.76A26.66,26.66,0,0,1,89.61,25.75Z" fill="#fff" opacity="0.1" style="isolation: isolate"/>
      </g>
    </g>
  </g>
</svg>
