<svg xmlns="http://www.w3.org/2000/svg" xmlns:xlink="http://www.w3.org/1999/xlink" width="100" height="100" viewBox="0 0 100 100">
  <defs>
    <clipPath id="a">
      <path d="M73.3,100H26.7A26.63,26.63,0,0,1,0,73.3V26.7A26.63,26.63,0,0,1,26.7,0H73.4A26.61,26.61,0,0,1,100,26.7V73.4A26.61,26.61,0,0,1,73.3,100Z" fill="none"/>
    </clipPath>
  </defs>
  <title>flag_af_n_libya</title>
  <g clip-path="url(#a)">
    <g>
      <g>
        <rect width="100" height="100"/>
        <rect width="100" height="33.33" fill="#d80027"/>
        <rect y="66.67" width="100" height="33.33" fill="#496e2d"/>
        <g>
          <polygon points="56.78 44.67 59.17 47.97 63.04 46.71 60.65 50 63.04 53.3 59.17 52.04 56.77 55.33 56.78 51.26 52.91 50 56.78 48.74 56.78 44.67" fill="#f0f0f0"/>
          <path d="M50.26,58.23a8.23,8.23,0,1,1,0-16.46,8.05,8.05,0,0,1,3.91,1,10.13,10.13,0,1,0,0,14.48A8.05,8.05,0,0,1,50.26,58.23Z" fill="#f0f0f0"/>
        </g>
      </g>
      <g>
        <path d="M10.39,74.25V25.75A26.64,26.64,0,0,1,30.24,0H0V100H30.24A26.66,26.66,0,0,1,10.39,74.25Z" opacity="0.2" style="isolation: isolate"/>
        <path d="M89.61,25.75V74.24A26.64,26.64,0,0,1,69.76,100H100V0H69.76A26.66,26.66,0,0,1,89.61,25.75Z" fill="#fff" opacity="0.1" style="isolation: isolate"/>
      </g>
    </g>
  </g>
</svg>
