<svg xmlns="http://www.w3.org/2000/svg" xmlns:xlink="http://www.w3.org/1999/xlink" width="100" height="100" viewBox="0 0 100 100">
  <defs>
    <clipPath id="a">
      <path d="M73.3,100H26.7A26.63,26.63,0,0,1,0,73.3V26.7A26.63,26.63,0,0,1,26.7,0H73.4A26.61,26.61,0,0,1,100,26.7V73.4A26.61,26.61,0,0,1,73.3,100Z" fill="none"/>
    </clipPath>
  </defs>
  <title>flag_eu_s_montenegro</title>
  <g clip-path="url(#a)">
    <g>
      <g>
        <rect width="100" height="100" fill="#ffda44"/>
        <rect x="4.35" y="4.35" width="91.3" height="91.31" fill="#a2001d"/>
        <g>
          <polygon points="37.92 35.73 62.08 35.73 62.08 26.07 57.25 28.48 50 21.23 42.75 28.48 37.92 26.07 37.92 35.73" fill="#ffda44"/>
          <path d="M71.74,50.22H59.67a5.57,5.57,0,1,0-9.74-5.41,5.58,5.58,0,0,0-10.49,2.63,5.48,5.48,0,0,0,.75,2.78H28.26a6.88,6.88,0,0,0,6.91,6.69H35a6.69,6.69,0,0,0,4.78,6.41L34.3,68.75l5.12,5.12,7.27-7.26a6.74,6.74,0,0,0,.88.24l-4.39,9.92a18.15,18.15,0,0,0,13.64,0l-4.4-9.92a6.47,6.47,0,0,0,.89-.24l7.27,7.26,5.12-5.12-5.43-5.43a6.69,6.69,0,0,0,4.78-6.41h-.22A6.88,6.88,0,0,0,71.74,50.22Z" fill="#ffda44"/>
        </g>
        <polygon points="50 53.84 42.15 57.47 42.15 64.71 50 69.55 57.85 64.71 57.85 57.47 50 53.84" fill="#6da544"/>
        <rect x="42.15" y="50.22" width="15.7" height="9.66" fill="#0052b4"/>
      </g>
      <g>
        <path d="M10.39,74.25V25.75A26.64,26.64,0,0,1,30.24,0H0V100H30.24A26.66,26.66,0,0,1,10.39,74.25Z" opacity="0.2" style="isolation: isolate"/>
        <path d="M89.61,25.75V74.24A26.64,26.64,0,0,1,69.76,100H100V0H69.76A26.66,26.66,0,0,1,89.61,25.75Z" fill="#fff" opacity="0.1" style="isolation: isolate"/>
      </g>
    </g>
  </g>
</svg>
