<svg xmlns="http://www.w3.org/2000/svg" xmlns:xlink="http://www.w3.org/1999/xlink" width="100" height="100" viewBox="0 0 100 100">
  <defs>
    <clipPath id="a">
      <path d="M73.3,100H26.7A26.63,26.63,0,0,1,0,73.3V26.7A26.63,26.63,0,0,1,26.7,0H73.4A26.61,26.61,0,0,1,100,26.7V73.4A26.61,26.61,0,0,1,73.3,100Z" fill="none"/>
    </clipPath>
  </defs>
  <title>flag_af_n_sahrawi_arab_democratic_republic_or_western_sahara</title>
  <g clip-path="url(#a)">
    <g>
      <g>
        <rect width="100" height="100" fill="#f0f0f0"/>
        <rect width="100" height="33.33"/>
        <rect y="66.67" width="100" height="33.33" fill="#496e2d"/>
        <g>
          <polygon points="50 50 0 100 0 0 50 50" fill="#d80027"/>
          <path d="M69.15,50a11.71,11.71,0,0,1,9.19-11.43,11.4,11.4,0,0,0-2.5-.28,11.71,11.71,0,0,0,0,23.42,11.4,11.4,0,0,0,2.5-.28A11.71,11.71,0,0,1,69.15,50Z" fill="#d80027"/>
          <polygon points="78.84 42.48 80.5 47.59 85.87 47.59 81.52 50.74 83.18 55.85 78.84 52.7 74.49 55.85 76.15 50.74 71.8 47.59 77.18 47.59 78.84 42.48" fill="#d80027"/>
        </g>
      </g>
      <g>
        <path d="M10.39,74.25V25.75A26.64,26.64,0,0,1,30.24,0H0V100H30.24A26.66,26.66,0,0,1,10.39,74.25Z" opacity="0.2" style="isolation: isolate"/>
        <path d="M89.61,25.75V74.24A26.64,26.64,0,0,1,69.76,100H100V0H69.76A26.66,26.66,0,0,1,89.61,25.75Z" fill="#fff" opacity="0.1" style="isolation: isolate"/>
      </g>
    </g>
  </g>
</svg>
