<svg xmlns="http://www.w3.org/2000/svg" xmlns:xlink="http://www.w3.org/1999/xlink" width="100" height="100" viewBox="0 0 100 100">
  <defs>
    <clipPath id="a">
      <path d="M73.3,100H26.7A26.63,26.63,0,0,1,0,73.3V26.7A26.63,26.63,0,0,1,26.7,0H73.4A26.61,26.61,0,0,1,100,26.7V73.4A26.61,26.61,0,0,1,73.3,100Z" fill="none"/>
    </clipPath>
  </defs>
  <title>flag_as_w_georgia</title>
  <g clip-path="url(#a)">
    <g>
      <g>
        <rect width="100" height="100" fill="#f0f0f0"/>
        <g>
          <polygon points="25.36 18.12 25.36 10.87 18.12 10.87 18.12 18.12 10.87 18.12 10.87 25.36 18.12 25.36 18.12 32.61 25.36 32.61 25.36 25.36 32.61 25.36 32.61 18.12 25.36 18.12" fill="#d80027"/>
          <polygon points="81.88 18.12 81.88 10.87 74.64 10.87 74.64 18.12 67.39 18.12 67.39 25.36 74.64 25.36 74.64 32.61 81.88 32.61 81.88 25.36 89.13 25.36 89.13 18.12 81.88 18.12" fill="#d80027"/>
          <polygon points="25.36 74.64 25.36 67.39 18.12 67.39 18.12 74.64 10.87 74.64 10.87 81.88 18.12 81.88 18.12 89.13 25.36 89.13 25.36 81.88 32.61 81.88 32.61 74.64 25.36 74.64" fill="#d80027"/>
          <polygon points="81.88 74.64 81.88 67.39 74.64 67.39 74.64 74.64 67.39 74.64 67.39 81.88 74.64 81.88 74.64 89.13 81.88 89.13 81.88 81.88 89.13 81.88 89.13 74.64 81.88 74.64" fill="#d80027"/>
          <rect x="43.75" width="12.5" height="100" fill="#d80027"/>
          <rect y="43.75" width="100" height="12.5" fill="#d80027"/>
        </g>
      </g>
      <g>
        <path d="M10.39,74.25V25.75A26.64,26.64,0,0,1,30.24,0H0V100H30.24A26.66,26.66,0,0,1,10.39,74.25Z" opacity="0.2" style="isolation: isolate"/>
        <path d="M89.61,25.75V74.24A26.64,26.64,0,0,1,69.76,100H100V0H69.76A26.66,26.66,0,0,1,89.61,25.75Z" fill="#fff" opacity="0.1" style="isolation: isolate"/>
      </g>
    </g>
  </g>
</svg>
