<svg xmlns="http://www.w3.org/2000/svg" xmlns:xlink="http://www.w3.org/1999/xlink" width="100" height="100" viewBox="0 0 100 100">
  <defs>
    <clipPath id="a">
      <path d="M73.3,100H26.7A26.63,26.63,0,0,1,0,73.3V26.7A26.63,26.63,0,0,1,26.7,0H73.4A26.61,26.61,0,0,1,100,26.7V73.4A26.61,26.61,0,0,1,73.3,100Z" fill="none"/>
    </clipPath>
  </defs>
  <title>flag_na_cr_virgin_islands</title>
  <g clip-path="url(#a)">
    <g>
      <g>
        <rect width="100" height="100" fill="#f0f0f0"/>
        <g>
          <path d="M55.66,40a5.66,5.66,0,1,0-11.32,0H31.88a5.75,5.75,0,0,0,5.76,5.58h-.18A5.57,5.57,0,0,0,43,51.1a5.58,5.58,0,0,0,4.55,5.48l0,0h4.88l0,0A5.58,5.58,0,0,0,57,51.1a5.57,5.57,0,0,0,5.57-5.57h-.18A5.75,5.75,0,0,0,68.12,40Z" fill="#ffda44"/>
          <path d="M47.51,56,44,64a16,16,0,0,0,12,0L52.49,56Z" fill="#ffda44"/>
        </g>
        <path d="M42.75,42.74v9.75C42.75,58,50,59.74,50,59.74s7.25-1.7,7.25-7.25V42.74Z" fill="#f0f0f0"/>
        <g>
          <path d="M24.75,50.23l3.92,11,3.88-11h3l-5.66,14.5H27.48l-5.69-14.5Z" fill="#338af3"/>
          <path d="M70.29,64.73V50.23h2.82v14.5Z" fill="#338af3"/>
        </g>
        <g>
          <path d="M45.65,45.89V57.7a12.47,12.47,0,0,0,2.9,1.56V45.89Z" fill="#d80027"/>
          <path d="M54.35,45.89V57.7a12.47,12.47,0,0,1-2.9,1.56V45.89Z" fill="#d80027"/>
        </g>
        <rect x="42.75" y="42.74" width="14.49" height="4.6" fill="#0052b4"/>
      </g>
      <g>
        <path d="M10.39,74.25V25.75A26.64,26.64,0,0,1,30.24,0H0V100H30.24A26.66,26.66,0,0,1,10.39,74.25Z" opacity="0.2" style="isolation: isolate"/>
        <path d="M89.61,25.75V74.24A26.64,26.64,0,0,1,69.76,100H100V0H69.76A26.66,26.66,0,0,1,89.61,25.75Z" fill="#fff" opacity="0.1" style="isolation: isolate"/>
      </g>
    </g>
  </g>
</svg>
