<svg xmlns="http://www.w3.org/2000/svg" xmlns:xlink="http://www.w3.org/1999/xlink" width="100" height="100" viewBox="0 0 100 100">
  <defs>
    <clipPath id="a">
      <path d="M73.3,100H26.7A26.63,26.63,0,0,1,0,73.3V26.7A26.63,26.63,0,0,1,26.7,0H73.4A26.61,26.61,0,0,1,100,26.7V73.4A26.61,26.61,0,0,1,73.3,100Z" fill="none"/>
    </clipPath>
  </defs>
  <title>flag_as_w_iraq</title>
  <g clip-path="url(#a)">
    <g>
      <g>
        <rect width="100" height="100" fill="#f0f0f0"/>
        <rect width="100" height="33.33" fill="#a2001d"/>
        <rect y="66.67" width="100" height="33.33"/>
        <g>
          <path d="M40.65,47.41H33a3.44,3.44,0,0,1,3.33-2.58V39.65a8.64,8.64,0,0,0-8.62,8.63v4.31H40.65a.86.86,0,0,1,.87.86v1.72H24.28v5.18H46.69v-6.9A6,6,0,0,0,40.65,47.41Z" fill="#496e2d"/>
          <polygon points="53.59 55.17 53.59 39.66 48.41 39.66 48.41 60.34 57.03 60.34 57.03 55.17 53.59 55.17" fill="#496e2d"/>
          <polygon points="70.83 55.17 70.83 39.66 65.66 39.66 65.66 55.17 63.93 55.17 63.93 50 58.76 50 58.76 60.34 74.28 60.34 74.28 55.17 70.83 55.17" fill="#496e2d"/>
        </g>
      </g>
      <g>
        <path d="M10.39,74.25V25.75A26.64,26.64,0,0,1,30.24,0H0V100H30.24A26.66,26.66,0,0,1,10.39,74.25Z" opacity="0.2" style="isolation: isolate"/>
        <path d="M89.61,25.75V74.24A26.64,26.64,0,0,1,69.76,100H100V0H69.76A26.66,26.66,0,0,1,89.61,25.75Z" fill="#fff" opacity="0.1" style="isolation: isolate"/>
      </g>
    </g>
  </g>
</svg>
