<svg xmlns="http://www.w3.org/2000/svg" xmlns:xlink="http://www.w3.org/1999/xlink" width="100" height="100" viewBox="0 0 100 100">
  <defs>
    <clipPath id="a">
      <path d="M73.3,100H26.7A26.63,26.63,0,0,1,0,73.3V26.7A26.63,26.63,0,0,1,26.7,0H73.4A26.61,26.61,0,0,1,100,26.7V73.4A26.61,26.61,0,0,1,73.3,100Z" fill="none"/>
    </clipPath>
  </defs>
  <title>flag_oc_poly_american_samoa</title>
  <g clip-path="url(#a)">
    <g>
      <g>
        <rect width="100" height="99.18" fill="#0052b4"/>
        <polygon points="100 7.16 11.66 50.67 100 94.18 100 100 0 50.67 100 1.33 100 7.16" fill="#d80027"/>
        <polyline points="100 84.35 100 94.18 11.66 50.67 100 7.16 100 16.99" fill="#f0f0f0"/>
        <path d="M96.35,49.51H90.63a4.54,4.54,0,0,0-.28-6.11,4.56,4.56,0,0,0,0-6.43l-.11.11a4.67,4.67,0,0,0,.11-6.53L64.65,56.24a4.48,4.48,0,0,0,6.38,0l.49-.45,12.31-1.12v5.29H88V54.27l6.26-.57Z" fill="#a2001d"/>
        <polygon points="65.05 61.73 60.87 59.65 65.05 57.56 92.17 57.56 92.17 61.73 65.05 61.73" fill="#ffda44"/>
      </g>
      <g>
        <path d="M10.39,74.25V25.75A26.64,26.64,0,0,1,30.24,0H0V100H30.24A26.66,26.66,0,0,1,10.39,74.25Z" opacity="0.2" style="isolation: isolate"/>
        <path d="M89.61,25.75V74.24A26.64,26.64,0,0,1,69.76,100H100V0H69.76A26.66,26.66,0,0,1,89.61,25.75Z" fill="#fff" opacity="0.1" style="isolation: isolate"/>
      </g>
    </g>
  </g>
</svg>
