<svg xmlns="http://www.w3.org/2000/svg" xmlns:xlink="http://www.w3.org/1999/xlink" width="100" height="100" viewBox="0 0 100 100">
  <defs>
    <clipPath id="a">
      <path d="M73.3,100H26.7A26.63,26.63,0,0,1,0,73.3V26.7A26.63,26.63,0,0,1,26.7,0H73.4A26.61,26.61,0,0,1,100,26.7V73.4A26.61,26.61,0,0,1,73.3,100Z" fill="none"/>
    </clipPath>
  </defs>
  <title>flag_na_n_canada</title>
  <g clip-path="url(#a)">
    <g>
      <g>
        <rect width="100" height="100" fill="#f0f0f0"/>
        <g>
          <rect width="33.33" height="100" fill="#d80027"/>
          <rect x="66.67" width="33.33" height="100" fill="#d80027"/>
          <polygon points="57.61 55.48 65.22 51.68 61.41 49.77 61.41 45.97 53.8 49.77 57.61 42.16 53.8 42.16 50 36.46 46.2 42.16 42.39 42.16 46.2 49.77 38.59 45.97 38.59 49.77 34.78 51.68 42.39 55.48 40.49 59.28 48.1 59.28 48.1 64.99 51.9 64.99 51.9 59.28 59.51 59.28 57.61 55.48" fill="#d80027"/>
        </g>
      </g>
      <g>
        <path d="M10.39,74.25V25.75A26.64,26.64,0,0,1,30.24,0H0V100H30.24A26.66,26.66,0,0,1,10.39,74.25Z" opacity="0.2" style="isolation: isolate"/>
        <path d="M89.61,25.75V74.24A26.64,26.64,0,0,1,69.76,100H100V0H69.76A26.66,26.66,0,0,1,89.61,25.75Z" fill="#fff" opacity="0.1" style="isolation: isolate"/>
      </g>
    </g>
  </g>
</svg>
