<svg xmlns="http://www.w3.org/2000/svg" xmlns:xlink="http://www.w3.org/1999/xlink" width="100" height="100" viewBox="0 0 100 100">
  <defs>
    <clipPath id="a">
      <path d="M73.3,100H26.7A26.63,26.63,0,0,1,0,73.3V26.7A26.63,26.63,0,0,1,26.7,0H73.4A26.61,26.61,0,0,1,100,26.7V73.4A26.61,26.61,0,0,1,73.3,100Z" fill="none"/>
    </clipPath>
  </defs>
  <title>flag_as_c_tajikistan</title>
  <g clip-path="url(#a)">
    <g>
      <g>
        <rect width="100" height="100" fill="#f0f0f0"/>
        <rect width="100" height="33.33" fill="#d80027"/>
        <rect y="66.67" width="100" height="33.33" fill="#6da544"/>
        <g>
          <polygon points="41.65 62.68 58.35 62.68 58.35 55.59 55.01 57.26 50 52.25 44.99 57.26 41.65 55.59 41.65 62.68" fill="#ffda44"/>
          <polygon points="32.1 54.33 32.88 56.73 35.39 56.73 33.36 58.2 34.13 60.59 32.1 59.12 30.07 60.59 30.84 58.2 28.81 56.73 31.32 56.73 32.1 54.33" fill="#ffda44"/>
          <polygon points="34.51 45.98 35.29 48.38 37.8 48.38 35.77 49.85 36.54 52.25 34.51 50.77 32.48 52.25 33.25 49.85 31.22 48.38 33.73 48.38 34.51 45.98" fill="#ffda44"/>
          <polygon points="41.4 39.73 42.17 42.12 44.69 42.12 42.65 43.59 43.43 45.98 41.4 44.51 39.36 45.98 40.14 43.59 38.1 42.12 40.62 42.12 41.4 39.73" fill="#ffda44"/>
          <polygon points="67.9 54.33 67.12 56.73 64.61 56.73 66.64 58.2 65.87 60.59 67.9 59.12 69.93 60.59 69.16 58.2 71.19 56.73 68.68 56.73 67.9 54.33" fill="#ffda44"/>
          <polygon points="65.49 45.98 64.71 48.38 62.2 48.38 64.23 49.85 63.46 52.25 65.49 50.77 67.53 52.25 66.75 49.85 68.78 48.38 66.27 48.38 65.49 45.98" fill="#ffda44"/>
          <polygon points="58.6 39.73 57.83 42.12 55.31 42.12 57.35 43.59 56.57 45.98 58.6 44.51 60.64 45.98 59.86 43.59 61.9 42.12 59.38 42.12 58.6 39.73" fill="#ffda44"/>
          <polygon points="50 36.59 50.78 38.98 53.29 38.98 51.26 40.46 52.03 42.85 50 41.38 47.97 42.85 48.74 40.46 46.71 38.98 49.22 38.98 50 36.59" fill="#ffda44"/>
        </g>
      </g>
      <g>
        <path d="M10.39,74.25V25.75A26.64,26.64,0,0,1,30.24,0H0V100H30.24A26.66,26.66,0,0,1,10.39,74.25Z" opacity="0.2" style="isolation: isolate"/>
        <path d="M89.61,25.75V74.24A26.64,26.64,0,0,1,69.76,100H100V0H69.76A26.66,26.66,0,0,1,89.61,25.75Z" fill="#fff" opacity="0.1" style="isolation: isolate"/>
      </g>
    </g>
  </g>
</svg>
