<svg xmlns="http://www.w3.org/2000/svg" xmlns:xlink="http://www.w3.org/1999/xlink" width="100" height="100" viewBox="0 0 100 100">
  <defs>
    <clipPath id="a">
      <path d="M73.3,100H26.7A26.63,26.63,0,0,1,0,73.3V26.7A26.63,26.63,0,0,1,26.7,0H73.4A26.61,26.61,0,0,1,100,26.7V73.4A26.61,26.61,0,0,1,73.3,100Z" fill="none"/>
    </clipPath>
  </defs>
  <title>flag_eu_n_united_kingdom</title>
  <g clip-path="url(#a)">
    <g>
      <g>
        <rect width="100" height="100" fill="#f0f0f0"/>
        <polygon points="0 59.38 40.63 59.38 40.63 100 59.38 100 59.38 59.38 100 59.38 100 40.63 59.38 40.63 59.38 0 40.63 0 40.63 40.63 0 40.63 0 59.38" fill="#d80027"/>
        <g>
          <polygon points="79.48 65.22 100 85.74 100 65.22 79.48 65.22" fill="#0052b4"/>
          <polygon points="65.22 65.22 100 100 100 90.16 75.05 65.22 65.22 65.22" fill="#0052b4"/>
          <polygon points="90.73 100 65.22 74.48 65.22 100 90.73 100" fill="#0052b4"/>
        </g>
        <polygon points="65.22 65.22 100 100 100 90.16 75.05 65.22 65.22 65.22" fill="#f0f0f0"/>
        <polygon points="65.22 65.22 100 100 100 90.16 75.05 65.22 65.22 65.22" fill="#d80027"/>
        <g>
          <polygon points="15.68 65.22 0 80.9 0 65.22 15.68 65.22" fill="#0052b4"/>
          <polygon points="34.78 69.64 34.78 100 4.42 100 34.78 69.64" fill="#0052b4"/>
        </g>
        <polygon points="24.95 65.22 0 90.16 0 100 0 100 34.78 65.22 24.95 65.22" fill="#d80027"/>
        <g>
          <polygon points="20.52 34.78 0 14.26 0 34.78 20.52 34.78" fill="#0052b4"/>
          <polygon points="34.78 34.78 0 0 0 9.84 24.95 34.78 34.78 34.78" fill="#0052b4"/>
          <polygon points="9.27 0 34.78 25.52 34.78 0 9.27 0" fill="#0052b4"/>
        </g>
        <polygon points="34.78 34.78 0 0 0 9.84 24.95 34.78 34.78 34.78" fill="#f0f0f0"/>
        <polygon points="34.78 34.78 0 0 0 9.84 24.95 34.78 34.78 34.78" fill="#d80027"/>
        <g>
          <polygon points="84.32 34.78 100 19.1 100 34.78 84.32 34.78" fill="#0052b4"/>
          <polygon points="65.22 30.36 65.22 0 95.58 0 65.22 30.36" fill="#0052b4"/>
        </g>
        <polygon points="75.05 34.78 100 9.84 100 0 100 0 65.22 34.78 75.05 34.78" fill="#d80027"/>
      </g>
      <g>
        <path d="M10.39,74.25V25.75A26.64,26.64,0,0,1,30.24,0H0V100H30.24A26.66,26.66,0,0,1,10.39,74.25Z" opacity="0.2" style="isolation: isolate"/>
        <path d="M89.61,25.75V74.24A26.64,26.64,0,0,1,69.76,100H100V0H69.76A26.66,26.66,0,0,1,89.61,25.75Z" fill="#fff" opacity="0.1" style="isolation: isolate"/>
      </g>
    </g>
  </g>
</svg>
