<svg xmlns="http://www.w3.org/2000/svg" xmlns:xlink="http://www.w3.org/1999/xlink" width="100" height="100" viewBox="0 0 100 100">
  <defs>
    <clipPath id="a">
      <path d="M73.3,100H26.7A26.63,26.63,0,0,1,0,73.3V26.7A26.63,26.63,0,0,1,26.7,0H73.4A26.61,26.61,0,0,1,100,26.7V73.4A26.61,26.61,0,0,1,73.3,100Z" fill="none"/>
    </clipPath>
  </defs>
  <title>flag_oc_melan_vanuatu</title>
  <g clip-path="url(#a)">
    <g>
      <g>
        <rect width="100" height="100"/>
        <polygon points="100 50 100 100 0 100 42.03 50 100 50" fill="#6da544"/>
        <polygon points="100 0 100 50 42.03 50 0 0 100 0" fill="#d80027"/>
        <polygon points="43.16 45.11 5.25 0 1.75 0 42.41 48.37 100 48.37 100 45.11 43.16 45.11"/>
        <polygon points="1.75 100 5.25 100 43.16 54.89 100 54.89 100 51.63 42.41 51.63 1.75 100"/>
        <polygon points="0 2.08 0 6.24 36.78 50 0 93.76 0 97.92 40.28 50 0 2.08"/>
        <g>
          <polygon points="1.75 0 0 0 0 2.08 40.28 50 0 97.92 0 100 1.75 100 42.41 51.63 100 51.63 100 48.37 42.41 48.37 1.75 0" fill="#ffda44"/>
          <path d="M10.89,62.5V57.59a8.9,8.9,0,0,0,8.89-8.89,6.29,6.29,0,0,0-6.29-6.29A4.29,4.29,0,0,0,9.21,46.7,2.74,2.74,0,0,0,12,49.44a1.55,1.55,0,0,0,1.54-1.55h4.92A6.47,6.47,0,0,1,12,54.35,7.67,7.67,0,0,1,4.29,46.7a9.21,9.21,0,0,1,9.2-9.2,11.21,11.21,0,0,1,11.2,11.2A13.81,13.81,0,0,1,10.89,62.5Z" fill="#ffda44"/>
        </g>
      </g>
      <g>
        <path d="M10.39,74.25V25.75A26.64,26.64,0,0,1,30.24,0H0V100H30.24A26.66,26.66,0,0,1,10.39,74.25Z" opacity="0.2" style="isolation: isolate"/>
        <path d="M89.61,25.75V74.24A26.64,26.64,0,0,1,69.76,100H100V0H69.76A26.66,26.66,0,0,1,89.61,25.75Z" fill="#fff" opacity="0.1" style="isolation: isolate"/>
      </g>
    </g>
  </g>
</svg>
