<svg xmlns="http://www.w3.org/2000/svg" xmlns:xlink="http://www.w3.org/1999/xlink" width="100" height="100" viewBox="0 0 100 100">
  <defs>
    <clipPath id="a">
      <path d="M73.3,100H26.7A26.63,26.63,0,0,1,0,73.3V26.7A26.63,26.63,0,0,1,26.7,0H73.4A26.61,26.61,0,0,1,100,26.7V73.4A26.61,26.61,0,0,1,73.3,100Z" fill="none"/>
    </clipPath>
  </defs>
  <title>flag_na_cr_martinique</title>
  <g clip-path="url(#a)">
    <g>
      <g>
        <rect width="100" height="100" fill="#0052b4"/>
        <g>
          <polygon points="100 45.65 100 54.35 54.35 54.35 54.35 83.33 45.65 83.33 45.65 54.35 0 54.35 0 45.65 45.65 45.65 45.65 16.67 54.35 16.67 54.35 45.65 100 45.65" fill="#f0f0f0"/>
          <polygon points="54.35 0 45.65 0 45.65 45.65 0 45.65 0 54.35 45.65 54.35 45.65 100 54.35 100 54.35 54.35 100 54.35 100 45.65 54.35 45.65 54.35 0" fill="#f0f0f0"/>
          <path d="M75,27A1.06,1.06,0,0,1,76,26H78.3A6.48,6.48,0,1,0,78.3,13H76.16a4.44,4.44,0,0,0-2.68-.85c-2.16,0-3.91,1.4-3.91,3.13s1.71,3.1,3.85,3.13H78.3a1.06,1.06,0,1,1,0,2.11H76a6.48,6.48,0,0,0,0,13h8.74V28.07H76A1,1,0,0,1,75,27Z" fill="#f0f0f0"/>
          <path d="M20.64,27A1.06,1.06,0,0,1,21.7,26H24A6.48,6.48,0,0,0,24,13H21.81a4.44,4.44,0,0,0-2.68-.85c-2.16,0-3.91,1.4-3.91,3.13s1.72,3.1,3.85,3.13H24a1.06,1.06,0,0,1,0,2.11H21.7a6.48,6.48,0,1,0,0,13h8.73V28.07H21.7A1.05,1.05,0,0,1,20.64,27Z" fill="#f0f0f0"/>
          <path d="M75,81.37A1.05,1.05,0,0,1,76,80.31H78.3a6.48,6.48,0,0,0,0-13H76.16a4.51,4.51,0,0,0-2.68-.85c-2.16,0-3.91,1.41-3.91,3.14s1.71,3.1,3.85,3.13H78.3a1.06,1.06,0,1,1,0,2.11H76a6.48,6.48,0,0,0,0,13h8.74V82.42H76A1,1,0,0,1,75,81.37Z" fill="#f0f0f0"/>
          <path d="M20.64,81.37a1.05,1.05,0,0,1,1.06-1.06H24a6.48,6.48,0,0,0,0-13H21.81a4.51,4.51,0,0,0-2.68-.85c-2.16,0-3.91,1.41-3.91,3.14s1.72,3.1,3.85,3.13H24a1.06,1.06,0,0,1,0,2.11H21.7a6.48,6.48,0,1,0,0,13h8.73V82.42H21.7A1.05,1.05,0,0,1,20.64,81.37Z" fill="#f0f0f0"/>
        </g>
      </g>
      <g>
        <path d="M10.39,74.25V25.75A26.64,26.64,0,0,1,30.24,0H0V100H30.24A26.66,26.66,0,0,1,10.39,74.25Z" opacity="0.2" style="isolation: isolate"/>
        <path d="M89.61,25.75V74.24A26.64,26.64,0,0,1,69.76,100H100V0H69.76A26.66,26.66,0,0,1,89.61,25.75Z" fill="#fff" opacity="0.1" style="isolation: isolate"/>
      </g>
    </g>
  </g>
</svg>
