<svg xmlns="http://www.w3.org/2000/svg" xmlns:xlink="http://www.w3.org/1999/xlink" width="100" height="100" viewBox="0 0 100 100">
  <defs>
    <clipPath id="a">
      <path d="M73.3,100H26.7A26.63,26.63,0,0,1,0,73.3V26.7A26.63,26.63,0,0,1,26.7,0H73.4A26.61,26.61,0,0,1,100,26.7V73.4A26.61,26.61,0,0,1,73.3,100Z" fill="none"/>
    </clipPath>
  </defs>
  <title>flag_af_e_zimbabwe</title>
  <g clip-path="url(#a)">
    <g>
      <g>
        <rect width="100" height="100"/>
        <g>
          <rect y="14.32" width="100" height="14.32" fill="#ffda44"/>
          <rect y="71.58" width="100" height="14.32" fill="#ffda44"/>
        </g>
        <rect width="100" height="14.32" fill="#6da544"/>
        <g>
          <rect y="28.63" width="100" height="14.32" fill="#d80027"/>
          <rect y="57.27" width="100" height="14.32" fill="#d80027"/>
        </g>
        <rect y="85.9" width="100" height="14.1" fill="#6da544"/>
        <polygon points="54.1 50 20.77 100 0 100 0 0 20.77 0 54.1 50" fill="#f0f0f0"/>
        <polygon points="50 50 16.67 100 20.77 100 54.1 50 20.77 0 16.67 0 50 50"/>
        <polygon points="20.01 33.46 24.12 46.09 37.4 46.09 26.66 53.9 30.76 66.54 20.01 58.73 9.26 66.54 13.37 53.9 2.62 46.09 15.91 46.09 20.01 33.46" fill="#d80027"/>
        <path d="M31.3,51,20.61,47.24s-.79-7.41-.84-7.66a4.14,4.14,0,0,0-8.2.77,4.34,4.34,0,0,0,.15,1.09l-3,3h5.33c0,5.54-4.13,5.54-4.13,11L12.22,61H26l2.3-5.52h0a5.26,5.26,0,0,0,.43-1.62A4.78,4.78,0,0,0,31.3,51Z" fill="#ffda44"/>
      </g>
      <g>
        <path d="M10.39,74.25V25.75A26.64,26.64,0,0,1,30.24,0H0V100H30.24A26.66,26.66,0,0,1,10.39,74.25Z" opacity="0.2" style="isolation: isolate"/>
        <path d="M89.61,25.75V74.24A26.64,26.64,0,0,1,69.76,100H100V0H69.76A26.66,26.66,0,0,1,89.61,25.75Z" fill="#fff" opacity="0.1" style="isolation: isolate"/>
      </g>
    </g>
  </g>
</svg>
