<svg xmlns="http://www.w3.org/2000/svg" xmlns:xlink="http://www.w3.org/1999/xlink" width="100" height="100" viewBox="0 0 100 100">
  <defs>
    <clipPath id="a">
      <path d="M73.3,100H26.7A26.63,26.63,0,0,1,0,73.3V26.7A26.63,26.63,0,0,1,26.7,0H73.4A26.61,26.61,0,0,1,100,26.7V73.4A26.61,26.61,0,0,1,73.3,100Z" fill="none"/>
    </clipPath>
  </defs>
  <title>flag_as_w_syria</title>
  <g clip-path="url(#a)">
    <g>
      <g>
        <rect width="100" height="100" fill="#f0f0f0"/>
        <rect width="100" height="33.33" fill="#d80027"/>
        <rect y="66.67" width="100" height="33.33"/>
        <g>
          <polygon points="31.58 38.94 34.15 46.84 42.45 46.84 35.73 51.72 38.3 59.61 31.58 54.73 24.86 59.61 27.43 51.72 20.71 46.84 29.02 46.84 31.58 38.94" fill="#6da544"/>
          <polygon points="68.42 38.94 70.98 46.84 79.29 46.84 72.57 51.72 75.14 59.61 68.42 54.73 61.7 59.61 64.27 51.72 57.55 46.84 65.85 46.84 68.42 38.94" fill="#6da544"/>
        </g>
      </g>
      <g>
        <path d="M10.39,74.25V25.75A26.64,26.64,0,0,1,30.24,0H0V100H30.24A26.66,26.66,0,0,1,10.39,74.25Z" opacity="0.2" style="isolation: isolate"/>
        <path d="M89.61,25.75V74.24A26.64,26.64,0,0,1,69.76,100H100V0H69.76A26.66,26.66,0,0,1,89.61,25.75Z" fill="#fff" opacity="0.1" style="isolation: isolate"/>
      </g>
    </g>
  </g>
</svg>
