<svg xmlns="http://www.w3.org/2000/svg" xmlns:xlink="http://www.w3.org/1999/xlink" width="100" height="100" viewBox="0 0 100 100">
  <defs>
    <clipPath id="a">
      <path d="M73.3,100H26.7A26.63,26.63,0,0,1,0,73.3V26.7A26.63,26.63,0,0,1,26.7,0H73.4A26.61,26.61,0,0,1,100,26.7V73.4A26.61,26.61,0,0,1,73.3,100Z" fill="none"/>
    </clipPath>
  </defs>
  <title>flag_oc_poly_tokelau</title>
  <g clip-path="url(#a)">
    <g>
      <g>
        <rect width="100" height="100" fill="#0052b4"/>
        <g>
          <polygon points="41.16 34.06 41.88 36.27 44.2 36.27 42.32 37.64 43.04 39.85 41.16 38.49 39.27 39.85 39.99 37.64 38.11 36.27 40.44 36.27 41.16 34.06" fill="#f0f0f0"/>
          <polygon points="22.82 55.07 23.71 57.84 26.63 57.84 24.27 59.55 25.17 62.32 22.82 60.61 20.46 62.32 21.36 59.55 19.01 57.84 21.92 57.84 22.82 55.07" fill="#f0f0f0"/>
          <polygon points="28.26 23.38 29.16 26.14 32.07 26.14 29.72 27.85 30.61 30.62 28.26 28.91 25.91 30.62 26.81 27.85 24.45 26.14 27.36 26.14 28.26 23.38" fill="#f0f0f0"/>
          <polygon points="13.58 34.24 14.48 37.01 17.39 37.01 15.04 38.72 15.94 41.49 13.58 39.78 11.23 41.49 12.13 38.72 9.77 37.01 12.68 37.01 13.58 34.24" fill="#f0f0f0"/>
        </g>
        <g>
          <path d="M94.41,69.24H23s21.33-17.3,60.66-43.15C83.67,26.09,66.4,51.27,94.41,69.24Z" fill="#ffda44"/>
          <path d="M23,71.5a1.7,1.7,0,0,0,0,3.39h71.4a1.7,1.7,0,0,0,0-3.39Z" fill="#ffda44"/>
        </g>
      </g>
      <g>
        <path d="M10.39,74.25V25.75A26.64,26.64,0,0,1,30.24,0H0V100H30.24A26.66,26.66,0,0,1,10.39,74.25Z" opacity="0.2" style="isolation: isolate"/>
        <path d="M89.61,25.75V74.24A26.64,26.64,0,0,1,69.76,100H100V0H69.76A26.66,26.66,0,0,1,89.61,25.75Z" fill="#fff" opacity="0.1" style="isolation: isolate"/>
      </g>
    </g>
  </g>
</svg>
