<svg xmlns="http://www.w3.org/2000/svg" xmlns:xlink="http://www.w3.org/1999/xlink" width="100" height="100" viewBox="0 0 100 100">
  <defs>
    <clipPath id="a">
      <path d="M73.3,100H26.7A26.63,26.63,0,0,1,0,73.3V26.7A26.63,26.63,0,0,1,26.7,0H73.4A26.61,26.61,0,0,1,100,26.7V73.4A26.61,26.61,0,0,1,73.3,100Z" fill="none"/>
    </clipPath>
  </defs>
  <title>flag_oc_melan_solomon_islands</title>
  <g clip-path="url(#a)">
    <g>
      <g>
        <rect width="100" height="100" fill="#496e2d"/>
        <polyline points="0 100 0 0 100 0" fill="#0052b4"/>
        <polygon points="0 91.16 0 100 8.84 100 100 8.84 100 0 91.16 0 0 91.16" fill="#ffda44"/>
        <g>
          <polygon points="12.6 6.87 14.1 11.49 18.96 11.49 15.03 14.34 16.53 18.96 12.6 16.1 8.68 18.96 10.18 14.34 6.25 11.49 11.1 11.49 12.6 6.87" fill="#f0f0f0"/>
          <polygon points="37.4 6.87 38.9 11.49 43.75 11.49 39.82 14.34 41.32 18.96 37.4 16.1 33.47 18.96 34.97 14.34 31.04 11.49 35.9 11.49 37.4 6.87" fill="#f0f0f0"/>
          <polygon points="12.6 31.04 14.1 35.66 18.96 35.66 15.03 38.51 16.53 43.13 12.6 40.27 8.68 43.13 10.18 38.51 6.25 35.66 11.1 35.66 12.6 31.04" fill="#f0f0f0"/>
          <polygon points="37.4 31.04 38.9 35.66 43.75 35.66 39.82 38.51 41.32 43.13 37.4 40.27 33.47 43.13 34.97 38.51 31.04 35.66 35.9 35.66 37.4 31.04" fill="#f0f0f0"/>
          <polygon points="25 18.96 26.5 23.57 31.35 23.57 27.43 26.43 28.93 31.04 25 28.19 21.07 31.04 22.57 26.43 18.65 23.57 23.5 23.57 25 18.96" fill="#f0f0f0"/>
        </g>
      </g>
      <g>
        <path d="M10.39,74.25V25.75A26.64,26.64,0,0,1,30.24,0H0V100H30.24A26.66,26.66,0,0,1,10.39,74.25Z" opacity="0.2" style="isolation: isolate"/>
        <path d="M89.61,25.75V74.24A26.64,26.64,0,0,1,69.76,100H100V0H69.76A26.66,26.66,0,0,1,89.61,25.75Z" fill="#fff" opacity="0.1" style="isolation: isolate"/>
      </g>
    </g>
  </g>
</svg>
