<?xml version="1.0" encoding="utf-8"?>
<!-- Generator: Adobe Illustrator 23.0.0, SVG Export Plug-In . SVG Version: 6.00 Build 0)  -->
<svg version="1.0" id="Layer_1" xmlns="http://www.w3.org/2000/svg" xmlns:xlink="http://www.w3.org/1999/xlink" x="0px" y="0px"
	 width="100px" height="100px" viewBox="0 0 100 100" enable-background="new 0 0 100 100" xml:space="preserve">
<g>
	<defs>
		<path id="SVGID_1_" d="M73.3,100H26.7C12,100,0,88.1,0,73.4v-0.1V26.7C0,12,11.9,0,26.6,0h0.1h46.7C88.1,0,100,11.9,100,26.6v0.1
			v46.7C100,88.1,88.1,100,73.3,100C73.4,100,73.3,100,73.3,100z"/>
	</defs>
	<clipPath id="SVGID_2_">
		<use xlink:href="#SVGID_1_"  overflow="visible"/>
	</clipPath>
	<g clip-path="url(#SVGID_2_)">
		<path fill="#FFFFFF" d="M73.3,100H26.7C12,100,0,88.1,0,73.4v-0.1V26.7C0,12,11.9,0,26.6,0h0.1h46.7C88.1,0,100,11.9,100,26.6v0.1
			v46.7C100,88.1,88.1,100,73.3,100C73.4,100,73.3,100,73.3,100z"/>
		<rect fill="#338AF3" width="100" height="33.3"/>
		<rect y="66.7" fill="#338AF3" width="100" height="33.3"/>
		<polygon fill="#338AF3" points="35.6,35.9 37,40.4 41.8,40.4 38,43.3 39.4,47.8 35.6,45 31.7,47.8 33.2,43.3 29.3,40.4 34.1,40.4 
					"/>
		<polygon fill="#338AF3" points="35.6,52.2 37,56.8 41.8,56.8 38,59.6 39.4,64.1 35.6,61.3 31.7,64.1 33.2,59.6 29.3,56.8 
			34.1,56.8 		"/>
		<polygon fill="#338AF3" points="64.4,35.9 65.9,40.4 70.7,40.4 66.8,43.3 68.3,47.8 64.4,45 60.6,47.8 62,43.3 58.2,40.4 63,40.4 
					"/>
		<polygon fill="#338AF3" points="64.4,52.2 65.9,56.8 70.7,56.8 66.8,59.6 68.3,64.1 64.4,61.3 60.6,64.1 62,59.6 58.2,56.8 
			63,56.8 		"/>
		<polygon fill="#338AF3" points="50,44.1 51.5,48.6 56.3,48.6 52.4,51.4 53.9,55.9 50,53.1 46.1,55.9 47.6,51.4 43.8,48.6 
			48.5,48.6 		"/>
		<path opacity="0.2" enable-background="new    " d="M10.4,74.3V25.8c0-12.1,8.2-22.7,19.8-25.8H0v100h30.2
			C18.5,96.9,10.4,86.3,10.4,74.3z"/>
		<path opacity="0.1" fill="#FFFFFF" enable-background="new    " d="M89.6,25.8v48.5c0,12.1-8.2,22.7-19.8,25.8H100V0H69.8
			C81.5,3.1,89.6,13.7,89.6,25.8z"/>
	</g>
</g>
</svg>
