<svg xmlns="http://www.w3.org/2000/svg" xmlns:xlink="http://www.w3.org/1999/xlink" width="100" height="100" viewBox="0 0 100 100">
  <defs>
    <clipPath id="a">
      <path d="M73.3,100H26.7A26.63,26.63,0,0,1,0,73.3V26.7A26.63,26.63,0,0,1,26.7,0H73.4A26.61,26.61,0,0,1,100,26.7V73.4A26.61,26.61,0,0,1,73.3,100Z" fill="none"/>
    </clipPath>
  </defs>
  <title>flag_eu_s_andorra</title>
  <g clip-path="url(#a)">
    <g>
      <g>
        <rect width="100" height="100" fill="#ffda44"/>
        <rect width="33.33" height="100" fill="#0052b4"/>
        <g>
          <rect x="66.67" width="33.33" height="100" fill="#d80027"/>
          <path d="M50,62.86v-13h9.78v4.89c0,.85-1.63,4-5.65,6.52A16.56,16.56,0,0,1,50,62.86Z" fill="#d80027"/>
          <rect x="40.22" y="40.04" width="9.78" height="9.78" fill="#d80027"/>
        </g>
        <path d="M54.89,36.78a3.26,3.26,0,0,0-3.26-3.27A3.34,3.34,0,0,0,50,34a3.34,3.34,0,0,0-1.63-.44,3.26,3.26,0,0,0-3.26,3.27H37v16.3c0,6.07,4.82,9.58,8.6,11.4a3.15,3.15,0,0,0-.45,1.64A3.26,3.26,0,0,0,50,68.94a3.26,3.26,0,0,0,4.89-2.82,3.15,3.15,0,0,0-.45-1.64c3.78-1.82,8.6-5.33,8.6-11.4V36.78Zm3.26,16.3c0,.85,0,3.43-4,6A19.82,19.82,0,0,1,50,61a19.82,19.82,0,0,1-4.13-2c-4-2.55-4-5.14-4-6V41.67h16.3V53.08Z" fill="#ff9811"/>
      </g>
      <g>
        <path d="M10.39,74.25V25.75A26.64,26.64,0,0,1,30.24,0H0V100H30.24A26.66,26.66,0,0,1,10.39,74.25Z" opacity="0.2" style="isolation: isolate"/>
        <path d="M89.61,25.75V74.24A26.64,26.64,0,0,1,69.76,100H100V0H69.76A26.66,26.66,0,0,1,89.61,25.75Z" fill="#fff" opacity="0.1" style="isolation: isolate"/>
      </g>
    </g>
  </g>
</svg>
