<svg xmlns="http://www.w3.org/2000/svg" xmlns:xlink="http://www.w3.org/1999/xlink" width="100" height="100" viewBox="0 0 100 100">
  <defs>
    <clipPath id="a">
      <path d="M73.3,100H26.7A26.63,26.63,0,0,1,0,73.3V26.7A26.63,26.63,0,0,1,26.7,0H73.4A26.61,26.61,0,0,1,100,26.7V73.4A26.61,26.61,0,0,1,73.3,100Z" fill="none"/>
    </clipPath>
  </defs>
  <title>flag_na_cr_anguilla</title>
  <g clip-path="url(#a)">
    <g>
      <g>
        <rect width="100" height="100" fill="#2e52b2"/>
        <path d="M83.55,57.78a8.18,8.18,0,0,0,1.59-4.88V38.41A7.26,7.26,0,0,1,75,37a7.28,7.28,0,0,1-10.15,1.45V52.9a8.12,8.12,0,0,0,1.6,4.88Z" fill="#f3f3f3"/>
        <g>
          <path d="M80.53,50.21a11.9,11.9,0,0,0,.82-3.59c0-1.32-1.71-2.38-1.71-2.38s-1.72,1.06-1.72,2.38a11.9,11.9,0,0,0,.82,3.59l-1,2.24a5.12,5.12,0,0,0,3.77,0Z" fill="#ff9811"/>
          <path d="M73.83,43a11.7,11.7,0,0,0-3.52,1.09c-1.14.65-1.21,2.67-1.21,2.67s1.78,1,2.92.3a11.84,11.84,0,0,0,2.7-2.51l2.43-.26a5,5,0,0,0-.62-1.82A5.19,5.19,0,0,0,75.27,41Z" fill="#ff9811"/>
          <path d="M70.91,52.4a11.77,11.77,0,0,0,2.7,2.5c1.14.66,2.92-.29,2.92-.29s-.07-2-1.21-2.68a11.71,11.71,0,0,0-3.52-1.08l-1.44-2a5.21,5.21,0,0,0-1.26,1.45,4.92,4.92,0,0,0-.62,1.82Z" fill="#ff9811"/>
        </g>
        <path d="M66.09,57.25C68.8,61.59,75,63,75,63s6.2-1.45,8.9-5.79Z" fill="#338af3"/>
        <polygon points="50 0 50 9.55 42.16 17.39 50 17.39 50 32.61 39.74 32.61 50 42.87 50 50 45.37 50 32.61 37.24 32.61 50 17.39 50 17.39 34.82 2.21 50 0 50 0 40.45 7.84 32.61 0 32.61 0 17.39 10.26 17.39 0 7.13 0 0 4.63 0 17.39 12.76 17.39 0 32.61 0 32.61 15.18 47.79 0 50 0" fill="#f0f0f0"/>
        <polygon points="0 29.69 20.31 29.69 20.31 50 29.69 50 29.69 29.69 50 29.69 50 20.31 29.69 20.31 29.69 0 20.31 0 20.31 20.31 0 20.31 0 29.69" fill="#d80027"/>
        <polygon points="32.61 32.61 50 50 50 45.08 37.53 32.61 32.61 32.61" fill="#0052b4"/>
        <polygon points="32.61 32.61 50 50 50 45.08 37.53 32.61 32.61 32.61" fill="#f0f0f0"/>
        <g>
          <polygon points="32.61 32.61 50 50 50 45.08 37.53 32.61 32.61 32.61" fill="#d80027"/>
          <polygon points="12.47 32.61 0 45.08 0 50 0 50 17.39 32.61 12.47 32.61" fill="#d80027"/>
        </g>
        <polygon points="17.39 17.39 0 0 0 4.92 12.47 17.39 17.39 17.39" fill="#0052b4"/>
        <polygon points="17.39 17.39 0 0 0 4.92 12.47 17.39 17.39 17.39" fill="#f0f0f0"/>
        <g>
          <polygon points="17.39 17.39 0 0 0 4.92 12.47 17.39 17.39 17.39" fill="#d80027"/>
          <polygon points="37.53 17.39 50 4.92 50 0 50 0 32.61 17.39 37.53 17.39" fill="#d80027"/>
        </g>
      </g>
      <g>
        <path d="M10.39,74.25V25.75A26.64,26.64,0,0,1,30.24,0H0V100H30.24A26.66,26.66,0,0,1,10.39,74.25Z" opacity="0.2" style="isolation: isolate"/>
        <path d="M89.61,25.75V74.24A26.64,26.64,0,0,1,69.76,100H100V0H69.76A26.66,26.66,0,0,1,89.61,25.75Z" fill="#fff" opacity="0.1" style="isolation: isolate"/>
      </g>
    </g>
  </g>
</svg>
