<svg xmlns="http://www.w3.org/2000/svg" xmlns:xlink="http://www.w3.org/1999/xlink" width="100" height="100" viewBox="0 0 100 100">
  <defs>
    <clipPath id="a">
      <path d="M73.3,100H26.7A26.63,26.63,0,0,1,0,73.3V26.7A26.63,26.63,0,0,1,26.7,0H73.4A26.61,26.61,0,0,1,100,26.7V73.4A26.61,26.61,0,0,1,73.3,100Z" fill="none"/>
    </clipPath>
  </defs>
  <title>flag_af_e_kenya</title>
  <g clip-path="url(#a)">
    <g>
      <g>
        <rect width="100" height="100" fill="#f0f0f0"/>
        <rect width="100" height="26.54"/>
        <rect y="73.47" width="100" height="26.53" fill="#496e2d"/>
        <rect y="33.18" width="100" height="33.63" fill="#a2001d"/>
        <g>
          <polygon points="69.71 15.96 62.21 12.5 50 40.15 37.79 12.5 30.29 15.96 45.45 50 30.29 84.04 37.79 87.5 50 59.85 62.21 87.5 69.71 84.04 54.55 50 69.71 15.96" fill="#f0f0f0"/>
          <path d="M55.09,19.22a57.82,57.82,0,0,0-5.09-5,57.82,57.82,0,0,0-5.09,5V80.78a57.82,57.82,0,0,0,5.09,5,57.82,57.82,0,0,0,5.09-5Z" fill="#f0f0f0"/>
        </g>
        <g>
          <path d="M36.24,31V69a66.34,66.34,0,0,0,9.63,12.84V18.19A66.34,66.34,0,0,0,36.24,31Z" fill="#a2001d"/>
          <path d="M63.76,31a66.34,66.34,0,0,0-9.63-12.84V81.81A66.55,66.55,0,0,0,63.76,69Z" fill="#a2001d"/>
        </g>
        <path d="M63.76,31V69c3.1-5.5,5.5-12,5.5-19S66.86,36.53,63.76,31Z"/>
        <path d="M36.24,31V69c-3.1-5.5-5.5-12-5.5-19S33.14,36.53,36.24,31Z"/>
      </g>
      <g>
        <path d="M10.39,74.25V25.75A26.64,26.64,0,0,1,30.24,0H0V100H30.24A26.66,26.66,0,0,1,10.39,74.25Z" opacity="0.2" style="isolation: isolate"/>
        <path d="M89.61,25.75V74.24A26.64,26.64,0,0,1,69.76,100H100V0H69.76A26.66,26.66,0,0,1,89.61,25.75Z" fill="#fff" opacity="0.1" style="isolation: isolate"/>
      </g>
    </g>
  </g>
</svg>
