<svg xmlns="http://www.w3.org/2000/svg" xmlns:xlink="http://www.w3.org/1999/xlink" width="100" height="100" viewBox="0 0 100 100">
  <defs>
    <clipPath id="a">
      <path d="M73.3,100H26.7A26.63,26.63,0,0,1,0,73.3V26.7A26.63,26.63,0,0,1,26.7,0H73.4A26.61,26.61,0,0,1,100,26.7V73.4A26.61,26.61,0,0,1,73.3,100Z" fill="none"/>
    </clipPath>
  </defs>
  <title>flag_af_e_eritrea</title>
  <g clip-path="url(#a)">
    <g>
      <g>
        <rect width="100" height="100" fill="#338af3"/>
        <rect width="100" height="50" fill="#6da544"/>
        <path d="M0,100S100,50,100,50L0,0Z" fill="#d80027"/>
        <path d="M27.54,30.64a16.32,16.32,0,0,0-16.31,16.3v6.12a16.31,16.31,0,0,0,32.61,0V46.94A16.32,16.32,0,0,0,27.54,30.64ZM37.73,53.06a10.21,10.21,0,0,1-7.14,9.72V56.11l4.33-4.32L30.6,47.46V43.88H24.48V50l-4.32,4.32,4.32,4.32v4.14a10.21,10.21,0,0,1-7.13-9.72V46.94a10.19,10.19,0,0,1,20.38,0v6.12Z" fill="#ffda44"/>
      </g>
      <g>
        <path d="M10.39,74.25V25.75A26.64,26.64,0,0,1,30.24,0H0V100H30.24A26.66,26.66,0,0,1,10.39,74.25Z" opacity="0.2" style="isolation: isolate"/>
        <path d="M89.61,25.75V74.24A26.64,26.64,0,0,1,69.76,100H100V0H69.76A26.66,26.66,0,0,1,89.61,25.75Z" fill="#fff" opacity="0.1" style="isolation: isolate"/>
      </g>
    </g>
  </g>
</svg>
