<svg xmlns="http://www.w3.org/2000/svg" xmlns:xlink="http://www.w3.org/1999/xlink" width="100" height="100" viewBox="0 0 100 100">
  <defs>
    <clipPath id="a">
      <path d="M73.3,100H26.7A26.63,26.63,0,0,1,0,73.3V26.7A26.63,26.63,0,0,1,26.7,0H73.4A26.61,26.61,0,0,1,100,26.7V73.4A26.61,26.61,0,0,1,73.3,100Z" fill="none"/>
    </clipPath>
  </defs>
  <title>flag_na_cr_haiti</title>
  <g clip-path="url(#a)">
    <g>
      <g>
        <rect width="100" height="100" fill="#a2001d"/>
        <polygon points="100 0 100 48.83 0 50.05 0 0 100 0" fill="#0052b4"/>
        <polygon points="73.19 67.39 50 64.49 26.81 67.39 26.81 32.61 73.19 32.61 73.19 67.39" fill="#f0f0f0"/>
        <circle cx="50" cy="52.9" r="11.59" fill="#0052b4"/>
        <circle cx="50" cy="52.9" r="5.8" fill="#a2001d"/>
        <polygon points="41.3 38.41 58.7 38.41 50 47.1 41.3 38.41" fill="#6da544"/>
        <rect x="47.1" y="44.2" width="5.8" height="17.39" fill="#ffda44"/>
        <polygon points="59.27 59.85 40.73 59.85 26.81 67.39 73.19 67.39 59.27 59.85" fill="#6da544"/>
      </g>
      <g>
        <path d="M10.39,74.25V25.75A26.64,26.64,0,0,1,30.24,0H0V100H30.24A26.66,26.66,0,0,1,10.39,74.25Z" opacity="0.2" style="isolation: isolate"/>
        <path d="M89.61,25.75V74.24A26.64,26.64,0,0,1,69.76,100H100V0H69.76A26.66,26.66,0,0,1,89.61,25.75Z" fill="#fff" opacity="0.1" style="isolation: isolate"/>
      </g>
    </g>
  </g>
</svg>
