<svg xmlns="http://www.w3.org/2000/svg" xmlns:xlink="http://www.w3.org/1999/xlink" width="100" height="100" viewBox="0 0 100 100">
  <defs>
    <clipPath id="a">
      <path d="M73.3,100H26.7A26.63,26.63,0,0,1,0,73.3V26.7A26.63,26.63,0,0,1,26.7,0H73.4A26.61,26.61,0,0,1,100,26.7V73.4A26.61,26.61,0,0,1,73.3,100Z" fill="none"/>
    </clipPath>
  </defs>
  <title>flag_oc_poly_pitcairn_islands</title>
  <g clip-path="url(#a)">
    <g>
      <g>
        <rect width="100" height="100" fill="#0052b4"/>
        <polygon points="79.89 39.4 75 41.03 70.11 39.4 68.48 35.33 70.11 31.25 79.89 31.25 78.26 35.33 79.89 39.4" fill="#acabb1"/>
        <path d="M63.59,39.4V57.34C63.59,66.07,75,68.75,75,68.75s11.41-2.68,11.41-11.41V39.4Z" fill="#338af3"/>
        <path d="M64.62,61.59C67.42,67,75,68.75,75,68.75S82.58,67,85.38,61.59L75,44.29Z" fill="#6da544"/>
        <path d="M86.41,57.16,75,39.4,63.59,57.16v.18a9.08,9.08,0,0,0,1,4.25L75,45.43,85.38,61.59a9.08,9.08,0,0,0,1-4.25Z" fill="#ffda44"/>
        <polygon points="50 0 50 9.55 42.16 17.39 50 17.39 50 32.61 39.74 32.61 50 42.87 50 50 45.37 50 32.61 37.24 32.61 50 17.39 50 17.39 34.82 2.21 50 0 50 0 40.45 7.84 32.61 0 32.61 0 17.39 10.26 17.39 0 7.13 0 0 4.63 0 17.39 12.76 17.39 0 32.61 0 32.61 15.18 47.79 0 50 0" fill="#f0f0f0"/>
        <polygon points="0 29.69 20.31 29.69 20.31 50 29.69 50 29.69 29.69 50 29.69 50 20.31 29.69 20.31 29.69 0 20.31 0 20.31 20.31 0 20.31 0 29.69" fill="#d80027"/>
        <polygon points="32.61 32.61 50 50 50 45.08 37.53 32.61 32.61 32.61" fill="#0052b4"/>
        <polygon points="32.61 32.61 50 50 50 45.08 37.53 32.61 32.61 32.61" fill="#f0f0f0"/>
        <g>
          <polygon points="32.61 32.61 50 50 50 45.08 37.53 32.61 32.61 32.61" fill="#d80027"/>
          <polygon points="12.47 32.61 0 45.08 0 50 0 50 17.39 32.61 12.47 32.61" fill="#d80027"/>
        </g>
        <polygon points="17.39 17.39 0 0 0 4.92 12.47 17.39 17.39 17.39" fill="#0052b4"/>
        <polygon points="17.39 17.39 0 0 0 4.92 12.47 17.39 17.39 17.39" fill="#f0f0f0"/>
        <g>
          <polygon points="17.39 17.39 0 0 0 4.92 12.47 17.39 17.39 17.39" fill="#d80027"/>
          <polygon points="37.53 17.39 50 4.92 50 0 50 0 32.61 17.39 37.53 17.39" fill="#d80027"/>
        </g>
      </g>
      <g>
        <path d="M10.39,74.25V25.75A26.64,26.64,0,0,1,30.24,0H0V100H30.24A26.66,26.66,0,0,1,10.39,74.25Z" opacity="0.2" style="isolation: isolate"/>
        <path d="M89.61,25.75V74.24A26.64,26.64,0,0,1,69.76,100H100V0H69.76A26.66,26.66,0,0,1,89.61,25.75Z" fill="#fff" opacity="0.1" style="isolation: isolate"/>
      </g>
    </g>
  </g>
</svg>
