<svg xmlns="http://www.w3.org/2000/svg" xmlns:xlink="http://www.w3.org/1999/xlink" width="100" height="100" viewBox="0 0 100 100">
  <defs>
    <clipPath id="a">
      <path d="M73.3,100H26.7A26.63,26.63,0,0,1,0,73.3V26.7A26.63,26.63,0,0,1,26.7,0H73.4A26.61,26.61,0,0,1,100,26.7V73.4A26.61,26.61,0,0,1,73.3,100Z" fill="none"/>
    </clipPath>
  </defs>
  <title>flag_as_se_philippines</title>
  <g clip-path="url(#a)">
    <g>
      <g>
        <rect width="100" height="100" fill="#d80027"/>
        <rect width="100" height="50" fill="#0052b4"/>
        <polygon points="0 100 50 50 0 0 0 100" fill="#f0f0f0"/>
        <g>
          <polygon points="33.14 50 26.93 47.08 30.24 41.05 23.49 42.34 22.63 35.52 17.93 40.54 13.22 35.52 12.37 42.34 5.62 41.05 8.93 47.08 2.71 50 8.93 52.92 5.62 58.95 12.37 57.66 13.22 64.48 17.93 59.46 22.63 64.48 23.49 57.66 30.24 58.95 26.93 52.92 33.14 50" fill="#ffda44"/>
          <polygon points="4.26 9.93 6.03 12.41 8.94 11.49 7.13 13.94 8.9 16.42 6.01 15.46 4.2 17.91 4.22 14.86 1.33 13.9 4.23 12.97 4.26 9.93" fill="#ffda44"/>
          <polygon points="4.26 82.09 6.03 84.57 8.94 83.65 7.13 86.1 8.9 88.58 6.01 87.62 4.2 90.07 4.22 87.03 1.33 86.06 4.23 85.14 4.26 82.09" fill="#ffda44"/>
          <polygon points="41.09 46.01 39.32 48.49 36.41 47.57 38.22 50.02 36.45 52.5 39.34 51.54 41.15 53.99 41.13 50.94 44.02 49.98 41.12 49.06 41.09 46.01" fill="#ffda44"/>
        </g>
      </g>
      <g>
        <path d="M10.39,74.25V25.75A26.64,26.64,0,0,1,30.24,0H0V100H30.24A26.66,26.66,0,0,1,10.39,74.25Z" opacity="0.2" style="isolation: isolate"/>
        <path d="M89.61,25.75V74.24A26.64,26.64,0,0,1,69.76,100H100V0H69.76A26.66,26.66,0,0,1,89.61,25.75Z" fill="#fff" opacity="0.1" style="isolation: isolate"/>
      </g>
    </g>
  </g>
</svg>
