<svg xmlns="http://www.w3.org/2000/svg" xmlns:xlink="http://www.w3.org/1999/xlink" width="100" height="100" viewBox="0 0 100 100">
  <defs>
    <clipPath id="a">
      <path d="M73.3,100H26.7A26.63,26.63,0,0,1,0,73.3V26.7A26.63,26.63,0,0,1,26.7,0H73.4A26.61,26.61,0,0,1,100,26.7V73.4A26.61,26.61,0,0,1,73.3,100Z" fill="none"/>
    </clipPath>
  </defs>
  <title>flag_na_cr_curaçao</title>
  <g clip-path="url(#a)">
    <g>
      <g>
        <rect width="100" height="100" fill="#0052b4"/>
        <g>
          <polygon points="29.47 31.37 31.78 38.48 39.26 38.48 33.21 42.88 35.52 50 29.47 45.6 23.41 50 25.73 42.88 19.67 38.48 27.15 38.48 29.47 31.37" fill="#f0f0f0"/>
          <polygon points="16.61 23.91 18 28.18 22.49 28.18 18.86 30.82 20.25 35.09 16.61 32.45 12.98 35.09 14.37 30.82 10.74 28.18 15.23 28.18 16.61 23.91" fill="#f0f0f0"/>
        </g>
        <rect y="68.75" width="100" height="12.5" fill="#ffda44"/>
      </g>
      <g>
        <path d="M10.39,74.25V25.75A26.64,26.64,0,0,1,30.24,0H0V100H30.24A26.66,26.66,0,0,1,10.39,74.25Z" opacity="0.2" style="isolation: isolate"/>
        <path d="M89.61,25.75V74.24A26.64,26.64,0,0,1,69.76,100H100V0H69.76A26.66,26.66,0,0,1,89.61,25.75Z" fill="#fff" opacity="0.1" style="isolation: isolate"/>
      </g>
    </g>
  </g>
</svg>
