<svg xmlns="http://www.w3.org/2000/svg" xmlns:xlink="http://www.w3.org/1999/xlink" width="100" height="100" viewBox="0 0 100 100">
  <defs>
    <clipPath id="a">
      <path d="M73.3,100H26.7A26.63,26.63,0,0,1,0,73.3V26.7A26.63,26.63,0,0,1,26.7,0H73.4A26.61,26.61,0,0,1,100,26.7V73.4A26.61,26.61,0,0,1,73.3,100Z" fill="none"/>
    </clipPath>
  </defs>
  <title>flag_eu_s_serbia</title>
  <g clip-path="url(#a)">
    <g>
      <g>
        <rect width="100" height="100" fill="#0052b4"/>
        <rect width="100" height="33.33" fill="#d80027"/>
        <rect y="66.67" width="100" height="33.33" fill="#f0f0f0"/>
        <path d="M19.88,30.43V54.34c0,13.6,17.76,17.76,17.76,17.76s17.77-4.16,17.77-17.76V30.43Z" fill="#d80027"/>
        <g>
          <polygon points="27.23 34.6 48.06 34.6 48.06 26.27 43.89 28.35 37.64 22.1 31.39 28.35 27.23 26.27 27.23 34.6" fill="#ffda44"/>
          <polygon points="51.24 57.67 37.7 44.13 24.16 57.67 28.58 62.09 37.7 52.96 46.82 62.09 51.24 57.67" fill="#ffda44"/>
        </g>
        <path d="M51.24,45H44.92a4.16,4.16,0,0,0-3.6-6.25A4.18,4.18,0,0,0,37.64,41a4.17,4.17,0,0,0-7.84,2A4.11,4.11,0,0,0,30.37,45H24.16a4.28,4.28,0,0,0,4.3,4.16h-.14a4.17,4.17,0,0,0,4.17,4.17,4.16,4.16,0,0,0,3.4,4.09L32.6,64.86a13.61,13.61,0,0,0,10.19,0l-3.28-7.42a4.17,4.17,0,0,0,3.4-4.09,4.16,4.16,0,0,0,4.16-4.17h-.13A4.28,4.28,0,0,0,51.24,45Z" fill="#f0f0f0"/>
      </g>
      <g>
        <path d="M10.39,74.25V25.75A26.64,26.64,0,0,1,30.24,0H0V100H30.24A26.66,26.66,0,0,1,10.39,74.25Z" opacity="0.2" style="isolation: isolate"/>
        <path d="M89.61,25.75V74.24A26.64,26.64,0,0,1,69.76,100H100V0H69.76A26.66,26.66,0,0,1,89.61,25.75Z" fill="#fff" opacity="0.1" style="isolation: isolate"/>
      </g>
    </g>
  </g>
</svg>
