<svg xmlns="http://www.w3.org/2000/svg" xmlns:xlink="http://www.w3.org/1999/xlink" width="100" height="100" viewBox="0 0 100 100">
  <defs>
    <clipPath id="a">
      <path d="M73.3,100H26.7A26.63,26.63,0,0,1,0,73.3V26.7A26.63,26.63,0,0,1,26.7,0H73.4A26.61,26.61,0,0,1,100,26.7V73.4A26.61,26.61,0,0,1,73.3,100Z" fill="none"/>
    </clipPath>
  </defs>
  <title>flag_oc_poly_tubalu_or_tuvalu</title>
  <g clip-path="url(#a)">
    <g>
      <g>
        <rect width="100" height="100" fill="#338af3"/>
        <g>
          <polygon points="60.52 68.1 61.38 70.74 64.15 70.74 61.91 72.37 62.76 75 60.52 73.37 58.28 75 59.14 72.37 56.9 70.74 59.67 70.74 60.52 68.1" fill="#ffda44"/>
          <polygon points="82.58 50.86 83.44 53.5 86.21 53.5 83.97 55.12 84.82 57.76 82.58 56.13 80.34 57.76 81.2 55.12 78.95 53.5 81.72 53.5 82.58 50.86" fill="#ffda44"/>
          <polygon points="88.11 25 88.97 27.63 91.73 27.63 89.49 29.26 90.35 31.9 88.11 30.27 85.87 31.9 86.72 29.26 84.48 27.63 87.25 27.63 88.11 25" fill="#ffda44"/>
          <polygon points="89.48 43.97 90.33 46.6 93.1 46.6 90.86 48.23 91.72 50.86 89.48 49.23 87.24 50.86 88.09 48.23 85.85 46.6 88.62 46.6 89.48 43.97" fill="#ffda44"/>
          <polygon points="64.49 61.91 66.96 63.16 68.92 61.21 68.49 63.94 70.95 65.2 68.22 65.63 67.79 68.37 66.53 65.9 63.79 66.33 65.75 64.38 64.49 61.91" fill="#ffda44"/>
          <polygon points="64.49 51.56 66.96 52.82 68.92 50.86 68.49 53.6 70.95 54.85 68.22 55.29 67.79 58.02 66.53 55.56 63.79 55.99 65.75 54.03 64.49 51.56" fill="#ffda44"/>
          <polygon points="73.11 58.19 75.58 59.45 77.54 57.49 77.11 60.23 79.58 61.49 76.84 61.92 76.41 64.66 75.15 62.19 72.41 62.62 74.37 60.66 73.11 58.19" fill="#ffda44"/>
          <polygon points="73.11 36.05 75.58 37.3 77.54 35.34 77.11 38.08 79.58 39.34 76.84 39.77 76.41 42.51 75.15 40.04 72.41 40.47 74.37 38.51 73.11 36.05" fill="#ffda44"/>
          <polygon points="81.47 35.78 83.94 37.04 85.9 35.08 85.46 37.81 87.93 39.07 85.19 39.51 84.76 42.24 83.5 39.77 80.77 40.21 82.73 38.25 81.47 35.78" fill="#ffda44"/>
        </g>
        <rect width="50" height="50" fill="#f0f0f0"/>
        <polygon points="0 29.69 20.31 29.69 20.31 50 29.69 50 29.69 29.69 50 29.69 50 20.31 29.69 20.31 29.69 0 20.31 0 20.31 20.31 0 20.31 0 29.69" fill="#d80027"/>
        <g>
          <polygon points="39.74 32.61 50 42.87 50 32.61 39.74 32.61" fill="#0052b4"/>
          <polygon points="32.61 32.61 50 50 50 45.08 37.53 32.61 32.61 32.61" fill="#0052b4"/>
          <polygon points="45.37 50 32.61 37.24 32.61 50 45.37 50" fill="#0052b4"/>
        </g>
        <polygon points="32.61 32.61 50 50 50 45.08 37.53 32.61 32.61 32.61" fill="#f0f0f0"/>
        <polygon points="32.61 32.61 50 50 50 45.08 37.53 32.61 32.61 32.61" fill="#d80027"/>
        <g>
          <polygon points="7.84 32.61 0 40.45 0 32.61 7.84 32.61" fill="#0052b4"/>
          <polygon points="17.39 34.82 17.39 50 2.21 50 17.39 34.82" fill="#0052b4"/>
        </g>
        <polygon points="12.47 32.61 0 45.08 0 50 0 50 17.39 32.61 12.47 32.61" fill="#d80027"/>
        <g>
          <polygon points="10.26 17.39 0 7.13 0 17.39 10.26 17.39" fill="#0052b4"/>
          <polygon points="17.39 17.39 0 0 0 4.92 12.47 17.39 17.39 17.39" fill="#0052b4"/>
          <polygon points="4.63 0 17.39 12.76 17.39 0 4.63 0" fill="#0052b4"/>
        </g>
        <polygon points="17.39 17.39 0 0 0 4.92 12.47 17.39 17.39 17.39" fill="#f0f0f0"/>
        <polygon points="17.39 17.39 0 0 0 4.92 12.47 17.39 17.39 17.39" fill="#d80027"/>
        <g>
          <polygon points="42.16 17.39 50 9.55 50 17.39 42.16 17.39" fill="#0052b4"/>
          <polygon points="32.61 15.18 32.61 0 47.79 0 32.61 15.18" fill="#0052b4"/>
        </g>
        <polygon points="37.53 17.39 50 4.92 50 0 50 0 32.61 17.39 37.53 17.39" fill="#d80027"/>
      </g>
      <g>
        <path d="M10.39,74.25V25.75A26.64,26.64,0,0,1,30.24,0H0V100H30.24A26.66,26.66,0,0,1,10.39,74.25Z" opacity="0.2" style="isolation: isolate"/>
        <path d="M89.61,25.75V74.24A26.64,26.64,0,0,1,69.76,100H100V0H69.76A26.66,26.66,0,0,1,89.61,25.75Z" fill="#fff" opacity="0.1" style="isolation: isolate"/>
      </g>
    </g>
  </g>
</svg>
