<svg xmlns="http://www.w3.org/2000/svg" xmlns:xlink="http://www.w3.org/1999/xlink" width="100" height="100" viewBox="0 0 100 100">
  <defs>
    <clipPath id="a">
      <path d="M73.3,100H26.7A26.63,26.63,0,0,1,0,73.3V26.7A26.63,26.63,0,0,1,26.7,0H73.4A26.61,26.61,0,0,1,100,26.7V73.4A26.61,26.61,0,0,1,73.3,100Z" fill="none"/>
    </clipPath>
  </defs>
  <title>flag_as_s_sri_lanka</title>
  <g clip-path="url(#a)">
    <g>
      <g>
        <path d="M0,0V100H100V0ZM95.65,93.48H43.48v-87H95.65Z" fill="#ffda44"/>
        <rect x="43.48" y="6.52" width="52.17" height="86.96" fill="#a2001d"/>
        <rect x="4.35" y="21.02" width="39.13" height="57.97" fill="#d80027"/>
        <rect x="39.13" y="16.67" width="4.35" height="66.67" fill="#ffda44"/>
        <rect x="4.35" y="6.52" width="17.39" height="86.96" fill="#6da544"/>
        <rect x="21.74" y="6.52" width="17.39" height="86.96" fill="#ff9811"/>
        <g>
          <path d="M70.05,48.91V40.22c0-1.45-2.17-2.9-2.17-2.9s-2.17,1.45-2.17,2.9H57v8.69h4.35v4.35A6.91,6.91,0,0,0,61.9,56l-2,1.66h-5.8V30.8a4.34,4.34,0,0,0-4.35,4.34V54a4.32,4.32,0,0,0,1.45,3.23v6.91h2.9V60.51h13v5.8h-2.9V69.2h5.79V63.41l2.66-2.9h8.65v5.8h-2.9V69.2h5.8V63.41l2.65-2.9,2.46-7.87-2.16-3.73H79.6C76.84,48.89,71.67,48.93,70.05,48.91Z" fill="#ffda44"/>
          <polygon points="72.37 41.38 72.37 46.3 86.34 46.3 86.34 48.91 87.21 48.91 87.21 45.44 73.24 45.44 73.24 42.25 88.08 42.25 88.08 41.38 72.37 41.38" fill="#ffda44"/>
          <rect x="43.48" y="6.52" width="4.35" height="4.35" fill="#ffda44"/>
          <rect x="91.3" y="6.52" width="4.35" height="4.35" fill="#ffda44"/>
          <rect x="43.48" y="89.13" width="4.35" height="4.35" fill="#ffda44"/>
          <rect x="91.3" y="89.13" width="4.35" height="4.35" fill="#ffda44"/>
        </g>
      </g>
      <g>
        <path d="M10.39,74.25V25.75A26.64,26.64,0,0,1,30.24,0H0V100H30.24A26.66,26.66,0,0,1,10.39,74.25Z" opacity="0.2" style="isolation: isolate"/>
        <path d="M89.61,25.75V74.24A26.64,26.64,0,0,1,69.76,100H100V0H69.76A26.66,26.66,0,0,1,89.61,25.75Z" fill="#fff" opacity="0.1" style="isolation: isolate"/>
      </g>
    </g>
  </g>
</svg>
