<svg xmlns="http://www.w3.org/2000/svg" xmlns:xlink="http://www.w3.org/1999/xlink" width="100" height="100" viewBox="0 0 100 100">
  <defs>
    <clipPath id="a">
      <path d="M73.3,100H26.7A26.63,26.63,0,0,1,0,73.3V26.7A26.63,26.63,0,0,1,26.7,0H73.4A26.61,26.61,0,0,1,100,26.7V73.4A26.61,26.61,0,0,1,73.3,100Z" fill="none"/>
    </clipPath>
  </defs>
  <title>flag_af_n_morocco</title>
  <g clip-path="url(#a)">
    <g>
      <g>
        <polygon points="0 0 0 50 0 100 100 100 100 50 100 0 0 0" fill="#d80027"/>
        <path d="M76.29,42.54H56.21L50,23.44l-6.21,19.1H23.71L40,54.35,33.75,73.44,50,61.64,66.25,73.45,60,54.35ZM44.51,52.87l2.09-6.46h6.8l2.09,6.46h0l-5.49,4-5.49-4Zm7.63-10.33H47.86L50,36Zm6.64,7.94-1.32-4.07h6.92ZM42.54,46.41l-1.32,4.07-5.6-4.07ZM41.11,63.32l2.14-6.58,3.46,2.51Zm12.18-4.07,3.46-2.51,2.14,6.58Z" fill="#ffda44"/>
      </g>
      <g>
        <path d="M10.39,74.25V25.75A26.64,26.64,0,0,1,30.24,0H0V100H30.24A26.66,26.66,0,0,1,10.39,74.25Z" opacity="0.2" style="isolation: isolate"/>
        <path d="M89.61,25.75V74.24A26.64,26.64,0,0,1,69.76,100H100V0H69.76A26.66,26.66,0,0,1,89.61,25.75Z" fill="#fff" opacity="0.1" style="isolation: isolate"/>
      </g>
    </g>
  </g>
</svg>
