<svg xmlns="http://www.w3.org/2000/svg" xmlns:xlink="http://www.w3.org/1999/xlink" width="100" height="100" viewBox="0 0 100 100">
  <defs>
    <clipPath id="a">
      <path d="M73.3,100H26.7A26.63,26.63,0,0,1,0,73.3V26.7A26.63,26.63,0,0,1,26.7,0H73.4A26.61,26.61,0,0,1,100,26.7V73.4A26.61,26.61,0,0,1,73.3,100Z" fill="none"/>
    </clipPath>
  </defs>
  <title>flag_az_flag_australia</title>
  <g clip-path="url(#a)">
    <g>
      <g>
        <rect width="100" height="100" fill="#0052b4"/>
        <g>
          <polygon points="25 60.05 27.68 65.65 33.72 64.25 31.01 69.83 35.87 73.69 29.82 75.05 29.84 81.25 25 77.37 20.16 81.25 20.18 75.05 14.13 73.69 18.99 69.83 16.28 64.25 22.32 65.65 25 60.05" fill="#f0f0f0"/>
          <polygon points="75.75 67.19 77.03 69.85 79.91 69.19 78.62 71.85 80.94 73.69 78.05 74.34 78.06 77.29 75.75 75.44 73.44 77.29 73.45 74.34 70.57 73.69 72.88 71.85 71.59 69.19 74.47 69.85 75.75 67.19" fill="#f0f0f0"/>
          <polygon points="63.88 38.88 65.16 41.55 68.04 40.88 66.75 43.54 69.06 45.38 66.18 46.03 66.19 48.99 63.88 47.14 61.57 48.99 61.58 46.03 58.7 45.38 61.01 43.54 59.72 40.88 62.6 41.55 63.88 38.88" fill="#f0f0f0"/>
          <polygon points="75.75 22.71 77.03 25.37 79.91 24.71 78.62 27.37 80.94 29.21 78.05 29.86 78.06 32.81 75.75 30.96 73.44 32.81 73.45 29.86 70.57 29.21 72.88 27.37 71.59 24.71 74.47 25.37 75.75 22.71" fill="#f0f0f0"/>
          <polygon points="86.12 34.84 87.4 37.51 90.28 36.84 88.99 39.5 91.3 41.34 88.42 41.99 88.43 44.95 86.12 43.09 83.81 44.95 83.82 41.99 80.94 41.34 83.25 39.5 81.96 36.84 84.84 37.51 86.12 34.84" fill="#f0f0f0"/>
          <polygon points="78.71 48.99 79.71 52.08 82.96 52.08 80.33 53.99 81.33 57.08 78.71 55.17 76.08 57.08 77.08 53.99 74.45 52.08 77.7 52.08 78.71 48.99" fill="#f0f0f0"/>
          <polygon points="50 0 50 9.55 42.16 17.39 50 17.39 50 32.61 39.74 32.61 50 42.87 50 50 45.37 50 32.61 37.24 32.61 50 17.39 50 17.39 34.82 2.21 50 0 50 0 40.45 7.84 32.61 0 32.61 0 17.39 10.26 17.39 0 7.13 0 0 4.63 0 17.39 12.76 17.39 0 32.61 0 32.61 15.18 47.79 0 50 0" fill="#f0f0f0"/>
        </g>
        <polygon points="0 29.69 20.31 29.69 20.31 50 29.69 50 29.69 29.69 50 29.69 50 20.31 29.69 20.31 29.69 0 20.31 0 20.31 20.31 0 20.31 0 29.69" fill="#d80027"/>
        <polygon points="32.61 32.61 50 50 50 45.08 37.53 32.61 32.61 32.61" fill="#0052b4"/>
        <polygon points="32.61 32.61 50 50 50 45.08 37.53 32.61 32.61 32.61" fill="#f0f0f0"/>
        <g>
          <polygon points="32.61 32.61 50 50 50 45.08 37.53 32.61 32.61 32.61" fill="#d80027"/>
          <polygon points="12.47 32.61 0 45.08 0 50 0 50 17.39 32.61 12.47 32.61" fill="#d80027"/>
        </g>
        <polygon points="17.39 17.39 0 0 0 4.92 12.47 17.39 17.39 17.39" fill="#0052b4"/>
        <polygon points="17.39 17.39 0 0 0 4.92 12.47 17.39 17.39 17.39" fill="#f0f0f0"/>
        <g>
          <polygon points="17.39 17.39 0 0 0 4.92 12.47 17.39 17.39 17.39" fill="#d80027"/>
          <polygon points="37.53 17.39 50 4.92 50 0 50 0 32.61 17.39 37.53 17.39" fill="#d80027"/>
        </g>
      </g>
      <g>
        <path d="M10.39,74.25V25.75A26.64,26.64,0,0,1,30.24,0H0V100H30.24A26.66,26.66,0,0,1,10.39,74.25Z" opacity="0.2" style="isolation: isolate"/>
        <path d="M89.61,25.75V74.24A26.64,26.64,0,0,1,69.76,100H100V0H69.76A26.66,26.66,0,0,1,89.61,25.75Z" fill="#fff" opacity="0.1" style="isolation: isolate"/>
      </g>
    </g>
  </g>
</svg>
