<?xml version="1.0" encoding="utf-8"?>
<!-- Generator: Adobe Illustrator 23.0.0, SVG Export Plug-In . SVG Version: 6.00 Build 0)  -->
<svg version="1.0" id="Layer_1" xmlns="http://www.w3.org/2000/svg" xmlns:xlink="http://www.w3.org/1999/xlink" x="0px" y="0px"
	 viewBox="0 0 199.4 50.4" enable-background="new 0 0 199.4 50.4" xml:space="preserve">
<polygon id="Side_3_" fill="#2B2B2B" points="115.9,44.5 119,37.6 112,44.5 "/>
<polygon id="Face_3_" fill="#FFC000" points="115.9,44.5 119,37.6 126.5,44.5 "/>
<polygon id="Shadow_3_" opacity="0.3" fill="#FFFFFF" enable-background="new    " points="119,37.6 126.5,44.5 128.5,44.5 "/>
<path id="white" opacity="0.3" fill="#FFFFFF" enable-background="new    " d="M182.6,10.9h-6.1V5.3h18.4v5.6h-6.1v33.6h-6.2
	L182.6,10.9 M154.6,5.3v39.3h18.4v-5.7h-12.2V26.8h10v-5.6h-10V10.9h12.2V5.3H154.6 M144.9,28l-7.7-22.9h-5.5v39.3h5.5v-22l7.4,22
	h5.8V5.3h-5.5V28z M101.6,44.5c3,0,5.3-0.8,6.9-2.5c1.6-1.7,2.4-4.1,2.4-7.2c0-2.4-0.5-4.5-1.5-6.3s-2.8-3.8-5.3-6
	c-2-1.7-3.4-3.2-4.2-4.4c-0.8-1.2-1.2-2.5-1.2-3.9c0-2.4,1-3.7,3.1-3.7c1,0,1.8,0.3,2.3,0.9c0.5,0.6,0.8,1.6,0.8,2.9v2h5.8v-1.6
	c0-3.1-0.8-5.5-2.3-7.1c-1.5-1.7-3.8-2.5-6.7-2.5c-3,0-5.3,0.8-6.9,2.5s-2.4,4-2.4,7c0,2.2,0.5,4.2,1.5,6c1,1.8,2.8,3.7,5.3,5.9
	c2,1.7,3.4,3.2,4.2,4.4c0.7,1.2,1.1,2.6,1.1,4.2c0,1.3-0.3,2.3-0.8,2.9c-0.5,0.6-1.3,0.9-2.4,0.9c-2.1,0-3.2-1.2-3.2-3.7v-2.6h-5.8
	v2.3c0,3.1,0.8,5.5,2.3,7.1C96.4,43.7,98.6,44.5,101.6,44.5z M90,44.5h-6.3c-0.2-0.6-0.4-1.2-0.5-1.8c-0.1-0.6-0.1-1.6-0.1-3v-7.2
	c0-1.8-0.3-3.1-0.9-3.8c-0.6-0.7-1.6-1.1-3-1.1h-2.1v16.9h-6.2V5.3h9.2c3.2,0,5.5,0.7,7,2.2c1.5,1.5,2.2,3.8,2.2,6.8v2.4
	c0,4.1-1.4,6.7-4.1,7.8v0.1c1.5,0.5,2.6,1.4,3.2,2.8s0.9,3.2,0.9,5.6v6.9c0,1.1,0,2,0.1,2.7C89.5,43.2,89.7,43.9,90,44.5z M83,14.9
	c0-1.4-0.3-2.5-0.8-3.1c-0.5-0.6-1.3-1-2.4-1H77V22h2.3c1.2,0,2.2-0.3,2.8-1c0.6-0.6,0.9-1.7,0.9-3.2C83,17.8,83,14.9,83,14.9z
	 M66.6,15v19.9c0,3.2-0.8,5.6-2.3,7.3c-1.5,1.6-3.9,2.5-7,2.5h-9.5V5.3h9.5c3.1,0,5.4,0.8,7,2.5C65.9,9.4,66.6,11.8,66.6,15z
	 M60.4,14.7c0-1.3-0.3-2.3-0.8-2.9c-0.5-0.6-1.3-0.9-2.3-0.9h-3.2v28h3.2c1,0,1.8-0.3,2.3-0.9c0.5-0.6,0.8-1.6,0.8-2.9V14.7z
	 M28.3,5.3v39.3h16.5v-5.7H34.5V5.3H28.3 M24.7,31.8v3.4c0,3-0.8,5.4-2.4,6.9c-1.6,1.6-4,2.4-7,2.4H5.5V5.3h9.4c3.2,0,5.5,0.7,7,2.2
	c1.5,1.5,2.2,3.8,2.2,6.8v1.6c0,2-0.3,3.7-1,4.9c-0.7,1.3-1.7,2.2-3,2.8v0.1C23.1,24.8,24.7,27.4,24.7,31.8z M11.7,21.3h2.4
	c1.2,0,2.2-0.3,2.8-1c0.6-0.6,0.9-1.7,0.9-3.2v-2.2c0-1.4-0.3-2.5-0.8-3.1s-1.3-1-2.4-1h-3v10.5H11.7z M18.5,31.6
	c0-1.8-0.3-3-0.9-3.7c-0.6-0.7-1.7-1-3.1-1h-2.8v12h3.5c1.1,0,1.9-0.3,2.4-0.9c0.5-0.6,0.8-1.6,0.8-3v-3.4H18.5z"/>
<path id="black" opacity="0.5" enable-background="new    " d="M180.1,10.9H174V5.3h18.4v5.6h-6.1v33.6h-6.2L180.1,10.9 M152.1,5.3
	v39.3h18.4v-5.7h-12.2V26.8h10v-5.6h-10V10.9h12.2V5.3H152.1 M142.4,28l-7.7-22.9h-5.5v39.3h5.5v-22l7.4,22h5.8V5.3h-5.5V28z
	 M99.1,44.5c3,0,5.3-0.8,6.9-2.5c1.6-1.7,2.4-4.1,2.4-7.2c0-2.4-0.5-4.5-1.5-6.3s-2.8-3.8-5.3-6c-2-1.7-3.4-3.2-4.2-4.4
	c-0.8-1.2-1.2-2.5-1.2-3.9c0-2.4,1-3.7,3.1-3.7c1,0,1.8,0.3,2.3,0.9c0.5,0.6,0.8,1.6,0.8,2.9v2h5.8v-1.6c0-3.1-0.8-5.5-2.3-7.1
	c-1.5-1.7-3.8-2.5-6.7-2.5c-3,0-5.3,0.8-6.9,2.5s-2.4,4-2.4,7c0,2.2,0.5,4.2,1.5,6c1,1.8,2.8,3.7,5.3,5.9c2,1.7,3.4,3.2,4.2,4.4
	c0.7,1.2,1.1,2.6,1.1,4.2c0,1.3-0.3,2.3-0.8,2.9c-0.5,0.6-1.3,0.9-2.4,0.9c-2.1,0-3.2-1.2-3.2-3.7v-2.6h-5.8v2.3
	c0,3.1,0.8,5.5,2.3,7.1C93.9,43.7,96.1,44.5,99.1,44.5z M87.5,44.5h-6.3c-0.2-0.6-0.4-1.2-0.5-1.8c-0.1-0.6-0.1-1.6-0.1-3v-7.2
	c0-1.8-0.3-3.1-0.9-3.8c-0.6-0.7-1.6-1.1-3-1.1h-2.1v16.9h-6.2V5.3h9.2c3.2,0,5.5,0.7,7,2.2c1.5,1.5,2.2,3.8,2.2,6.8v2.4
	c0,4.1-1.4,6.7-4.1,7.8v0.1c1.5,0.5,2.6,1.4,3.2,2.8s0.9,3.2,0.9,5.6v6.9c0,1.1,0,2,0.1,2.7C87,43.2,87.2,43.9,87.5,44.5z
	 M80.5,14.9c0-1.4-0.3-2.5-0.8-3.1c-0.5-0.6-1.3-1-2.4-1h-2.8V22h2.3c1.2,0,2.2-0.3,2.8-1c0.6-0.6,0.9-1.7,0.9-3.2
	C80.5,17.8,80.5,14.9,80.5,14.9z M64.1,15v19.9c0,3.2-0.8,5.6-2.3,7.3c-1.5,1.7-3.9,2.5-7,2.5h-9.5V5.3h9.5c3.1,0,5.4,0.8,7,2.5
	C63.4,9.5,64.1,11.8,64.1,15z M57.9,14.7c0-1.3-0.3-2.3-0.8-2.9c-0.5-0.6-1.3-0.9-2.3-0.9h-3.2v28h3.2c1,0,1.8-0.3,2.3-0.9
	c0.5-0.6,0.8-1.6,0.8-2.9V14.7z M25.8,5.3v39.3h16.5v-5.7H32V5.3H25.8 M22.2,31.8v3.4c0,3-0.8,5.4-2.4,6.9c-1.6,1.6-4,2.4-7,2.4H3
	V5.3h9.4c3.2,0,5.5,0.7,7,2.2c1.5,1.5,2.2,3.8,2.2,6.8v1.6c0,2-0.3,3.7-1,4.9c-0.7,1.3-1.7,2.2-3,2.8v0.1
	C20.6,24.8,22.2,27.4,22.2,31.8z M9.2,21.3h2.4c1.2,0,2.2-0.3,2.8-1c0.6-0.6,0.9-1.7,0.9-3.2v-2.2c0-1.4-0.3-2.5-0.8-3.1
	c-0.5-0.6-1.3-1-2.4-1h-3v10.5H9.2z M16,31.6c0-1.8-0.3-3-0.9-3.7c-0.6-0.7-1.7-1-3.1-1H9.2v12h3.5c1.1,0,1.9-0.3,2.4-0.9
	c0.5-0.6,0.8-1.6,0.8-3v-3.4H16z"/>
<path id="yellow" fill="#FFC000" d="M181.4,10.9h-6.1V5.3h18.4v5.6h-6.1v33.6h-6.2L181.4,10.9 M153.4,5.3v39.3h18.4v-5.7h-12.2V26.8
	h10v-5.6h-10V10.9h12.2V5.3H153.4 M143.7,28L136,5.2h-5.5v39.3h5.5v-22l7.4,22h5.8V5.3h-5.5V28z M100.5,44.5c3,0,5.3-0.8,6.9-2.5
	c1.6-1.7,2.4-4.1,2.4-7.2c0-2.4-0.5-4.5-1.5-6.3c-1-1.8-2.8-3.8-5.3-6c-2-1.7-3.4-3.2-4.2-4.4c-0.8-1.2-1.2-2.5-1.2-3.9
	c0-2.4,1-3.7,3.1-3.7c1,0,1.8,0.3,2.3,0.9c0.5,0.6,0.8,1.6,0.8,2.9v2h5.8v-1.6c0-3.1-0.8-5.5-2.3-7.1c-1.5-1.7-3.8-2.5-6.7-2.5
	c-3,0-5.3,0.8-6.9,2.5s-2.4,4-2.4,7c0,2.2,0.5,4.2,1.5,6c1,1.8,2.8,3.7,5.3,5.9c2,1.7,3.4,3.2,4.2,4.4c0.7,1.2,1.1,2.6,1.1,4.2
	c0,1.3-0.3,2.3-0.8,2.9c-0.5,0.6-1.3,0.9-2.4,0.9c-2.1,0-3.2-1.2-3.2-3.7v-2.6h-5.8v2.3c0,3.1,0.8,5.5,2.3,7.1
	C95.2,43.7,97.4,44.5,100.5,44.5z M88.8,44.5h-6.3c-0.2-0.6-0.4-1.2-0.5-1.8c-0.1-0.6-0.1-1.6-0.1-3v-7.2c0-1.8-0.3-3.1-0.9-3.8
	c-0.6-0.7-1.6-1.1-3-1.1h-2.1v16.9h-6.2V5.3h9.2c3.2,0,5.5,0.7,7,2.2c1.5,1.5,2.2,3.8,2.2,6.8v2.4c0,4.1-1.4,6.7-4.1,7.8v0.1
	c1.5,0.5,2.6,1.4,3.2,2.8c0.6,1.4,0.9,3.2,0.9,5.6v6.9c0,1.1,0,2,0.1,2.7C88.3,43.2,88.5,43.9,88.8,44.5z M81.8,14.9
	c0-1.4-0.3-2.5-0.8-3.1c-0.5-0.6-1.3-1-2.4-1h-2.8V22h2.3c1.2,0,2.2-0.3,2.8-1c0.6-0.6,0.9-1.7,0.9-3.2
	C81.8,17.8,81.8,14.9,81.8,14.9z M65.4,15v19.9c0,3.2-0.8,5.6-2.3,7.3c-1.5,1.7-3.9,2.5-7,2.5h-9.5V5.3h9.5c3.1,0,5.4,0.8,7,2.5
	C64.7,9.5,65.4,11.8,65.4,15z M59.2,14.7c0-1.3-0.3-2.3-0.8-2.9c-0.5-0.6-1.3-0.9-2.3-0.9h-3.2v28h3.2c1,0,1.8-0.3,2.3-0.9
	c0.5-0.6,0.8-1.6,0.8-2.9V14.7z M27.1,5.3v39.3h16.5v-5.7H33.4V5.3H27.1 M23.5,31.8v3.4c0,3-0.8,5.4-2.4,6.9c-1.6,1.6-4,2.4-7,2.4
	H4.3V5.3h9.4c3.2,0,5.5,0.7,7,2.2c1.5,1.5,2.2,3.8,2.2,6.8v1.6c0,2-0.3,3.7-1,4.9c-0.7,1.3-1.7,2.2-3,2.8v0.1
	C21.9,24.8,23.5,27.4,23.5,31.8z M10.5,21.3h2.4c1.2,0,2.2-0.3,2.8-1c0.6-0.6,0.9-1.7,0.9-3.2v-2.2c0-1.4-0.3-2.5-0.8-3.1
	s-1.3-1-2.4-1h-3v10.5H10.5z M17.3,31.6c0-1.8-0.3-3-0.9-3.7c-0.6-0.7-1.7-1-3.1-1h-2.8v12H14c1.1,0,1.9-0.3,2.4-0.9
	c0.5-0.6,0.8-1.6,0.8-3v-3.4H17.3z"/>
</svg>
