<?xml version="1.0" encoding="utf-8"?>
<!-- Generator: Adobe Illustrator 23.0.0, SVG Export Plug-In . SVG Version: 6.00 Build 0)  -->
<svg version="1.0" id="Layer_1" xmlns="http://www.w3.org/2000/svg" xmlns:xlink="http://www.w3.org/1999/xlink" x="0px" y="0px"
	 viewBox="0 0 50 50" enable-background="new 0 0 50 50" xml:space="preserve">
<g id="Black__x26__White_4_">
	<g id="Pyramid_6_">
		<polygon id="Side_6_" points="15.5,40.5 16.7,38 13.9,40.5 		"/>
		<polygon id="Face_6_" fill="#FFC000" points="15.5,40.5 16.7,38 19.4,40.5 		"/>
		<polygon id="Shadow_6_" opacity="0.1" fill="#FFFFFF" enable-background="new    " points="16.7,38 19.4,40.5 20.1,40.5 		"/>
	</g>
	<path id="whiti" opacity="0.1" fill="#FFFFFF" enable-background="new    " d="M40.5,28.1h-2.3V26H45v2.1h-2.3v12.4h-2.1V28.1
		 M30.2,26H37v2.1h-4.5V32h3.7v1.9h-3.7v4.5H37v2.1h-6.8L30.2,26 M26.6,26h2.1v14.6h-2.1l-2.7-8.2v8.2h-2.1V26h2.1l2.7,8.5V26z
		 M39,23.1c-0.6-0.6-0.8-1.6-0.8-2.7v-0.8h2.1v1c0,1,0.4,1.4,1.2,1.4c0.4,0,0.8-0.2,1-0.4c0.2-0.2,0.4-0.6,0.4-1.2
		c0-0.6-0.2-1.2-0.4-1.6s-0.8-1-1.6-1.6c-1-0.8-1.6-1.6-1.9-2.1c-0.4-0.6-0.6-1.4-0.6-2.1c0-1.2,0.2-1.9,0.8-2.5s1.4-1,2.5-1
		s1.9,0.4,2.5,1C44.6,11,45,11.8,45,13v0.6h-2.1V13c0-0.4,0-0.8-0.2-1c-0.4-0.4-0.6-0.6-1-0.6c-0.8,0-1.2,0.4-1.2,1.4
		c0,0.6,0.2,1,0.4,1.4s0.8,1,1.6,1.6c1,0.8,1.6,1.6,1.9,2.1c0.4,1,0.6,1.7,0.6,2.5c0,1.2-0.4,2.1-1,2.7s-1.4,1-2.5,1
		C40.5,24,39.6,23.6,39,23.1z M37,23.3c0-0.2,0-0.6,0-1v-2.7c0-0.8-0.2-1.6-0.4-2.1c-0.2-0.6-0.6-0.8-1.2-1l0,0
		c1-0.4,1.6-1.4,1.6-2.9v-0.8c0-1.2-0.2-1.9-0.8-2.5s-1.6-0.8-2.7-0.8h-3.3V24h2.3v-6.2h0.8c0.6,0,1,0.2,1.2,0.4
		c0.2,0.2,0.4,0.8,0.4,1.4v2.7c0,0.6,0,1,0,1.2c0,0.2,0,0.4,0.2,0.6h2.1C37.2,23.6,37,23.4,37,23.3z M34.7,14.1c0,0.6-0.2,1-0.4,1.2
		s-0.6,0.4-1,0.4h-0.8v-4.1h1c0.4,0,0.8,0.2,1,0.4s0.2,0.6,0.2,1.2V14.1z M27.7,10.4c-0.4-0.6-1.4-1-2.5-1h-3.5V24h3.5
		c1.2,0,1.9-0.4,2.5-1s0.8-1.6,0.8-2.7V13C28.7,11.8,28.3,11,27.7,10.4z M26.4,20.5c0,0.6-0.2,0.8-0.4,1.2c-0.2,0.2-0.6,0.4-0.8,0.4
		H24V11.6h1.2c0.4,0,0.6,0.2,0.8,0.4c0.2,0.2,0.4,0.6,0.4,1.2V20.5z M14.5,9.5h2.3v12.4h3.9V24h-6.2V9.5 M11.6,16.3L11.6,16.3
		c0.4-0.2,0.8-0.6,1-1c0.4-0.6,0.4-1.2,0.4-1.9v-0.6c0-1.2-0.2-1.9-0.8-2.5c-0.6-0.6-1.4-0.8-2.5-0.8H6.2V24h3.7
		c1.2,0,1.9-0.4,2.5-1s1-1.4,1-2.5v-1.2C13.2,17.6,12.8,16.7,11.6,16.3z M8.5,11.6h1.2c0.4,0,0.8,0.2,1,0.4s0.2,0.6,0.2,1.2v0.8
		c0,0.6-0.2,1-0.4,1.2c-0.2,0.2-0.6,0.2-1.2,0.2H8.5V11.6z M11,20.5c0,0.6-0.2,1-0.4,1.2c-0.2,0-0.4,0.2-0.8,0.2H8.5v-4.5h1
		c0.6,0,1,0.2,1.2,0.4c0.2,0.2,0.4,0.8,0.4,1.4V20.5z"/>
	<path id="blacki" d="M39.4,28.1H37V26h6.8v2.1h-2.3v12.4h-2.1L39.4,28.1 M29.1,26h6.8v2.1h-4.5V32h3.7v1.9h-3.7v4.5h4.5v2.1h-6.8
		V26 M25.4,26h2.1v14.6h-2.1l-2.7-8.2v8.2h-2.1V26h2.1l2.7,8.5V26z M37.8,23.1c-0.6-0.6-0.8-1.6-0.8-2.7v-0.8h2.1v1
		c0,1,0.4,1.4,1.2,1.4c0.4,0,0.8-0.2,1-0.4c0.2-0.2,0.4-0.6,0.4-1.2c0-0.6-0.2-1.2-0.4-1.6c-0.2-0.4-0.8-1-1.6-1.6
		c-1-0.8-1.6-1.6-1.9-2.1c-0.4-0.6-0.6-1.4-0.6-2.1c0-1.2,0.2-1.9,0.8-2.5c0.6-0.6,1.4-1,2.5-1s1.9,0.4,2.5,1
		c0.4,0.6,0.8,1.4,0.8,2.5v0.6h-2.1V13c0-0.4,0-0.8-0.2-1c-0.4-0.4-0.6-0.6-1-0.6c-0.8,0-1.2,0.4-1.2,1.4c0,0.6,0.2,1,0.4,1.4
		s0.8,1,1.6,1.6c1,0.8,1.6,1.6,1.9,2.1c0.4,1,0.6,1.7,0.6,2.5c0,1.2-0.4,2.1-1,2.7c-0.6,0.6-1.4,1-2.5,1
		C39.4,24,38.4,23.6,37.8,23.1z M35.9,23.3c0-0.2,0-0.6,0-1v-2.7c0-0.8-0.2-1.6-0.4-2.1c-0.2-0.6-0.6-0.8-1.2-1l0,0
		c1-0.4,1.6-1.4,1.6-2.9v-0.8c0-1.2-0.2-1.9-0.8-2.5c-0.6-0.6-1.6-0.8-2.7-0.8h-3.3V24h2.3v-6.2h0.8c0.6,0,1,0.2,1.2,0.4
		c0.2,0.2,0.4,0.8,0.4,1.4v2.7c0,0.6,0,1,0,1.2c0,0.2,0,0.4,0.2,0.6h2.1C36.1,23.6,35.9,23.4,35.9,23.3z M33.5,14.1
		c0,0.6-0.2,1-0.4,1.2c-0.2,0.2-0.6,0.4-1,0.4h-0.8v-4.1h1c0.4,0,0.8,0.2,1,0.4c0.2,0.2,0.2,0.6,0.2,1.2
		C33.5,13.2,33.5,14.1,33.5,14.1z M26.6,10.4c-0.4-0.6-1.4-1-2.5-1h-3.5V24H24c1.2,0,1.9-0.4,2.5-1c0.6-0.6,0.8-1.6,0.8-2.7V13
		C27.5,11.8,27.1,11,26.6,10.4z M25.2,20.5c0,0.6-0.2,0.8-0.4,1.2c-0.2,0.2-0.6,0.4-0.8,0.4h-1.2V11.6H24c0.4,0,0.6,0.2,0.8,0.4
		s0.4,0.6,0.4,1.2C25.2,13.2,25.2,20.5,25.2,20.5z M13.3,9.5h2.3v12.4h3.9V24h-6.2V9.5 M10.4,16.3L10.4,16.3c0.4-0.2,0.8-0.6,1-1
		c0.4-0.6,0.4-1.2,0.4-1.9v-0.6c0-1.2-0.2-1.9-0.8-2.5c-0.6-0.6-1.4-0.8-2.5-0.8H5V24h3.7c1.2,0,1.9-0.4,2.5-1s1-1.4,1-2.5v-1.2
		C12,17.6,11.6,16.7,10.4,16.3z M7.3,11.6h1.2c0.4,0,0.8,0.2,1,0.4s0.2,0.6,0.2,1.2v0.8c0,0.6-0.2,1-0.4,1.2
		c-0.2,0.2-0.6,0.2-1.2,0.2H7.3V11.6z M9.9,20.5c0,0.6-0.2,1-0.4,1.2c-0.2,0-0.4,0.2-0.8,0.2H7.3v-4.5h1c0.6,0,1,0.2,1.2,0.4
		c0.2,0.2,0.4,0.8,0.4,1.4V20.5z"/>
	<path id="yellowi" fill="#FFC000" d="M40,28.1h-2.3V26h6.8v2.1h-2.3v12.4H40L40,28.1 M29.7,26h6.8v2.1H32V32h3.7v1.9H32v4.5h4.5
		v2.1h-6.8V26 M26,26h2.1v14.6H26l-2.7-8.2v8.2h-2.1V26h2.1l2.7,8.5V26z M38.4,23.1c-0.6-0.6-0.8-1.6-0.8-2.7v-0.8h2.1v1
		c0,1,0.4,1.4,1.2,1.4c0.4,0,0.8-0.2,1-0.4c0.2-0.2,0.4-0.6,0.4-1.2c0-0.6-0.2-1.2-0.4-1.6s-0.8-1-1.6-1.6c-1-0.8-1.6-1.6-1.9-2.1
		c-0.4-0.6-0.6-1.4-0.6-2.1c0-1.2,0.2-1.9,0.8-2.5c0.6-0.6,1.4-1,2.5-1c1.2,0,1.9,0.4,2.5,1c0.4,0.6,0.8,1.4,0.8,2.5v0.6h-2.1V13
		c0-0.4,0-0.8-0.2-1c-0.4-0.4-0.6-0.6-1-0.6c-0.8,0-1.2,0.4-1.2,1.4c0,0.6,0.2,1,0.4,1.4s0.8,1,1.6,1.6c1,0.8,1.6,1.6,1.9,2.1
		c0.4,1,0.6,1.7,0.6,2.5c0,1.2-0.4,2.1-1,2.7c-0.6,0.6-1.4,1-2.5,1C40,24,39,23.6,38.4,23.1z M36.5,23.3c0-0.2,0-0.6,0-1v-2.7
		c0-0.8-0.2-1.6-0.4-2.1c-0.2-0.6-0.6-0.8-1.2-1l0,0c1-0.4,1.6-1.4,1.6-2.9v-0.8c0-1.2-0.2-1.9-0.8-2.5c-0.6-0.6-1.6-0.8-2.7-0.8
		h-3.3V24H32v-6.2h0.8c0.6,0,1,0.2,1.2,0.4c0.2,0.2,0.4,0.8,0.4,1.4v2.7c0,0.6,0,1,0,1.2c0,0.2,0,0.4,0.2,0.6h2.1
		C36.7,23.6,36.5,23.4,36.5,23.3z M34.1,14.1c0,0.6-0.2,1-0.4,1.2c-0.2,0.2-0.6,0.4-1,0.4H32v-4.1h1c0.4,0,0.8,0.2,1,0.4
		s0.2,0.6,0.2,1.2C34.1,13.2,34.1,14.1,34.1,14.1z M27.1,10.4c-0.4-0.6-1.4-1-2.5-1h-3.5V24h3.5c1.2,0,1.9-0.4,2.5-1
		c0.6-0.6,0.8-1.6,0.8-2.7V13C28.1,11.8,27.7,11,27.1,10.4z M25.8,20.5c0,0.6-0.2,0.8-0.4,1.2c-0.2,0.2-0.6,0.4-0.8,0.4h-1.2V11.6
		h1.2c0.4,0,0.6,0.2,0.8,0.4c0.2,0.2,0.4,0.6,0.4,1.2V20.5z M13.9,9.5h2.3v12.4h3.9V24h-6.2V9.5 M11,16.3L11,16.3
		c0.4-0.2,0.8-0.6,1-1c0.4-0.6,0.4-1.2,0.4-1.9v-0.6c0-1.2-0.2-1.9-0.8-2.5C11,9.7,10.2,9.5,9.1,9.5H5.6V24h3.7c1.2,0,1.9-0.4,2.5-1
		s1-1.4,1-2.5v-1.2C12.6,17.6,12.2,16.7,11,16.3z M7.9,11.6h1.2c0.4,0,0.8,0.2,1,0.4c0.2,0.2,0.2,0.6,0.2,1.2v0.8
		c0,0.6-0.2,1-0.4,1.2c-0.2,0.2-0.6,0.2-1.2,0.2H7.9V11.6z M10.4,20.5c0,0.6-0.2,1-0.4,1.2c-0.2,0-0.4,0.2-0.8,0.2H7.9v-4.5h1
		c0.6,0,1,0.2,1.2,0.4c0.2,0.2,0.4,0.8,0.4,1.4V20.5z"/>
</g>
</svg>
