<?xml version="1.0" encoding="utf-8"?>
<!-- Generator: Adobe Illustrator 23.0.0, SVG Export Plug-In . SVG Version: 6.00 Build 0)  -->
<svg version="1.0" id="Layer_1" xmlns="http://www.w3.org/2000/svg" xmlns:xlink="http://www.w3.org/1999/xlink" x="0px" y="0px"
	 viewBox="0 0 22 18" enable-background="new 0 0 22 18" xml:space="preserve">
<g id="Black__x26__White_2_">
	<rect id="recBG_4_" y="0" fill="#FFFFFF" width="22" height="18"/>
	<rect id="sqBG_1_" y="-2" fill="#E90000" width="22" height="22"/>
	<polyline id="T_2_" points="18.7,10.6 17.5,10.6 17.5,9.5 21,9.5 21,10.6 19.8,10.6 19.8,17 18.7,17 18.7,10.6 	"/>
	<polyline id="E_2_" points="13.4,9.5 16.9,9.5 16.9,10.6 14.6,10.6 14.6,12.6 16.5,12.6 16.5,13.6 14.6,13.6 14.6,15.9 16.9,15.9 
		16.9,17 13.4,17 13.4,9.5 	"/>
	<polygon id="N_2_" points="11.5,9.5 12.6,9.5 12.6,17 11.5,17 10.1,12.8 10.1,17 9,17 9,9.5 10.1,9.5 11.5,13.9 	"/>
	<g id="Pyramid_2_">
		<polygon id="Side_2_" points="6.1,17 6.7,15.7 5.3,17 		"/>
		<polygon id="Face_2_" fill="#FFC000" points="6.1,17 6.7,15.7 8.1,17 		"/>
		<polygon id="Shadow_2_" opacity="0" fill="#FFFFFF" points="6.7,15.7 8.1,17 8.5,17 		"/>
	</g>
	<path id="S_2_" fill="#FFFFFF" d="M17.9,8c-0.3-0.3-0.4-0.8-0.4-1.4V6.2h1.1v0.5c0,0.5,0.2,0.7,0.6,0.7c0.2,0,0.4-0.1,0.5-0.2
		c0.1-0.1,0.2-0.3,0.2-0.6c0-0.3-0.1-0.6-0.2-0.8c-0.1-0.2-0.4-0.5-0.8-0.8c-0.5-0.4-0.8-0.8-1-1.1c-0.2-0.3-0.3-0.7-0.3-1.1
		c0-0.6,0.1-1,0.4-1.3C18.3,1.2,18.7,1,19.3,1c0.6,0,1,0.2,1.3,0.5C20.8,1.8,21,2.2,21,2.8v0.3h-1.1V2.8c0-0.2,0-0.4-0.1-0.5
		C19.6,2.1,19.5,2,19.3,2c-0.4,0-0.6,0.2-0.6,0.7c0,0.3,0.1,0.5,0.2,0.7s0.4,0.5,0.8,0.8c0.5,0.4,0.8,0.8,1,1.1
		C20.9,5.8,21,6.2,21,6.6c0,0.6-0.2,1.1-0.5,1.4c-0.3,0.3-0.7,0.5-1.3,0.5C18.7,8.5,18.2,8.3,17.9,8z"/>
	<path id="R_2_" fill="#FFFFFF" d="M16.9,8.1c0-0.1,0-0.3,0-0.5V6.2c0-0.4-0.1-0.8-0.2-1.1c-0.1-0.3-0.3-0.4-0.6-0.5v0
		c0.5-0.2,0.8-0.7,0.8-1.5V2.7c0-0.6-0.1-1-0.4-1.3C16.2,1.1,15.7,1,15.1,1h-1.7v7.5h1.2V5.3H15c0.3,0,0.5,0.1,0.6,0.2
		c0.1,0.1,0.2,0.4,0.2,0.7v1.4c0,0.3,0,0.5,0,0.6c0,0.1,0,0.2,0.1,0.3H17C17,8.3,16.9,8.2,16.9,8.1z M15.7,3.4
		c0,0.3-0.1,0.5-0.2,0.6c-0.1,0.1-0.3,0.2-0.5,0.2h-0.4V2.1h0.5c0.2,0,0.4,0.1,0.5,0.2c0.1,0.1,0.1,0.3,0.1,0.6V3.4z"/>
	<path id="D_2_" fill="#FFFFFF" d="M12.1,1.5C11.9,1.2,11.4,1,10.8,1H9v7.5h1.8c0.6,0,1-0.2,1.3-0.5c0.3-0.3,0.4-0.8,0.4-1.4V2.8
		C12.6,2.2,12.4,1.8,12.1,1.5z M11.4,6.7c0,0.3-0.1,0.4-0.2,0.6c-0.1,0.1-0.3,0.2-0.4,0.2h-0.6V2.1h0.6c0.2,0,0.3,0.1,0.4,0.2
		c0.1,0.1,0.2,0.3,0.2,0.6V6.7z"/>
	<polyline id="L_2_" fill="#FFFFFF" enable-background="new    " points="5.3,1 6.5,1 6.5,7.4 8.5,7.4 8.5,8.5 5.3,8.5 5.3,1 	"/>
	<path id="B_2_" fill="#FFFFFF" d="M3.8,4.5L3.8,4.5C4,4.4,4.2,4.2,4.3,4C4.5,3.7,4.5,3.4,4.5,3V2.7c0-0.6-0.1-1-0.4-1.3
		S3.4,1,2.8,1H1v7.5h1.9c0.6,0,1-0.2,1.3-0.5c0.3-0.3,0.5-0.7,0.5-1.3V6.1C4.6,5.2,4.4,4.7,3.8,4.5z M2.2,2.1h0.6
		c0.2,0,0.4,0.1,0.5,0.2c0.1,0.1,0.1,0.3,0.1,0.6v0.4c0,0.3-0.1,0.5-0.2,0.6C3.1,4,2.9,4,2.6,4H2.2V2.1z M3.5,6.7
		c0,0.3-0.1,0.5-0.2,0.6C3.2,7.3,3.1,7.4,2.9,7.4H2.2V5.1h0.5c0.3,0,0.5,0.1,0.6,0.2C3.4,5.4,3.5,5.7,3.5,6V6.7z"/>
</g>
</svg>
