<?xml version="1.0" encoding="utf-8"?>
<!-- Generator: Adobe Illustrator 23.0.0, SVG Export Plug-In . SVG Version: 6.00 Build 0)  -->
<svg version="1.0" id="Layer_1" xmlns="http://www.w3.org/2000/svg" xmlns:xlink="http://www.w3.org/1999/xlink" x="0px" y="0px"
	 viewBox="0 0 50 50" enable-background="new 0 0 50 50" xml:space="preserve">
<radialGradient id="insta3_1_" cx="-169.3284" cy="427.4377" r="0.991" gradientTransform="matrix(3.061434e-15 -50.004 -46.5472 -2.850594e-15 19909.5996 -8412.9932)" gradientUnits="userSpaceOnUse">
	<stop  offset="0" style="stop-color:#FFDD55"/>
	<stop  offset="0.1" style="stop-color:#FFDD55"/>
	<stop  offset="0.5" style="stop-color:#FF543E"/>
	<stop  offset="1" style="stop-color:#C837AB"/>
</radialGradient>
<path id="insta3" fill="url(#insta3_1_)" d="M25,0C14.6,0,11.5,0,10.9,0.1C9.2,0.1,7.5,0.6,6,1.3C4.9,1.8,4,2.5,3.1,3.4
	C1.5,5.1,0.5,7.2,0.2,9.5C0.1,10.7,0,10.9,0,16.9c0,2,0,4.6,0,8.1c0,10.4,0,13.5,0.1,14.1c0.1,1.7,0.5,3.3,1.2,4.8
	c1.4,2.8,3.8,4.8,6.8,5.6c1.2,0.3,2.4,0.4,3.6,0.5c0.6,0,6.9,0,13.2,0s12.6,0,13.2,0c1.3,0,2.5-0.2,3.8-0.5c3-0.8,5.5-2.8,6.8-5.6
	c0.7-1.5,1.1-3.1,1.2-4.7c0-0.4,0-7.3,0-14.2s0-13.7,0-14.1c-0.1-1.7-0.5-3.3-1.2-4.8c-0.5-1.1-1.3-2.1-2.1-2.9
	c-1.7-1.6-3.8-2.6-6.1-2.9C39.4,0.1,39.1,0,33.1,0H25z"/>
<radialGradient id="insta2_1_" cx="-153.9594" cy="432.3474" r="0.443" gradientTransform="matrix(9.7994 49.0539 202.1879 -40.5032 -85908.8047 25066.8867)" gradientUnits="userSpaceOnUse">
	<stop  offset="0" style="stop-color:#3771C8"/>
	<stop  offset="0.128" style="stop-color:#3771C8"/>
	<stop  offset="1" style="stop-color:#6600FF;stop-opacity:0"/>
</radialGradient>
<path id="insta2" fill="url(#insta2_1_)" d="M25,0C14.6,0,11.5,0,10.9,0.1C9.2,0.1,7.5,0.6,6,1.3C4.9,1.8,4,2.5,3.1,3.4
	C1.5,5.1,0.5,7.2,0.2,9.5C0.1,10.7,0,10.9,0,16.9c0,2,0,4.6,0,8.1c0,10.4,0,13.5,0.1,14.1c0.1,1.7,0.5,3.3,1.2,4.8
	c1.4,2.8,3.8,4.8,6.8,5.6c1.2,0.3,2.4,0.4,3.6,0.5c0.6,0,6.9,0,13.2,0s12.6,0,13.2,0c1.3,0,2.5-0.2,3.8-0.5c3-0.8,5.5-2.8,6.8-5.6
	c0.7-1.5,1.1-3.1,1.2-4.7c0-0.4,0-7.3,0-14.2s0-13.7,0-14.1c-0.1-1.7-0.5-3.3-1.2-4.8c-0.5-1.1-1.3-2.1-2.1-2.9
	c-1.7-1.6-3.8-2.6-6.1-2.9C39.4,0.1,39.1,0,33.1,0H25z"/>
<path id="insta1" fill="#FFFFFF" d="M25,6.5c-5,0-5.6,0-7.6,0.1c-1.5,0-3,0.3-4.5,0.9c-2.5,1-4.4,2.9-5.4,5.4
	c-0.5,1.4-0.8,2.9-0.9,4.5c-0.1,2-0.1,2.6-0.1,7.6s0,5.6,0.1,7.6c0,1.5,0.3,3,0.9,4.5c1,2.5,2.9,4.4,5.4,5.4
	c1.4,0.5,2.9,0.8,4.5,0.9c2,0.1,2.6,0.1,7.6,0.1s5.6,0,7.6-0.1c1.5,0,3-0.3,4.5-0.9c2.5-1,4.4-2.9,5.4-5.4c0.5-1.4,0.8-2.9,0.9-4.5
	c0.1-2,0.1-2.6,0.1-7.6s0-5.6-0.1-7.6c0-1.5-0.3-3-0.9-4.5c-1-2.5-2.9-4.4-5.4-5.4c-1.4-0.5-3-0.8-4.5-0.9C30.6,6.6,30,6.5,25,6.5
	L25,6.5z M23.3,9.9H25c4.9,0,5.5,0,7.5,0.1c1.2,0,2.3,0.2,3.4,0.6c1.6,0.6,2.9,1.9,3.5,3.5c0.4,1.1,0.6,2.3,0.6,3.4
	c0.1,1.9,0.1,2.5,0.1,7.5s0,5.5-0.1,7.5c0,1.2-0.2,2.3-0.6,3.4c-0.6,1.6-1.9,2.9-3.5,3.5c-1.1,0.4-2.3,0.6-3.4,0.6
	c-1.9,0.1-2.5,0.1-7.5,0.1s-5.5,0-7.5-0.1c-1.2,0-2.3-0.2-3.4-0.6c-1.6-0.6-2.9-1.9-3.5-3.5c-0.4-1.1-0.6-2.3-0.6-3.4
	c-0.1-1.9-0.1-2.5-0.1-7.5s0-5.5,0.1-7.5c0-1.2,0.2-2.3,0.6-3.4c0.6-1.6,1.9-2.9,3.5-3.5c1.1-0.4,2.3-0.6,3.4-0.6
	C19.2,9.9,19.9,9.9,23.3,9.9L23.3,9.9z M34.8,12.9c-1.2,0-2.2,1-2.2,2.2s1,2.2,2.2,2.2c1.2,0,2.2-1,2.2-2.2S36.1,12.9,34.8,12.9
	L34.8,12.9z M25,15.5c-5.2,0-9.5,4.2-9.5,9.5c0,5.2,4.2,9.5,9.5,9.5c5.2,0,9.5-4.2,9.5-9.5c0,0,0,0,0,0C34.5,19.8,30.2,15.5,25,15.5
	z M25,18.8c3.4,0,6.2,2.8,6.2,6.2c0,3.4-2.8,6.2-6.2,6.2c-3.4,0-6.2-2.8-6.2-6.2c0,0,0,0,0,0C18.8,21.6,21.6,18.8,25,18.8z"/>
</svg>
