<?xml version="1.0" encoding="utf-8"?>
<!-- Generator: Adobe Illustrator 23.0.0, SVG Export Plug-In . SVG Version: 6.00 Build 0)  -->
<svg version="1.0" id="Layer_1" xmlns="http://www.w3.org/2000/svg" xmlns:xlink="http://www.w3.org/1999/xlink" x="0px" y="0px"
	 viewBox="0 0 50 50" enable-background="new 0 0 50 50" xml:space="preserve">
<path id="button50" fill="#2CA7E0" d="M50,11.4v27.2c0,2.8-1,5.4-2.8,7.5c-0.3,0.3-0.6,0.6-0.9,0.9c-0.1,0-0.1,0.1-0.2,0.1
	C44,49,41.4,50,38.6,50H11.4c-2.8,0-5.4-1-7.5-2.8c-0.3-0.3-0.7-0.6-0.9-0.9c0,0-0.1-0.1-0.1-0.1C1,44,0,41.4,0,38.6V11.4
	C0,8.6,1,6,2.8,3.9c0.3-0.4,0.7-0.7,1.1-1.1C6,1,8.6,0,11.4,0h27.2c2.8,0,5.4,1,7.5,2.8c0.4,0.3,0.7,0.7,1.1,1.1
	C49,6,50,8.6,50,11.4z"/>
<path id="_3asfoora" fill="#FFFAF0" d="M32.8,17.4l1.8-1.3c0.1-0.1,0.2-0.1,0.3,0c0.1,0.1,0.1,0.2,0,0.4l-1.7,2.3
	c0,0.1,0,0.2,0.1,0.3l2.4-0.9c0.1,0,0.2,0,0.3,0.1c0.1,0.1,0.1,0.3,0,0.3l-2.4,2.2c0.3,3-0.5,6-2.1,8.6c-3.5,5.7-11,7.5-16.7,4
	c-0.2-0.1-0.5-0.3-0.7-0.5c2.1,0,4.2-0.6,6-1.7c-1.8-0.4-3.3-1.6-4.1-3.2c1.2,0.2,2.4,0.2,3.5-0.1c-2.7-0.8-4.7-3-5.4-5.7
	c0.8,0.7,1.8,1,2.8,0.8c-0.1,0-0.2-0.1-0.2-0.1c-2-1.3-2.8-3.9-1.6-6c2.4,2.9,6.2,4.3,9.9,3.8c-0.4-1.9,0.5-3.8,2.2-4.8
	c2-1.1,4.5-0.4,5.6,1.6C32.7,17.2,32.8,17.3,32.8,17.4z"/>
</svg>
