<?xml version="1.0" encoding="utf-8"?>
<!-- Generator: Adobe Illustrator 23.0.0, SVG Export Plug-In . SVG Version: 6.00 Build 0)  -->
<svg version="1.0" id="Layer_1" xmlns="http://www.w3.org/2000/svg" xmlns:xlink="http://www.w3.org/1999/xlink" x="0px" y="0px"
	 width="50px" height="50px" viewBox="0 0 50 50" enable-background="new 0 0 50 50" xml:space="preserve">
<path id="website_shape_1_" fill="#FFFFFF" d="M39.9,8.7C32,1.5,20,0.9,11.4,7.4C11,7.8,10.3,8.3,9.8,8.7C0.8,17.1-0.1,31,8,40.4
	c8,8.6,21.2,9.8,30.5,2.7c0.5-0.4,1.1-0.9,1.6-1.3c9.1-8.5,9.3-22.5,1.1-31.7l0,0C40.8,9.6,40.4,9.1,39.9,8.7L39.9,8.7z M39.2,39
	c-1.1-0.9-2.3-1.8-3.6-2.5c1.1-3.4,1.5-6.7,1.7-10.3c3,0,4.4,0,7.4,0C44.6,31.2,42.6,35.7,39.2,39L39.2,39z M37.2,40.8
	C37,41,36.8,41,36.5,41.3c-0.2,0.2-0.7,0.4-0.9,0.7c-0.2,0.2-0.5,0.2-0.7,0.4c-0.2,0.2-0.5,0.2-0.7,0.4c-0.2,0.2-0.5,0.2-0.7,0.2
	c-0.2,0.2-0.7,0.2-0.9,0.4c-0.2,0-0.5,0.2-0.7,0.2c1.1-1.6,2-3.1,2.9-4.7C35.6,39.5,36.5,40.1,37.2,40.8L37.2,40.8L37.2,40.8z
	 M16.2,43.1c-0.2,0-0.5-0.2-0.7-0.2c-0.2-0.2-0.7-0.2-0.9-0.4c-0.2-0.2-0.5-0.2-0.7-0.4c-0.2-0.2-0.7-0.4-0.9-0.7
	c-0.2-0.2-0.5-0.2-0.7-0.4c0,0-0.2,0-0.2-0.2c0.9-0.7,1.6-1.1,2.5-1.8c0.7,1.8,1.6,3.4,2.9,4.7c-0.2,0-0.5-0.2-0.7-0.2
	C16.8,43.5,16.6,43.3,16.2,43.1L16.2,43.1z M10.7,11.4c1.1,0.9,2.2,1.8,3.6,2.5c-1.1,3.4-1.6,6.7-1.8,10.3c-3,0-4.4,0-7.4,0
	C5.3,19.3,7.3,14.8,10.7,11.4L10.7,11.4z M12.7,9.4c0.2-0.2,0.4-0.2,0.7-0.4c0.2-0.2,0.7-0.4,0.9-0.7C14.5,8,14.7,8,15,7.8
	c0.2-0.2,0.7-0.4,0.9-0.4c0.2-0.2,0.4-0.2,0.7-0.2c0.2-0.2,0.7-0.2,0.9-0.4c0.2,0,0.4-0.2,0.7-0.2c-1.1,1.6-2,3.1-2.9,4.7
	C14.3,10.9,13.4,10.3,12.7,9.4C12.5,9.6,12.7,9.6,12.7,9.4L12.7,9.4z M33.5,7.1c0.2,0,0.4,0.2,0.7,0.2c0.2,0.2,0.7,0.2,0.9,0.4
	C35.2,8,35.5,8,35.7,8.3c0.2,0.2,0.7,0.4,0.9,0.7c0.2,0.2,0.4,0.2,0.7,0.4c0,0,0.2,0,0.2,0.2c-0.9,0.7-1.6,1.1-2.4,1.8
	c-0.7-1.8-1.6-3.4-2.9-4.7c0.2,0,0.4,0.2,0.7,0.2C32.8,6.9,33,7.1,33.5,7.1L33.5,7.1z M23.7,13.9c-2.2-0.2-4.2-0.7-6.3-1.6
	c1.6-3.8,3.8-6.3,6.3-7C23.7,8.7,23.7,10.5,23.7,13.9z M23.7,16.3c0,3.1,0,4.6,0,7.6c-3.5,0-5.3,0-8.8,0c0-3.1,0.7-6.1,1.6-9.2
	C18.7,15.7,21.2,16.3,23.7,16.3L23.7,16.3z M23.6,26.4c0,3.1,0,4.6,0,7.6c-2.5,0.2-5,0.7-7.2,1.6c-0.9-2.9-1.3-6.1-1.5-9.2
	C18.4,26.4,20.1,26.4,23.6,26.4z M23.6,36.6c0,3.3,0,5,0,8.3c-2.5-0.7-4.8-3.4-6.3-7C19.4,37,21.4,36.6,23.6,36.6L23.6,36.6z
	 M26.1,36.6c2.3,0.2,4.3,0.7,6.3,1.6c-1.6,3.8-3.8,6.3-6.3,7C26.1,41.7,26.1,40,26.1,36.6z M26.1,33.9c0-3.1,0-4.6,0-7.6
	c3.5,0,5.3,0,8.8,0c0,3.1-0.6,6.1-1.5,9.2C31.1,34.8,28.6,34.1,26.1,33.9L26.1,33.9z M26.1,24c0-3.1,0-4.6,0-7.6
	c2.5-0.2,4.9-0.7,7.2-1.6c0.9,2.9,1.4,6.1,1.6,9.2C31.4,24,29.6,24,26.1,24L26.1,24z M26.1,13.9c0-3.4,0-5.1,0-8.5
	c2.4,0.7,4.7,3.4,6.3,7C30.4,13.2,28.3,13.9,26.1,13.9L26.1,13.9z M12.4,26.4c0,3.4,0.6,7,1.7,10.3c-1.4,0.7-2.5,1.6-3.6,2.5
	C7.2,35.9,5.2,31.4,5,26.7c3,0,4.4,0,7.4,0C12.4,26.6,12.4,26.5,12.4,26.4z M37.3,24c0-3.4-0.7-7-1.8-10.3c1.3-0.7,2.4-1.6,3.6-2.5
	c3.4,3.4,5.4,7.9,5.7,12.6c-3,0-4.4,0-7.4,0C37.3,23.8,37.3,23.9,37.3,24z"/>
</svg>
