<?xml version="1.0" encoding="utf-8"?>
<!-- Generator: Adobe Illustrator 23.0.0, SVG Export Plug-In . SVG Version: 6.00 Build 0)  -->
<svg version="1.0" id="Layer_1" xmlns="http://www.w3.org/2000/svg" xmlns:xlink="http://www.w3.org/1999/xlink" x="0px" y="0px"
	 viewBox="0 0 50 50" enable-background="new 0 0 50 50" xml:space="preserve">
<path id="button" fill="#FFFFFF" d="M50,11.4v27.2c0,2.8-1,5.4-2.8,7.5c-0.3,0.3-0.6,0.6-0.9,0.9c-0.1,0-0.1,0.1-0.2,0.1
	C44,49,41.4,50,38.6,50H11.4c-2.8,0-5.4-1-7.5-2.8c-0.3-0.3-0.7-0.6-0.9-0.9l-0.1-0.1C1,44,0,41.4,0,38.6V11.4C0,8.6,1,6,2.8,3.9
	c0.3-0.4,0.7-0.7,1.1-1.1C6,1,8.6,0,11.4,0h27.2c2.8,0,5.4,1,7.5,2.8c0.4,0.3,0.7,0.7,1.1,1.1C49,6,50,8.6,50,11.4z"/>
<path id="in" fill="#0073B0" d="M11.7,20.1h5.5v17.4h-5.5C11.7,37.5,11.7,20.1,11.7,20.1z M35.1,20.9c-2.7-2.2-6.7-1.7-8.9,1
	c0,0.1-0.1,0.1-0.1,0.2S26,22.2,26,22.3v-2.2h-5.5v17.4H26v-8.9c-0.2-1.9,1.1-3.7,2.9-4.2c0.2,0,0.3-0.1,0.5-0.1
	c1.5,0,2.7,1.1,2.7,2.6l0,0v10.6h5.5v-12C37.3,23.7,36.5,22,35.1,20.9L35.1,20.9z M14.5,11.8c-1.6,0-2.9,1.2-2.9,2.7
	c0,1.6,1.2,2.9,2.7,2.9c1.6,0,2.9-1.2,2.9-2.7v-0.1C17.3,13.1,16,11.8,14.5,11.8z"/>
</svg>
