<?xml version="1.0" encoding="utf-8"?>
<!-- Generator: Adobe Illustrator 23.0.0, SVG Export Plug-In . SVG Version: 6.00 Build 0)  -->
<svg version="1.0" id="Layer_1" xmlns="http://www.w3.org/2000/svg" xmlns:xlink="http://www.w3.org/1999/xlink" x="0px" y="0px"
	 width="50px" height="50px" viewBox="0 0 50 50" enable-background="new 0 0 50 50" xml:space="preserve">
<path id="button50" fill="#FF0000" d="M50,11.4v27.2c0,2.8-1,5.4-2.8,7.5c-0.3,0.3-0.6,0.6-0.9,0.9c-0.1,0-0.1,0.1-0.2,0.1
	C44,49,41.4,50,38.6,50H11.4c-2.8,0-5.4-1-7.5-2.8c-0.3-0.3-0.7-0.6-0.9-0.9l-0.1-0.1C1,44,0,41.4,0,38.6V11.4C0,8.6,1,6,2.8,3.9
	c0.3-0.4,0.7-0.7,1.1-1.1C6,1,8.6,0,11.4,0h27.2c2.8,0,5.4,1,7.5,2.8c0.4,0.3,0.7,0.7,1.1,1.1C49,6,50,8.6,50,11.4z"/>
<path id="youtube" fill="#FFFFFF" d="M17.9,35.7L36.5,25L17.9,14.3V35.7z"/>
</svg>
