<?xml version="1.0" encoding="utf-8"?>
<!-- Generator: Adobe Illustrator 23.0.0, SVG Export Plug-In . SVG Version: 6.00 Build 0)  -->
<svg version="1.0" id="Capa_1" xmlns="http://www.w3.org/2000/svg" xmlns:xlink="http://www.w3.org/1999/xlink" x="0px" y="0px"
	 width="50px" height="50px" viewBox="0 0 50 50" enable-background="new 0 0 50 50" xml:space="preserve">
<g>
	<path id="button50" fill="#BD081C" d="M50,11.4v27.2c0,2.8-1,5.4-2.8,7.5c-0.3,0.3-0.6,0.6-0.9,0.9c-0.1,0-0.1,0.1-0.2,0.1
		C44,49,41.4,50,38.6,50H11.4c-2.8,0-5.4-1-7.5-2.8c-0.3-0.3-0.7-0.6-0.9-0.9l-0.1-0.1C1,44,0,41.4,0,38.6V11.4C0,8.6,1,6,2.8,3.9
		c0.3-0.4,0.7-0.7,1.1-1.1C6,1,8.6,0,11.4,0h27.2c2.8,0,5.4,1,7.5,2.8c0.4,0.3,0.7,0.7,1.1,1.1C49,6,50,8.6,50,11.4z"/>
	<path fill="#FFFFFF" d="M17.6,41.9c-8.2-3.4-13.5-13.1-10.1-23C10.9,9.1,21.7,4,31.4,7.7C41.2,11.3,46,22,42.2,31.7
		c-3.9,10-14.4,13.5-22.3,11c0.6-1.5,1.3-2.9,1.7-4.4c0.5-1.5,0.8-3.1,1.2-4.5c0.3,0.3,0.6,0.6,1,0.8c1.7,1.4,3.7,1.5,5.8,1
		c2.2-0.5,3.9-1.8,5.2-3.6c2.2-3.1,2.9-6.6,2.4-10.3c-0.5-3.8-2.8-6.6-6.3-7.9c-5.3-2.1-10.4-1.4-14.7,2.4
		c-3.4,2.9-4.5,7.9-2.9,11.8c0.6,1.3,1.4,2.4,2.8,3c0.7,0.3,1,0.2,1.2-0.5c0-0.1,0-0.1,0.1-0.2c0.4-1,0.3-1.8-0.4-2.8
		c-1.2-1.7-1-3.8-0.4-5.7c1.1-3.7,4.4-6.1,8.2-6.2c1,0,2.1,0.1,3.1,0.3c3,0.7,4.9,3,5.1,6.1c0.2,2.4-0.2,4.8-1.3,7
		c-0.5,1.1-1.2,2.1-2.3,2.8c-1,0.7-2,0.9-3.2,0.6c-1.6-0.4-2.5-1.9-2.1-3.4c0.4-1.6,1-3.3,1.4-4.9c0.2-0.7,0.3-1.5,0.2-2.2
		c-0.2-1.9-2-2.8-3.7-1.9c-1.2,0.7-1.8,1.8-2,3c-0.3,1.3-0.1,2.6,0.3,3.9c0.1,0.3,0.1,0.6,0,0.8c-0.8,3.4-1.6,6.7-2.3,10.1
		c-0.2,1-0.2,2-0.2,3.1C17.6,41.5,17.6,41.7,17.6,41.9z"/>
</g>
</svg>
