<?xml version="1.0" encoding="utf-8"?>
<!-- Generator: Adobe Illustrator 23.0.0, SVG Export Plug-In . SVG Version: 6.00 Build 0)  -->
<svg version="1.0" id="Layer_1" xmlns="http://www.w3.org/2000/svg" xmlns:xlink="http://www.w3.org/1999/xlink" x="0px" y="0px"
	 width="50px" height="50px" viewBox="0 0 50 50" enable-background="new 0 0 50 50" xml:space="preserve">
<path id="apple" fill="#FFFFFF" d="M36.7,25.3c0.1,6.4,5.6,8.5,5.6,8.5c0,0.2-0.8,3-3,6c-1.8,2.5-3.5,5.1-6.5,5.1
	C30,45,29,43.2,25.9,43.2s-4.2,1.6-6.9,1.7c-2.8,0.1-4.9-2.8-6.7-5.3C8.5,34.5,5.8,25,9.6,18.5c1.8-3.2,5.1-5.2,8.8-5.2
	c2.7-0.1,5.3,1.8,6.9,1.8c1.7,0,4.8-2.3,8.1-1.9c1.4,0.1,5.2,0.6,7.7,4.2C41,17.5,36.7,20,36.7,25.3 M31.3,9.7
	c1.5-1.8,2.4-4.3,2.2-6.7c-2.2,0.1-4.7,1.4-6.1,3.2c-1.4,1.6-2.5,4.1-2.3,6.6C27.6,12.9,29.8,11.5,31.3,9.7"/>
</svg>
