<?xml version="1.0" encoding="utf-8"?>
<!-- Generator: Adobe Illustrator 23.0.0, SVG Export Plug-In . SVG Version: 6.00 Build 0)  -->
<svg version="1.0" id="Layer_1" xmlns="http://www.w3.org/2000/svg" xmlns:xlink="http://www.w3.org/1999/xlink" x="0px" y="0px"
	 viewBox="0 0 50 50" enable-background="new 0 0 50 50" xml:space="preserve">
<path id="gm8" fill="#1DA262" d="M43.7,1.2C42.1,0.4,40.4,0,38.6,0H11.4C8.6,0,6,1,3.9,2.8C3.5,3.1,3.1,3.5,2.8,3.9
	C1,6,0,8.6,0,11.4v27.2c0,1.8,0.4,3.5,1.2,5.1L43.7,1.2z"/>
<path id="gm7" fill="#3B5998" d="M25,30.1L6.3,48.8c1.6,0.8,3.3,1.2,5.1,1.2h27.2c1.8,0,3.5-0.4,5.1-1.2L25,30.1z"/>
<path id="gm6" fill="#F0F0F0" d="M25,30.1L25,30.1l18.7,18.7c0.9-0.4,1.7-1,2.5-1.6l0.2-0.1c0.3-0.3,0.6-0.6,0.9-0.9
	c0.6-0.7,1.2-1.6,1.6-2.5L30.1,25L25,30.1z"/>
<path id="gm5" fill="#FEDD48" d="M48.8,6.3c-0.4-0.9-1-1.7-1.6-2.5c-0.3-0.4-0.7-0.7-1.1-1.1c-0.7-0.6-1.6-1.2-2.5-1.6L1.2,43.7
	c0.4,0.9,1,1.7,1.6,2.5l0.1,0.1c0.3,0.3,0.6,0.6,0.9,0.9c0.7,0.6,1.6,1.2,2.5,1.6L25,30.1l5.1-5.1l0,0L48.8,6.3z"/>
<path id="gm4" fill="#CFCFCF" d="M48.8,43.7c0.8-1.6,1.2-3.3,1.2-5.1V11.4c0-1.8-0.4-3.5-1.2-5.1L30.1,25L48.8,43.7z"/>
<path id="gm3" fill="#EDEDED" d="M10.3,19.1c2.9,0.7,6-0.5,7.5-3.1c0.8-1.5,1.1-3.2,0.8-4.9c-2.2-0.2-4.6,0-6.8-0.1
	c0,0.8,0,1.7,0,2.5c1.4,0,2.7,0,4.1,0c-0.5,1.9-2.3,3.2-4.3,3c-2.5-0.2-4.3-2.3-4.2-4.8c0-0.5,0.1-1,0.3-1.4
	c0.9-2.2,3.5-3.3,5.7-2.4c0.5,0.2,0.9,0.4,1.2,0.8c0.7-0.6,1.3-1.3,2-1.9C13.8,4.1,9.2,4.3,6.6,7.2c-2.7,2.9-2.4,7.5,0.5,10.2
	C8,18.2,9.1,18.8,10.3,19.1L10.3,19.1z"/>
<path id="gm2" fill="#DC4B3E" d="M38.3,0h1.3c3.2,0.2,6.2,1.7,8.2,4.3c1.2,1.6,2,3.6,2.1,5.7v0.8c-0.1,4-2.6,7.2-4.8,10.3
	c-2.5,3.5-4.7,7.3-5.4,11.5c-0.2,0.7,0,1.7-0.8,2.1c-0.2-0.1-0.4-0.3-0.6-0.5c-0.2-2.4-0.9-4.7-1.9-6.9c-1.2-2.5-2.7-4.9-4.4-7.1
	c-1-1.3-1.9-2.8-2.7-4.2c-1.2-2.2-1.7-4.9-1.2-7.4c0.4-2,1.4-3.8,2.9-5.2C33,1.3,35.6,0.2,38.3,0z"/>
<path id="gm1" fill="#802C27" d="M38,7c1.8-0.4,3.7,0.5,4.5,2.2c0.6,1.4,0.2,3-0.9,4c-1.2,1.1-3,1.3-4.5,0.6c-1.3-0.7-2.1-2.1-2-3.6
	C35.3,8.6,36.5,7.3,38,7z"/>
</svg>
