<?xml version="1.0" encoding="utf-8"?>
<!-- Generator: Adobe Illustrator 23.0.0, SVG Export Plug-In . SVG Version: 6.00 Build 0)  -->
<svg version="1.0" id="Layer_1" xmlns="http://www.w3.org/2000/svg" xmlns:xlink="http://www.w3.org/1999/xlink" x="0px" y="0px"
	 width="50px" height="50px" viewBox="0 0 50 50" enable-background="new 0 0 50 50" xml:space="preserve">
<path opacity="0.25" fill="#FFFFFF" d="M46.1,8.8c-0.4-2-2-3-3.3-3c0,0-0.1,0-0.1,0c-0.2,0-0.5,0-0.7,0.1c-0.1,0-0.2,0-0.3,0
	c-0.1,0-0.2,0-0.2,0c-8.9,1.3-17.1,3.4-25.7,5.7c-2.5,0.7-5.2,1.4-7.8,2c0,0-0.1,0-0.1,0c-0.1,0-0.2,0-0.3,0c-0.1,0-0.3,0-0.4,0
	C5.8,13.9,4.3,15,3.9,17c-1.7,9.3-1.8,14.1-0.4,23.2c0.3,2.2,2.3,3.9,4.4,3.9c0.1,0,0.2,0,0.3,0c0,0,0,0,0.1,0
	c7.6-1,14.6-3.7,21.4-6.3c4.2-1.6,8.5-3.3,12.8-4.5c2.1-0.5,3.8-2.3,4.1-4.2C47.9,21,47.8,17,46.1,8.8z M24.6,21.9L24.6,21.9
	c-4-1.5-6.5-2.5-9.1-3.9c1.7-0.4,3.3-0.8,4.9-1.1c4.1-1,8.3-1.9,12.6-2.8C30.5,16.3,28.1,18.6,24.6,21.9z M24.1,28.2
	c0.1,0,0.2,0,0.3,0c0.4,0,0.8-0.1,1.2-0.2c0.5-0.2,0.9-0.4,1.3-0.7c1.1-0.5,2.2-1.3,2.9-2c4.2-4.3,6.7-6.6,9.5-9
	c0.7,4.3,0.7,7.1-0.1,12c-4.1,1-8,2.3-11.8,3.6c-5.6,1.9-10.9,3.8-16.6,4.5c-0.8-5.4-0.8-8.7,0-13.9c3.1,2.1,5.6,3.4,10,5.3
	c0.7,0.3,1.6,0.4,2.2,0.4C23.3,28.3,23.7,28.2,24.1,28.2z"/>
<path fill="#FFFFFF" d="M44.5,8c-0.2-1.1-1.1-1.7-1.8-1.7c-0.2,0-0.4,0-0.6,0.1c-0.1,0-0.3,0-0.4,0c-11.5,1.7-22.1,4.9-33.4,7.7
	c-0.2,0-0.3,0.1-0.4,0.1c-0.2-0.1-0.4-0.1-0.6-0.1c-0.7,0.1-1.6,0.8-1.8,2C3.8,25.3,3.7,30,5,39c0.2,1.5,1.6,2.6,3,2.5
	c12-1.5,22.5-7.6,34-10.8c1.4-0.3,2.7-1.6,3-2.9C46.3,19.8,46.2,15.9,44.5,8z M38.9,10.1c-4.8,3.9-7.7,6.6-13.4,12.1c0,0,0,0,0,0
	c-0.4,0.1-0.5,0.2-0.9,0.3c0,0,0,0,0,0c-5.7-2.2-8.6-3.3-13.4-6.3C20.4,14.2,29.5,11.8,38.9,10.1z M40.7,28
	c-0.1,0.3-0.4,0.7-0.8,0.8c-10.1,2.4-19.3,7.2-29.8,8.4c-0.4,0-0.8-0.3-0.8-0.6c-1.1-7-1-10.7,0.3-17.9c4.1,3.2,6.7,4.5,11.8,6.7
	c0.6,0.3,1.7,0.3,2.6,0.2c0.3,0.1,0.6,0,1-0.1c0.3-0.1,0.7-0.3,1-0.5c0.9-0.4,2-1.1,2.6-1.8c5.1-5.2,7.7-7.6,11.8-10.7
	C41.7,18.5,41.8,21.6,40.7,28z"/>
</svg>
