<?xml version="1.0" encoding="utf-8"?>
<!-- Generator: Adobe Illustrator 23.0.0, SVG Export Plug-In . SVG Version: 6.00 Build 0)  -->
<svg version="1.0" id="Layer_1" xmlns="http://www.w3.org/2000/svg" xmlns:xlink="http://www.w3.org/1999/xlink" x="0px" y="0px"
	 width="50px" height="50px" viewBox="0 0 50 50" enable-background="new 0 0 50 50" xml:space="preserve">
<g>
	<path fill="#FFFFFF" d="M47,3.8c-0.5-0.5-0.7-0.8-1-1C44,1,41.3,0,38.6,0H11.4C8.7,0,6,1,4,2.8C3.5,3,3,3.3,2.7,3.8
		C1,5.8,0,8.3,0,11.3v27.4c0,2.8,1,5.5,3,7.5l0,0c0.2,0.3,0.5,0.5,1,1C6,49,8.7,50,11.4,50h6.7h9V32.2h-3.2v-6h3.2v-5
		c0-3.3,2.5-6,6-6h6v6.3h-4.2c-0.5,0-1,0.5-1,1v4.3h5l-0.5,5.8h-4.2V50h4.5c2.7,0,5.5-1,7.5-3c0,0,0,0,0.2,0c0.2-0.3,0.5-0.5,1-1
		c1.7-2,2.7-4.8,2.7-7.5V11.3C49.8,8.3,48.8,5.8,47,3.8z"/>
</g>
</svg>
