<svg id="globes" xmlns="http://www.w3.org/2000/svg" viewBox="0 0 400.11 399.96"><title>cont_africa</title><g id="Afrika"><path id="Shadow_Sea" data-name="Shadow Sea" d="M400,200c.3-58.3-26.6-116.1-71.6-153.3C283.7,8.9,221.7-7.7,164.2,3.4,102.9,13.9,48.1,55.3,20.9,111.1-4.4,161.3-6.9,222.3,14.5,274.4c22.3,56.9,72.4,101.9,131.3,118,56.7,16.5,120.4,5.6,168.7-28.4,48.6-33.4,80.7-89.6,84.9-148.4a138.82,138.82,0,0,0,.7-14.4" transform="translate(-0.03 -0.01)" fill="#86cad9" opacity="0.5" style="isolation:isolate"/><path id="land" stroke-linecap="round" d="M176.5.7l-.9.2A1,1,0,0,0,176.5.7Zm-.9.2a1.49,1.49,0,0,0-1.3.2Zm-28.2,6h.9c-2.44.86-4.67,1.55-7.1,2.2l1-.2h.3c-.84.27-1.6.48-2.5.7v.2l1.1-.4h.6l-1.6.4h.9l-1.6.2.2.2a2.13,2.13,0,0,0-1.8.9l.2-.7a3.9,3.9,0,0,0-2,.8h.9L134,12.3h.4a3.62,3.62,0,0,0-2.2.9,1.58,1.58,0,0,0-2,.2l1.8-.2a21.25,21.25,0,0,1-3.6,1.1l1.7-.4-.7.2,1.1-.2-.4-.5-.1.6-.2-.2a6.91,6.91,0,0,1-2.2.9l.9.2-1.8.2v.4l-1.3.2.2.2,2.1-.6v.2a19.65,19.65,0,0,0-5.8,2h.4a12.9,12.9,0,0,0-3.3,1.8,18.13,18.13,0,0,0,3.5-1.6L120.7,19v-.4a1.9,1.9,0,0,1-1.8.6h.9l-1.1.2v.2l-1.1.2.4.2-.9.2h.4l-.7.2.2.2-1.6.7,1.3-.4-2,.9V22l-1.1.7.9-.2-1.3.4,1.1-.2-1.1.4h.2l-.7.2h.7l-1.1.2h.7l-1.1.9,2.9-.6-2,.9,1.3-.4-1.8.7,1.1-.2-.9.7.9-.4-1.6,1.1,1.3-.7.2.4.2-.9h1.3v-.5a2.65,2.65,0,0,1,1.5-.4v-.4l1.1-.2-.2-.2h1.1l-.4-.2a2.43,2.43,0,0,0,2-1.1l.2.2.2-.7a2.75,2.75,0,0,0,2.2-.8v.4l.7-.7.2.2v-.2l1.1-.2v-.4l.4.2,1.1-.7-.4-.2a2.39,2.39,0,0,0,2.7-1.3l.2.2a40.52,40.52,0,0,0,5.8-1.9l.2.2a1.54,1.54,0,0,0-1.1.6,2.32,2.32,0,0,0,2.4-.8,29.73,29.73,0,0,0,8.5-2.9l-.7.7a2.38,2.38,0,0,0,2.3-.4v.2a64.16,64.16,0,0,0,11-2.2,7.63,7.63,0,0,0-5.1.2.45.45,0,0,0-.6-.2l2.7-.4h-2.2a11.1,11.1,0,0,1,5-.9l-1.8-.4h1.3l-.2-.7,1.6.7-.9,1.1,1.8-.4-.9.4h.9a1.49,1.49,0,0,1,1.7-1.1h-.7l1.1-.4-1.3.2,1.3-.5c-.55-.59-1.18-.59-1.9,0a1.79,1.79,0,0,1,1.5-.4V8.2l-1.6.4V8.2L161,8h-1.8l1.1-.2V7.6l.2.2,1.6-.2.2-.4v.4l.7-.2a4.28,4.28,0,0,0,3.3,0,2,2,0,0,0-1.8,0,5.9,5.9,0,0,1,4-.7,1,1,0,0,1-.9-.2,2,2,0,0,1,1.3-.4l-.4-.2a2.62,2.62,0,0,0,2.4-.2,3.06,3.06,0,0,1-1.3-.2l1.8-.2h-1.1l.4-.5a7.63,7.63,0,0,0,4-.4.83.83,0,0,1-1.1-.4h1.6a1.61,1.61,0,0,0-1.9,0,45.66,45.66,0,0,1,7.1-1.6h-2c1.28-.21,2.49-.37,3.8-.5h-1.8a17,17,0,0,0,5.3-.7,41,41,0,0,0-7.4.8l4.2-.7-3.3.2,2-.2H178q2.94-.27,5.9-.4h-1.3l1.1-.2-4,.2,1.8-.2L179,.9q1.22-.52-.9,0h.4l-1.1.2.2-.2-.7.2-.2-.2a6.77,6.77,0,0,1-2,.4l1.1-.2-2.7.4a4.19,4.19,0,0,1,1.6-.4c-.93.11-1.87.21-2.8.3.67-.09,1.33-.19,2-.3a10.31,10.31,0,0,0-2.5.3h0l-.4.2h-.2m-8.6,6-1.3.2,1.8.2Zm-9.3,3.3a2.59,2.59,0,0,0,3.2-.7l-3.2.7Zm-18.8,5.7.1-.1-.1.1Zm-.1,0-.7.3v.2Zm-8.5-.6-.2.1.2-.1Zm-.2,0a.45.45,0,0,0-.6.2Zm-.5.2-.9.3.9-.3ZM217.6,1.8l-.4.4,1.3-.2Zm5.1,0a1.7,1.7,0,0,1-.9.2l1.1.2ZM201.6,2v.2h-1.1a3.88,3.88,0,0,0,2.6.2l-1.1.3a6.07,6.07,0,0,0,4.2-.3,10,10,0,0,0-2.5-.2l-.1-.2-.2.4L202,2.3h-.2l-.2-.3Zm-3.3.5-2.3.2a2,2,0,0,0,2.9.5v.2l.9-.2-1.1-.7-.4.5-1.1-.2Zm1.5.6.7.2-2.9.4q.84,1,2.4,0l-1.5.3.9.2L197.8,4l2.2.9a3.36,3.36,0,0,1,3.1-1.8,4.85,4.85,0,0,0-2.6-.2l-.7-.5v.7Zm2.4.3a.82.82,0,0,0,1.1,0Zm.7.2.2.7,1.1-.2.2.2.9-.2a3,3,0,0,0-2.4-.5Zm40.9,10.9,1.1-.7a1.43,1.43,0,0,1-1.8-.9l.7-.2h-.7l-.2.9q-1.64-1.28-3.6.5l1.1.4h-1.3l.9.9a4.24,4.24,0,0,1-4-.7l1.3-.4a7.48,7.48,0,0,0-5.1-1.1,6.26,6.26,0,0,1,4.9,3.5c-2-1.16-3.71-.94-5.1.6.74.49,1.48,1,2.2,1.5a7.13,7.13,0,0,0-3.6-.2l.2-.4-2.5-.4v.7l2.7.6-.4.9a7.69,7.69,0,0,1-6-2.4l.4-.7-2.9-.6.7-.2-2.9-.9c3.81,1.36,8.73,1.51,12,0A28.12,28.12,0,0,0,220,12.4l-.2.7v-.7a1.48,1.48,0,0,1-2-.4h1.3a11.66,11.66,0,0,1-5.7-.7,2.36,2.36,0,0,0,2.7-.2,3.43,3.43,0,0,0-3.6,0l.4-.7L212,10l-.2.9h-.7l-.2-.7-1.1,1.1.4-.9-1.6-.2c-.67,1.34-1.77,1.63-3.3.9a1.29,1.29,0,0,1,.8.7l-1.1-.5a1.59,1.59,0,0,1-1.5.9,1,1,0,0,0,.4-.9,2.73,2.73,0,0,0-.6.9v-.7l-.9.2.7.6-1.8-.4-.4,1.1a7.36,7.36,0,0,1-1.8.2l.2.9-.7-.7-.9.2.7.2h-1.3l1.3.4-2,.4,1.6.2-2.9.2.7.2a2.48,2.48,0,0,1-2,.9l.6.4-.6-.2-1.1,1.1,1.3-.2-2.4.7h1.3l-1.3.2.6.4-1.1.2-.2-.4-2.5,1.6a3.36,3.36,0,0,0,2.9-.9,2.14,2.14,0,0,1-2.7,1.3v-.5l-2,.2v1.1l-1.1-.4.9.7a7.64,7.64,0,0,0-3.8,0l.6.4-.4.4-.9-.2.4.2-1.8-.2a1.06,1.06,0,0,1-.4,1.1h1.1l-1.3.2H181l-.9.4a4.75,4.75,0,0,1,3.5,0l.4-.7.2.5-1.3.6c-.76-1-1.86-1-3.3-.2l.9.2h-1.1l.4.5.9-.2-1.3.7.6.9.7-.4-.7.9,3.1-1.1-4,1.6.7.7,1.8-.7-1.6.9h1.3a1.19,1.19,0,0,1-1.8,0l-.2.9a8.68,8.68,0,0,0,8.7-.9l.9-1.5.5,2.9.9-.2-.4.9.9-.7-.7,1.1,2,2.2-.9.5.5,1.8a51.66,51.66,0,0,0,6-1.3q2.78-1.85,1.3-4.5h.9l-1.3-.2,2.5-.4.2-.7.5.7,1.3-.9-1.1-.2,1.8-.4a3.79,3.79,0,0,0-3.3-1.8l.9-3.8.7.4a14.33,14.33,0,0,0,5.1-2.6l-.9-1.3.9.2-.2-.9,1.1.5.2-.7a5.12,5.12,0,0,1,4.5,1.3l-6,3.6,1.6,2-.4,1.6a3,3,0,0,0,2.9.4l-.2.9,9.3-1.6.2.7,3.3.7-3.8.2-.2.7a10.94,10.94,0,0,0-7.5.5l.6,1.6h1.6v2l-1.3.7a3,3,0,0,0-3.8-1.4q-2.19,2.33-.2,5.1h-1.6l.9-1.6a1.77,1.77,0,0,1-2,1.5v.3h.8a6.25,6.25,0,0,0-1.9.9l.9-.9c-3.85-.28-5.76-.15-10.5,1.3l-.2.9q-3.28-3.28-7.5-.9l.7-.9a2.38,2.38,0,0,1-3.3-.9,4,4,0,0,1,3.6-3.2l-1.6-.4,1.3-2-4,1.1-1.6,4.7.7-.2.7.9-1.1.2,2.2,1.6-2.2-.7-.5,1.1a2.15,2.15,0,0,0-2.9-.5l.6.6a4.2,4.2,0,0,0-4.4.5l.7.9-1.3.7-.7-1.3-2,2,1.1.6-2.7.2,1.6.4-6,1.1-.2,1.6a7,7,0,0,1-8.2,1l.5,2.7-3.1.2-.4-.9-4,.9,1.1.6-1.1-.2.2,1.1,4,.9.4,2.2,1.5.4-.9,1.6.2.4-2.9,5.1a39.52,39.52,0,0,1-13.8-.9l-4.4,2,.9,1.8a26.06,26.06,0,0,1-5.8,9.4l1.6-.5L131,75h.9l-1.6,3.8,5.6-.7,2.2,3.6c4.9-1.54,9.25-2.91,13.9-4.4a4.12,4.12,0,0,1,3.2-3.1c-.71-4.63,3.25-7.61,9-8.4,11-8.62,23.17-5.08,33.3,8.1l-1.6,2.2,1.1.2a3.89,3.89,0,0,1,3.1-3.1l-1.8-1.8.9-2a4.17,4.17,0,0,1,4.1,1.9l.5-.9-6.7-3.6.4-1.1a19.19,19.19,0,0,1-9.4-5.8l-.5-3.1,3.6-.9.7,2.5,1.8-1.3a10.77,10.77,0,0,0,7.7,6.2l-1.8-.4a9.42,9.42,0,0,1,6.6,3.1l-.7,3.8a53.15,53.15,0,0,1,4,3.8l1.1-.2-1.1.7q2.13,3.47,6.9,1.7l-.6.7-4.2-.9-.7,1.1,1.8,2.9,1.1-.7,1.1,1.8.2-1.1,1.8,1.1-1.6-3.1,2.2.2-1.6-1.1a2,2,0,0,1,2.9.5V75.9l-4.4-1.8,1.3-.5-.2-1.1,1.1.7-2.5-3.5.9-.5,2.9,1.8-.7-1.1,1.8.7L217.2,69a10.17,10.17,0,0,1,7.9.2l-1.3,1.6a5.85,5.85,0,0,1,6.9-2.5q-1.57-4.11-4.9-3.8a5,5,0,0,0,2.7-6.5l.5.7,1.3-.4-.4-2.2.4.4a2,2,0,0,0,1.8-2.2l2.7-.9,1.3.9-2.2-.2,1.3.4-.4.4,4.2.2.4.9-2.5.9h1.6c1.72,3.71,4.57,3.69,8.3.2a3.93,3.93,0,0,1-4.9-2l2.2,2.2a3.23,3.23,0,0,1-2.9-1.5l1.1-1.6v1.1a10.46,10.46,0,0,1,8.7-2.9L249.9,54l-2-.2,2.7,1.6-.9-.4-.9,2.2-2,.4a38.85,38.85,0,0,1,15.1,8.5c-8.79.9-20.72,1.48-30.8,1.5l.4,1.1,2,.2-2.7.2.2.7c-3.85-1.46-6.45-.72-7.3,2.4l2.5-.2-.4,2.5,1.3.7-1.3.2-.7-.9-.4,1.1,2.9.7-.6.9,2,1.1-.9.9L231,79l-2.4,1.1a16.47,16.47,0,0,1,8.4,1.3l.2-2c3.61,2.59,7.59,3.26,10.9.2a3.63,3.63,0,0,0,4,0,23.14,23.14,0,0,1-2,15.7l-6,.9-.7-1.3a40.57,40.57,0,0,1-19.5,0c-1-2.16-3-2.79-5.8-1.9-2.56-2.85-6-2.73-9.4,0v4a4.14,4.14,0,0,0-3.3,1.6c-9-4.34-17.18-8-25.9-11.7l3.6-2.9-1.8-2.7,1.8-2.7-1.8,1.1-1.8-1.8a137.5,137.5,0,0,0-35.2,6.4l-.2-1.1-4.7.7-1.6-2c-16.16,14.26-30.19,27.92-42.9,46.2l.6-1.1a24.27,24.27,0,0,1-5.6,21.3q3.24,1.65,2.3,4.5l-.5.2-.5,2.2,1.5.5-2,.5,2.7.2-.9.7.9.4-.2,1.1a3.05,3.05,0,0,1,2.6.2,1.68,1.68,0,0,0-1.3,2.2l1.6-.5L95,161.6l1.6-.7.2,3.1a23.35,23.35,0,0,1,2.6,1.3l-.7,1.1,1.1.4.2,2.9,1.1-.2-1.5.4,2.4,2.4-.2,1.3c15.6,11.47,33.56,11.77,52.2,2.5l-1.3.9a4.73,4.73,0,0,1,5.5,2.2l1.1-.7-1.1.9,1.6.2-1.1.2.5.7,1.1-.7-1.1,1.3,2.2,3.1,2.4-.2v-.9l.4.9-.2-1.1.7,1.1.4-1.3q1.36,2,4,.7l-.2-1.3,1.1,1.6,1.1-.9,1.1,2.7,1.8-.4.4.9h-.9q3.3,4.45-.9,9.4l1.3.2-.2,2.2-1.1-.2,2.2,1.1-1.6.4-.7-.9-.7,3.6h-1.6a229.77,229.77,0,0,0,14,18.4l-1.6.5,4,8-1.3,2.2c-4.39,25.32,3.55,51.16,18.2,75.9l-1.3.9,1.6,4.2,1.1-.7,3.3,2.2c18.6-.35,33.14-9.45,40.8-26.2l-.4.6-.9-1.1,9.8-5.8a39,39,0,0,0-.9-14.4l.7.7c14.12-6.13,21.39-16.24,21.1-30.9-1-.78-1.92-1.55-2.9-2.3a11.67,11.67,0,0,1-.2-7.4h-.9l1.3-2.9-2.5-3.3a19.3,19.3,0,0,1,7.7-13.2l-.7-1.1H282a85.25,85.25,0,0,0,27.3-42.7l1.6-.4h-1.1l.2-4.7-1.6-.7a153,153,0,0,1-17.8,5.6q-2.31-5.19-6.7-4l2.7-1.6a40,40,0,0,0-12.2-11.8l-.2,1.3a133.22,133.22,0,0,1-10.5-20.2l.6.4a72.82,72.82,0,0,1-6.9-9.3h.9a120.54,120.54,0,0,1-12.4-18.7,14.6,14.6,0,0,0,6.2,6.7l1.3-5.3-.7,4.2c15.21,13.69,26,30.75,33.7,50.4l4.7-.2c6.1-3.15,12.75-6.47,19.4-9.7l.4-2.9,6.5-1.8.4-2.7,2.5-.4.4-2.7,2.4-.9c-1.36-1.94-1.42-3.71-.2-5.3l.9.7,1.6-5.8c-5.75-2.77-9.88-7.06-11.8-13l-4,6.9c-2-1-3.66-.73-4.9.7l-2.5-1.1-.7-5.1-1.6-.2.4,4c-2.47-1.51-3.51-3.51-3.1-6a16.57,16.57,0,0,1-7.7-8.4h-1.1l1.1-.6a5.29,5.29,0,0,0-1.1-1.5l2.4.2-.2-1.1a2.36,2.36,0,0,0,3.3.7c4.51,7.89,11.32,11.47,19.1,9,6.12,6.53,14.65,8.12,23.6,4.8l1.3,2.4,1.3.2,1.3,2.7h.4v-.7a1.12,1.12,0,0,0,1.4.7l.2,1.1.7-.9-.2,1.1,2.2,2.2,2.2-.5v1.3l-2.2.9,5.3,5.1,2-1.6-.9-3.8,1.1.2a1.44,1.44,0,0,0,0,2h.7a375.45,375.45,0,0,0,18.8,46.1,2.78,2.78,0,0,0,.9-3.4l1.3-.9a4.35,4.35,0,0,1-.2-3.4l.9-.2c-.93-6.19-2-12.22-3.1-18.3l.9-.2v-1.8l1.3-.9a66.94,66.94,0,0,0,.9-18.7l1.1,2L376,124l.9,1.6-.4-1.6.4,1.1V124l.4.7-.4-1.8.9,2-.6-2.7.9,2a3,3,0,0,0-.9-2.2h.6l4.2,8.2-.2-1.1a47.43,47.43,0,0,1,5.7,15.3v-1.1l.2,1.6V144l.7,1.1-.2-1.3.4,1.3a11.24,11.24,0,0,0-.4-3.5l.4,1.1a5.57,5.57,0,0,0-.9-3.6l1.3,3.3.2-.2q1.37,5.13,2.9,10.2l-.2-1.3a89.17,89.17,0,0,1,2.9,13.5v-1.1a55.77,55.77,0,0,1,.9,7.3l.2-.7L397,175h0c.74,6.59,1.61,13.23,2.6,19.8v-1.3l.2,1.1A141,141,0,0,0,396,167h-.2c-.54-3.43-1.09-7-1.6-10.4h0a10,10,0,0,1-.7-4l.7,2.9.2-.2a39,39,0,0,1,2,7.6v-.7l.7,2.4a49.24,49.24,0,0,1-1.1-5.1l.6,2.7a151.21,151.21,0,0,0-4.9-19.7l.3.9c-1.48-5-3.1-10-4.8-15v.2a9.13,9.13,0,0,1-.9-2.4l.2.6c-.18-.46-.35-.93-.5-1.4v.1l-.3-.7.3.3a13.94,13.94,0,0,1-.8-2.3l.2.4c-.38-.84-.78-1.67-1.2-2.5a4.17,4.17,0,0,0,.1.6h0c.19.49.46,1.12.7,1.6a15.73,15.73,0,0,1-.8-2l.2.3a26.25,26.25,0,0,0-1.9-4.3l.4.7c-.89-1.74-1.67-3.42-2.4-5.2v.2l-.7-1.3.4.7-5.8-10.9.5,1.1a10.91,10.91,0,0,1-1.1-1.9l.4.6a3.63,3.63,0,0,0-1.1-2,9.1,9.1,0,0,1-.4-.9h-.1l-.6-.9.3.5c-1.1-1.94-2.38-4.09-3.6-6.1h0a189.48,189.48,0,0,0-39-44.6h.2a.26.26,0,0,0-.3-.2.34.34,0,0,0-.3-.3v-.1a1.86,1.86,0,0,1-2.2-.9,9,9,0,0,0-2.8-3l.4.5a23,23,0,0,1-2-1.7l.6.4a1.53,1.53,0,0,0-1-.7l.2.2a13.89,13.89,0,0,0-2.7-2V39l-1.1-.8,1.3,1.1a8.69,8.69,0,0,0-2-1.3h.2c-.46-.31-.92-.61-1.4-.9l.2.2c-1.86-1.35-3.72-2.68-5.6-4v.2l1.1.8a1.85,1.85,0,0,1-1.6-1.2l.5.3c.36.24.73.48,1.1.7-3.32-2.36-6.88-4.67-10.5-6.8a2.6,2.6,0,0,1-1.4-.8l1.4.8a48.84,48.84,0,0,0-4.8-2.8l.6.4a187.56,187.56,0,0,0-30.1-13.6v-.2c-1.48-.44-3-.84-4.5-1.2h.3c-1.12-.32-2.24-.7-3.3-1.1a3.44,3.44,0,0,0-1.2-.2l.5.2a2.22,2.22,0,0,0-1.7-1,1.35,1.35,0,0,1-.8-.2l.8.2-1-.3.2.1c-.64-.12-1.27-.25-1.9-.4l1.1.2-.2-.1h.3a2.23,2.23,0,0,1-1.1-.4l.1.1c-4.2-1.09-8.43-2.1-12.6-3h0l4,.9h-.2l.8.2h-.1c.3.08.6.15.9.2a2.62,2.62,0,0,0-1.1-.2,12.87,12.87,0,0,0,3.2,1.3l-1.1-.2,3.8,1.1-1.8.2a61,61,0,0,0,6.2,1.8c-1.26-.19-2.42-.41-3.7-.7v.2l1.3.4a9.7,9.7,0,0,1-4.9-1c5.85,2.46,11.51,4.53,17.5,6.4a51.1,51.1,0,0,0-6.3-1.8,7.5,7.5,0,0,1,4.9,3.5l-3.5-.7,1.6-.4a50.19,50.19,0,0,0-17.5-7,84.8,84.8,0,0,0,11.6,5.5l-4.9-1.3h.9l-6.5-.9V12l2.7.9h-.9l.6.6-2.2-.9a2.78,2.78,0,0,1-2.7.4l.4.7a1.58,1.58,0,0,0-1.8.7m12.4-7.1Zm.1.1h-.1l.5.1-.4-.1Zm1.4.4a2,2,0,0,0-1.3-.4Zm.9.3a.65.65,0,0,0,.4.1l-1-.4Zm54,25.9c1.92,1.46,3.89,2.87,5.9,4.2-1.64-1.09-3.41-2.35-4.9-3.5A1.76,1.76,0,0,1,312.7,34Zm6.6,4.7.4.3a.54.54,0,0,0-.5-.4Zm1.2.8.4.3a1.61,1.61,0,0,0-.5-.4ZM386,125.1a1.47,1.47,0,0,0,.4,1.1Zm.1.2-.1-.3.1.4v-.1Zm9,29.3.4,1.3c-.26-1-.52-2.07-.8-3.1Zm1.6,7.6.3,1.3h.2l-.2-.9v.7Zm.4,2.5a1.26,1.26,0,0,0-.2-.9Zm0,0,.6,3.7A23.2,23.2,0,0,0,397.1,164.7Zm.6,3.6v0ZM384,133.1h-.4l.9,1.6-.5-1.6ZM100.7,118.3l.2-.3-.7.7Zm84.7-96.7h.4l-1.8-.2ZM235.6,4.5l-.4.7h-2v.2l-1,.6,1.8.4-.4.4h.2l-.4.4h2l-.7.4h2.2l-1.3-.4,1.1.2L235.6,7l1.1.2-1.1-.5.9.2-1.3-.4h.8l-.5-.7,1.8-.6-1.7-.7Zm-.2,3.3-1.2.2.9.2-.7.2h1.3l-.4.9a51.12,51.12,0,0,0,7.7,1.3A7.38,7.38,0,0,1,236.9,8l-1.5-.2Zm-64.3-2-1.3.5h1.1Zm80.5.2a21.51,21.51,0,0,1,3.9,1.3C254.11,6.86,252.94,6.47,251.6,6Zm-84.7.7-.9.2h1.1Zm-3.6.7,1.1.2-1.1-.2Zm83.2.2-.7.2a3.2,3.2,0,0,0,1.4.2ZM162.9,8a3.71,3.71,0,0,0-2.4.6l.9.2.6-.6.9.2V8Zm97.9.8.4.1a.65.65,0,0,1-.4-.1Zm-6.7.7,3.5.9A15,15,0,0,1,254.1,9.5Zm4.2.2c1.87.64,3.71,1.38,5.5,2.2a1.58,1.58,0,0,1,2,.2,15.75,15.75,0,0,1-6-1.8l.7.5-2.2-1.1Zm-13.6,1.2a9.75,9.75,0,0,0,2.7.9v-.2a9.51,9.51,0,0,0-2.7-.7Zm-108.9.2a6.6,6.6,0,0,0-1.8.7l.4.2-1.1.2a5,5,0,0,0,3.1-1.1Zm128.9.2a3,3,0,0,1,2,.7c-1,.22-1.64,0-2-.7Zm-64,.7-.9.7,1.3-.7Zm36.6,0-.2.4,1.3.5.7-.5Zm29.6,0,1.1.2A1.26,1.26,0,0,1,266.9,12Zm-69.1.7-1.1.4A.83.83,0,0,0,197.8,12.7Zm.5,0-.9.9,2.2-.6-1.1.2Zm72.2.7h.9l-.2.2ZM262,15.6l.2.4-1.8-.2Zm-105.5.2a18.12,18.12,0,0,0-3.7,1.4l.2-.7-1.8.7a1.09,1.09,0,0,0-.4-.6l-2.4,1.3,1.3-1.1-1.1-.7-.4.9-.4-.4-.7.7-.7-.2-.2.5h2l-1.6.4.7.2-2.9.2,2.2.9-2.9.9a25.75,25.75,0,0,0,13.1-1.8l-.4-.2h.9l-.2-1.6.9-.6-1.3.4Zm118,0a5.41,5.41,0,0,1,3.1,1.1v-.2a12.19,12.19,0,0,1,4.2,1.7,18.22,18.22,0,0,0-4.2-1.7,87.51,87.51,0,0,0,10.9,5.6Q281.53,19,274.5,15.8ZM124,16.9v.2l-1.7.3ZM262.9,18h0m-41.5,6,1.3-.9M102.2,25.6l-.6.3A.65.65,0,0,0,102.2,25.6Zm-.6.3a2.17,2.17,0,0,0-.6.4Zm-.6.4c-2.08,1.15-4.13,2.31-6.2,3.5l1.8-1.1-2,1.1,2.5-1.6a108.14,108.14,0,0,0-12.7,8.2l.7-.4a69.38,69.38,0,0,0-8.4,6h.2l-.2.2h.2l-3.1,2.4a7.14,7.14,0,0,0,2.9-2.7Q74.92,43.54,73,45a.82.82,0,0,1-.5.5l-.3.1v.1h0v.1h0V46a.32.32,0,0,0-.4.2H72A104,104,0,0,0,60,56.8a4.67,4.67,0,0,1-1.4,1.4,3.62,3.62,0,0,1-.6.5h0a3.5,3.5,0,0,0-1.4,1.8l1.8-2-.7.9a5.92,5.92,0,0,0,2.5-2.2l-.2.4,2.7-2-1.6,1.3h.7L60.5,58l.6-.9a16.86,16.86,0,0,0-5,4.7l3.1-2.9v.4l4.2-3h-.3a23.16,23.16,0,0,0,3.8-3.4,11.18,11.18,0,0,0-3.6,3.3l.3-.4-1.1.5A14,14,0,0,1,65.4,53h-.2l2-1.8-.7.4c.51-.18.75-.48.7-.9a8.28,8.28,0,0,0,3.5-2.5l-.2-.2a23.64,23.64,0,0,0-4.4,3.3,16.6,16.6,0,0,1,10-6v-.1h0a65.39,65.39,0,0,0,7.2-4.5l.5.2-.2-.4a8.66,8.66,0,0,0,3.3-2.4l-1.6.7a2.48,2.48,0,0,0,1.8-1.5l-1.5.7,1.3-.7-1.1.4,2.7-1.1V36l.7-.4-.7.2.9-.6-1.6.8a5.29,5.29,0,0,0,1.5-1.1,9.59,9.59,0,0,1-1.3.7L90.5,34v-.5l.9-.4h-.2a68.23,68.23,0,0,1,6.3-4l-.9.2A10.32,10.32,0,0,0,99,28h-.4A3.47,3.47,0,0,0,101,26.3ZM64.3,54l-.9,1.6L65,54.5h-.7l1.3-1.6Zm1.1.7-1.2,1.2a1,1,0,0,1,.8-.3A6,6,0,0,0,65.4,54.7Zm-1.3,1.2-.5.3C63.83,56.25,64,56.15,64.1,55.9Zm-7.4,4.3a2.44,2.44,0,0,0-1.1,1.1.32.32,0,0,1,.4-.2ZM58,58.7l.3-.3-.3.3Zm2-1.9v-.1a3.19,3.19,0,0,0-.5.6ZM73,45l.2-.2h-.1ZM96.7,28.2l.9-.4-.7.4,1.6-.9a2.13,2.13,0,0,0-1.8.9ZM208.9,28a1.58,1.58,0,0,0,2,.3,5.64,5.64,0,0,0-2-.2Zm-48,.7a1.68,1.68,0,0,1-2.2,1.3l-.2,1.3-1.8.9h2l-2.9,2.7a15.25,15.25,0,0,1,2.9-1.8l.2.7-.6-.2-1.8,2.2.2.5c.88-1.1,2.14-1.33,3.8-.7l-1.6.9.5.9.9-.2-1.1,1.3.4.4a4.43,4.43,0,0,0-4.4,1.1l1.3-.2v.9L152.9,42a5,5,0,0,0,6,.2,57.77,57.77,0,0,0-8.7,3.8,111.91,111.91,0,0,0,15.9-2.8l-2.2-.2a4.21,4.21,0,0,0,3.7-2.2l-.4-.9h-2.9l.7-1.3a1.49,1.49,0,0,0-1.3-.2l1.6-.2v-.6l-1.8-.9-.4-2.7-2.9-.4,2.5-.2-1.3-.2a5.25,5.25,0,0,0,4-2.5l-4.7.2,3.6-2h-3.4Zm-2.2.2a2.1,2.1,0,0,0-2.2,1.3A3.82,3.82,0,0,0,158.7,28.9Zm50,0,.4.9,2.2-.9ZM203.6,30l-1.6.7.2.9Zm-46.7.5.4,1.1.2-.4Zm28,.8,1.6.2-1.3.2.2.6-.7-.4-.9.4Zm-28,1.2-.9.7,1.3-.2ZM90,33.4l-.9.6A.85.85,0,0,1,90,33.4Zm100.7,0-.4.9-.4-.7-2,.5,2,2.4v-.9l1.6-1.1Zm-3.3.8-1.3.2-.2.9h1.6V34.2Zm122.4.3a15.84,15.84,0,0,0,4.5,3.6c-1.24-.74-2.45-1.55-3.6-2.4a1.28,1.28,0,0,0-.9-1.2Zm3.1,0a4.17,4.17,0,0,1,1.5,1.1Zm-160,.2-.9.9-.2-.4-2.2,1.1h1.1a3.28,3.28,0,0,1-4,.9l.5.9-1.8.7,2.2.4-2.9,1.6,2.7-.2-3.8.9h1.1l-1.8.7h1.8l-1.6.7,1.6-.2-.9.5q3.76-1,7.6-1.6.38-4.22,4.2-4.7l-.4-1.6-2.4.4.9-.4-.8-.6Zm-66.7.6-1.8,1.5Q85.29,36,86.2,35.3Zm228.9.3.6.4a.55.55,0,0,0-.6-.4ZM86,36l-1.8,1.3.2.2-.9.2.7-.4a4.44,4.44,0,0,0-2,1.3A9.06,9.06,0,0,1,84.3,37h-.1l1.3-.9-1.2.9A2,2,0,0,0,86,36Zm107.1.5-.9.4.9.2ZM80.9,39.8l-1.1.9v-.2Zm242.6,2.1.5.4A1.61,1.61,0,0,0,323.5,41.9Zm-241.9.6a56.74,56.74,0,0,0-8.3,6l.2-.5-2.2,1.6H72a5,5,0,0,0-2.9,2.2l1.1-.7.2.7,1.8-.9L70.7,52l1.6-.4-2.7,1.6q2.24.21,3.6-2.2a32.77,32.77,0,0,1-2.8,2.6L72,52.5,70.5,54A7.92,7.92,0,0,0,74,51.1l-1.1.7,2-1.6-2.2,1.6a7.4,7.4,0,0,1,2.8-2.2l-1.1.2,2.7-2h-.9l.9-.7-2,1.1,1.6-1.1-1.1.2,1.8-1.1h-.2l.4-.5-.7.5A6.35,6.35,0,0,0,80.6,43,.88.88,0,0,0,81.6,42.5Zm242.2.4a23.78,23.78,0,0,1,2.9,2.2l-2.9-2.2Zm-249.1.8a.85.85,0,0,0-.4.3Zm-.4.3a.51.51,0,0,0-.5.5Zm-1.6,2.5-1.1,1.8A1.94,1.94,0,0,0,72.7,46.5Zm203.8,6.4c3.28-.69,5,.59,5.1,3.8l1.6.4-3.8-.2-.2,1.3,1.6.9-2.7-.2.2.7a28.58,28.58,0,0,0,7.3,4.2,4.41,4.41,0,0,0,2.7,4.3l-1.1-2.4,1.3-.4,3.8,2.9-1.6,1.1-2.4-1.1a5.35,5.35,0,0,0,1.9,3.6l-.7-.9a2,2,0,0,1,2.5,1.5l-1.1-.4.4,1.3.7-.7a13.15,13.15,0,0,1,4.2,7.1C290.22,81,285,79,282,73.8l.4-1.1h.2l-.7-2.2,1.6-.7a18.45,18.45,0,0,1-10.2-9.1v1.1q-3.85-1.8-2.9-5.6l2.9-.2V54ZM63,53.9a.74.74,0,0,0-.6.5Zm-7.6,7.7a.72.72,0,0,0-.6.6Zm125.1,1.3L178,64.7l.9,2.2A3,3,0,0,0,180.5,62.9Zm-1.1,4.7-2.9.7.2,5.3,3.1-.9.9-3.3-1.3-1.8Zm-16.3,3.3L160.6,72l1.5.7,1.6-1.1Zm61.8,1.6-1.3.5a2.7,2.7,0,0,0,2.2.6Zm-8,.9-1.3.4,4.4,2.5A3.55,3.55,0,0,0,216.9,73.4Zm-7.5,1.5-.5.9,1.3.2-.8-1.1Zm-13.4.7-8.7.7c.66,2.68,2.86,3.84,6.6,3.5l2.1-4.2Zm162.5,2.9,1.3,1.8a2.88,2.88,0,0,0-1-.8A1.17,1.17,0,0,0,358.5,78.5Zm-127.4,2-1.5.9.9.5Zm17.8,2.2-6,1.8,2.2,1.6,2.7-1.1-.6-.9Zm-30.4.2V84a20.4,20.4,0,0,0,7.3.6l.2-.9q-3.39,2.39-7.5-.8Zm150,8.3,1.1,1.7C369.21,92.36,368.84,91.78,368.5,91.2Zm1.1,1.8.2.4A.51.51,0,0,1,369.6,93Zm2.9,4.7.1.1h-.1Zm.2.4.1.1h-.1Zm-261.3,3.7-1.6,1.1A2.24,2.24,0,0,0,111.4,101.8Zm-1.6,1.3-2.2,2.2a2.16,2.16,0,0,0,2.2-2.2Zm-6,.7-2.2.7.2,1.1Zm.7,1.1-.4.9,1.1-.2Zm208.2,3.8-2.2,1.3A2.26,2.26,0,0,0,312.7,108.7Zm59.5,2.2a9.77,9.77,0,0,0,2.2,7.1,7.4,7.4,0,0,1-2.2-7.1Zm-1.1,3.8,3.1,3.6A12.88,12.88,0,0,1,371.1,114.7ZM12.2,131.1a12.9,12.9,0,0,1-.4,1.6h-.2a14.49,14.49,0,0,0-.9,3.1v-.4c-.15.5-.28,1-.4,1.5v-.1L9.6,139c.32-1.05.63-2,1-3v.9a9,9,0,0,0,1.1-3.8v.2a3.83,3.83,0,0,0,.4-2.2Zm-.2,5.1-.7.2-.4,1.3A1.64,1.64,0,0,0,12,136.2Zm377.6,0a.66.66,0,0,1,.2.9ZM12.2,142.4a2.91,2.91,0,0,0-.6,1.8,1.7,1.7,0,0,0,.6-1.8Zm262.5,2.3.2.9,1.3.2a1.52,1.52,0,0,0-1.5-1.1ZM73.8,146.4v1.1h.6Zm319.5,1.2a11.08,11.08,0,0,0,1,3.6l-1-3.6Zm-4.2,7.1a2.49,2.49,0,0,0,.4,2ZM315.4,156a2.25,2.25,0,0,0,3.3,0Zm-310.5.2a34.47,34.47,0,0,0-.9,4c.29-1.27.6-2.68.9-4Zm12.7,48.5.7-4.2-2.9-.7-.4,3.1-.2-1.6-.4,1.6v-1.8l-.4,1.8a15.16,15.16,0,0,1,2.2-7.7H16a70.65,70.65,0,0,1-1.3-11l-.2,1.1a11.17,11.17,0,0,0-2.5-6.2l-3.1.2-.9-4-.4,1.8a16.83,16.83,0,0,0-.2-7.7l-.7.2a8.39,8.39,0,0,0,.3-4.7l-.4.4a3.57,3.57,0,0,1,.9-3.3l-1.6.2a1.72,1.72,0,0,1-.7,2.3l-.2-2-.7.5a4.28,4.28,0,0,0,.2-3.3v-.6l-.2.9-.1.1h0l-.2.8v-.2A40.62,40.62,0,0,1,3,166l.1-.4a1.12,1.12,0,0,1-.1.7V166a10,10,0,0,0-.2,1.2l.1-.5a.8.8,0,0,1-.1.5l.1-.3a2,2,0,0,1-.1.5h0v.1a3.53,3.53,0,0,1-.3,1.5l.1-.6-.2,1.8V170A192.21,192.21,0,0,0,.7,210.8h0a27.35,27.35,0,0,0,.4,3.7,4.39,4.39,0,0,0-.4-2.3C3.2,256,21.54,298.71,50.5,331.8h.1c1.76,1.89,3.5,3.84,5.2,5.8H56a52.24,52.24,0,0,0,5.1,5.1l.1.2a.26.26,0,0,0-.3-.2l.6.6-.3-.3.4.3h-.1l1.5,1.5-.6-.8.1.1h0l.5.7h-.1c.68.53,1.36,1,2.1,1.5v.2l.7.5-.4-.2a46.88,46.88,0,0,0,3.8,3.1l.1.3h0a28.25,28.25,0,0,0,3.3,2.8c1.44,1.29,2.91,2.55,4.4,3.8l-1.3-1.1a4.94,4.94,0,0,1,1.4,1.1h-.1l2.6,1.8h0a5,5,0,0,1,.7.6c.38.22.74.45,1.1.7l-.2-.2a3,3,0,0,1,.7.6l-.5-.4a2.05,2.05,0,0,0,.6.5l.1.1a.16.16,0,0,0-.2-.1,3.61,3.61,0,0,0,1.3.9l-.2-.2.4.2a7.32,7.32,0,0,0,2.4,1.3c-1.64-1.17-3.37-2.32-5.1-3.4l.2.2a2.9,2.9,0,0,0-.7-.3V359l.3.2-.4-.4.5.3A160.35,160.35,0,0,1,54.1,334l.9.9a5,5,0,0,0-1.7-2l.7.9a17.67,17.67,0,0,1-4.2-4.5l1.6,1.1c.16-2-1-3.44-3.4-4.4l.4.2-1.6-1.6,1.1.5c-1.45-5.69-5.44-12.08-10.3-16.7a11.53,11.53,0,0,0,5.3,5.3l1.3-.7c-1.6-4.65-3.47-9.43-5.4-13.8q3.41,1.94,2.7,6.4a61.52,61.52,0,0,0-6.4-20.7l.7.2a7.1,7.1,0,0,1,.5-4.9l1.3-.2.5-2.9,1.6.4.2-1.3.5.9,1.6.2a2.34,2.34,0,0,1,.7-3.3c-.83-10.29-2.23-21-4.1-31.3l.7,1.6c8.29-18,4-30.86-13.3-36.8l-2,3.6a4.48,4.48,0,0,1,.4-3.6l-.9.4a2.89,2.89,0,0,0,0-3.8l-.4,1.6-.2-1.8-.4.6.2-.9-.5.7-.4-1.3-.2.9-.2-1.6-.2.9-1.3-2-.2.9-.9-.7-.7,2.9.7.2-.4.7-.5-1.1-1.1,3.6.2-2.5M4.5,159.6v.1l.2-.8H4.6Zm.1-.7.3-1.8-.5,1.8ZM84.8,362.5l-.3-.3v.1Zm-.3-.2-.6-.5Zm-3.9-2.6h0l.5.3-.5-.3Zm-1-.8c-.29-.24-.59-.48-.9-.7l1.3,1.1ZM2.5,169v-.5a2.28,2.28,0,0,0-.1,1.1A.67.67,0,0,1,2.5,169ZM8,161.8l-.7.4a2.75,2.75,0,0,1-.4,2.2l.7-.2.4-2.4Zm367.8,3.3-.4.4h.2l.7.9-.4-.4v1.9h0l.4,3.7-.4-.7a65.57,65.57,0,0,1,1.8,7.6l1.5-.7a16,16,0,0,0-3.4-12.7Zm-369.3.5L6,169.1l.2.2A11.48,11.48,0,0,0,4,172.7l-.2-.7a7.73,7.73,0,0,0-1.6,5.8,13.17,13.17,0,0,1,1.6-6l.2.9A15.57,15.57,0,0,0,6.5,165.6Zm-1.4,6.8-.4,3.1A4.17,4.17,0,0,1,5.1,172.4Zm388,2,.4,1.3A1,1,0,0,0,393.1,174.4Zm6.7,22.9v.2a39.77,39.77,0,0,1-.9-6.2v1.8a23.94,23.94,0,0,0-4-13.3h0a128.42,128.42,0,0,1,3.9,40.1l.2-1.3a19.25,19.25,0,0,1-.2,3.3v-.2c-.24,1.84-.44,3.73-.6,5.6.88-6.58,1.45-13.25,1.7-19.9l-.2,1.1a2.07,2.07,0,0,0,0-2.2m-1.4,21.1-.5,2.5a21.27,21.27,0,0,0,.5-2.5ZM10.5,182v1.3l-.5.4Zm161.1,4.2-1.8,1.3v.2l.9.4ZM396,189.6l.6,1.6-.4-1.6Zm1.1,4.4c.1,1.1.23,2.21.4,3.3a7.27,7.27,0,0,0-.4-3.3Zm2.3.4.2,1.3a2.43,2.43,0,0,0-.2-1.3Zm.2,1.4a1.76,1.76,0,0,0,.2,1.1ZM256,197.5l.4,1.1,1.6-.2.9,2.2,1.6-.9.4.7-2.7.9-.2,3.3-2.7,1.8,2.2.7a2.18,2.18,0,0,1-3.2.7l.2,1.6-.9.7.2-1.8-2-.9-1.3,2a12,12,0,0,1,.6-9.8l2.2-1.1,1.1.6Zm-239.5.7-1.1.4.4.9Zm381.7,4.7a3.18,3.18,0,0,0,0,2.6Zm.2,6.2v2A2.41,2.41,0,0,0,398.4,209.1Zm-397,2v.4l-.4-.2Zm240.8,0a15.82,15.82,0,0,1,1.1,10q4.86,2.66,4.7,8.6l-2.2-.9a26.05,26.05,0,0,1-4-15.3l-.7.9,1.1-3.3Zm32.9,8.2-.4,1.6,1.1,1.1A13.07,13.07,0,0,0,275.1,219.3Zm-17.8,13.1a39.1,39.1,0,0,1,2.9,16.7l-2-.9a97.46,97.46,0,0,1-1.4-15.1h.2l.3-.7Zm29.4,6.5-.4,1.1.7.7-.3-1.8Zm17.5,2-3.8,6.3-.9-.7v2.2h-.7l-1.3,2.7.2-1.3-1.6,1.8.4.9-.9.4.2-1.3-1.6,1.1v1.6l-.9-.9c-7.75,6.85-12,18.18-11.6,30.4,11.42-4,19.82-16.63,21.4-31.1l.9-.2.5,1.8a12.68,12.68,0,0,0-1.2-12.5l.9-1.2Zm-14.4.2-.7.4.9.7-.2-1.1ZM322,267.8l-.9,1.8,1.1-.9-.2-.9Zm-5.5,2.9-1.1.4,1.1,1.1ZM28,290.9l2.5.7H28a162.11,162.11,0,0,0,8.5,17.3,104.59,104.59,0,0,1-8.6-18Zm2.9,10.2.4,1.1-.7-.9Zm10.5,4.6,1.1,2H42l.9,2.2a7.92,7.92,0,0,1-1.5-4.2Zm-2.3.7a1.87,1.87,0,0,0,.4,1.8,1.7,1.7,0,0,0-.9-.2Zm22,36.5h0l.1.1Zm.7.7.7.6-.7-.6ZM304,349.5l-2.2,2.4,1.1-.7.7.7-.2-.9,1.1.2.9-.9-2,.4.9-.7-1.1.5.8-1ZM78.7,355.3l1.6,1.1.2-.2-.9-.7.7.7Zm1.5,1.1a3.42,3.42,0,0,0,1.1,1.4,1,1,0,0,1-.4-.9Zm-2.2-.9a2.73,2.73,0,0,1,1.7,1.6l.4-.2a1.85,1.85,0,0,0-2.1-1.3Zm1.7,3.3.5.3A2.29,2.29,0,0,1,79.7,358.8Zm24.1,2.3,4.2,1.8a5.23,5.23,0,0,0-4.2-1.8ZM86,363.3a2.87,2.87,0,0,0,1.7,1.1Zm27.8,14.5.6.4.2-.2Zm-.5.2a35.47,35.47,0,0,0,10.2,5.7,11.59,11.59,0,0,1-2.4-.9l1.5.7h-.1a11.35,11.35,0,0,0,1.8.7V384a38.41,38.41,0,0,0,5.6,2.5h-.2c4.18,1.62,8.68,3.17,13.1,4.5a.51.51,0,0,1-.4-.2A214.92,214.92,0,0,0,265,388.2V388a125.46,125.46,0,0,0,12.1-4.6h-.2l1.6-.7-1.2.5,4.2-2-2,.9.7-.4-1.8.9,1.8-1.3a48.74,48.74,0,0,1-5.3,2.3l-.2-.2-2.2.4,2-1.1-4,.9,1.3-1.1a59.38,59.38,0,0,1-14.4,4.7l.7-.4-2.7.6,1.1-.9-.7-.4,1.8-1.1a19.72,19.72,0,0,1-10.3-1.1l1.3-.7a7.66,7.66,0,0,0-8.3,1.1l-1.1-.7-1.6.7h.7l-1.8.7-1.1-.7a56.09,56.09,0,0,0-13,3.6l-.2-.7c-1.74-1-3.66-1.34-5.3,0H218l-.7-.7a38.2,38.2,0,0,1-19.8.5,38.16,38.16,0,0,1-20.3-.4l1.3.9a69.41,69.41,0,0,0-9.9,2l.5.7c-1.76.18-2.8.32-4.5.6a8.51,8.51,0,0,1,1.3,1.1l-.7,1.6a2,2,0,0,1,1.6,1.5h-.9l1.1.7a15.84,15.84,0,0,1-3.3-.4l.4.2-1.1-.2.5.5-11.4-1.9a1.12,1.12,0,0,0-.7-.1,60.86,60.86,0,0,1-7.6-2.3h.2a119.21,119.21,0,0,1-13.5-5,.73.73,0,0,1-.6-.2,93,93,0,0,1-14.2-6.4l1.3.4a2,2,0,0,0-1.7-.8l.4.4a20.93,20.93,0,0,0-2.4-1.9Zm29.4,12.8h0l.6.2Zm-10.9-3.5a1.27,1.27,0,0,0-1.1-.5Zm-2.7-1.1h0l.2.1Zm.3.2a.91.91,0,0,0,.7.3l-.7-.3Zm-.3-.2-1.3-.5A1.7,1.7,0,0,0,129.1,386.2Zm-13.6-6.5-1.5-.6A6.91,6.91,0,0,0,115.5,379.7Zm-1-.2,1.3.6V380l-1.3-.5ZM140,390a4.9,4.9,0,0,1,2,.6Z" fill="#fff" stroke="#000" transform="translate(-0.03 -0.01)" stroke-linejoin="round" stroke-width="0.25" opacity="0.5" style="isolation:isolate"/><path id="africa" d="M94.3,158.5l1.3.6-1.5.9.7,1.1.9-.4-.4.9,1.1-.7.4,3.1,2.6,1.4-.7,1.1,1.1.4.2,2.9,1.1-.2-1.5.4,2.4,2.4-.2,1.3c15.6,11.47,33.56,11.77,52.2,2.5l-1.4.9a4.73,4.73,0,0,1,5.5,2.2l1.1-.7-1.1.9,1.6.2-1.1.2.5.7,1.1-.7-1.1,1.3,2.2,3.1,2.4-.2v-.9l.4.9-.2-1.1.7,1.1.4-1.3q1.37,2,4,.7l-.2-1.3,1.1,1.5,1.1-.9,1.1,2.7,1.8-.4.4.9h-.9q3.3,4.45-.9,9.4l1.4.2-.2,2.2-1.1-.2,2.2,1.1-1.5.4-.7-.9-.7,3.6h-1.5c4.38,6.35,9.34,12.92,13.9,18.4l-1.5.4,4,8-1.3,2.2c-5,25.4,2.92,51.26,17.7,76.1l-1.3.9,1.6,4.2,1.1-.7,3.3,2.2c18.65-.32,33.22-9.41,40.9-26.2l-.4.6-.9-1.1,9.8-5.8a39,39,0,0,0-.9-14.4l.7.7c14.08-6.11,21.36-16.18,21.1-30.8-1-.72-1.95-1.45-2.9-2.2a12.91,12.91,0,0,1-.2-7.6h-.9l1.3-2.9-2.5-3.3a18.73,18.73,0,0,1,7.7-13.1l-.7-1.1h1.8a85.25,85.25,0,0,0,27.3-42.7l1.5-.4h-1.1l.2-4.6-1.6-.7a150.66,150.66,0,0,1-17.7,5.5q-2.31-5.19-6.7-4l2.7-1.5a40,40,0,0,0-12.2-11.8l-.2,1.3a133.22,133.22,0,0,1-10.5-20.2l.7.4a72.82,72.82,0,0,1-6.9-9.3h.9a120.54,120.54,0,0,1-12.4-18.7,14.6,14.6,0,0,0,6.2,6.7c2.24-4.17,1.56-7.79-2-10.8l-6,.9-.7-1.3a41.52,41.52,0,0,1-19.7,0q-1.53-3.22-5.8-2c-2.49-3-5.91-2.86-9.4-.1v4a4.14,4.14,0,0,0-3.3,1.6c-9-4.17-17.31-7.88-25.9-11.6l3.8-3-1.8-2.7,1.8-2.7-1.8,1.1-1.8-1.8a137.5,137.5,0,0,0-35.2,6.4l-.2-1.1-4.7.7-1.6-2c-16.19,14.35-29.52,28.2-42.9,46l.6-1.1,1.4,3.1a29.53,29.53,0,0,1-6.9,18.3q3.3,1.68,2.3,4.7m.4.7-.9-.7-.7,2.9h1.6l-1.6.7,2.2.2-1.1.9,1.3.2-.4.9m7.6-40.4.2-.3-.7.7Zm36.8-36.6Zm-26.2,20.1-1.6,1.1A2.24,2.24,0,0,0,111.2,101.8Zm-1.5,1.3-2.2,2.2a2.16,2.16,0,0,0,2.2-2.2Zm-6,.7-2.2.7.2,1.1Zm.6,1.1-.4.9,1.1-.2Zm170.3,39.8.2.9,1.3.2a1.52,1.52,0,0,0-1.5-1.1ZM141.7,178a1,1,0,0,0-.2-1.3m30,9.5-1.8,1.3v.2l.9.4Zm84.4,11.3.4,1.1,1.6-.2.9,2.2,1.6-.9.4.7-2.7.9-.2,3.3-2.7,1.8,2.2.7a2.18,2.18,0,0,1-3.2.7l.2,1.5-.9.7.2-1.8-2-.9-1.3,2a12,12,0,0,1,.6-9.8l2.2-1.1,1.1.7Zm-13.8,13.6a16.05,16.05,0,0,1,1.1,10q4.86,2.66,4.7,8.6l-2.2-.9a26.05,26.05,0,0,1-4-15.3l-.7.9Zm32.9,8.2-.4,1.5,1.1,1.1A9.72,9.72,0,0,0,275,219.3Zm-17.8,13.1a44,44,0,0,1,2.9,16.7l-2-.9a97.28,97.28,0,0,1-1.3-15.1h.2l.2-.7Zm29.3,6.5-.4,1.1.7.7-.3-1.8Zm17.6,2-3.8,6.1-.9-.7v2.2h-.7l-1.3,2.7.2-1.3-1.5,1.8.4.9-.9.4.2-1.3-1.6,1.1v1.5l-.9-.9c-7.75,6.85-12,18.18-11.6,30.4,10.72-2.48,18.59-13.74,21.6-26.6v-4.4l.9-.2.5,1.8a12.62,12.62,0,0,0-1.1-12.5l.5-1Zm-14.4.2-.7.4.9.7-.2-1.1Zm32.2,26.7-.9,1.8,1.1-.9Zm-5.6,2.9-1.1.4,1.1,1.1v-1.5Z" transform="translate(-0.03 -0.01)" fill="#fec010" stroke="#000" stroke-linecap="round" stroke-linejoin="round"/></g></svg>