<?xml version="1.0" encoding="utf-8"?>
<!-- Generator: Adobe Illustrator 23.0.0, SVG Export Plug-In . SVG Version: 6.00 Build 0)  -->
<svg version="1.0" id="Layer_1" xmlns="http://www.w3.org/2000/svg" xmlns:xlink="http://www.w3.org/1999/xlink" x="0px" y="0px"
	 width="50px" height="50px" viewBox="0 0 50 50" enable-background="new 0 0 50 50" xml:space="preserve">
<g>
	<g>
		<path fill="#FFFFFF" d="M28.7,8.5C28.5,7,26.8,6.1,25,6.1c-1.8,0-3.5,0.9-3.7,2.4s1.5,3,3.7,3C27.2,11.5,28.9,10,28.7,8.5z
			 M12.6,29c-4.3-0.1-6.3-0.1-9.2-0.3c0.9,2.1,2.8,3.7,5.2,4.6c0.8,6.1,6.8,10,13.4,10.5c0.1,0,0.2,0,0.3,0c0.6,0,1.2-0.2,1.3-0.6
			c0.1-0.4-0.4-0.8-1.1-0.9c-5.4-0.5-10-3.8-11-8.4c0.4,0,0.9,0.1,1.3,0.1C12.6,32.2,12.6,31.1,12.6,29z M15.6,23.7
			c-0.1,1.1-0.1,1.6-0.1,2.7c1.2,0,1.8,0,3.1,0c2.6,0,4.9,1.1,6.4,2.7c1.5-1.6,3.8-2.7,6.4-2.7c1.3,0,1.9,0,3.1,0
			c0-1.1,0-1.6-0.1-2.7c-0.1-1.5-1.5-2.7-3.2-2.7c-4.9,0-7.5,0-12.4,0C17.1,21.1,15.7,22.3,15.6,23.7z M34.3,34.1
			c0.1-2,0.2-3,0.2-5.1c-1.2,0-1.8,0-3.1,0c-2.6,0-4.8,1.8-4.8,3.9c0,3.4-0.1,5-0.1,7.6C30.6,40.1,34.1,37.8,34.3,34.1z M15.7,34.1
			c0.2,3.6,3.7,6,7.9,6.4c-0.1-2.6-0.1-4.2-0.1-7.6c0-2-2.2-3.9-4.8-3.9c-1.3,0-1.9,0-3.1,0C15.5,31.1,15.6,32.2,15.7,34.1z
			 M47.4,22.6c-0.1-0.7-0.5-1.2-1-1.3c-1.8-0.1-2.9-0.1-5.4-0.2c-0.1-0.5-0.1-0.8-0.1-1.3c-0.5-4.6-3.9-8.5-7.9-10.6
			c-0.6-0.3-1.4-0.2-1.7,0.3c-0.3,0.5-0.1,1.1,0.6,1.4c3.4,1.7,6.1,5.1,6.4,8.8c0.1,0.5,0.1,0.8,0.1,1.3c-0.8,0-1.3,0-2.1,0
			c0.5,0.8,0.9,1.7,1,2.6c0.1,1.1,0.1,1.6,0.1,2.6c4.8,0,7,0,9.9-0.1C47.5,25.1,47.5,23.9,47.4,22.6z M27.5,42.4
			c-0.8,0.1-1.3,0.5-1.1,0.9c0.1,0.3,0.7,0.6,1.3,0.6c0.1,0,0.2,0,0.3,0c6.6-0.5,12.6-4.4,13.4-10.5c2.5-0.9,4.3-2.5,5.2-4.6
			c-2.9,0.2-4.9,0.2-9.2,0.3c0,2.1,0,3.1-0.2,5.1c0.4,0,0.9,0,1.3-0.1C37.5,38.7,32.9,41.9,27.5,42.4z M12.7,26.4
			c0-1.1,0.1-1.6,0.1-2.6c0.1-1,0.4-1.9,1-2.6c-0.9,0-1.3,0-2.1,0c0-0.5,0.1-0.8,0.1-1.3c0.4-3.8,3-7.2,6.4-8.8
			c0.6-0.3,0.9-0.9,0.6-1.4c-0.3-0.5-1.1-0.6-1.7-0.3c-4,2.1-7.4,6-7.9,10.6c-0.1,0.5-0.1,0.8-0.1,1.3c-2.5,0-3.6,0.1-5.4,0.2
			c-0.5,0-0.9,0.6-1,1.3c-0.2,1.3-0.1,2.5,0.1,3.7C5.7,26.3,7.9,26.4,12.7,26.4z M20.7,15.2c-1,0.8-1.7,2-1.8,3.3c1.8,0,2.7,0,4.5,0
			c0-2.1,0.1-3.1,0.1-5c-1.1-0.2-1.9-0.5-2.4-0.9c-0.6-0.4-1.5-0.2-1.9,0.3c-0.5,0.5-0.4,1.2,0.2,1.6C19.8,14.8,20.2,15,20.7,15.2z
			 M30.8,12.9c-0.5-0.5-1.3-0.6-1.9-0.3c-0.5,0.3-1.4,0.7-2.4,0.9c0.1,1.9,0.1,2.8,0.1,4.9c1.8,0,2.7,0,4.5,0
			c-0.1-1.3-0.8-2.5-1.8-3.3c0.5-0.2,1-0.4,1.3-0.6C31.2,14.2,31.3,13.5,30.8,12.9z"/>
	</g>
</g>
</svg>
