<?xml version="1.0" encoding="utf-8"?>
<!-- Generator: Adobe Illustrator 23.0.0, SVG Export Plug-In . SVG Version: 6.00 Build 0)  -->
<svg version="1.0" id="Layer_1" xmlns="http://www.w3.org/2000/svg" xmlns:xlink="http://www.w3.org/1999/xlink" x="0px" y="0px"
	 viewBox="0 0 1200 1200" enable-background="new 0 0 1200 1200" xml:space="preserve">
<g id="New_Symbol_1_1_">
	<rect fill="#F9BF00" stroke="#FFFFFF" stroke-miterlimit="10" width="1200" height="1200"/>
	<g>
		<path fill="#FAD24E" d="M469.2,929.6c0,0-26.2-31.5-46.2-72.5s-34.2-85.5-37.5-137.5s-4.6-131,8.6-156.7
			c13.2-25.6,17.4-80.4,9.4-87.2c-8-6.8-39.6,48.5-39.6,48.5L348.6,600l5.7,88.3L360,734l4.6,25.3l3.9,26.3l0.5,18.8l6.2,20.5
			l10,32.3l16.5,29c0,0,26.2,24.5,27,26s13.3,20.3,14.5,20.1s16.3,0.8,16.3,0.8"/>
		<path fill="#FAD24E" d="M719.8,952.6c0,0,21.3-27.6,48.4-68.6c27-41,46.2-85.5,50.7-137.5s-1.7-127-11.6-156.7
			c-14.7-43.8-11.7-85-0.9-91.8s41.8,53.1,41.8,53.1l4,75.7l-4.3,70.9l-7.7,51.5l-4.3,28l-2,25l-2.7,13.8l-5.7,16.5l-12.3,38
			l-16.1,42.6c0,0-35.4,24.5-36.5,26s-18,20.3-19.6,20.1s-22.1,0.8-22.1,0.8"/>
		<path d="M604,1071.8c-0.9,0.6-1.9,1-2.9,1.5c-1-0.4-2-0.9-2.9-1.5c-2.2-1.4-4.1-3.3-6-5.2c3.1,1,6.2,1.9,9.3,1.9
			c2.9,0,5.7-1,8.5-1.9C608.1,1068.5,606.2,1070.4,604,1071.8z"/>
		<g>
			<path fill="#F9BF00" d="M364.5,791.3c-12.3-15.1-24.7-30.3-33.9-47.3c-5.1-9.3-9.2-19.2-12-29.5c-6.1-22.2-6.1-46.1-10.1-67.9
				c-2.4-13.1-6.2-25.4-9.5-40c-1-4.5-2-9.2,0-12.6c2.1-3.7,7.7-6,12.4-5.8c4,0.2,34.5,16.6,37.9,18.6"/>
			<path d="M364.1,791.6c-4.5-3.6-8.6-7.5-12.6-11.5s-7.8-8.3-11.3-12.8c-3.6-4.5-6.9-9.2-9.9-14.1c-3-4.9-5.4-10.3-7.2-15.8
				c-1.9-5.5-3.3-11.1-4.7-16.6c-1.4-5.6-2.6-11.1-3.9-16.6c-2.4-11.1-5.1-22.2-7.1-33.3c-1-5.5-1.8-11-2.8-16.4s-2.2-10.7-3.6-16
				c-2.7-10.7-5.4-21.6-7.1-33.1c-0.2-1.5-0.4-3.1-0.4-4.8s0.1-3.6,0.7-5.5c0.5-1.9,1.8-4,3.2-5.3c1.4-1.4,3-2.3,4.6-3
				s3.2-1.1,4.9-1.3c0.8-0.1,1.7-0.1,2.5-0.1c0.4,0,0.8,0,1.2,0.1l0.6,0.1l0.7,0.1l0.5,0.1c0.1,0,0.2,0.1,0.3,0.1
				c0.2,0.1,0.5,0.1,0.6,0.2c0.4,0.1,0.8,0.3,1.1,0.4c0.7,0.3,1.4,0.6,2,0.9c1.3,0.6,2.6,1.3,3.9,1.9c5,2.6,9.9,5.4,14.8,8.2
				s9.7,5.7,14.5,8.7c0.3,0.2,0.3,0.5,0.2,0.8c-0.2,0.2-0.5,0.3-0.7,0.2l0,0c-10.1-4.9-20.3-9.7-30.5-14.1c-1.3-0.5-2.6-1.1-3.8-1.5
				c-0.6-0.2-1.3-0.5-1.9-0.7c-0.3-0.1-0.6-0.2-0.9-0.3c-0.2,0-0.3-0.1-0.4-0.1s-0.1,0-0.2,0l0,0c0,0-0.2,0-0.3,0l-0.4,0.1
				c-0.3,0.1-0.6,0.1-0.9,0.2c-0.6,0.1-1.1,0.3-1.7,0.5c-1.1,0.4-2.1,1-3,1.6s-1.6,1.4-2.1,2.1c-0.5,0.7-0.6,1.3-0.7,2.1
				c-0.1,1.6,0.3,3.9,1.1,6.4c3,10.5,6.6,21.2,8.9,32.4c1.2,5.6,2.1,11.4,2.6,17.1c0.6,5.7,1.1,11.4,1.2,17
				c0.4,11.3-0.2,22.5,1.7,33.5c0.9,5.5,2.3,10.9,4.5,16c2.1,5.1,4.9,10,7.7,14.7l8.7,13.9c2.8,4.7,5.8,9.3,8.7,14
				c3,4.7,6,9.3,9,14.1s5.9,9.6,8.5,14.7c0.1,0.3,0,0.6-0.2,0.8C364.5,791.8,364.3,791.8,364.1,791.6z"/>
		</g>
		<g>
			<path fill="#F9BF00" d="M838.1,799.2c9.2-7.1,18.3-14.2,25.8-22.8c13.8-16,21.5-37,27.5-57.7c2.3-8,4.4-15.9,6.6-23.9
				c2.6-9.4,5.3-18.7,7.6-28.2c1.9-7.9,3.6-15.8,5.2-23.6c1.4-6.8,2.7-13.5,4-20.6c0.9-5.1,1.8-10.3,0-15c-1.6-4.2-5.3-7.8-9.4-9.5
				c-4-1.7-56.3,5.1-60.7,5.2"/>
			<path d="M837.8,798.8c4-4.7,8.2-9,12.2-13.3s7.9-8.6,11.3-13.2c3.5-4.5,6.5-9.4,9.4-14.3c3-4.9,6-9.9,8.9-15.1
				c2.9-5.2,5.5-10.6,7.5-16.2c2-5.6,3.6-11.4,4.8-17.3c1.2-5.9,2.2-11.8,3.2-17.8s2.2-11.9,3.5-17.7c2.7-11.6,4.4-23.3,7-35
				c1.3-5.8,2.7-11.6,4-17.4c0.7-2.9,1.3-5.6,1.6-8c0.1-1.2,0.1-2.4,0-3.5c-0.2-1.1-0.4-2.1-0.9-3.2c-0.5-1.1-1.1-2.1-1.9-3.1
				c-0.8-1-1.7-1.9-2.7-2.7c-0.2-0.2-0.5-0.4-0.8-0.6l-0.4-0.3l-0.2-0.1h0.1c0,0-0.4-0.1-0.7-0.1s-0.6,0-1-0.1c-1.4-0.1-2.9,0-4.3,0
				c-5.9,0.2-11.9,0.6-17.9,1l-17.9,1.3l-9,0.7c-3,0.2-6,0.5-9,0.5c-0.3,0-0.6-0.2-0.6-0.5s0.2-0.5,0.5-0.6h0.1
				c5.9-0.7,11.8-1.7,17.8-2.6c5.9-0.9,11.9-1.8,17.8-2.5c6-0.8,11.9-1.5,18-2.1c1.5-0.1,3-0.2,4.7-0.3c0.4,0,0.8,0,1.3,0
				s0.9,0,1.6,0.2c0.1,0,0.4,0.1,0.6,0.2l0.3,0.1l0.6,0.2c0.4,0.2,0.8,0.3,1.2,0.5c3.2,1.4,6.1,3.7,8.3,6.7c1.1,1.5,2,3.2,2.6,5.1
				c0.6,1.8,0.9,3.7,1,5.5c0.2,3.6-0.2,6.8-0.5,9.9c-0.7,6-1.6,12-2.7,17.9c-1.1,5.9-2.4,11.8-3.9,17.7s-3.2,11.8-5,17.5
				c-3.6,11.6-8.5,22.5-12.4,34c-1.9,5.7-3.7,11.5-5.3,17.3s-3,11.7-4.6,17.7c-1.7,5.9-3.7,11.8-6.6,17.3
				c-2.9,5.5-6.6,10.7-10.9,15.4c-4.2,4.7-9.1,8.7-14.1,12.2s-10.3,6.6-15.8,9.2c-0.3,0.1-0.6,0-0.8-0.3
				C837.6,799.2,837.6,798.9,837.8,798.8z"/>
		</g>
		<path d="M911.1,512.9c-0.9-4-3.7-7.8-4-11.9c-0.3-5.7,4.5-12,2.9-17.1c-0.9-3-4-5.6-4.9-8.9c-0.3-1.2-0.4-2.4-0.4-3.6
			c-0.2-4.3-0.5-8.5-0.8-12.7c-0.5-6.4-1-12.8-2.1-19.2c-1.4-8-3.9-15.9-7-23.4c-1.5-3.7-3.2-7.4-4.9-11.2c-2.9-6.4-5.9-13.1-5.6-20
			c0.2-5.6,2.6-11.3,2.4-16.7c-0.2-7.2-4.7-14-7.4-21.1c-1.9-5.2-2.9-10.5-4.2-15.7c-2.2-8.8-5.3-17.4-9.1-25.8
			c-6.9-15.3-16.1-29.8-28.3-40.9c-6.7-6.1-14.3-11.2-21-17.4c-10.3-9.6-18.4-22-29.8-29.4c-9.3-6.1-20.8-8.8-32.1-11.5
			c-4.5-1.1-9-2.1-12.9-4.2c-9.2-4.8-14.9-15-22.7-22.7c-8.5-8.4-19.5-13.8-30.9-16.8c-7.9-2.1-15.9-3.1-23.8-5.2
			c-8.5-2.3-16.8-5.9-25.5-6.3c-7.1-0.3-14.5,1.4-21.3,0c-5.7-1.2-11-4.5-16.7-5.9c-5.1-1.3-10.6-1.1-15.8,0
			c-4.3,0.9-8.3,2.3-12.6,2.8c-2,0.2-3.9,0.3-5.9,0.3c-10.8,0.4-21.9,2-31.8,5.9c-19.1,7.6-33.9,24.1-47.7,40.4
			c-6.7,7.9-13.1,15.8-17.9,24.5c-3.7,6.7-6.4,14-9.6,21.5c-1.4,3.3-2.9,6.7-5.4,8.9c-2.1,1.8-5,2.8-7.9,3.8
			c-5.4,0.8-10.7,1.7-15.7,3.5c-5.8,2.1-10.9,5.5-16.3,9.3c-6.2,4.4-12.7,9.2-14.8,15.9c-0.9,2.9-1,6.3-1.1,9.6
			c-1.3,0.1-2.6,0.1-3.9,0.3c-5,0.6-9.8,2.9-13.9,5.9c-5.3,3.9-9.3,9.2-13.7,14.1c-4,4.5-8.3,8.8-12.8,12.8
			c-9.4,8.5-19.7,16.3-26.5,26.7c-3.5,5.3-6,11.4-8,17.6c-1.8,5.5-3.1,11.2-7.2,15.5c-1.9,2.1-4.5,3.8-5.4,6.1
			c-1.4,3.5,0.8,8.2,0.7,12.4c-0.1,3-1.5,5.8-2.2,8.7c-0.7,3-0.7,6.1-0.9,9.2c-0.2,3.6-0.8,7.2-1.1,10.9c-0.5,5.6-0.3,11.3-2.4,16.5
			c-1.3,3.3-3.5,6.5-3.9,9.8c-0.5,3.5,0.9,7.2,1.1,10.9c0.1,2.8-0.4,5.5,0,8.3c0.7,5,4.3,9.7,3.9,14.6c-0.3,4.1-3.3,8.3-2.9,12.2
			c0.3,2.8,2.5,5.4,3.3,8.3c0.7,2.4,0.4,5,0.8,7.5c0.6,3.1,2.4,6,3.3,9c0.6,2,0.8,4,1.9,6.1c1.8,3.5,5.8,7.3,4.1,9.6
			c-0.5,0.7-1.5,1.2-2.6,1.8c1.6,1.7,3.1,3.5,4.3,5.4c1.8,2.8,2.9,6.1,4.1,9.4c-2.5-1.7-5.1-3.3-6.4-5.8c0.8,2,1.6,4,2.6,5.9
			c1.5,2.7,3.3,5.2,5.3,7.5c2.5,2.8,5.3,5.3,7.4,8.3c1.5,2.1,2.6,4.5,3.7,6.9c-1.9-0.4-3.7-0.8-5-2c-0.2-0.2-0.3-0.4-0.5-0.6
			c1.5,1.7,3,3.4,4.1,5.4c1.2,2.2,1.8,4.7,2.5,7.2c-1.5-0.6-2.9-1.1-4.3-1.9c-3.6-1.9-6.3-5.1-9.1-8.3c3,8.3,5.9,16.6,11.4,23.3
			c2.7,3.3,6,6.1,9.7,8.1c1.4,0.8,2.9,1.4,4.4,2c-2.3,1.1-4.6,2.2-7,2.6c-2.9,0.5-6-0.1-9-0.6c2.3,0.8,4.6,1.6,7.1,2
			c2.1,0.4,4.2,0.4,6.1-0.2c0.8-0.2,1.5-0.6,2.2-0.9c0.2,4.8,0.4,9.5,0.1,14.3c-0.3,4-0.9,8.1-0.4,12c0.4,3.6,1.8,7.2,2.4,10.8
			c0.7,5.1-0.2,10.4,0.2,15.5c0.5,6.5,3.2,12.7,3.7,19.2c0.2,3.4-0.2,7,0.4,10.3c0.4,1.9,1.1,3.7,1.7,5.6c1.8,5.1,3.4,10.4,3.9,15.7
			c0.4,4.7-0.1,9.5,0.2,14.2c0.4,5.2,1.8,10.2,3,15.3c1.2,4.7,2.2,9.5,3.2,14.2c0.5,3.1,0.9,6.3,1.3,9.4c0.5,3.6,0.8,7.3,0.9,10.9
			c0.1,3.3,0,6.5-0.2,9.9c-0.2,3.7-0.5,7.6,0.6,11c0.9,3,3,5.6,4.3,8.6c0.5,1.1,0.9,2.3,1.1,3.5c0.4,2.3,0,4.7,0.2,7
			c0.2,2,0.9,3.8,1.9,5.8c1.3,2.6,3,5.2,2.4,7.7c-0.3,1.5-1.6,3-2.4,4.5c-3.9,6.8-0.7,15.2,2.1,22.7c1.5,4,2.8,7.8,4.1,11.5
			c-0.2-3-0.3-6-0.4-8.9c0-2.5,0-5,0-7.4c1.7,3.2,3.4,6.4,3.9,9.9c0.3,2.1,0.3,4.2,0.4,6.4c0.1,1.8,0.4,3.7,1.1,5.2
			c1.1,2.2,3.3,3.8,5.4,5.4c-0.6-1.1-1.2-2.3-1.6-3.5c-0.3-1-0.4-2.1-0.6-3.1c1.5,1.9,2.9,3.9,3.5,6.1c0.5,2.1,0.2,4.3,0.4,6.6
			c0.2,2.4,0.9,4.7,1.9,6.9c1.7,3.7,4.1,6.9,6,10.8c1.9,4,3.3,8.9,7.1,10.4c0.6,0.2,1.2,0.4,1.9,0.6c0.4,1.8,0.9,3.6,1.5,5.3
			c1,2.6,2.5,4.9,4.3,7.1c1.5,1.7,3.2,3.3,4.1,5.2c0.8,1.6,1,3.4,1.5,5.2c1,3.6,3.1,6.9,6.4,8.8c2.2,1.3,4.9,2,6.5,3.5
			c2.5,2.5,2.2,7.3,3.2,11.2c0.9,3.7,3,6.6,5,9.7c0.8,1.1,1.5,2.3,2.5,3.2c1.4,1.3,3.2,2.1,5.1,2.9c-1.4-2-2.8-4-3.9-6.2
			c-1.3-2.5-2.1-5.3-2.9-8c1.7,2.7,3.5,5.4,5.7,7.7c2.9,3,6.8,5.2,9.1,8.5c1.1,1.5,1.8,3.3,2.6,5c0.2,2.4,0.4,4.8,1.2,7
			c1.1,3.3,3.4,6.1,5.7,8.9c-0.1-2-0.2-4-0.1-6c0.1-2.5,0.4-5.1,0.7-7.6c1.4,1.1,2.8,2.1,3.2,3.5c0.3,1.1,0,2.5-0.2,3.8
			c-0.4,2-0.5,3.9-0.4,5.8c0.3,3.9,1.6,7.7,2.9,11.5c-1.3-3.9-2.5-7.8-1.9-11.6c0.3-1.9,1.1-3.8,1.9-5.7c1,0.4,2.1,0.8,2.8,1.5
			c1.5,1.4,1.7,3.9,2,6.2c0.3,1.8,0.7,3.4,1.8,4.7c0.4,0.5,0.9,0.9,1.4,1.2c-0.9-1.9-1.8-3.8-0.8-4.8c0.6-0.6,1.9-0.9,2.8-0.6
			c1.4,0.4,2,2.1,2.1,3.6c0.1,1.6-0.4,2.9-0.5,4.3c-0.1,1.8,0.6,3.7,1.3,5.6c0.7-0.8,1.5-1.7,2.1-2.6c1-1.3,1.8-2.7,2.6-4.1
			c1,1.1,2.1,2.2,2.7,3.5c1,2.2,0.8,4.9,1.3,7.4c0.5,2.6,1.6,4.9,2.8,7.3c0-1.5,0-2.9,0.4-4.3c0.3-1.1,0.7-2.1,1.2-3.2
			c1,1.2,1.9,2.3,2.3,3.6c0.6,1.9,0.1,4.1,0,6.2c-0.1,1.4,0,2.8,0.1,4.2c0.5-1.3,1.1-2.6,1.8-3.7c0.4-0.7,0.9-1.4,1.4-2.1
			c0.7,1.1,1.5,2.2,2.1,3.4c1.7,3,2.7,6.4,3.4,9.8c0.3,1.2,0.5,2.5,0.7,3.7c1.6-0.9,3.2-1.8,4.2-3.2c1.4-1.8,1.7-4.2,2.1-6.7
			c1,1.9,2,3.9,3.3,5.7c1.2,1.8,2.6,3.4,3.9,5.1c0-1,0.1-2-0.2-3.1c-0.3-1.2-1-2.5-0.8-3.7c0.1-0.6,0.4-1.2,0.7-1.8
			c1.6,0.4,3.1,0.8,4.3,1.8c1.6,1.4,2.3,3.8,3.2,6c1,2.5,2.3,4.7,4.1,6.4c1.9,1.8,4.3,3.1,6.8,4.1c1.8,0.8,3.5,1.4,5.3,2.1
			c-2.7-2-5.4-4-7.8-6.6c-1.9-2-3.6-4.4-3.9-7.1c-0.1-0.7,0-1.3,0-2c3.5,1.1,7,2.1,9.4,4.4c2.2,2,3.5,4.8,4.9,7.7
			c0.2-1.2,0.3-2.5,0.7-3.7c0.2-0.6,0.5-1.2,0.7-1.8c1.6,0.5,3.2,0.9,4.5,1.8c2.1,1.3,3.6,3.6,5,5.8c0.7,1.1,1.3,2.1,2,3.2
			c0.9-0.5,1.8-1,2.2-1.8c0.5-0.9,0.3-2.2,0.1-3.5c2.1,1.4,4.2,2.2,6.3,3.3c2.2,1.2,4.5,2.8,5,5.1c0.1,0.6,0.1,1.2,0.1,1.9
			c0.8-1.2,1.5-2.4,1.7-3.7c0.1-0.9-0.1-1.9-0.4-2.9c2,1.4,3.9,2.7,5.3,4.5c1.9,2.3,2.8,5.4,3.7,8.5c0.8-1.3,1.7-2.6,2-4
			c0.4-1.9-0.1-4.1-0.9-6c-0.8-1.9-1.9-3.5-2.9-5.2c2.3,1.4,4.6,2.8,6.8,4.4c2.3,1.6,4.6,3.4,7.2,4.5c0.4,0.2,0.8,0.3,1.2,0.4
			c-1.2,0.4-2.4,0.8-3.6,1.1c2.1-0.1,4.1-0.2,6.1-0.5c2,0.3,4,0.4,6.1,0.5c-1.2-0.4-2.4-0.7-3.6-1.1c0.4-0.1,0.8-0.3,1.2-0.4
			c2.6-1,4.9-2.9,7.2-4.5c2.2-1.6,4.5-3,6.8-4.4c-1.1,1.6-2.1,3.3-2.9,5.2c-0.8,1.9-1.4,4.1-0.9,6c0.3,1.4,1.2,2.7,2,4
			c0.9-3.1,1.8-6.1,3.7-8.5c1.4-1.8,3.4-3.1,5.3-4.5c-0.2,1-0.5,2-0.4,2.9c0.1,1.3,0.9,2.5,1.7,3.7c0-0.6,0-1.3,0.1-1.9
			c0.5-2.2,2.7-3.9,5-5.1c2.1-1.1,4.1-1.9,6.2-2.7c-0.1,0.6-0.3,1.9,0.2,2.9c0.4,0.8,1.3,1.3,2.2,1.8c0.7-1.1,1.3-2.1,2-3.2
			c1.4-2.2,2.9-4.4,5-5.8c1.3-0.8,2.9-1.3,4.5-1.8c0.3,0.6,0.5,1.2,0.7,1.8c0.4,1.2,0.5,2.4,0.7,3.7c1.4-2.9,2.7-5.8,4.9-7.7
			c2.5-2.2,5.9-3.3,9.4-4.4c0,0.7,0.1,1.3,0,2c-0.2,2.6-2,5-3.9,7.1c-2.4,2.6-5.1,4.6-7.8,6.6c1.8-0.7,3.5-1.3,5.3-2.1
			c2.5-1.1,4.9-2.3,6.8-4.1c1.8-1.7,3.1-3.9,4.1-6.4c0.9-2.2,1.6-4.7,3.2-6c1.1-0.9,2.7-1.3,4.3-1.8c0.3,0.6,0.6,1.2,0.7,1.8
			c0.2,1.2-0.5,2.4-0.8,3.7c-0.2,1-0.2,2-0.2,3.1c1.4-1.6,2.8-3.3,3.9-5.1c1.2-1.8,2.2-3.8,3.3-5.7c0.4,2.5,0.7,4.9,2.1,6.7
			c1,1.3,2.6,2.2,4.2,3.2c0.2-1.2,0.4-2.5,0.7-3.7c0.7-3.4,1.7-6.8,3.4-9.8c0.6-1.2,1.4-2.3,2.1-3.4c0.5,0.7,1,1.4,1.4,2.1
			c0.7,1.2,1.2,2.5,1.8,3.7c0.1-1.4,0.2-2.8,0.1-4.2c-0.1-2.1-0.6-4.3,0-6.2c0.4-1.3,1.4-2.5,2.3-3.6c0.5,1,0.9,2.1,1.2,3.2
			c0.3,1.4,0.3,2.9,0.4,4.3c1.2-2.3,2.4-4.7,2.8-7.3c0.5-2.5,0.3-5.2,1.3-7.4c0.6-1.3,1.7-2.4,2.7-3.5c0.8,1.4,1.6,2.8,2.6,4.1
			c0.7,0.9,1.4,1.7,2.1,2.6c0.7-1.9,1.4-3.8,1.3-5.6c-0.1-1.4-0.6-2.8-0.5-4.3s0.7-3.2,2.1-3.6c0.9-0.3,2.2,0,2.8,0.6
			c1,1,0.1,2.9-0.8,4.8c0.5-0.4,1-0.8,1.4-1.2c1.1-1.2,1.5-2.9,1.8-4.7c0.4-2.3,0.6-4.8,2-6.2c0.7-0.7,1.7-1.1,2.8-1.5
			c0.8,1.9,1.6,3.8,1.9,5.7c0.6,3.8-0.6,7.7-1.9,11.6c1.3-3.8,2.7-7.7,2.9-11.5c0.1-1.9,0-3.8-0.4-5.8c-0.2-1.3-0.6-2.7-0.2-3.8
			c0.4-1.4,1.8-2.4,3.2-3.5c0.3,2.5,0.6,5,0.7,7.6c0.1,2,0,4-0.1,6c2.3-2.8,4.6-5.6,5.7-8.9c0.7-2.2,1-4.6,1.2-7
			c0.8-1.7,1.5-3.5,2.6-5c2.3-3.4,6.2-5.6,9.1-8.5c2.3-2.3,4-5,5.7-7.7c-0.8,2.8-1.7,5.5-2.9,8c-1.1,2.2-2.5,4.2-3.9,6.2
			c1.8-0.8,3.7-1.6,5.1-2.9c1-0.9,1.7-2.1,2.5-3.2c2.1-3.1,4.1-6,5-9.7c1-3.9,0.7-8.7,3.2-11.2c1.6-1.6,4.3-2.2,6.5-3.5
			c3.2-1.9,5.3-5.2,6.4-8.8c0.5-1.8,0.7-3.6,1.5-5.2c0.9-1.9,2.6-3.5,4.1-5.2c1.8-2.1,3.3-4.5,4.3-7.1c0.6-1.7,1.1-3.5,1.5-5.3
			c0.6-0.2,1.3-0.3,1.9-0.6c3.8-1.5,5.2-6.4,7.1-10.4c1.9-3.9,4.3-7.1,6-10.8c1-2.1,1.7-4.5,1.9-6.9c0.2-2.2-0.1-4.5,0.4-6.6
			c0.6-2.2,2-4.1,3.5-6.1c-0.1,1.1-0.3,2.1-0.6,3.1c-0.4,1.2-1,2.4-1.6,3.5c2.2-1.6,4.3-3.2,5.4-5.4c0.8-1.5,1-3.4,1.1-5.2
			c0.1-2.2,0-4.3,0.4-6.4c0.6-3.4,2.2-6.6,3.9-9.9c0,2.5,0,5,0,7.4c-0.1,3-0.2,6-0.4,8.9c1.3-3.8,2.6-7.5,4.1-11.5
			c2.7-7.5,5.9-15.9,2.1-22.7c-0.9-1.5-2.1-2.9-2.4-4.5c-0.5-2.4,1.2-5.1,2.4-7.7c0.9-1.9,1.7-3.8,1.9-5.8c0.2-2.3-0.2-4.7,0.2-7
			c0.2-1.2,0.6-2.4,1.1-3.5c1.3-2.9,3.3-5.6,4.3-8.6c1.2-3.4,1.1-7.2,0.6-11c-0.5-3.4-1.2-6.8-0.2-9.9c0.7-1.9,2.1-3.7,2.9-5.6
			c1.9-4.4,0.6-9.5-0.7-14.7c-0.3-2.1-0.7-4.2-0.2-6c0.7-2.6,3.3-4.6,5.2-7c4.5-5.5,5.4-12.6,5.9-19.6c0.5-6.3,0.6-12.4,1.9-18.3
			c1.2-5.2,3.2-10.3,4.4-15.6c0.9-4.3,1.3-8.7,0.7-13c-0.7-5.2-2.9-10.3-2.6-15.4c0.1-1.9,0.5-3.8,1-5.7c0.3,1.3,0.5,2.6,0.7,4
			c0.3,2.4,0.3,4.8,0.3,7.2c0.8-2.2,1.5-4.4,2.1-6.7c0.7-3,1-6.2,1.9-9.2c0.6-1.8,1.3-3.4,2.2-5.1c1.7-3.4,3.8-6.6,5.1-10.1
			c1.5-4.1,2-8.4,1.8-13.1c-0.3-5.3-1.5-11,1.1-15.1c0.9-1.4,2.3-2.6,3.7-3.9c0.7,1.4,1.4,2.9,1.6,4.4c0.3,1.6,0.1,3.3,0,4.9
			c2.1-3.1,4.2-6.1,3.3-9.4c-0.6-2.1-2.4-4.3-1.9-6.1c0.3-1.1,1.5-2.1,2.6-3c2.6-2,5-3.5,8.1-4.1c0.6-0.1,1.2-0.2,1.6-0.4
			c2.9-1.2,1.8-6.4,2.8-9.9c0.8-2.6,2.7-4.3,4.4-6.3c4-4.7,6.5-10.9,6.1-17c-0.2-3.2-1.2-6.3-1.1-9.4c0.1-5,3-9.7,4.6-14.6
			c1.8-5.6,1.9-11.3,2.9-17.2C910.7,521.7,912,517.2,911.1,512.9z M840.2,731.4c-0.2,1.2-0.5,2.3-0.8,3.5c-0.6,2.6-1.2,5.2-1.8,7.8
			c-1.5,6.8-2.9,13.6-4,20.4c-1.4,8.5-2.3,17.1-2.9,25.9c-0.5,8.8-0.6,17.9-3.9,25.9c-1.8,4.3-4.5,8.2-6.6,12.4
			c-2,4.1-3.4,8.4-4.3,12.9c-0.7,3.6-0.9,7.4-3,10.5c-1.1,1.6-2.7,3-3.3,4.8c-0.8,2.2-0.3,4.9-1.6,7c-1,1.7-3.2,2.9-3.4,4.7
			c-0.1,0.9,0.3,1.9,0.1,2.8c-0.3,1.7-2.4,2.9-4.3,3.2c-0.9,0.2-1.7,0.1-2.5,0.1c0.6,1.1,1.2,2.1,1.8,3.2c-1.6,0.6-3.3,1.3-5,1.4
			c-2.1,0.2-4.2-0.2-6.3-0.6c1,1.6,2,3.2,2.3,5c0.2,1,0.2,2,0.2,3.1c-0.9-0.5-1.7-1-2.7-1.3c-1.8-0.6-3.7-0.3-5.7-0.1
			c0.3,0.9,0.5,1.8,0.6,2.8c0,1-0.1,2-0.3,3c-2.3-0.6-4.6-1.2-6.9-1.8c1,0.9,1.9,1.7,2.4,2.8c0.6,1.3,0.5,3,0.4,4.6
			c-1-0.1-2.1-0.2-3.1-0.4c-1.5-0.4-3-1-4.4-1.7c0.2,0.7,0.3,1.4,0.6,2.1c0.3,1,0.6,2,1,2.9c-2.8-1.7-5.6-3.4-8.5-5.1
			c1.7,3.5,3.5,7,3.1,10.4c-0.3,2.4-1.5,4.7-2.8,7c-0.5-1-1.1-1.9-1.7-2.8c-2.2-3.1-5.5-5.2-8.7-7.3c0.7,1.7,1.4,3.4,2.1,5.1
			c1,5.7,2,11.4-1.1,17c-1.5,2.8-4.1,5.6-7,5.1c-2.3-0.4-4.7-2.9-6.1-3.2c-3.2-0.8-0.4,10.4-2.6,16c-1.3,3.4-4.4,4.7-7.6,6.1
			c-1.6-5.5-3.1-11-3.5-16.5c-0.6-8.4,1.5-17,3.7-25.5c-2.4,3.2-4.9,6.4-7.8,9.1c-2.5,2.4-5.4,4.5-7.7,7c-2.8,3-4.7,6.8-6.7,10.5
			c-1.1,3.5-2.1,7.1-1.3,10.2c0.8,2.9,3.2,5.5,4.7,8.5c1.5,3.1,1.9,6.5,2,9.9c0,1.6,0,3.1,0,4.7c-1.2-2.1-2.4-4.2-4.1-5.8
			c-1-1-2.3-1.8-3.5-2.6c1.6,3.9,3.2,7.7,3.5,11.7c0.3,4.1-0.7,8.3-1.8,12.5c-0.5-3.3-1.1-6.6-2.6-9.3c-1-1.8-2.4-3.4-3.8-5
			c0,3.7,0.1,7.3,0.9,13.1c0.3,2.3,0.8,5-0.3,5.3c-0.6,0.2-1.7-0.4-2.6-1.2c-2.4-2-4.3-5.4-5-5.2s0,4.4,1.2,7.6
			c0.8,2.2,1.8,3.9,1.2,5.2c-0.5,1-1.8,1.7-2.9,2.6c-2,1.6-3.3,3.7-5.3,4.4c-1.7,0.6-3.8,0.2-5.8-0.3c-4-0.9-7.7-1.8-10.7-3.9
			c-2.3-1.7-4.2-4-6.1-6.4c0,0,0,0.1,0,0.2c0,1.6,0.4,4.8-0.7,6.3c-0.6,0.8-1.5,1.1-2.5,1.4c-1-1.7-1.9-3.5-2.7-5.3
			c-1-2.5-1.5-5.1-4.2-11.2c-0.2,3.2-0.4,6.3-1.2,10.3c-0.7,3.7-2,8-4.4,8.5c-1.7,0.4-3.9-1.1-6.2-2.6c0.5,2.1,0.9,4.2-0.3,5
			c-0.5,0.3-1.3,0.4-2,0.4c-3.4-0.3-4.6-4.2-5.9-8.1c-0.1,2.8-0.1,5.7-1.7,6.2c-1.5,0.5-4.3-1-5.5-2.9c-1-1.6-0.9-3.3-0.7-5.1
			c-1.3,2.4-2.6,4.7-4.2,5.1c-1.9,0.5-4.3-1.8-6.6-4c-1.4-2.4-2.8-4.7-3.2-4.2c-0.3,0.5,0.2,3.1-0.6,4.6c-0.5,1.1-1.7,1.5-2.9,1.8
			c0.3,0.5-1.2,0.7-2.2,0.4c-2.5-0.9-2.1-5.4-2-6.1c-0.1,0.4-0.4,2.4-1.3,3.1c-1,0.8-2.5,0-3.5-1.4c-1.8-2.6-1.1-6.9-1.3-7
			s-1.2,3.3-2.3,6.2c-1.5,3.7-3.2,6.3-5.7,6.3c-1.3,0-2.8-0.8-4.2-1.5c-1.2-0.4-2.4-0.8-2.9-1.8c-0.7-1.4-0.2-4.1-0.6-4.6
			c-0.4-0.5-1.8,1.8-3.2,4.2c-2.4,2.2-4.7,4.5-6.6,4c-1.6-0.4-2.9-2.8-4.2-5.1c0.1,1.8,0.3,3.6-0.7,5.1c-1.2,1.9-4,3.5-5.5,2.9
			s-1.6-3.4-1.7-6.2c-1.2,3.9-2.4,7.8-5.9,8.1c-0.7,0.1-1.5,0-2-0.4c-1.3-0.8-0.8-2.9-0.3-5c-2.2,1.5-4.5,3-6.2,2.6
			c-2.4-0.5-3.7-4.8-4.4-8.5c-0.8-3.9-1-7.1-1.2-10.3c-1.5,7-2.7,9.1-4,11.4c-0.9,1.7-1.9,3.4-2.9,5.1c-1-0.3-1.9-0.6-2.5-1.1
			c-1.2-1-1.2-2.7-1.7-4.6c0-0.1-0.1-0.2-0.1-2.8c-1.5,2.7-2.9,5.3-5.1,7.1c-2.7,2.2-6.6,3-10.7,3.9c-2.1,0.4-4.2,0.9-5.8,0.3
			c-1.9-0.7-3.3-2.8-5.3-4.4c-1.1-0.9-2.5-1.7-2.9-2.6c-0.6-1.3,0.4-3,1.2-5.2c1.1-3.2,1.9-7.4,1.2-7.6c-0.6-0.2-2.5,3.3-5,5.2
			c-1,0.8-2,1.3-2.6,1.2c-1.1-0.3-0.6-3-0.3-5.3c0.8-5.8,0.8-9.5,0.9-13.1c-1.4,1.6-2.8,3.2-3.8,5c-1.5,2.8-2.1,6.1-2.6,9.3
			c-1.1-4.2-2.1-8.4-1.8-12.5c0.3-4,2-7.8,3.6-11.7h-0.1c-2.4,0.6-3.9,2.8-5.3,4.9c-0.8,1.2-1.5,2.4-2.3,3.5c0-1.6,0-3.1,0-4.7
			c0.1-3.4,0.5-6.8,2-9.9c1.4-2.9,3.9-5.5,4.7-8.5c0.8-3.1-0.2-6.7-1.3-10.2c-2-3.7-3.9-7.5-6.7-10.5c-2.3-2.5-5.2-4.6-7.7-7
			c-2.9-2.8-5.3-5.9-7.8-9.1c-2.7,4.8-5.3,9.6-9.1,12.9c-4.3,3.8-10.2,5.9-16.1,7.9c-0.7-3.5-1.3-7-1.1-10.4
			c0.3-4.9,2.2-9.6,4.2-14.4c-3.3,2.1-6.6,4.3-8.7,7.3c-0.6,0.9-1.2,1.9-1.7,2.8c-1.3-2.3-2.6-4.7-2.8-7c-0.4-3.4,1.4-6.9,3.1-10.4
			c-2.8,1.7-5.6,3.4-8.5,5.1c0.4-1,0.7-1.9,1-2.9c0.2-0.7,0.4-1.4,0.6-2.1c-1.5,0.7-2.9,1.3-4.4,1.7c-1,0.2-2.1,0.3-3.1,0.4
			c-0.1-1.7-0.2-3.3,0.4-4.6c0.5-1.1,1.5-1.9,2.4-2.8c-2.3,0.6-4.6,1.2-6.9,1.8c-0.2-1-0.4-2-0.3-3c0-0.9-0.1-2.2-0.1-3.1l-0.5,0.1
			c-2-0.1-2.5,0.5-4.3,1.1c-0.9,0.3-1.8,0.8-2.7,1.3c0-1,0-2.1,0.2-3.1c0.4-1.8,1.3-3.4,2.3-5c-2.1,0.4-4.3,0.9-6.3,0.6
			c-1.7-0.2-3.3-0.8-5-1.4c0.6-1.1,1.2-2.1,1.8-3.2c-0.8,0-1.7,0.1-2.5-0.1c-1.9-0.3-4-1.5-4.3-3.2c-0.1-0.9,0.2-1.9,0.1-2.8
			c-0.2-1.8-2.4-3-3.4-4.7c-1.3-2-0.7-4.8-1.6-7c-0.7-1.8-2.2-3.1-3.3-4.8c-2-3-2.3-6.8-3-10.5c-0.8-4.6-2.2-8.9-4.3-12.9
			c-2.1-4.2-4.8-8.2-6.6-12.4c-3.3-8-3.4-17.1-3.9-25.9c-0.5-8.8-1.5-17.3-2.9-25.9c-1.1-6.8-4.5-22.9-6.1-29.6l-0.3-1.5
			c0,0,0,0-0.2-0.9c-0.2-0.8-0.5-2.5-0.7-3.3c-0.5-2.6-1.1-19-0.7-24.5c0.5-6.3,1.2-12.6,1.5-18.8c0.2-5.4,0.1-10.9,0.4-16.4
			c0.1-2,0.2-3.9,0.7-5.8c1.3-4.4,4.8-8.3,5.8-12.7c1.1-5-1.2-10.8,0.4-15.9c0.9-3.1,3.2-6,3-9.1c-0.1-1.1-0.5-2.3,0.3-3.6
			c0.6-0.9,2-1.9,1.7-2.1c-0.2-0.2-1.6,0.2-2.3-0.2c-0.8-0.4-0.6-1.8-0.2-2.7c0.5-1.1,1.2-1.4,2-2.5c1.2-1.6,2.6-4.7,1.9-4.1
			c-0.2,0.2-0.7,0.7-1.2,0.8c-0.4,0.1-0.9-0.3-1.1-0.6c-1.1-1.5,1.7-2.6,2.9-4.8c1.2-2.3,0.7-5.8-0.4-5.7c-0.7,0-1.5,1.3-2.3,2.4
			c-1.5,2.4-3,4.7-4.4,7.1c1.3-2.1,2.5-4.2,4.4-7c0,0,0,0,0-0.1l0.1-0.1c1.1-1.7,2.3-3.5,2.7-5.4c0.9-4.2-2-9.2-1-13.2
			c0.5-1.8,1.7-3.5,3-5.1c-1.4,1.1-2.8,2.2-4,3.4c-1.9,2-3.4,4.5-4.8,7c0.9-2.2,1.7-4.4,2.5-6.6c0.8-2.1,1.5-4.3,2.7-6.2
			c1.4-2.3,3.3-4.3,5.3-6.3c-0.8,0.4-1.7,0.9-2.5,1.3c-3.1,1.8-5.9,4-8.2,6.7c-2.6,3-4.6,6.4-6.5,9.9c2.6-5.2,5.1-10.3,8.8-14.6
			c1.9-2.2,4.1-4.2,6.3-6.2c2.6-2.4,5.1-4.8,7.6-7.2c-1.3,0.9-2.6,1.7-3.9,2.4c-2.8,1.3-6,1.7-9.3,2.1c3-1.4,6.1-2.7,8.7-4.6
			c4.6-3.3,8.1-8.1,12.2-12.1s8.9-7.1,13.7-10.2c-2.2,1.3-4.3,2.7-6.6,3.8c-4.1,2-8.5,3.4-12.6,5.5c-2.9,1.5-5.7,3.3-8.4,5
			c1.8-1.8,3.5-3.6,5.3-5.3c2.2-2.1,4.6-4.1,7-5.9c4.1-3,8.4-5.7,12.8-8.3c-3.3,1.3-6.6,2.6-10,3.8s-6.9,2.1-10.4,3.1
			c3.5-1.9,7-3.8,10.1-6.3c2-1.7,3.9-3.6,5.9-5.2c4.7-3.8,10.6-5.9,16.4-8c-4.1,0.9-8.3,1.8-12.3,2.8c-4.4,1.1-8.8,2.4-13.9,4.2
			c2.8-2,5.7-3.9,8.6-5.8c6-3.9,12.2-7.5,18.5-11c-2.9,0.7-5.8,1.5-8.7,1.8c-2.2,0.2-4.3,0.2-6.5,0.1c4.2-1.9,8.4-3.7,11.7-6.7
			c3.4-3.1,5.8-7.3,7.5-11.8c1.8-4.6,3-9.4,2.4-14.2c-0.2-1.4-0.5-2.8-0.5-4.2c0-2.8,1.5-5.4,2.9-8.1c5.9-11,11.3-21.8,20.5-29.5
			c3.6-3,7.8-5.5,12.2-7.2c5.7-2.1,11.9-2.8,17.9-4.1c6.3-1.4,12.5-3.6,18.9-4.3c3.6-0.4,7.3-0.5,10.9,0c8.1,1,15.7,4.5,23.9,5.6
			c6.7,0.9,13.9,0.4,19.8,3.3c1.3,0.6,2.5,1.4,3.7,2.2c-0.9-1.2-1.7-2.4-2.5-3.7c-0.6-0.9-1.1-1.9-1.8-2.7c-1.2-1.3-2.9-2.1-4.6-2.9
			c2,0.1,3.9,0.1,5.9,0.4c3.1,0.5,6,1.6,9,2.7c-0.5-1.4-0.9-2.8-1.6-3.9c-1.8-3.1-5.3-5-8.8-6.8c7,0.7,14,1.4,21,2.4
			c3.9,0.5,7.7,1.1,11.5,2c12,2.6,23.5,7.1,34.9,11.8c5.8,2.4,11.5,4.8,17.2,7.2c-2.2-2.4-4.4-4.7-6.5-7.2c-3-3.5-5.9-7.1-8.7-10.7
			c3.2,0.5,6.3,1,9.4,1.7c9.6,2.4,18.4,7.2,27.1,12.6c0.3-0.4,0.6-0.9,0.9-1.3c-3.5-3.5-7-7-10.5-10.8c-2.6-2.8-5.2-5.7-6.1-9.1
			c-0.5-2-0.5-4.1-0.4-6.3c3.2,1.1,6.3,2.2,9,3.9c5,3.2,8.3,8.7,11.5,14.1c-0.9-3.9-1.8-7.8-2-11.8c-0.1-1.8,0-3.6,0-5.4
			c1.8,0.9,3.7,1.9,4.6,3.5c0.5,0.9,0.7,2,0.9,3c1.2-2.5,2.4-5.1,2.2-7.6c-0.1-0.9-0.4-1.9-0.7-2.8c0.9,2.5,1.9,5,2,7.5
			c0.2,4.4-2.3,8.7-4.8,12.8c-1.9,3.1-3.8,6.1-5.7,9c0.1,0.1,0.3,0.3,0.4,0.4c4.2-5.7,8.4-11.5,12.1-17.7c2.3-3.8,4.5-7.8,5.6-12.1
			c0.6-2.5,0.9-5,1.1-7.6c2.2,2.7,4.4,5.5,5.7,8.4c3.7,8.4,0.1,18.6-3.4,28.7c3.8-6.2,7.7-12.4,8.7-19.2c0.5-3.2,0.4-6.6,0.3-9.9
			c2.5,3.6,5.1,7.2,7.2,10.9c7.5,13,10.7,28.2,13.9,43.3c-0.8-8.3-1.7-16.6-3.1-24.8c-1.3-7.2-3.1-14.4-5.7-21.3
			c-1-2.7-2.2-5.4-3.4-8c3,2.7,6.1,5.5,8.9,8.4c6.8,7.2,12.2,15.8,16.6,24.8c2,4.1,3.9,8.3,6.7,11.7c2.4,2.9,5.6,5.3,8.7,7.6
			c-3.2-3.9-6.5-7.7-8.3-12.1c-2.5-6.1-2.1-13.3-2.6-20.2c-0.3-3.7-0.7-7.2-1.2-10.8c2.6,4.3,5.1,8.6,7.2,13.1
			c1.5,3.3,2.8,6.6,3.6,10.1c0.3,1.2,0.5,2.4,0.7,3.5c0.3-2.4,0.7-4.8,0.5-7.2c-0.1-3.4-1.2-6.7-2.2-10.1c1.3,1.7,2.5,3.3,3.7,5
			c2.2,3.3,3.9,6.8,5.5,10.5c3.4,7.9,6.4,16.6,12.4,22.1c5.1,4.6,12.3,7,19,9.7c2.1,0.8,4.2,1.7,6.3,2.6c-0.5,6.5-1.1,12.9-3,19.1
			c-1.9,6.1-5.3,11.9-9.4,16.8c-2.6,3.1-5.6,5.9-8.5,8.7c6.8-5.8,13.6-11.7,17.7-19.1c3.2-5.7,4.7-12.3,6.3-19
			c1.8,4.3,3.5,8.6,6,12.5c1.4,2.2,3.1,4.3,4.5,6.6c1,1.6,1.9,3.3,2.7,4.9c-0.9-0.5-1.7-1-2.4-1.7c-0.6-0.5-1.1-1.2-1.6-1.8
			c0.3,1.2,0.7,2.4,1.1,3.5c0.5,1.3,1,2.5,1.6,3.7c-1.2-0.7-2.5-1.4-3.2-2.5c-0.3-0.5-0.6-1.2-0.8-1.8c0.1,3.2,0.1,6.4,0.9,9.3
			c0.5,1.9,1.4,3.8,2.2,5.7c-0.6,0-1.2,0-1.7-0.1c-1.7-0.2-3.3-1-4.8-1.9c2.5,3,5.1,6,6.3,9.6c1.5,4.4,1,9.7,3.3,13.5
			c1.1,1.8,2.9,3.4,4.6,4.9c-0.9-1.3-1.9-2.6-2.4-4.1c-0.8-2-0.8-4.3-1.1-6.6c-0.3-2.7-0.9-5.3-1.5-7.9c1.4,3.7,2.9,7.5,5.3,10.4
			c2,2.5,4.6,4.4,6.9,6.9c1.4,1.6,2.7,3.5,2.9,5.4c0.3,2.6-1.4,5.4-1.9,8.1c-0.7,3.7,0.9,7.3,1.8,11.1c0.7,3.2,1,6.5,0.1,9.6
			c-1,3.7-3.6,7.1-6.5,9.8c-0.9,0.9-1.8,1.7-2.8,2.5c1-0.9,2-1.7,2.8-1.5s1.4,1.3,1.9,2.5c1.8,4.1,2.1,7.5,2.2,11.1
			c0.2,4.9,0.2,10.1,0.1,15.3c0.6-1.5,1.2-3.1,1.7-5c0.3-1.3,0.6-2.7,1-3.3c1.2-1.7,3.8,3.5,6.5,7.5c2.9,4.2,6,7.2,4.2,9.3
			c-0.5,0.6-1.5,1.2-2.5,1.8c1.4,1.5,2.8,3.1,4.3,4.6c2,2,4.1,4.1,5.3,6.4c3.3,6.3,0.3,14.7,0.4,22.4c0,8.6,3.8,16.2,6,24.2
			c1.8,6.3,2.6,12.9,2.7,19.4c0,3.5-0.2,7-0.1,10.6C840.5,720.8,841.1,726.2,840.2,731.4z"/>
		<path d="M602.4,868.7c0.7,1.2,1.4,2.4,2.4,3.3c0.6,0.5,1.3,1,2,1.4c0-1.1,0-2.2-0.4-3.1c-0.4-0.9-1.2-1.6-2-2.3
			c0.8,1.1,1.6,2.1,2.7,2.9c0.8,0.6,1.8,1,2.8,1.4c-0.3-1.2-0.6-2.5-0.7-3.7c-0.1-1.1,0-2.2,0.1-3.3c0.4,1.3,0.8,2.6,1.6,3.5
			c0.7,0.8,1.7,1.4,2.6,2.1c-0.2-0.5-0.4-1-0.5-1.5c-0.5-1.8-0.5-3.8-0.5-5.8c0.6,2.3,1.2,4.5,2.8,6c0.9,0.8,2,1.4,3.1,1.9
			c-0.2-0.3-0.3-0.7-0.4-1c-0.5-1.2-0.8-2.6-0.7-3.9c0.1-1.1,0.4-2.2,0.8-3.3c0.4,1.2,0.7,2.4,1.4,3.3c0.5,0.7,1.2,1.2,1.9,1.8
			c-0.3-0.5-0.6-1-0.8-1.5c-0.4-1.1-0.4-2.3-0.4-3.5c0.3,0.9,0.6,1.8,1.1,2.6c0.4,0.7,0.9,1.4,1.5,2.1c-0.1-1.1-0.3-2.3-0.4-3.4
			c-0.2-1.9-0.2-3.8-0.3-5.7c0.4,0.8,0.8,1.5,1.2,2.3c0.6,1.1,1.1,2.2,1.6,3.3c-0.1-1.2-0.1-2.3-0.2-3.5c-0.1-1.4-0.1-2.7-0.2-4.1
			c0.1,0.8,0.2,1.6,0.6,2.2c0.4,0.7,0.9,1.2,1.5,1.8c0.6-1.5,1.2-2.9,1.5-4.4c0.3-1.6,0.4-3.2,0.4-4.8c0.7,1.3,1.5,2.6,1.8,4
			c0.2,0.8,0.2,1.7,0.2,2.5c0.6-1.7,1.3-3.3,2.1-4.9c0.8-1.5,1.8-2.9,2.8-4.3c0.6,1.3,1.2,2.6,1.2,4c0,0.8-0.2,1.7-0.4,2.6
			c0.3,0.8,0.6,1.6,0.9,2.3c0.9,2.5,1.5,5.1,1.2,7.7c-0.2,1.8-0.8,3.6-1.4,5.3c2.1-2.7,4.2-5.4,4.1-8.4c0-1.2-0.5-2.5-0.9-3.8
			c0.7,0.4,1.4,0.8,1.9,1.4c0.6,0.7,0.9,1.7,1.3,2.7c0.2-0.9,0.3-1.8,0-3c-0.5-1.7-2.1-3.9-2-4s1.5,1.6,2.6,3.1
			c2.7,3.8,2.9,6.6,2.5,9.8c-0.2,1.7-0.6,3.5-1,5.3c1.4-2.1,2.8-4.3,2.7-6.4c-0.1-1.5-1-3-1.8-4.5c1,0.7,1.9,1.4,2.7,2.4
			c1.2,1.4,1.8,3.4,3.1,4.7c0.8,0.8,1.8,1.4,2.7,2c-0.5-2.3-1-4.6-2-6.8c-0.7-1.6-1.6-3-2.6-4.5c1.3,1.3,2.6,2.6,3.7,4.1
			c1.5,2,2.5,4.3,3.5,6.7c0.8,1.9,1.5,3.8,2.7,5.4c1.9,2.6,4.8,4.2,7.8,5.9c-1-0.9-1.9-1.8-2.5-2.9c-0.7-1.4-0.9-3.2-1.7-4.5
			c-0.7-1.3-2-2.2-3-3.3c-0.8-0.9-1.4-1.8-2-2.8c0.5,0.2,0.9,0.5,1.4,0.8c1,0.6,1.9,1.5,2.7,2.3c-0.3-0.4-0.6-0.8-0.9-1.3
			c-1.1-1.9-1.4-4.1-1.7-6.4c1.2,2.2,2.4,4.4,3.9,6.4c1.2,1.6,2.6,3,4,4.5c-0.6-1.1-1.2-2.3-1.8-3.5c-0.8-1.7-1.4-3.5-2-5.2
			c0.6,0.8,1.2,1.6,1.8,2.4c1.2,1.4,2.5,2.7,3.8,4c-0.6-1.4-1.1-2.8-1.8-4.2c-0.9-2-2-4-3-5.9c1.9,1.8,3.8,3.6,5.3,5.6
			c1,1.3,1.9,2.7,2.7,4.1c-0.2-1.3-0.4-2.7-0.8-3.9c-0.6-2-1.7-3.9-2.8-5.8c1.2,1.3,2.5,2.7,3.7,4c1.5,1.6,3,3.3,4.8,4.6
			c0.8,0.6,1.7,1.1,2.7,1.6c-0.6-1.2-1.1-2.4-1.8-3.5c-0.8-1.3-1.8-2.5-2.8-3.7c0.6,0.3,1.1,0.6,1.6,0.9c2.7,1.6,4.6,4.3,6.6,6.9
			c-0.7-1.8-1.4-3.6-2.3-5.4c-1.4-2.8-3.2-5.4-5-7.9c1.5,1.7,3,3.5,4.7,5c1.1,1.1,2.4,2,3.6,3c0-0.7,0-1.4-0.1-2.1
			c-0.2-1.3-0.7-2.6-1.2-3.9c0.8,0.8,1.6,1.7,2.3,2.6c1,1.4,1.6,3,2.2,4.7c-0.1-1-0.2-2.1-0.4-3.1c-0.3-1.6-0.9-3.1-1.5-4.7
			c1.6,2.1,3.3,4.1,4.4,6.4c0.7,1.4,1.2,2.9,1.7,4.4c0.3-1.9,0.5-3.9,0.5-5.8c0-2.2-0.4-4.4-0.8-6.6c1.6,2.2,3.2,4.4,4.7,6.5
			c1.5,2,3,4.1,4.6,5.9c2.8,3.1,6.2,5.7,9.6,8.3c-0.7-2.3-1.5-4.7-2-7c-0.6-2.4-0.9-4.8-1.3-7.2c1.5,2.2,2.9,4.3,4.5,6.4
			c2.1,2.8,4.4,5.5,7.2,7.5c2.1,1.5,4.5,2.6,6.8,3.9c1.3,0.8,2.6,1.7,3.9,2.5c-0.4-1.8-0.9-3.5-1.5-5.2c-0.8-2.3-2-4.6-3.2-6.8
			c0.5,0.5,0.9,1.1,1.4,1.6c1,1.1,2.2,2.2,3,3.4c1.6,2.3,2.2,5.2,2.5,8.1c0.8,6.5,0.3,13.3-1.4,18.7c-1.5,5-4.1,8.8-8.8,14.6
			c-4.3,5.2-10.3,11.9-12.1,9.4c-0.7-1-0.8-3.5-0.8-6.1c0.2-0.9,0.3-1.8,0.6-2.8c0.7-2.7,1.8-5.3,1.9-8c0.2-4.1-2-8.3-5.1-11.3
			c-2.3-2.3-5.1-3.8-7.9-5.3c0.5,1.3,1.1,2.5,1,3.8c-0.1,1.4-0.9,2.8-1.7,4.1c-0.3-1.7-0.6-3.5-1.5-4.8c-2-2.9-6.8-3.9-10.4-3
			c-3.7,0.9-6.3,3.8-9.7,4.8c-3.3,1-7.3,0.2-10.1-1.8c-1.9-1.3-3.2-3.2-4.5-5.2c0.2,1.3,0.5,2.6,0,3.8c-0.3,0.7-0.8,1.2-1.3,1.8
			c-0.7-1-1.4-2.1-2.1-3.1c-1.5,0.1-2.9,0.2-4.3,0.6c-2.1,0.6-4,2-5.8,3.3c-0.1-0.9-0.1-1.7,0-2.6c0.2-1.3,0.7-2.5,1.2-3.8
			c-1.6,0.9-3.1,1.8-4.6,2.8c-1.6,1.1-3.2,2.4-4.7,3.6c0.1-1.1,0.3-2.3,0-3.2c-0.4-1.5-1.9-2.6-3.3-3.8c-0.3,1.1-0.6,2.2-1.1,3.1
			c-1.1,1.9-3.1,3.2-5.2,4.5c0.1-0.5,0.3-0.9,0.3-1.4c0.2-1.3-0.1-2.6-0.4-3.9c-0.4,1.1-0.8,2.2-1.4,3.1c-1.3,1.9-3.8,2.9-6.3,3.8
			c0.3-0.8,0.6-1.6,0.7-2.3c0.2-1.6-0.5-3.3-1.2-4.9c-0.5,1.7-1,3.3-1.9,4.7c-1,1.5-2.4,2.7-3.8,3.9c-0.2-2.3-0.4-4.7-1.6-5.2
			c-1-0.4-2.6,0.3-4.1,1.2c-3.7,2.1-6.8,4.8-9.9,3.3c-3.1,1.6-6.2-1.2-9.9-3.3c-1.5-0.9-3.1-1.6-4.1-1.2c-1.2,0.5-1.4,2.8-1.6,5.2
			c-1.4-1.2-2.8-2.4-3.8-3.9c-0.9-1.4-1.4-3.1-1.9-4.7c-0.7,1.7-1.4,3.3-1.2,4.9c0.1,0.8,0.4,1.6,0.7,2.3c-2.5-1-4.9-1.9-6.3-3.8
			c-0.6-0.9-1-2-1.4-3.1c-0.3,1.3-0.6,2.6-0.4,3.9c0.1,0.5,0.2,0.9,0.3,1.4c-2-1.3-4.1-2.6-5.2-4.5c-0.5-0.9-0.8-2-1.1-3.1
			c-1.4,1.1-2.9,2.2-3.3,3.8c-0.3,1-0.1,2.1,0,3.2c-1.5-1.3-3.1-2.5-4.7-3.6c-1.5-1-3.1-1.9-4.6-2.8c0.5,1.2,1,2.5,1.2,3.8
			c0.1,0.8,0.1,1.7,0,2.6c-1.9-1.3-3.7-2.7-5.8-3.3c-1.4-0.4-2.8-0.5-4.3-0.6c-0.7,1-1.4,2.1-2.1,3.1c-0.5-0.6-1-1.2-1.3-1.8
			c-0.5-1.1-0.2-2.4,0-3.8c-1.3,1.9-2.7,3.8-4.5,5.2c-2.8,2-6.9,2.7-10.1,1.8c-3.5-1-6-3.9-9.7-4.8c-3.7-0.9-8.5,0.1-10.4,3
			c-0.9,1.3-1.2,3.1-1.5,4.8c-0.8-1.4-1.7-2.7-1.7-4.1c-0.1-1.2,0.5-2.5,1-3.8c-2.8,1.5-5.6,3-7.9,5.3c-3,3-5.2,7.2-5.1,11.3
			c0.1,2.7,1.3,5.3,1.9,8c0.2,0.9,0.4,1.8,0.6,2.8c-0.1,2.5-0.1,5-0.8,6.1c-1.8,2.6-7.9-4.2-12.1-9.4c-4.7-5.8-7.3-9.6-8.8-14.6
			c-1.7-5.5-2.2-12.2-1.4-18.7c0.4-2.9,1-5.8,2.5-8.1c0.8-1.2,2-2.3,3-3.4c0.5-0.5,0.9-1.1,1.4-1.6c-1.2,2.2-2.3,4.4-3.2,6.8
			c-0.6,1.7-1.1,3.5-1.5,5.2c1.3-0.9,2.6-1.7,3.9-2.5c2.3-1.3,4.6-2.4,6.8-3.9c2.8-2,5.1-4.7,7.2-7.5c1.6-2.1,3.1-4.3,4.5-6.4
			c-0.4,2.4-0.8,4.9-1.3,7.2c-0.6,2.4-1.3,4.7-2,7c3.4-2.6,6.8-5.1,9.6-8.3c1.7-1.9,3.2-3.9,4.6-5.9c1.6-2.2,3.2-4.4,4.7-6.5
			c-0.4,2.2-0.8,4.4-0.8,6.6c0,1.9,0.2,3.9,0.5,5.8c0.5-1.5,1-3,1.7-4.4c1.2-2.3,2.8-4.4,4.4-6.4c-0.6,1.5-1.1,3.1-1.5,4.7
			c-0.2,1-0.3,2.1-0.4,3.1c0.6-1.6,1.2-3.3,2.2-4.7c0.7-0.9,1.5-1.8,2.3-2.6c-0.5,1.3-1,2.6-1.2,3.9c-0.1,0.7-0.1,1.4-0.1,2.1
			c1.2-1,2.5-2,3.6-3c1.7-1.6,3.2-3.3,4.7-5c-1.8,2.6-3.6,5.1-5,7.9c-0.9,1.7-1.6,3.5-2.3,5.4c1.9-2.6,3.9-5.2,6.6-6.9
			c0.5-0.3,1.1-0.6,1.6-0.9c-1,1.2-2,2.4-2.8,3.7c-0.7,1.1-1.3,2.3-1.8,3.5c0.9-0.5,1.8-1,2.7-1.6c1.8-1.3,3.3-2.9,4.8-4.6
			c1.2-1.4,2.5-2.7,3.7-4c-1.1,1.9-2.2,3.8-2.8,5.8c-0.4,1.3-0.6,2.6-0.8,3.9c0.9-1.4,1.7-2.8,2.7-4.1c1.6-2,3.4-3.8,5.3-5.6
			c-1.1,2-2.1,3.9-3,5.9c-0.6,1.4-1.2,2.8-1.8,4.2c1.3-1.3,2.6-2.6,3.8-4c0.6-0.8,1.2-1.6,1.8-2.4c-0.6,1.8-1.2,3.5-2,5.2
			c-0.5,1.2-1.2,2.3-1.8,3.5c1.4-1.4,2.8-2.9,4-4.5c1.5-2,2.7-4.2,3.9-6.4c-0.3,2.2-0.6,4.5-1.7,6.4c-0.3,0.4-0.6,0.9-0.9,1.3
			c0.9-0.9,1.7-1.7,2.7-2.3c0.4-0.3,0.9-0.5,1.4-0.8c-0.6,1-1.2,1.9-2,2.8c-1,1.1-2.3,2-3,3.3c-0.8,1.4-0.9,3.1-1.7,4.5
			c-0.6,1.1-1.6,2-2.5,2.9c3-1.7,5.9-3.4,7.8-5.9c1.2-1.6,1.9-3.5,2.7-5.4c1-2.4,2-4.7,3.5-6.7c1.1-1.5,2.4-2.8,3.7-4.1
			c-0.9,1.5-1.9,2.9-2.6,4.5c-0.9,2.1-1.5,4.4-2,6.8c1-0.6,2-1.2,2.7-2c1.3-1.3,1.9-3.3,3.1-4.7c0.7-0.9,1.7-1.6,2.7-2.4
			c-0.9,1.5-1.7,3-1.8,4.5c-0.1,2.1,1.3,4.3,2.7,6.4c-0.4-1.8-0.8-3.6-1-5.3c-0.4-3.2-0.2-6,2.5-9.8c1-1.5,2.5-3.1,2.6-3.1
			c0.1,0.1-1.5,2.3-2,4c-0.3,1.1-0.2,2,0,3c0.3-1,0.6-2,1.3-2.7c0.5-0.6,1.2-1,1.9-1.4c-0.4,1.3-0.9,2.6-0.9,3.8
			c-0.1,3,2,5.7,4.1,8.4c-0.6-1.8-1.2-3.5-1.4-5.3c-0.3-2.5,0.3-5.2,1.2-7.7c0.3-0.8,0.6-1.6,0.9-2.3c-0.2-0.9-0.4-1.7-0.4-2.6
			c0-1.4,0.6-2.7,1.2-4c1,1.4,2,2.8,2.8,4.3c0.8,1.6,1.5,3.2,2.1,4.9c0-0.9,0-1.7,0.2-2.5c0.3-1.4,1-2.7,1.8-4
			c0,1.6,0.1,3.2,0.4,4.8c0.3,1.5,0.9,3,1.5,4.4c0.6-0.6,1.2-1.1,1.5-1.8s0.5-1.5,0.6-2.2c0,1.4-0.1,2.8-0.2,4.1
			c-0.1,1.2-0.1,2.3-0.2,3.5c0.5-1.1,1-2.2,1.6-3.3c0.4-0.8,0.8-1.5,1.2-2.3c-0.1,1.9-0.1,3.8-0.3,5.7c-0.1,1.1-0.2,2.3-0.4,3.4
			c0.5-0.7,1.1-1.3,1.5-2.1c0.5-0.8,0.8-1.7,1.1-2.6c0,1.2,0,2.4-0.4,3.5c-0.2,0.5-0.5,1-0.8,1.5c0.7-0.6,1.4-1.1,1.9-1.8
			c0.7-0.9,1.1-2.1,1.4-3.3c0.4,1.1,0.7,2.2,0.8,3.3c0.1,1.3-0.2,2.7-0.7,3.9c-0.1,0.3-0.3,0.7-0.4,1c1.1-0.6,2.3-1.1,3.1-1.9
			c1.5-1.4,2.1-3.7,2.8-6c0,2,0.1,3.9-0.5,5.8c-0.1,0.5-0.3,1-0.5,1.5c1-0.6,2-1.2,2.6-2.1c0.8-1,1.2-2.3,1.6-3.5
			c0.1,1.1,0.2,2.2,0.1,3.3c-0.1,1.2-0.4,2.5-0.7,3.7c1-0.4,1.9-0.8,2.8-1.4c1-0.8,1.9-1.8,2.7-2.9c-0.8,0.7-1.6,1.4-2,2.3
			c-0.4,0.9-0.4,2-0.4,3.1c0.7-0.4,1.4-0.9,2-1.4c1-0.9,1.7-2.1,2.4-3.3c0.4,1.8,0.8,3.6,1.3,3.6
			C601.5,872.3,601.9,870.5,602.4,868.7z"/>
		<g id="SPLINE_339_">
			<g>
				<path d="M517.5,901.9l5.2,1.9c1.8,0.7,3.5,1.1,5.3,1.6c3.6,0.9,7.2,1.4,10.8,1.6c7.3,0.6,14.6-0.2,21.9-0.9
					c7.3-0.7,14.8-1.1,22.2,0.1c3.7,0.6,7.3,1.6,10.8,3.1c1.7,0.8,3.3,1.6,5,2.1c0.8,0.3,1.6,0.4,2.4,0.5c0.8,0,1.5-0.1,2.3-0.4
					c1.6-0.6,3.1-1.6,4.8-2.4c1.6-0.9,3.4-1.7,5.1-2.4c3.5-1.4,7.2-2.3,10.9-2.7c3.7-0.5,7.4-0.5,11.1-0.5l11,0.1
					c7.3,0.1,14.7,0,22-0.5s14.6-1.4,21.9-2.2l0,0c0.4,0,0.7,0.2,0.8,0.6c0,0.3-0.2,0.7-0.5,0.8c-2,0.6-4,1.3-5.8,2.3
					c-0.9,0.5-1.7,1.1-2.4,1.8s-1.3,1.5-1.8,2.4c-1.1,1.8-2,3.8-3.2,5.5c-1.2,1.8-2.4,3.6-3.8,5.2c-2.8,3.3-6,6.2-9.5,8.7
					s-7.3,4.5-11.2,6.3c-7.8,3.5-16.1,5.9-24.3,8.1c-4.1,1.1-8.4,1.9-12.8,1.6c-4.3-0.2-8.5-0.9-12.7-1.1c-4.2-0.2-8.4,0.2-12.7,0.4
					s-8.6,0.2-12.9-0.1c-4.3-0.3-8.6-0.9-12.8-1.8c-4.2-0.9-8.4-2.1-12.3-3.8c-4-1.7-7.7-3.9-11.2-6.4c-3.5-2.4-6.9-5.1-10.1-8
					c-3.1-2.9-5.9-6.3-8.1-10c-1.1-1.9-2.1-3.8-3-5.7c-0.5-1-0.9-1.9-1.3-2.9C518.3,903.9,517.8,903,517.5,901.9z M517.6,902
					c0.5,0.8,0.9,1.8,1.4,2.8l1.4,2.9c1,1.9,2,3.8,3.1,5.5c2.3,3.6,5.1,6.7,8.2,9.6c3.1,2.8,6.6,5.3,10.1,7.7
					c3.5,2.3,7.2,4.4,11.1,6.1c3.9,1.7,7.9,2.8,12.1,3.6c4.1,0.8,8.3,1.4,12.6,1.6c4.2,0.3,8.4,0.4,12.7,0.2
					c4.2-0.2,8.5-0.5,12.9-0.2c4.3,0.3,8.5,1.1,12.7,1.4c4.2,0.3,8.4-0.3,12.5-1.3c8.3-2,16.5-4.3,24.3-7.7c7.7-3.5,15-8.3,20.2-15
					c1.3-1.6,2.5-3.4,3.6-5.2s2-3.7,3.1-5.6c0.5-0.9,1.2-1.9,2-2.7s1.7-1.5,2.6-2.1c1.9-1.2,4-1.9,6-2.6l0.3,1.4
					c-7.3,1-14.6,1.9-21.9,2.6c-7.4,0.6-14.8,0.7-22.1,0.7c-7.4,0-14.7-0.3-21.9,0.5c-3.6,0.4-7.1,1.2-10.4,2.5
					c-1.7,0.6-3.3,1.4-4.9,2.3c-1.6,0.8-3.2,1.9-5.1,2.6c-0.9,0.3-2,0.5-3.1,0.5c-1,0-2-0.3-3-0.6c-1.9-0.6-3.5-1.4-5.2-2.2
					c-3.3-1.5-6.7-2.5-10.3-3.2c-7.1-1.3-14.5-0.9-21.8-0.4s-14.7,1.1-22.1,0.3c-3.7-0.4-7.3-1-10.9-2c-1.8-0.5-3.6-1.1-5.2-1.8
					L517.6,902z"/>
			</g>
		</g>
		<g id="SPLINE_338_">
			<g>
				<path d="M517.6,901.8c1.5,1.1,3,2.2,4.6,3.2c1.5,1,3.1,2,4.7,2.8c3.2,1.6,6.7,2.3,10.3,2.6c3.6,0.4,7.3,0.5,11,0.7
					c3.8,0.3,7.5,0.8,11.2,1.3s7.2,0.9,10.9,1.2c3.6,0.2,7.3,0.3,11,0.4c3.7,0.1,7.5,0.4,11.3,0.8c3.7,0.4,7.3,0.8,10.6,0.6
					c3.4-0.2,6.9-1.2,10.9-1.6c4-0.5,7.8-0.2,11.1-0.5s6.7-1.4,10.3-2.5c1.8-0.5,3.6-1.1,5.5-1.5s3.8-0.7,5.7-1
					c3.8-0.5,7.6-0.6,11.3-0.8c1.8-0.1,3.7-0.2,5.5-0.3c1.8-0.2,3.6-0.4,5.4-0.7c3.6-0.5,7.2-1.3,10.8-2.1l10.8-2.7l0,0
					c0.1,0,0.2,0,0.2,0.1s0,0.2-0.1,0.2c-7,2.3-14.1,4.7-21.4,6.1c-7.3,1.6-14.8,1.4-22.1,2.6c-3.7,0.6-7.2,1.5-10.7,2.7
					s-7.1,2.4-10.8,2.8c-3.7,0.4-7.4,0.2-11.1,0.6c-3.7,0.5-7.3,1.4-11,1.7s-7.5-0.2-11.1-0.7c-3.7-0.4-7.4-0.7-11.1-0.9
					c-3.7-0.2-7.4-0.3-11.1-0.7c-3.7-0.3-7.4-0.9-11-1.5c-3.7-0.6-7.3-1.3-11-1.7s-7.4-0.6-11.1-1.1c-3.7-0.5-7.3-1.5-10.6-3.3
					s-6.1-4.2-9-6.6C517.4,901.9,517.4,901.9,517.6,901.8C517.5,901.8,517.6,901.8,517.6,901.8L517.6,901.8z"/>
			</g>
		</g>
		<g>
			<g>
				<g>
					<path d="M663.3,677.5c3.6-3.8,7.3-7.5,11.5-10.7c2.1-1.6,4.3-3.1,6.7-4.3s4.9-2.2,7.4-2.9c5.1-1.3,10.4-1.7,15.6-2
						c5.2-0.3,10.4-0.4,15.6-0.5c5.2-0.1,10.4-0.1,15.6,0c5.2,0.1,10.5,0.4,15.7,1.2s10.5,2.1,15.1,5s7.9,7.1,11.1,11.2v0.1h-0.1
						c-3.7-3.7-7.3-7.6-11.7-10s-9.5-3.5-14.6-4.2c-10.2-1.5-20.6-1.5-31-2.2c-5.2-0.3-10.4-0.4-15.6,0.1c-2.6,0.2-5.2,0.6-7.7,1.1
						s-5,1.1-7.5,1.9c-2.4,0.8-4.8,1.7-7.1,2.8s-4.4,2.5-6.6,4c-4.2,3-8.2,6.3-12.3,9.6h-0.1C663.3,677.6,663.3,677.6,663.3,677.5z"
						/>
				</g>
				<g>
					<path d="M538.7,677.7c-4.1-3.3-8-6.6-12.3-9.6c-2.1-1.5-4.3-2.8-6.6-4c-2.3-1.1-4.6-2.1-7.1-2.8c-2.4-0.8-4.9-1.4-7.5-1.9
						c-2.5-0.5-5.1-0.8-7.7-1.1c-5.2-0.4-10.4-0.3-15.6-0.1c-10.4,0.7-20.8,0.8-31,2.2c-5.1,0.7-10.1,1.8-14.6,4.2s-8,6.3-11.7,10
						h-0.1v-0.1c3.2-4.1,6.5-8.3,11.1-11.2s9.9-4.1,15.1-5c5.2-0.8,10.5-1,15.7-1.2c5.2-0.1,10.4-0.1,15.6,0s10.4,0.2,15.6,0.5
						s10.5,0.7,15.6,2c2.6,0.7,5.1,1.6,7.4,2.9c2.4,1.2,4.6,2.7,6.7,4.3c4.2,3.2,7.9,6.9,11.5,10.7v0.1
						C538.8,677.7,538.8,677.7,538.7,677.7z"/>
				</g>
			</g>
		</g>
		<g>
			<path fill="#F4F3F2" d="M665.4,690.3c-0.1,0-0.2,0-0.3,0.1c-0.7,0.1-1.5-0.8-1.6-1.6c-0.1-1,1-1.7,2-2.3c1.6-1,2.9-1.8,4.2-2.6
				c2.4-1.5,5-3,7.5-4.6c3.3-2,6.4-4.1,9.3-6.5c3.3-2.7,6.4-5.8,10.1-7.8c5.3-2.9,11.8-3.4,18.1-3.8c3.6-0.2,7.1-0.4,10.6,0
				c5.1,0.6,10,2.4,14.9,4.3c5.7,2.3,11.3,4.9,16.1,8.7c1.6,1.3,3.1,2.7,4.6,4.2c-2.2,1.3-4.3,2.6-6.5,3.9c-3.9,2.3-7.9,4.5-12,6.4
				c-3.3,1.5-6.7,2.9-10.3,3.8c-5.4,1.3-11,1.6-16.5,1c-4.7-0.5-9.4-1.6-14-3c-4.4-1.4-8.8-3.2-13.3-3.5c-3.2-0.2-6.5,0.3-9.7,0.9
				c-4.6,0.8-9.1,1.7-13.6,2.6 M536.8,690.3c0.1,0,0.2,0,0.3,0.1c0.7,0.1,1.5-0.8,1.6-1.6c0.1-1-1-1.7-2-2.3c-1.6-1-2.9-1.8-4.2-2.6
				c-2.4-1.5-5-3-7.5-4.6c-3.3-2-6.4-4.1-9.3-6.5c-3.3-2.7-6.4-5.8-10.1-7.8c-5.3-2.9-11.8-3.4-18.1-3.8c-3.6-0.2-7.1-0.4-10.6,0
				c-5.1,0.6-10,2.4-14.9,4.3c-5.7,2.3-11.3,4.9-16.1,8.7c-1.6,1.3-3.1,2.7-4.6,4.2c2.2,1.3,4.3,2.6,6.5,3.9c3.9,2.3,7.9,4.5,12,6.4
				c3.3,1.5,6.7,2.9,10.3,3.8c5.4,1.3,11,1.6,16.5,1c4.7-0.5,9.4-1.6,14-3c4.4-1.4,8.8-3.2,13.3-3.5c3.2-0.2,6.5,0.3,9.7,0.9
				c4.6,0.8,9.1,1.7,13.6,2.6"/>
			<g>
				<g>
					<path d="M665.4,690.4c-0.3,0.1-0.7,0.1-0.9-0.1c-0.3-0.2-0.5-0.4-0.7-0.6c-0.2-0.3-0.3-0.5-0.4-0.9c0-0.3,0-0.6,0.2-0.9
						c0.3-0.5,0.9-0.9,1.3-1.2l1.5-0.9l6-3.7c4-2.5,8.1-4.9,11.8-7.7c3.8-2.8,7.1-6.3,11.1-8.8c4-2.6,8.8-3.5,13.5-4
						c2.4-0.3,4.7-0.4,7.1-0.5c2.4-0.1,4.7-0.2,7.1-0.1c4.8,0.2,9.4,1.5,13.8,3.2c4.4,1.7,8.8,3.4,13,5.7c2.1,1.1,4.1,2.4,6,3.8
						c1.9,1.4,3.6,3.1,5.3,4.7c0.1,0.1,0.1,0.2,0,0.3l0,0c-7.2,4.3-14.4,8.7-22.2,11.8c-3.9,1.6-8,2.7-12.2,3.2s-8.4,0.4-12.6-0.1
						c-4.2-0.5-8.3-1.5-12.2-2.8c-4-1.3-7.9-2.8-12-3.4c-4.1-0.6-8.3,0.2-12.4,0.9l-12.3,2.3c-0.1,0-0.1,0-0.1-0.1s0-0.1,0.1-0.1
						c4.1-1,8.2-1.9,12.3-2.8c4.1-0.9,8.3-1.8,12.7-1.3c4.3,0.5,8.3,2,12.3,3.2s8,2.1,12.1,2.5c8.1,0.9,16.4,0,23.9-3.2
						c7.6-3.1,14.7-7.5,21.8-11.8l-0.3,2.8c-1.7-1.6-3.4-3.2-5.2-4.5c-1.8-1.4-3.7-2.6-5.7-3.7c-4-2.2-8.4-4-12.7-5.7
						c-4.3-1.6-8.7-2.9-13.2-3.1c-2.3-0.1-4.6,0-6.9,0.1c-2.3,0.1-4.7,0.2-7,0.4c-4.6,0.4-9.1,1.3-13,3.6s-7.2,5.8-11.1,8.5
						c-3.9,2.8-8,5.1-12.1,7.4l-6.1,3.5c-1,0.6-2.2,1.1-2.8,1.9c-0.3,0.4-0.2,1,0.1,1.4c0.3,0.5,0.8,0.9,1.3,0.7
						c0.1,0,0.1,0,0.1,0.1C665.5,690.3,665.5,690.3,665.4,690.4L665.4,690.4z"/>
				</g>
				<g>
					<path d="M536.8,690.2c0.5,0.2,1.1-0.2,1.4-0.7c0.3-0.5,0.5-1.1,0.1-1.5c-0.3-0.5-0.8-0.8-1.3-1.1l-1.5-0.9l-6-3.7
						c-4-2.5-8.1-4.9-11.9-7.7c-3.8-2.8-7.1-6.3-11.1-8.8s-8.7-3.5-13.4-4c-2.3-0.2-4.7-0.4-7-0.5c-2.4-0.1-4.7-0.2-7.1-0.1
						c-4.7,0.2-9.3,1.5-13.7,3.2c-4.4,1.7-8.8,3.5-12.9,5.7c-2.1,1.1-4.1,2.4-5.9,3.8c-1.9,1.4-3.6,3.1-5.3,4.7v-0.3
						c7.2,4.3,14.3,8.7,22.1,11.8c3.9,1.6,7.9,2.7,12.1,3.2c4.1,0.5,8.3,0.4,12.5-0.1c4.1-0.5,8.2-1.5,12.2-2.8
						c4-1.2,7.9-2.8,12.1-3.4c4.2-0.6,8.4,0.2,12.5,1l12.3,2.4c0.1,0,0.1,0.1,0.1,0.1c0,0.1-0.1,0.1-0.1,0.1l0,0
						c-4.1-0.6-8.3-1.3-12.4-1.9c-4.1-0.6-8.3-1.3-12.3-0.6s-7.8,2.2-11.8,3.6c-4,1.3-8.2,2.4-12.4,3.1c-4.2,0.6-8.6,0.8-12.9,0.3
						c-4.3-0.4-8.6-1.6-12.5-3.2c-8-3.2-15.2-7.5-22.4-11.8c-0.8-0.5-1.1-1.6-0.6-2.4c0.1-0.1,0.2-0.3,0.3-0.4l0,0
						c1.7-1.6,3.4-3.3,5.4-4.9c2-1.5,4.1-2.8,6.2-3.9c4.3-2.3,8.7-4,13.2-5.7c4.5-1.6,9.3-3,14.2-3.2c2.5-0.1,4.9,0,7.2,0.2
						c2.4,0.1,4.7,0.3,7.1,0.6s4.8,0.7,7.2,1.4c2.4,0.7,4.7,1.7,6.8,3c4.2,2.7,7.3,6.3,11,9c3.7,2.9,7.6,5.4,11.6,8l5.9,3.9l1.5,1
						c0.5,0.3,1,0.7,1.3,1.3c0.2,0.3,0.2,0.7,0.2,1c-0.1,0.3-0.2,0.6-0.4,0.9c-0.2,0.3-0.4,0.5-0.7,0.6c-0.3,0.2-0.7,0.2-0.9,0.1
						l0,0c-0.1,0-0.1-0.1-0.1-0.1C536.7,690.2,536.8,690.1,536.8,690.2z"/>
				</g>
			</g>
		</g>
		<path fill="none" stroke="#000000" stroke-linecap="round" stroke-linejoin="round" stroke-miterlimit="10" d="M684,686.9
			c-1.1-0.3-2.2-0.8-3-1.7c-2.3-2.4-2.3-6.2,0.1-8.5 M518.2,686.9c3.3-0.7,5.3-3.9,4.6-7.2c-0.3-1.1-0.8-2.2-1.7-3"/>
		<g id="SPLINE_331_">
			<g>
				<path d="M641.8,696.2c1.4,1.8,2.7,3.7,3.9,5.5c1.2,1.9,2.5,3.7,3.6,5.6c1.2,1.9,2.3,3.9,3.7,5.6c1.4,1.7,3.2,3.2,5,4.5
					s3.7,2.5,5.6,3.7c1.9,1.2,3.8,2.2,5.8,3.3c3.9,2.2,7.9,4.2,11.8,6.5c0,0,0.1,0.1,0,0.1c0,0-0.1,0.1-0.1,0
					c-4.4-1.2-8.7-2.8-12.7-4.8c-2-1-4-2.3-5.8-3.6c-1.9-1.3-3.6-2.8-5.3-4.4c-1.6-1.6-3.2-3.3-4.8-4.9c-1.6-1.6-3.2-3.2-4.6-5.1
					c-1.4-1.8-2.5-3.8-3.6-5.8c-1-2-2-4.1-2.8-6.2c0-0.1,0-0.1,0.1-0.1C641.7,696.2,641.8,696.2,641.8,696.2z"/>
			</g>
		</g>
		<g>
			<g id="SPLINE_330_">
				<path fill="#333333" d="M658.5,346.9c-2,0.3-4,0.7-6,0.5c-3.1-0.2-6.1-1.5-9.1-2.1c-2.6-0.5-5.2-0.5-7.8-0.5
					c4.6-0.7,9.3-1.3,13.9-2.3c1.6-0.3,3.2-0.7,4.8-1.2c2.3-0.8,4.4-1.9,6.5-3c-1.8,0.1-3.7,0.3-5.6,0.4c-5.4,0.3-11.3,0.3-15.6-2.6
					c-1.7-1.2-3.1-2.8-4.8-4c-3-2.2-6.7-3.1-10.3-4.2c-2.7-0.8-5.2-1.7-7.8-2.6c3.4-0.1,6.9-0.2,10.2,0c4.2,0.3,8.3,1.1,12.3,3.2
					c2,1,4,2.3,5.8,2.1c1.7-0.1,3.3-1.5,5-2.9c-2.8,0.2-5.5,0.3-7.2-1.2c-0.7-0.7-1.2-1.6-1.7-2.6c1.9,0.1,3.7,0.1,5.3-0.7
					c0.8-0.4,1.5-1,2.2-1.6c-2-0.2-4-0.4-5.8-1.1c-1.6-0.6-3-1.7-4.5-2.4c-1.6-0.8-3.3-1.2-5.1-1.6c-2-0.4-4.1-0.6-6.1-0.3
					c-2.3,0.3-4.5,1-6.8,1.4c-2.5,0.4-5,0.3-7.5,0.3c-2.4-0.1-4.8-0.1-7.3-0.2c1-0.2,2.1-0.4,3.1-0.8c0.6-0.2,1.1-0.5,1.6-0.8
					c0.6-0.4,1.1-1,1.6-1.5c-2.2,0.5-4.3,1-6.5,1c-1.9,0-3.9-0.4-5.8-0.8c2.9-0.7,5.7-1.4,8.4-2.4c1.3-0.5,2.5-1,3.8-1.6
					c-2.6-0.2-5.2-0.4-7.9-0.3c-2.6,0.1-5.1,0.5-7.7,0.9c2.6-1,5.2-2,7.9-2.8c2-0.5,4-0.9,6-0.9c1.3,0,2.6,0.1,3.9,0.1
					c4.2,0,8.4-1.8,12.6-2.2c2.4-0.3,4.8-0.1,7.2-0.1c4,0,8.1-0.5,11.9,0.1c2.8,0.4,5.4,1.4,8.1,2.4c-5.5-0.4-10.9-0.8-16.2,0.2
					c-3.6,0.6-7.1,1.8-10.6,3.1c3.3-0.5,6.5-1.1,9.8-1.3c7.6-0.6,15.5,0.3,22.7,2.9c4.4,1.6,8.5,3.9,12.6,6.2c-2.9-1-5.7-2-8.6-2.7
					c-5.8-1.6-12-2.4-17.8-1.4c-2.1,0.4-4.2,1-6.3,1.6c0.9,0.2,1.8,0.3,2.8,0.5c3.7,0.8,7.1,2.4,10.6,3.9c2,0.9,4.1,1.8,6.1,2.6
					c-0.7-0.1-1.4-0.3-2-0.4c-2.5-0.3-5,0.1-7.4,0.5c4.6,0.2,9.2,0.5,13.3,2.1c2.6,1,5,2.5,7.3,4.1c-3-0.5-6-0.9-8.9-1
					c-1.8-0.1-3.5-0.1-5.5,0c-1.6,0-3.4,0.1-4.2,1.4c-0.3,0.5-0.4,1.1-0.3,1.6c0.2,0.7,1.1,1,2,1.3c2.7,0.4,7.6,3,26.7,2.5
					c-2.8,0.9-5.7,1.9-8.5,2.7c-2.1,0.7-4.3,1.3-6.4,2c2.8,0.1,5.6,0.1,8.2,0.7c2.2,0.4,4.3,1.2,6.4,2c-2.1,0-4.1-0.1-6.1,0.1
					c-2.7,0.3-5.4,1.1-8.1,1.8c4.9-0.1,9.8-0.3,14.4,0.8c4.4,1,8.5,3.1,12.6,5.2c-6.6-1.5-13.1-3-19.7-3.1c-9-0.2-18,2.1-27,4.4
					c-1.9,0.6-3.9,1.3-5.9,1.5c-1.8,0.2-3.7,0-5.6-0.3c2.8-0.3,5.7-0.6,8.4-1.3c2.3-0.6,4.5-1.6,6.7-2.4
					C652.3,348.4,655.4,347.7,658.5,346.9z"/>
			</g>
			<g id="SPLINE_329_">
				<path fill="#333333" d="M673.1,355.4c-2.8,0.5-5.7,0.9-8.4,1.7c-4,1.1-7.9,2.8-11.7,4.5c-2,1-4,1.9-5.9,3.1
					c-2,1.2-3.8,2.7-5.6,4.1c3-0.9,6-1.8,9-2.7c2.5-0.7,5-1.4,7.5-2.1c2.4-0.6,4.7-1.2,7.1-1.8c3.1-0.7,6.2-1.4,9.3-1.9
					c1.9-0.3,3.7-0.6,5.6-0.8c-2.5,1.6-5.1,3.2-7.5,4.9c-2.4,1.8-4.7,3.7-6.8,5.9c-3.4,3.5-6.1,7.8-7.5,12.4
					c-0.6,2.1-0.9,4.2-1.2,6.4c1.6-2.7,3.2-5.4,5.2-8c2.9-3.7,6.6-7,10.8-9.2c3.4-1.7,7.1-2.7,10.8-3.7c-2.4,1.5-4.9,3-7.3,4.5
					c-2.2,1.4-4.4,2.8-6,4.8c-0.8,0.9-1.5,2-2.1,3.1c2.2-1.8,4.4-3.6,6.8-5.1c2.5-1.6,5.3-2.8,8.2-3.8c3.1-1.1,6.2-2.1,9.3-3.1
					c-0.6,0.5-1.2,1-1.8,1.5c-1.4,1.1-2.8,2.1-4.4,2.9c-1.5,0.8-3.1,1.3-4.6,2c-0.7,0.3-1.4,0.7-2.1,1c2.9-0.8,5.8-1.6,8.7-2.5
					c3.3-1,6.5-2.2,9.9-2.4c1.8-0.1,3.6,0.2,5.5,0.3c1.2,0.1,2.3,0.1,3.4,0.1c-3.4,0.4-6.8,0.7-9.5,2.4c-1.6,1-3,2.5-4.5,3.6
					c-2.3,1.5-5,2.2-7.7,2.8c4,0,8.1,0,11-2.2c1-0.8,1.9-1.8,2.9-2.6c1-0.8,2.3-1.4,3.5-1.7c1.3-0.3,2.6-0.4,4-0.4
					c-0.6,0.7-1.2,1.3-2.3,1.7c-0.8,0.3-1.8,0.4-2,0.7c-0.3,0.4,1.5,1.2,2.9,1.6c2.9,0.8,4.6,0.4,6.6,0.4c1.7,0,3.6,0.2,5.5,0.5
					c-1.4,0.2-2.9,0.5-4.3,0.8c-1.2,0.2-2.5,0.5-3.7,0.8c1.1,0.6,2.2,1.2,3.3,1.8c1.6,0.8,3.1,1.6,4.9,2.1c2.1,0.6,4.6,0.6,6,2.1
					c0.4,0.4,0.7,0.9,1,1.4c-1,0.2-2,0.4-2.9,0.2c-0.6-0.2-1.2-0.6-1.8-1.1c0.3,1,0.6,2,1.1,2.9c0.5,1,1.1,2,2,2.7
					c0.6,0.5,1.3,0.8,1.9,1.1c-2,0-4.1,0-6,0.4c-2.5,0.6-4.8,1.9-7.1,3.1c5.7-0.8,11.4-1.6,17-1.2c4.4,0.2,8.7,1.2,13.1,2.1
					c-3.1-1.1-6.3-2.1-8.7-4.1c-1.6-1.3-2.9-3-4.1-4.8c2.4,0.9,4.8,1.7,7.3,2.3c4,0.9,8.1,0.8,12.2,0.8c-4-1.7-8-3.3-12-4.8
					c-6.1-2.3-12.4-4.1-18.7-6c2.7-0.3,5.4-0.7,8-0.6c5.4,0.1,10.7,1.6,15.9,3.1c-3.5-2-7-4-10.8-5.3c-7.2-2.6-15.2-2.7-23.2-2.7
					c4.4,0,8.8,0,13.2,0c4.3,0,8.6,0,13,0c-5.9-1.9-11.8-3.8-17.9-4.8c-5-0.8-10.2-1.1-15.3-1.3c2.2-0.6,4.3-1.1,6.5-1.6
					c3.3-0.7,6.7-1.1,10.1-1.6c-8.4-1.3-16.9-2.6-25.3-2.3c-5.9,0.2-11.7,1-17.6,1.9c5.2-2.7,10.5-5.3,16-6.5
					c6.4-1.3,13.1-0.7,19.9,0c-6.4-1.8-12.9-3.6-19.4-4.2C685.3,354.4,679.2,354.9,673.1,355.4z"/>
			</g>
			<g id="SPLINE_328_">
				<path fill="#333333" d="M568.6,410.2c-2.2-3.5-4.4-7-6.1-10.8c-2.6-5.7-4.1-11.9-4.4-18.2c-0.2-6.7,1-13.4,3.3-19.7
					c1.6-4.5,3.8-8.8,6.6-12.7c3.9-5.5,9-10.4,14.8-13.8c7.6-4.5,16.3-6.5,25-8.6c-3.8,0.5-7.6,1-11.5,1.8
					c-9.2,1.8-18.5,5.1-25.5,11.2c-5.8,5-9.9,12-12.4,19.3c-1.8,5.2-2.7,10.5-3.6,15.9c-0.1-6.5-0.2-13.1,0.3-19.6
					c0.3-3.8,0.8-7.6,1.9-11.4c1.9-6.7,5.5-13.1,10.5-17.9c2.9-2.8,6.3-5.1,9.7-7.4c-2.9,1.4-5.7,2.8-8.3,4.6
					c-4.4,3.2-8,7.7-10.6,12.6c-3.9,7.3-5.9,15.4-6.4,23.5c-0.4,7,0.3,14.1,1.1,21.1c-0.9-3.8-1.7-7.7-2.3-11.6
					c-1.1-7.6-1.1-15.4,0.6-22.9c1.3-5.8,3.7-11.3,6-16.9c-3,5.8-6,11.5-7.6,17.6c-1.8,6.5-2,13.3-2.2,20.2
					c-0.1,6.6-0.2,13.2,2,19.1c1.9,5.3,5.5,9.9,9.1,14.6"/>
			</g>
			<g id="SPLINE_327_">
				<path fill="#333333" d="M568.6,410.2c-2-1.6-4.1-3.1-5.9-4.9c-1.6-1.5-3-3.2-4.4-4.9"/>
			</g>
			<g id="SPLINE_326_">
				<path fill="#333333" d="M596,401.8c-0.1-0.1-0.1-0.1-0.2-0.1c-1.1-0.7,0.8,4.8,0.5,4.6c-0.1-0.1-0.8-1.6-1.1-2
					c-0.5-0.8-0.1,1.6,0.3,3.9c-2.1-5-4.2-9.9-5.5-15.3c-2-8.2-2-17.4,1.8-24.7c3.1-6,8.8-10.7,15-13.6c6.1-2.9,12.7-4.2,19.3-5.5
					c-5.5,1.5-10.9,3-15.8,5.9c-5.7,3.4-10.6,8.6-13.2,14.7c-2.4,5.7-2.9,12.1-2.2,18.3c0.5,4.6,1.6,9,3,13.4
					c1.5,4.3,3.3,8.5,5.1,12.7c-1.2-1.5-2.4-3-3.5-4.7c-1.5-2.4-2.7-5-3.9-7.7"/>
			</g>
			<g id="SPLINE_325_">
				<path fill="#333333" d="M768.7,408.1c-3.7-0.4-7.3-0.8-10.9-1.5c-4.8-1-9.5-2.7-14.1-4.3c0.5,0.4,1,0.8,1.5,1.1
					c0.5,0.3,1,0.6,1.5,1c0.5,0.3,1,0.7,1.5,1c-1.2-0.2-2.4-0.5-3.7-0.5c-1.6,0-3.2,0.4-4.8,0.6c-0.8,0.1-1.7,0.2-2.5,0.3
					c2.2,0.6,4.4,1.1,6.4,2c1.9,0.9,3.7,2.1,5.5,3.3c1.1,0.7,2.2,1.4,3.1,2.3c1,0.9,1.9,1.9,2.5,3c0.7,1.5,0.9,3.1,0.6,4.9
					c-0.1,0.8-0.4,1.7,0,2.3c0.2,0.2,0.4,0.4,0.7,0.6c-0.4-0.3-0.8-0.6-1.1-1c-0.5-0.7-0.7-1.6-1.2-2.3c-0.8-0.9-2.1-1.2-3.5-1.5
					c0.3,0.8,0.7,1.6,1.2,2.3c0.6,0.8,1.4,1.5,2,2.3c0.9,1.2,1.2,2.7,1.5,4.1c-0.3-0.7-0.6-1.4-1-2c-1-1.5-2.7-2.6-4.1-3.8
					c-2.8-2.3-5-5.3-7.7-7.6c-1.3-1.1-2.8-2.1-4.3-3c1.4,1.8,2.8,3.6,3.9,5.5c1.2,2,2.1,4,3.1,6.1c1.4,3,2.9,6.1,4.9,8.6
					c2.1,2.6,4.8,4.7,7.5,7c4.4,3.8,8.5,8.3,10.3,13.7c0.7,2,1,4.1,1.3,6.2c0.3-2.8,0.6-5.6-0.2-8.1c-0.8-2.6-2.8-4.8-4.7-6.9
					c-2.1-2.5-4-5-6.3-7.3c-1.3-1.3-2.7-2.5-3.9-3.8c-3.7-3.9-6.3-8.6-8.9-13.4c2.9,3.7,5.8,7.5,9,11c2.7,3,5.7,5.9,9.3,7.7
					c2.1,1.1,4.4,1.8,6.6,2.7c4.5,1.8,8.6,4.3,12.7,6.8c-2.9-2.1-5.8-4.2-9-6c-3.4-2-7.2-3.7-10.1-6.2c-3.3-2.8-5.6-6.6-8-10.4
					c1.6,1.8,3.1,3.6,5.1,4.9c1.6,1,3.4,1.6,5.2,2.3c6.3,2.3,12.4,4.8,18.5,7.4c-3.9-1.4-7.8-2.8-11.5-4.6c-3.8-2-7.4-4.5-10.4-7.5
					c-1.7-1.7-3.1-3.7-4.6-5.6c0.8,0.7,1.6,1.5,2.5,2.1c2.1,1.5,4.6,2.5,7.1,3.3s5,1.3,7.6,1.9c4.1,0.9,8.2,1.6,12.3,2.3
					c-3.4-0.7-6.7-1.4-9.7-2.9c-2.7-1.4-5.1-3.5-7.7-5.3c-2.7-1.9-5.6-3.5-8.5-5.2c2.7,0.9,5.5,1.9,8.3,2.4c2.7,0.5,5.4,0.6,8.2,0.4
					c3.8-0.2,7.4-0.9,11.1-1.6c-6.1,0-12.2,0.1-18.2-1c-2.4-0.4-4.8-1-7-1.9c-2.8-1.1-5.5-2.6-8.1-4.3c-1.8-1.2-3.6-2.5-5.3-3.8
					c2.7,0.3,5.4,0.6,8.1,0.6c3.1,0,6.2-0.4,9.2-0.7"/>
			</g>
			<g id="SPLINE_324_">
				<path fill="#333333" d="M812.6,596.4c0.7-1.2,1.4-2.5,1.8-3.9c0.6-2.4,0.1-5.3,1.4-7.3c0.3-0.5,0.8-1,1.3-1.5
					c-0.1,2.6-0.2,5.1-0.7,7.6c-0.3,1.6-0.8,3.2-0.9,4.8c-0.1,1.6,0.1,3.3,0.4,5c0-1.4-0.1-2.9,0.2-4.3c0.4-2.4,1.4-4.7,2.2-7.1
					c0.7-2.1,1-4.4,1.5-6.5c0.2-0.9,0.4-1.8,0.7-2.6c0.9-3.1,2.1-6.3,2.5-9.5c0.3-2.7,0.1-5.5-0.1-8.3c0,1.5,0,2.9-0.2,4.4
					c-0.2,1.2-0.6,2.4-1,3.6c-0.7,1.8-1.4,3.6-2,5.4c-0.5,1.7-0.9,3.5-1.3,5.3c0.1-0.9,0.2-1.8,0.3-2.8c0.3-2.5,0.4-4.9,0.5-7.4
					c0.1-3.5,0-7.1-0.1-10.6c-0.3,4.8-0.7,9.7-1.9,14.3c-0.6,2.2-1.4,4.3-2.2,6.5c-1.2,3.1-2.4,6.2-3.5,9.3c0.8-1.8,1.5-3.6,2.6-5.2
					c0.4-0.7,0.9-1.4,1.4-2.1c-0.9,1.8-1.7,3.5-1.9,5.4c-0.1,1.3,0.1,2.6,0,3.9C813.4,594,813,595.2,812.6,596.4z"/>
			</g>
			<g id="SPLINE_323_">
				<path fill="#333333" d="M825.7,593.5c1.5-5.2,3-10.4,3.6-15.7c0.9-7.2,0.2-14.6-1.6-21.6c-0.8-3.5-1.9-6.8-3-10.2
					c-0.7,4.7-1.3,9.5-0.1,13.9c0.5,1.8,1.2,3.5,1.8,5.2c1.8,5.5,1.7,11.5,1.1,17.2C827.1,586.1,826.4,589.8,825.7,593.5z"/>
			</g>
			<g id="SPLINE_322_">
				<path fill="#333333" d="M825.3,538.8c0.9,1.4,1.8,2.8,2.6,4.2c0.9,1.8,1.6,3.7,2.1,5.7s0.8,4,1.2,6c0.5,2.5,1.2,4.9,1.9,7.4
					c-0.7-1.4-1.3-2.8-1.9-4.2c-0.9-2.4-1.5-4.9-2.2-7.4c-0.5-1.8-1-3.6-1.6-5.4C826.8,543,826,540.9,825.3,538.8z"/>
			</g>
			<g id="SPLINE_321_">
				<path fill="#333333" d="M833,533.6c0.4,1,0.9,2,1.3,3c0.8,1.8,1.6,3.6,2.4,5.4c0.6,1.3,1.2,2.6,1.8,3.8c-0.4-1-0.7-2-1.2-3
					c-0.7-1.7-1.6-3.3-1.8-5.1c-0.1-0.8-0.1-1.6-0.2-2.3c-0.1-1.1-0.5-2.2-0.8-3.2c-0.4-1.6-0.8-3.3-1.1-4.9
					c0.3,0.8,0.5,1.7,0.8,2.5c0.9,2.5,2.1,5,3.3,7.4c1.6,3.5,3.2,7.1,4.1,10.8c0.8,3.2,1.2,6.5,1.4,9.8c0.7,9.3,0.3,18.5,0,27.8
					c0-2.1,0-4.2,0-6.3c-0.1-3.9-0.4-7.7-0.6-11.6c-0.2-5.2-0.3-10.5-2.2-15.1c-0.9-2.2-2.2-4.2-3.6-6.2c0.3,1.1,0.6,2.1,0.2,3.1
					c-0.2,0.4-0.4,0.8-0.6,1.3c-0.3,0.7-0.3,1.4-0.3,2.1c0,1,0,2,0,2.9c-0.1-0.6-0.2-1.2-0.3-1.8c-0.2-1-0.4-2.1-0.8-3.1
					c-0.4-1.1-1-2.1-1.5-3.1c0.3,1.2,0.6,2.4,0.3,3.5c-0.1,0.5-0.3,0.9-0.5,1.4c-0.3,0.9-0.4,1.8-0.4,2.7c0,0.6,0.1,1.2,0.1,1.8
					c-0.2-0.6-0.5-1.2-0.7-1.9c-0.2-0.9-0.3-1.9-0.5-2.8c-0.3-1.9-0.8-3.8-1.5-5.6c-0.9-2.7-2.1-5.3-3-8c-0.6-1.8-1.1-3.6-1.6-5.5
					c1,1.8,2,3.7,2.9,5.6c0.7,1.5,1.2,3,1.8,4.5c0.8,2,1.5,4,2.3,5.9c-0.1-0.6-0.2-1.2-0.4-1.8c-0.5-2.2-1.4-4.3-2-6.5
					c-0.5-1.7-0.9-3.4-1.3-5c0.7,1.2,1.3,2.5,1.9,3.7c0.6,1.2,1,2.5,1.6,3.7c0.7,1.6,1.5,3.1,2.4,4.6c-0.6-2.4-1.1-4.8-2.1-7.1
					c-1.2-2.8-2.9-5.4-4.4-8.1c-2-3.7-3.4-7.7-4.7-11.7c-0.9-2.6-1.8-5.2-2.7-7.8c2.1,4.3,4.1,8.7,6.1,13.1c0.6,1.3,1.2,2.7,1.9,3.9
					c0.9,1.6,2.1,3,2.9,4.6c0.8,1.6,1.3,3.3,1.9,5.1c0.5,1.3,1,2.6,1.5,3.8c-0.1-0.2-0.2-0.4-0.3-0.6c-0.5-1.2-0.6-2.5-0.7-3.9
					c-0.1-0.8-0.1-1.7-0.4-2.5c-0.2-0.8-0.6-1.5-0.8-2.3C833.1,534.2,833,533.9,833,533.6z"/>
			</g>
			<g id="SPLINE_320_">
				<path fill="#333333" d="M844.4,548.5c-0.2-0.3-0.5-0.6-0.6-0.9c-0.3-0.6-0.4-1.2-0.8-1.7c-0.2-0.2-0.4-0.4-0.6-0.6
					c0.3,0.8,0.6,1.7,0.9,2.5c0.7,2.5,0.7,5.3,2,7.5c0.6,1,1.4,1.9,2,2.9c2.5,3.8,2.3,8.8,2.6,13.5c0.3,5.3,1.3,10.3,2.2,15.2
					c-0.5-6.1-1-12.1-1.3-18.4c-0.2-4.4-0.4-8.8-2.6-12.6c-0.7-1.3-1.7-2.5-2.1-3.8c-0.7-2.3,0.3-5,0.1-7.4
					c-0.2-1.9-1.2-3.6-2.1-5.3c-1.6-3-2.8-6.1-4.1-9.1c0.6,1.9,1.3,3.8,1.8,5.7c0.4,1.5,0.8,3.1,1.2,4.6c0.3,1.5,0.6,2.9,0.8,4.4
					C844,546.2,844.2,547.3,844.4,548.5z"/>
			</g>
			<g id="SPLINE_319_">
				<path fill="#333333" d="M852,540.7c0.5,0.9,1,1.7,1.7,2.5c0.3,0.3,0.6,0.6,1,0.9c0-0.4,0-0.8-0.1-1.1c-0.1-0.5-0.2-1-0.3-1.5
					c0.3,0.4,0.5,0.8,0.8,1.3c1,1.8,2,3.6,3.2,5.3c0.8,1,1.7,1.9,2.6,2.8c-0.4-0.6-0.7-1.1-0.8-1.7c-0.1-0.6,0.1-1.2,0-1.7
					c-0.1-0.6-0.4-1.1-0.6-1.6c1,1.4,2,2.8,3,4.2c1.4,1.9,2.8,3.8,4.4,5.6c2.1,2.3,4.4,4.3,6.8,6.3c-0.5-0.3-0.9-0.7-1.4-1
					c-1-0.7-1.9-1.5-3-2.1c-0.9-0.6-1.9-1.3-3-1.8c-0.9-0.5-1.9-0.9-2.8-1.4c-1-0.6-1.9-1.4-2.8-2.1c-1-0.9-2.1-1.7-3-2.6
					c-1.1-1.2-1.8-2.6-2.6-4c0.2,0.9,0.4,1.8,0.6,2.6c0.3,1.2,0.6,2.4,0.7,3.6c0.2,2.2-0.2,4.4-0.6,6.6c0-0.3,0-0.7,0-1
					c0-2.6-0.2-5.3-1.2-7.7c-0.5-1.3-1.3-2.4-2.1-3.6c0.1,1.2,0.2,2.4,0.4,3.6c0.3,2.2,0.9,4.5,0.6,6.6c-0.1,1-0.4,1.9-0.7,2.9
					c0-1.4,0-2.8-0.2-4.1c-0.2-1.2-0.6-2.4-0.9-3.6c-1-3.4-1.9-6.8-3.4-9.8c-1-2-2.4-3.9-3.8-5.8c1,0.9,2,1.9,2.9,2.9
					c0.7,0.8,1.4,1.6,2.4,2c0.5,0.2,1.1,0.2,1.6,0.5s0.9,0.9,1.2,1.6c0-0.3-0.1-0.7-0.2-1C852.4,542,852.2,541.4,852,540.7z"/>
			</g>
			<g id="SPLINE_318_">
				<path fill="#333333" d="M874.9,568.4c0.2,1.5,0.5,3,0.8,4.5c0.8,3.4,2.3,6.7,3.8,9.9c1.4,2.9,2.7,5.7,4.1,8.6
					c-1.6-1.6-3.3-3.1-4.5-4.9c-1-1.4-1.8-3-2.5-4.5c-0.2,2.6-0.4,5.2-0.2,7.8c0.1,1.7,0.4,3.4,0.4,5.1c0.1,3.5-0.7,7-1.5,10.5
					c-0.1-2.7-0.2-5.3-0.6-8c-0.5-2.9-1.4-5.8-2.3-8.7c-0.1,1.6-0.2,3.3-0.7,4.7c-0.6,1.6-1.6,3-2.6,4.4c0.9-2.9,1.7-5.9,1.9-8.9
					c0.3-3.5-0.4-7.1-1-10.6c0.7,1.9,1.4,3.8,2.3,5.7c0.6,1.2,1.3,2.4,1.9,3.6c0.1-2.7,0.1-5.5-0.1-8.3c-0.2-2.2-0.6-4.5-0.3-6.6
					C873.9,571.3,874.4,569.8,874.9,568.4z"/>
			</g>
			<g id="SPLINE_317_">
				<path fill="#333333" d="M830.4,506.6c1.4,1.7,2.8,3.5,4.6,4.7c1.6,1.1,3.4,1.7,5.1,2.6c3.2,1.8,5.9,4.8,7.3,8.1
					c0.7,1.8,1.1,3.7,1.5,5.7c-0.2-0.6-0.4-1.1-0.6-1.7c-0.8-1.7-2.1-3.2-3.6-4.5c-1.6-1.5-3.4-2.7-5.2-4c0.9,1.4,1.8,2.8,2.7,4.2
					c2.7,4.6,4.8,9.6,6.9,14.5c-1.5-2.5-2.9-5-4.4-7.5c-2.3-4-4.7-8.1-8.1-11.1c-4.5-3.9-10.6-5.9-15.3-9.6c-3.8-3-6.6-7.2-9.4-11.4
					c3,3.4,6,6.9,9.7,9.3c1.9,1.2,3.9,2.2,5.9,3.3c2.6,1.5,5.1,3.2,7.6,5c-0.7-1.3-1.5-2.5-2.2-3.8
					C832.1,509.2,831.3,507.9,830.4,506.6z"/>
			</g>
			<g id="SPLINE_316_">
				<path fill="#333333" d="M814.2,485.4c2.5,1.8,4.9,3.7,7,5.9c1.8,1.9,3.3,4.2,5,6.1c1.3,1.5,2.8,2.9,4.3,4.2
					c-1-0.8-1.9-1.7-3.1-2.1c-1.3-0.5-2.9-0.5-4.3-1c-1.1-0.4-2.1-1.2-3-2c1.2,2.3,2.4,4.7,3.6,7c-1-1.4-2-2.8-3.1-4.1
					c-3-3.4-7.1-5.8-11.1-8.2c2.1,1.3,4.2,2.5,6.5,3.3c0.8,0.3,1.7,0.5,2.5,0.7c1.4,0.3,2.9,0.5,4.3,0.8c-0.6-0.6-1.2-1.2-1.6-1.9
					c-0.8-1.1-1.3-2.5-2-3.7C817.9,488.5,816.1,487,814.2,485.4z"/>
			</g>
			<g id="SPLINE_315_">
				<path fill="#333333" d="M855.8,538.7c-0.4-0.4-0.7-0.7-1-1.1c-0.7-1.1-0.9-2.4-1.3-3.7c-0.2-0.7-0.5-1.4-0.7-2.1
					c-0.2-0.6-0.3-1.2-0.7-1.7c-0.5-0.6-1.5-0.8-2.4-1c1.2,0.3,2.3,0.5,3.3,1.1c0.6,0.3,1.1,0.8,1.6,1.2c0-0.8-0.1-1.5-0.3-2.2
					c-0.5-1.2-1.6-2.1-2.8-3c1.1,0.6,2.1,1.2,3.2,1.7c1.5,0.7,3.1,1.1,4.5,1.9c1.3,0.8,2.4,1.8,3.6,2.9c-1-2-1.9-4.1-3.1-6
					c-1-1.6-2-3.1-3.1-4.5c2.8,2.4,5.5,4.8,7.5,7.8c1,1.6,1.9,3.3,2.5,5.1c0.8,2.4,1.3,4.9,1.8,7.4c-0.3-0.6-0.5-1.1-0.8-1.7
					c-1.3-2.3-3.3-4.1-5.4-5.8c-1.9-1.5-4-2.9-6-4.3c0.9,0.8,1.9,1.6,2.7,2.5c0.9,1,1.7,2.2,2.5,3.4c-1.2-1-2.5-1.9-3.8-2.7
					c-1-0.6-2.1-1.1-3.2-1.6c0.9,1.1,1.8,2.3,2.7,3.4c1,1.2,2.1,2.3,3.1,3.4c-1.2-0.7-2.4-1.3-3.4-2.2c-0.6-0.5-1.2-1.1-1.7-1.6
					c0,0.7,0.1,1.4,0.3,2C855.3,537.8,855.5,538.3,855.8,538.7z"/>
			</g>
			<g id="SPLINE_314_">
				<path fill="#333333" d="M869.5,524.3c-0.9-1-1.8-2.1-2.5-3.2c-0.9-1.7-1.3-3.6-1.7-5.6c1.4,1.8,2.9,3.6,4.7,4.9
					c1,0.7,2.2,1.3,3.3,1.9c-1.5-1.8-3-3.6-4.1-5.6c-1.4-2.5-2.1-5.4-3.2-8.1c-0.9-2.4-2.1-4.7-3.9-6.4c-1.4-1.3-3.1-2.4-4.5-3.7
					c-0.9-1-1.7-2.2-2.4-3.4c0.5,1.9,1.1,3.8,2.4,5.2c1.2,1.2,2.9,2.1,3.4,3.6c0.2,0.7,0.2,1.5,0.2,2.3c-0.8-0.6-1.7-1.2-2.5-1.9
					c-1.6-1.4-3-2.9-4.3-4.6c-1.6-2.1-2.9-4.4-4.4-6.6c-2.4-3.3-5.3-6.3-8.8-8.2c-3.7-2.1-8.1-2.8-12.4-3.6
					c3.7,1.1,7.5,2.2,10.8,4.1c4.3,2.4,8,6.2,10.4,10.6c1.1,2,1.9,4.1,3,6c1.1,1.8,2.4,3.4,4.2,4.6c1.9,1.3,4.3,2.3,5.1,4.1
					c0.6,1.2,0.5,2.9,0.3,4.5c-0.9-1.1-1.7-2.3-2.6-3.4c-3.5-3.3-6.9-6.6-10.4-9.9c-3.7-3.5-7.5-6.9-11.2-10.4
					c4.3,5.9,8.7,11.8,13.7,17.1c2.5,2.6,5.2,5,7.5,7.7c4.4,4.9,7.9,10.6,11.4,16.2c-1.1-2.3-2.1-4.7-3.3-6.9
					c-1.2-2.3-2.5-4.5-3.8-6.7c0.8,1.3,1.7,2.6,2.8,3.7C867.7,523.3,868.6,523.8,869.5,524.3z"/>
			</g>
			<g id="SPLINE_313_">
				<path fill="#333333" d="M798.7,461.3c3.5-0.1,7-0.1,9.6,1.4c2.4,1.4,3.9,4.2,5.5,7c-2.7-2.1-5.3-4.2-8.3-5.7
					C803.3,462.9,801,462.1,798.7,461.3z"/>
			</g>
			<g id="SPLINE_312_">
				<path fill="#333333" d="M857.5,494.5c0.7,0.5,1.3,1,2,1.4c0.9,0.6,1.9,1,2.9,1.5c-1.4-1.4-2.9-2.8-4.5-3.9
					c-1.3-0.9-2.6-1.7-4-2.5c-2.3-1.3-4.7-2.6-7-4c1.4,0.6,2.7,1.1,4.1,1.7c2.2,0.9,4.4,1.9,6.6,2.9c-2.2-1.5-4.5-2.9-6.7-4.4
					c-3.5-2.2-7-4.3-10.5-6.4c-3.1-2-6.2-3.9-9.3-5.9c-4-2.6-8-5.2-12.1-7.6c-2.9-1.7-5.8-3.3-8.7-4.8c5.1,2,10.1,4,15.2,5.7
					c2.2,0.8,4.5,1.5,6.7,2.4c3.2,1.3,6.2,2.9,9.4,4.1c1.4,0.5,2.8,1,4.2,1.4c-1.3-1.1-2.5-2.3-3.9-3.2c-1.7-1.1-3.6-1.9-5.6-2.7
					c2.2,0.7,4.4,1.4,6.6,2.3c1.7,0.7,3.4,1.5,5.1,2.3c-2.6-1.9-5.3-3.9-8.1-5.5c-4-2.2-8.4-3.6-12.3-5.9c-2.8-1.7-5.4-3.8-7.9-5.9
					c4.5,2.2,9,4.4,13.6,6.2c3.9,1.5,7.9,2.8,11.7,4.6c4.9,2.3,9.4,5.3,13.9,8.3c5.3,3.4,10.6,6.8,16.2,9.6
					c4.6,2.4,9.4,4.4,14.2,6.4c-7.5-2.1-14.9-4.1-21.6-7.8c-2.8-1.5-5.5-3.4-8.4-4.9c-2.2-1.1-4.5-2.1-6.7-3.1c1.8,1,3.6,2,4.9,3.5
					c0.7,0.8,1.2,1.8,1.7,2.8c-0.5-0.6-1-1.2-1.6-1.6c-1.3-1-3-1.3-4.7-1.6c1.9,1.8,3.8,3.6,5.6,5.6c0.8,0.9,1.6,1.8,2.4,2.7
					c-1.8-0.6-3.7-1.3-5.6-1.7c-1.3-0.3-2.6-0.5-4-0.6c1.8,1.3,3.6,2.6,5.6,3.5c1.8,0.8,3.9,1.4,5.4,2.6c1.1,0.9,2.1,2.1,2.7,3.5
					c0.6,1.4,1,2.9,1.8,4.1c0.5,0.9,1.3,1.6,2.1,2.4c-2.8-0.9-5.6-1.8-7.8-3.6C859.7,497.5,858.6,496,857.5,494.5z"/>
			</g>
			<g id="SPLINE_311_">
				<path fill="#333333" d="M787.2,388.8c9-0.1,18-0.2,25.6,3c9.5,4,17,13,26.3,18.4c3.7,2.1,7.7,3.7,11.7,5.3
					c-2.8-0.5-5.6-0.9-8.4-1.7c-4.9-1.5-9.4-4.1-13.8-7c-4.7-3.1-9.2-6.5-14.1-9c-4.3-2.3-9-4-13.8-5.4
					C796.3,390.9,791.8,389.8,787.2,388.8z"/>
			</g>
			<g id="SPLINE_310_">
				<path fill="#333333" d="M820.6,430.7c1.2,1.4,2.3,2.7,3.7,3.8c1.5,1.2,3.3,2.1,4.9,3.3c1.2,0.9,2.2,1.9,3.3,2.9
					c-1.2-0.4-2.4-0.8-3.4-1.4c-0.9-0.5-1.7-1.3-2.6-1.8c-1.5-0.8-3.2-1.1-4.9-1.4c0.9,1.1,1.9,2.2,2.7,3.3c0.9,1.1,1.7,2.3,2.7,3.4
					c1,1,2.1,1.9,3.3,2.8c-1.3-0.7-2.7-1.3-4-2.1c-1.2-0.7-2.4-1.5-3.6-2c-1.9-0.8-4-1-6-1.2c2.1,0.9,4.3,1.8,5.9,3.4
					c1.5,1.5,2.6,3.6,4.3,4.7c1.6,1.1,3.7,1.3,5.4,2.1c1.5,0.7,2.7,1.7,3.9,2.7c-1.4-0.5-2.8-1.1-4.3-1.6c-1.1-0.4-2.1-0.9-3.2-1.2
					c-1.2-0.3-2.5-0.4-3.7-0.4c1.2,0.7,2.4,1.3,3.6,1.9c1.8,0.9,3.7,1.7,5.4,2.8c1.5,1,2.9,2.2,4.3,3.4c-1.3-0.7-2.6-1.3-3.9-1.9
					c-1.2-0.5-2.5-0.8-3.8-1.1c0.6,0.3,1.2,0.6,1.8,1c1,0.7,1.9,1.7,2.7,2.7c-0.4-0.2-0.9-0.5-1.3-0.7c-2.8-1.5-5.8-2.7-8.7-3.8
					c-3.4-1.3-6.9-2.6-10.3-3.8c1.3,0.5,2.6,1,3.8,1.6c2.5,1.2,4.8,2.8,7.1,4.3c2.8,1.7,5.7,3.3,8.8,4.2c3,0.9,6.2,1.1,9.2,1.9
					c3.6,0.9,6.9,2.6,10.3,4.3c-1.5-1.3-2.9-2.6-4.6-3.7c-2.7-1.8-5.9-2.9-8-5.3c-0.8-0.9-1.5-2-2.2-3.1c2,0.6,4,1.1,6,1.2
					c1.5,0.1,2.9-0.1,4.4-0.3c-1.4-0.3-2.7-0.5-3.8-1.2c-1.2-0.7-2.1-1.9-3.3-2.7c-1.3-0.9-2.9-1.4-4.5-1.9c0.9-0.3,1.8-0.5,2.7-0.8
					c0.9-0.2,1.7-0.4,2.6-0.5c-1.3-0.8-2.6-1.7-3.9-2.5c-1.6-1-3.1-2-4.7-3c0.7,0,1.4,0,2.1,0c2.3,0.1,4.5,0.5,6.8,0.9
					c-2.4-1.2-4.8-2.5-6.8-4.3c-1.3-1.2-2.4-2.7-3.5-4.1c0.7,0.1,1.4,0.3,2.1,0.3c1,0.1,2.1,0,3.2-0.2c-0.8-0.3-1.7-0.7-2.4-1.1
					c-0.9-0.6-1.7-1.3-2.5-2.1c1,0.3,2,0.6,3,0.8c1.6,0.3,3.3,0.3,5,0.4c-4.3-1.1-8.7-2.2-12.6-4c-6.8-3.2-12.4-8.8-18-14.3
					c3.3,5,6.6,9.9,11,13.7c2.4,2,5.2,3.7,8,5.3c-1.9-0.3-3.8-0.6-5.5-1.3C823.2,432.6,821.9,431.7,820.6,430.7z"/>
			</g>
			<g id="SPLINE_309_">
				<path fill="#333333" d="M551.4,332c-2.1,2.3-4.3,4.5-6.1,7c-2.1,2.9-3.9,6.1-5,9.6c-2.6,8.1-1.5,17.2,0.7,25.5
					c1.4,5.4,3.4,10.5,5.3,15.7c-1.9-2.2-3.8-4.5-5.3-7c-5.5-8.7-6.8-20-5.6-30.4c0.9-8,3.3-15.6,5.7-23.1
					c-5.8,12.8-11.6,25.7-9.7,37.8c1.4,8.7,6.8,17,12.2,25.3c0.2,1.4,0.4,2.8,0.9,4.1c0.9,2.7,2.9,5,4.8,7.3
					c-5.6-5.6-11.1-11.2-14.6-17.7c-4.8-9-5.7-19.9-6.6-30.8c-0.7,9-1.4,17.9,0.9,26.3c2.6,9.5,9,18.1,16,25.3
					c0.6,0.6,1.3,1.3,1.9,1.9c-3.9-2.9-7.8-5.7-11.9-8.3c-7.5-4.7-15.6-8.5-23.9-11.6c-5.2-2-10.6-3.6-15.9-5.3c6.5,1,12.9,2,19,4.1
					c5.7,1.9,11.1,4.8,16.6,7.7c-2.1-4.2-4.2-8.4-5.4-12.9c-3.2-11.1-1.6-23.8,2.5-34.9c3-8.3,7.4-15.8,12.3-22.9
					c2.7-3.9,5.6-7.6,8.9-10.9c7.8-7.9,18-13.5,28.8-16.6c11-3.1,22.5-3.7,33.6-1.9c8,1.3,15.7,3.9,23.4,6.4
					c-4.3,0.2-8.7,0.4-13.1,0.4c-10.1,0-20.7-1.1-29.9,2.4c-5.4,2-10.3,5.6-15.1,9.1c-2.3,1.6-4.5,3.2-6.8,4.8
					c1.1-1.4,2.2-2.7,3.4-4.1c2.5-2.8,5.1-5.5,8-7.8c1.1-0.9,2.2-1.7,3.4-2.5c-5.6,2.1-11.2,4.1-16.4,7
					c-7.7,4.3-14.5,10.4-19.4,17.6c-2.4,3.5-4.3,7.2-6.3,11c1.4-1.7,2.8-3.3,4.5-4.7C548.5,333.6,549.9,332.8,551.4,332z"/>
			</g>
			<g id="SPLINE_308_">
				<path fill="#333333" d="M518.7,382.3c-4.1-1-8.2-2-11.8-4c-3.4-1.9-6.3-4.8-9.2-7.7c3.5,4.7,7,9.4,11.7,12.6
					c3.8,2.6,8.5,4.1,13.1,5.6c-9.5-2.2-19-4.3-25.7-10.5c-4.1-3.7-7.1-8.8-8.9-14.2c-1.6-4.8-2.3-9.9-2.9-14.9
					c-0.1,8.7-0.2,17.5,1.1,26c1.7,10.9,5.8,21.3,9.8,31.8c-5.5-10.5-11.1-21-13.5-32.5c-2.1-10.4-1.7-21.6,1.3-31.8
					c2-7.1,5.3-13.8,8.5-20.5c-1.2,3.9-2.4,7.9-2.9,12c-1.2,10.3,2.1,21.4,8.2,29.8c4.3,5.9,10.1,10.5,15.8,15.1"/>
			</g>
			<g id="SPLINE_307_">
				<path fill="#333333" d="M518.7,382.3c-1.3-0.5-2.6-1.1-3.8-1.9c-0.6-0.4-1.2-0.9-1.7-1.4"/>
			</g>
			<g id="SPLINE_306_">
				<path fill="#333333" d="M499,393.8c-8.9-4.9-17.7-9.7-24.9-16.5c-4-3.8-7.6-8.2-11.1-12.6c3.3,6.1,6.6,12.1,11.1,17.2
					c6.1,6.9,14.3,11.9,22.3,16.7c3.8,2.3,7.6,4.5,11.3,6.7c-10.5-4.9-21.1-9.8-30.1-16.8c-3.7-2.9-7.1-6.1-10.5-9.3
					c2.6,3.6,5.1,7.3,8.2,10.4c3,3,6.4,5.6,9.8,8.2c-5.5-3.1-11.1-6.1-15.8-10.1c-4.8-4-8.8-8.9-13-13.6c-2.5-2.8-5-5.5-7.5-8.2
					c0.3,0.5,0.5,0.9,0.7,1.4c1.9,4.1,1.3,8.9,0.7,13.8c-0.4-2.9-0.8-5.7-1.7-8.5c-0.6-1.8-1.4-3.6-2.4-5.3c-2.8-4.7-7.3-9.3-7-14.2
					c0.1-2,1.1-4.1,2-6.2c0.3,2.7,0.7,5.4,1.7,7.9c1.1,2.8,2.9,5.2,4.8,7.7c-0.4-2.3-0.8-4.5-0.8-6.8c-0.1-4.6,1.2-9.2,2.4-13.7
					c-0.4,5.2-0.8,10.4,1.2,14.6c1.3,3,3.8,5.5,6.2,8.1c-2.1-9.1-4.1-18.2-4.4-27.4c-0.3-8.7,1.1-17.4,2.4-26.1
					c-0.2,8-0.4,16,1.2,23.8c1.5,7.4,4.5,14.6,8.5,21.1c3.1,5.1,6.8,9.8,10.5,14.5"/>
			</g>
			<g id="SPLINE_305_">
				<path fill="#333333" d="M499,393.8c-6.8-4.4-13.5-8.8-18.5-15c-1.2-1.6-2.4-3.2-3.5-4.9c-0.7-1.1-1.5-2.2-2.3-3.2"/>
			</g>
			<g id="SPLINE_304_">
				<path fill="#333333" d="M511.6,368.3c-2-3.6-4.1-7.2-5.5-11.1c-2-5.5-2.6-11.5-1.6-17.5c1.2-6.6,4.5-13.1,9.6-17.1
					c5-4,11.8-5.6,18.4-6c6.7-0.4,13.3,0.5,19.8,1.4c-6.1-1.4-12.2-2.8-18.6-2.9c-6.4-0.1-13.1,1-18.5,4.3
					c-7.4,4.4-12.4,12.8-13.9,21.7c-1.1,7.1,0.1,14.6,3.9,20.2C507,364,509.3,366.1,511.6,368.3z"/>
			</g>
			<path fill="#333333" d="M596.6,286.7c-3.8,0.7-7.8,0.8-11.6,0c-2.6-0.5-5-1.5-7.6-1.9c-1.1-0.2-2.2-0.3-3.2-0.4
				c3.4,0.3,6.8,0.6,10.2,0.5c4-0.1,8-0.7,11.8-1.8c2.4-0.7,4.7-1.7,7-2.6c-7.1,2-14.3,3.9-21.3,3.6c-6.1-0.3-12.2-2.3-18.3-4
				c-10-2.7-20.1-4.3-30.5-3.8c-13.9,0.7-28.3,5.1-39,13.7c-7.1,5.7-12.5,13.2-17.9,20.7c4.9-4.9,9.8-9.8,15.5-14.1
				c5-3.8,10.5-7.2,16.6-8.3c2.2-0.4,4.4-0.5,6.6-0.9c1.1-0.2,2.2-0.5,3.3-0.9c-3.2,1.3-6.5,2.7-9.7,4.2c-3.2,1.4-6.3,2.9-9.1,4.9
				c-1.7,1.2-3.3,2.7-4.8,4.1c4.3-2,8.5-4.1,13.1-4.8c3.2-0.5,6.5-0.4,9.7-1.2c2.5-0.6,4.8-1.8,7.3-2.6c3.7-1.1,7.6-1.3,11.5-1.4
				c-3.5,0.4-6.9,0.8-10.2,1.9c-3.1,1-6,2.6-9,4.2c4.2-1.4,8.4-2.7,12.7-3.5c1.9-0.3,3.8-0.5,5.8-0.4c2.5,0.1,5,0.6,7.5,0.4
				c1.2-0.1,2.4-0.4,3.5-0.7c-2.1,0.9-4.2,1.8-6.3,2.7c-2.1,0.9-4.1,1.7-6.3,2.4c-2.4,0.7-4.9,1.1-7.5,1.5c2.9,0,5.8,0,8.6-0.7
				c1.2-0.3,2.4-0.6,3.6-1c-1,0.8-2.1,1.6-3.2,2.4c-2.1,1.3-4.5,2.3-6.9,3.1c-1.7,0.6-3.3,1.1-5,1.6c3.4-1,6.7-2.1,10-1.5
				c3.3,0.5,6.6,2.6,10,2.7c0.9,0,1.8-0.1,2.6-0.2c-2.1,1.7-4.1,3.6-6.1,5.4c-0.8,0.7-1.6,1.5-2.4,2.2c3.8-3,7.6-5.9,11.7-8.3
				c4.2-2.4,8.8-4.2,13.3-6.1c4.7-2,9.2-4.3,14.2-5.4c5.2-1.1,10.9-0.9,16-2.3c4.6-1.2,8.9-3.7,13.1-6.3
				C602.8,284.9,599.8,286.1,596.6,286.7z M533.8,286.8c-2,0.3-4.1-0.1-6.1-0.1c-1.5,0-2.9,0.3-4.4,0.6c2-1.3,3.9-2.6,6-3.9
				s4.3-2.6,6.7-3.3c2.8-0.9,5.9-1,8.9-1.2c0.8-0.1,1.7-0.1,2.5-0.2c-1.5,0.9-2.9,1.8-4.3,2.8c-1.5,1.1-2.9,2.3-4.5,3.3
				C537,285.8,535.4,286.6,533.8,286.8z M558.2,297.3c-2.6,1.2-5.2,2.4-7.6,3.9c-1.6,1-3,2.1-4.5,3.3c-1.8-0.3-3.5-0.6-5.1-1.3
				c-0.8-0.3-1.5-0.7-2.3-1c-0.7-0.3-1.5-0.4-2.3-0.6c1.1-0.2,2.2-0.4,3.4-0.5c1.3-0.2,2.5-0.3,3.8-0.5c1.1-0.2,2.2-0.5,3.3-0.7
				c-0.7,0-1.4,0-2.1,0.1c-0.7,0-1.3,0-2,0c-0.9,0-1.8-0.2-2.6,0c-0.2,0-0.4,0.1-0.6,0.2c1.4-0.4,2.8-0.8,4.3-1.2
				c1.7-0.4,3.5-0.8,5.3-1c1.7-0.2,3.4-0.3,5-0.7c1-0.3,2-0.7,3-1.2c1-0.4,2-0.9,3.1-1.1c1.3-0.3,2.7-0.2,4.1-0.5
				c0.9-0.2,1.7-0.5,2.5-0.8C563.9,294.7,561.1,296,558.2,297.3z M570.9,283.9c-2.5,2.4-6.9,0.9-10.4,1.5c-1.5,0.2-2.8,0.8-4.2,1.3
				c-2.3,0.8-4.7,1.5-7.1,1.4c-2.1-0.1-4.2-0.7-6.2-0.7c-1.8,0-3.6,0.4-5.4,0.7c2.2-0.8,4.4-1.6,6.6-2.4c2.8-1,5.6-2,8.5-2.7
				c2.2-0.5,4.6-0.9,6.8-0.6c2.8,0.4,5.5,1.8,8.3,1.8c1.1,0,2.2-0.2,3.3-0.4C571,283.8,570.9,283.9,570.9,283.9z"/>
			<g id="SPLINE_303_">
				<path fill="#333333" d="M591.8,225c7.3-2.3,14.7-4.5,22.2-4.8c7.4-0.3,15.1,1.3,22,4.3c5,2.2,9.5,5,14.5,6.8
					c3.3,1.2,6.7,1.9,10.1,2.5c-5.5-0.3-11-0.6-16.2-2.1c-3.9-1.2-7.7-3.1-11.6-4.4c-5.9-2-12.1-2.8-18.3-3.1
					C607,224,599.4,224.5,591.8,225z"/>
			</g>
			<g id="SPLINE_302_">
				<path fill="#333333" d="M631.1,228.5c2.7,1.2,5.4,2.5,8.2,3.4c5.7,2,11.8,2.7,17.8,3.6c6.5,0.9,12.9,2,19.5,3.5
					c5.5,1.3,11.1,2.9,15.5,6c3.5,2.6,6.3,6.1,9.1,9.7c-4.4-3.9-8.9-7.7-14.1-10c-4.6-2-9.9-2.8-15.1-3.3
					c-5.1-0.4-10.1-0.6-15.1-1.4c-6.2-0.9-12.3-2.9-17.7-6C636.4,232.5,633.7,230.5,631.1,228.5z"/>
			</g>
			<g id="SPLINE_301_">
				<path fill="#333333" d="M557.7,214.9c-11.8,0.3-23.5,0.5-35.1,3.1c-12.2,2.7-24.1,8-33.5,16.1c-10.9,9.4-18.3,22.5-23.6,36
					c-4.2,10.6-7,21.4-9.9,32.2c0.8-3.9,1.7-7.8,3.1-11.6c2.6-6.8,7.1-13,12.8-17.4c8-6.2,18.2-8.6,28.4-11
					c-9,1.2-17.9,2.4-25.4,6.7c-3.1,1.8-6,4.2-8.9,6.6c3.8-8.8,7.7-17.6,13.1-25.5c8.3-12.1,20.3-22.2,33.8-27.8
					C526.6,216.5,542.1,215.7,557.7,214.9z"/>
			</g>
			<g id="SPLINE_300_">
				<path fill="#333333" d="M544.2,271.3c1.3-0.6,2.6-1.2,3.8-1.9c7.5-4.2,12.2-12.1,18.5-18.1s14.1-10.1,22-14.1
					c-2,0.6-4,1.2-5.9,2c-6.1,2.3-11.7,5.9-16.9,9.8c-5.9,4.4-11.3,9.1-16.4,14.6c-1.5,1.7-3.1,3.4-4.9,4.5c-3,1.7-6.9,1.7-10.6,2
					c-5.3,0.3-10.3,1.1-15.3,2"/>
			</g>
			<g id="SPLINE_299_">
				<path fill="#333333" d="M518.5,272.1c4-0.4,8.1-0.7,12.1-0.6c3.5,0.1,7.1,0.7,10.6,0.3c1-0.1,2-0.3,3-0.5"/>
			</g>
			<g id="SPLINE_298_">
				<path fill="#333333" d="M635.9,246.7c-7,1.1-13.9,2.2-18.9,6c-4.2,3.1-7,8.1-10.5,12.7c-5.2,7-11.9,13.2-19.8,15
					c-3,0.7-6.2,0.7-9.4,0.7c2.8-0.6,5.5-1.1,8.1-2.2c2.9-1.2,5.6-2.9,8-4.8c4.3-3.3,8.1-7.1,11.7-11.4c3.3-4,6.3-8.4,10.3-11.1
					C620.9,247.9,628.4,247.3,635.9,246.7z"/>
			</g>
			<g id="SPLINE_297_">
				<path fill="#333333" d="M708.7,254.6c-5.8,10.8-11.7,21.6-20.1,29.5c-9.6,8.9-22.5,14.1-35.5,19.2c8.5-3.8,17-7.5,24.4-12.9
					c7.2-5.2,13.4-11.9,19-19C700.8,266,704.8,260.3,708.7,254.6z"/>
			</g>
			<g id="SPLINE_296_">
				<path fill="#333333" d="M649.2,300.1c4.7-5.1,9.3-10.3,13.9-15.5c8.2-9.5,16.1-19.2,23.9-29c-6.6,10.3-13.3,20.7-21.6,29.6
					C660.4,290.5,654.8,295.3,649.2,300.1z"/>
			</g>
			<g id="SPLINE_295_">
				<path fill="#333333" d="M626.1,254.4c5.8,0.2,11.5,0.4,17.3,1c9.3,1,18.6,3.3,26.6,7.9c4.4,2.6,8.4,5.9,12.4,9.2
					c-4-1.8-8.1-3.6-12.2-5.3c-8-3.3-16.1-6.3-24.5-8.5C639.3,256.9,632.7,255.6,626.1,254.4z"/>
			</g>
			<g id="SPLINE_294_">
				<path fill="#333333" d="M631,241.6c-4.3-1.5-8.7-3-13.1-4.4c-7.4-2.3-15.1-4.4-22.7-4.6c-8.8-0.3-17.6,1.8-26.4,3.8
					c2.1-0.4,4.2-0.8,6.4-1.2c7.5-1.3,15.2-2,22.6-1.1c9.7,1.2,18.9,5,28.1,8.9c-5.3-0.8-10.7-1.7-16-1.5c-4.7,0.2-9.3,1.1-14,2
					c4.9-0.3,9.7-0.5,14.5-0.2c4.1,0.3,8.1,1.1,12,2.3c5.2,1.5,10.2,3.6,15.6,3.7c3.9,0,8.1-1,11.6,0c3.4,1,6.2,3.9,9,6.7
					c-2.2-3.1-4.4-6.2-7.5-7.6c-3.6-1.6-8.5-0.9-12.1-2.7c-4.2-2.1-6.8-7.5-10.9-9.3c-2.6-1.1-5.8-0.7-9-0.4c2.6,0.4,5.3,0.7,7.5,2
					C628.3,239,629.7,240.3,631,241.6z"/>
			</g>
			<g id="SPLINE_293_">
				<path fill="#333333" d="M740.2,326.2c4.7,1.8,9.3,3.6,14.2,4c4.1,0.3,8.3-0.3,12.2,0.4c3.3,0.6,6.5,2.1,9.7,3.5
					c-3.1-0.4-6.2-0.8-9.2-0.6c-1.9,0.1-3.8,0.5-5.7,0.9c2.8,0.1,5.6,0.2,8.4,0.5c2.9,0.4,5.8,1,8.8,1.4s6.1,0.5,9.2,0.6
					c-2.5,0.4-5.1,0.8-7.6,0.9c-3.2,0.1-6.4-0.4-9.5-0.4c-1.7,0-3.5,0.2-5.2,0.4c3.1,1.1,6.2,2.3,9.3,3.2c3.9,1.1,7.8,2,11.8,2.8
					c-6.8-0.2-13.6-0.3-19.8-2.6c-4.9-1.8-9.4-4.8-14.3-6.5c-5.8-2-12.2-2-18.5-1.9c3.9-0.5,7.8-1,11.8-1.1
					c3.3-0.1,6.7,0.2,10.1,0.4c-1.9-0.3-3.8-0.7-5.6-1.2C746.6,329.9,743.4,328,740.2,326.2z"/>
			</g>
			<g id="SPLINE_292_">
				<path fill="#333333" d="M825.7,304c11.6,6,23.1,11.9,32.2,20.9c4.7,4.6,8.7,10,11.9,15.9s5.5,12.3,7.7,18.7
					c-1.3-2.8-2.6-5.6-4.4-8.1c-3.4-4.8-8.5-8.3-13.5-11.8c4.3,4.5,8.6,8.9,11.2,14.3c1.6,3.4,2.6,7.2,3.5,10.9
					c-0.9-2.4-1.8-4.8-3.2-6.8c-2.7-4-7.1-6.7-10.7-10c-4-3.6-7.1-8-10.2-12.4c1.8,2.8,3.5,5.5,4.9,8.5c1.5,3.3,2.6,6.7,3.6,10.2
					c-1.9-3-3.9-5.9-5.9-8.9c-5.1-7.5-10.8-14.7-17.8-20.4c-6.3-5.1-13.7-8.9-21-12.7c0.7,0.3,1.5,0.6,2.2,0.9
					c8.8,3.8,17.7,8.4,24.7,14.9c2.9,2.7,5.5,5.8,8.1,8.9c-0.9-1.8-1.7-3.5-2.5-5.3c-2.4-5.4-4.3-11.2-7.7-15.8
					C835.3,311.2,830.5,307.6,825.7,304z"/>
			</g>
			<g id="SPLINE_291_">
				<path fill="#333333" d="M776.3,262.4c8.3,0,16.6,0.1,23.7,3.4c3.1,1.4,6,3.5,8.9,5.6c-2-3.6-4-7.1-6.4-10.4
					c-3-4.1-6.6-7.8-10.1-11.5c5.6,4.9,11.1,9.7,17.3,13.6c7.6,4.8,16.2,8.3,23.5,13.6c7.8,5.7,14.2,13.6,18.5,22.2
					c2.8,5.7,4.7,11.8,6.5,17.9c-1.9-2.2-3.9-4.3-6.1-6.1c-4.7-3.7-10.7-5.6-16.1-8.5c-4.2-2.2-8-4.9-12-7.3
					c-3.5-2.1-7.1-3.9-10.7-5.7c1.7,2.3,3.5,4.7,5.2,7c-1.1-0.8-2.3-1.5-3.4-2.3c-2.4-1.8-4.6-3.9-7.2-5.5c-3.5-2.1-7.6-3.1-11.7-4
					c3,0.1,6,0.3,9,0.6c6.5,0.6,13.1,1.8,19.2,4.1c5.5,2,10.7,4.9,15.8,7.8c-1.1-0.8-2.2-1.7-3.3-2.6c-2.8-2.5-4.9-5.7-7.5-8.6
					c-2.8-3.2-6.1-6.1-10-7.5c-3.1-1.1-6.6-1.2-9.7-2.5c-1.3-0.5-2.6-1.3-3.8-2.1c-4.1-2.6-8-5.5-12.3-7.4
					C788.4,264,782.3,263.2,776.3,262.4z"/>
			</g>
			<g id="SPLINE_290_">
				<path fill="#333333" d="M431.7,453.8c-0.4,1.8-0.8,3.6-1.1,5.4c-0.4,3.4-0.3,6.8-0.8,10.2c-0.9,6.1-3.7,12-7.5,17
					c-4.3,5.7-9.9,10.1-15.4,14.6c5-3,10-6,14.1-10.1c4.8-4.8,8.4-11.1,10.3-17.7c2.2-7.6,2.4-15.6,4.6-23c1.1-3.6,2.7-7.1,4.2-10.5
					c-2,3.1-4.1,6.2-6.3,9.2c-2.1,3-4.3,5.9-6.6,8.8c-1.5,1.9-3,3.7-4.2,5.7c-0.6,1-1.2,2-1.6,3.1c-2.1,4.8-1.9,10.3-1.7,15.7
					c0.2-2.5,0.4-5,0.9-7.4c1.1-4.6,3.6-8.8,6.1-12.9C428.4,459,430.1,456.4,431.7,453.8z"/>
			</g>
			<g id="SPLINE_289_">
				<path fill="#333333" d="M423.8,447.5c-0.2,0.8-0.4,1.6-0.7,2.3c-0.9,2.5-2.4,4.7-4.1,6.8c-1.4,1.9-2.9,3.7-4,5.8
					c-1.5,2.9-2.1,6.2-2.6,9.5c0.3-0.9,0.5-1.7,0.8-2.5c1.3-3.3,3.5-6.2,5.8-9c-0.8,1.3-1.6,2.7-2.1,4.1c-0.9,2.2-1.2,4.6-1.7,7
					c-0.8,4.2-2,8.4-3.2,12.5c0.5-1.6,1.1-3.2,1.6-4.8c0.6-2.1,1.2-4.2,1.9-6.2c0.8-2.4,1.7-4.7,2.9-6.9c1.8-3.1,4.2-5.9,6.1-9
					c1.1-1.8,1.9-3.7,2.8-5.6c1.6-3.6,3.3-7.2,5.7-10.3c2.4-3,5.4-5.5,8.5-7.9c-3.1,1.8-6.3,3.7-8.9,6.2c-2.5,2.3-4.4,5.2-6.2,8.2
					c-1.6,2.6-3,5.2-4.4,7.8c0.5-1.2,1-2.5,1.3-3.7C423.6,450.3,423.7,448.9,423.8,447.5z"/>
			</g>
			<g id="SPLINE_288_">
				<path fill="#333333" d="M423.3,424.6c-4.3,5-8.6,10-11.5,15.8c-1.3,2.5-2.2,5.2-2.9,7.9c-0.8,3.2-1.2,6.5-2.4,9.5
					c-1.1,2.7-2.7,5.2-4.4,7.6c0.9-3.4,1.7-6.8,2.5-10.2c0.8-3.5,1.7-7,2.9-10.3c0.8-2.1,1.8-4.1,2.8-6.2c-1.4,1.3-2.8,2.7-4,4.1
					c-2.7,3.1-4.7,6.8-6.7,10.5c1-2.8,2-5.6,3.2-8.3c1.3-2.9,2.7-5.8,4.5-8.4c1.9-2.7,4.1-5.2,6.2-7.7c3.2-3.8,6.2-7.8,9.1-11.8
					c-1.4,2.2-2.9,4.4-4.2,6.6c-1.5,2.5-3,5.1-4.3,7.7c-0.8,1.6-1.6,3.2-2.4,4.8c0.9-0.9,1.7-1.7,2.6-2.6c1.7-1.6,3.4-3.2,5-4.8
					C420.7,427.4,422,426,423.3,424.6z"/>
			</g>
			<g id="SPLINE_287_">
				<path fill="#333333" d="M407.1,464.4c-0.8,0.9-1.7,1.7-2.4,2.7c-1.9,2.6-2.9,5.7-4.6,8.5c-1.1,1.9-2.5,3.7-4.1,5.3
					c-2,2.2-4.2,4.2-6.4,6.2c0.8-1.1,1.7-2.3,2.4-3.5c0.9-1.6,1.7-3.2,2.5-4.9c1-2.2,2.1-4.3,3.2-6.5c0.2,0.6,0.3,1.2,0.5,1.7
					c0.1,0.6,0.3,1.1,0.4,1.7c1-2.5,1.9-5,3.6-7C403.5,467,405.3,465.7,407.1,464.4z"/>
			</g>
			<g>
				<path fill="#333333" d="M661.7,439.4c-1.7-1.6-3.3-3.3-5-4.9c-0.3,0.4-0.6,0.8-0.9,1.2C657.8,436.9,659.7,438.2,661.7,439.4z"/>
				<path fill="#333333" d="M312.1,555.3L312.1,555.3c-0.4-1.1-0.8-2.2-1.3-3.3C311.2,553.1,311.6,554.2,312.1,555.3z"/>
				<path fill="#333333" d="M655.8,435.7c-0.1-0.1-0.3-0.2-0.4-0.2c-1.5,2.2-3,4.5-4.4,6.7C652.6,440,654.2,437.9,655.8,435.7z"/>
			</g>
			<g id="SPLINE_286_">
				<path fill="#333333" d="M372.5,471.5c2.2-2.5,4.3-5,6.4-7.5c6.2-7.5,11.7-15.6,18.8-22.3c3.3-3.1,6.8-5.8,9.9-9
					c2.4-2.6,4.5-5.5,6.6-8.5c0.1-0.4,0.2-0.9,0.3-1.3c0.3-1.1,0.6-2.2,1-3.3c-3.2,3.7-6.3,7.4-9.8,10.9c-2.9,2.9-5.9,5.5-8.8,8.4
					C387.3,448.4,379.9,459.9,372.5,471.5z"/>
			</g>
			<g id="SPLINE_285_">
				<path fill="#333333" d="M390.2,431.6c-2.5,2.5-5,5.1-7.6,7.4c-1.9,1.6-3.8,3.2-5.6,4.8c-2.1,1.9-4,4-5.9,6.1
					c-1.7,2-3.3,4.1-5.1,5.9c-2.5,2.6-5.5,4.8-8.4,6.9c3.5-2.2,6.9-4.4,10.3-6.7c1.5-1.1,3.1-2.1,4.4-3.4c1.1-1,2.2-2.2,3.2-3.4
					c-0.3,0.4-0.6,0.8-0.9,1.1c-0.6,0.8-1.1,1.5-1.6,2.4s-0.9,1.9-1.3,2.9c1-1.3,2-2.6,3-4c1.5-2,3-4,4.5-5.9
					c-0.9,1.2-1.8,2.5-2.5,3.8c-1.4,2.6-2,5.5-3.2,8.2c-1.6,3.6-4.1,6.7-6.7,9.9c1.7-1.7,3.4-3.3,4.9-5.1c2.5-2.9,4.5-6.1,6.6-9.4
					c4.6-7.2,9.3-14.6,15.8-20c2.7-2.2,5.6-4,8.6-5.9c-1.9,1.8-3.8,3.7-5.6,5.6c-8.2,8.7-14.5,18.9-20.8,29.2
					c7-8.9,14-17.8,21.5-26.4c5.5-6.3,11.3-12.4,17.1-18.4c3-3.1,6-6.2,9.1-9.3c-6.1,5.9-12.2,11.9-19.3,16.4
					c-3.7,2.3-7.6,4.3-11,6.9c-3.7,2.9-6.8,6.6-9.6,10.5c-1.9,2.6-3.7,5.3-5.5,8c0.3-0.4,0.6-0.8,0.9-1.2c0.9-1.4,1.5-3,2.2-4.5
					c0.8-1.8,1.8-3.5,2.9-5.2C386.5,436.5,388.4,434,390.2,431.6z"/>
			</g>
			<g id="SPLINE_284_">
				<path fill="#333333" d="M374.2,490.9c-5.8,3.4-11.6,6.8-16,5.3c-4.9-1.6-8.2-9.2-13.7-12.5c-2.7-1.7-6-2.2-9.1-1.9
					c-3.6,0.4-7,2.1-10.3,3.8c5.2-3.2,10.4-6.5,15.1-5.5c3.6,0.7,6.9,3.8,10.4,6.6c4,3.2,8.2,5.9,12.7,6.3
					C366.8,493.3,370.5,492.1,374.2,490.9z"/>
			</g>
			<g id="SPLINE_283_">
				<path fill="#333333" d="M363.7,453.4c3.7-3.5,7.3-7,9.7-11.3c1.4-2.5,2.3-5.2,3.3-8c-3.2,4.5-6.4,9-10.3,12.8
					c-3.2,3.2-6.9,5.9-10.6,8.6c4.4-4.7,8.8-9.4,12.1-15c1.7-2.9,3.1-6,5.4-8.4c1.3-1.3,3-2.4,4.3-3.8c1.6-1.7,2.5-3.9,3.9-5.7
					c1.6-2.1,3.7-3.7,5.7-5.3c-1.1,1.3-2.3,2.6-2.9,4.1c-0.6,1.4-0.7,2.9-1,4.4c-1,5.1-3.4,9.8-6.4,14
					C373.1,444.9,368.4,449.2,363.7,453.4z"/>
			</g>
			<g id="SPLINE_282_">
				<path fill="#333333" d="M358.6,447.7c0.7-3.2,1.3-6.5,2.6-9.5c1.4-3.3,3.6-6.3,5.9-9.1c2.7-3.3,5.7-6.5,9-9
					c4.4-3.3,9.5-5.6,14.5-7.9c-3.4,2-6.8,4-9.9,6.4c-3.8,2.9-7.3,6.3-10.3,10.1c-3.4,4.3-6.2,8.9-9,13.6"/>
			</g>
			<g id="SPLINE_281_">
				<path fill="#333333" d="M358.6,447.7c0.5-1.1,1.1-2.3,1.6-3.4c0.3-0.7,0.7-1.3,1-2"/>
			</g>
			<g id="SPLINE_280_">
				<path fill="#333333" d="M421,397.6c-2.9,1.1-5.7,2.2-8.2,4c-1.6,1.2-3.1,2.6-4.5,4.1c2.4-0.9,4.9-1.9,7.4-2.3
					c1.8-0.3,3.5-0.3,5.3-0.3c-6,3-12,5.9-18.3,6.1c-3.5,0.1-7-0.6-10.6-1.4c3.8-1.6,7.6-3.3,11.4-5.1c4.3-2.1,8.4-4.5,12.5-6.8
					c-0.7,0.6-1.4,1.3-2.1,1.9c-0.9,0.8-1.7,1.6-2.6,2.4c1.4-0.7,2.8-1.3,4.3-1.8C417.4,398,419.2,397.8,421,397.6z"/>
			</g>
			<g id="SPLINE_279_">
				<path fill="#333333" d="M390.8,381.4c-2.3,0.8-4.5,1.7-6.8,2.6c-3.1,1.2-6.2,2.5-9.3,3.7c-6.3,2.3-12.7,4.2-19.2,6
					c4.5-1.5,9-2.9,13.7-2.6c3.4,0.3,6.8,1.5,10.1,1.1c2.7-0.4,5.3-2,7.9-3.3c4.5-2.3,9.2-3.7,13.9-5.1c-1.6,0.2-3.1,0.4-4.7,0.5
					s-3.3,0.1-4.9,0.3c-4,0.4-7.8,1.7-11.6,3c2.2-1.2,4.4-2.3,6.5-3.6C387.9,383.1,389.3,382.3,390.8,381.4z"/>
			</g>
			<g id="SPLINE_278_">
				<path fill="#333333" d="M398,317.9c-1.8,2.9-3.6,5.7-6.1,7.7c-1.9,1.5-4.3,2.5-6.3,3.9c-2.1,1.5-3.7,3.5-5.4,5.5
					c1.4-0.9,2.7-1.8,4.1-2.6c1.7-1,3.4-1.9,5.1-2.8c-2.6,2.2-5.2,4.4-7.6,6.8c-2.6,2.5-4.9,5.2-7.4,7.8c-4.1,4.5-8.4,8.9-13.1,12.6
					c-4.4,3.4-9.3,6.3-13.6,9.8c-7.2,5.9-12.8,13.6-18.3,21.4c1.5-2.1,2.9-4.3,4.4-6.4c4.4-6.4,8.8-12.8,13.8-18.6
					c7.9-9.2,17.5-16.9,27.1-24.6c-4.1,2.4-8.2,4.8-12.1,7.4c-4.9,3.3-9.6,7-14.3,10.6c4.4-4,8.7-8.1,13.2-11.9
					c4.7-4,9.5-7.8,14.5-11.4c5.5-3.9,11.2-7.6,16.9-11.2"/>
			</g>
			<g id="SPLINE_277_">
				<path fill="#333333" d="M393,321.8c0.8-0.4,1.6-0.8,2.4-1.4c1-0.7,1.8-1.6,2.7-2.5"/>
			</g>
			<g id="SPLINE_276_">
				<path fill="#333333" d="M349.2,655.5c0.5-4.9,1-9.7,2.8-14.1c0.9-2.1,2-4.2,3.2-6.2c-0.7,3.7-1.4,7.3-0.9,10.9
					c0.3,2,0.9,3.9,1.5,5.8c0.5-4.3,1-8.5,2.8-12.4c1-2,2.3-4,2.8-6.1c0.7-2.8,0.1-5.9,0.5-8.8c0.5-3.8,2.7-7.1,4.9-10.5
					c-0.7,1.5-1.3,2.9-2.2,4.2c-1.7,2.5-4.2,4.3-6,6.8c-1.3,1.8-2.1,3.8-2.9,5.8c0.9-4.1,1.9-8.2,3-12.3c0.8-2.9,1.7-5.8,2.9-8.5
					c1.2-2.7,2.6-5.3,4-7.8c0.4-0.9,0.7-1.7,1-2.6c1.3-3.6,2-7.3,3.1-10.9c0.7-2.2,1.6-4.4,2.5-6.6c-2.2,3.2-4.4,6.5-6.2,9.9
					c-3,5.8-4.9,12.1-7,18.4c-2.9,8.6-6,17.1-7.7,26C350.1,642.7,349.7,649.1,349.2,655.5z"/>
			</g>
			<g id="SPLINE_275_">
				<path fill="#333333" d="M348.5,511.5c0.1-0.2,0.1-0.4,0.2-0.5c0.4-0.5,1.3-0.5,1.9-0.8c0.4-0.2,0.6-0.6,0.9-1
					c-1.2-0.1-2.3-0.2-3.5-0.3c-2.5-0.1-5.2-0.1-7.4,1c-1.5,0.8-2.8,2-4,3.3c0.9-0.5,1.8-1,2.8-1.4c1.6-0.6,3.4-0.8,5.2-1
					c-1.9,0.7-3.7,1.4-5.4,2.5c-3.2,2-5.6,5.4-7.4,8.9c-2.8,5.4-4.3,11.3-5.7,17.1c0.5-2,1.1-4.1,2.1-5.9c1.2-2.1,3-3.8,4.7-5.5
					c-0.4,0.9-0.8,1.9-1.1,2.8c-1.6,4.6-1.6,9.7-1.1,14.6c0.6,6.6,1.8,12.9,3,19.2c0-3.7,0.1-7.3,1.5-10.4c0.9-1.9,2.3-3.6,3.8-5.3
					c-0.8,6.1-1.6,12.2-1.1,18.2c0.3,4.2,1.2,8.4,2.1,12.5c0.2-5.2,0.4-10.4,2.3-15.2c2-5,5.9-9.5,10.6-12.1
					c2.3-1.3,4.8-2.1,7.4-2.9c-2.8-1-5.7-1.9-8.6-2.2c-1.4-0.2-2.8-0.2-4.2-0.2c1.3-1.7,2.6-3.4,4.2-4.7c1-0.8,2.2-1.5,3.4-2.2
					c-1.3-0.3-2.6-0.6-3.9-0.5c-1.4,0-2.7,0.4-4.1,0.8c0.1-1,0.1-2.1,0.6-2.9c0.3-0.6,0.9-1.1,1.3-1.7c0.4-0.6,0.5-1.3,0.7-2
					c-2,1-4,1.9-5.5,3.4c-1.4,1.4-2.4,3.1-3.4,4.9c0.2-2.3,0.3-4.5,0.6-6.8c0.3-2.5,0.7-5,1.7-7.2c1.3-2.8,3.6-5.1,5.9-7.4
					c-1.7,0.8-3.4,1.6-4.9,2.7c-2.7,1.8-4.8,4.4-6.9,6.9c1.2-4.5,2.4-9.1,5.2-12.4c2.2-2.7,5.5-4.7,8.8-6.7c0.6-0.3,1.1-0.6,1.7-0.9
					c-0.5,0.2-0.9,0.5-1.4,0.6c-0.6,0.1-1.4,0-2,0.3C349,511.2,348.7,511.3,348.5,511.5z"/>
			</g>
			<g id="SPLINE_274_">
				<path fill="#333333" d="M325.6,496.8c-2.3,2.4-4.5,4.8-5.9,7.7c-1.2,2.4-1.7,5-2.3,7.7c-0.3,1.3-0.5,2.6-1.1,3.6
					c-1,1.8-3.2,3-5.3,4.1c1.5-1.6,3-3.2,3.7-5c0.6-1.7,0.6-3.6,0.8-5.5c0.5-3.6,1.9-7.1,4.4-9.4
					C321.5,498.5,323.6,497.7,325.6,496.8z"/>
			</g>
			<g id="SPLINE_273_">
				<path fill="#333333" d="M321.5,475.1c-0.7,1.8-1.3,3.6-1.5,5.4c-0.3,2.3,0,4.6,0.4,6.9"/>
			</g>
			<g id="SPLINE_272_">
				<path fill="#333333" d="M323.4,460.2c0,0.2-0.1,0.4-0.1,0.5c-0.8,3.6-1.8-6.4-1.2-12.2c0.4-4.2,1.7-6,3.2-8.3
					c2.2-3.3,5-7.4,8.4-10.3c2.4-2.1,5.2-3.7,7.9-5.2c-1.6,2.5-3.2,5-3.8,7.8c-0.5,2.1-0.4,4.3-0.5,6.4c-0.1,2-0.4,4.1-0.6,6.1
					c1.5-2.4,3.1-4.8,5.3-6.2c1-0.6,2.1-1.1,3.2-1.5c-3,4.2-6,8.3-9.6,11.9c-1.7,1.6-3.5,3.2-5.2,4.7c-2.4,2.2-4.7,4.5-7,6.8
					l-1.8,14.3c2.2-6.7,4.3-13.4,9.3-17.6c3.2-2.7,7.6-4.3,10.6-7.3c1.8-1.8,3.1-4.1,4.4-6.4c2.8-4.6,6.2-8.8,9.7-12.8
					c3.1-3.6,6.4-7,9.6-10.4c-1.7,1.5-3.4,3.1-5.2,4.5c-3.2,2.5-6.6,4.7-10.1,6.8c1.9-1.6,3.7-3.1,5.1-5.1c1.2-1.6,2.1-3.5,3.1-5.2
					c1.6-2.7,3.5-5.1,5.5-7.5c-2.3,2.3-4.6,4.7-7,6.9c-2.1,1.9-4.2,3.7-6.5,5.3c-2.7,1.9-5.5,3.5-8.3,5.1c2.4-2.7,4.8-5.5,7.5-8
					c3-2.7,6.2-5.1,8.9-8.1c3.5-3.9,6.1-8.9,9.9-12.3c3-2.7,6.8-4.5,10.6-6.2c-3.8,2-7.5,4-11,6.5c-4.5,3.2-8.5,7.3-13.5,9.4
					c-2.2,0.9-4.6,1.5-6.8,2.5c-2.7,1.3-5,3.4-7.4,5.4c1.4-1.8,2.7-3.7,4.2-5.4c2.7-3.1,5.7-6,8.7-8.8c-2.1,1.1-4.1,2.3-6,3.6
					c-4.2,2.9-7.7,6.7-10.7,10.9c-3.2,4.3-5.9,9-8.6,13.6c1.4-5.7,2.9-11.4,5.2-16.6c2.9-6.6,7.2-12.7,11.5-18.7
					c-4,4.1-8,8.1-11.6,12.5c-3.5,4.4-6.6,9.2-9.1,14.5c-3.5,7.3-5.9,15.5-4.8,23.4c0.5,3.5,1.6,6.9,1.5,10.4c0,2.8-0.8,5.6-1.2,8.5
					c-0.8,6.3,0.2,12.6,1.2,18.9"/>
			</g>
			<g id="SPLINE_271_">
				<path fill="#333333" d="M457.3,282.9c-7,5.7-14,11.4-18.4,18.9c-3.7,6.4-5.6,14.1-6,21.6c-0.4,6.7,0.3,13.2,0.9,19.8
					c-1.5-4.9-3-9.7-3.8-14.7c-0.7-4.5-0.7-9,0-13.5c0.8-4.9,2.4-9.6,4.7-14c2.3-4.3,5.2-8.4,8.6-11.8c3.8-3.9,8.3-7,12.8-10.2
					c-1.4,1.4-2.8,2.7-4.1,4.1c-3.4,3.5-6.5,7.2-9.6,10.9c2.6-2.9,5.3-5.7,8.5-7.8C452.9,284.9,455.1,283.9,457.3,282.9z"/>
			</g>
			<g id="SPLINE_270_">
				<path fill="#333333" d="M450.7,336.3c-0.4-1.3-0.9-2.6-1.2-4c-1.5-5.1-2.4-10.5-2.3-15.8c0.1-6.3,1.4-12.5,3.7-18.3
					c1.8-4.4,4.1-8.6,6.4-12.8c-1.8,2.2-3.5,4.5-5,6.9c-2.1,3.4-3.7,7.2-4.7,11c-0.7,2.4-1.1,4.8-1.6,7.2c0-3.2,0.1-6.4,0.4-9.6
					c0.2-2.1,0.5-4.2,0.9-6.3c-1.5,5.2-2.9,10.3-3.3,15.6c-0.3,3.5,0,7,0.6,10.5c0.7,3.7,2,7.4,3.2,11"/>
			</g>
			<g id="SPLINE_269_">
				<path fill="#333333" d="M450.7,336.3c-0.6-0.8-1.3-1.7-1.8-2.5c-0.4-0.7-0.8-1.4-1.2-2.1"/>
			</g>
			<g id="SPLINE_268_">
				<path fill="#333333" d="M507.4,201.2c4.1-3.1,8.2-6.1,12.8-8c3.5-1.4,7.3-2.1,11.1-2.9c-7.7,4.2-15.4,8.4-21.5,14.4
					c-3.2,3.2-6,6.8-8.3,10.7c-1.7,2.7-3.1,5.5-4.6,8.3c0.6-3.2,1.2-6.4,2.2-9.4c1.1-3.3,2.8-6.3,4.5-9.4c-2.3,1.2-4.6,2.5-6.6,4.1
					c-3.4,2.8-5.8,6.8-8.2,10.8c1.5-4.1,2.9-8.1,5.2-11.7c1.9-3,4.4-5.7,7-8.3c-5.4,3.8-10.8,7.7-15.6,12.2
					c-7,6.5-12.8,14.4-18.5,22.2c5.3-11.7,10.7-23.3,19-32.6c7.8-8.7,18.1-15.3,29.2-19.7c8.3-3.2,17-5.1,25.7-5.7
					c8.1-0.5,16.3,0,24.4,0.6c-7.9,1.5-15.9,2.9-23.8,5.1c-9.6,2.6-19.1,6.2-26.7,12.4C512.1,196.3,509.7,198.7,507.4,201.2z"/>
			</g>
			<g id="SPLINE_267_">
				<path fill="#333333" d="M565.4,197.2c-1.6-1.1-3.2-2.1-4.9-2.8c-3.6-1.4-7.8-1.2-11.7-0.2c-3.8,1-7.3,2.8-10.7,4.5
					c2.6-2,5.3-3.9,8.2-5.2c3.2-1.4,6.8-2.1,10.3-2.7c-2.5,0-5,0-7.4,0.3c-4.1,0.5-8.1,1.7-12,2.9c5.5-2.2,11-4.4,16.6-5.4
					c9.6-1.7,19.6,0.3,29.6,2.2c-3.5,0-7,0-10.5,0.4c-2.4,0.2-4.9,0.7-7.3,0.7c-1.6,0-3.3-0.1-4.9-0.2c1,1,2.1,2,3,3.1
					C564.2,195.5,564.8,196.3,565.4,197.2z"/>
			</g>
			<g id="SPLINE_266_">
				<path fill="#333333" d="M576.3,205.4c5.1-2.2,10.2-4.5,15.6-5.7c6.5-1.4,13.5-1.2,20.1-0.1c4.6,0.8,9.1,2,13.6,3.3
					c6.1,1.8,12.2,3.7,18.4,4.9c3.1,0.6,6.2,1.1,9.3,1.5c-3.8,0.9-7.6,1.7-11.4,1.8c-2.9,0-5.9-0.5-8.8-0.5c-4,0-8,0.8-11.9,1.6
					c4.1,0.1,8.2,0.2,12.2,1.1c3.5,0.8,6.9,2.3,10.3,3.4c3.2,1,6.5,1.8,9.8,2.5c4.5,0.8,9.1,1.7,13.3,3.3c3.4,1.3,6.7,3,9.9,4.8
					c-1.4-1.6-2.8-3.3-4.4-4.8c-4.3-4.1-9.7-6.8-15.1-9.5c5,1.3,10,2.5,14.7,4.5c4.2,1.8,8.1,4.2,12.1,6.7
					c-5.2-4.4-10.5-8.9-16.2-12.7c-6.7-4.4-14-8-21.6-10.6c-12.3-4.1-25.4-5.6-38.4-7.1c2.8-0.3,5.6-0.6,8.4-0.8
					c2.8-0.1,5.6-0.1,8.4-0.1c-2.6-1.2-5.1-2.3-7.8-3.1c-3.6-1.1-7.4-1.5-11.2-1.9c0.9-0.4,1.7-0.7,2.6-1c2.5-0.8,5.1-1,7.8-1.3
					c-3.4-0.5-6.9-1-10.3-1.1c-6-0.3-12.1,0.4-18.1,1.1c0.5,0.3,1,0.7,1.6,0.9c1.6,0.6,3.6-0.1,5.4-0.1c1.8,0,3.6,0.8,5.3,1.2
					c1.1,0.3,2.2,0.4,3.3,0.5c-0.3,0-0.5,0.1-0.8,0.1c-2.2,0.2-4.4-0.5-6.5-0.4c-2,0.1-3.9,0.9-5.8,1.8c1.9-0.1,3.8-0.2,5.5,0.3
					c2,0.5,3.7,1.7,5.5,2.9c0.8,0.5,1.5,1,2.3,1.5c-1.8,0.4-3.7,0.8-5.5,1.3c-2.8,0.6-5.7,1.2-8.4,2.3c-4.4,1.7-8.4,4.4-12.3,7.1"/>
			</g>
			<g id="SPLINE_265_">
				<path fill="#333333" d="M594.3,210.9c-1.8,0-3.6,0.1-5.3,0.4c-2.9,0.5-5.6,1.7-8.5,2.3c-2.7,0.6-5.5,0.6-8.3,0.7
					c2.5,0.4,5.1,0.9,7.6,0.9c2.7,0,5.4-0.5,8.2-1.1c2.4-0.5,4.7-1.2,7.1-1.2c3.7,0,7.5,1.5,11.2,1.4c2.7-0.1,5.3-1.1,8-2.1
					c-1.3-0.3-2.6-0.6-3.8-1.2c-2-1-3.6-2.6-5.6-3.4c-2.4-0.9-5.2-0.4-7.9,0c-4,0.6-7.7,1.2-11.5,1.7c-4.4,0.7-8.9,1.4-13.5,2.2
					c2.2-0.1,4.4-0.2,6.6-0.4c2.4-0.2,4.8-0.5,7.2-0.6c3.2-0.1,6.3,0.1,9.5,0.4"/>
			</g>
			<g id="SPLINE_264_">
				<path fill="#333333" d="M756,322c2.7-0.2,5.4-0.4,8.2-0.9c3.6-0.7,7.3-2.1,10.7-1.5c2.9,0.5,5.6,2.3,8.3,4.1
					c-3.6-0.9-7.1-1.9-10.7-1.7c-2.6,0.1-5.3,0.9-7.9,1C761.7,323.2,758.9,322.6,756,322z"/>
			</g>
			<g id="SPLINE_263_">
				<path fill="#333333" d="M798.1,351c2.2-0.6,4.5-1.2,6.7-1.1c2.7,0.1,5.4,1.1,7.8,2.5c3.6,2.2,6.5,5.3,10,7.4
					c2.9,1.7,6.2,2.7,9.5,3.7c-3.7,0-7.4,0.1-10.7-1.2c-2.7-1.1-5.1-3.1-7.6-4.7C809,354.4,803.5,352.7,798.1,351z"/>
			</g>
			<g id="SPLINE_262_">
				<path fill="#333333" d="M764,348c18.1,1.7,36.2,3.4,49.8,13.4c6.1,4.4,11.2,10.5,17.4,15.2c6.7,5,14.5,8.4,22.2,11.7
					c-4.1-1-8.3-2-12.2-3.6c-7.8-3.1-14.7-8.2-21.2-13.6c-4-3.3-7.8-6.7-12.1-9.2c-6.2-3.7-13.5-5.7-20.7-7.6
					C779.4,352.1,771.7,350.1,764,348z"/>
			</g>
			<g id="SPLINE_261_">
				<path fill="#333333" d="M905.7,524.4c-5.2-1.9-10.4-3.7-12.8-7.8c-1.2-2-1.6-4.6-2.3-7c-0.5-2.1-1.2-4.2-2.3-6
					c-1.3-2.1-3.2-3.8-5.2-5.6c5.8,2,11.6,3.9,11.8,8.2c0.1,1.9-1,4.3-0.6,6.4c0.2,1.2,0.8,2.2,1.5,3.3c0.8,1.1,1.6,2.3,2.5,3.3
					C900.4,521.4,903,522.9,905.7,524.4z"/>
			</g>
			<g id="SPLINE_260_">
				<path fill="#333333" d="M861.5,401.7c6.8-0.2,13.7-0.4,17.2,3.5c2.1,2.4,3,6.3,5.2,9.3c2.7,3.8,7.3,6.1,9.3,9.7
					c2.1,3.9,1.2,9.2,0.2,14.5c-0.1-1.8-0.2-3.5-0.6-5.2c-1.1-4-4.4-7-7-10.5c-4.2-5.5-6.8-12.1-11.8-15.9
					C870.6,404.4,866,403,861.5,401.7z"/>
			</g>
			<g id="SPLINE_259_">
				<path fill="#333333" d="M863.9,440.4c0.3,0.6,0.6,1.2,1.1,1.7c1.3,1.5,3.5,2,5.8,2.5s4.6,1.1,6.9,1c4-0.1,7.8-1.9,11.6-3.8
					c-2.2,0.6-4.3,1.1-6.5,1.3c-1,0.1-2.1,0-3.2-0.1c1.8-0.3,3.6-0.6,5-1.6c0.6-0.4,1.2-1,1.8-1.6c-1.5,0.7-3.1,1.4-4.7,1.8
					c-1.5,0.4-3,0.7-4.5,0.8C872.7,442.7,868.3,441.6,863.9,440.4z"/>
			</g>
			<g id="SPLINE_258_">
				<path fill="#333333" d="M866.7,454.8c1.9,0.8,3.8,1.7,5.7,2.3c1.5,0.5,3.1,0.9,4.6,1.1c2.9,0.5,5.8,0.8,8.7,0.7
					c2.8-0.1,5.5-0.5,8.2-0.9c-1.8,0.5-3.6,0.9-5.5,1.4s-3.8,1.1-5.7,1.7c0.7,0,1.3,0,2,0.2c1.3,0.2,2.4,0.8,3.6,1.4
					c0.8,0.4,1.6,0.9,2.4,1.3c-1.2-0.5-2.4-1-3.7-1.2c-1.6-0.3-3.4-0.1-5.1,0.2c0.5,0.5,1.1,0.9,1.6,1.4c1,0.9,2,1.8,2.9,2.8
					s1.8,2,2.7,3c-0.9-0.7-1.9-1.4-2.8-2.1c-1.6-1.2-3.2-2.3-4.8-3.5c-2.6-1.8-5.3-3.5-7.9-5.2"/>
			</g>
			<g id="SPLINE_257_">
				<path fill="#333333" d="M866.7,454.8c1.4,1.2,2.8,2.3,4.3,3.2c0.9,0.5,1.8,0.9,2.7,1.3"/>
			</g>
			<g id="SPLINE_256_">
				<path fill="#333333" d="M892.1,454.3c-2.1,0.4-4.2,0.7-5.7-0.2c-1.4-0.8-2.4-2.6-3.9-3.4c-1.1-0.6-2.6-0.7-3.8-0.3
					c-1.3,0.4-2.4,1.2-3.6,1.9c-1,0.6-2.2,1-3.3,1.4c1.7-0.1,3.4-0.1,5.2-0.2c1.6,0,3.2-0.1,4.6,0.5c0.9,0.4,1.7,1,2.5,1.4
					c1.2,0.6,2.7,0.8,4,0.6C889.5,455.7,890.8,455,892.1,454.3z"/>
			</g>
			<g id="SPLINE_255_">
				<path fill="#333333" d="M881,448.2c2.1,0.6,4.3,1.2,6.3,2.3c1.1,0.6,2.1,1.4,3.3,1.5c0.6,0.1,1.2-0.1,1.9-0.2
					c0.7-0.3,1.4-0.7,2-1c-1,0.1-2.1,0.3-3,0.1c-0.9-0.2-1.7-0.7-2.5-1.1c-1.3-0.8-2.7-1.6-4.2-1.8C883.6,447.8,882.3,448,881,448.2
					z"/>
			</g>
			<g id="SPLINE_254_">
				<path fill="#333333" d="M879.2,425.2c-3.3,1.1-6.7,2.2-9.6,1.3c-2.8-0.9-5.2-3.6-8-4.7c-2.6-1-5.7-0.6-8.7-0.3
					c2.2-0.2,4.4-0.4,6.3,0.4c1.2,0.6,2.3,1.6,3.3,2.6c1.3,1.2,2.5,2.4,3.9,3.4c1.5,1.1,3.2,2.1,4.8,3c-0.8,0.9-1.5,1.9-2.5,2.6
					c-1.9,1.4-4.3,2-6.7,2.5c1.5-0.1,3.1-0.3,4.6-0.5c1.7-0.3,3.5-0.7,5-1.5c1.7-0.8,3.3-2,5-2.7c1.3-0.6,2.8-0.9,4.3-1.2
					c-0.6,0.1-1.2,0.1-1.7,0.2c-0.9,0.1-1.9,0.3-2.8,0.2c-0.8-0.1-1.5-0.4-2.3-0.8s-1.6-0.9-2.3-1.4c1-0.4,2.1-0.9,3.2-1.2
					c1.2-0.3,2.5-0.5,3.4-1.2C878.6,425.8,878.9,425.5,879.2,425.2z"/>
			</g>
			<g id="SPLINE_253_">
				<path fill="#333333" d="M382.9,303.2c-18.4,7.7-36.8,15.3-49.3,28.4c-13.8,14.4-20.5,35.2-27.3,56.1
					c2.6-12.1,5.2-24.2,10.4-35.5c6.4-13.9,16.8-26.7,29.6-34.8C357.3,310.5,370.1,306.8,382.9,303.2z"/>
			</g>
			<g id="SPLINE_252_">
				<path fill="#333333" d="M410.5,306.5c-14.8,2.2-29.5,4.4-42.6,10c-18.5,7.9-33.8,22.7-49.1,37.4c5.7-7.1,11.5-14.1,18.2-20.3
					c12.1-11.1,27.3-19.3,43.1-23.2C390.1,308.1,400.3,307.3,410.5,306.5z"/>
			</g>
			<g id="SPLINE_251_">
				<path fill="#333333" d="M464.3,249.2c-1.7,1.8-3.5,3.5-5.4,4.6c-5.7,3-13.2-0.3-20.5-2.1c-16.2-4.1-31.7-1.4-45,5.8
					c-8.1,4.3-15.3,10.3-21.3,17.4c-4.5,5.3-8.3,11.2-10.9,17.6c-4.5,11-5.1,23.3-5.8,35.6c-1.3-8.9-2.5-17.8-1.4-26.6
					c1.3-10.1,5.9-20.2,12.8-27.8c2.3-2.5,4.9-4.8,7.5-7.1c-7.6,4-15.2,7.9-20,14.3c-5.9,7.8-7.7,19.2-6.4,29.4
					c1,7.8,3.9,14.8,6.8,21.8c-3.3-6.1-6.7-12.2-8.3-18.9c-2.8-11.4-0.7-24.5,5.4-34.5c8.6-14,25.3-21.6,41.6-26.5
					c14-4.2,27.7-6.4,41.8-7c5.8-0.2,11.7-0.2,17.4,0.9C456.5,246.7,460.4,248,464.3,249.2z"/>
			</g>
			<g id="SPLINE_250_">
				<path fill="#333333" d="M413.8,271.5c-6.6,2-13.3,4.1-19.9,6.2c-14.9,4.7-29.7,9.9-42.9,18.5c-10,6.5-19,15-25.1,25.1
					c-5.6,9.3-8.7,19.9-11.8,30.6c2.5-11.7,5-23.5,10.4-33.9c6.6-12.7,17.6-23.3,30-31.2c9.8-6.2,20.6-10.6,31.7-12.8
					C395.3,272.2,404.5,271.9,413.8,271.5z"/>
			</g>
			<g id="SPLINE_249_">
				<path fill="#333333" d="M407.7,273.4c0.8,0.3,1.7,0.6,2.2,1.2c0.7,0.9,0.7,2.3,0.4,3.5c-0.9,2.7-4.1,3.5-7,4.3
					c-4.7,1.3-8.6,2.5-12.4,4.4c-6.4,3.1-12.6,7.7-17.9,12.8c-6.5,6.3-11.8,13.4-17.1,20.6c4.8-9.3,9.5-18.6,16.8-25.9
					c2.5-2.5,5.3-4.8,8.3-6.8c0.8-0.6,1.6-1.1,2.5-1.6c-3.9,2.1-7.8,4.3-11.7,6.5c-8.1,4.7-16.1,10-22.3,16.9
					c-2.4,2.7-4.6,5.7-6.8,8.6c7.4-8.9,14.7-17.7,23.8-24.4c5.8-4.2,12.3-7.6,18.8-10.6c7-3.3,14.2-6.1,21.3-9"/>
			</g>
			<g id="SPLINE_248_">
				<path fill="#333333" d="M338,316.9c6.7-14.2,13.3-28.4,21.4-38.5c8.2-10.3,17.9-16.4,41.6-16.3c16.9,0,41.1,3.3,31.8,3.9
					c-0.6,0-1.3,0.1-1.9,0.1c-8.3-0.8-16.5-1.7-24.9-1.2c-16.9,1-34.4,7.5-46.4,18.9C350.1,292.9,344,304.9,338,316.9z"/>
			</g>
			<g id="SPLINE_247_">
				<path fill="#333333" d="M471.7,239c-1,0.5-2.1,1.1-3.1,1.3c-4.7,1-8.7-5-12.2-9.8s-6.6-8.3-10.3-11.9c-3.7-3.7-8.1-7.5-13.1-9.5
					c-4.2-1.7-9-2.2-13.6-2.1c-4,0.1-8,0.6-11.6,2.2c-4.4,1.9-8.3,5.2-10.6,9.4c-2.1,3.8-2.9,8.4-2.6,12.8c0.3,4.7,1.8,9.3,4,13.5
					c2.3,4.5,5.4,8.6,8.5,12.6c-5.7-2.6-11.4-5.2-14.5-9.8c-3-4.4-3.6-10.5-3.1-16.4c0.7-7.5,3.3-14.7,8.2-19.6
					c5.3-5.3,13.3-8,21.1-8.7c10.4-0.8,20.6,2,29.2,7.3c4.9,3,9.2,6.9,12.8,11.3C465.2,226.9,468.4,232.9,471.7,239z"/>
			</g>
			<g id="SPLINE_246_">
				<path fill="#333333" d="M453.4,231.5c-7.3-0.6-14.6-1.1-21.5,0.4c-6.4,1.5-12.4,4.8-17.6,9.2c-5.6,4.8-10.2,10.8-12.1,17.6
					c-0.9,3.2-1.2,6.6-1.5,10c3.9-9.1,7.9-18.2,15.1-24.2c6.1-5,14.6-7.8,22.6-7.8c3.9,0,7.7,0.7,11.5,1.6
					c5.9,1.5,11.7,3.5,17.5,5.6c2.7-1.4,5.4-2.9,5.9-4.3c0.9-2.8-7.4-5.4-13.1-6.8C457.6,232.3,455.5,231.9,453.4,231.5z"/>
			</g>
			<g id="SPLINE_245_">
				<path fill="#333333" d="M543,181.5c-18.6-1.8-37.2-3.6-55.5,1.3c-13,3.5-25.8,10.3-33.8,20.2c-9.7,12-12.3,28.6-14.9,45.2
					c-0.6-8.3-1.2-16.6,0.2-24.8c3.2-17.4,15.9-34.1,31.9-42.3c13.9-7.1,30.3-7.9,45.6-5.7C525.6,176.8,534.3,179.1,543,181.5z"/>
			</g>
			<g id="SPLINE_244_">
				<path fill="#333333" d="M547.7,160.8c-13.7-1.5-27.4-3-42.5-3.7c-12-0.6-24.8-0.6-33.7,3.3c-24,10.6-18.6,50.6-13.2,90.6
					c-4.3-20.5-8.7-41-6.8-63.3c0.6-7.3,1.8-14.7,5.4-20c7.9-11.7,27.4-12.8,44.4-12.2C518.4,156.1,533.1,158.4,547.7,160.8z"/>
			</g>
			<g id="SPLINE_243_">
				<path fill="#333333" d="M474.4,230.3c-2.9-7.5-5.8-15-8-23.8c-2.8-11.5-4.3-25.2,2.7-32.6c3.7-3.9,9.8-6,15.7-7.1
					c6-1.1,11.8-1.2,17.7-0.8c8.7,0.6,17.5,2.2,26.2,3.8c-10.5-0.8-21.1-1.6-32.9-0.9c-8.2,0.5-17.1,1.6-22.3,5.3
					c-6.6,4.6-7.3,13.1-5.4,28.4C469.9,217.6,474.3,239.3,474.4,230.3c0-0.2,0-0.4,0-0.6"/>
			</g>
			<g id="SPLINE_242_">
				<path fill="#333333" d="M795.7,629.6c-1.7-3.6-3.3-7.2-5.8-10.4c-2.3-2.9-5.3-5.4-8.6-6.9c-3.8-1.7-8.1-2-12.4-2.7
					c-3.7-0.6-7.4-1.4-11-1.3c-6.1,0.3-11.8,3.6-17.6,6.1c-6.8,3-13.7,5.1-20.8,6.9c-6.3,1.7-12.7,3.2-19,4.9
					c-3.8,1-7.5,2.1-11.3,3.1c-3.3,0.9-6.7,1.7-10.1,2.5c-5.4,1.3-11,2.5-15.7,5.3c-1.7,1-3.2,2.3-4.8,3.5c0.4,1.1,0.7,2.2,0.6,3.2
					c-0.1,1.2-0.8,2.3-1.4,3.5c1.6-1,3.3-2.1,4.7-1.7c1.2,0.3,2.3,1.6,3.5,2.7c0.6,0.5,1.1,1,1.7,1.3c1.6,0.7,3.5,0.1,5.4-0.5
					l0.3,0.1c7.4-0.4,14.7-0.9,22-2c8.3-1.3,16.4-3.4,24.4-5.9c8.4-2.6,16.6-5.6,24.8-8.6c2.1-0.8,4.2-1.6,6.3-2.4
					c2.2-0.5,4.5-1.1,6.4-1.6c2-0.5,3.6-0.9,6.7-1.4c0.9-0.1,1.9-0.3,2,0s-0.7,0.9-1,1.6c-0.2,0.6,0,1.2,0.3,1.6
					c1.2,1.5,3.8-0.1,6.2-0.8c2.6-0.7,4.7-0.2,6.9-0.6c2.6-0.5,5.2-2.2,7.8-2.7c1.4-0.2,2.8-0.1,4.4,0.8
					C792.4,628.6,794.7,631.1,795.7,629.6c0.1-0.1,0.2-0.3,0.2-0.4"/>
			</g>
			<g id="SPLINE_241_">
				<path fill="#333333" d="M528.9,649.3c-7.4-0.4-14.7-0.9-22-2c-8.3-1.3-16.4-3.4-24.4-5.9c-8.4-2.6-16.6-5.6-24.8-8.6
					c-2.1-0.8-4.2-1.6-6.3-2.4c-2.2-0.5-4.5-1.1-6.4-1.6c-2-0.5-3.6-0.9-6.7-1.4c-0.9-0.1-1.9-0.3-2,0s0.7,0.9,1,1.6
					c0.2,0.6,0,1.2-0.3,1.6c-1.2,1.5-3.8-0.1-6.2-0.8c-2.6-0.7-4.7-0.2-6.9-0.6c-2.6-0.5-5.2-2.2-7.8-2.7c-1.4-0.2-2.8-0.1-4.4,0.8
					c-2,1.2-4.4,3.7-5.3,2.2c-0.1-0.1-0.2-0.3-0.2-0.4c1.9-3.2,3.6-6.8,6-9.9c2.3-2.9,5.3-5.4,8.6-6.9c3.8-1.7,8.1-2,12.4-2.7
					c3.7-0.6,7.4-1.4,11-1.3c6.1,0.3,11.8,3.6,17.6,6.1c6.8,3,13.7,5.1,20.8,6.9c6.3,1.7,12.7,3.2,19,4.9c3.8,1,7.5,2.1,11.3,3.1
					c3.3,0.9,6.7,1.7,10.1,2.5c5.4,1.3,11,2.5,15.7,5.3c1.7,1,3.2,2.3,4.8,3.5c-0.4,1.1-0.7,2.2-0.6,3.2c0.1,1.2,0.8,2.3,1.4,3.5
					c-1.6-1-3.3-2.1-4.7-1.7c-1.2,0.3-2.3,1.6-3.5,2.7c-0.6,0.5-1.1,1-1.7,1.3c-1.6,0.7-3.5,0.1-5.4-0.5"/>
			</g>
		</g>
		<g id="SPLINE_240_">
			<path d="M628.4,727.3c0.4,0.6,0.8,1.1,1.4,1.6c1.6,1.2,4.6,1.3,5.6,0c0.6-0.9,0.4-2.4,0-3.7c-0.7-2.3-2-3.9-3.2-5.7
				c-4.4-6.8-7.1-16.1-5.5-24.1c0.9-4.3,3-8.3,5.2-12.3c-1.3,1.4-2.6,2.9-3.7,4.4c-5.3,7.5-6.3,18.1-4.2,27.2
				C625,719.1,626.7,723.2,628.4,727.3z"/>
		</g>
		<g id="SPLINE_239_">
			<g>
				<path d="M538.3,790.4c-0.9,2.4-1.9,4.9-2.6,7.3c-0.8,2.4-1.3,4.9-1.6,7.4s-0.4,5-0.4,7.6s0,5.1,0.4,7.4c0.3,2.4,0.9,4.6,1.9,6.4
					c1,1.8,2.4,3.4,4,4.4c1.5,0.9,3.4,1.4,5.7,1.5c2.2,0.2,4.6,0,7.4-0.1c1.4,0,2.8,0,4.3,0c1.5,0.1,3.1,0.3,4.5,0.6
					c3,0.7,5.7,1.8,8.3,3.1s5,2.8,7.2,4.3s4.3,3,6.6,4.7c2.2,1.7,4.4,3.6,6.4,5.8s3.5,4.3,4.9,5.6c0.7,0.7,1.3,1.1,1.8,1.3
					c0.6,0.3,1.3,0.5,2.2,0.6c1.7,0.3,3.8,0.1,5.8-0.3c4.2-0.8,8-2.8,11.3-5.7c3.4-2.9,6.5-6.9,9.9-10.9c1.7-2,3.5-4.1,5.6-6.1
					c2-2,4.3-3.9,7-5.6c2.7-1.7,5.7-2.7,8.4-3.4s5.3-1.2,7.6-1.8s4.2-1.3,5.6-2.4c1.5-1.1,2.7-2.7,3.5-4.5s1.1-4.2,1.4-6.8
					c0.3-2.6,0.6-4.9,0.4-7c-0.2-2.2-1-4.5-2-6.9c-1-2.5-1.8-4.8-2.9-7c-1.1-2.2-2.6-4.1-4.4-5.8c-1.8-1.8-3.9-3.4-5.9-5l0,0
					c-0.1-0.1-0.2-0.3-0.1-0.4c0.1-0.1,0.3-0.1,0.4-0.1c2.2,1.4,4.4,2.8,6.5,4.4c2.1,1.6,3.9,3.6,5.3,5.8c1.4,2.2,2.5,4.6,3.6,7
					c1.1,2.3,2.2,4.8,2.7,7.4c0.5,2.6,0.3,5.3,0.1,7.9c-0.2,2.6-0.4,5.2-1.2,7.8c-0.9,2.5-2.4,4.8-4.5,6.6c-2.1,1.7-4.6,2.8-7.1,3.5
					c-5,1.5-10.2,2.3-14.5,5.1s-7.7,6.8-11,10.8s-6.5,8.2-10.4,11.7s-8.7,6.1-14,7.2c-2.6,0.5-5.3,0.7-8,0.3
					c-1.3-0.2-2.7-0.6-3.9-1.2c-1.2-0.6-2.3-1.5-3.3-2.4c-1.9-1.9-3.4-4-5.1-5.9c-1.7-1.9-3.6-3.6-5.7-5.2c-2-1.6-4.1-3.1-6.2-4.7
					c-2.1-1.5-4.3-2.9-6.5-4.1c-2.3-1.2-4.7-2.2-7.1-2.8c-2.5-0.7-5-0.8-7.6-0.9c-2.6,0-5.2,0-7.8-0.3s-5.3-1-7.5-2.6
					s-3.8-3.8-4.9-6.2c-1.1-2.4-1.6-5.1-1.7-7.7c-0.2-2.6,0-5.2,0.2-7.8s0.5-5.2,1-7.8s1.3-5.1,2.3-7.5s2.2-4.7,3.3-7.1
					c0.1-0.1,0.3-0.2,0.4-0.1C538.3,790,538.4,790.2,538.3,790.4L538.3,790.4z"/>
			</g>
			<path fill="none" d="M650.6,779c0.7,2.3,1.3,4.5,2.2,6.7c1.8,4.5,4.4,8.6,7.7,12.2c2.2,2.4,4.6,4.7,6.1,7.5c2,3.9,2.3,9,0.8,13.2
				c-0.3,0.9-0.7,1.7-1.1,2.5"/>
		</g>
		<g id="SPLINE_238_">
			<path d="M696.4,778.7c-10.4-8.7-23-14.6-36.4-17c23.4,0.9,45.8,10,63.2,25.7c-4.9-2.6-9.8-5.2-14.6-8.1c-4-2.5-8-5.1-12.3-7
				c-2.1-0.9-4.2-1.7-6.3-2.4c1,0.8,2,1.7,2.8,2.6C694.4,774.3,695.4,776.5,696.4,778.7z"/>
		</g>
		<g>
			<g id="SPLINE_237_">
				<path d="M683.8,640.4c-2.7-0.1-5.4-0.2-8.1,0.1c-1,0.1-2,0.3-3,0.4c-0.9-0.2-1.9-0.3-2.8-0.1c-1.2,0.3-2.2,1.2-3.4,1.4
					c-1,0.2-2-0.2-3.1-0.5c1.4-0.4,2.8-0.7,4.2-1.4c1.6-0.8,3.1-2.2,4.8-2.6c2.1-0.5,4.6,0.6,6.9,0.7c2,0.1,3.9-0.5,5.8-1.2
					c-1.3-0.3-2.7-0.6-4-0.8c-1.4-0.3-2.9-0.5-4.3-0.5c-0.9,0-1.8,0-2.8,0.1c2.2-0.4,4.5-0.8,6.8-1c3.5-0.3,7-0.2,10.5-0.1
					c-1.3-0.4-2.7-0.8-4.1-1.1c-1.6-0.3-3.3-0.4-5-0.4c3.6-1.1,7.1-2.2,10.8-2.3c2.2,0,4.5,0.3,6.7,0.6c-1-0.6-2-1.2-3.2-1.5
					c-1.1-0.3-2.3-0.4-3.5-0.5c2.3-0.3,4.6-0.6,6.9-0.3c2.3,0.4,4.5,1.4,6.8,1.3c1.8-0.1,3.6-0.8,5.3-1.6c-0.7-0.5-1.5-1-2.3-1.4
					c-1.8-1-3.8-1.7-5.8-2.5c2.1,0.3,4.1,0.6,6.2,1c2.4,0.4,4.7,0.8,7.1,1c3,0.3,6,0.2,8.9,1c2.7,0.7,5.3,2.2,8,2.9
					c4.8,1.1,9.9-0.5,15.1-2.2c-2.5,2.4-5.1,4.7-8,6.3c-3.3,1.8-7.1,2.8-10.7,4c-3.6,1.3-7.1,2.9-10.9,3.2c-3.3,0.3-6.8-0.5-10,0.1
					c-3.3,0.6-6.3,2.7-9.6,3.7c-5.3,1.7-11.1,0.9-16.7,1c-2.1,0-4.2,0.1-6.2,0.3c0.5,0,0.9,0,1.4,0c2.3-0.2,4.4-1.5,6.5-2.7
					c-1.3,0.2-2.7,0.5-4,0.7c-2.4,0.5-4.9,1-7.4,0.7c-1.6-0.2-3.2-0.7-4.8-1.2c2.2-0.5,4.3-1,6.4-2c1.7-0.7,3.2-1.7,4.9-2.3
					C681.4,640.6,682.6,640.5,683.8,640.4z"/>
			</g>
			<g id="SPLINE_236_">
				<path d="M734.3,618.1c0.7,0.9,1.3,1.8,2.2,2.5c1.3,1,3.1,1.5,4.8,1.8c1.9,0.4,3.7,0.7,5.5,1c-1.7,0.3-3.4,0.6-5.2,0.7
					c-1.7,0-3.5-0.2-5.2-0.3c-2.6-0.2-5.1,0-7.7,0.2c4,0.9,8,1.7,12,1.7c3.4-0.1,6.8-0.8,10.2-1c3.1-0.2,6.1,0.1,9.2,0.5
					c3.9,0.5,7.7,1.2,11.5,1.8c-5.7-2.1-11.4-4.2-17.4-4.8c-2.9-0.3-5.8-0.2-8.7-0.7c-3.1-0.5-6.2-1.5-9.2-2.5
					c-1.3-0.4-1.3-0.6-1.9-0.7C734.4,618.2,734.3,618.1,734.3,618.1z"/>
			</g>
			<g id="SPLINE_235_">
				<path d="M772,633.6c-4.7-0.3-9.5-0.5-14.2-0.2c-3,0.3-6,0.8-9,1.3c2.6-0.9,5.2-1.9,7.9-2.1c3.2-0.3,6.5,0.4,9.8,0.7
					C768.3,633.5,770.1,633.6,772,633.6z"/>
			</g>
			<g id="SPLINE_234_">
				<path d="M787.1,622.4c-1.3-0.8-2.7-1.6-4.1-2.3c-3.5-1.7-7.5-2.7-11.4-3.2c-3.6-0.4-7.2-0.4-10.8-0.4c-4.1-0.1-8.3-0.3-12.4-0.5
					c3,0.8,6,1.6,9.1,2.1c2.6,0.4,5.2,0.6,7.8,0.8c2.9,0.3,5.8,0.7,8.6,1.2C778.3,620.8,782.7,621.6,787.1,622.4z"/>
			</g>
			<g id="SPLINE_231_">
				<path d="M792.5,623.1c-1.4-2.1-2.7-4.2-4.4-6c-3.9-4.1-9.6-6.9-15.2-6.9c-2.9,0-5.8,0.8-8.6,0.4c-2.3-0.3-4.6-1.3-6.9-2.3
					c1.1,1.1,2.3,2.1,3.6,2.8c1.7,0.9,3.6,1.2,5.5,1.5c-1.8,0.1-3.7,0.2-5.5,0.1c-2.3-0.1-4.5-0.6-6.8-1.1c1.3,0.8,2.7,1.6,4.1,2.1
					c4,1.4,8.6,0.4,13,0.7c3.8,0.3,7.4,1.6,10.9,3.1c2.2,0.9,4.4,2,6.5,3.2C790,621.5,791.2,622.3,792.5,623.1z"/>
			</g>
			<g id="SPLINE_230_">
				<path d="M518.4,640.4c2.7-0.1,5.4-0.2,8.1,0.1c1,0.1,2,0.3,3,0.4c0.9-0.2,1.9-0.3,2.8-0.1c1.2,0.3,2.2,1.2,3.4,1.4
					c1,0.2,2-0.2,3.1-0.5c-1.4-0.4-2.8-0.7-4.2-1.4c-1.6-0.8-3.1-2.2-4.8-2.6c-2.1-0.5-4.6,0.6-6.9,0.7c-2,0.1-3.9-0.5-5.8-1.2
					c1.3-0.3,2.7-0.6,4-0.8c1.4-0.3,2.9-0.5,4.3-0.5c0.9,0,1.8,0,2.8,0.1c-2.2-0.4-4.5-0.8-6.8-1c-3.5-0.3-7-0.2-10.5-0.1
					c1.3-0.4,2.7-0.8,4.1-1.1c1.6-0.3,3.3-0.4,5-0.4c-3.6-1.1-7.1-2.2-10.8-2.3c-2.2,0-4.5,0.3-6.7,0.6c1-0.6,2-1.2,3.2-1.5
					c1.1-0.3,2.3-0.4,3.5-0.5c-2.3-0.3-4.6-0.6-6.9-0.3c-2.3,0.4-4.5,1.4-6.8,1.3c-1.8-0.1-3.6-0.8-5.3-1.6c0.7-0.5,1.5-1,2.3-1.4
					c1.8-1,3.8-1.7,5.8-2.5c-2.1,0.3-4.1,0.6-6.2,1c-2.4,0.4-4.7,0.8-7.1,1c-3,0.3-6,0.2-8.9,1c-2.7,0.7-5.3,2.2-8,2.9
					c-4.8,1.1-9.9-0.5-15.1-2.2c2.5,2.4,5.1,4.7,8,6.3c3.3,1.8,7.1,2.8,10.7,4c3.6,1.3,7.1,2.9,10.9,3.2c3.3,0.3,6.8-0.5,10,0.1
					c3.3,0.6,6.3,2.7,9.6,3.7c5.3,1.7,11.1,0.9,16.7,1c2.1,0,4.2,0.1,6.2,0.3c-0.5,0-0.9,0-1.4,0c-2.3-0.2-4.4-1.5-6.5-2.7
					c1.3,0.2,2.7,0.5,4,0.7c2.4,0.5,4.9,1,7.4,0.7c1.6-0.2,3.2-0.7,4.8-1.2c-2.2-0.5-4.3-1-6.4-2c-1.7-0.7-3.2-1.7-4.9-2.3
					C520.8,640.6,519.6,640.5,518.4,640.4z"/>
			</g>
			<g id="SPLINE_223_">
				<path d="M467.9,618.1c-0.7,0.9-1.3,1.8-2.2,2.5c-1.3,1-3.1,1.5-4.8,1.8c-1.9,0.4-3.7,0.7-5.5,1c1.7,0.3,3.4,0.6,5.2,0.7
					c1.7,0,3.5-0.2,5.2-0.3c2.6-0.2,5.1,0,7.7,0.2c-4,0.9-8,1.7-12,1.7c-3.4-0.1-6.8-0.8-10.2-1c-3.1-0.2-6.1,0.1-9.2,0.5
					c-3.9,0.5-7.7,1.2-11.5,1.8c5.7-2.1,11.4-4.2,17.4-4.8c2.9-0.3,5.8-0.2,8.7-0.7c3.1-0.5,6.2-1.5,9.2-2.5
					C467.1,618.5,467.7,618.3,467.9,618.1C467.9,618.2,467.9,618.1,467.9,618.1z"/>
			</g>
			<g id="SPLINE_222_">
				<path d="M430.2,633.6c4.7-0.3,9.5-0.5,14.2-0.2c3,0.3,6,0.8,9,1.3c-2.6-0.9-5.2-1.9-7.9-2.1c-3.2-0.3-6.5,0.4-9.8,0.7
					C433.9,633.5,432.1,633.6,430.2,633.6z"/>
			</g>
			<g id="SPLINE_111_">
				<path d="M415.1,622.4c1.3-0.8,2.7-1.6,4.1-2.3c3.5-1.7,7.5-2.7,11.4-3.2c3.6-0.4,7.2-0.4,10.8-0.4c4.1-0.1,8.3-0.3,12.4-0.5
					c-3,0.8-6,1.6-9.1,2.1c-2.6,0.4-5.2,0.6-7.8,0.8c-2.9,0.3-5.8,0.7-8.6,1.2C423.8,620.8,419.5,621.6,415.1,622.4z"/>
			</g>
			<g id="SPLINE_110_">
				<path d="M409.7,623.1c1.4-2.1,2.7-4.2,4.4-6c3.9-4.1,9.6-6.9,15.2-6.9c2.9,0,5.8,0.8,8.6,0.4c2.3-0.3,4.6-1.3,6.9-2.3
					c-1.1,1.1-2.3,2.1-3.6,2.8c-1.7,0.9-3.6,1.2-5.5,1.5c1.8,0.1,3.7,0.2,5.5,0.1c2.3-0.1,4.5-0.6,6.8-1.1c-1.3,0.8-2.7,1.6-4.1,2.1
					c-4,1.4-8.6,0.4-13,0.7c-3.8,0.3-7.4,1.6-10.9,3.1c-2.2,0.9-4.4,2-6.5,3.2C412.2,621.5,411,622.3,409.7,623.1z"/>
			</g>
		</g>
	</g>
	<g>
		<path d="M667,819.7c0.1-0.3,0.3-0.7,0.4-1c-0.3,0.8-0.7,1.6-1.1,2.4C666.6,820.7,666.8,820.2,667,819.7z"/>
		<path d="M667.4,818.7c0.6-1.6,0.9-3.4,1-5.2C668.2,815.3,667.9,817,667.4,818.7L667.4,818.7z"/>
		<path d="M668.5,804c-0.5-3-1.8-5.9-3.2-8.8c-1.4-2.9-2.7-5.8-4.6-8.2c-2.6-3.3-6.3-5.6-10-8c0.7,2.3,1.3,4.5,2.2,6.7
			c1.8,4.5,4.4,8.6,7.7,12.2c2.2,2.4,4.6,4.7,6.1,7.5c1.2,2.4,1.8,5.2,1.7,8c0.1-0.7,0.1-1.4,0.2-2.1
			C668.7,808.9,668.9,806.4,668.5,804z"/>
	</g>
	<path fill="none" d="M704.3,662.3"/>
	<path d="M501.8,681.9c-0.8,2.1-2,4-3.5,5.7c-0.7,0.8-2.8,2.7-5.1,4.7c-2.2,0.5-4.4,0.9-6.7,1.1c-3.9,0.4-7.8,0.4-11.7-0.1
		c-3.1-1.7-5.8-3.4-6.8-4.2c-1.4-1.1-2.7-2.5-3.6-4.1c-1.1-2-1.7-4.3-2-6.6c-0.3-2.6-0.4-5.2,0.1-7.7c0.2-0.9,1.3-3.2,2.9-6.5
		c3.7-1.4,7.5-2.5,11.4-3c3.5-0.4,7-0.2,10.6,0c4.2,0.3,8.5,0.6,12.5,1.6c1.4,2.1,1.8,3.7,2.2,4.3c1.1,2,1.4,4.5,1.3,6.9
		C503.3,676.7,502.8,679.4,501.8,681.9z M726.2,693.4c2.8-1.2,5.7-2.4,8-4.4c1.4-1.1,2.7-2.5,3.6-4.1c1.1-2,1.7-4.3,2-6.6
		c0.3-2.6,0.4-5.2-0.1-7.7c-0.5-2.2-1.4-4.3-2.4-6.4c-3.9-1.5-7.8-2.7-11.8-3.1c-3.5-0.4-7-0.2-10.6,0c-3.5,0.2-7.1,0.5-10.5,1.2
		c-1.6,1.5-3.2,3-4.2,4.8c-1.1,2-1.4,4.5-1.3,6.9c0,2.8,0.5,5.5,1.5,8c0.8,2.1,2,4,3.5,5.7c1.5,1.8,3.4,3.2,5.2,4.7
		c2.2,0.5,4.4,0.8,6.7,1.1C719.2,693.7,722.7,693.7,726.2,693.4z"/>
</g>
</svg>
