<?xml version="1.0" encoding="utf-8"?>
<!-- Generator: Adobe Illustrator 23.0.0, SVG Export Plug-In . SVG Version: 6.00 Build 0)  -->
<svg version="1.0" id="Layer_1" xmlns="http://www.w3.org/2000/svg" xmlns:xlink="http://www.w3.org/1999/xlink" x="0px" y="0px"
	 width="40px" height="40px" viewBox="0 0 40 40" enable-background="new 0 0 40 40" xml:space="preserve">
<path id="boxy_40" fill="#FFC71A" d="M12,0h16c6.6,0,12,5.4,12,12v16c0,6.6-5.4,12-12,12H12C5.4,40,0,34.6,0,28V12C0,5.4,5.4,0,12,0
	z"/>
<g>
	<path id="designs_shape_1_" fill="#030303" d="M26.3,11.5c0.2,0,0.5,0.1,0.8,0.3c0.7,0.5,1.3,1.2,1.8,1.9c0.5,0.6,0.6,1.6,0.2,2.2
		C26,20.7,24,23.2,18.5,27.7c-1.4-1.7-2-2.5-3.1-4c5.1-4.2,7-6.8,10.1-11.6C25.7,11.7,26,11.5,26.3,11.5 M14.5,22.5
		c-0.1,0.1-0.2,0.2-0.3,0.3C14.1,23,14.1,23,14,23.2c-1,1.9-1.6,2.9-3,4.6c-0.7,0.9-1,1.3-1.8,2c1.3,0.2,2,0.2,3.3,0.2
		c2.6,0,3.8-0.3,6.2-0.7c0.2,0,0.3,0,0.5-0.1s0.2-0.2,0.4-0.3c5.6-4.6,7.6-7,10.8-11.9c0.7-1.1,0.5-2.9-0.5-4.1
		c-0.7-0.9-1.4-1.7-2.3-2.3c-0.5-0.3-1-0.5-1.4-0.5c-0.6,0.1-1.1,0.4-1.7,1C21.4,15.7,19.5,18.4,14.5,22.5z"/>
</g>
</svg>
