<?xml version="1.0" encoding="utf-8"?>
<!-- Generator: Adobe Illustrator 23.0.0, SVG Export Plug-In . SVG Version: 6.00 Build 0)  -->
<svg version="1.0" id="Layer_1" xmlns="http://www.w3.org/2000/svg" xmlns:xlink="http://www.w3.org/1999/xlink" x="0px" y="0px"
	 width="40px" height="40px" viewBox="0 0 40 40" enable-background="new 0 0 40 40" xml:space="preserve">
<path id="boxy_40" fill="#FFC71A" d="M12,0h16c6.6,0,12,5.4,12,12v16c0,6.6-5.4,12-12,12H12C5.4,40,0,34.6,0,28V12C0,5.4,5.4,0,12,0
	z"/>
<path fill="#030303" d="M19.7,20.8c-2.3-0.1-3.8-2.4-4-5.3c-0.3-2.8,1.4-5.5,4.2-5.6c2.8,0,4.5,2.3,4.3,5.3
	C23.9,18.5,22,20.8,19.7,20.8z M19.6,30c-7.1-1-6.9-2.7-6.8-3.9c0.1-1.1,1.8-2,3.4-3.1c2.6-1.8,7.6-0.1,10.6,2.9
	c0.2,0.2,0.6,1,0.5,1.4c-0.1,0.4-0.3,0.8-0.6,1C24.7,29.4,22.2,30.2,19.6,30L19.6,30z"/>
</svg>
