<?xml version="1.0" encoding="utf-8"?>
<!-- Generator: Adobe Illustrator 23.0.0, SVG Export Plug-In . SVG Version: 6.00 Build 0)  -->
<svg version="1.0" id="Layer_1" xmlns="http://www.w3.org/2000/svg" xmlns:xlink="http://www.w3.org/1999/xlink" x="0px" y="0px"
	 viewBox="0 0 40 40" enable-background="new 0 0 40 40" xml:space="preserve">
<path fill="#FFFFFF" d="M27.5,16.7c-3.1-1.8-4-2.6-6.7-5.1c-0.4-0.4-1-0.4-1.5,0c-0.2-0.8-0.4-1.5-0.7-2.2c0.7,0.1,1.8,0.1,1.8,0.1
	l0.1-0.9c0,0-0.5,0.1-0.7,0.2c-0.5,0.1-1.3,0-1.6-0.1h-0.1c-0.2,0-0.4-0.1-0.5-0.1c-0.1,0-0.1,0-0.1,0s0,0,0,0.1
	c0,0.1,0,0.2-0.1,0.4v0.1c-0.1,0.4-0.3,1.2-0.6,1.6c-0.1,0.2-0.5,0.6-0.5,0.6l0.9,0.4c0,0,0.5-1.2,0.7-1.8c0.4,0.8,0.7,1.7,0.7,2.6
	c0,0.5-0.1,0.9-0.2,1.3c0,0,0,0,0,0c-0.6,2.6-3,4.7-5.5,4.9c-1.4,0.1-2.7-0.3-3.7-1c-0.2,0-0.5,0.2-0.8,0.4c1,0.8,2.2,1.3,3.6,1.4
	c0.3,0.5,0.8,0.8,1.4,0.8c0.3,0,0.5,0,0.8,0s0.6,0.3,0.5,0.4c-0.3,3-0.7,4.6-1.3,7.9c5.3-0.4,8-0.4,13.3,0.2c-0.6-3.4-1.1-5-1.3-8
	c0-0.4,0.2-0.5,0.5-0.5c0.3,0,0.5,0,0.8,0c0.9,0,1.8-0.7,1.7-1.7c0-0.3,0-0.4,0-0.6C28.3,17.4,28,16.9,27.5,16.7z M26.6,19.4
	c-0.3,0-0.5,0-0.8,0c-0.9,0-1.6,0.7-1.5,1.6c0.2,2.3,0.4,3.5,0.8,6.1c-0.8-0.1-1.2-0.1-2-0.2c-0.3-2-0.3-2.9-0.5-4.6
	c-1,0-1.5-0.1-2.5-0.1c0,1.7,0,2.5,0,4.6c-2.1,0-3.1,0-5.3,0.2c0.4-2.6,0.7-3.8,0.8-6.1c0.1-0.8-0.4-1.3-1.1-1.5
	c2.7-0.8,5-3.6,5-6.4c0,0,0-0.1,0-0.1c0,0,0,0,0,0c0.1-0.1,0.3-0.1,0.3,0c2.7,2.3,3.5,3.1,6.7,4.9c0.3,0.2,0.7,0.7,0.7,1.1
	C27.2,19.3,26.9,19.4,26.6,19.4z M8.6,15c-0.2,0.5-0.4,1.3-0.5,1.7v0.1c0,0.1,0,0.2,0,0.3c0,0.1,0,0.2,0,0.2s-0.2-0.1-0.6-0.1
	s-1.2,0-1.8,0.1c-0.2,0-0.7,0.2-0.7,0.2v-1c0,0,1.4-0.1,2.1,0c-0.6-1-1-2.2-1-3.6c0-3.4,3.3-6.7,6.7-6.7c1.7,0,3.2,0.6,4.2,1.4
	c-0.3,0.2-0.5,0.3-0.7,0.5c-1-0.8-2.2-1.2-3.6-1C9.7,7.4,7,10.2,7,13.3c0,0.9,0.2,1.8,0.6,2.5C7.8,15,8.1,14,8.1,14L9,14.3
	C9,14.3,8.7,14.8,8.6,15z"/>
</svg>
