<?xml version="1.0" encoding="utf-8"?>
<!-- Generator: Adobe Illustrator 23.0.0, SVG Export Plug-In . SVG Version: 6.00 Build 0)  -->
<svg version="1.0" id="Layer_1" xmlns="http://www.w3.org/2000/svg" xmlns:xlink="http://www.w3.org/1999/xlink" x="0px" y="0px"
	 width="40px" height="40px" viewBox="0 0 40 40" enable-background="new 0 0 40 40" xml:space="preserve">
<path id="boxy_40" fill="#FFC71A" d="M12,0h16c6.6,0,12,5.4,12,12v16c0,6.6-5.4,12-12,12H12C5.4,40,0,34.6,0,28V12C0,5.4,5.4,0,12,0
	z"/>
<g>
	<g>
		<g>
			<g>
				<path id="products_shape_2_" fill="#030303" d="M30,15.5c-3.5-1.2-5.2-1.3-8.8-2.1c-0.7-0.2-1.8-0.2-2.7,0
					c-3.6,0.9-5.2,1-8.8,2.3c-0.8,0.3-1.3,1-1.1,1.7c0.7,3,1.2,4.3,1.6,7.1c0.1,0.6,0.5,1.1,1.3,1.4c3,0.9,4.2,1.4,7.4,2.8
					c0.6,0.3,1.7,0.3,2.4,0.1c3.1-1.2,4.3-1.7,7.4-2.5c0.8-0.3,1.2-0.8,1.2-1.4c0.2-2.9,0.9-4.2,1.5-7.5
					C31.3,16.4,30.8,15.8,30,15.5z M19.6,13.9c0.2-0.1,0.4-0.1,0.5,0c3.2,0.9,4.9,1.1,8,2.2c0.1,0,0.1,0.1,0.2,0.2
					c0.1,0.2,0,0.5-0.3,0.6l0,0c-0.8,0.3-1.2,0.6-2,0.8c-3.5-1.3-5.3-1.5-9.1-2.9C18,14.5,18.5,14.3,19.6,13.9z M19.3,27.1
					c0,0.1,0,0.1-0.1,0.2c-0.1,0.2-0.4,0.2-0.6,0.2c-2.8-1.1-3.9-1.7-6.8-2.6c-0.1-0.1-0.3-0.2-0.2-0.3c-0.1-2.5-0.7-3.7-1.2-6.4
					c0-0.1,0-0.1,0.1-0.2c0.1-0.2,0.5-0.3,0.8-0.2c3.6,1.2,5.1,1.8,7.9,2.8c0.1,0.1,0.2,0.2,0.2,0.3C19.3,23.4,19.4,24.6,19.3,27.1z
					 M19.7,19.9c-2.8-1.1-4.3-1.6-7.9-2.9c-0.1,0-0.2-0.1-0.3-0.2c-0.2-0.2,0-0.4,0.2-0.6l0,0c0.9-0.3,1.3-0.4,2.2-0.7
					c4,1.5,5.8,1.9,9.2,3.1c-1.2,0.4-1.8,0.7-2.9,1.1C20,20,19.9,20,19.7,19.9L19.7,19.9z M28.3,24.7c0,0.2-0.2,0.3-0.2,0.3
					c-2.9,0.9-4.1,1.3-6.9,2.5c-0.1,0-0.1,0.1-0.2,0.1c-0.2,0-0.4-0.2-0.4-0.3l0,0c0-2.5,0-3.7,0-6.2c0-0.2,0.1-0.2,0.2-0.3
					c1.1-0.5,1.7-0.6,2.8-1.1c0,1-0.1,1.5-0.2,2.6c1-0.4,1.6-0.6,2.8-1c0.1-1,0.3-1.6,0.4-2.7c0.8-0.2,1.2-0.4,2-0.7
					c0.1,0,0.2-0.1,0.3-0.1c0.3,0,0.5,0.2,0.4,0.4l0,0C28.9,20.9,28.4,22.1,28.3,24.7z M17,21.8C16.9,22,16.7,22,16.4,22
					c-1.1-0.4-1.7-0.6-2.8-1c-0.4-0.2-0.9-0.5-0.8-0.9s0.5-0.4,0.7-0.3s2.4,0.7,2.9,1C17,21.1,17.2,21.5,17,21.8z"/>
			</g>
		</g>
	</g>
</g>
</svg>
