<?xml version="1.0" encoding="utf-8"?>
<!-- Generator: Adobe Illustrator 23.0.0, SVG Export Plug-In . SVG Version: 6.00 Build 0)  -->
<svg version="1.0" id="Layer_1" xmlns="http://www.w3.org/2000/svg" xmlns:xlink="http://www.w3.org/1999/xlink" x="0px" y="0px"
	 viewBox="0 0 40 40" enable-background="new 0 0 40 40" xml:space="preserve">
<path id="boxy_40_5_" fill="#FFC71A" d="M12,0h16c6.6,0,12,5.4,12,12v16c0,6.6-5.4,12-12,12H12C5.4,40,0,34.6,0,28V12
	C0,5.4,5.4,0,12,0z"/>
<path id="property_shape_6_" fill="#030303" d="M27.5,16.7c-3.1-1.8-4-2.6-6.7-5.1c-0.4-0.4-1-0.4-1.5,0c-2.8,2.5-3.5,3.3-6.7,5.1
	C12,17,11.7,17.4,11.7,18c0,0.3,0,0.4,0,0.6c-0.1,1,0.8,1.7,1.7,1.7c0.3,0,0.5,0,0.8,0s0.6,0.3,0.5,0.4c-0.3,3-0.7,4.6-1.3,7.9
	c5.3-0.4,8-0.4,13.3,0.2c-0.6-3.4-1.1-5-1.3-8c0-0.4,0.2-0.5,0.5-0.5s0.5,0,0.8,0c0.9,0,1.8-0.7,1.7-1.7c0-0.3,0-0.4,0-0.6
	C28.3,17.4,28,16.9,27.5,16.7z M27.2,18.8c0,0.4-0.3,0.5-0.6,0.5c-0.3,0-0.5,0-0.8,0c-0.9,0-1.6,0.7-1.5,1.6
	c0.2,2.3,0.4,3.5,0.8,6.1c-0.8-0.1-1.2-0.1-2-0.2c-0.3-2-0.3-2.9-0.5-4.6c-1,0-1.5-0.1-2.5-0.1c0,1.7,0,2.5,0,4.6
	c-2.1,0-3.1,0-5.3,0.2c0.4-2.6,0.7-3.8,0.8-6.1c0.1-0.9-0.6-1.5-1.5-1.5c-0.3,0-0.5,0-0.8,0s-0.6-0.3-0.6-0.5s0-0.4,0-0.6
	s0.1-0.4,0.3-0.4c3.2-1.8,4-2.6,6.7-5c0.1-0.1,0.3-0.1,0.3,0c2.7,2.3,3.5,3.1,6.7,4.9C26.9,17.9,27.2,18.4,27.2,18.8z"/>
<path fill="#FFC71A" d="M12.8,18.7c-3.1,0.3-5.7-2.1-5.7-5.2s2.7-5.9,5.7-6.2c3.1-0.3,5.7,2.1,5.7,5.2
	C18.6,15.6,15.9,18.4,12.8,18.7z"/>
<path d="M12.8,6.2c-3.4,0-6.7,3.3-6.7,6.7c0,1.4,0.4,2.6,1,3.6c-0.7-0.1-2.1,0-2.1,0v1c0,0,0.5-0.2,0.7-0.2c0.6-0.1,1.4-0.1,1.8-0.1
	s0.6,0.1,0.6,0.1s0-0.1,0-0.2s0-0.2,0-0.3v-0.1c0.1-0.4,0.3-1.2,0.5-1.7C8.7,14.8,9,14.3,9,14.3L8.1,14c0,0-0.3,1-0.5,1.8
	C7.2,15.1,7,14.2,7,13.3c0-3.1,2.7-5.9,5.7-6.2c1.4-0.2,2.6,0.2,3.6,1c0.2-0.2,0.4-0.3,0.7-0.5C16,6.8,14.5,6.2,12.8,6.2z"/>
<path d="M20.5,8.6c0,0-0.5,0.1-0.7,0.2c-0.5,0.1-1.3,0-1.6-0.1h-0.1c-0.2,0-0.4-0.1-0.5-0.1s-0.1,0-0.1,0s0,0,0,0.1s0,0.2-0.1,0.4
	v0.1c-0.1,0.4-0.3,1.2-0.6,1.6c-0.1,0.2-0.5,0.6-0.5,0.6l0.9,0.4c0,0,0.5-1.2,0.7-1.8c0.4,0.8,0.7,1.7,0.7,2.6
	c0,3.1-2.7,5.9-5.7,6.2c-1.4,0.1-2.7-0.3-3.7-1c-0.2,0-0.5,0.2-0.8,0.4c1.2,1,2.7,1.5,4.4,1.5c3.4,0,6.7-3.3,6.7-6.7
	c0-1.3-0.4-2.6-0.9-3.6c0.7,0.1,1.8,0.1,1.8,0.1L20.5,8.6z"/>
</svg>
