<?xml version="1.0" encoding="utf-8"?>
<!-- Generator: Adobe Illustrator 23.0.0, SVG Export Plug-In . SVG Version: 6.00 Build 0)  -->
<svg version="1.0" id="Layer_1" xmlns="http://www.w3.org/2000/svg" xmlns:xlink="http://www.w3.org/1999/xlink" x="0px" y="0px"
	 viewBox="0 0 40 40" enable-background="new 0 0 40 40" xml:space="preserve">
<path id="boxy_40" fill="#FFC71A" d="M12,0h16c6.6,0,12,5.4,12,12v16c0,6.6-5.4,12-12,12H12C5.4,40,0,34.6,0,28V12C0,5.4,5.4,0,12,0
	z"/>
<path id="project_shape_1_" d="M32.3,15.5c0.1-0.6,0.1-0.9,0.2-1.5c-1.3-1.5-2.5-2.2-4.5-3.3c-3.3-0.3-5-0.4-8.5-0.4
	c0-0.2,0-0.3,0-0.5c-3.3,0-4.9-0.1-8-0.3c0,0.3-0.1,0.4-0.1,0.7c-0.4,0-0.6,0-0.9,0c-1.5,1-2.1,1.7-3,3.1c0.1,0.7,0.1,1,0.2,1.6
	c0.2,0,0.3-0.1,0.5-0.1c0,0.7,0,1,0.1,1.6c0.6-0.1,1-0.1,1.9-0.2c0-0.7,0-1,0.1-1.7c0.3,0,0.4,0,0.7-0.1c0,0.3,0,0.5,0,0.9
	c0.6,0,0.9-0.1,1.6-0.1c-0.3,5.6,0.5,9.9,1.6,14.1c-0.6,0-0.9,0-1.4-0.1c0.1,0.6,0.2,0.8,0.4,1.3c2.7,0,4-0.1,6.6-0.1
	c0-0.4,0-0.6,0-1.2c-0.6,0.1-0.9,0-1.5,0c-0.4-3.9-0.6-8.8-0.5-14.5c0.8,0,1.2,0,2,0c0-0.3,0-0.5,0-1c2.6,0.1,4,0,6.4,0.2
	c0,0.3,0,0.4,0,0.8c-0.1,0-0.2,0-0.3,0c-0.1,0-0.2,0.1-0.2,0.1v0.1c0.5,0.5,0.8,0.9,1.2,1.4c0.1,0.1,0.1,0.3,0.1,0.6
	c0,0.1,0,0.2-0.1,0.2c-1,0.1-1.7,1.3-1.5,2.5c0.1,0.6,0.3,1,0.6,1.2c-1.2,0.9-1.9,1.4-3.3,2.2c-0.2,0.2-0.5,0.5-0.5,0.8
	c0,0.1,0,0.2,0,0.3c0,0.5,0.4,0.9,0.9,0.9l0,0c0.2,0,0.3,0,0.4,0c0.2,0,0.3,0.1,0.3,0.3c-0.2,1.4-0.2,2.2-0.5,3.3
	c1.3,0,1.9-0.2,3-0.3c0.2-0.9,0.3-1.3,0.6-2.3c0.6-0.1,0.8-0.1,1.3-0.2c-0.2,1-0.3,1.5-0.6,2.4c0.6-0.1,0.8-0.1,1.4-0.1
	c0.4-1.2,0.5-1.8,0.8-3.2c0-0.2,0.1-0.3,0.3-0.3l0,0c0.1,0,0.2,0,0.3-0.1c0.4-0.1,0.7-0.6,0.7-0.9l0,0c0-0.1,0-0.2,0-0.3
	c0-0.3,0-0.5-0.2-0.7c-0.9-1-1.5-1.4-3-2.7c-0.3-0.2-0.6-0.2-0.8,0c-0.2,0.1-0.3,0.2-0.5,0.3c-0.1-0.1-0.2-0.2-0.3-0.4
	c-0.3-0.7,0-1.3,0.5-1.7c0.1,0,0.1-0.1,0.2-0.1c0.1-0.1,0.2-0.2,0.2-0.5s0-0.4,0-0.7c0-0.2,0.1-0.5,0.2-0.6c0.5-0.5,0.7-0.7,1.1-1.2
	c0.1-0.1,0.1-0.2,0-0.2l0,0h-0.1c-0.1,0-0.2,0-0.3,0c0-0.3,0-0.5,0-0.8C30.2,15,31.1,15.2,32.3,15.5z M11,13c-0.7,0-1.1,0.1-1.7,0.1
	c0.6-0.7,0.9-1,1.6-1.6c0.1,0,0.1,0,0.2,0C11.1,12.1,11.1,12.4,11,13z M16.6,29.6c-0.6,0-0.8-0.1-1.4-0.1c-0.3-1.3-0.4-2.1-0.7-3.8
	c0.5-1,0.7-1.5,1.3-2.6C16,26.2,16.2,27.6,16.6,29.6z M15.7,19.8c-0.7,1.1-1,1.7-1.5,2.7c-0.2-2.9-0.4-4.6-0.3-7.4c0.7,0,1,0,1.7,0
	C15.6,16.8,15.6,17.8,15.7,19.8z M18.1,13.9c-2.6,0-3.9,0-6.1,0.1c0.1-1.5,0.2-2.3,0.4-3.4c2.2,0,3.4-0.1,5.8-0.1
	C18.2,11.6,18.1,12.4,18.1,13.9z M19.4,12.8c0-0.6,0-0.8,0-1.4c1.1,0.6,1.6,0.8,2.8,1.4C21.1,12.8,20.6,12.7,19.4,12.8z M25.4,13
	c-1.1-0.7-1.7-1-2.8-1.6c2.1,0.1,3.1,0.2,5,0.4c1,0.6,1.6,1,2.5,1.8C28.5,13.3,27.5,13.2,25.4,13z"/>
</svg>
