<?xml version="1.0" encoding="utf-8"?>
<!-- Generator: Adobe Illustrator 23.0.0, SVG Export Plug-In . SVG Version: 6.00 Build 0)  -->
<svg version="1.0" id="Layer_1" xmlns="http://www.w3.org/2000/svg" xmlns:xlink="http://www.w3.org/1999/xlink" x="0px" y="0px"
	 width="40px" height="40px" viewBox="0 0 40 40" enable-background="new 0 0 40 40" xml:space="preserve">
<path id="crafts_shape_2_" fill="#FFFFFF" d="M25.8,11.7c1.2,0.1,1.8,0.9,1.5,1.7v-0.1c0.1,0,0.2,0,0.3,0c1,0.1,1.5,0.8,1.2,1.6
	c-0.2,0.4-0.2,0.6-0.4,1c-0.2,0.6-0.9,1-1.7,1.1c-2.8,0.4-4.1,0.6-6.5,1.2c-0.1,0-0.2,0.2-0.2,0.3c0,0.2,0,0.3,0,0.5
	c0.1,0,0.2,0,0.3,0c0.1,0,0.2,0,0.3,0.1c0.4,0.2,0.6,0.6,0.4,1s-0.3,0.6-0.4,1c-0.1,0.1-0.1,0.2-0.1,0.2c0,0.2,0,0.3,0,0.5
	c0.6,0,0.9,0,1.4,0s0.8,0.4,0.8,0.9s-0.4,0.9-0.9,0.9l0,0c0,0-0.1,0-0.1,0.1s0,0.1,0.1,0.1c0.3,0,0.4,0,0.6,0c0.5,0,0.8,0.4,0.8,0.9
	s-0.4,0.8-0.8,0.8c-0.2,0-0.3,0-0.4,0l0,0c0,0-0.1,0-0.1,0.1v0.1c0.4,0,0.8,0.4,0.8,0.9s-0.4,0.8-0.8,0.8c-0.1,0-0.2,0-0.3,0
	c0,0-0.1,0-0.1,0.1s0,0.1,0.1,0.1s0.3,0.1,0.3,0.2c0.3,0.3,0.2,0.8-0.1,0.9c-0.2,0.1-0.4,0.2-0.6,0.2c-0.8,0-1.1,0-1.9,0
	c-0.7,0-1.5-0.2-2-0.6c-0.7-0.4-1.4-0.7-2.2-0.9c-0.3-0.1-0.6-0.4-0.7-0.7c-0.1-1-0.2-1.5-0.5-2.4c-0.1-0.5,0.1-0.8,0.5-0.9
	c0.5-0.1,0.9-0.3,1.3-0.6c0.6-0.5,1.3-0.9,2.2-1.2c0.3,0,0.4-0.1,0.7-0.1c0,0,0-0.1-0.1-0.1c-0.2-0.4-0.3-0.6-0.5-1
	c0-0.1-0.1-0.2-0.1-0.3c0-0.4,0.3-0.7,0.7-0.8c0.2,0,0.3,0,0.5,0c0-0.2,0-0.3,0-0.5c0-0.6,0.4-1.2,1.1-1.3c2.5-0.6,3.8-0.9,6.7-1.2
	c0.1,0,0.3-0.2,0.3-0.3c0.1-0.4,0.2-0.6,0.3-1c0.1-0.2,0-0.3-0.3-0.3c-0.1,0-0.2,0-0.3,0v-0.1c-0.3,0.8-1.2,1.4-2.2,1.4
	c-4.3-0.3-6.3-0.2-10.6,0.1c-1,0.1-2-0.5-2.3-1.3l0,0c-0.1-0.3-0.2-0.5-0.3-0.9c-0.3-0.8,0.3-1.6,1.4-1.7l0,0
	C18.1,11.4,20.7,11.3,25.8,11.7 M26.2,10.4c-5.4-0.6-8.3-0.5-13.7,0.3C10.2,11,9,12.5,9.7,13.9c0.2,0.3,0.2,0.5,0.4,0.8
	c0.6,1.4,2.6,2.3,4.4,2.2c1.5-0.1,2.3-0.1,3.8-0.2c-0.3,0.4-0.5,0.8-0.6,1.2c-0.7,0.4-1.1,1.1-1,1.8c0,0.1,0,0.3,0,0.4
	c-0.8,0.3-1.5,0.7-2,1.2c-0.3,0.2-0.5,0.4-0.8,0.4C12.8,22,12.4,23,12.7,24s0.4,1.4,0.6,2.4c0.2,0.8,0.7,1.6,1.5,1.8
	c0.7,0.2,1.3,0.5,1.9,0.9c0.8,0.6,1.7,0.9,2.6,0.9c0.7,0,1.1,0,1.8,0c0.4,0,0.9-0.2,1.2-0.5l0,0l0,0c0.3-0.3,0.6-0.7,0.6-1.3
	c0-0.1,0-0.2,0-0.2c0.4-0.4,0.7-0.9,0.7-1.6c0-0.1,0-0.3,0-0.4c0.7-0.8,0.9-2.2,0.2-3l0,0c0-0.1,0-0.2,0-0.3c0.1-1.1-0.6-2-1.7-2.1
	c0.2-0.5,0.3-1,0.1-1.5c1.7-0.4,2.6-0.6,4.5-0.9l0,0l0,0c1.3-0.2,2.7-1.1,3.2-2.1c0.2-0.4,0.2-0.6,0.4-0.9c0.5-1,0-2.1-1.4-2.8
	C29,11.4,27.9,10.6,26.2,10.4L26.2,10.4z"/>
</svg>
