<?xml version="1.0" encoding="utf-8"?>
<!-- Generator: Adobe Illustrator 23.0.0, SVG Export Plug-In . SVG Version: 6.00 Build 0)  -->
<svg version="1.0" id="Layer_1" xmlns="http://www.w3.org/2000/svg" xmlns:xlink="http://www.w3.org/1999/xlink" x="0px" y="0px"
	 width="50px" height="50px" viewBox="0 0 50 50" enable-background="new 0 0 50 50" xml:space="preserve">
<path id="shadow" opacity="0.75" d="M38.1,21.9c-0.3-0.3-0.6-0.4-1-0.4H37h-0.5l-5.1,0.3c0.5-0.5,0.9-1.1,1.3-1.7
	c1.6-2.5,2.4-5.2,2.4-7.8c0-2.8-0.9-5.6-2.7-7.7C30.6,2.3,27.8,1,25,1s-5.6,1.3-7.5,3.6c-1.7,2.1-2.7,4.8-2.7,7.7
	c0,2.6,0.9,5.4,2.4,7.8c0.4,0.6,0.8,1.2,1.3,1.7l-5.1-0.3h-0.5h-0.1c-0.4,0-0.7,0.1-1,0.4s-0.5,0.7-0.5,1.1v0.5v2.3v0.5
	c0,0.4,0.2,0.8,0.5,1.1c0.3,0.3,0.6,0.4,1,0.4h0.1h0.5l8.1-0.5l-2,19v0.4c-0.1,0.7,0.3,1.3,0.9,1.5l0.4,0.1c0.8,0.3,2.3,0.7,4.2,0.7
	c1.9,0,3.4-0.5,4.2-0.7l0.4-0.1c0.6-0.2,1-0.8,0.9-1.5v-0.4l-2-19l8.1,0.5h0.5h0.1c0.4,0,0.7-0.1,1-0.4s0.5-0.7,0.5-1.1v-0.5v-2.3
	V23C38.6,22.6,38.4,22.2,38.1,21.9z M25,20.9c-2.1-1.4-4.2-4.5-4.2-7.5S22.7,8,25,8c2,0,3.7,1.7,4.1,4.1c0,0.3,0.1,2.1,0,2.5
	C28.7,17,27,19.6,25,20.9z"/>
<linearGradient id="body_1_" gradientUnits="userSpaceOnUse" x1="25" y1="49.9158" x2="25" y2="0.8244" gradientTransform="matrix(1 0 0 -1 0 50)">
	<stop  offset="0" style="stop-color:#FBBE0A"/>
	<stop  offset="2.936651e-02" style="stop-color:#C79708"/>
	<stop  offset="6.324724e-02" style="stop-color:#936F06"/>
	<stop  offset="9.770414e-02" style="stop-color:#664D04"/>
	<stop  offset="0.132" style="stop-color:#413103"/>
	<stop  offset="0.1662" style="stop-color:#251C01"/>
	<stop  offset="0.2002" style="stop-color:#100C01"/>
	<stop  offset="0.2339" style="stop-color:#040300"/>
	<stop  offset="0.2671" style="stop-color:#000000"/>
	<stop  offset="0.3342" style="stop-color:#000000"/>
	<stop  offset="0.742" style="stop-color:#000000"/>
	<stop  offset="0.8204" style="stop-color:#020200"/>
	<stop  offset="0.853" style="stop-color:#090700"/>
	<stop  offset="0.8771" style="stop-color:#151001"/>
	<stop  offset="0.897" style="stop-color:#271E02"/>
	<stop  offset="0.9143" style="stop-color:#3E2F02"/>
	<stop  offset="0.9298" style="stop-color:#5A4404"/>
	<stop  offset="0.944" style="stop-color:#7C5E05"/>
	<stop  offset="0.9571" style="stop-color:#A37C07"/>
	<stop  offset="0.969" style="stop-color:#CE9C08"/>
	<stop  offset="0.9795" style="stop-color:#FBBE0A"/>
</linearGradient>
<path id="body" fill="url(#body_1_)" d="M25,47.2c-1.6,0-3-0.4-3.7-0.7L21,46.4V46l2.1-20.3c0-0.1,0-0.2-0.1-0.2
	c-0.1-0.1-0.1-0.1-0.2-0.1l0,0l-9.4,0.5h-0.5v-0.5v-2.3v-0.5h0.5l8.2,0.5l0,0c0.1,0,0.2-0.1,0.3-0.2c0-0.1,0-0.2-0.1-0.3
	c-1.2-0.9-2.4-2.2-3.3-3.6c-1.4-2.2-2.2-4.7-2.2-7c0-2.5,0.8-4.9,2.3-6.7c1.6-2,4-3.1,6.4-3.1s4.7,1.1,6.4,3.1
	c1.5,1.8,2.3,4.2,2.3,6.7c0,2.3-0.8,4.8-2.2,7c-0.9,1.4-2.1,2.7-3.3,3.6c-0.1,0.1-0.1,0.2-0.1,0.3c0,0.1,0.1,0.2,0.3,0.2l0,0
	l8.2-0.5h0.5v0.5v2.3v0.5h-0.5l-9.4-0.5l0,0c-0.1,0-0.1,0-0.2,0.1s-0.1,0.1-0.1,0.2L29,46v0.4l-0.4,0.1C28,46.8,26.6,47.2,25,47.2z
	 M25,6.2c-3.1,0-5.7,3.1-5.7,6.8c0,3.9,2.9,7.7,5.6,9.1H25h0.1c2.6-1.3,4.9-4.5,5.4-7.7c0.1-0.4,0-2.6,0-3C29.9,8.3,27.7,6.2,25,6.2
	z"/>
<linearGradient id="edges_1_" gradientUnits="userSpaceOnUse" x1="25.05" y1="2.4854" x2="25.05" y2="49.7279" gradientTransform="matrix(1 0 0 -1 0 50)">
	<stop  offset="0" style="stop-color:#4C3A03"/>
	<stop  offset="0.2927" style="stop-color:#000000"/>
	<stop  offset="0.368" style="stop-color:#030200"/>
	<stop  offset="0.4155" style="stop-color:#0B0900"/>
	<stop  offset="0.4554" style="stop-color:#1A1401"/>
	<stop  offset="0.491" style="stop-color:#2F2402"/>
	<stop  offset="0.5235" style="stop-color:#493803"/>
	<stop  offset="0.5265" style="stop-color:#4C3A03"/>
	<stop  offset="0.7158" style="stop-color:#271E02"/>
	<stop  offset="0.8963" style="stop-color:#0B0800"/>
	<stop  offset="1" style="stop-color:#000000"/>
</linearGradient>
<path id="edges" fill="url(#edges_1_)" d="M25,2.5c-2.3,0-4.5,1.1-6,2.9c-1.4,1.7-2.2,4-2.2,6.4c0,2.2,0.8,4.6,2.1,6.8
	c0.9,1.4,2,2.6,3.2,3.5c0.3,0.2,0.4,0.6,0.3,0.9s-0.4,0.5-0.7,0.5l0,0L13.5,23v2.3l9.4-0.5l0,0c0.2,0,0.4,0.1,0.6,0.2
	c0.2,0.2,0.2,0.4,0.2,0.6l-2.1,20.3c0.7,0.2,2,0.6,3.5,0.6c1.6,0,2.8-0.4,3.5-0.6l-2.1-20.3c0-0.2,0.1-0.4,0.2-0.6s0.3-0.2,0.6-0.2
	l0,0l9.4,0.5V23l-8.2,0.5l0,0c-0.3,0-0.6-0.2-0.7-0.5s0-0.7,0.3-0.9c1.2-0.9,2.3-2.1,3.2-3.5c1.4-2.1,2.1-4.6,2.1-6.8
	c0-2.4-0.8-4.7-2.2-6.4C29.5,3.6,27.3,2.5,25,2.5 M25,22.6c-0.1,0-0.2,0-0.3-0.1c-2.8-1.4-5.8-5.4-5.8-9.5c0-4,2.8-7.3,6.2-7.3
	c2.9,0,5.4,2.3,6,5.7c0.1,0.4,0.1,2.7,0,3.2c-0.6,3.3-3,6.6-5.7,8C25.2,22.6,25.1,22.6,25,22.6 M25,1.6c2.6,0,5,1.2,6.7,3.3
	c1.6,1.9,2.4,4.4,2.4,7c0,2.4-0.8,5-2.3,7.3c-0.8,1.3-1.8,2.4-2.9,3.4l7.6-0.4c0,0,0,0,0.1,0c0.2,0,0.5,0.1,0.7,0.3
	c0.2,0.2,0.3,0.4,0.3,0.7v2.3c0,0.3-0.1,0.5-0.3,0.7s-0.4,0.3-0.7,0.3c0,0,0,0-0.1,0L27.3,26l2.2,20c0,0.4-0.2,0.9-0.6,1
	c-0.7,0.3-2.1,0.7-3.8,0.7c-1.7,0-3.1-0.4-3.8-0.7c-0.4-0.2-0.7-0.6-0.6-1l2.1-20.1l-9.2,0.5c0,0,0,0-0.1,0c-0.2,0-0.5-0.1-0.7-0.3
	c-0.2-0.2-0.3-0.4-0.3-0.7v-2.3c0-0.3,0.1-0.5,0.3-0.7s0.4-0.3,0.7-0.3c0,0,0,0,0.1,0l7.6,0.4c-1.1-0.9-2.1-2.1-2.9-3.4
	c-1.5-2.3-2.3-4.9-2.3-7.3c0-2.6,0.9-5.1,2.4-7C20,2.8,22.4,1.6,25,1.6z M25,21.6c2.4-1.2,4.6-4.3,5.1-7.3c0.1-0.4,0-2.5,0-2.8
	c-0.6-2.9-2.6-4.9-5.1-4.9c-2.9,0-5.2,2.9-5.2,6.4C19.8,16.6,22.5,20.3,25,21.6z"/>
</svg>
