<?xml version="1.0" encoding="utf-8"?>
<!-- Generator: Adobe Illustrator 23.0.0, SVG Export Plug-In . SVG Version: 6.00 Build 0)  -->
<svg version="1.0" id="follow_x5F_icon" xmlns="http://www.w3.org/2000/svg" xmlns:xlink="http://www.w3.org/1999/xlink" x="0px"
	 y="0px" viewBox="0 0 50 50" enable-background="new 0 0 50 50" xml:space="preserve">
<g id="front_x5F_flyer">
	<path id="shawod1_1_" opacity="0.25" enable-background="new    " d="M32.7,40c-2.3,1.1-8.8,3.6-11.1,4.7c-2.3,1.1-4.9-0.4-5.6-2.9
		c-3.4-11.4-6.5-26.1-6.5-29.4c0-1.5,0.6-2.6,2.3-3.1c1.7-0.5,12.1-2.7,13.5-2.9c1.4-0.3,2.7,1.2,3.1,2.7c1.4,5.9,3.8,14.1,7.5,25.6
		C36.6,36.4,35,38.9,32.7,40z"/>
	<path fill="#FFFFFF" d="M33.9,33.9c-0.7-2.5-4.1-15-7-26.2C26.6,6.2,25.4,4.8,24,5c-5.1,0.7-12.3,2.4-13.5,2.9
		c-1.2,0.5-2.2,1.7-2.2,3.5c0,5.1,4.9,26.2,6.2,29.4s3.4,3.8,5.6,3.1c4.4-1.5,6.7-2.7,11.1-4.4C33.3,38.4,34.6,36.4,33.9,33.9z
		 M30.6,38.6c-1.8,0.8-4-0.2-4.4-1.8c-0.4-1.6,0.8-3.6,2.7-4.4c1.9-0.8,4,0.1,4.4,1.8C33.8,35.9,32.4,37.8,30.6,38.6z"/>
</g>
<g>
	<path fill="#FFFFFF" d="M31,21.2c-0.4,0-0.7-0.1-0.9-0.3c-0.3-0.2-0.4-0.4-0.4-0.7c-0.1-1.1-0.2-1.8-0.2-3.2l0,0l0,0
		c-1.3,0-2-0.1-3.1-0.2c-0.4,0-0.6-0.2-0.8-0.4c-0.2-0.3-0.3-0.6-0.3-0.9c0-1.4,0-2.1,0-3.6c0-0.4,0.1-0.7,0.4-1
		c0.2-0.3,0.4-0.4,0.7-0.4c1.1-0.1,1.8-0.2,3.1-0.2l0,0l0,0c0.1-1.4,0.1-2,0.2-3.2c0-0.4,0.2-0.6,0.4-0.8C30.4,6.1,30.6,6,31,6
		c1.5,0,2.3,0,3.8,0c0.4,0,0.7,0.2,1,0.3C36,6.3,36.1,6.6,36.2,7c0.1,1.2,0.2,1.8,0.2,3.2l0,0c1.3,0,2,0.1,3.1,0.2
		c0.4,0,0.6,0.3,0.7,0.4c0.1,0.2,0.3,0.4,0.3,1c0,1.4,0,2.1,0,3.6c0,0.4-0.1,0.6-0.3,0.9s-0.4,0.4-0.8,0.4c-1.1,0.1-1.8,0.2-3.1,0.2
		l0,0l-0.2,3.2c0,0.3-0.2,0.5-0.4,0.7c-0.3,0.2-0.6,0.4-1,0.4C33.2,21.2,32.5,21.2,31,21.2z"/>
	<path opacity="0.5" enable-background="new    " d="M41.3,10.9c0-0.1-0.1-0.1-0.2-0.2c-0.2-0.3-0.4-0.4-0.7-0.6
		c-0.4-0.3-0.7-0.3-1.1-0.3c-0.8-0.1-1.2-0.1-2-0.2c0-0.2-0.1-0.9-0.1-1.1c0-0.4-0.1-0.9-0.1-1.5c0-0.5-0.4-1-0.7-1.2
		c-0.4-0.3-1-0.4-1.5-0.4c-1.6,0-2.5,0-4.1,0c-0.5,0-1.1,0.1-1.5,0.4c-0.4,0.4-0.7,0.7-0.7,1.2c0,0.6-0.1,1.1-0.1,1.5
		c0,0.2-0.1,0.8-0.1,1.1c-0.8,0-1.2,0.1-2,0.2c-0.4,0-0.6,0-1.1,0.3c-0.4,0.2-0.5,0.4-0.7,0.6c0,0.1-0.1,0.1-0.2,0.2
		c-0.4,0.4-0.4,1-0.4,1.5l0,0c0,1.6,0,2.4,0,3.9l0,0l0,0c0,0.5,0.1,1.1,0.4,1.4c0.3,0.4,0.7,0.7,1.2,0.8c1,0.1,1.5,0.2,2.7,0.3
		c0,0.1,0.2,2.1,0.3,2.7c0,0.4,0.3,0.9,0.7,1.2c0.4,0.4,1,0.4,1.5,0.4c1.8,0,2.4,0,4.1,0c0.6,0,1.2-0.2,1.5-0.4
		c0.4-0.4,0.6-0.7,0.7-1.2c0.1-0.7,0.3-2.7,0.3-2.7c1.2-0.1,1.8-0.1,2.7-0.3c0.5,0,1-0.4,1.2-0.8c0.3-0.4,0.4-0.9,0.4-1.4l0,0l0,0
		c0-1.6,0-2.4,0-3.9l0,0C41.7,11.8,41.6,11.2,41.3,10.9z M39.9,15.4L39.9,15.4c0,0.2,0,0.4-0.2,0.5c-0.1,0.1-0.3,0.2-0.4,0.3
		c-1.1,0.1-1.8,0.1-3,0.2c-0.2,0-0.4,0.1-0.5,0.2c-0.2,0.1-0.2,0.4-0.2,0.5c0,1.1-0.1,1.7-0.1,2.4c0,0.3,0,0.4-0.1,0.7
		c0,0.1,0,0.2-0.1,0.4c0,0,0,0-0.1,0.1c-0.1,0.1-0.4,0.2-0.4,0.2c-0.8,0-1.3,0-2,0s-1.2,0-2,0c-0.2,0-0.4,0-0.4-0.2
		c0,0-0.1,0-0.1-0.1c-0.1-0.1-0.1-0.2-0.1-0.4c0-0.3,0-0.5-0.1-0.7c0-0.7-0.1-1.3-0.1-2.4c0-0.2-0.1-0.4-0.2-0.5
		c-0.1-0.1-0.4-0.2-0.5-0.2c-1.3,0-2-0.1-3.1-0.2c-0.2,0-0.4-0.1-0.4-0.3c-0.3-0.1-0.3-0.3-0.3-0.4l0,0c0-1.4,0-2.2,0-3.7l0,0
		c0-0.2,0-0.5,0.3-0.5c1.2-0.1,1.8-0.1,3.2-0.2c0,0,0,0,0.1,0l0,0c0.1,0,0.2,0,0.3-0.1l0,0c0.1-0.1,0.3-0.2,0.4-0.3l0,0
		c0.1-0.2,0.2-0.4,0.2-0.5c0-1.4,0.1-2,0.2-3.2c0-0.2,0.1-0.4,0.3-0.4c0.1-0.1,0.3-0.2,0.4-0.2c0.4,0,0.7,0,1.1,0s0.6,0,0.9,0
		c0.3,0,0.6,0,0.9,0c0.4,0,0.7,0,1.1,0c0.2,0,0.4,0,0.4,0.2c0.1,0.1,0.2,0.3,0.2,0.4c0.1,1.1,0.1,1.8,0.2,3.2c0,0.2,0.1,0.4,0.2,0.5
		l0,0c0.1,0.1,0.2,0.2,0.4,0.3l0,0c0.1,0,0.2,0,0.3,0.1l0,0c0,0,0,0,0.1,0c1.4,0,2,0.1,3.2,0.2c0.3,0,0.3,0.4,0.3,0.5
		C39.9,11.8,40,14,39.9,15.4z"/>
</g>
</svg>
