<?xml version="1.0" encoding="utf-8"?>
<!-- Generator: Adobe Illustrator 23.0.0, SVG Export Plug-In . SVG Version: 6.00 Build 0)  -->
<svg version="1.0" id="Layer_1" xmlns="http://www.w3.org/2000/svg" xmlns:xlink="http://www.w3.org/1999/xlink" x="0px" y="0px"
	 viewBox="0 0 50 50" enable-background="new 0 0 50 50" xml:space="preserve">
<g id="backbutton">
	<path d="M19.6,48.2c1.1,1.1,2.7,1.8,4.3,1.8c3,0,5.1-2,5.1-4.3V4.2c0-0.9,0-2.9-2.1-3.8c-2.4-0.9-4.8-0.2-5.9,1.1L5.1,20.8
		c-2.4,2.9-2.4,6.7,0,9.6L19.6,48.2z"/>
	<path fill="#FFFFFF" d="M22,49.1c1.6,0,3.2-1.1,3.2-2.7v-39c0-0.9-0.5-1.8-1.3-2.2c-1.3-0.9-3.5-0.7-4.6,0.7L5.6,22.4
		c-2.1,2.7-2.1,6.3,0,9L19.3,48C20.1,48.9,20.9,49.3,22,49.1z"/>
</g>
</svg>
