<?xml version="1.0" encoding="utf-8"?>
<!-- Generator: Adobe Illustrator 23.0.0, SVG Export Plug-In . SVG Version: 6.00 Build 0)  -->
<svg version="1.0" id="Layer_1" xmlns="http://www.w3.org/2000/svg" xmlns:xlink="http://www.w3.org/1999/xlink" x="0px" y="0px"
	 viewBox="0 0 50 50" enable-background="new 0 0 50 50" xml:space="preserve">
<g>
	<g>
		<path fill="#F9C57E" d="M44.6,25.9c-13.1,0-26.1,0-39.2,0c-2,0-3.7-1.2-3.8-2.6s1.5-2.8,3.5-3c13.3-0.8,26.4-0.8,39.7-0.8
			c2,0,3.6,1.4,3.5,3.2C48.3,24.5,46.6,25.9,44.6,25.9z"/>
		<path fill="#F72C2C" d="M44.6,25.9c-13.1,0-26.1,0-39.2,0c-2,0-3.7-1.2-3.8-2.6s1.5-2.8,3.5-3c13.3-0.8,26.4-0.8,39.7-0.8
			c2,0,3.6,1.4,3.5,3.2C48.3,24.5,46.6,25.9,44.6,25.9z"/>
		<path fill="#E32929" d="M48.4,22.7c0,0.9-0.5,1.7-1.2,2.3c-0.7,0.6-1.6,0.9-2.6,0.9c-0.5,0-0.8,0-1.3,0c0.8-0.6,1.4-1.6,1.4-2.6
			c0-0.3,0-0.4,0-0.7c0.1-1.3-0.7-2.4-1.9-3c0.8,0,1.2,0,2,0C46.8,19.5,48.5,20.9,48.4,22.7z"/>
		<path fill="#8E2D2A" d="M3.4,27.9c14.4,0.7,28.8,0.1,43.2,0.5c-0.4,3.6-0.7,5.3-1.4,8.7C31.4,37,18.4,37.2,4.7,35.6
			C4,32.4,3.8,30.9,3.4,27.9z"/>
		<path fill="#771F1F" d="M42.4,28.3c1.7,0,2.5,0,4.2,0.1c-0.4,3.6-0.7,5.3-1.4,8.7c-1.6-0.1-2.4-0.1-3.9-0.2
			C41.9,33.5,42.1,31.8,42.4,28.3z"/>
		<path fill="#F78E3C" d="M46.7,38.8c0.7-1.4-0.2-2.8-1.7-2.9C31.4,35.8,18.5,36,5,34.6c-1.6-0.3-2.4,0.6-1.8,1.9
			c1,2.1,3.1,5.2,6.4,7.5c1.3,0.9,2.7,1.5,4,1.8c8.9,1.6,13.4,0.6,22.4,0.1c1.3-0.1,2.7-0.4,4-1C43.4,43.4,45.6,40.8,46.7,38.8z"/>
		<path fill="#E8782D" d="M46.7,38.8c-1.1,2.1-3.2,4.7-6.6,6.2c-1.4,0.6-2.7,1-4,1c0.3-0.1,0.6-0.3,0.8-0.5c3.3-2,5.5-5.3,6.6-7.8
			c0.3-0.7,0.3-1.3,0.1-1.9c0.5,0,0.8,0,1.3,0.1C46.5,35.9,47.4,37.4,46.7,38.8z"/>
		<path fill="#FFC143" d="M29.3,27.7c-6.8,0.1-10.2,0.1-17,0c6,4.6,9,7.2,14.2,11.7c1.3,1.1,3.3,1.1,4.7-0.2
			c5.6-4.8,8.8-6.9,15.1-11.4C39.5,27.6,36.1,27.6,29.3,27.7z"/>
		<path fill="#FFB509" d="M46.3,27.7c-6.3,4.5-9.5,6.6-15.1,11.4c-1.4,1.2-3.4,1.3-4.7,0.2c-0.2-0.1-0.2-0.2-0.4-0.4
			c5.2-4.7,8.2-6.9,14.1-11.3C42.7,27.7,43.9,27.7,46.3,27.7z"/>
		<path fill="#80CF00" d="M2,28.3c0.1,0.5,0.6,1.1,1.3,1.4c1.3,0.6,1.9,1.9,3.7,2.1c2.2,0.2,2-1.8,4.3-1.7c2.3,0.1,2.4,2.2,4.7,2.3
			c2.2,0.1,2.2-2.1,4.4-2.1c2.3,0,2.3,2.2,4.6,2.1s2.3-2.2,4.6-2.2c2.3,0,2.2,2.1,4.4,2.1c2.3,0,2.4-2.1,4.7-2.1
			c2.3,0,2.1,2.1,4.3,2.2c1.8,0.1,2.4-1.3,3.7-1.8c0.7-0.2,1.2-0.8,1.3-1.5c0.2-1.8-1.3-3.2-3.2-3.2c-13.2,0-26.4,0-39.6,0
			C3.3,25.7,1.8,26.9,2,28.3z"/>
		<path fill="#6DB000" d="M48,29c-0.1,0.7-0.6,1.3-1.3,1.5c-1.4,0.5-1.9,1.9-3.7,1.8c-0.8,0-1.3-0.3-1.7-0.7c0.6-0.4,1.1-1,1.8-1.3
			c0.7-0.3,1.2-0.9,1.2-1.5c0.1-0.9-0.2-1.6-0.8-2.2c-0.5-0.5-1.1-0.8-1.9-0.9c1.3,0,1.9,0,3.2,0c1,0,1.8,0.4,2.4,1
			C47.8,27.3,48.1,28.1,48,29z"/>
		<path fill="#FFC143" d="M18.5,19.5c-4.6,0.1-6.9,0.2-11.6,0.6c4,2.5,6,4.1,10,7.2c1,0.8,2.5,0.8,3.4,0c3.8-3.1,5.8-4.7,9.7-7.8
			C25.5,19.4,23.1,19.4,18.5,19.5z"/>
		<path fill="#FFB509" d="M30.1,19.5c-3.9,3.1-5.9,4.7-9.7,7.8c-1,0.8-2.4,0.8-3.4,0c-0.1-0.1-0.2-0.1-0.3-0.2
			c3.6-3,5.5-4.6,9.4-7.6C27.6,19.5,28.4,19.5,30.1,19.5z"/>
		<path fill="#F78E3C" d="M35.2,5c-1.7-0.6-3.4-0.9-5.1-1.1c-3.5-0.4-7-0.6-10.5-0.2c-1.7,0.2-3.4,0.6-5.1,1.4
			C5.1,9.2,1.3,16.1,0.2,19.1c-0.5,1.4,1,2.5,2.9,2.3c14.6-1.2,29.2-0.5,43.8-0.9c2,0,3.5-1.9,2.9-3.6C48.6,13.2,44.6,8.1,35.2,5z"
			/>
		<path fill="#E8782D" d="M46.9,20.6c-0.4,0-0.7,0-1.1,0c0.3-0.7,0.5-1.4,0.2-2.2c-1.1-4.3-5.1-10.5-14.5-14.2
			c-0.1,0-0.2-0.1-0.3-0.1c1.3,0.2,2.7,0.5,4,1c9.4,3.1,13.4,8.2,14.6,12C50.3,18.7,48.9,20.5,46.9,20.6z"/>
		<path fill="#F9EFEF" d="M19.5,7.6c-0.1,0.3-0.2,0.7-0.5,1c-0.1,0.2-0.3,0.4-0.5,0.5c-1,0.9-2.4,1.2-3,0.6C14.8,9.2,15.1,8,16.1,7
			c0.3-0.3,0.7-0.6,1.1-0.7C17.8,6,18.4,6,19,5.9c0.4-0.1,0.7,0.2,0.7,0.6C19.6,6.8,19.6,7.2,19.5,7.6z"/>
		<path fill="#EFE2DD" d="M18.5,9.1C18.7,9,18.8,8.8,19,8.6c0.3-0.3,0.4-0.7,0.5-1c0.1-0.4,0.1-0.7,0.2-1.1c0.1-0.4-0.2-0.7-0.7-0.6
			c-0.1,0-0.1,0-0.2,0c0,0.3-0.1,0.6-0.2,0.9c-0.1,0.3-0.2,0.7-0.5,1C18,8,17.8,8.2,17.6,8.4c-0.8,0.7-1.8,1.1-2.5,0.9
			c0.1,0.2,0.2,0.3,0.3,0.5C16.1,10.3,17.5,10.1,18.5,9.1z"/>
		<path fill="#F9EFEF" d="M32,6.3c0.4,0.1,0.8,0.2,1.1,0.5c0.2,0.1,0.4,0.3,0.6,0.4c1,0.9,1.3,2.1,0.6,2.7c-0.7,0.6-2,0.3-3-0.6
			c-0.3-0.3-0.6-0.7-0.8-1c-0.2-0.5-0.3-1.1-0.4-1.6C30.1,6.3,30.4,6,30.8,6C31.2,6.1,31.6,6.2,32,6.3z"/>
		<path fill="#EFE2DD" d="M33.7,7.2c-0.2-0.2-0.4-0.3-0.6-0.4c-0.4-0.2-0.8-0.4-1.1-0.5c-0.4-0.1-0.8-0.2-1.2-0.2
			c-0.4-0.1-0.7,0.2-0.7,0.6c0,0.1,0,0.1,0,0.2c0.3,0,0.6,0.1,1,0.2c0.4,0.1,0.8,0.2,1.1,0.5c0.2,0.1,0.4,0.3,0.6,0.4
			c0.8,0.7,1.1,1.6,0.9,2.2c0.2,0,0.4-0.1,0.6-0.3C35,9.3,34.7,8.1,33.7,7.2z"/>
		<path fill="#F9EFEF" d="M26.1,8c0.2,0.3,0.4,0.6,0.5,1c0.1,0.2,0.1,0.4,0.1,0.7c0.1,1.3-0.7,2.3-1.7,2.3c-1,0-1.8-1-1.8-2.3
			c0-0.4,0.1-0.8,0.2-1.2c0.2-0.5,0.6-1,1-1.4c0.3-0.3,0.7-0.3,1,0C25.5,7.3,25.8,7.6,26.1,8z"/>
		<path fill="#EFE2DD" d="M26.7,9.6c0-0.2,0-0.4-0.1-0.7c-0.1-0.4-0.3-0.7-0.5-1c-0.2-0.3-0.5-0.6-0.8-0.9c-0.3-0.3-0.7-0.3-1,0
			c0,0.1-0.1,0.1-0.1,0.2c0.2,0.2,0.4,0.5,0.6,0.7c0.2,0.3,0.4,0.6,0.5,1c0.1,0.2,0.1,0.4,0.1,0.7c0,1-0.4,1.8-1.1,2.1
			c0.2,0.1,0.4,0.1,0.6,0.1C26,11.9,26.7,10.9,26.7,9.6z"/>
	</g>
</g>
</svg>
