<?xml version="1.0" encoding="utf-8"?>
<!-- Generator: Adobe Illustrator 23.0.0, SVG Export Plug-In . SVG Version: 6.00 Build 0)  -->
<svg version="1.0" id="Layer_1" xmlns="http://www.w3.org/2000/svg" xmlns:xlink="http://www.w3.org/1999/xlink" x="0px" y="0px"
	 viewBox="0 0 50 50" enable-background="new 0 0 50 50" xml:space="preserve">
<path opacity="0.5" fill="#D6D6D6" d="M11.3,18.2C11.3,18.2,11.3,18.2,11.3,18.2c0.2-0.3,0.3-0.5,0.4-0.7c0,0,0,0,0-0.1
	c0.2-0.4,0.5-0.8,0.7-1.2c0,0,0-0.1,0.1-0.1c1.3-2.2,2.7-4.4,2.7-4.4c0,0,0,0.4,0.1,1.1c0.1,1,0.2,2.5,0.3,3.2c0,0.1,0,0.3,0,0.5
	c0,0,0,0.1,0,0.1c0,0.3,0.1,0.7,0.1,1.1c0,0.2,0,0.3,0,0.5C14,18.1,13.1,18.1,11.3,18.2z M17.5,26.9C17.5,26.9,17.5,26.9,17.5,26.9
	c-0.2-0.2-0.3-0.5-0.4-0.7c0,0,0,0,0-0.1c-0.1-0.2-0.2-0.4-0.3-0.6c0,0,0,0,0-0.1c-0.1-0.2-0.2-0.4-0.2-0.6c0,0,0-0.1,0-0.1
	c-0.1-0.2-0.1-0.4-0.1-0.6c-2.5,0.1-6.3,0.3-9,0.6C6.2,26.5,5.2,28,5.2,28C10.4,27.3,12.8,27.1,17.5,26.9
	C17.5,26.9,17.5,26.9,17.5,26.9z M19.2,41.4C19.2,41.4,19.2,41.4,19.2,41.4c-0.1-0.6-0.2-1.3-0.3-2.1c0,0,0,0,0,0
	c-2,0.3-4,0.7-5.6,1.1c0,0,0,0,0,0c0,0.2,0.1,0.3,0.2,0.5c0.1,0.2,0.1,0.3,0.2,0.4c0,0,0,0,0,0c0.2,0.3,0.4,0.7,0.6,1c0,0,0,0,0,0
	C16.1,41.9,17.3,41.7,19.2,41.4C19.2,41.4,19.2,41.4,19.2,41.4z M18.5,34.9C18.5,34.9,18.5,34.8,18.5,34.9c0-0.4,0-0.8,0-1.2
	c0,0,0-0.1,0-0.1c0-0.4,0-0.8,0-1.1c-2.7,0.2-4.3,0.3-7,0.8c0,0,0,0,0,0c0.1,0.1,0.2,0.3,0.3,0.4c0.1,0.2,0.2,0.3,0.3,0.5
	c0.2,0.4,0.4,0.9,0.5,1.5c0,0,0,0,0,0.1C14.8,35.2,16.1,35.1,18.5,34.9z M37.1,18.2C37.1,18.2,37.1,18.2,37.1,18.2
	c-0.2-0.3-0.3-0.5-0.4-0.7c0,0,0,0,0-0.1c-0.2-0.4-0.5-0.8-0.7-1.2c0,0,0-0.1-0.1-0.1c-1.3-2.2-2.7-4.4-2.7-4.4c0,0,0,0.4-0.1,1.1
	c-0.1,1-0.2,2.5-0.3,3.2c0,0.1,0,0.3,0,0.5c0,0,0,0.1,0,0.1c0,0.3-0.1,0.7-0.1,1.1c0,0.2,0,0.3,0,0.5C34.4,18.1,35.3,18.1,37.1,18.2
	z M30.9,26.9c4.7,0.2,7.1,0.4,12.3,1.1c0,0-1-1.5-2.1-3.3c-2.7-0.3-6.5-0.5-9-0.6c0,0.2-0.1,0.4-0.1,0.6c0,0,0,0.1,0,0.1
	c-0.1,0.2-0.1,0.4-0.2,0.6c0,0,0,0,0,0.1c-0.1,0.2-0.2,0.4-0.3,0.6c0,0,0,0,0,0.1C31.2,26.4,31.1,26.7,30.9,26.9
	C30.9,26.9,30.9,26.9,30.9,26.9C30.9,26.9,30.9,26.9,30.9,26.9z M29.3,41.4c1.9,0.3,3,0.5,4.9,1c0,0,0,0,0,0c0.3-0.4,0.5-0.7,0.6-1
	c0,0,0,0,0,0c0.1-0.1,0.1-0.3,0.2-0.4c0.1-0.2,0.1-0.3,0.2-0.5c0,0,0,0,0,0c-1.6-0.4-3.5-0.8-5.6-1.1c0,0,0,0,0,0
	C29.5,40,29.4,40.7,29.3,41.4C29.3,41.4,29.3,41.4,29.3,41.4C29.3,41.4,29.3,41.4,29.3,41.4z M35.9,35.7
	C35.9,35.7,35.9,35.7,35.9,35.7c0.2-0.6,0.4-1.1,0.6-1.5c0.1-0.2,0.2-0.3,0.3-0.5c0.1-0.1,0.2-0.3,0.3-0.4c0,0,0,0,0,0
	c-2.8-0.5-4.3-0.6-7-0.8c0,0.4,0,0.8,0,1.1c0,0,0,0.1,0,0.1c0,0.4,0,0.8,0,1.1c0,0,0,0.1,0,0.1C32.3,35.1,33.6,35.2,35.9,35.7z
	 M21,9c0.3,0.5,0.5,0.8,0.6,1.2c0.1,0.4,0.2,1.5,0.4,2.5c0.1,0.4,0.4,0.7,0.8,0.7c0,0,0.7-0.1,0.6-0.9c-0.1-0.8-0.3-2.1-0.5-2.8
	C22.7,9,22.4,8.3,22,7.5s0.8-0.9,1.1-0.9c0.3,0,1.8,0,2.1,0c0.3,0,1.5,0.1,1.1,0.9S25.7,9,25.5,9.7c-0.2,0.7-0.4,2-0.5,2.8
	c-0.1,0.8,0.6,0.9,0.6,0.9c0.4,0,0.7-0.3,0.8-0.7c0.2-1,0.3-2.1,0.4-2.5C27,9.8,27.1,9.5,27.4,9c1.6,0.1,3.2,0.3,4.8,0.9
	c0,1-0.2,2.8-0.5,5c-3,0.1-5.3,0.1-7.5,0.1s-4.5,0-7.5-0.1c-0.3-2.2-0.5-4-0.5-5C17.8,9.3,19.4,9.1,21,9z"/>
<path opacity="5.000000e-02" fill="#FFFFFF" d="M18.3,28c0,0.8,0.1,5.3,0.2,8s1.1,8,1.1,8s-1.5,0-2.3,0c-0.8-0.1-1.6-0.4-2.2-0.8
	c-0.6-0.3-1.2-1.3-1.5-1.8s-0.5-1.4-0.6-2.1s-0.2-1.4-0.3-2.3s-0.5-2-0.8-2.8c-0.3-0.8-1-1.7-1.5-2.2s-1.1-1.1-2-1.7S5.2,28,5.2,28
	s3.9-6.1,5.2-8.3s4.8-8,4.8-8s0.3,3.1,0.4,4.2s0.3,3.7,0.4,4.6c0.1,0.9,0.2,2.4,0.3,3.6s0.8,2.3,1.7,3.6C18.1,27.7,18.3,28,18.3,28
	 M30.1,28c0,0.8-0.1,5.3-0.2,8s-1.1,8-1.1,8s1.5,0,2.3,0c0.8-0.1,1.6-0.4,2.2-0.8c0.6-0.3,1.2-1.3,1.5-1.8s0.5-1.4,0.6-2.1
	c0.2-0.6,0.2-1.4,0.3-2.3c0.1-0.9,0.5-2,0.8-2.8c0.3-0.8,1-1.7,1.5-2.2s1.1-1.1,2-1.7c0.9-0.7,3.2-2.3,3.2-2.3s-3.9-6.1-5.2-8.3
	c-1.3-2.2-4.8-8-4.8-8s-0.3,3.1-0.4,4.2c-0.1,1.1-0.3,3.7-0.4,4.6c-0.1,0.9-0.2,2.4-0.3,3.6s-0.8,2.3-1.7,3.6
	C30.3,27.7,30.1,28,30.1,28"/>
<path fill="#D6D6D6" d="M45,28.6c-0.1-0.2-8-12.5-11.8-20.1c-1.8-0.6-3.6-0.9-5.4-1.1c0-0.9-0.5-1.8-1.2-2.1C25.9,5,24.7,5,24.2,5
	s-1.7,0-2.4,0.3c-0.7,0.3-1.2,1.2-1.2,2.1c-1.8,0.2-3.6,0.5-5.4,1.1C11.4,16.1,3.5,28.4,3.4,28.6c-0.1,0.2-0.6,1.3,0.6,1.3
	c4.3,0.5,7.2,3.7,7.7,7.1c0.3,1.9,0.5,2.8,0.9,4.4c0.2,0.8,0.8,1.5,1.4,2.1c1.9,1.5,4.4,1.7,6.8,1.3c0.3,0,0.6-0.2,0.5-0.5
	c-0.8-4.4-1-7.5-1.1-15c0.6,0.3,1.2,0.6,1.8,0.8c0.1,4.1,0.2,5.9,0.4,9.1c0,0.2,0.1,0.3,0.3,0.4c0.5,0.2,0.8,0.3,1.5,0.3v0
	c0,0,0,0,0,0s0,0,0,0v0c0.7,0,1-0.1,1.5-0.3c0.2-0.1,0.3-0.2,0.3-0.4c0.2-3.2,0.3-5,0.4-9.1c0.6-0.2,1.2-0.5,1.8-0.8
	c-0.1,7.5-0.3,10.6-1.1,15c-0.1,0.3,0.2,0.5,0.5,0.5c2.4,0.4,4.9,0.2,6.8-1.3c0.6-0.6,1.2-1.3,1.4-2.1c0.4-1.6,0.6-2.5,0.9-4.4
	c0.5-3.4,3.4-6.6,7.7-7.1C45.6,29.9,45.1,28.8,45,28.6z M32.8,15.9c0.1-1.1,0.4-4.2,0.4-4.2s2.3,3.8,3.9,6.4c0,0,0,0,0,0.1
	c-1.8-0.1-2.7-0.1-4.5-0.1C32.7,17.3,32.8,16.4,32.8,15.9z M32.4,20.5c0-0.2,0-0.5,0.1-0.9c0,0,0,0,0,0c2.2,0,3.3,0,5.5,0.1
	c0.5,0.8,1.2,2,2,3.3c0,0,0,0,0,0c-2-0.1-5.6-0.4-7.8-0.4C32.3,21.8,32.4,21.1,32.4,20.5z M21,9c0.3,0.5,0.5,0.8,0.6,1.2
	c0.1,0.4,0.2,1.5,0.4,2.5c0.1,0.4,0.4,0.7,0.8,0.7c0,0,0.7-0.1,0.6-0.9c-0.1-0.8-0.3-2.1-0.5-2.8C22.7,9,22.4,8.3,22,7.5
	s0.8-0.9,1.1-0.9c0.3,0,1.8,0,2.1,0c0.3,0,1.5,0.1,1.1,0.9S25.7,9,25.5,9.7c-0.2,0.7-0.4,2-0.5,2.8c-0.1,0.8,0.6,0.9,0.6,0.9
	c0.4,0,0.7-0.3,0.8-0.7c0.2-1,0.3-2.1,0.4-2.5C27,9.8,27.1,9.5,27.4,9c1.6,0.1,3.2,0.3,4.8,0.9c0,1-0.2,2.8-0.5,5
	c-3,0.1-5.3,0.1-7.5,0.1s-4.5,0-7.5-0.1c-0.3-2.2-0.5-4-0.5-5C17.8,9.3,19.4,9.1,21,9z M11.4,18.1c1.6-2.6,3.9-6.4,3.9-6.4
	s0.3,3.1,0.4,4.2c0,0.5,0.1,1.3,0.2,2.2C14,18.1,13.1,18.1,11.4,18.1C11.3,18.2,11.3,18.2,11.4,18.1z M8.4,23c0.8-1.3,1.6-2.5,2-3.3
	c2.2-0.1,3.3-0.1,5.5-0.1c0,0,0,0,0,0c0,0.4,0.1,0.7,0.1,0.9c0.1,0.6,0.1,1.3,0.2,2.1C13.9,22.6,10.4,22.9,8.4,23
	C8.4,23,8.4,23,8.4,23z M7.3,24.7c2.7-0.3,6.5-0.5,9-0.6c0.1,0.9,0.5,1.8,1.2,2.8c0,0,0,0,0,0c-4.7,0.2-7.1,0.4-12.3,1.1
	C5.2,28,6.2,26.5,7.3,24.7z M8.4,30.3c-0.3-0.2-0.7-0.5-1.1-0.8c4.5-0.7,6.7-0.9,11-1.1c0,0,0,0,0,0c0,0.6,0,1.6,0.1,2.7l0,0
	c-3,0.2-4.8,0.3-8,0.9C9.9,31.5,9.3,30.9,8.4,30.3z M12.5,35.7C12.5,35.7,12.5,35.7,12.5,35.7c-0.2-0.6-0.4-1.1-0.6-1.5
	c-0.1-0.3-0.3-0.6-0.5-0.9c0,0,0,0,0,0c2.8-0.5,4.3-0.6,7-0.8c0,0.8,0,1.7,0.1,2.5C16.1,35.1,14.8,35.2,12.5,35.7z M12.8,37
	c0,0,0-0.1,0-0.1c2.4-0.5,3.5-0.6,5.8-0.9c0,0.7,0.1,1.5,0.2,2.3c-1.5,0.2-3.9,0.6-5.7,1C12.9,38.7,12.8,37.9,12.8,37z M13.6,41.4
	c-0.2-0.3-0.3-0.6-0.4-1c1.6-0.4,3.5-0.8,5.6-1.1c0.1,0.7,0.2,1.4,0.3,2.1c0,0,0,0,0,0c-1.9,0.3-3,0.5-4.9,1
	C14,42.1,13.8,41.7,13.6,41.4z M17.3,44c-0.8-0.1-1.6-0.4-2.2-0.8c1.6-0.4,2.4-0.6,4.2-0.9c0,0,0,0,0,0c0.2,1,0.3,1.7,0.3,1.7
	S18.2,44,17.3,44z M27,28.7c-0.1-0.3-0.4-0.5-0.7-0.5c-0.4,0-0.8,0.2-0.8,0.6c0,0.3,0,0.4,0,0.7c-0.1,4.2-0.2,6-0.3,9.2
	c-0.3,0.1-1.7,0.1-2,0c-0.1-3.2-0.2-5-0.3-9.2c0-0.3,0-0.4,0-0.7c0-0.4-0.4-0.6-0.8-0.6c-0.3,0-0.6,0.2-0.7,0.5
	c-0.8-0.3-1.3-0.6-2.1-1.5c-0.8-0.9-1.2-1.6-1.5-2.6c-0.3-1-0.5-2.7-0.7-4.6c1.5,0.3,2.2,0.4,3.6,0.6c0,0,2-0.5,1.8-0.8
	c-0.2-0.3-0.3-0.5-0.5-0.6c-0.2-0.1-3.1-0.6-5.2-0.8c-0.1-0.7-0.1-1.3-0.2-2c3.1,0,12.1,0,15.2,0c-0.1,0.7-0.1,1.3-0.2,2
	c-2.1,0.2-5,0.7-5.2,0.8c-0.2,0.1-0.3,0.3-0.5,0.6c-0.2,0.3,1.8,0.8,1.8,0.8c1.4-0.2,2.1-0.3,3.6-0.6c-0.2,1.9-0.4,3.6-0.7,4.6
	c-0.3,1-0.7,1.7-1.5,2.6C28.3,28.1,27.8,28.4,27,28.7z M31.1,44c-0.8,0.1-2.3,0-2.3,0s0.1-0.7,0.3-1.7c0,0,0,0,0,0
	c1.8,0.3,2.6,0.5,4.2,0.9C32.7,43.5,32,43.9,31.1,44z M34.8,41.4c-0.2,0.3-0.4,0.7-0.7,1c-1.8-0.5-3-0.7-4.9-1c0,0,0,0,0,0
	c0.1-0.6,0.2-1.3,0.3-2.1c2,0.3,4,0.7,5.6,1.1C35.1,40.8,34.9,41.1,34.8,41.4z M35.7,37c-0.1,0.9-0.1,1.7-0.3,2.3
	c-1.8-0.4-4.2-0.8-5.7-1c0.1-0.8,0.2-1.6,0.2-2.3c2.3,0.3,3.4,0.4,5.8,0.9C35.7,36.9,35.7,37,35.7,37z M37,33.2
	c-0.2,0.3-0.4,0.6-0.5,0.9c-0.2,0.4-0.4,0.9-0.5,1.5c0,0,0,0,0,0.1c-2.3-0.5-3.6-0.6-6-0.8c0-0.8,0-1.7,0.1-2.5
	C32.7,32.6,34.3,32.7,37,33.2C37,33.2,37,33.2,37,33.2z M40,30.3c-0.9,0.7-1.5,1.3-2,1.7c-3.2-0.6-5-0.7-8-0.9l0,0
	c0-1.1,0.1-2.1,0.1-2.7c0,0,0,0,0,0c4.3,0.2,6.5,0.4,11,1.1C40.7,29.8,40.3,30.1,40,30.3z M30.9,26.9C30.9,26.9,30.9,26.9,30.9,26.9
	c0.7-1,1.1-1.9,1.2-2.8c2.5,0.1,6.3,0.3,9,0.6c1.1,1.8,2.1,3.3,2.1,3.3C38,27.3,35.6,27.1,30.9,26.9z"/>
</svg>
