<?xml version="1.0" encoding="utf-8"?>
<!-- Generator: Adobe Illustrator 23.0.0, SVG Export Plug-In . SVG Version: 6.00 Build 0)  -->
<svg version="1.0" id="i_back" xmlns="http://www.w3.org/2000/svg" xmlns:xlink="http://www.w3.org/1999/xlink" x="0px" y="0px"
	 viewBox="0 0 50 50" enable-background="new 0 0 50 50" xml:space="preserve">
<g id="backbutton">
	<path d="M21.4,23.4c-0.9,1.3-0.9,3,0,4.3l5.9,8.6c0.4,0.6,1.3,0.9,2.2,0.5c0.8-0.4,0.8-1.3,0.8-1.7V16.6c0-1-0.8-1.9-1.9-1.9
		c-0.6,0-1.2,0.3-1.6,0.8L21.4,23.4z"/>
	<path fill="#FFFFFF" d="M26.7,15.6L21.6,23c-0.8,1.2-0.8,2.8,0,4l5.1,7.4c0.4,0.6,1.2,0.7,1.7,0.3c0.3-0.2,0.5-0.6,0.5-1V16.3
		c0-0.7-0.6-1.2-1.2-1.2C27.3,15,27,15.2,26.7,15.6z"/>
</g>
</svg>
