<?xml version="1.0" encoding="utf-8"?>
<!-- Generator: Adobe Illustrator 23.0.0, SVG Export Plug-In . SVG Version: 6.00 Build 0)  -->
<svg version="1.0" id="Layer_1" xmlns="http://www.w3.org/2000/svg" xmlns:xlink="http://www.w3.org/1999/xlink" x="0px" y="0px"
	 width="50px" height="50px" viewBox="0 0 50 50" enable-background="new 0 0 50 50" xml:space="preserve">
<g id="New_Symbol_117">
	<g>
		<g>
			<g>
				<g opacity="0.5">
					<path opacity="0.5" fill="#FFFFFF" d="M10,47.5c-1.9,0-4-0.8-5.3-2.1c-0.8-0.9-1.3-1.9-1.2-2.9c0.7-6.4,2.6-13,5.8-20.8
						c-0.4-0.2-0.6-0.5-0.8-0.8c-0.3-0.6-0.3-1.3,0-2.1c0.9-2.3,1.2-3.3,1.6-5.5c0.5-2.7,2.5-4.7,4.8-4.7c0.1,0,0.3,0,0.4,0
						C16,8.6,16.4,8.7,17,8.7c0-0.1,0-0.1,0-0.2c0-0.1,0-0.2-0.2-0.8c-0.4-1.2-0.3-2,0.1-2.6c0.2-0.3,0.6-0.6,1.3-0.6
						c0.1,0,0.1,0,0.2,0c2.8,0.2,3.4,1.5,4,3.3c0.3,0.8,0.3,0.9,0.3,1.2c0,0.1,0,0.2,0,0.3c0.6,0.1,1.2,0.2,1.8,0.2
						c2.8,0.4,5.6,0.8,8.5,1c-0.1-0.2-0.2-0.5-0.2-0.7c-0.1-0.2-0.2-0.4-0.2-0.6c-0.3-1-0.2-1.7,0.2-2.2c0.3-0.4,0.8-0.6,1.5-0.6
						c0.1,0,0.2,0,0.3,0c1.3,0.1,2.7,0.4,3.3,2.4C37.9,9,37.9,9.2,38,9.4c0.1,0.3,0.2,0.7,0.3,1.1c0.7,0,1.2-0.1,2-0.2
						c0.1,0,0.3,0,0.4,0c2.1,0,4.5,1.6,5,4.2c0.4,2.1,0.5,3.1,0.6,5.3c0.1,1.2-0.7,2.5-2,3.3c-0.2,6.6,0,11.7,1.9,17.5
						c0.5,1.2,0.5,2.4-0.1,3.4c-0.7,1.1-2,1.7-3.7,1.8c-9.6,0.3-19.8,0.9-31.8,1.6C10.3,47.5,10.2,47.5,10,47.5z M12.3,21.9
						C9.7,27.8,7,34.7,6.7,42.1c0,0.5,0.3,0.9,0.5,1.2c0.6,0.6,1.6,1,2.4,1c0.1,0,0.2,0,0.3,0c9.9-1,20-1,29.8-1.1l1.4,0
						c0.8,0,1.4-0.3,1.6-0.7c0.2-0.3,0.2-0.8,0-1.2c-2-6-2.1-10.7-1.6-17.2C40,24,38.8,24,37.6,24c-4.3,0-8.6-0.5-12.8-1.1
						C20.7,22.4,16.5,21.9,12.3,21.9z M11.7,19.1c4.3,0.1,8.4,0.6,12.4,1.1c4.2,0.5,8.5,1.1,12.8,1.1c2,0,3.9-0.1,5.7-0.3
						c0,0,0.1,0,0.1,0c0.2-0.1,0.5-0.4,0.5-0.6c0-2.1-0.1-3.1-0.3-5.2c-0.1-1.2-1.1-1.8-2-1.8c-0.1,0-0.1,0-0.2,0
						c-0.9,0.1-1.4,0.2-2,0.2c0.1,0.9,0.1,1.4,0.1,2.4c0,1.8-1.4,3.4-2.9,3.4c0,0,0,0,0,0c-0.7,0-1.2-0.2-1.7-0.7
						C33.6,18,33.3,17,33.3,16c0-0.9,0-1.5,0-2.4c-3.1-0.2-6.1-0.7-9.1-1.1L23,12.4c0,0.8,0,1.3,0,2.1c-0.1,1.5-1.3,2.7-2.9,2.7
						c-0.1,0-0.3,0-0.4,0c-1.6-0.2-2.7-1.7-2.5-3.4c0.1-0.8,0.1-1.3,0.1-2.1c-0.7-0.1-1.1-0.1-1.9-0.2c-0.1,0-0.1,0-0.2,0
						c-1,0-1.9,0.9-2.1,2.1c-0.3,2.2-0.6,3.3-1.4,5.5c0,0.1,0,0.1,0,0.1C11.5,19.1,11.6,19.1,11.7,19.1L11.7,19.1z"/>
				</g>
				<g>
					<path fill="#FFFFFF" d="M10,45.4c-1.9,0-4-0.8-5.3-2.1c-0.8-0.9-1.3-1.9-1.2-2.9c0.7-6.4,2.6-13,5.8-20.8
						c-0.4-0.2-0.6-0.5-0.8-0.8c-0.3-0.6-0.3-1.3,0-2.1c0.9-2.3,1.2-3.3,1.6-5.5c0.5-2.7,2.5-4.7,4.8-4.7c0.1,0,0.3,0,0.4,0
						C16,6.6,16.4,6.6,17,6.7c0-0.1,0-0.1,0-0.2c0-0.1,0-0.2-0.2-0.8c-0.4-1.2-0.3-2,0.1-2.6c0.2-0.3,0.6-0.6,1.3-0.6
						c0.1,0,0.1,0,0.2,0c2.8,0.2,3.4,1.5,4,3.3c0.3,0.8,0.3,0.9,0.3,1.2c0,0.1,0,0.2,0,0.3c0.6,0.1,1.2,0.2,1.8,0.2
						c2.8,0.4,5.6,0.8,8.5,1c-0.1-0.2-0.2-0.5-0.2-0.7c-0.1-0.2-0.2-0.4-0.2-0.6c-0.3-1-0.2-1.7,0.2-2.2c0.3-0.4,0.8-0.6,1.5-0.6
						c0.1,0,0.2,0,0.3,0c1.3,0.1,2.7,0.4,3.3,2.4C37.9,7,37.9,7.2,38,7.4c0.1,0.3,0.2,0.7,0.3,1.1c0.7,0,1.2-0.1,2-0.2
						c0.1,0,0.3,0,0.4,0c2.1,0,4.5,1.6,5,4.2c0.4,2.1,0.5,3.1,0.6,5.3c0.1,1.2-0.7,2.5-2,3.3c-0.2,6.6,0,11.7,1.9,17.5
						c0.5,1.2,0.5,2.4-0.1,3.4c-0.7,1.1-2,1.7-3.7,1.8c-9.6,0.3-19.8,0.9-31.8,1.6C10.3,45.4,10.2,45.4,10,45.4z M12.3,19.8
						C9.7,25.7,7,32.7,6.7,40c0,0.5,0.3,0.9,0.5,1.2c0.6,0.6,1.6,1,2.4,1c0.1,0,0.2,0,0.3,0c9.9-1,20-1,29.8-1.1l1.4,0
						c0.8,0,1.4-0.3,1.6-0.7c0.2-0.3,0.2-0.8,0-1.2c-2-6-2.1-10.7-1.6-17.2C40,21.9,38.8,22,37.6,22c-4.3,0-8.6-0.5-12.8-1.1
						C20.7,20.4,16.5,19.8,12.3,19.8z M11.7,17c4.3,0.1,8.4,0.6,12.4,1.1c4.2,0.5,8.5,1.1,12.8,1.1c2,0,3.9-0.1,5.7-0.3
						c0,0,0.1,0,0.1,0c0.2-0.1,0.5-0.4,0.5-0.6c0-2.1-0.1-3.1-0.3-5.2c-0.1-1.2-1.1-1.8-2-1.8c-0.1,0-0.1,0-0.2,0
						c-0.9,0.1-1.4,0.2-2,0.2c0.1,0.9,0.1,1.4,0.1,2.4c0,1.8-1.4,3.4-2.9,3.4c0,0,0,0,0,0c-0.7,0-1.2-0.2-1.7-0.7
						c-0.6-0.6-0.9-1.5-0.9-2.6c0-0.9,0-1.5,0-2.4c-3.1-0.2-6.1-0.7-9.1-1.1L23,10.3c0,0.8,0,1.3,0,2.1c-0.1,1.5-1.3,2.7-2.9,2.7
						c-0.1,0-0.3,0-0.4,0c-1.6-0.2-2.7-1.7-2.5-3.4c0.1-0.8,0.1-1.3,0.1-2.1c-0.7-0.1-1.1-0.1-1.9-0.2c-0.1,0-0.1,0-0.2,0
						c-1,0-1.9,0.9-2.1,2.1c-0.3,2.2-0.6,3.3-1.4,5.5c0,0.1,0,0.1,0,0.1C11.5,17,11.6,17,11.7,17L11.7,17z"/>
				</g>
			</g>
			<path fill="#FFFFFF" d="M18.5,26.7c-1.7,0-2.6,0-4.6,0.2c-0.5,0.1-0.8-0.3-0.6-0.8c0.2-0.5,0.8-0.9,1.3-1c1.9-0.1,2.8-0.1,4.5,0
				c0.5,0,0.7,0.4,0.5,0.9C19.4,26.4,18.9,26.7,18.5,26.7z M16.6,34.1c-1.9,0.2-2.8,0.3-4.8,0.6c-0.5,0.1-0.9-0.3-0.8-0.9
				s0.7-1.1,1.2-1.2c2-0.3,2.9-0.4,4.7-0.5c0.5,0,0.8,0.4,0.7,0.9C17.5,33.6,17.1,34,16.6,34.1z M27.6,27.9
				c-1.7-0.3-2.5-0.4-4.1-0.7c-0.4-0.1-0.7-0.5-0.5-0.9c0.2-0.4,0.6-0.7,1.1-0.6c1.6,0.3,2.4,0.4,4,0.7c0.4,0.1,0.7,0.5,0.6,0.9
				C28.5,27.7,28,27.9,27.6,27.9z M26.7,34.5c-1.9-0.2-2.8-0.3-4.6-0.4c-0.5,0-0.9-0.5-0.8-1c0.1-0.5,0.5-0.9,1-0.8
				c1.8,0.2,2.7,0.3,4.5,0.5c0.5,0.1,0.9,0.5,0.9,1C27.6,34.2,27.2,34.5,26.7,34.5z M37.1,28.9c-2,0-3-0.1-4.8-0.3
				c-0.5-0.1-0.8-0.5-0.7-0.9c0.1-0.4,0.6-0.7,1-0.7c1.8,0.2,2.7,0.2,4.7,0.3c0.5,0,0.9,0.4,0.9,0.8C38.1,28.6,37.6,28.9,37.1,28.9z
				 M37.2,35.3c-2.2-0.1-3.3-0.2-5.3-0.4c-0.6-0.1-1-0.5-1-0.9c0-0.5,0.4-0.8,0.9-0.7c2,0.2,3,0.3,5.2,0.4c0.6,0,1.1,0.4,1.2,0.8
				C38.2,35,37.8,35.4,37.2,35.3z"/>
		</g>
	</g>
</g>
</svg>
