<?xml version="1.0" encoding="utf-8"?>
<!-- Generator: Adobe Illustrator 23.0.0, SVG Export Plug-In . SVG Version: 6.00 Build 0)  -->
<svg version="1.0" id="Layer_1" xmlns="http://www.w3.org/2000/svg" xmlns:xlink="http://www.w3.org/1999/xlink" x="0px" y="0px"
	 viewBox="0 0 50 50" enable-background="new 0 0 50 50" xml:space="preserve">
<path fill="#FFFFFF" d="M41,39c0,0.7,0,1.3,0,2c0,0.8,0,1.7-0.1,2.5c-0.1,0.9-0.8,1.4-1.7,1.5c-1,0.1-1.8-0.4-2.1-1.3
	C37,43.5,37,43.2,37,42.9c0-1.1,0-2.2,0-3.4c0-0.2,0-0.3,0-0.5c-0.2,0-0.4,0-0.6,0c-6.6,0-13.3,0-19.9,0c-2.7,0-4.9-1.8-5.4-4.4
	C11,34.2,11,33.8,11,33.4c0-6.6,0-13.2,0-19.8c0-0.2,0-0.4,0-0.6c-1,0-2,0-2.9,0c-0.4,0-0.7,0-1.1,0c-1.2,0-2-0.8-2-1.9
	C5,9.8,5.7,9,7,9c1.2,0,2.3,0,3.5,0c0.2,0,0.3,0,0.6,0c0-0.7,0-1.3,0-2c0-1.5,1.2-2.4,2.7-1.9c0.7,0.2,1.2,0.8,1.3,1.6
	c0,0.2,0,0.5,0,0.7c0,8.6,0,17.2,0,25.9c0,1.3,0.4,1.7,1.7,1.7c7.2,0,14.3,0,21.5,0c1.6,0,3.2,0,4.8,0c1.5,0,2.3,1.2,2,2.6
	c-0.2,0.8-0.9,1.3-1.7,1.4c-0.4,0-0.7,0-1.1,0C41.8,39,41.4,39,41,39z"/>
<path fill="#FFFFFF" d="M28.2,9c2.2,0,4.5,0,6.7,0c3.6,0,6.1,2.5,6.1,6.1c0,4.6,0,9.2,0,13.8c0,1.6-1.1,2.5-2.6,2.1
	c-0.9-0.3-1.4-1-1.4-2c0-1.3,0-2.6,0-3.9c0-3.4,0-6.7,0-10.1c0-1.4-0.7-2.1-2.1-2.1c-4.6,0-9.2,0-13.8,0c-1.5,0-2.4-1.2-2-2.6
	C19.3,9.5,20,9,21.1,9C23.5,9,25.8,9,28.2,9z"/>
</svg>
