<?xml version="1.0" encoding="utf-8"?>
<!-- Generator: Adobe Illustrator 23.0.0, SVG Export Plug-In . SVG Version: 6.00 Build 0)  -->
<svg version="1.0" id="Layer_1" xmlns="http://www.w3.org/2000/svg" xmlns:xlink="http://www.w3.org/1999/xlink" x="0px" y="0px"
	 viewBox="0 0 50 50" enable-background="new 0 0 50 50" xml:space="preserve">
<g id="Cleopatra">
	<path opacity="0.1" fill="#FFC000" enable-background="new    " d="M38.4,28.1c-0.3-0.4-0.7-0.7-1.1-1.1c-0.5-0.5-0.9-1.2-1-1.9
		c-0.1-0.9-0.3-1.7-0.6-2.6c-2.1-5.9-4.1-11.7-6.2-17.6c-0.1-0.3-0.3-0.5-0.5-0.7c-0.5,0-1,0-1.5,0c-0.1,0-0.2,0.1-0.3,0.1
		c-1.6,0.1-3.2,0.4-4.8,0.9c-5.3,1.7-9.5,4.8-13,9c-0.5,0.7-0.5,0.8,0.1,1.5c4.6,4.6,9.2,9.2,13.8,13.8c0.2,0.2,0.3,0.4,0.4,0.7
		c0.2,0.6,0.5,1.1,1,1.4c0.6,0.4,0.6,0.4,0.3,1.1c0,0.1-0.1,0.1-0.1,0.2c-0.4,1-0.8,2-1.3,3c-0.1,0.1-0.2,0.2-0.3,0.3
		c-1,0.4-1.9,1-2.7,1.8c-1.8,1.8-2.9,4.1-3.4,6.6c-0.1,0.5,0.2,0.9,0.8,0.9c5.1,0,10.3,0,15.4,0c0.6,0,0.9-0.3,0.8-0.9
		c-0.5-2.2-1.4-4.3-2.9-6c-0.3-0.3-0.7-0.6-0.7-0.9c0-0.3,0.3-0.7,0.5-1.1c0.1-0.4,0.4-0.5,0.7-0.4c1.5,0.2,2.9,0,4.4-0.4
		c0.5-0.1,0.7-0.4,0.7-0.8c0.2-1.2,0.4-2.4,0.6-3.6c0.1-0.8,0.2-1.7,1-2.3C38.7,28.8,38.7,28.4,38.4,28.1z"/>
	<g>
		<path fill="#FFC000" d="M29,4.2c0.2,0.2,0.4,0.4,0.5,0.7c2.1,5.9,4.1,11.7,6.2,17.6c0.3,0.8,0.6,1.7,0.6,2.6c0,0.8,0.4,1.4,1,1.9
			c0.4,0.4,0.7,0.7,1.1,1.1c0.3,0.3,0.3,0.7,0,1c-0.8,0.6-0.9,1.4-1,2.3c-0.2,1.2-0.4,2.4-0.6,3.6c-0.1,0.5-0.3,0.7-0.7,0.8
			c-1.4,0.4-2.9,0.6-4.4,0.4c-0.4,0-0.6,0-0.7,0.4c-0.1,0.4-0.5,0.7-0.5,1.1c0,0.3,0.5,0.6,0.7,0.9c1.5,1.7,2.4,3.8,2.9,6
			c0.1,0.6-0.2,0.9-0.8,0.9c-5.1,0-10.3,0-15.4,0c-0.6,0-0.9-0.3-0.8-0.9c0.6-2.5,1.6-4.8,3.4-6.6c0.8-0.8,1.6-1.4,2.7-1.8
			c0.1,0,0.3-0.2,0.3-0.3c0.4-1,0.9-2,1.3-3c0-0.1,0.1-0.1,0.1-0.2c0.3-0.7,0.3-0.7-0.3-1.1c-0.5-0.3-0.8-0.9-1-1.4
			c-0.1-0.2-0.2-0.5-0.4-0.7c-4.6-4.6-9.2-9.2-13.8-13.8c-0.6-0.6-0.6-0.8-0.1-1.5c3.5-4.2,7.7-7.4,13-9c1.5-0.5,3.1-0.8,4.8-0.9
			c0.1,0,0.2,0,0.3-0.1C28,4.2,28.5,4.2,29,4.2z M14.8,19.1c0.4,0.4,0.8,0.7,1.1,1.1c0.3,0.3,4.4,4.1,4.2,4.1
			c0.8,0.9,1.6,1.7,2.4,2.5c0.2,0.2,0.3,0.2,0.5,0.1c1.6-0.9,3.2-1.8,4.9-2.7c0.7-0.4,1.3-1,1.5-1.8c0.4-1.1,1.1-2,2.2-2.6
			c0.5-0.3,0.9-0.5,1.3-0.8c-0.8-2.2-1.5-4.3-2.3-6.4C25.1,13.9,19.8,16.1,14.8,19.1z M25,29.8c0.2,0.6,0.6,0.7,1.1,0.8
			c0.6,0.1,0.8,0.4,0.6,1c0,0.1,0,0.1-0.1,0.2c-0.2,0.6,0,1.1,0.5,1.4c2.5,1.5,5.2,1.9,8.1,1.2c0.1,0,0.3-0.2,0.3-0.3
			c0.2-1,0.3-2,0.5-2.9c0.2-0.9,0-1.9,0.9-2.6c-1.4-1.1-2.1-2.6-2.1-4.5C31.5,26,28.3,27.9,25,29.8z M10.6,14.7c1,1.2,1,1.2,2.2,0.6
			c0,0,0.1-0.1,0.1-0.1c4.9-2.5,9.9-4.8,15.3-6.4c0.4-0.1,0.8-0.2,1.2-0.3c-0.3-0.9-0.6-1.8-0.9-2.6c-0.1-0.3-0.2-0.3-0.5-0.3
			c-1.7,0.1-3.3,0.4-4.9,0.8c-3.5,1-6.6,2.8-9.3,5.2C12.7,12.6,11.6,13.7,10.6,14.7z M32.6,44c-0.4-1.9-1.9-4.5-2.9-5.1
			c-0.9,1-2.1,1.5-3.5,1.2c-1.4-0.3-2.3-1.2-2.7-2.6c-0.9,0.3-2.1,1.3-2.6,2c0.1,0,0.2,0.1,0.3,0.1c2.5,0.7,4.7,2,6.1,4.2
			c0.1,0.1,0.2,0.2,0.3,0.2C29.3,44,30.9,44,32.6,44z M29.8,35.8c-1.5-0.4-2.8-0.9-4-1.8c-0.3,0.7-0.7,1.4-0.9,2.1
			c-0.3,1,0.1,2,1.1,2.5c0.9,0.5,2.1,0.3,2.7-0.6C29.1,37.3,29.4,36.5,29.8,35.8z M18.6,44c2.5,0,4.8,0,7.2,0
			c-1.5-1.9-3.5-2.8-5.8-3.3C19.5,41.8,19.1,42.8,18.6,44z M33.5,20.3c-0.3,0.2-0.6,0.4-0.9,0.5c-0.9,0.5-1.5,1.2-1.9,2.2
			c-0.3,0.9-1,1.7-1.8,2.2c-0.8,0.5-1.7,0.9-2.5,1.4c-0.8,0.5-1.7,0.9-2.5,1.4c0.4,0.6,0.4,0.6,1,0.3c3-1.8,6-3.5,9-5.3
			c0.1-0.1,0.3-0.2,0.4-0.3C34.1,21.9,33.8,21.2,33.5,20.3z M15.2,15.6c-0.8,0.4-1.6,0.9-2.5,1.3c0.4,0.4,0.8,0.8,1.2,1.2
			c0.7-0.4,1.5-0.9,2.3-1.3C15.8,16.4,15.5,16,15.2,15.6z M27.1,10.6c0.2,0.4,0.4,0.8,0.6,1.1c0,0.1,0.2,0.2,0.3,0.2
			c0.8-0.2,1.6-0.4,2.4-0.6c-0.2-0.5-0.3-1-0.5-1.5C28.9,10.1,28,10.3,27.1,10.6z M23.1,13.5c-0.3-0.3-0.5-0.6-0.8-0.9
			c-0.1-0.1-0.2-0.1-0.3-0.1c-0.8,0.3-1.5,0.6-2.3,1c0.3,0.3,0.5,0.6,0.8,0.9c0.1,0.1,0.2,0.1,0.3,0C21.6,14.1,22.3,13.8,23.1,13.5z
			 M23.5,11.9c0.3,0.4,0.5,0.7,0.8,0.9c0.1,0.1,0.2,0.1,0.3,0.1c0.6-0.2,1.2-0.4,1.8-0.6c-0.2-0.4-0.4-0.8-0.6-1.3
			C25,11.3,24.3,11.6,23.5,11.9z M17.4,16.1c0.6-0.3,1.3-0.6,1.9-1c-0.3-0.4-0.6-0.7-0.9-1.1c-0.7,0.3-1.3,0.6-2,0.9
			C16.8,15.4,17.1,15.7,17.4,16.1z"/>
		<path opacity="0.5" fill="#7C6427" enable-background="new    " d="M15.2,15.6c0.3,0.4,0.7,0.8,1,1.2c-0.8,0.5-1.5,0.9-2.3,1.3
			c-0.4-0.4-0.8-0.8-1.2-1.2C13.5,16.5,14.3,16,15.2,15.6z M27.6,11.7c0,0.1,0.2,0.2,0.3,0.2c0.8-0.2,1.6-0.4,2.4-0.6
			c-0.2-0.5-0.3-1-0.5-1.5c-0.9,0.3-1.8,0.5-2.7,0.8C27.3,11,27.5,11.4,27.6,11.7z M22.3,12.6c-0.1-0.1-0.2-0.1-0.3-0.1
			c-0.8,0.3-1.5,0.6-2.3,1c0.3,0.3,0.5,0.6,0.8,0.9c0.1,0.1,0.2,0.1,0.3,0c0.8-0.3,1.5-0.6,2.3-1C22.8,13.2,22.6,12.9,22.3,12.6z
			 M24.3,12.8c0.1,0.1,0.2,0.1,0.3,0.1c0.6-0.2,1.2-0.4,1.8-0.6c-0.2-0.4-0.4-0.8-0.6-1.3c-0.8,0.3-1.5,0.5-2.3,0.8
			C23.8,12.2,24.1,12.5,24.3,12.8z M19.3,15.1c-0.3-0.4-0.6-0.7-0.9-1.1c-0.7,0.3-1.3,0.6-2,0.9c0.3,0.4,0.7,0.7,1,1.1
			C18,15.8,18.7,15.5,19.3,15.1z"/>
	</g>
	<path opacity="0.5" fill="#7C6427" enable-background="new    " d="M26.4,26.6c-0.8,0.5-1.7,0.9-2.5,1.4c0.4,0.6,0.4,0.6,1,0.3
		c3-1.8,6-3.5,9-5.3c0.1-0.1,0.3-0.2,0.4-0.3c-0.3-0.8-0.6-1.6-0.9-2.4c-0.3,0.2-0.6,0.4-0.9,0.5c-0.9,0.5-1.5,1.2-1.9,2.2
		c-0.3,0.9-1,1.7-1.8,2.2C28.1,25.7,27.2,26.2,26.4,26.6"/>
</g>
</svg>
