<?xml version="1.0" encoding="utf-8"?>
<!-- Generator: Adobe Illustrator 23.0.0, SVG Export Plug-In . SVG Version: 6.00 Build 0)  -->
<svg version="1.0" id="Layer_1" xmlns="http://www.w3.org/2000/svg" xmlns:xlink="http://www.w3.org/1999/xlink" x="0px" y="0px"
	 width="50px" height="50px" viewBox="0 0 50 50" enable-background="new 0 0 50 50" xml:space="preserve">
<path opacity="0.5" enable-background="new    " d="M42.5,23.2c-0.4-1.4-0.8-2.8-2.3-4.3c-0.9-1-2.1-1.8-3.6-2.5
	c0.3-0.7,0.7-1.4,1-1.9c0.8-1.2,0.8-2.7,0.1-4c-0.5-0.8-1.1-1.3-1.5-1.6c-2.9-2.1-5.7-3-7.7-3.5c-0.3-0.9-1-1.6-1.8-2.2
	C26,2.8,25,2.5,24.1,2.5c-0.1,0-0.1,0-0.2,0c-3.2,0.1-5.6,0.7-8.2,1.5c-1,0.3-1.9,1-2.5,1.9c-0.6,0.9-0.8,1.9-0.7,2.9
	c0,0.1,0,0.2,0,0.2c-0.8,0.7-1.4,1.4-1.8,1.9c-0.7,0.9-1.4,1.9-2,3c-0.6,1.2-1.1,2.4-1.4,3.6c-0.4,1.5-0.4,3-0.2,4.7
	C7.4,24.2,8,25.8,9,27.2c0.9,1.3,2,2.5,3.3,3.3c0.4,0.3,0.8,0.5,1.2,0.7c-0.1,0.1-0.1,0.3-0.2,0.5c0,0,0,0.1,0,0.1
	c-0.8,2.2-1.1,3-2.2,4.5c-1,1.3-1.2,2.9-0.5,4.3c0.5,1.1,1.4,2,2.6,2.5c1.9,0.8,3.8,1.4,5.7,1.7c0.8,0.1,1.6,0.2,2.5,0.2
	c0.6,0,1.3,0,2.1-0.1c0,0,0,0.1,0.1,0.1c0.6,1.2,1.7,2,3.1,2.3c0.4,0.1,0.8,0.1,1.1,0.1c0.6,0,1.3-0.1,1.9-0.3c4-1.4,5.3-2.7,7.4-5
	l0.2-0.2c0.5-0.6,0.9-1.3,1.2-2c0.3-1,0.4-2,0.1-2.9c0.2-0.2,0.4-0.5,0.6-0.7c1.6-2,2.7-3.3,3.4-5.5C43.1,28.4,43.2,25.7,42.5,23.2z
	"/>
<path d="M41.6,22.1c-0.4-1.3-0.8-2.6-2.2-4.1c-0.8-0.9-1.9-1.7-3.4-2.3c0.3-0.7,0.6-1.3,0.9-1.8c0.7-1.1,0.7-2.6,0.1-3.8
	c-0.5-0.8-1.1-1.2-1.4-1.5c-2.8-2-5.4-2.8-7.3-3.3c-0.3-0.8-0.9-1.5-1.7-2c-0.7-0.5-1.6-0.7-2.5-0.7c-0.1,0-0.1,0-0.2,0
	c-3,0.1-5.3,0.7-7.7,1.5c-1,0.3-1.8,0.9-2.4,1.8c-0.5,0.8-0.8,1.8-0.7,2.8c0,0.1,0,0.1,0,0.2c-0.7,0.6-1.3,1.3-1.7,1.8
	c-0.7,0.8-1.3,1.8-1.9,2.8c-0.6,1.1-1,2.2-1.3,3.4c-0.3,1.4-0.4,2.9-0.2,4.4C8.4,23,9,24.5,9.9,25.9c0.9,1.3,1.9,2.3,3.1,3.1
	c0.4,0.2,0.7,0.5,1.1,0.7c-0.1,0.1-0.1,0.3-0.2,0.4c0,0,0,0.1,0,0.1c-0.8,2.1-1,2.8-2.1,4.2c-0.9,1.2-1.1,2.7-0.5,4.1
	c0.5,1,1.3,1.9,2.5,2.4c1.8,0.8,3.6,1.3,5.4,1.6c0.8,0.1,1.5,0.2,2.3,0.2c0.6,0,1.2,0,2-0.1c0,0,0,0.1,0.1,0.1
	c0.5,1.1,1.6,1.9,2.9,2.2c0.4,0.1,0.7,0.1,1.1,0.1c0.6,0,1.2-0.1,1.8-0.3c3.8-1.3,5-2.5,7-4.7l0.1-0.2c0.5-0.6,0.9-1.2,1.1-1.9
	c0.3-1,0.4-1.9,0.1-2.7c0.2-0.2,0.4-0.5,0.5-0.7c1.5-1.9,2.6-3.1,3.2-5.1C42.1,27,42.2,24.4,41.6,22.1z"/>
<path fill="#00CC00" d="M17.8,6.1c2.1-0.7,3.9-1.1,6.3-1.2c0.3,0,0.5,0.1,0.7,0.2c0.2,0.1,0.3,0.3,0.4,0.5c0.1,0.3,0.1,0.5,0.2,0.8
	c0.1,0.2,0.2,0.4,0.4,0.5c0.2,0.2,0.5,0.3,0.7,0.3c2.1,0.4,4.2,1.2,6.5,2.8c0.2,0.1,0.4,0.2,0.4,0.4c0.1,0.2,0.1,0.3,0,0.4
	c-0.6,0.9-1.1,2-1.6,3.2c-0.1,0.1-0.2,0.2-0.4,0.3c-0.2,0-0.4,0-0.6-0.1c-1.3-0.6-2.7-0.8-4-0.8c-1.3,0-2.6,0.3-3.8,0.7
	c-0.3,0.1-0.8,0.3-1.2,0.4c-0.5,0.2-0.9,0.4-1.3,0.6c-0.4,0.2-0.7,0.5-0.9,0.8c-0.2,0.3-0.3,0.6-0.2,1c0.1,0.4,0.5,0.6,1.2,0.6
	c0.7,0.1,1.6,0,2.5-0.1c0.9-0.1,1.8-0.3,2.6-0.4c0.8-0.2,1.3-0.3,1.5-0.3c1-0.2,2.2-0.4,3.3-0.4c1.1,0.1,2.4,0.2,3.3,0.6
	c0.9,0.4,1.7,0.9,2.2,1.5c0.8,0.8,1,1.4,1.3,2.5c0.4,1.6,0.4,3.4-0.1,5c-0.5,1.6-1.3,2.4-3.2,4.7c-0.2,0.3-0.4,0.5-0.5,0.8
	c-0.1,0.3-0.1,0.6-0.1,0.7c0.1,0.3,0.2,0.5,0.2,0.8c0.1,0.2,0,0.4-0.1,0.7c-0.1,0.3-0.2,0.5-0.4,0.7c-1.7,1.9-2.3,2.7-5.3,3.7
	c-0.3,0.1-0.7,0.1-1,0.1c-0.3-0.1-0.5-0.2-0.6-0.4c-0.2-0.5-0.4-0.7-0.6-1.3c-0.1-0.2-0.3-0.4-0.6-0.5c-0.3-0.1-0.6-0.2-0.9-0.1
	c-1.5,0.2-2.8,0.3-4.2,0.1c-1.4-0.2-2.8-0.6-4.2-1.2c-0.4-0.2-0.6-0.4-0.7-0.6c-0.1-0.3-0.1-0.5,0.1-0.7c1.3-1.7,1.7-2.7,2.4-4.7
	c0.1-0.2,0.3-0.4,0.5-0.6c0.2-0.1,0.5-0.2,0.7-0.1c1.6,0.4,3.3,0.8,5.3,0.7c2-0.2,3.5-0.6,4.7-1.4c1.2-0.7,1.9-1.4,2.4-2
	c0.5-0.7,0.6-1.2,0.4-1.8c-0.1-0.3-0.3-0.4-0.6-0.4c-0.3,0-0.7,0-1.1,0.2c-0.5,0.1-1,0.3-1.6,0.6c-0.6,0.2-1.3,0.5-2,0.7
	c-0.7,0.2-1.5,0.4-2.5,0.7c-1,0.2-2.1,0.3-3.1,0.3c-0.9-0.1-1.8-0.2-2.7-0.3c-0.9-0.2-1.7-0.5-2.5-1c-0.8-0.5-1.5-1.2-2.1-2.1
	c-0.6-0.8-1-1.9-1.1-3c-0.2-1.1-0.1-2.1,0.1-3c0.2-0.9,0.5-1.7,0.9-2.4c0.4-0.8,0.9-1.4,1.4-2.1c0.5-0.6,1.1-1.3,1.8-1.8
	c0.2-0.1,0.4-0.3,0.5-0.6c0.1-0.2,0.2-0.5,0.1-0.7c0-0.4-0.1-0.6-0.1-1c0-0.2,0-0.4,0.2-0.6C17.4,6.3,17.6,6.1,17.8,6.1z"/>
<linearGradient id="SVGID_1_" gradientUnits="userSpaceOnUse" x1="24.9994" y1="46.1177" x2="24.9994" y2="12.9237" gradientTransform="matrix(1 0 0 -1 0 50.979)">
	<stop  offset="0" style="stop-color:#F2F2F2;stop-opacity:0.5"/>
	<stop  offset="9.010001e-02" style="stop-color:#F2F2F2;stop-opacity:0.4492"/>
	<stop  offset="0.8871" style="stop-color:#F2F2F2;stop-opacity:0"/>
</linearGradient>
<path fill="url(#SVGID_1_)" d="M17.8,6.1c2.1-0.7,3.9-1.1,6.3-1.2c0.3,0,0.5,0.1,0.7,0.2c0.2,0.1,0.3,0.3,0.4,0.5
	c0.1,0.3,0.1,0.5,0.2,0.8c0.1,0.2,0.2,0.4,0.4,0.5c0.2,0.2,0.5,0.3,0.7,0.3c2.1,0.4,4.2,1.2,6.5,2.8c0.2,0.1,0.4,0.2,0.4,0.4
	c0.1,0.2,0.1,0.3,0,0.4c-0.6,0.9-1.1,2-1.6,3.2c-0.1,0.1-0.2,0.2-0.4,0.3c-0.2,0-0.4,0-0.6-0.1c-1.3-0.6-2.7-0.8-4-0.8
	c-1.3,0-2.6,0.3-3.8,0.7c-0.3,0.1-0.8,0.3-1.2,0.4c-0.5,0.2-0.9,0.4-1.3,0.6c-0.4,0.2-0.7,0.5-0.9,0.8c-0.2,0.3-0.3,0.6-0.2,1
	c0.1,0.4,0.5,0.6,1.2,0.6c0.7,0.1,1.6,0,2.5-0.1c0.9-0.1,1.8-0.3,2.6-0.4c0.8-0.2,1.3-0.3,1.5-0.3c1-0.2,2.2-0.4,3.3-0.4
	c1.1,0.1,2.4,0.2,3.3,0.6c0.9,0.4,1.7,0.9,2.2,1.5c0.8,0.8,1,1.4,1.3,2.5c0.4,1.6,0.4,3.4-0.1,5c-0.5,1.6-1.3,2.4-3.2,4.7
	c-0.2,0.3-0.4,0.5-0.5,0.8c-0.1,0.3-0.1,0.6-0.1,0.7c0.1,0.3,0.2,0.5,0.2,0.8c0.1,0.2,0,0.4-0.1,0.7c-0.1,0.3-0.2,0.5-0.4,0.7
	c-1.7,1.9-2.3,2.7-5.3,3.7c-0.3,0.1-0.7,0.1-1,0.1c-0.3-0.1-0.5-0.2-0.6-0.4c-0.2-0.5-0.4-0.7-0.6-1.3c-0.1-0.2-0.3-0.4-0.6-0.5
	c-0.3-0.1-0.6-0.2-0.9-0.1c-1.5,0.2-2.8,0.3-4.2,0.1c-1.4-0.2-2.8-0.6-4.2-1.2c-0.4-0.2-0.6-0.4-0.7-0.6c-0.1-0.3-0.1-0.5,0.1-0.7
	c1.3-1.7,1.7-2.7,2.4-4.7c0.1-0.2,0.3-0.4,0.5-0.6c0.2-0.1,0.5-0.2,0.7-0.1c1.6,0.4,3.3,0.8,5.3,0.7c2-0.2,3.5-0.6,4.7-1.4
	c1.2-0.7,1.9-1.4,2.4-2c0.5-0.7,0.6-1.2,0.4-1.8c-0.1-0.3-0.3-0.4-0.6-0.4c-0.3,0-0.7,0-1.1,0.2c-0.5,0.1-1,0.3-1.6,0.6
	c-0.6,0.2-1.3,0.5-2,0.7c-0.7,0.2-1.5,0.4-2.5,0.7c-1,0.2-2.1,0.3-3.1,0.3c-0.9-0.1-1.8-0.2-2.7-0.3c-0.9-0.2-1.7-0.5-2.5-1
	c-0.8-0.5-1.5-1.2-2.1-2.1c-0.6-0.8-1-1.9-1.1-3c-0.2-1.1-0.1-2.1,0.1-3c0.2-0.9,0.5-1.7,0.9-2.4c0.4-0.8,0.9-1.4,1.4-2.1
	c0.5-0.6,1.1-1.3,1.8-1.8c0.2-0.1,0.4-0.3,0.5-0.6c0.1-0.2,0.2-0.5,0.1-0.7c0-0.4-0.1-0.6-0.1-1c0-0.2,0-0.4,0.2-0.6
	C17.4,6.3,17.6,6.1,17.8,6.1z"/>
<linearGradient id="SVGID_2_" gradientUnits="userSpaceOnUse" x1="25.0011" y1="46.1196" x2="25.0011" y2="12.9275" gradientTransform="matrix(1 0 0 -1 0 50.979)">
	<stop  offset="0" style="stop-color:#FFFFFF;stop-opacity:0.8"/>
	<stop  offset="7.370000e-02" style="stop-color:#DEDEDE;stop-opacity:0.7705"/>
	<stop  offset="0.2168" style="stop-color:#A4A4A4;stop-opacity:0.7133"/>
	<stop  offset="0.36" style="stop-color:#727272;stop-opacity:0.656"/>
	<stop  offset="0.4999" style="stop-color:#494949;stop-opacity:0.6"/>
	<stop  offset="0.6359" style="stop-color:#292929;stop-opacity:0.5456"/>
	<stop  offset="0.7669" style="stop-color:#121212;stop-opacity:0.4932"/>
	<stop  offset="0.8907" style="stop-color:#050505;stop-opacity:0.4437"/>
	<stop  offset="1" style="stop-color:#000000;stop-opacity:0.4"/>
</linearGradient>
<path fill="url(#SVGID_2_)" d="M37.4,20.7c-0.3-1-0.5-1.7-1.3-2.5c-0.5-0.6-1.3-1.1-2.2-1.5c-0.9-0.4-2.3-0.6-3.3-0.6
	c-1.1-0.1-2.2,0.1-3.3,0.4c-0.2,0-0.7,0.2-1.5,0.3c-0.8,0.2-1.6,0.3-2.6,0.4c-0.9,0.1-1.8,0.1-2.5,0.1c-0.7-0.1-1.2-0.3-1.2-0.6
	c-0.1-0.4,0-0.7,0.2-1c0.2-0.3,0.5-0.5,0.9-0.8c0.4-0.2,0.8-0.4,1.3-0.6c0.5-0.2,0.9-0.3,1.2-0.4c1.2-0.4,2.5-0.6,3.8-0.7
	c1.3,0,2.7,0.1,4,0.8c0.2,0.1,0.4,0.1,0.6,0.1c0.2,0,0.3-0.1,0.4-0.3c0.6-1.2,1.1-2.3,1.6-3.2c0.1-0.1,0.1-0.2,0-0.4
	c-0.1-0.1-0.2-0.3-0.4-0.4c-2.3-1.6-4.4-2.3-6.5-2.8c-0.2,0-0.5-0.1-0.7-0.3c-0.2-0.2-0.4-0.3-0.4-0.5c-0.1-0.3-0.1-0.5-0.2-0.8
	c0-0.2-0.2-0.3-0.4-0.5c-0.2-0.1-0.4-0.2-0.7-0.2c-2.4,0.1-4.2,0.5-6.3,1.2c-0.2,0.1-0.4,0.2-0.6,0.4c-0.1,0.2-0.2,0.4-0.2,0.6
	c0,0.4,0.1,0.6,0.1,1c0,0.2,0,0.5-0.1,0.7c-0.1,0.2-0.3,0.4-0.5,0.6c-0.6,0.5-1.2,1.1-1.8,1.8c-0.5,0.6-1,1.3-1.4,2.1
	c-0.4,0.8-0.7,1.5-0.9,2.4c-0.2,0.9-0.3,1.8-0.1,3c0.2,1.2,0.5,2.2,1.1,3c0.6,0.8,1.3,1.5,2.1,2.1c0.8,0.5,1.6,0.9,2.5,1
	c0.9,0.2,1.7,0.3,2.7,0.3c0.9,0.1,2.1,0,3.1-0.3c1-0.2,1.9-0.5,2.5-0.7c0.7-0.2,1.4-0.4,2-0.7c0.6-0.2,1.2-0.4,1.6-0.6
	c0.5-0.1,0.8-0.2,1.1-0.2c0.3,0,0.5,0.2,0.6,0.4c0.2,0.5,0,1.1-0.4,1.8c-0.5,0.7-1.2,1.4-2.4,2c-1.2,0.7-2.8,1.2-4.7,1.4
	c-2,0.2-3.7-0.3-5.3-0.7c-0.2-0.1-0.5,0-0.7,0.1c-0.2,0.1-0.4,0.3-0.5,0.6c-0.7,2-1.1,3.1-2.4,4.7c-0.2,0.2-0.2,0.4-0.1,0.7
	c0.1,0.3,0.4,0.5,0.7,0.6c1.4,0.6,2.9,1,4.2,1.2c1.4,0.2,2.7,0.1,4.2-0.1c0.3,0,0.6,0,0.9,0.1c0.3,0.1,0.5,0.3,0.6,0.5
	c0.2,0.5,0.4,0.8,0.6,1.3c0.1,0.2,0.3,0.3,0.6,0.4c0.3,0.1,0.7,0,1-0.1c3-1,3.7-1.8,5.3-3.7c0.2-0.2,0.3-0.5,0.4-0.7
	c0.1-0.3,0.1-0.5,0.1-0.7c-0.1-0.3-0.1-0.5-0.2-0.8c-0.1-0.2,0-0.4,0.1-0.7c0.1-0.3,0.3-0.6,0.5-0.8c1.9-2.3,2.7-3.1,3.2-4.7
	C37.8,24.1,37.8,22.3,37.4,20.7z M36.6,25.5c-0.4,1.2-1,1.9-2.3,3.5c-0.2,0.3-0.5,0.6-0.8,1c-0.3,0.3-0.5,0.7-0.6,1.1
	c-0.1,0.4-0.2,0.8-0.1,1.2l0.2,0.8l0,0c0,0,0,0.1-0.1,0.3c-0.1,0.2-0.2,0.4-0.3,0.5l-0.1,0.1c-1.6,1.8-2.4,2.4-4.2,3.1
	c-0.8,0.3-1.6,0-2.1-1c-0.2-0.4-0.5-0.6-0.9-0.8c-0.3-0.1-0.6-0.2-1-0.2c-0.1,0-0.2,0-0.3,0c-1,0.1-1.7,0.2-2.4,0.2
	c-0.6,0-1.1,0-1.6-0.1c-1.4-0.2-1.5-0.2-2.9-0.7c-1.2-0.5-0.5-1.7,0.2-3.1c0.9-1.8,1.1-3,2.3-2.6c1.5,0.4,1.8,0.5,3.5,0.5
	c0.3,0,0.6,0,0.9,0c2-0.2,3.6-0.6,5-1.5c1.2-0.7,2-1.4,2.6-2.2c0.6-0.8,0.8-1.6,0.5-2.4c-0.2-0.6-0.6-0.9-1.2-0.9
	c-0.1,0-0.1,0-0.2,0c-0.3,0-0.7,0.1-1.2,0.2c-0.5,0.1-1,0.3-1.7,0.6c-0.5,0.2-1.2,0.4-2,0.6l-0.1,0c-0.7,0.2-1.5,0.4-2.4,0.6
	c-0.7,0.2-1.6,0.3-2.3,0.3c-0.2,0-0.4,0-0.5,0c-1-0.1-1.8-0.2-2.6-0.3c-0.8-0.2-1.5-0.5-2.2-0.9c-0.7-0.5-1.3-1.1-1.9-1.9
	c-0.5-0.8-0.9-1.7-1-2.7c-0.1-1-0.1-1.9,0.1-2.7c0.2-0.8,0.5-1.5,0.9-2.2c0.4-0.7,0.8-1.4,1.3-2c0.6-0.7,1.1-1.3,1.7-1.7
	c0.3-0.2,0.5-0.5,0.7-0.8c0.2-0.4,0.2-0.7,0.2-1.1c0-0.4-0.1-0.6-0.1-1c0,0,0-0.1,0.1-0.2c0-0.1,0.1-0.1,0.2-0.1
	c2.1-0.7,3.8-1.1,6.2-1.2c0,0,0,0,0,0c0.1,0,0.2,0,0.3,0.1c0.1,0,0.1,0.1,0.1,0.1l0.2,0.8c0.1,0.3,0.3,0.6,0.7,0.9
	c0.3,0.2,0.6,0.4,0.9,0.4c2.4,0.5,4.3,1.3,6.2,2.6c0.3,0.2,0.3,0.5-0.4,1.7c-0.8,1.4-1.1,1.4-1.6,1.1c-1.2-0.5-2-0.6-3.4-0.6
	c-0.1,0-0.3,0-0.4,0c-1.4,0-2.7,0.3-4,0.7c-0.4,0.1-0.8,0.3-1.2,0.4c-0.5,0.2-1,0.4-1.4,0.6c-0.5,0.3-0.8,0.6-1.1,0.9
	c-0.3,0.5-0.4,1-0.3,1.5c0.2,0.7,0.8,1,1.9,1.1c0.2,0,0.5,0,0.8,0c0.6,0,1.2,0,1.9-0.1c0.9-0.1,1.8-0.3,2.6-0.4
	c0.6-0.1,1-0.2,1.3-0.3l0.2,0c0.7-0.2,1.7-0.4,2.7-0.4c0.1,0,0.3,0,0.4,0c1,0.1,2.3,0.2,3.1,0.6c0.9,0.4,1.5,0.9,2,1.3
	c0.7,0.7,0.9,1.2,1.1,2.2C37.1,22.3,37.1,24,36.6,25.5z"/>
</svg>
