<?xml version="1.0" encoding="utf-8"?>
<!-- Generator: Adobe Illustrator 23.0.0, SVG Export Plug-In . SVG Version: 6.00 Build 0)  -->
<svg version="1.0" id="follow_x5F_icon" xmlns="http://www.w3.org/2000/svg" xmlns:xlink="http://www.w3.org/1999/xlink" x="0px"
	 y="0px" viewBox="0 0 50 50" enable-background="new 0 0 50 50" xml:space="preserve">
<g>
	<g>
		<path fill="#FFDB6C" d="M24.8,4c11.8-0.4,21.6,9,19.8,21c-1.7,11-10.8,21.3-22.3,21C11.4,45.7,2,36,2.5,25C3,13.4,13.2,4.4,24.8,4
			z"/>
		<path fill="#FCC56B" d="M26.6,43C15.6,42.6,6.7,33.1,7.2,22c0.3-6,3.2-11.5,7.6-15.4C7.7,10.2,2.8,17.2,2.5,25
			c-0.3,11.1,8.8,20.5,19.8,21c5.1,0.2,9.8-1.8,13.6-5.1C33,42.3,29.9,43.1,26.6,43z"/>
		<path fill="#20212D" d="M12,13.8c5.7-1.3,10.3-1,15.3,0.1c0.7,0.2,1.5,0.3,2.3,0.3c1.4,0,3-0.3,4.4-0.7c5.5-1.4,9.6-0.8,13.5,0
			c-0.2,1-0.3,1.4-0.6,2.4c-0.6,0-0.9,0.3-1.1,0.9c-1.3,3-1.2,8.1-7.9,7.5c-4.4-0.4-5.5-1.6-7.1-7c-0.1-0.5-0.2-1.2-1.2-1.2
			c-0.6,0-1.1,0.1-1.4,1.1c-0.5,1.9-3.6,7-8.8,7c-4.6,0-6.2-2.3-6.1-7.5c0-0.6-0.6-0.8-0.9-0.8C12.2,15.2,12.1,14.7,12,13.8L12,13.8
			z"/>
		<g>
			<path fill="#737891" d="M20.3,13c-1.5,4.4-2.4,6.5-4,10.9c0.8,0.3,1.8,0.5,3.1,0.5c0,0,0,0,0.1,0c1.7-4.4,2.5-6.7,4.1-11.1
				C22.5,13.1,21.4,13,20.3,13z"/>
			<path fill="#737891" d="M40.8,12.7c-1.1,0-2.2,0-3.5,0.2c-1.5,4-2.4,6-4,9.9c0.7,0.7,1.6,1,2.8,1.3C38.1,19.6,39,17.3,40.8,12.7z
				"/>
		</g>
		<path fill="#916E3A" d="M27.9,36.9c-1.8,0-3.5-0.5-4.8-1.5c-0.4-0.3-0.5-0.8-0.1-1.2c0.4-0.4,1.1-0.4,1.5-0.1
			c1.5,1.1,3.7,1.4,5.6,0.8c1.9-0.6,3.4-2,4-3.7c0.1-0.5,0.7-0.8,1.3-0.7s0.9,0.5,0.8,1c-0.7,2.3-2.8,4.2-5.4,5
			C29.8,36.8,28.9,37,27.9,36.9z"/>
	</g>
</g>
</svg>
