<?xml version="1.0" encoding="utf-8"?>
<!-- Generator: Adobe Illustrator 23.0.0, SVG Export Plug-In . SVG Version: 6.00 Build 0)  -->
<svg version="1.0" id="follow_x5F_icon" xmlns="http://www.w3.org/2000/svg" xmlns:xlink="http://www.w3.org/1999/xlink" x="0px"
	 y="0px" viewBox="0 0 50 50" enable-background="new 0 0 50 50" xml:space="preserve">
<g>
	<g opacity="0.25">
		<path opacity="0.25" enable-background="new    " d="M41.7,39.2c-2.2,1-8.3,3.4-10.6,4.5c-2.2,1-4.7-0.4-5.3-2.8
			c-3.1-10.8-6-24.8-6-27.9c0-1.5,0.6-2.5,2.2-2.9c1.6-0.5,11.4-2.5,12.8-2.8c1.4-0.2,2.6,1.1,2.9,2.5c1.4,5.6,3.6,13.4,7.2,24.4
			C45.5,35.8,43.9,38.2,41.7,39.2z"/>
		<path fill="#FFFFFF" d="M42.8,33.4c-0.6-2.3-3.9-14.2-6.7-24.9c-0.3-1.4-1.6-2.7-2.8-2.5c-4.8,0.7-11.7,2.3-12.8,2.8
			c-1,0.4-2.1,1.6-2.1,3.3c0,4.8,4.7,25,5.9,27.9c1.2,2.9,3.2,3.5,5.3,2.9c4.3-1.5,6.3-2.6,10.6-4.3C42.4,37.6,43.6,35.8,42.8,33.4z
			 M39.9,38c-1.7,0.7-3.9-0.2-4.3-1.7c-0.4-1.6,0.7-3.4,2.5-4.3c1.8-0.7,3.9,0,4.3,1.7C42.9,35.2,41.5,37.1,39.9,38z"/>
	</g>
	<g opacity="0.5">
		<path opacity="0.25" enable-background="new    " d="M35,39.2c-2.2,1-8.3,3.4-10.6,4.5c-2.2,1-4.7-0.4-5.3-2.8
			C15.9,30,13,16.1,13,13c0-1.5,0.6-2.5,2.2-2.9C16.8,9.5,26.6,7.6,28,7.3c1.4-0.2,2.6,1.1,2.9,2.5c1.4,5.6,3.6,13.4,7.2,24.4
			C38.7,35.8,37.2,38.2,35,39.2z"/>
		<path fill="#FFFFFF" d="M36.1,33.4c-0.6-2.3-3.9-14.2-6.7-24.9c-0.3-1.4-1.6-2.7-2.8-2.5C21.9,6.7,15,8.3,13.8,8.8
			c-1,0.4-2.1,1.6-2.1,3.3c0,4.8,4.7,24.9,5.8,27.9c1.2,2.9,3.2,3.5,5.3,2.9c4.3-1.5,6.3-2.6,10.6-4.3
			C35.6,37.6,36.8,35.8,36.1,33.4z M33.1,38c-1.7,0.8-3.9-0.2-4.3-1.7c-0.4-1.6,0.7-3.4,2.5-4.3c1.8-0.7,3.9,0,4.3,1.7
			C36.1,35.2,34.8,37.1,33.1,38z"/>
	</g>
	<g id="front_x5F_flyer_1_">
		<path id="shawod1_1_" opacity="0.25" enable-background="new    " d="M28.2,39.2c-2.2,1-8.3,3.4-10.6,4.5c-2.2,1-4.7-0.4-5.3-2.8
			C9.2,30,6.2,16.1,6.2,13c0-1.5,0.6-2.5,2.2-2.9C10,9.5,19.9,7.6,21.2,7.3c1.4-0.2,2.6,1.1,2.9,2.5c1.4,5.6,3.6,13.4,7.2,24.4
			C32,35.8,30.4,38.2,28.2,39.2z"/>
		<path fill="#FFFFFF" d="M29.4,33.4c-0.6-2.3-3.9-14.2-6.7-24.9c-0.3-1.4-1.6-2.7-2.8-2.5C15.1,6.7,8.2,8.3,7.1,8.8
			C6,9.2,5,10.4,5,12.1C5,16.9,9.7,37,10.9,40c1.2,2.9,3.2,3.5,5.3,2.9c4.3-1.5,6.3-2.6,10.6-4.3C28.8,37.6,30.1,35.8,29.4,33.4z
			 M26.3,38c-1.7,0.8-3.9-0.2-4.3-1.7c-0.4-1.6,0.7-3.4,2.5-4.3c1.8-0.7,3.9,0,4.3,1.7C29.4,35.2,28,37.1,26.3,38z"/>
	</g>
</g>
</svg>
