<?xml version="1.0" encoding="utf-8"?>
<!-- Generator: Adobe Illustrator 23.0.0, SVG Export Plug-In . SVG Version: 6.00 Build 0)  -->
<svg version="1.0" id="follow_x5F_icon" xmlns="http://www.w3.org/2000/svg" xmlns:xlink="http://www.w3.org/1999/xlink" x="0px"
	 y="0px" viewBox="0 0 50 50" enable-background="new 0 0 50 50" xml:space="preserve">
<g id="front_x5F_flyer_2_" opacity="0.5">
	<path id="shawod1_2_" opacity="0.25" enable-background="new    " d="M43.1,28c-1,0.4-3.7,1.5-4.7,2c-1,0.4-2-0.2-2.4-1.2
		c-1.4-4.8-2.7-11-2.7-12.3c0-0.6,0.3-1.1,1-1.3c0.7-0.3,5.1-1.2,5.7-1.2c0.6-0.1,1.2,0.4,1.3,1.2c0.6,2.5,1.6,6,3.2,10.8
		C44.7,26.4,44.1,27.5,43.1,28z"/>
	<path fill="#FFFFFF" enable-background="new    " d="M43.6,25.5c-0.3-1.1-1.7-6.3-2.9-11.1c-0.1-0.7-0.7-1.2-1.2-1.2
		c-2.1,0.3-5.2,1-5.7,1.2c-0.5,0.3-1,0.7-1,1.5c0,2.1,2,11,2.7,12.3c0.6,1.3,1.4,1.6,2.4,1.3c1.9-0.6,2.8-1.2,4.7-1.9
		C43.4,27.2,43.9,26.4,43.6,25.5z M42.2,27.3c-0.7,0.4-1.7-0.1-1.9-0.7c-0.2-0.7,0.4-1.5,1.2-1.9c0.8-0.4,1.7,0,1.9,0.7
		C43.6,26.2,43,27,42.2,27.3z"/>
</g>
<g id="front_x5F_flyer_1_" opacity="0.75">
	<path id="shawod1_1_" opacity="0.25" enable-background="new    " d="M36.7,33.5c-1.5,0.7-5.7,2.4-7.2,3c-1.5,0.6-3.2-0.3-3.6-1.9
		c-2.1-7.4-4.2-16.9-4.2-19c0-1,0.4-1.7,1.5-2c1.1-0.4,7.8-1.7,8.8-1.9c0.9-0.2,1.8,0.7,2,1.7c0.9,3.9,2.5,9.2,4.9,16.6
		C39.3,31.2,38.2,32.7,36.7,33.5z"/>
	<path fill="#FFFFFF" enable-background="new    " d="M37.4,29.5c-0.4-1.6-2.7-9.7-4.5-17.1c-0.1-1-1-1.9-1.9-1.7
		c-3.3,0.4-8.1,1.5-8.8,1.9c-0.7,0.4-1.4,1.1-1.4,2.3c0,3.3,3.2,17,4.1,19c0.9,2,2.2,2.5,3.6,2c2.8-1,4.3-1.7,7.2-2.8
		C37.2,32.4,38,31.2,37.4,29.5z M35.4,32.5c-1.2,0.4-2.6-0.1-2.9-1.2c-0.3-1.1,0.5-2.4,1.8-2.8c1.2-0.4,2.6,0.1,2.9,1.2
		C37.5,30.7,36.5,32,35.4,32.5z"/>
</g>
<g id="front_x5F_flyer_3_">
	<path id="shawod1_3_" opacity="0.25" enable-background="new    " d="M29.9,39.9c-2.3,1.1-8.8,3.6-11.1,4.7
		c-2.3,1.1-4.9-0.4-5.6-2.9c-3.3-11.4-6.4-26-6.4-29.3c0-1.5,0.6-2.6,2.3-3.1s12.1-2.7,13.5-2.9C24,6.1,25.3,7.5,25.7,9
		c1.4,6,3.8,14.1,7.6,25.6C33.8,36.4,32.2,38.9,29.9,39.9z"/>
	<path fill="#FFFFFF" enable-background="new    " d="M31.1,33.9c-0.7-2.4-4.1-14.9-7-26.2c-0.3-1.5-1.6-2.9-2.9-2.7
		C16.1,5.7,8.8,7.4,7.7,8c-1.2,0.5-2.2,1.7-2.2,3.6c0,5.1,4.9,26.2,6.2,29.3c1.3,3.1,3.4,3.8,5.6,3.1c4.4-1.5,6.7-2.7,11.1-4.4
		C30.5,38.3,31.8,36.4,31.1,33.9z M27.8,38.6c-1.8,0.8-4-0.2-4.4-1.8s0.8-3.6,2.7-4.4c1.9-0.7,4,0.1,4.4,1.8
		C31,35.9,29.6,37.8,27.8,38.6z"/>
</g>
</svg>
