<?xml version="1.0" encoding="utf-8"?>
<!-- Generator: Adobe Illustrator 23.0.0, SVG Export Plug-In . SVG Version: 6.00 Build 0)  -->
<svg version="1.0" id="follow_x5F_icon" xmlns="http://www.w3.org/2000/svg" xmlns:xlink="http://www.w3.org/1999/xlink" x="0px"
	 y="0px" viewBox="0 0 50 50" enable-background="new 0 0 50 50" xml:space="preserve">
<g id="front_x5F_flyer">
	<path id="shawod1_1_" opacity="0.25" enable-background="new    " d="M21.5,23.4c-1.3,0.3-4.9,0.8-6.1,1.1s-2.4-0.8-2.5-2.1
		C12.5,16.4,12.6,8.8,13,7.2C13.1,6.5,13.6,6,14.5,6c0.9-0.1,6.4,0.1,7.2,0.1c0.7,0,1.2,0.9,1.2,1.7c0,3,0.3,7.4,0.9,13.4
		C23.9,22.1,22.8,23.1,21.5,23.4z"/>
	<path fill="#FFFFFF" enable-background="new    " d="M22.3,6.9c0.1-0.8-0.4-1.7-1.2-1.7c-2.7-0.3-6.6-0.3-7.2-0.1
		c-0.6,0.1-1.3,0.6-1.5,1.5c-0.5,2.5-0.6,13.3-0.3,15.1s1.2,2.3,2.5,2.2c2.4-0.3,3.6-0.6,6.1-1c1.2-0.4,2.1-1.2,2-2.4
		C22.7,19.3,22.5,12.7,22.3,6.9z M20.6,22.5c-1,0.2-2-0.5-2-1.4c0-0.9,0.8-1.7,1.9-2c1.1-0.1,2,0.5,2,1.4
		C22.6,21.4,21.6,22.2,20.6,22.5z"/>
</g>
<g id="front_x5F_flyer_1_">
	<path id="shawod1_2_" opacity="0.25" enable-background="new    " d="M24.5,43.1c-1.3,0.4-4.7,1.3-5.9,1.8
		c-1.2,0.4-2.5-0.5-2.8-1.8c-1.1-5.9-2-13.4-1.8-15c0.1-0.7,0.4-1.3,1.3-1.4c0.9-0.2,6.4-0.7,7.2-0.8c0.7-0.1,1.3,0.7,1.4,1.5
		c0.4,3,1.2,7.3,2.6,13.2C26.7,41.5,25.8,42.7,24.5,43.1z"/>
	<path fill="#FFFFFF" enable-background="new    " d="M25.6,40.1c-0.3-1.2-1.3-7.7-2.2-13.5c0-0.8-0.6-1.6-1.3-1.5
		c-2.8,0.1-6.6,0.5-7.2,0.8c-0.6,0.2-1.2,0.8-1.3,1.7c-0.3,2.6,1.1,13.3,1.6,15c0.6,1.7,1.5,2.1,2.8,1.9c2.3-0.5,3.6-1.1,5.9-1.7
		C24.9,42.2,25.7,41.3,25.6,40.1z M23.5,42.3c-1,0.3-2-0.3-2.2-1.2c-0.1-0.9,0.6-1.8,1.6-2.1c1.1-0.3,2.1,0.4,2.2,1.2
		C25.3,41.1,24.4,42,23.5,42.3z"/>
</g>
<g id="front_x5F_flyer_2_">
	<path id="shawod1_3_" opacity="0.25" enable-background="new    " d="M36.2,39.7c-1.2,0.4-4.3,1.3-5.4,1.7
		c-1.1,0.4-2.2-0.4-2.5-1.5c-1.1-5.1-2-11.7-1.9-13.1c0.1-0.6,0.4-1.2,1.2-1.2c0.8-0.2,5.8-0.7,6.5-0.8c0.6-0.1,1.2,0.6,1.3,1.2
		c0.4,2.7,1.2,6.3,2.5,11.5C38.3,38.3,37.5,39.4,36.2,39.7z"/>
	<path fill="#FFFFFF" enable-background="new    " d="M37,37.2c-0.3-1.1-1.3-6.7-2.2-11.8c0-0.7-0.6-1.4-1.2-1.3
		c-2.4,0.1-5.9,0.5-6.5,0.8c-0.5,0.2-1.1,0.7-1.2,1.5c-0.1,2.3,1.2,11.6,1.8,13.1s1.3,1.9,2.5,1.6c2.1-0.5,3.2-1,5.4-1.6
		C36.7,39,37.4,38.2,37,37.2z M35.3,39.1c-0.9,0.3-1.9-0.2-2-1c-0.1-0.8,0.5-1.5,1.4-1.9c1-0.3,2,0.2,2,1
		C36.9,38,36.1,38.8,35.3,39.1z"/>
</g>
<g id="front_x5F_flyer_3_">
	<path id="shawod1_4_" opacity="0.25" enable-background="new    " d="M33.2,22c-1.2,0.2-4.4,0.5-5.6,0.7c-1.2,0.2-2.1-0.8-2.2-2
		c-0.2-5.1,0.2-11.8,0.5-13.2c0.2-0.6,0.6-1.1,1.4-1.1c0.8-0.1,5.9,0.3,6.6,0.3c0.6,0,1.1,0.8,1.1,1.5c-0.1,2.7,0,6.5,0.4,11.8
		C35.4,20.9,34.4,21.8,33.2,22z"/>
	<path fill="#FFFFFF" enable-background="new    " d="M34.4,7.6c0.1-0.7-0.4-1.5-1-1.5c-2.4-0.3-6-0.4-6.6-0.3
		c-0.5,0.1-1.2,0.4-1.4,1.2c-0.5,2.2-1,11.7-0.7,13.2c0.3,1.5,1.1,2,2.2,2c2.1-0.1,3.3-0.4,5.6-0.6c1.2-0.3,2-1,2-2
		C34.4,18.5,34.4,12.7,34.4,7.6z M32.4,21.2c-0.9,0.1-1.8-0.5-1.8-1.3c0-0.8,0.8-1.4,1.8-1.6c0.9-0.1,1.8,0.5,1.8,1.3
		C34.3,20.4,33.3,21,32.4,21.2z"/>
</g>
</svg>
