<?xml version="1.0" encoding="utf-8"?>
<!-- Generator: Adobe Illustrator 23.0.0, SVG Export Plug-In . SVG Version: 6.00 Build 0)  -->
<svg version="1.0" id="Layer_1" xmlns="http://www.w3.org/2000/svg" xmlns:xlink="http://www.w3.org/1999/xlink" x="0px" y="0px"
	 viewBox="0 0 50 50" enable-background="new 0 0 50 50" xml:space="preserve">
<path fill="#FFFFFF" d="M44.6,27.2c-1.8-3.1-3.6-6.2-5.3-9.3c-1.3-2.3-2.5-4.6-3.8-6.8c-0.3-0.6-0.8-1.1-1.5-1.1
	c-0.3,0-0.7,0.1-0.9,0.1c-1.8,0.4-3.2,0.4-5,0.1c-1.6-0.3-3.2-1.3-4.6-2.1C19.3,5.5,14.9,5,10.1,6.9C9.3,7.1,8.6,7.6,7.8,8
	C7.7,7.5,7.5,7.1,7.7,6.6C7.9,5.5,7,4.7,6,5.1C5.6,5.2,5.4,5.6,5.1,5.9C5.1,6.1,5,6.3,5,6.5c0.2,0.3,0.3,0.7,0.5,0.9
	c0.2,0.2,0.3,0.4,0.4,0.7c3.2,12.1,6.8,24.1,10.9,35.9c0.1,0.2,0.1,0.3,0.2,0.5c0.2,0.4,0.8,0.5,1.4,0.4c0.6-0.1,1-0.6,1-1
	c0-0.2-0.1-0.4-0.2-0.6c-1.9-5.2-3.7-10.4-5.4-15.6c0-0.2-0.1-0.3-0.1-0.5c2.9-1.4,5.8-2.3,9.2-2.2c3,0.1,5.7,1.2,8.1,2.5
	c4,2.1,8.2,2.9,12.7,2C45,29.3,45.4,28.4,44.6,27.2z"/>
</svg>
