<?xml version="1.0" encoding="utf-8"?>
<!-- Generator: Adobe Illustrator 23.0.0, SVG Export Plug-In . SVG Version: 6.00 Build 0)  -->
<svg version="1.0" id="terms_icon" xmlns="http://www.w3.org/2000/svg" xmlns:xlink="http://www.w3.org/1999/xlink" x="0px" y="0px"
	 width="50px" height="50px" viewBox="0 0 50 50" enable-background="new 0 0 50 50" xml:space="preserve">
<path fill="#FFFFFF" d="M18.3,42.4c-2.5,0-3.8,0-6.4,0c-2.1,0-3.7-1.4-3.5-3.2c0.9-9.7,2.9-19.6,5.4-29C14.3,8.4,15.7,6.9,17,7
	c5.8,0.2,8.7,0.2,14.6,0.2c1.3,0,2.5,1.5,2.6,3.3c0.3,4,0.4,6,0.9,10c0.1,0.9,0.9,1.6,1.7,1.6c0.8,0,1.3-0.7,1.2-1.6
	c-0.6-4-0.9-6-1.3-10c-0.4-3.6-2.7-6.5-5.2-6.6C26,3.9,23.2,3.8,17.8,3.6c-2.4-0.1-5.3,2.8-6.4,6.5C8.4,19.6,6,29.5,4.7,39.3
	c-0.5,3.6,2.8,6.5,7.1,6.4c2.6,0,3.9,0,6.6,0c1.1,0,1.9-0.7,1.8-1.6S19.3,42.4,18.3,42.4z M42.1,27.6c-2.3-1.9-5.2-1.9-6.8,0
	c-3,3.6-4.7,5.4-8.2,8.9c-0.2,0.2-0.3,0.4-0.4,0.7c-0.6,2.6-1,3.9-1.6,6.4c-0.2,0.9,0.5,1.8,1.5,2.1c0.4,0.1,0.7,0.1,1.1,0
	c3-0.7,4.5-1.1,7.4-1.7c0.3-0.1,0.6-0.2,0.7-0.4c3.4-3.6,5-5.4,7.8-8.9C45.3,32.7,44.4,29.5,42.1,27.6
	C42.1,27.6,42.1,27.6,42.1,27.6z M33.1,40.8c-1.4,0.4-2.2,0.5-3.6,0.9c0.3-1.3,0.4-1.9,0.7-3.2c2.4-2.4,3.5-3.6,5.6-6
	c1.1,0.9,1.7,1.4,2.8,2.3C36.5,37.2,35.4,38.4,33.1,40.8z M40.8,32.2c-0.1,0.1-0.2,0.2-0.3,0.3c-1.2-0.9-1.7-1.4-2.8-2.3
	c0.1-0.1,0.2-0.2,0.3-0.3c0.5-0.6,1.5-0.6,2.3,0C41.1,30.5,41.3,31.6,40.8,32.2z M14.9,26.7c-0.9,0-1.7,0.7-1.8,1.6
	C13,29.3,13.6,30,14.5,30l0,0c4.1,0,6.2,0,10.3,0c0.9,0,1.6-0.7,1.6-1.6s-0.8-1.6-1.6-1.6C20.8,26.7,18.9,26.7,14.9,26.7z
	 M32.3,21.9c-0.1-0.9-0.8-1.6-1.6-1.6c0,0,0,0,0,0c-6,0-9,0-15,0c-0.8,0-1.6,0.7-1.7,1.6c-0.2,0.9,0.4,1.6,1.2,1.6
	c6.2,0,9.4,0,15.6,0C31.8,23.5,32.4,22.8,32.3,21.9C32.3,21.9,32.3,21.9,32.3,21.9z M30.5,13.7c-5.5,0-8.2,0-13.6-0.1
	c-0.7,0-1.5,0.7-1.6,1.6c-0.2,0.9,0.3,1.7,1.1,1.7c5.7,0,8.5,0.1,14.3,0.1c0.8,0,1.3-0.7,1.3-1.6C31.9,14.4,31.2,13.7,30.5,13.7
	C30.5,13.7,30.5,13.7,30.5,13.7C30.5,13.7,30.5,13.7,30.5,13.7z"/>
</svg>
