<?xml version="1.0" encoding="utf-8"?>
<!-- Generator: Adobe Illustrator 23.0.0, SVG Export Plug-In . SVG Version: 6.00 Build 0)  -->
<svg version="1.0" id="Layer_1" xmlns="http://www.w3.org/2000/svg" xmlns:xlink="http://www.w3.org/1999/xlink" x="0px" y="0px"
	 viewBox="0 0 50 50" enable-background="new 0 0 50 50" xml:space="preserve">
<g>
	<g>
		<g>
			<path fill="#FFFFFF" d="M27.8,5.5c-1.6,4.5-2.3,6.9-3.7,12c3.1,0,4.7-0.1,7.7-0.1c1.2-5.1,1.7-7.5,3-12.2
				c1.8-0.1,2.7-0.1,4.4-0.2c-1.2,4.9-1.6,7.3-2.5,12.4c3.5,0,5.2,0.1,8.3,0.1c-0.2,1.6-0.3,2.4-0.5,4.1c-3.3,0-5-0.1-8.6-0.1
				c-0.6,3-0.9,4.5-1.6,7.5c4,0,6,0,9.7,0c-0.3,1.7-0.4,2.5-0.7,4.2c-3.8,0-5.9,0.1-10,0c-1.5,5.1-2.4,7.5-4.6,11.8
				c-2.2-0.1-3.2-0.1-5.4-0.2c2.1-4.2,3-6.7,4.5-11.7c-3.4,0-5.1-0.1-8.4-0.2c-1.6,4.9-2.5,7.2-4.6,11.5c-2.1-0.1-3.2-0.1-5.4-0.2
				c2.2-4.5,3-6.7,4.6-11.5c-3.8-0.1-5.7-0.2-9.2-0.4c0.6-1.5,0.8-2.2,1.4-3.8c3.5,0.1,5.3,0.1,9.2,0.2c0.9-2.9,1.3-4.3,2.2-7.3
				c-4,0.1-6,0.1-9.6,0.2c0.5-1.6,0.7-2.4,1.3-3.9c3.7-0.2,5.7-0.2,9.6-0.3c1.6-5,2.4-7.5,4.2-11.9C25.1,5.6,26,5.5,27.8,5.5z
				 M30.9,21.5c-3.2,0-4.8,0-8.1,0c-0.8,3-1.2,4.5-2.1,7.4c3.3,0,5,0.1,8.4,0.1C29.9,26.1,30.2,24.6,30.9,21.5z"/>
		</g>
	</g>
</g>
</svg>
