<?xml version="1.0" encoding="utf-8"?>
<!-- Generator: Adobe Illustrator 23.0.0, SVG Export Plug-In . SVG Version: 6.00 Build 0)  -->
<svg version="1.0" id="Layer_1" xmlns="http://www.w3.org/2000/svg" xmlns:xlink="http://www.w3.org/1999/xlink" x="0px" y="0px"
	 viewBox="0 0 50 50" enable-background="new 0 0 50 50" xml:space="preserve">
<g>
	<g>
		<path fill="#FFFFFF" d="M36.1,3.4c0.5,0.3,0.9,0.7,1,1.3c0.1,0.7-0.5,1.3-1.3,1.2c-0.3,0-0.6-0.1-0.9-0.1c0,0.2,0,0.3,0,0.5
			c-0.2,4.4-0.4,8.8-0.6,13.2c0,0.3,0.1,0.5,0.4,0.7c4.1,2.3,6.8,6.6,7.2,11c-0.1,0-0.2,0-0.2,0c-0.8-0.3-1.7-0.3-2.5,0.1
			c-0.8,0.3-1.4,0.3-2.1-0.2c-1.1-0.7-2.2-0.8-3.4-0.3c-0.7,0.4-1.4,0.4-2.1-0.1c-1.1-0.7-2.3-0.8-3.5-0.1c-0.7,0.4-1.4,0.4-2.1,0
			c-0.5-0.3-1.1-0.4-1.8-0.6c-0.1-8.1-0.1-16.4-0.2-24.6c-0.3,0-0.6,0-0.8,0c-0.7,0-1.3-0.3-1.5-0.9c-0.2-0.7,0.2-1.2,0.9-1.6
			c0,0,0.1-0.1,0.1-0.1C27.1,2.3,31.6,2.6,36.1,3.4z M31.7,25c-0.7,0-1.2,0.5-1.2,1.2c0,0.7,0.5,1.3,1.2,1.4c0.7,0,1.3-0.5,1.3-1.3
			C32.9,25.7,32.4,25.1,31.7,25z"/>
		<path fill="#FFFFFF" d="M27.7,47.5c-0.8-0.2-1.7-0.4-2.5-0.6c-0.7-0.2-1.3-0.6-2.1-0.9c0.2-0.4,0.3-0.8,0.5-1.2
			c0.4-1.2,0.6-2.5,0.6-3.8c0-2.6-0.1-5.2-0.1-7.8c0-0.2,0-0.3,0-0.6c0.2,0,0.3,0.1,0.5,0.1c0.3,0.1,0.5,0.2,0.8,0.3
			c1,0.5,2.1,0.6,3.1,0c0.8-0.5,1.6-0.4,2.3,0.1c1,0.7,2.1,0.6,3.2,0.2c0.1,0,0.2-0.1,0.3-0.1c0.6-0.3,1.1-0.2,1.6,0.1
			c1.2,0.9,2.5,1,3.9,0.4c0.6-0.3,1.2-0.1,1.8,0.2c0.2,0.1,0.3,0.2,0.3,0.5c-0.7,6.2-5,11.4-10.5,12.9c-0.6,0.2-1.2,0.2-1.8,0.4
			C28.9,47.5,28.3,47.5,27.7,47.5z M29.1,36.6c0-0.7-0.5-1.3-1.1-1.3c-0.6,0-1.2,0.6-1.2,1.3c0,0.7,0.5,1.3,1.2,1.3
			C28.6,37.9,29.1,37.3,29.1,36.6z M33.3,39.4c0-0.7-0.5-1.3-1.1-1.3c-0.6,0-1.2,0.6-1.2,1.3c0,0.7,0.5,1.3,1.1,1.3
			C32.7,40.6,33.2,40.1,33.3,39.4z"/>
		<path fill="#FFFFFF" d="M16.2,47.5c-0.2-0.1-0.4-0.1-0.6-0.2c-2.4-0.6-4.3-3.1-4.5-5.9c0-0.1,0-0.1,0-0.2c0.8,0,1.5-0.1,2.3-0.1
			c0.9-0.1,1.4-1.1,0.9-1.9c-0.3-0.4-0.6-0.6-1.1-0.6c-0.7,0-1.5,0.1-2.3,0.2c-0.1-0.8-0.1-1.6-0.2-2.5c0.8-0.1,1.6-0.1,2.3-0.2
			c0.9-0.1,1.4-1.2,0.9-2c-0.3-0.4-0.6-0.6-1.1-0.5c-0.8,0.1-1.5,0.2-2.3,0.3c-0.1-0.8-0.1-1.6-0.2-2.5c0.8-0.1,1.6-0.2,2.4-0.3
			c0.9-0.1,1.4-1.2,0.9-2c-0.3-0.4-0.7-0.6-1.1-0.5c-0.8,0.1-1.6,0.2-2.4,0.3c-0.1-0.7-0.1-1.5-0.2-2.2c3.8-0.7,7.7-1.1,11.6-1.3
			c0,0.2,0,0.4,0,0.6c0.1,5,0.2,10,0.3,15c0.1,3.5-1.5,5.8-4.3,6.5c0,0-0.1,0-0.1,0.1C17.1,47.5,16.7,47.5,16.2,47.5z"/>
		<path fill="#FFFFFF" d="M21.5,22.7c-4,0.2-7.9,0.7-11.7,1.4c0-0.2,0-0.3,0-0.5c-0.2-2-0.3-4-0.5-6.1c0-0.2-0.1-0.4-0.3-0.4
			c-0.5-0.2-0.8-0.7-0.6-1.3c0.1-0.6,0.6-1,1.2-1.2c2.4-0.6,4.8-1.1,7.2-1.4c1.3-0.2,2.7-0.3,4-0.4c0.7-0.1,1.2,0.3,1.4,0.8
			c0.2,0.6,0,1.1-0.6,1.6c-0.1,0.1-0.2,0.3-0.2,0.5c0,2.1,0.1,4.3,0.1,6.4C21.5,22.3,21.5,22.5,21.5,22.7z"/>
	</g>
</g>
</svg>
