<?xml version="1.0" encoding="utf-8"?>
<!-- Generator: Adobe Illustrator 23.0.0, SVG Export Plug-In . SVG Version: 6.00 Build 0)  -->
<svg version="1.0" id="Layer_1" xmlns="http://www.w3.org/2000/svg" xmlns:xlink="http://www.w3.org/1999/xlink" x="0px" y="0px"
	 width="50px" height="50px" viewBox="0 0 50 50" enable-background="new 0 0 50 50" xml:space="preserve">
<path fill="#FFFFFF" d="M38.2,8c-7.2-7.3-19-7.4-26.4-0.1c-7.3,7.2-7.4,19-0.1,26.4l13.1,13.2l13.2-13.1C45.4,27.1,45.5,15.3,38.2,8
	z M24.9,30.8c-5.1,0-9.2-4.1-9.2-9.2s4.1-9.2,9.2-9.2s9.2,4.1,9.2,9.2S29.9,30.8,24.9,30.8z"/>
<linearGradient id="SVGID_1_" gradientUnits="userSpaceOnUse" x1="25.0019" y1="48.7248" x2="25.0019" y2="6.6685" gradientTransform="matrix(1 0 0 -1 0 52)">
	<stop  offset="4.300000e-02" style="stop-color:#F2F2F2;stop-opacity:0.7"/>
	<stop  offset="0.1826" style="stop-color:#F2F2F2;stop-opacity:0.5979"/>
	<stop  offset="1" style="stop-color:#F2F2F2;stop-opacity:0"/>
</linearGradient>
<path opacity="0.5" fill="url(#SVGID_1_)" enable-background="new    " d="M37.4,8.4c-6.8-6.8-17.8-6.9-24.6-0.1S5.9,26.1,12.6,33
	l12.3,12.4l12.4-12.3C44.1,26.3,44.1,15.3,37.4,8.4z M24.9,30.8c-5.5,0-10-4.5-10-10s4.5-10,10-10s10,4.5,10,10
	C34.9,26.3,30.4,30.8,24.9,30.8z"/>
<linearGradient id="SVGID_2_" gradientUnits="userSpaceOnUse" x1="-9975.249" y1="2405.3384" x2="-9975.249" y2="2350.1755" gradientTransform="matrix(0.7624 3.500000e-03 3.500000e-03 -0.7624 7621.7925 1872.1237)">
	<stop  offset="0" style="stop-color:#FFFFFF;stop-opacity:0.8"/>
	<stop  offset="3.190000e-02" style="stop-color:#FAFAFA;stop-opacity:0.7479"/>
	<stop  offset="6.980000e-02" style="stop-color:#ECECEC;stop-opacity:0.6861"/>
	<stop  offset="0.1108" style="stop-color:#D4D4D4;stop-opacity:0.6193"/>
	<stop  offset="0.1539" style="stop-color:#B2B2B2;stop-opacity:0.549"/>
	<stop  offset="0.1987" style="stop-color:#878787;stop-opacity:0.4759"/>
	<stop  offset="0.2449" style="stop-color:#525252;stop-opacity:0.4005"/>
	<stop  offset="0.2914" style="stop-color:#151515;stop-opacity:0.3246"/>
	<stop  offset="0.3065" style="stop-color:#000000;stop-opacity:0.3"/>
	<stop  offset="1" style="stop-color:#000000;stop-opacity:0.4"/>
</linearGradient>
<path opacity="0.5" fill="url(#SVGID_2_)" enable-background="new    " d="M37.4,8.4c-6.8-6.8-17.8-6.9-24.6-0.1S5.9,26.1,12.6,33
	l12.3,12.4l12.4-12.3C44.1,26.3,44.1,15.3,37.4,8.4z M36.6,32.5L24.9,44.1L13.2,32.3c-3.1-3.1-4.8-7.3-4.8-11.7
	c0-4.4,1.8-8.6,4.9-11.7s7.3-4.8,11.7-4.8c4.4,0,8.6,1.8,11.7,4.9c3.1,3.1,4.8,7.3,4.8,11.7S39.8,29.3,36.6,32.5z"/>
<path opacity="0.1" fill="#FFFFFF" enable-background="new    " d="M37.7,15.2c0-5.2-5.7-9.5-12.7-9.5c-7,0-12.7,4.2-12.8,9.4
	c0,2.1,0.9,4.1,2.6,5.7c0,0,0-0.1,0-0.1c0-5.5,4.5-10,10-10s10,4.5,10,10c0,0.1,0,0.3,0,0.4C36.7,19.5,37.7,17.5,37.7,15.2z"/>
</svg>
