<?xml version="1.0" encoding="utf-8"?>
<!-- Generator: Adobe Illustrator 23.0.0, SVG Export Plug-In . SVG Version: 6.00 Build 0)  -->
<svg version="1.0" id="Layer_1" xmlns="http://www.w3.org/2000/svg" xmlns:xlink="http://www.w3.org/1999/xlink" x="0px" y="0px"
	 width="50px" height="50px" viewBox="0 0 50 50" enable-background="new 0 0 50 50" xml:space="preserve">
<g id="language_icon" transform="translate(-192.244 -64.284) rotate(-11)">
	<path id="AA" fill="#FFFFFF" d="M186.3,115.2c0.1,0.4,0.2,0.7,0.5,1c-0.3,0.1-0.5,0.1-0.8,0.2c-0.3,0.8-0.4,1.2-0.7,2
		c2.1-0.6,3.1-0.8,5.2-1.3c0.3-0.8,0.4-1.2,0.7-2c-1.1,0.2-1.6,0.3-2.7,0.6c-0.2-0.1-0.4-0.4-0.4-0.6c0-0.2,0-0.3,0.1-0.5
		c0.1-0.2,0.4-0.3,0.6-0.3c0.5-0.1,1,0,1.5,0.3l-0.2-1.7c-0.5-0.3-1.2-0.4-1.8-0.2c-0.6,0.1-1.1,0.5-1.5,0.9
		C186.4,114,186.2,114.6,186.3,115.2z"/>
	<path id="AAA" fill="#FFFFFF" d="M215,149.6c-0.4-0.7-0.6-1.6-0.6-2.4c0-0.6,0.2-1.1,0.5-1.7c2.9-7.6,0.6-16.2-5.6-21.4
		c-0.7-0.6-1.5-1-2.3-1.5c0.1-4.5-1.4-8.8-4.3-12.2c-4.1-4.4-10.3-6.1-16.1-4.5l0.4,2.6l0,0c4.9-1.4,10.1,0,13.6,3.7
		c2.4,2.6,3.7,5.9,3.8,9.4c-1.6-0.4-3.2-0.6-4.9-0.5c-2.9,0.3-5.7,1.5-8,3.4l-0.9-6.1c-1.5,1.2-2.3,1.8-3.8,3.1l1.2,7.2
		c-0.2,0.3-0.3,0.6-0.5,0.9c-1.2,2.4-1.7,5.1-1.5,7.8c-0.5-0.1-1-0.2-1.5-0.3c-1.5-0.4-3-0.3-4.4,0.2c-0.3,0.1-0.6,0.2-0.9,0.4
		c0-0.8-0.1-1.5-0.4-2.3c-0.3-0.8-0.8-1.5-1.4-2.2c-4.2-4.5-4.3-12.8,0.8-19c2.3-2.8,5.4-4.8,8.8-5.8l-0.4-2.6l0,0
		c-4.1,1.2-7.8,3.6-10.5,7c-5,5.6-6.2,16.7-0.6,22.3c0.4,0.4,0.8,0.9,1,1.4c0.3,0.8,0.3,1.6,0,2.4c-0.8,1.8-0.9,3.7-0.3,5.6
		c0.3-0.8,0.7-1.6,1.2-2.3c0.8-1.2,1.9-2.2,3.3-2.7c1-0.3,2.1-0.4,3.1-0.1c0.9,0.2,1.8,0.4,2.7,0.5c1.1,4.3,3.9,8.1,7.7,10.5
		c2.5,1.7,5.5,2.7,8.5,2.8c2.3,0.1,4.6-0.5,6.6-1.7c0.8-0.5,1.6-0.6,2.5-0.5c1.3,0.2,2.5,0.9,3.3,2c0.6,0.6,1,1.3,1.5,2.1
		C216.7,153.2,216.1,151.2,215,149.6z M212.8,143.9c-0.4,0.8-0.6,1.7-0.7,2.6c0,0.7,0,1.3,0.2,2c-0.2,0-0.4-0.1-0.6-0.1
		c-1.3-0.2-2.6,0.1-3.7,0.8c-1.7,1-3.6,1.5-5.5,1.5c-2.6-0.1-5.1-0.9-7.2-2.3c-6-3.7-8.3-11.3-5.3-17.7c1.9-3.9,5.6-6.5,9.9-6.9
		c2.9-0.2,5.8,0.6,8.1,2.4C213.1,130.4,215,137.5,212.8,143.9L212.8,143.9z"/>
	<path id="A" fill="#FFFFFF" d="M202.9,128.3c-2.1,0.1-3.1,0.1-5.1,0.4c-1.6,6.2-2.3,9.3-3.5,15.4c1.9-0.2,2.8-0.3,4.7-0.4
		c0.3-1.2,0.4-1.8,0.7-3c1.5-0.1,2.2-0.1,3.7-0.1c0.5,1.2,0.8,1.8,1.3,3c1.9,0,2.8,0.1,4.7,0.3C207,137.4,205.7,134.3,202.9,128.3z
		 M199.9,137.1c0.4-1.5,0.6-2.2,0.9-3.7c0.7,1.4,1,2.2,1.7,3.6C201.5,137,201,137,199.9,137.1L199.9,137.1z"/>
</g>
</svg>
