<?xml version="1.0" encoding="utf-8"?>
<!-- Generator: Adobe Illustrator 23.0.0, SVG Export Plug-In . SVG Version: 6.00 Build 0)  -->
<svg version="1.0" id="Capa_1" xmlns="http://www.w3.org/2000/svg" xmlns:xlink="http://www.w3.org/1999/xlink" x="0px" y="0px"
	 width="50px" height="50px" viewBox="0 0 50 50" enable-background="new 0 0 50 50" xml:space="preserve">
<g>
	<g id="Group_677_1_" transform="translate(-10 -35)">
		<path id="notification_1_" fill="#FFFFFF" d="M54.5,65.8c-4.6-2-9.1-5.6-12.4-16.5c-2-6.3-8.3-10.6-14-9.3
			c-5.7,1.3-9.6,7.9-8.6,14.5c1.8,11.2-0.7,16.4-4,20.2c-0.9,1-1.3,2.4-1,3.7c0.2,0.7,0.9,1.2,1.7,1.1c5.3-0.9,8-1.3,13.4-2.4
			c1.6,3.3,5.7,4.9,9.3,3.3c2.5-1.2,4.2-3.7,4.1-6.4c5.2-1.3,7.9-2,13.1-3.6c0.8-0.2,1.2-1,1.1-1.7l0,0
			C56.7,67.4,55.7,66.3,54.5,65.8z M36.7,78.1c-1.7,0.4-3.5-0.3-4.4-1.7c3-0.7,4.6-1,7.6-1.7C39.7,76.3,38.5,77.7,36.7,78.1z"/>
	</g>
</g>
</svg>
