<?xml version="1.0" encoding="utf-8"?>
<!-- Generator: Adobe Illustrator 23.0.0, SVG Export Plug-In . SVG Version: 6.00 Build 0)  -->
<svg version="1.0" id="lock_1_" xmlns="http://www.w3.org/2000/svg" xmlns:xlink="http://www.w3.org/1999/xlink" x="0px" y="0px"
	 viewBox="0 0 50 50" enable-background="new 0 0 50 50" xml:space="preserve">
<path id="lock" fill="#FFFFFF" d="M30.7,24.6c-0.2-0.2-0.4-0.3-0.7-0.3h-0.3v-2c0-1.3-0.5-2.5-1.4-3.4c-1.7-1.8-4.6-1.9-6.4-0.1
	c0,0-0.1,0.1-0.1,0.1c-0.9,0.9-1.4,2.1-1.4,3.4v2H20c-0.3,0-0.5,0.1-0.7,0.3c-0.2,0.2-0.3,0.5-0.3,0.7v6.1c0,0.3,0.1,0.5,0.3,0.7
	c0.2,0.2,0.4,0.3,0.7,0.3h10c0.3,0,0.5-0.1,0.7-0.3c0.2-0.2,0.3-0.5,0.3-0.7v-6.1C31,25.1,30.9,24.8,30.7,24.6z M27.7,24.3h-5.3v-2
	c0-0.7,0.3-1.4,0.8-1.9c1-1,2.7-1.1,3.7-0.1c0,0,0,0,0.1,0.1c0.5,0.5,0.8,1.2,0.8,1.9L27.7,24.3z"/>
</svg>
