<?xml version="1.0" encoding="utf-8"?>
<!-- Generator: Adobe Illustrator 23.0.0, SVG Export Plug-In . SVG Version: 6.00 Build 0)  -->
<svg version="1.0" id="follow_x5F_icon" xmlns="http://www.w3.org/2000/svg" xmlns:xlink="http://www.w3.org/1999/xlink" x="0px"
	 y="0px" viewBox="0 0 50 50" enable-background="new 0 0 50 50" xml:space="preserve">
<g>
	<path fill="#FFFFFF" d="M40.3,39.2c-4.4,2.5-3.2,4.5-5.7,6c-3.4,2.4-5.9,2.4-5.7,2.3c0.9-0.9-2.1-1.5-3.4-2.2
		c-2.1-1.2-4.1-2.7-5.7-4.5c-0.1-0.2-0.3-0.4-0.5-0.6c0.3,0,0.5,0,0.7,0c3.1,0.1,6.2,0.2,9.3,0.1c1.5,0,2.3-1.3,2.2-2.5
		c-0.1-4.2,0-8.7,0.1-13c0.2,0.1,0.4,0.2,0.7,0.4c-0.1-1-0.2-1.9-0.3-2.8c0-0.1,0-0.3-0.1-0.4c-0.1-1.1-0.4-2-1.4-2.7
		c-0.8-0.6-1.4-1.5-2-2.4c-0.5-0.8-0.6-1.7-0.3-2.6c0.4-1,1.2-1.1,2.2-0.4c1.1,0.8,2.2,1.5,3.4,2.1c1.1,0.5,1.9,1.2,2.2,2.2
		c0.6,2,1.2,4.1,1.7,6.2c1,4.3,1.6,8.6,1.8,13C39.8,38,40.1,38.5,40.3,39.2z M31.9,5.2c0.2-1.5-0.9-2.6-2.5-2.7
		c-3.7-0.2-7.3-0.1-11,0.2C17.1,2.9,16,3,14.8,3.2c-1.3,0.2-2.3,1.3-2.1,2.5c0.1,0.6,0.1,1.3,0.2,1.9c0.2,1.8,0.4,3.6,0.5,5.5
		c-0.8-0.1-1.5-0.3-2.2-0.3c-1.2,0-1.9,1.1-1.5,2.2c0.2,0.4,0.4,0.9,0.8,1.1c0.9,0.6,1.8,1.2,2.8,1.6c0.4,0.2,0.6,0.4,0.6,0.9
		c0,0.6,0.3,1,0.9,1.4c-0.3-4.7-0.6-9.4-1.1-14.1C19.5,5.2,25.1,5,30.9,5.3c-0.1,2.4-0.1,4.7-0.3,7.1c0,0.7,0.2,1,0.9,1.2
		C31.6,10.8,31.6,7.9,31.9,5.2z M14.3,36.4c0,0.2,0,0.4,0,0.5c0,1.2,0.7,2.4,2.2,2.5c4.1,0.3,8.2,0.4,12.4,0.3
		c1.5-0.1,2.4-1.2,2.3-2.6c0-5.3,0-10.7,0.2-16c0-0.7-0.3-1-0.9-1.2c-0.1,5.4-0.2,10.9-0.1,16.3c-5,0.1-10,0-15-0.3
		c0-0.3,0-0.4,0-0.7C14.4,35.3,14.2,35.7,14.3,36.4z M24.2,37.4c0.3,0.8,0,1.2-0.5,1.2c-0.7,0-1.4,0-2.1,0c-0.4,0-0.6-0.2-0.6-0.6
		c0-0.4,0.2-0.6,0.6-0.6c0.4,0,0.7,0,1.1,0C23.2,37.4,23.7,37.4,24.2,37.4z M12.4,19c-1.3,0.3-1.9,1.4-1.6,2.6
		c0.3,1.1,1.1,1.8,1.9,2.5c1,0.8,2.3,0.1,2.5-1c0.2-1.1-0.3-1.9-1-2.7c-0.4-0.4-0.6-0.9-1-1.5C13,18.9,12.7,18.9,12.4,19z
		 M13.2,29.5c0.7,0.4,1.5,0.1,1.8-0.7c0.3-0.8,0.2-1.6-0.3-2.3c-0.3-0.5-0.7-1-1-1.5c0-0.1-0.1-0.1-0.2-0.1
		c-1.3-0.5-2.5,0.4-2.4,1.7C11.3,27.8,12.1,28.9,13.2,29.5z M13.3,34.8c0.7,0.4,1.5,0.1,1.8-0.7c0.3-0.7,0.2-1.5-0.3-2.2
		c-0.3-0.5-0.6-1.1-1-1.6c0-0.1-0.1-0.1-0.2-0.1c-1.2-0.5-2.3,0.4-2.3,1.5C11.5,32.9,12.3,34.1,13.3,34.8z M15,29.9
		c-0.1,0.2-0.4,0.3-0.3,0.5c0,0.3,0.2,0.5,0.3,0.8c0.5-0.2,0.7-0.3,1.1-0.6C15.7,30.3,15.5,30.2,15,29.9z M14.9,24.6
		c-0.1,0.2-0.4,0.3-0.3,0.5c0,0.3,0.2,0.5,0.4,0.8c0.3-0.1,0.5-0.2,0.9-0.4C15.4,25.1,15.2,24.9,14.9,24.6z"/>
</g>
</svg>
