<?xml version="1.0" encoding="utf-8"?>
<!-- Generator: Adobe Illustrator 23.0.0, SVG Export Plug-In . SVG Version: 6.00 Build 0)  -->
<svg version="1.0" id="Layer_1" xmlns="http://www.w3.org/2000/svg" xmlns:xlink="http://www.w3.org/1999/xlink" x="0px" y="0px"
	 viewBox="0 0 50 50" enable-background="new 0 0 50 50" xml:space="preserve">
<path fill="#FFFFFF" d="M40.4,37.8c-0.1-1.1-0.2-2.2-0.2-3.2s0.6-1.7,1.6-1.8c0.9-0.1,1.8,0.6,2.1,1.6c0.1,0.2,0.1,0.5,0.1,0.7
	c0.2,2.5,0.4,5.1,0.7,7.6c0.2,1.4-0.5,2.1-1.9,1.9c-2.6-0.3-5.2-0.6-7.8-0.8c-1-0.1-1.9-0.8-2-1.8c-0.2-0.9,0.4-1.7,1.3-1.9
	c0.3-0.1,0.6,0,0.9,0c0.9,0,1.8,0.1,2.8,0.2c-0.2-0.2-0.3-0.4-0.5-0.5c-3.5-3.4-6.7-6.6-9.8-9.7c-0.5-0.5-0.8-1-0.7-1.7
	c0.1-0.8,0.5-1.3,1.2-1.5c0.7-0.3,1.4-0.1,2,0.5c1.5,1.5,2.9,2.9,4.4,4.5c1.8,1.8,3.6,3.6,5.5,5.5C40.1,37.5,40.2,37.6,40.4,37.8z"
	/>
<path fill="#FFFFFF" d="M37.8,9.6c-1.1,0.1-2.1,0.2-3.1,0.2S33,9.3,32.9,8.4c-0.2-1.1,0.7-2.2,2-2.3c0.1,0,0.2,0,0.3,0
	c2.5-0.2,5-0.4,7.5-0.7c1.4-0.2,2.1,0.5,1.9,1.9c-0.3,2.6-0.6,5.2-0.8,7.8C43.7,16.2,43,17,42,17.2c-0.9,0.2-1.7-0.4-1.9-1.3
	c-0.1-0.2,0-0.5,0-0.8c0-0.9,0.1-1.8,0.2-2.7c0,0,0-0.1,0-0.2c-0.2,0.1-0.3,0.3-0.4,0.4c-3.4,3.5-6.6,6.7-9.7,9.8
	c-0.8,0.8-1.9,0.9-2.7,0.2c-0.8-0.7-0.8-1.9,0-2.8c1.5-1.5,2.9-2.9,4.5-4.4c1.8-1.8,3.6-3.6,5.5-5.4C37.5,9.9,37.6,9.8,37.8,9.6z"/>
<path fill="#FFFFFF" d="M12.1,9.8c0.2,0.1,0.3,0.1,0.5,0.3c3.5,3.4,6.7,6.6,9.8,9.7c0.5,0.5,0.8,1.1,0.7,1.9
	c-0.3,1.3-1.8,1.9-2.9,1.1c-0.2-0.1-0.3-0.3-0.5-0.4c-3.1-3.1-6.3-6.3-9.6-9.8c-0.1-0.1-0.2-0.3-0.3-0.5c-0.1,0-0.1,0.1-0.2,0.1
	c0,0.1,0,0.3,0,0.4c0.1,0.9,0.1,1.8,0.2,2.7c0,1-0.8,1.8-1.8,1.8c-1-0.1-1.9-0.9-2-2c-0.2-2.7-0.5-5.5-0.8-8.2
	c-0.1-1,0.6-1.8,1.6-1.6c2.7,0.3,5.5,0.6,8.2,0.8c1.1,0.1,2,1,2,2s-0.7,1.8-1.7,1.8c-0.9,0-1.8-0.1-2.6-0.2c-0.1,0-0.3,0-0.4,0
	C12.2,9.7,12.2,9.8,12.1,9.8z"/>
<path fill="#FFFFFF" d="M9.8,37.8c0.1-0.2,0.2-0.3,0.3-0.5c3.4-3.5,6.6-6.7,9.7-9.8c0.5-0.5,1.1-0.8,1.9-0.6
	c1.3,0.3,1.9,1.8,1.1,2.9c-0.1,0.2-0.3,0.3-0.4,0.5c-3.1,3.1-6.3,6.2-9.7,9.6c-0.1,0.1-0.3,0.2-0.5,0.3c0,0.1,0.1,0.1,0.1,0.2
	c1-0.1,2-0.2,3-0.2s1.7,0.5,1.8,1.4c0.2,1.1-0.7,2.2-2,2.3c-0.1,0-0.1,0-0.2,0c-2.6,0.2-5.2,0.4-7.8,0.8c-1.2,0.1-2-0.5-1.8-1.7
	c0.3-2.7,0.6-5.3,0.8-8c0.1-1.1,0.8-1.9,1.8-2.1c0.9-0.2,1.7,0.4,1.9,1.3c0.1,0.2,0,0.5,0,0.8c0,0.9-0.1,1.8-0.2,2.6v0.1
	C9.7,37.7,9.8,37.8,9.8,37.8z"/>
</svg>
