<?xml version="1.0" encoding="utf-8"?>
<!-- Generator: Adobe Illustrator 23.0.0, SVG Export Plug-In . SVG Version: 6.00 Build 0)  -->
<svg version="1.0" id="Layer_1" xmlns="http://www.w3.org/2000/svg" xmlns:xlink="http://www.w3.org/1999/xlink" x="0px" y="0px"
	 width="50px" height="50px" viewBox="0 0 50 50" enable-background="new 0 0 50 50" xml:space="preserve">
<g>
	<path opacity="0.3" enable-background="new    " d="M38.3,47.5L38.3,47.5c-0.8,0-1.7-0.2-2.7-0.6c-1.2-0.6-2.4-1.4-3.4-2.4
		c-3.4-3.4-5.1-5.1-7.2-7.1c-1.9,1.3-3.7,2.3-6.8,4.1c-1.1,0.7-2.5,1-3.9,1.1c-0.1,0-0.3,0-0.4,0c-1.5,0-2.7-0.4-3.7-1.1
		c-1.8-1.3-2.6-2-4.1-3.3c-1-0.8-1.5-2-1.4-3.3c0-1.7,1-3.5,2.6-4.7l2.1-1.7c1.4-1.1,2.4-1.9,3.5-2.8c-1.2-1.2-2.4-2.4-4.1-4.2
		c-1.1-1.1-1.7-2.6-1.6-4.2c0-1.4,0.6-2.7,1.6-3.6c1.3-1.2,2-1.9,3.1-2.9l0.8-0.7c1-1,2.5-1.5,4-1.4c1.4,0.1,2.7,0.6,3.7,1.4
		c2,1.7,3.2,2.8,4.6,4c1.4-1.6,2.7-3.2,4.9-5.9c0.9-1.1,2-1.9,3.2-2.4c1.9-0.7,3.8-0.4,5,0.9c1.4,1.5,2.1,2.3,3.5,4.2
		c1.7,2.3,1.1,6-0.3,8.2c-2.1,3.4-3.2,5.3-4.7,7.2c1.9,2.3,3.4,4.3,6.5,8.2c1.5,2,3.5,6,1.4,8.7c-1.3,1.6-2.1,2.4-3.8,3.6
		C39.9,47.3,39.1,47.5,38.3,47.5z"/>
	<path d="M37.1,44.6L37.1,44.6c-0.7,0-1.5-0.2-2.3-0.5c-1.2-0.5-2.4-1.3-3.4-2.3c-3-3.1-4.6-4.7-6.5-6.6c-1.8,1.4-3.5,2.4-6.3,4.1
		c-1.1,0.7-2.4,1.1-3.8,1.1c-1.6,0.1-3-0.3-4.1-1.2c-1.7-1.4-2.5-2.1-4-3.5c-0.9-0.9-1.4-2.1-1.4-3.4c0.1-1.7,1-3.4,2.4-4.6
		c0.8-0.6,1.4-1.2,2-1.7c1.2-1,2.2-1.8,3.2-2.6c-1.3-1.3-2.5-2.5-4.3-4.4C7.6,18,6.9,16.4,7,14.8c0-1.4,0.6-2.6,1.5-3.5
		c1.5-1.4,2.3-2.1,3.9-3.6c1-0.9,2.5-1.4,4-1.4c1.4,0.1,2.7,0.6,3.8,1.4c2.1,1.7,3.4,2.8,4.9,4c1.5-1.7,2.8-3.3,5.1-6l0.3-0.3
		c0.9-1.1,2-1.9,3.1-2.4c1.9-0.8,3.8-0.6,5,0.6C40,4.9,40.7,5.7,42,7.5c1.7,2.2,1,5.9-0.6,8.3c-2.3,3.7-3.6,5.6-5.1,7.8
		c1.8,2.2,3.2,4,5.9,7.7c1.5,2,3.1,5.9,1.2,8.5c-1.3,1.8-2.1,2.7-3.7,4C39.1,44.3,38.2,44.6,37.1,44.6z"/>
	<path fill="#FFFFFF" d="M32.3,22.2c2.4-3.2,3.7-5.1,6.7-9.8c1.1-1.6,1.5-3.9,0.8-4.8c-1.2-1.5-1.8-2.1-3.1-3.3
		c-0.4-0.3-0.9-0.3-1.7,0.1c-0.7,0.3-1.5,0.9-2.1,1.6c-3.6,4.3-5,5.9-7.8,9c-2.6-2.3-3.9-3.4-7.2-6c-0.5-0.4-1.3-0.7-2-0.7
		c-0.7,0-1.4,0.1-1.8,0.5c-1.6,1.4-2.3,2.1-3.8,3.5c-0.8,0.8-0.6,2.3,0.4,3.4c3,3,4.3,4.3,6.8,6.8c-2.7,2.5-4.2,3.7-7.6,6.5
		c-1.2,1-1.6,2.5-0.8,3.3c1.4,1.4,2.2,2,3.8,3.4c0.4,0.4,1.1,0.5,1.9,0.5c0.8,0,1.6-0.3,2.2-0.7c3.7-2.4,5.2-3.4,8-5.7
		c2.8,2.8,4.3,4.4,8.2,8.4c0.7,0.7,1.5,1.2,2.2,1.5c0.8,0.3,1.4,0.3,1.8,0c1.4-1.2,2-1.9,3.1-3.6c0.6-0.9,0.1-3.2-1-4.8
		C36.1,26.9,34.8,25.2,32.3,22.2z"/>
	
		<linearGradient id="SVGID_1_" gradientUnits="userSpaceOnUse" x1="30.1286" y1="254.922" x2="30.1286" y2="219.0374" gradientTransform="matrix(1 0 0 -1 -5.32 259.08)">
		<stop  offset="0" style="stop-color:#FFFFFF;stop-opacity:0.8"/>
		<stop  offset="7.370000e-02" style="stop-color:#DEDEDE;stop-opacity:0.7705"/>
		<stop  offset="0.2168" style="stop-color:#A4A4A4;stop-opacity:0.7133"/>
		<stop  offset="0.36" style="stop-color:#727272;stop-opacity:0.656"/>
		<stop  offset="0.4999" style="stop-color:#494949;stop-opacity:0.6"/>
		<stop  offset="0.6359" style="stop-color:#292929;stop-opacity:0.5456"/>
		<stop  offset="0.7669" style="stop-color:#121212;stop-opacity:0.4932"/>
		<stop  offset="0.8907" style="stop-color:#050505;stop-opacity:0.4437"/>
		<stop  offset="1" style="stop-color:#000000;stop-opacity:0.4"/>
	</linearGradient>
	<path fill="url(#SVGID_1_)" d="M32.3,22.2c2.4-3.2,3.7-5.1,6.7-9.8c1.1-1.6,1.5-3.9,0.8-4.8c-1.2-1.5-1.8-2.1-3.1-3.3
		c-0.4-0.3-0.9-0.3-1.7,0.1c-0.7,0.3-1.5,0.9-2.1,1.6c-3.6,4.3-5,5.9-7.8,9c-2.6-2.3-3.9-3.4-7.2-6c-0.5-0.4-1.3-0.7-2-0.7
		c-0.7,0-1.4,0.1-1.8,0.5c-1.6,1.4-2.3,2.1-3.8,3.5c-0.8,0.8-0.6,2.3,0.4,3.4c3,3,4.3,4.3,6.8,6.8c-2.7,2.5-4.2,3.7-7.6,6.5
		c-1.2,1-1.6,2.5-0.8,3.3c1.4,1.4,2.2,2,3.8,3.4c0.4,0.4,1.1,0.5,1.9,0.5c0.8,0,1.6-0.3,2.2-0.7c3.7-2.4,5.2-3.4,8-5.7
		c2.8,2.8,4.3,4.4,8.2,8.4c0.7,0.7,1.5,1.2,2.2,1.5c0.8,0.3,1.4,0.3,1.8,0c1.4-1.2,2-1.9,3.1-3.6c0.6-0.9,0.1-3.2-1-4.8
		C36.1,26.9,34.8,25.2,32.3,22.2z M39.3,34.7c-1.2,1.7-1.8,2.4-3.2,3.7c-0.4,0.4-1.3,0-2-0.7c-3.8-4.1-5.3-5.7-8.1-8.6
		c-0.5-0.5-1.3-0.5-1.7-0.1c-2.8,2.4-4.3,3.4-8,5.9c-0.6,0.4-1.6,0.5-2,0.1c-1.6-1.4-2.4-2.1-3.8-3.5c-0.4-0.4-0.2-1.1,0.4-1.6
		c3.5-2.8,4.9-4,7.7-6.5c0.5-0.4,0.5-1.1,0-1.6C16,19.3,14.7,18,11.7,15c-0.5-0.5-0.6-1.3-0.2-1.7c1.5-1.4,2.3-2.1,3.9-3.6
		c0.4-0.4,1.3-0.4,1.9,0.1c3.2,2.6,4.6,3.7,7.2,6.1c0.5,0.4,1.2,0.3,1.7-0.2c2.7-3.1,4.1-4.8,7.7-9.1c0.6-0.7,1.5-1.1,1.8-0.8
		c1.3,1.2,1.9,1.8,3.2,3.4c0.3,0.4,0.1,1.5-0.4,2.3c-3.1,4.7-4.4,6.6-6.9,9.8c-0.4,0.6-0.4,1.4,0,1.9c2.6,3,3.9,4.7,7.3,9.1
		C39.4,33.1,39.6,34.2,39.3,34.7z"/>
</g>
</svg>
