<?xml version="1.0" encoding="utf-8"?>
<!-- Generator: Adobe Illustrator 23.0.0, SVG Export Plug-In . SVG Version: 6.00 Build 0)  -->
<svg version="1.0" id="Layer_1" xmlns="http://www.w3.org/2000/svg" xmlns:xlink="http://www.w3.org/1999/xlink" x="0px" y="0px"
	 width="50px" height="50px" viewBox="0 0 50 50" enable-background="new 0 0 50 50" xml:space="preserve">
<g>
	<path id="shadow_1_" opacity="0.5" d="M38.1,21.9c-0.3-0.3-0.6-0.4-1-0.4c0,0-0.1,0-0.1,0l-0.5,0l-5.1,0.3c0.5-0.5,0.9-1.1,1.3-1.7
		c1.6-2.5,2.4-5.2,2.4-7.8c0-2.8-0.9-5.6-2.7-7.7C30.6,2.3,27.8,1,25,1c-2.8,0-5.6,1.3-7.5,3.6c-1.7,2.1-2.7,4.8-2.7,7.7
		c0,2.6,0.9,5.4,2.4,7.8c0.4,0.6,0.8,1.2,1.3,1.7l-5.1-0.3l-0.5,0c0,0-0.1,0-0.1,0c-0.4,0-0.7,0.1-1,0.4c-0.3,0.3-0.5,0.7-0.5,1.1
		v0.5v2.3v0.5c0,0.4,0.2,0.8,0.5,1.1c0.3,0.3,0.6,0.4,1,0.4c0,0,0.1,0,0.1,0l0.5,0l8.1-0.5l-2,19l0,0.4c-0.1,0.7,0.3,1.3,0.9,1.5
		l0.4,0.1c0.8,0.3,2.3,0.7,4.2,0.7c1.9,0,3.4-0.5,4.2-0.7l0.4-0.1c0.6-0.2,1-0.8,0.9-1.5l0-0.4l-2-19l8.1,0.5l0.5,0c0,0,0.1,0,0.1,0
		c0.4,0,0.7-0.1,1-0.4c0.3-0.3,0.5-0.7,0.5-1.1v-0.5v-2.3V23C38.6,22.6,38.4,22.2,38.1,21.9z M25,20.9c-2.1-1.4-4.2-4.5-4.2-7.5
		c0-3,1.9-5.4,4.2-5.4c2,0,3.7,1.7,4.1,4.1c0,0.3,0.1,2.1,0,2.5C28.7,17,27,19.6,25,20.9z"/>
	<linearGradient id="body_2_" gradientUnits="userSpaceOnUse" x1="25" y1="8.417576e-02" x2="25" y2="49.1756">
		<stop  offset="2.150000e-02" style="stop-color:#787878"/>
		<stop  offset="6.538474e-02" style="stop-color:#959595"/>
		<stop  offset="0.1093" style="stop-color:#AAAAAA"/>
		<stop  offset="0.1521" style="stop-color:#B7B7B7"/>
		<stop  offset="0.192" style="stop-color:#BBBBBB"/>
		<stop  offset="0.3061" style="stop-color:#BEBEBE"/>
		<stop  offset="0.3595" style="stop-color:#C5C5C5"/>
		<stop  offset="0.4002" style="stop-color:#D2D2D2"/>
		<stop  offset="0.4344" style="stop-color:#E4E4E4"/>
		<stop  offset="0.4404" style="stop-color:#E8E8E8"/>
		<stop  offset="0.4636" style="stop-color:#D6D6D6"/>
		<stop  offset="0.4935" style="stop-color:#C7C7C7"/>
		<stop  offset="0.5284" style="stop-color:#BEBEBE"/>
		<stop  offset="0.5799" style="stop-color:#BBBBBB"/>
		<stop  offset="0.6322" style="stop-color:#9B9B9B"/>
		<stop  offset="0.6876" style="stop-color:#7F7F7F"/>
		<stop  offset="0.7364" style="stop-color:#6E6E6E"/>
		<stop  offset="0.7732" style="stop-color:#696969"/>
		<stop  offset="0.8322" style="stop-color:#8C8C8C"/>
		<stop  offset="0.889" style="stop-color:#A6A6A6"/>
		<stop  offset="0.9398" style="stop-color:#B6B6B6"/>
		<stop  offset="0.9795" style="stop-color:#BBBBBB"/>
	</linearGradient>
	<path id="body_1_" fill="url(#body_2_)" d="M25,47.2c-1.6,0-3-0.4-3.7-0.7L21,46.4l0-0.4l2.1-20.3c0-0.1,0-0.2-0.1-0.2
		c-0.1-0.1-0.1-0.1-0.2-0.1c0,0,0,0,0,0l-9.4,0.5l-0.5,0v-0.5v-2.3v-0.5l0.5,0l8.2,0.5c0,0,0,0,0,0c0.1,0,0.2-0.1,0.3-0.2
		c0-0.1,0-0.2-0.1-0.3c-1.2-0.9-2.4-2.2-3.3-3.6c-1.4-2.2-2.2-4.7-2.2-7c0-2.5,0.8-4.9,2.3-6.7c1.6-2,4-3.1,6.4-3.1
		c2.4,0,4.7,1.1,6.4,3.1c1.5,1.8,2.3,4.2,2.3,6.7c0,2.3-0.8,4.8-2.2,7c-0.9,1.4-2.1,2.7-3.3,3.6c-0.1,0.1-0.1,0.2-0.1,0.3
		c0,0.1,0.1,0.2,0.3,0.2c0,0,0,0,0,0l8.2-0.5l0.5,0v0.5v2.3v0.5l-0.5,0l-9.4-0.5c0,0,0,0,0,0c-0.1,0-0.1,0-0.2,0.1
		c-0.1,0.1-0.1,0.1-0.1,0.2L29,46l0,0.4l-0.4,0.1C28,46.8,26.6,47.2,25,47.2z M25,6.2c-3.1,0-5.7,3.1-5.7,6.8c0,3.9,2.9,7.7,5.6,9.1
		c0,0,0.1,0,0.1,0c0,0,0.1,0,0.1,0c2.6-1.3,4.9-4.5,5.4-7.7c0.1-0.4,0-2.6,0-3C29.9,8.3,27.7,6.2,25,6.2z"/>
	<linearGradient id="edges_2_" gradientUnits="userSpaceOnUse" x1="25" y1="47.5146" x2="25" y2="0.2721">
		<stop  offset="2.694207e-02" style="stop-color:#EEEEEE"/>
		<stop  offset="4.197763e-02" style="stop-color:#EAEAEA"/>
		<stop  offset="5.661122e-02" style="stop-color:#DFDFDF"/>
		<stop  offset="7.103835e-02" style="stop-color:#CBCBCB"/>
		<stop  offset="7.978306e-02" style="stop-color:#BBBBBB"/>
		<stop  offset="0.4285" style="stop-color:#BBBBBB"/>
		<stop  offset="0.4942" style="stop-color:#BEBEBE"/>
		<stop  offset="0.525" style="stop-color:#C5C5C5"/>
		<stop  offset="0.5486" style="stop-color:#D2D2D2"/>
		<stop  offset="0.5683" style="stop-color:#E4E4E4"/>
		<stop  offset="0.5765" style="stop-color:#EEEEEE"/>
		<stop  offset="0.5849" style="stop-color:#EBEBEB"/>
		<stop  offset="0.6791" style="stop-color:#D1D1D1"/>
		<stop  offset="0.7633" style="stop-color:#C1C1C1"/>
		<stop  offset="0.8286" style="stop-color:#BBBBBB"/>
		<stop  offset="0.8981" style="stop-color:#D0D0D0"/>
		<stop  offset="0.9811" style="stop-color:#EEEEEE"/>
	</linearGradient>
	<path id="edges_1_" fill="url(#edges_2_)" d="M25,2.5c-2.3,0-4.5,1.1-6,2.9c-1.4,1.7-2.2,4-2.2,6.4c0,2.2,0.8,4.6,2.1,6.8
		c0.9,1.4,2,2.6,3.2,3.5c0.3,0.2,0.4,0.6,0.3,0.9c-0.1,0.3-0.4,0.5-0.7,0.5c0,0,0,0,0,0l-8.2-0.5v2.3l9.4-0.5c0,0,0,0,0,0
		c0.2,0,0.4,0.1,0.6,0.2c0.2,0.2,0.2,0.4,0.2,0.6l-2.1,20.3c0.7,0.2,2,0.6,3.5,0.6c1.6,0,2.8-0.4,3.5-0.6l-2.1-20.3
		c0-0.2,0.1-0.4,0.2-0.6c0.1-0.2,0.3-0.2,0.6-0.2c0,0,0,0,0,0l9.4,0.5v-2.3l-8.2,0.5c0,0,0,0,0,0c-0.3,0-0.6-0.2-0.7-0.5
		c-0.1-0.3,0-0.7,0.3-0.9c1.2-0.9,2.3-2.1,3.2-3.5c1.4-2.1,2.1-4.6,2.1-6.8c0-2.4-0.8-4.7-2.2-6.4C29.5,3.6,27.3,2.5,25,2.5
		 M25,22.6c-0.1,0-0.2,0-0.3-0.1c-2.8-1.4-5.8-5.4-5.8-9.5c0-4,2.8-7.3,6.2-7.3c2.9,0,5.4,2.3,6,5.7c0.1,0.4,0.1,2.7,0,3.2
		c-0.6,3.3-3,6.6-5.7,8C25.2,22.6,25.1,22.6,25,22.6 M25,1.6c2.6,0,5,1.2,6.7,3.3c1.6,1.9,2.4,4.4,2.4,7c0,2.4-0.8,5-2.3,7.3
		c-0.8,1.3-1.8,2.4-2.9,3.4l7.6-0.4c0,0,0,0,0.1,0c0.2,0,0.5,0.1,0.7,0.3c0.2,0.2,0.3,0.4,0.3,0.7v2.3c0,0.3-0.1,0.5-0.3,0.7
		c-0.2,0.2-0.4,0.3-0.7,0.3c0,0,0,0-0.1,0l-9.2-0.5L29.5,46c0,0.4-0.2,0.9-0.6,1c-0.7,0.3-2.1,0.7-3.8,0.7c-1.7,0-3.1-0.4-3.8-0.7
		c-0.4-0.2-0.7-0.6-0.6-1l2.1-20.1l-9.2,0.5c0,0,0,0-0.1,0c-0.2,0-0.5-0.1-0.7-0.3c-0.2-0.2-0.3-0.4-0.3-0.7v-2.3
		c0-0.3,0.1-0.5,0.3-0.7c0.2-0.2,0.4-0.3,0.7-0.3c0,0,0,0,0.1,0l7.6,0.4c-1.1-0.9-2.1-2.1-2.9-3.4c-1.5-2.3-2.3-4.9-2.3-7.3
		c0-2.6,0.9-5.1,2.4-7C20,2.8,22.4,1.6,25,1.6z M25,21.6c2.4-1.2,4.6-4.3,5.1-7.3c0.1-0.4,0-2.5,0-2.8c-0.6-2.9-2.6-4.9-5.1-4.9
		c-2.9,0-5.2,2.9-5.2,6.4C19.8,16.6,22.5,20.3,25,21.6z"/>
</g>
</svg>
