<?xml version="1.0" encoding="utf-8"?>
<!-- Generator: Adobe Illustrator 23.0.0, SVG Export Plug-In . SVG Version: 6.00 Build 0)  -->
<svg version="1.0" id="Layer_1" xmlns="http://www.w3.org/2000/svg" xmlns:xlink="http://www.w3.org/1999/xlink" x="0px" y="0px"
	 width="20px" height="20px" viewBox="0 0 20 20" enable-background="new 0 0 20 20" xml:space="preserve">
<path id="paper_x5F_plane" opacity="0.85" fill="#FFFFFF" enable-background="new    " d="M8.3,17.2c-0.2-0.1-0.2-0.2-0.2-0.5v-2.9
	l2.5,0.8l-1.7,2.2C8.8,16.9,8.7,17,8.6,17C8.4,17.2,8.4,17.2,8.3,17.2z M15.2,15.2L8.6,13L15,5.3l-8.3,7.1L2.8,11
	c-0.2,0-0.3-0.2-0.2-0.5c0.1-0.1,0.1-0.2,0.2-0.2l14-7.3c0.2-0.1,0.6,0,0.7,0.2c0.2,0.2,0.2,0.2,0.2,0.3l-1.7,11.5
	c0,0.1-0.1,0.2-0.2,0.2c-0.1,0.1-0.1,0.1-0.2,0.1C15.2,15.2,15.2,15.2,15.2,15.2L15.2,15.2z"/>
</svg>
