<?xml version="1.0" encoding="utf-8"?>
<!-- Generator: Adobe Illustrator 23.0.0, SVG Export Plug-In . SVG Version: 6.00 Build 0)  -->
<svg version="1.0" id="Layer_1" xmlns="http://www.w3.org/2000/svg" xmlns:xlink="http://www.w3.org/1999/xlink" x="0px" y="0px"
	 viewBox="0 0 50 50" enable-background="new 0 0 50 50" xml:space="preserve">
<path fill="#FFFFFF" d="M47.7,19.9c-0.2,0.3-0.3,0.6-0.5,0.8c-2.6,3.2-5.6,6.8-9.3,10c-0.4,0.4-0.7,0.8-0.5,1.4
	c0.9,4.9,1.1,9.5,1.1,13.6c0,0.2-0.1,0.4-0.2,0.5c-0.2,0-0.4,0-0.5-0.1c-4-1.7-8-3.4-12.3-5.8c-0.4-0.2-0.6-0.2-1,0
	C21.1,42.1,18,43.6,15,45c-0.9,0.4-1.8,0.8-2.7,1.2c-0.5,0.2-0.7,0.1-0.7-0.4c0-3.7,0.1-7.7,0.9-12c0-0.2,0-0.5,0.1-0.7
	c0.5-1.3-0.1-2-1.1-3c-3.2-3.2-6-6.5-8.5-9.3c-0.2-0.2-0.4-0.5-0.6-0.9C3.2,19.6,4,19.2,5,19c3.4-0.8,7.4-1.5,11.7-2.1
	c0.3,0,0.6-0.3,0.7-0.6c0.9-1.9,1.7-3.7,2.7-5.4C21.6,8.3,23.2,6,24.6,4c0.1-0.1,0.3-0.2,0.4-0.3c0.2,0.1,0.4,0.2,0.5,0.3
	c1.5,2,3.1,4.4,4.7,7.1c0.9,1.6,1.7,3.3,2.5,5.1c0.2,0.4,0.5,0.6,0.9,0.7c3.4,0.5,6.6,1,9.4,1.6c1.6,0.4,3.1,0.9,4.4,1.3
	C47.5,19.8,47.6,19.8,47.7,19.9z"/>
</svg>
