<?xml version="1.0" encoding="utf-8"?>
<!-- Generator: Adobe Illustrator 23.0.0, SVG Export Plug-In . SVG Version: 6.00 Build 0)  -->
<svg version="1.0" id="follow_x5F_icon" xmlns="http://www.w3.org/2000/svg" xmlns:xlink="http://www.w3.org/1999/xlink" x="0px"
	 y="0px" viewBox="0 0 50 50" enable-background="new 0 0 50 50" xml:space="preserve">
<path fill="#FFFFFF" d="M23.7,26.2c-4.6,0.1-8.4-3.7-8.4-8.3c-0.1-4.6,3.9-8.4,9-8.4s8.8,3.5,8.4,8.2v0.1
	C32.2,22.3,28.3,26.1,23.7,26.2z M23.4,40.5c-3.7-0.1-7.2-1-10.4-2.9c-0.1-0.1-0.2-0.1-0.3-0.2c-1.2-0.9-1.6-2.5-0.7-3.8
	c1-1.5,2.2-2.8,3.6-3.7c2.3-1.7,5.2-2.6,8.1-2.6c4.7,0,9,2.4,11.4,6.5c0.1,0.1,0.1,0.2,0.2,0.3c0.3,0.7,0.3,1.4,0.1,2.2
	c-0.3,0.7-0.7,1.3-1.3,1.7C30.7,39.7,27.1,40.5,23.4,40.5L23.4,40.5z"/>
<path fill="#FFFFFF" d="M39.5,24.8c-3.1,0.1-5.6-2.5-5.7-5.6s2.6-5.6,6.1-5.7c3.4-0.1,5.9,2.4,5.6,5.5v0.1
	C45.3,22.2,42.6,24.7,39.5,24.8z M39.3,34.5c-2.5-0.1-4.9-0.7-7.1-1.9c-0.1-0.1-0.1-0.1-0.2-0.1c-0.8-0.6-1.1-1.7-0.5-2.6
	c0.6-1,1.5-1.9,2.4-2.5c1.6-1.1,3.5-1.8,5.5-1.8c3.2,0,6.1,1.6,7.7,4.4c0.1,0.1,0.1,0.1,0.1,0.2c0.2,0.5,0.2,0.9,0.1,1.5
	c-0.2,0.5-0.5,0.9-0.9,1.1C44.3,33.9,41.8,34.5,39.3,34.5L39.3,34.5z"/>
<path fill="#FFFFFF" d="M9.1,24.8c-2.5,0-4.5-2-4.6-4.5s2.1-4.5,4.8-4.6c2.7,0,4.7,1.9,4.5,4.4v0C13.7,22.7,11.6,24.7,9.1,24.8z
	 M8.9,32.5c-2,0-3.9-0.6-5.6-1.6c0,0-0.1,0-0.1-0.1c-0.7-0.5-0.8-1.4-0.4-2.1c0.5-0.8,1.2-1.5,1.9-2c1.3-0.9,2.8-1.4,4.4-1.4
	c2.5,0,4.8,1.3,6.2,3.5c0,0,0,0.1,0.1,0.1c0.1,0.4,0.2,0.8,0,1.2c-0.1,0.4-0.4,0.7-0.7,0.9C12.9,32.1,10.9,32.5,8.9,32.5L8.9,32.5z"
	/>
</svg>
