<?xml version="1.0" encoding="utf-8"?>
<!-- Generator: Adobe Illustrator 23.0.0, SVG Export Plug-In . SVG Version: 6.00 Build 0)  -->
<svg version="1.0" id="follow_x5F_icon" xmlns="http://www.w3.org/2000/svg" xmlns:xlink="http://www.w3.org/1999/xlink" x="0px"
	 y="0px" viewBox="0 0 50 50" enable-background="new 0 0 50 50" xml:space="preserve">
<g id="front_x5F_flyer">
	<path id="shawod1_1_" opacity="0.25" enable-background="new    " d="M34.1,40c-2.3,1.1-8.8,3.6-11.1,4.7s-4.9-0.4-5.6-2.9
		C14.1,30.3,11,15.7,11,12.4c0-1.5,0.6-2.6,2.3-3.1s12.1-2.7,13.5-2.9c1.4-0.3,2.7,1.2,3.1,2.7c1.4,5.9,3.8,14.1,7.5,25.6
		C38,36.4,36.4,38.9,34.1,40z"/>
	<path fill="#FFFFFF" enable-background="new    " d="M35.3,33.9c-0.7-2.5-4.1-15-7-26.2c-0.3-1.5-1.6-2.9-2.9-2.7
		C20.3,5.7,13.1,7.4,11.9,8c-1.2,0.5-2.2,1.7-2.2,3.5c0,5.1,4.9,26.2,6.2,29.3s3.4,3.8,5.6,3.1c4.4-1.5,6.6-2.7,11.1-4.4
		C34.7,38.4,36,36.4,35.3,33.9z M32,38.6c-1.8,0.8-4-0.2-4.4-1.8c-0.4-1.6,0.8-3.6,2.7-4.4c1.9-0.8,4,0.1,4.4,1.8
		C35.2,35.9,33.8,37.8,32,38.6z"/>
</g>
<g>
	<g id="sa7_icon_1_" transform="translate(6 7)">
		<path id="sa7_1_" fill="#2FBB06" d="M15.9,11.3c0.7-1.5,1.2-2.2,2-3.7c1.8,1.5,2.7,2.2,4.2,3.7c3-4.4,4.8-6.6,9.4-11.1
			c1.2,1.1,1.7,1.6,2.7,2.6c-4.3,4.3-8.7,9.5-11.7,14.8C20.3,15.1,19,13.9,15.9,11.3z"/>
	</g>
</g>
</svg>
