<?xml version="1.0" encoding="utf-8"?>
<!-- Generator: Adobe Illustrator 23.0.0, SVG Export Plug-In . SVG Version: 6.00 Build 0)  -->
<svg version="1.0" id="Layer_1" xmlns="http://www.w3.org/2000/svg" xmlns:xlink="http://www.w3.org/1999/xlink" x="0px" y="0px"
	 width="50px" height="50px" viewBox="0 0 50 50" enable-background="new 0 0 50 50" xml:space="preserve">
<g>
	<path id="button50" d="M50,11.4v27.2c0,2.8-1,5.4-2.8,7.5c-0.3,0.3-0.6,0.6-0.9,0.9c-0.1,0-0.1,0.1-0.2,0.1C44,49,41.4,50,38.6,50
		H11.4c-2.8,0-5.4-1-7.5-2.8c-0.3-0.3-0.7-0.6-0.9-0.9l-0.1-0.1C1,44,0,41.4,0,38.6V11.4C0,8.6,1,6,2.8,3.9c0.3-0.4,0.7-0.7,1.1-1.1
		C6,1,8.6,0,11.4,0h27.2c2.8,0,5.4,1,7.5,2.8c0.4,0.3,0.7,0.7,1.1,1.1C49,6,50,8.6,50,11.4z"/>
	<g>
		<path fill="#25F4EE" d="M20.8,21.3v-1.5c-0.5-0.1-1.1-0.1-1.6-0.1c-5.1,0-9.7,3.3-11.2,8.2S8.2,38.1,12.5,41
			C8,36.3,8.3,28.9,13,24.4C15.1,22.5,17.9,21.3,20.8,21.3L20.8,21.3z"/>
		<path fill="#25F4EE" d="M21.1,38.4c2.9,0,5.2-2.3,5.4-5.1V7.6h4.7C31,7.1,31,6.6,31,6h-6.4v25.6c-0.1,2.9-2.5,5.2-5.4,5.2
			c-0.9,0-1.7-0.2-2.5-0.6C17.7,37.6,19.3,38.4,21.1,38.4L21.1,38.4z M39.8,16.3v-1.4c-1.7,0-3.4-0.5-4.8-1.5
			C36.3,14.9,38,15.9,39.8,16.3z"/>
	</g>
	<g>
		<path fill="#FE2C55" d="M35,13.4c-1.4-1.6-2.2-3.7-2.2-5.8h-1.7C31.6,10,33,12.1,35,13.4L35,13.4z M19.2,26c-3,0-5.4,2.4-5.3,5.4
			c0,2,1.1,3.8,2.9,4.7c-1.7-2.4-1.2-5.8,1.2-7.5c0.9-0.7,2-1,3.2-1c0.5,0,1.1,0.1,1.6,0.2v-6.5c-0.5-0.1-1.1-0.1-1.6-0.1h-0.3v5
			C20.3,26.1,19.7,26,19.2,26L19.2,26z"/>
		<path fill="#FE2C55" d="M39.8,16.3v5c-3.2,0-6.3-1-8.9-2.9v13c0,6.5-5.3,11.8-11.8,11.8c-2.4,0-4.8-0.7-6.7-2.1
			c4.4,4.8,11.9,5,16.6,0.6c2.4-2.2,3.7-5.3,3.7-8.6v-13c2.6,1.9,5.7,2.9,8.9,2.8v-6.4C41.1,16.5,40.5,16.5,39.8,16.3L39.8,16.3z"/>
	</g>
	<path fill="#FFFFFF" d="M31,31.4v-13c2.6,1.9,5.7,2.9,8.9,2.8v-5c-1.9-0.4-3.6-1.4-4.9-2.8c-2-1.3-3.5-3.4-3.9-5.8h-4.7v25.6
		c-0.1,3-2.6,5.3-5.6,5.2c-1.6-0.1-3.2-0.9-4.1-2.2c-2.6-1.4-3.6-4.6-2.3-7.3c0.9-1.8,2.7-2.9,4.7-2.9c0.5,0,1.1,0.1,1.6,0.2v-5
		c-6.5,0.1-11.6,5.5-11.5,12c0,2.9,1.2,5.7,3.2,7.9c2,1.3,4.3,2,6.7,2C25.7,43.2,31,37.9,31,31.4z"/>
</g>
</svg>
