<?xml version="1.0" encoding="utf-8"?>
<!-- Generator: Adobe Illustrator 23.0.0, SVG Export Plug-In . SVG Version: 6.00 Build 0)  -->
<svg version="1.0" id="Layer_1" xmlns="http://www.w3.org/2000/svg" xmlns:xlink="http://www.w3.org/1999/xlink" x="0px" y="0px"
	 width="50px" height="50px" viewBox="0 0 50 50" enable-background="new 0 0 50 50" xml:space="preserve">
<g>
	<path id="phone_shape_1_" fill="#FFFFFF" d="M16.8,21.8c-0.6-2.2,0.6-4.5,2.7-5.6c1.9-0.9,3.3-2.9,2.9-5c-0.3-2.7-1.7-5.2-4-7.6
		c-1.2-1.1-2.9-1.4-4.1-0.7c-1.4,1.1-2.2,1.6-3.7,2.7C8.8,7,7.9,9.3,7.8,11.9c0.7,14.2,7,28.7,20.8,34.8c2.3,1.1,4.6,1.1,6.6,0
		c1.4-0.9,2.2-1.3,3.7-2.2c1.1-0.7,1.4-2.2,0.9-3.4c-1.2-2.5-2.7-4.5-4.8-5.9c-1.6-1.1-3.9-1.1-5.5,0.2c-1.8,1.3-4.4,1.1-5.9-0.5
		C20.3,31.2,17.9,26.6,16.8,21.8z"/>
</g>
</svg>
