<?xml version="1.0" encoding="utf-8"?>
<!-- Generator: Adobe Illustrator 23.0.0, SVG Export Plug-In . SVG Version: 6.00 Build 0)  -->
<svg version="1.0" id="Layer_1" xmlns="http://www.w3.org/2000/svg" xmlns:xlink="http://www.w3.org/1999/xlink" x="0px" y="0px"
	 viewBox="0 0 50 50" enable-background="new 0 0 50 50" xml:space="preserve">
<path fill="#FFFFFF" d="M47.2,3.9c-0.4-0.4-0.7-0.8-1.1-1.1C44,1,41.4,0,38.6,0H11.4C8.6,0,6,1,3.9,2.8C3.5,3.2,3.1,3.5,2.8,3.9
	C1,6,0,8.6,0,11.4v27.2c0,2.8,1,5.4,2.9,7.6L3,46.3c0.2,0.3,0.6,0.6,0.9,0.9C6,49,8.6,50,11.4,50h27.2c2.8,0,5.4-1,7.5-2.9
	c0.1,0,0.1-0.1,0.2-0.1c0.3-0.3,0.6-0.6,0.9-0.9C49,44,50,41.4,50,38.6V11.4C50,8.6,49,6,47.2,3.9z M17.9,37.5L17.9,37.5
	c-6.9,0-12.5-5.6-12.5-12.5c0-11.1,13.2-16.4,20.9-9.2L22.9,19c-4.3-4.2-12.8-1.2-12.8,5.9c0,9.6,13.7,10.3,14.8,2.5h-7.1v-4.3h11.8
	C31,30.2,26.5,37.5,17.9,37.5z M44.6,26.8h-3.5v3.6h-3.6v-3.6h-3.6v-3.6h3.6v-3.6h3.6v3.6h3.5V26.8z"/>
</svg>
