<?xml version="1.0" encoding="utf-8"?>
<!-- Generator: Adobe Illustrator 23.0.0, SVG Export Plug-In . SVG Version: 6.00 Build 0)  -->
<svg version="1.0" id="globes" xmlns="http://www.w3.org/2000/svg" xmlns:xlink="http://www.w3.org/1999/xlink" x="0px" y="0px"
	 viewBox="0 0 400 400" enable-background="new 0 0 400 400" xml:space="preserve">
<g id="North_America_1_">
	<path id="Sea_shadow_2_" opacity="0.5" fill="#86CAD9" enable-background="new    " d="M303.3,28.9c59.1,35.1,97,102.4,96.4,171.2
		c0.5,69.6-38.1,137.6-98.4,172.3c-60,36.3-139.3,37-200,1.8C37.5,339-3.5,266.1,0,193.2C1.5,123.9,42.8,57.4,103.6,24.6
		C164.7-9.6,243.7-7.9,303.3,28.9z"/>
	<g id="States_1_">
		
			<path id="path5683_1_" opacity="0.5" fill="#FFFFFF" stroke="#000000" stroke-width="0.25" stroke-linecap="round" stroke-linejoin="round" enable-background="new    " d="
			M193.3,0.1c-16.8,0.5-33.1,3.1-48.7,7.7l0.3-0.1c-0.1,0.2-0.3,0.2-0.5,0.2c0.1-0.3-0.3-0.1-0.7,0.1h0.2l-0.6,0.2l0.3-0.2
			c-0.1,0-0.2,0-0.3,0.1c-0.1,0.1-0.2,0.1-0.3,0.2c0.5,0-0.3,0.1-0.4,0.1l0.3-0.1c-13.2,3.7-26.4,8.9-38.9,15.4
			c-0.6,0.2-1,0.5-1.4,0.9l0.7-0.3c-1.6,1.2-3.4,2.3-5.2,3.3l0.5-0.4c-0.7,0.4-1.4,0.8-2.1,1.2c0.3-0.2,0.6-0.4,0.9-0.6
			c-1,0.9-2.2,1.7-3.4,2.4c-1.4,0.8-2.7,1.7-4,2.7c0.9-0.6,1.8-1.1,2.8-1.6l-0.2,0.1c0.9-0.5,1.7-1,2.6-1.5c-2,1-4.3,2.4-5.9,3.4
			l0.1-0.2c-0.4,0.3-0.8,0.6-1.2,0.9l0.2-0.1L88,34.2l0.2-0.2c-1.7,1.3-3.4,2.5-5.2,3.7c0,0-0.1,0-0.1,0c-0.2,0.4-0.6,0.7-1.1,0.7
			v0.2c-1,0.7-2.2,1.6-3.3,2.3l0.5-0.2L78.7,41h0.1L78,41.4l0.6-0.4c-0.3,0.2-0.5,0.4-0.7,0.6c-0.3,0.2-0.6,0.5-0.9,0.7
			c3.1-2.2,6.3-4.3,9.5-6.4l-2,2.2l1.5-0.7L85.3,38l0.7-0.2l-1.1,0.9h0.7c-2.1,1-3.8,2.6-4.9,4.6c1.8,2.7,4.4,3.6,7.4,2.5
			c1.2-1.7,2.4-3.2,3.9-4.7l-1.6-0.4c1.1-2.2,2.3-4.1,3.8-6c-1.5,1.8-2.6,3.8-3.4,6c0.5,0.3,1,0.3,1.5-0.2l-0.4,0.6l0.9-0.2
			c-0.1,1.1-0.1,2.2-0.1,3.3c1.2,0,2.3-0.4,3.1-1.3l-0.2,0.4c1.8-0.1,3.3-0.8,4.4-2.3l-0.5,0.2l0.2-1.3h1.3l-0.2-0.9
			c1.8-0.2,3.1-0.9,4.4-2.2c0,2.8,1.2,5.2,3.5,6.9c-0.1,2.2-1.1,3.5-2.9,3.9l0.7,0.5l-2.4,2.9l1.3,0.2l-3.3,3.8l0.4-1.5
			c-1.6,1-2.3,2.6-2,4.9l1.1-0.4l0.2-0.9c1.7-0.5,3.4-0.1,4.9,1.3c0.1,1.3,0.2,2.7,0.2,4c-1-0.2-1.9-0.1-2.8,0.2V63l-1.3,0.2
			l2.9,1.6l-0.2,1.1l2.7-0.9l0.2,1.3l-0.9,0.9l-0.4-1.1l-4.2,1.1c-1.5-2.1-4-3.5-6.9-4.1v-1.8c-6.8,0.5-13.4,3-19.1,6.9
			c1.7,1.5,3.4,1.5,4.9,0l-0.2,2.2c1-0.4,1.9-0.7,2.9-1l0.9,2.2l4-1.5v1.5l3.3-2.2l1.1,0.4l1.1-2.2l5.5,0.2v0.9l-0.9,0.7l1.8,1.1
			l-2,0.7l1.8,0.2l0.4,2.4l-2,2c5-0.1,8.4,2.4,8.5,7.2c2.6-0.2,4.7-1.5,6.4-4l-0.9,0.2l1.5-1.6l-1.1-1.1l0.9-0.2l0.9,3.3
			c1.8,0.5,3.5,0.2,5-1.1l0.2,0.9l-2.7,1.3l0.9,1.8c-1.7,1.2-2.6,2.8-2.6,4.9l0.9-0.2l-0.9,0.9l0.9,0.6l0.7-1.8
			c0.9,0.8,1.7,0.8,2.6,0l0.2-1.3l0.2,2.2l0.9-0.9l-0.2,1.1h2c1.4-2,1.7-4.1,0.7-6.2l-2.7,2.2c5.7-5,9.1-11.7,9.7-18.9
			c-1.4-0.1-2.5,0.4-3.5,1.5l-0.9-0.4c0.7-1.6,1.8-2.6,3.4-3.1l-0.9-0.4l1.1-4l-1.3-0.6l2.9-1.3v-0.2c3.5-2.7,5.8-5.1,8.6-8.8
			l0.4,0.9c1.6-0.8,2.7-2.1,3.3-3.8l-0.9,1.8l4.2-3.8H147c-0.1-0.5-0.1-0.9,0.2-1.3c-0.2,0.2-0.4,0.4-0.6,0.6c0-0.3-0.1-0.5-0.4-0.6
			c-0.6,0.1-1.1,0.2-1.7,0.2l1.3-1.3l-1.1-0.2c1.8-0.1,2.9-0.9,3.4-2.4l2.2-0.4l-2-1.8l5.3-0.6l-0.4,0.9l1.5-0.4l-0.4,0.7
			c2.1-0.3,4.1-0.8,6.2-1.6l-0.9-1.8c1.3-1,2.7-1.5,4.2-1.5l0.2,0.5c1.9,0,3.1-0.8,3.6-2.4l2,0.7v-0.7c0.9,0.4,1.7,0.3,2.4-0.3
			l-0.2-0.6l-1.1,0.4l3.3-2.2c0.2,2-0.7,3.7-2.7,5.1l2,0.4H172l0.2,0.4c2.4,1,4.6,0.6,6.5-1.1V32l2.7-0.6l-1.1,1.1h2l1.1-1.6
			l-0.7-1.1c0.6-0.1,1.2-0.3,1.8-0.4l-1.3-0.4c1.2,0.5,2.2,0.1,3.1-1.1v0.4c2.5-0.5,4.8-1.3,7.1-2.6l-0.2-0.9l1.1,0.4l-1.8-1.5
			l6.7-0.9l-0.4-1.8l-3.1-1.1c0.2-1,0.1-2-0.4-2.8c0.5,0.1,1,0.3,1.5,0.6l-0.4,1.1l0.9-0.4l-1.1,1.5c2.1,0.3,4.2,0.6,6.1,0.9
			l-0.4-0.7l2.2,0.2l-2.7-1.6l2.7,0.5l0.9,2.7v-1.1l2.4-1.1l-1.1-1.1c0.3-0.7,0.6-1.4,1.1-2c-2.1,0.5-4.1,0-5.3-1.5l0.9-0.7
			l-1.8-0.4l2.2,0.4l0.4,1.8l2.4-0.2l0.2-1.3c2.6-1.8,5.2-2,8-0.6c-2.4-0.5-4.6,0-6.6,1.5l1.1,0.9c-0.4,0.8-0.8,1.7-1.1,2.6l0.9,0.9
			l-1.8,1.8c1.1,0.4,2.3,0.7,3.5,0.9c0.8-1.7,2.1-2.5,4-2.4c0.2-0.8,0.5-1.4,1.1-1.9c-1.2,0.2-2-0.3-2.6-1.3l1.8-0.9l2.7,1.8
			l-0.7-0.2c2,2.1,4.2,2.8,6.6,2.2l-0.4-1.3c0.8,0.6,1.5,0.6,2.2,0l0.2,0.9c2.8,0.1,5.2,0.5,7.7,1.4l-1.3,0.4h2.2l-0.4,0.2l5.1,0.9
			v-0.4l1.5,0.7l1.3-0.7l2,0.9l0.2,1.1l-2.7-0.7l-0.4,0.4l2.4,2.2l-0.2-0.9l4.4-2c2,2.4,4.7,3.1,7.1,1.3c0.8,1.4,2.2,2.5,3.7,2.8
			l-0.6-1.3l1.8,0.2l1.3,2.2c-0.8,1-1.9,1.2-3.1,0.7l0.9,1.6l-1.1-0.5v1.6c-2-4.3-5.1-6.3-9.4-5.9c0.2,0.6,0,1.1-0.4,1.5
			c0.5,2.8,2.2,4.5,4.7,4.6l-1.5,0.2l1.1,0.7l-0.9,0.4l-0.7-0.7l0.2,0.7l1.6,0.2V34l1.1,0.4c-0.1,0.3-0.3,0.5-0.4,0.8
			c-0.6-0.9-1.4-1.4-2.4-1.5l0.2,1.8l2,0.2h-2l0.2,0.6c1-0.2,2-0.1,2.9,0.2l-1.8,0.2l3.6,0.6l-2.7-0.2L253,38
			c1.2,0.1,2.3,0.3,3.5,0.4l0.2,1.3c0.4-0.1,0.9-0.2,1.3-0.4l-0.2,0.7l2.7,0.6h-1.1l1.1,0.2h-1.1l0.9,0.7l0.9-0.7v1.1
			c1.7-0.5,2.9,0,3.8,1.3l-0.4-1.3l0.9,1.3L267,43l-0.9,0.4l0.9,0.7l0.2-0.4l0.7,0.7l0.2-0.9l1.8,1.3l-0.2-0.9l1.5,1.8l0.2-0.4
			l2.4,0.9l-1.1-1.1l1.5,1.3l0.4-0.2v0.5l2.4,0.6l-0.9-0.9l2.2,1.5l-0.7-0.7l1.1,0.7c0.4-0.3,0.9-0.3,1.3,0.2l-0.9,0.2l3.8,1.8
			c-0.3-1.1-1.1-1.8-2.4-2c1.4,0,2.5,0.6,3.1,1.8l-0.7,0.2c0.6,1,1.4,1.5,2.6,1.3v0.7l0.7-0.5l-0.2,1.3l0.2-1.1l1.3,2.2l0.4-0.4
			l0.9,0.2l-0.2,0.7l0.4-0.2v1.1c0.7,0.1,1.4,0.3,2,0.6v-0.9l0.5,0.9l-0.2-0.6l1.1,0.6c-0.2-1-0.8-1.7-1.8-1.9l0.4-0.4l-1.1-0.4
			c0.9-0.2,1.6,0.1,2.2,0.9l-0.6,0.2l1.1,2l0.2-0.4l0.4,0.7l0.7-0.2l-0.9-0.7c0.5,0.7,1.2,1,2,0.9l-0.9-0.7l1.5,0.7l-2.4-2.2
			l3.6,2.9l0.7-0.4l-1.3-1.3L298,57l-0.4-0.9l0.9,0.4l-0.2,0.9l1.3,0.2l0.9-1.3c-1.5-1.5-3.5-3.3-4.9-4.6l-2.7-0.9l4,0.2l-0.4-0.7
			l1.3,0.4l-1.3-0.6c1.4,0.9,2.7,0.8,4-0.3c0.8,1,1.9,1.4,3.3,1.1c-2.6-3.6-6.5-5.8-11.1-6l-0.5-0.7l0.2,0.9
			c-0.5-1.1-1.4-1.8-2.6-1.9h0.9l-2-1.1l0.2,0.7l-1.8-1.1l-1.3,0.9l0.4,0.9l-6.7-1.1l0.2-0.2c-2.7-2.3-5.9-3.4-9.3-3.2v-0.5
			l-1.6,0.2L269,38c-1.1,0.3-1.9-0.3-2.3-1.6l1.3-0.9c4.9,2.5,9.8,3.7,15.1,3.6V38l-0.9-0.7l1.5,0.4l-8.2-5.8h1.1l-1.1-1.5
			c3.4,2.9,7.2,5.1,11.1,6.6l-0.9-0.9c1.7-0.3,3.2,0,4.4,1.1l-1.1,1.1c3.9,1,7.6,2.4,10.8,4.2c-0.2-0.2-0.5-0.5-0.7-0.7
			c0.8,0.5,1.4,0.9,2.2,1.4l-1.5-0.7l1.8,1.3l-0.4,0.9c1.7,2.2,3.8,3.9,6.2,5.1l-0.9,1.3l2.9,3.1l-1.3-0.7L309,55
			c-2.2,0.5-4.5-0.5-6.2-2.6l-0.2,0.9l-3.1-1.3c2.3,3.2,5.5,4.9,9.6,5.1l-0.4-0.4l0.6-0.2l0.9,0.7l1.1-1.1l-0.2,1.3l1.5,0.7
			l-0.4,0.4l0.9,1.3l0.6-0.2c0,1.4,0.5,2.4,1.6,3.1l1.1-0.2l1.1,1.1h-1.6l3.1,2.2l0.4-0.7l1.1,2V66c3.3,3.4,5.7,7.2,6.9,11.3
			l2.7,0.7l0.9,2.2l-0.9,0.2l1.3,3.1l0.5-0.4v0.7l1.3,0.2l0.2-2.7l2.2,0.4l0.2-0.9c6.1,2.7,9,7.7,8.4,14.6l-0.7,0.6l2,4
			c3.8,1.6,7.4,4.7,9.7,8.4l-0.7-1.3l1.3,1.6V108l2.9,2.9l-0.7-4.4h2.4c-1.6-6.1-4.1-11.3-7.9-16.1c-7.5-6.7-14.1-15.8-18.3-25.1
			l2.7,0.4l0.2-4.6c1.7,0.3,3,1.2,4,2.6c-1-1.3-2.4-2.8-3.7-4l-0.7,0.4c-1.2-0.7-2.1-1.6-2.7-2.8l0.4-0.2l-0.9-0.9l0.2,2.7l-1.1-0.9
			l1.3,2.2h-2l-0.4,1.3c-2.1-0.3-3.7-1.5-4.6-3.6l2,0.4l-1.8-1.5l2.4-0.2c-0.9-1.2-1.2-2.6-0.9-4l3.3,2c0.3-0.1,0.5-0.3,0.8-0.4
			l-0.9-0.9c0.3,0.6,0.7,0.9,1.3,0.9l-2.7-3.1l0.9,0.6c-0.8-0.3-1.1-0.7-1.1-1.3l-1.1-0.6l0,0c-0.1-0.4-0.4-0.6-0.9-0.6
			c0,0.6,0.3,1,0.8,1.1l-0.2-0.4c-1.5-0.4-2.5-1.3-3.2-2.7l-0.2,0.2c-1.7-1.1-3.2-2.5-4.3-4.2c1.3,1,2.6,1.8,3.9,2.7
			c-0.6-0.7-1.5-1.4-2.4-1.9l2,1.3l-0.2-0.4l0.9,0.9h-0.2l1.1,0.6l-1.1-1.3L326,46l-0.4-0.7l1.1,0.9c-2.1-2-4.3-4-6.6-5.8l0.2,0.1
			c-0.6-0.3-1.1-0.7-1.5-1.2l0,0l0.2,0.1c-0.2-0.4-0.6-0.5-1-0.4c-0.4-0.3-0.7-0.5-1.1-0.7c-1.9-1.6-4-3-6.1-4.3l0,0
			c-1-0.7-2.1-1.3-3.1-1.9l0,0c-2.7-1.8-5.7-3.5-8.5-4.9c-0.6-0.7-1.4-1.3-2.2-1.6c-0.2-0.2-0.4-0.3-0.6-0.4
			c6.9,4.6,13.7,9.3,20.3,14.3l-1.1-1.1c1.9,1.4,3.5,2.9,5.2,4.6c-1.5-1-2.8-2.2-4.1-3.5l-0.4,0.7l0.6,0.6c-2.3-1.7-4.7-3.1-7.3-4.2
			h0.2c-0.8-0.9-1.9-1.4-3.1-1.6h0.2c-1.9-1.3-3.9-2.4-6-3.5v-0.4l1.3,1.1l-0.4-0.7l0.6,0.4l-2.2-1.9l2.7,1.7l-1.3-1.1l1.3,0.4
			c-1.9-2.1-4.3-3.6-7.1-4.5c1,0.5,2.3,1.4,2.9,2.3l-2.4-1.1l1.3,0.4c-3.3-1.5-6.5-3.3-9.6-5.3c1.4,0.3,2.6,1,3.5,2l-0.4-0.7
			c1.8,0.7,3.5,1.5,5.1,2.6c-1.6-1.7-3.4-3.1-5.4-4.2c0.9,0.1,1.7,0.4,2.4,0.9c-5-2.7-9.9-5-15.1-7l0,0c-0.1-0.1-0.3-0.1-0.4-0.2
			l0,0l0.3,0.2l-0.3-0.2l-0.1,0.2c-5.4-1.8-10.8-3.8-16-5.9l2.2,0.6l-0.9-0.4c1.8,0.9,3.7,1.5,5.6,2c-0.5-0.4-1-0.6-1.6-0.7h0.2
			l-0.6-0.2c-4.9-1.6-9.6-3.1-14.4-4.6c-1.7-0.2-3.4-0.6-4.9-1.2h0.2c-0.4-0.1-0.7-0.2-1.1-0.2l0.6,0.2
			C239.8,4.1,193.3-3.3,193.3,0.1z"/>
		
			<path id="path5673_1_" opacity="0.5" fill="#FFFFFF" stroke="#000000" stroke-width="0.25" stroke-linecap="round" stroke-linejoin="round" enable-background="new    " d="
			M267.4,12c0.8,0.8,1.8,1.2,2.8,1.1c-0.7-0.3-1.4-0.5-2.1-0.8l0.3,0.1c-0.3,0-0.6-0.1-0.8-0.3h0.1C267.6,12,267.5,12,267.4,12
			L267.4,12z"/>
		
			<path id="path5671_1_" opacity="0.5" fill="#FFFFFF" stroke="#000000" stroke-width="0.25" stroke-linecap="round" stroke-linejoin="round" enable-background="new    " d="
			M268.4,12.3h0.1l-0.3-0.1L268.4,12.3z"/>
		
			<path id="path5669_1_" opacity="0.5" fill="#FFFFFF" stroke="#000000" stroke-width="0.25" stroke-linecap="round" stroke-linejoin="round" enable-background="new    " d="
			M268.5,12.4l0.4,0.1c-0.2,0-0.4-0.1-0.6-0.2L268.5,12.4z"/>
		
			<path id="path5667_1_" opacity="0.5" fill="#FFFFFF" stroke="#000000" stroke-width="0.25" stroke-linecap="round" stroke-linejoin="round" enable-background="new    " d="
			M277.5,16.1c0,0-0.1,0-0.1,0H277.5z"/>
		
			<path id="path5665_1_" opacity="0.5" fill="#FFFFFF" stroke="#000000" stroke-width="0.25" stroke-linecap="round" stroke-linejoin="round" enable-background="new    " d="
			M277.6,16l0.3,0.1c-0.2-0.2-0.4-0.3-0.7-0.3C277.3,15.9,277.4,16,277.6,16z"/>
		
			<path id="path5663_1_" opacity="0.5" fill="#FFFFFF" stroke="#000000" stroke-width="0.25" stroke-linecap="round" stroke-linejoin="round" enable-background="new    " d="
			M283.1,18.5c-0.2-0.3-0.6-0.4-0.9-0.4L283.1,18.5z"/>
		
			<path id="path5661_1_" opacity="0.5" fill="#FFFFFF" stroke="#000000" stroke-width="0.25" stroke-linecap="round" stroke-linejoin="round" enable-background="new    " d="
			M293.3,23.6l2.9,1.5C295.3,24.5,294.3,24,293.3,23.6L293.3,23.6z"/>
		
			<path id="path5659_1_" opacity="0.5" fill="#FFFFFF" stroke="#000000" stroke-width="0.25" stroke-linecap="round" stroke-linejoin="round" enable-background="new    " d="
			M319.9,40.5c0.4,0.3,0.7,0.5,1.1,0.7c-0.2-0.3-0.5-0.5-0.8-0.6C320.1,40.6,320,40.5,319.9,40.5z"/>
		
			<path id="path5657_1_" opacity="0.5" fill="#FFFFFF" stroke="#000000" stroke-width="0.25" stroke-linecap="round" stroke-linejoin="round" enable-background="new    " d="
			M320.1,40.7c-0.4-0.5-0.9-0.8-1.5-1.1C319.2,40,319.5,40.3,320.1,40.7z"/>
		
			<path id="path5655_1_" opacity="0.5" fill="#FFFFFF" stroke="#000000" stroke-width="0.25" stroke-linecap="round" stroke-linejoin="round" enable-background="new    " d="
			M331.7,52c0.8,1.7,2.1,2.9,3.8,3.3l-0.9-0.9l0.5,0.2c-1.1-1.1-2.1-2-3.3-3.1V52H331.7z"/>
		
			<path id="path5653_1_" opacity="0.5" fill="#FFFFFF" stroke="#000000" stroke-width="0.25" stroke-linecap="round" stroke-linejoin="round" enable-background="new    " d="
			M334.3,55.1h-0.2L335,56L334.3,55.1z"/>
		
			<path id="path5651_1_" opacity="0.5" fill="#FFFFFF" stroke="#000000" stroke-width="0.25" stroke-linecap="round" stroke-linejoin="round" enable-background="new    " d="
			M298.2,41.8c-0.6-0.7-1.4-1-2.4-1.1L298.2,41.8z"/>
		
			<path id="path5649_1_" opacity="0.5" fill="#FFFFFF" stroke="#000000" stroke-width="0.25" stroke-linecap="round" stroke-linejoin="round" enable-background="new    " d="
			M231.7,20.9l-1.3-0.2C230.8,20.9,231.2,21,231.7,20.9z"/>
		
			<path id="path5647_1_" opacity="0.5" fill="#FFFFFF" stroke="#000000" stroke-width="0.25" stroke-linecap="round" stroke-linejoin="round" enable-background="new    " d="
			M77.2,42L77,42.3l0.4-0.3H77.2z"/>
		
			<path id="path5645_1_" opacity="0.5" fill="#FFFFFF" stroke="#000000" stroke-width="0.25" stroke-linecap="round" stroke-linejoin="round" enable-background="new    " d="
			M83,37.7c0.4-0.3,0.8-0.6,1.2-1C83.8,37,83.4,37.3,83,37.7z"/>
		
			<path id="path5643_1_" opacity="0.5" fill="#FFFFFF" stroke="#000000" stroke-width="0.25" stroke-linecap="round" stroke-linejoin="round" enable-background="new    " d="
			M89.3,33.1v0.2c0.2-0.1,0.4-0.2,0.6-0.4L89.3,33.1z"/>
		
			<path id="path5641_1_" opacity="0.5" fill="#FFFFFF" stroke="#000000" stroke-width="0.25" stroke-linecap="round" stroke-linejoin="round" enable-background="new    " d="
			M96.7,28.7c0.2,0,0.4-0.1,0.5-0.3L96.7,28.7z"/>
		
			<path id="path5639_1_" opacity="0.5" fill="#FFFFFF" stroke="#000000" stroke-width="0.25" stroke-linecap="round" stroke-linejoin="round" enable-background="new    " d="
			M97.2,28.4l0.6-0.3C97.5,28.1,97.3,28.2,97.2,28.4z"/>
		
			<path id="path5637_1_" opacity="0.5" fill="#FFFFFF" stroke="#000000" stroke-width="0.25" stroke-linecap="round" stroke-linejoin="round" enable-background="new    " d="
			M97.3,28.2l1.3-0.7c-0.2,0-0.4,0.1-0.6,0.3C97.8,27.9,97.5,28.1,97.3,28.2z"/>
		
			<path id="path5635_1_" opacity="0.5" fill="#FFFFFF" stroke="#000000" stroke-width="0.25" stroke-linecap="round" stroke-linejoin="round" enable-background="new    " d="
			M98,27.8l0.4-0.2C98.2,27.6,98.1,27.6,98,27.8z"/>
		
			<path id="path5633_1_" opacity="0.5" fill="#FFFFFF" stroke="#000000" stroke-width="0.25" stroke-linecap="round" stroke-linejoin="round" enable-background="new    " d="
			M98.4,27.6L98.4,27.6l0.5-0.2l-0.2,0.2c0.4-0.2,0.8-0.4,1.1-0.7l-0.5,0.2l0.2-0.2L98.4,27.6z"/>
		
			<path id="path5631_1_" opacity="0.5" fill="#FFFFFF" stroke="#000000" stroke-width="0.25" stroke-linecap="round" stroke-linejoin="round" enable-background="new    " d="
			M99.8,26.9c0.7-0.4,1.4-0.9,2.1-1.3l-0.8,0.4h0.1C100.7,26.2,100.2,26.5,99.8,26.9z"/>
		
			<path id="path5629_1_" opacity="0.5" fill="#FFFFFF" stroke="#000000" stroke-width="0.25" stroke-linecap="round" stroke-linejoin="round" enable-background="new    " d="
			M100.8,26.2l0.3-0.2c-0.3,0.1-0.7,0.3-1,0.6L100.8,26.2z"/>
		
			<path id="path5627_1_" opacity="0.5" fill="#FFFFFF" stroke="#000000" stroke-width="0.25" stroke-linecap="round" stroke-linejoin="round" enable-background="new    " d="
			M100,26.6l-0.4,0.2C99.7,26.7,99.9,26.7,100,26.6z"/>
		
			<path id="path5591_1_" opacity="0.5" fill="#FFFFFF" stroke="#000000" stroke-width="0.25" stroke-linecap="round" stroke-linejoin="round" enable-background="new    " d="
			M269.3,12.7c0.3,0.1,0.6,0.2,0.9,0.4C270,12.8,269.7,12.7,269.3,12.7L269.3,12.7z"/>
		
			<path id="path5587_1_" opacity="0.5" fill="#FFFFFF" stroke="#000000" stroke-width="0.25" stroke-linecap="round" stroke-linejoin="round" enable-background="new    " d="
			M270.3,13.1l0.9,0.4C271,13.2,270.7,13,270.3,13.1z"/>
		
			<path id="path5585_1_" opacity="0.5" fill="#FFFFFF" stroke="#000000" stroke-width="0.25" stroke-linecap="round" stroke-linejoin="round" enable-background="new    " d="
			M271.5,13.6c1.7,0.6,3.4,1.3,5.1,2c-1.7-0.9-3.4-1.5-5.1-1.9V13.6z"/>
		
			<path id="path5577_1_" opacity="0.5" fill="#FFFFFF" stroke="#000000" stroke-width="0.25" stroke-linecap="round" stroke-linejoin="round" enable-background="new    " d="
			M278.2,16.3l0.7,0.3C278.9,16.6,278.2,16.2,278.2,16.3z"/>
		
			<path id="path5559_1_" opacity="0.5" fill="#FFFFFF" stroke="#000000" stroke-width="0.25" stroke-linecap="round" stroke-linejoin="round" enable-background="new    " d="
			M223.2,19.8l-0.9,0.2c0.5,0.1,1,0.6,1.3,1.1l0.7-0.7L223.2,19.8z"/>
		
			<path id="path5557_1_" opacity="0.5" fill="#FFFFFF" stroke="#000000" stroke-width="0.25" stroke-linecap="round" stroke-linejoin="round" enable-background="new    " d="
			M224.6,21.8l0.9,2.2l-0.7,1.1l-2.2,0.2c0.9,0.7,2,1,3.1,1.1v-0.6L227,26l-1.1-0.4l3.3-0.2l0.2-0.6l-1.8-0.5
			c0.5-0.4,0.7-0.8,0.7-1.3L224.6,21.8z"/>
		
			<path id="path5553_1_" opacity="0.5" fill="#FFFFFF" stroke="#000000" stroke-width="0.25" stroke-linecap="round" stroke-linejoin="round" enable-background="new    " d="
			M208.6,22.5l-0.5,0.4l1.3,0.2l0.2-0.6H208.6z"/>
		
			<path id="path5551_1_" opacity="0.5" fill="#FFFFFF" stroke="#000000" stroke-width="0.25" stroke-linecap="round" stroke-linejoin="round" enable-background="new    " d="
			M234.8,22.5l0.5,0.9l1.8,0.2l-0.2-0.9L234.8,22.5z"/>
		
			<path id="path5541_1_" opacity="0.5" fill="#FFFFFF" stroke="#000000" stroke-width="0.25" stroke-linecap="round" stroke-linejoin="round" enable-background="new    " d="
			M104,24.5c-0.1,0.2-0.2,0.2-0.4,0.2L104,24.5z"/>
		
			<path id="path5537_1_" opacity="0.5" fill="#FFFFFF" stroke="#000000" stroke-width="0.25" stroke-linecap="round" stroke-linejoin="round" enable-background="new    " d="
			M222.4,25.6l-0.4,0.7l-0.9-0.4l0.4,0.6l-0.9-0.6l-0.2,0.9l-0.4-0.4l-0.7,0.7l-0.6-0.5c-3,1.5-6.2,1.9-9.6,1.3l-0.7,1.3
			c4.1-0.2,7.8-0.4,12-0.6l-0.2-0.9l2.2-0.2l-0.9-0.7c0.8,0.4,1.7,0.6,2.7,0.4l-1.6-0.9l2,0.2L222.4,25.6z"/>
		
			<path id="path5523_1_" opacity="0.5" fill="#FFFFFF" stroke="#000000" stroke-width="0.25" stroke-linecap="round" stroke-linejoin="round" enable-background="new    " d="
			M169.8,29.6v0.7l1.1-0.5L169.8,29.6z"/>
		
			<path id="path5515_1_" opacity="0.5" fill="#FFFFFF" stroke="#000000" stroke-width="0.25" stroke-linecap="round" stroke-linejoin="round" enable-background="new    " d="
			M185.1,32.2l-2.7,1.8l2,0.9l0.2-0.9l0.9,0.9L185.1,32.2z"/>
		
			<path id="path5509_1_" opacity="0.5" fill="#FFFFFF" stroke="#000000" stroke-width="0.25" stroke-linecap="round" stroke-linejoin="round" enable-background="new    " d="
			M189.1,33.3l-2.7,0.4l0.9,1.5c0.4,0,0.7,0.1,1.1,0.2l0.4-0.4l0.2,0.4l2.4-1.5L189.1,33.3z"/>
		
			<path id="path5505_1_" opacity="0.5" fill="#FFFFFF" stroke="#000000" stroke-width="0.25" stroke-linecap="round" stroke-linejoin="round" enable-background="new    " d="
			M192.6,34c-0.7-0.1-1.2,0.1-1.5,0.7h1.8L192.6,34z"/>
		
			<path id="path5499_1_" opacity="0.5" fill="#FFFFFF" stroke="#000000" stroke-width="0.25" stroke-linecap="round" stroke-linejoin="round" enable-background="new    " d="
			M191.3,34.9c-1.3,0.1-2,0.7-2,1.8l2,0.9l1.5-2.4L191.3,34.9z"/>
		
			<path id="path5497_1_" opacity="0.5" fill="#FFFFFF" stroke="#000000" stroke-width="0.25" stroke-linecap="round" stroke-linejoin="round" enable-background="new    " d="
			M312.8,35.3l0.5,0.4C313.1,35.6,312.9,35.5,312.8,35.3z"/>
		
			<path id="path5491_1_" opacity="0.5" fill="#FFFFFF" stroke="#000000" stroke-width="0.25" stroke-linecap="round" stroke-linejoin="round" enable-background="new    " d="
			M211.5,36.2l0.9,0.7v-0.7H211.5z"/>
		
			<path id="path5489_1_" opacity="0.5" fill="#FFFFFF" stroke="#000000" stroke-width="0.25" stroke-linecap="round" stroke-linejoin="round" enable-background="new    " d="
			M210.8,36.4l-1.6,0.5c0.4,0.1,0.9,0.2,1.3,0.2C210.6,36.9,210.7,36.7,210.8,36.4L210.8,36.4z"/>
		
			<path id="path5487_1_" opacity="0.5" fill="#FFFFFF" stroke="#000000" stroke-width="0.25" stroke-linecap="round" stroke-linejoin="round" enable-background="new    " d="
			M314.5,36.5l0.3,0.2C314.7,36.6,314.6,36.5,314.5,36.5z"/>
		
			<path id="path5485_1_" opacity="0.5" fill="#FFFFFF" stroke="#000000" stroke-width="0.25" stroke-linecap="round" stroke-linejoin="round" enable-background="new    " d="
			M88.9,37.5l-1.3,1.1l-0.7-0.2L88.9,37.5z"/>
		
			<path id="path5483_1_" opacity="0.5" fill="#FFFFFF" stroke="#000000" stroke-width="0.25" stroke-linecap="round" stroke-linejoin="round" enable-background="new    " d="
			M286,37.5c0,0.6,0.3,0.9,0.8,1.1C286.9,38.1,286.6,37.7,286,37.5z"/>
		
			<path id="path5481_1_" opacity="0.5" fill="#FFFFFF" stroke="#000000" stroke-width="0.25" stroke-linecap="round" stroke-linejoin="round" enable-background="new    " d="
			M286.7,37.5l1.5,1.6l1.1-0.2L286.7,37.5z"/>
		
			<path id="path5479_1_" opacity="0.5" fill="#FFFFFF" stroke="#000000" stroke-width="0.25" stroke-linecap="round" stroke-linejoin="round" enable-background="new    " d="
			M215.5,38.2l-0.7,0.7l3.3-0.4L215.5,38.2z"/>
		
			<path id="path5477_1_" opacity="0.5" fill="#FFFFFF" stroke="#000000" stroke-width="0.25" stroke-linecap="round" stroke-linejoin="round" enable-background="new    " d="
			M317.4,38.7c0.3,0.1,0.5,0.4,0.6,0.6C317.7,39.2,317.5,39,317.4,38.7z"/>
		
			<path id="path5475_1_" opacity="0.5" fill="#FFFFFF" stroke="#000000" stroke-width="0.25" stroke-linecap="round" stroke-linejoin="round" enable-background="new    " d="
			M102.6,39.1l-0.4,0.9l1.1-0.7L102.6,39.1z"/>
		
			<path id="path5473_1_" opacity="0.5" fill="#FFFFFF" stroke="#000000" stroke-width="0.25" stroke-linecap="round" stroke-linejoin="round" enable-background="new    " d="
			M321,41.3c0.6,0.6,1.2,1.1,1.9,1.6C322.3,42.3,321.7,41.8,321,41.3z"/>
		
			<path id="path5471_1_" opacity="0.5" fill="#FFFFFF" stroke="#000000" stroke-width="0.25" stroke-linecap="round" stroke-linejoin="round" enable-background="new    " d="
			M323,42.9c0.2,0.2,0.4,0.4,0.6,0.5c0.3,0.4,0.8,0.8,1.3,1c0.5,0.4,0.5,0.4,0.9,0.7c0.1,0.1,0.2,0.2,0.4,0.3l-0.2-0.1
			c1,0.7,1.9,1.5,2.8,2.3c0.3,0.5,0.8,0.9,1.4,1.3c1.3,1.2,2.6,2.4,3.9,3.5c0.6,0,1.1,0.3,1.4,1.1c-0.6-0.7-1.3-1.3-1.9-1.8
			c-0.4-0.3-0.7-0.7-1-1.1c0,0-0.1-0.1-0.1-0.1l0,0c-0.2-0.2-0.4-0.4-0.6-0.5l0,0c-0.4-0.5-0.8-0.8-1.3-1.1
			c-0.2-0.2-0.5-0.5-0.7-0.7l0,0l0,0l0,0c-0.1-0.1-0.3-0.3-0.4-0.4l0,0c-0.8-0.9-1.7-1.6-2.7-2.2c-0.2-0.2-0.4-0.3-0.6-0.5
			c0,0-0.1,0-0.1,0c0,0-0.1-0.1-0.1-0.1l0.7,0.4C325.6,44.2,324.4,43.4,323,42.9z"/>
		
			<path id="path5469_1_" opacity="0.5" fill="#FFFFFF" stroke="#000000" stroke-width="0.25" stroke-linecap="round" stroke-linejoin="round" enable-background="new    " d="
			M155.2,41.8c-0.8,1-1.6,2-2.2,3.1l2.9-0.2l-2.4,0.2l0.7,1.3l3.6-1.8l-1.3-0.7c0.9-0.2,1.7-0.4,2.5-0.7l-0.9-1.3h-2.9V41.8z"/>
		
			<path id="path5467_1_" opacity="0.5" fill="#FFFFFF" stroke="#000000" stroke-width="0.25" stroke-linecap="round" stroke-linejoin="round" enable-background="new    " d="
			M150.1,42.2l-2,1.8c0.8,0.7,1.7,0.6,2.7-0.3l-0.4-1.5H150.1z"/>
		
			<path id="path5465_1_" opacity="0.5" fill="#FFFFFF" stroke="#000000" stroke-width="0.25" stroke-linecap="round" stroke-linejoin="round" enable-background="new    " d="
			M292.2,42.2c0.8,1.1,1.8,1.6,3.1,1.3L292.2,42.2z"/>
		
			<path id="path5463_1_" opacity="0.5" fill="#FFFFFF" stroke="#000000" stroke-width="0.25" stroke-linecap="round" stroke-linejoin="round" enable-background="new    " d="
			M261.4,42.4l-0.2,0.4l2,0.4L261.4,42.4z"/>
		
			<path id="path5461_1_" opacity="0.5" fill="#FFFFFF" stroke="#000000" stroke-width="0.25" stroke-linecap="round" stroke-linejoin="round" enable-background="new    " d="
			M235,42.9l-1.3,0.9c0.9,0.9,1.9,1,3.1,0.3l-1.1-0.4l0.9-0.5L235,42.9z"/>
		
			<path id="path5459_1_" opacity="0.5" fill="#FFFFFF" stroke="#000000" stroke-width="0.25" stroke-linecap="round" stroke-linejoin="round" enable-background="new    " d="
			M227.2,43.8l-0.2,1.1l1.3,0.4l-1.1,0.5l1.8-0.5c0,0.8-0.3,1.3-0.9,1.4c0.1,0,0.3,0,0.4-0.1l0.7-0.1l0.7,0.7l0.9-0.7
			c-0.3-0.3-0.7-0.6-1.1-0.8l1.5,0.2l-0.4-1.6C229.6,44,228.4,43.9,227.2,43.8L227.2,43.8z"/>
		
			<path id="path5457_1_" opacity="0.5" fill="#FFFFFF" stroke="#000000" stroke-width="0.25" stroke-linecap="round" stroke-linejoin="round" enable-background="new    " d="
			M265.2,44l-1.1,0.2l2.4,0.5L265.2,44z"/>
		
			<path id="path5455_1_" opacity="0.5" fill="#FFFFFF" stroke="#000000" stroke-width="0.25" stroke-linecap="round" stroke-linejoin="round" enable-background="new    " d="
			M233,44.4l0.9,0.7l0.7-0.7H233z"/>
		
			<path id="path5453_1_" opacity="0.5" fill="#FFFFFF" stroke="#000000" stroke-width="0.25" stroke-linecap="round" stroke-linejoin="round" enable-background="new    " d="
			M233.9,45.1l-1.1-0.4c-0.5,0.7-1.1,1.3-1.6,2h0.9l-1.8,1.1l3.6-0.9l-2.2,1.1h1.8l-0.4,0.9l-1.3-0.4l1.8,1.1L237,48l-2.7-0.7
			l1.3-0.2l-1.1-0.4l0.4-0.4l2.4,1.5l0.9-0.4l-1.5-1.1l1.5,0.9v-0.9l0.7,1.1c0.8-0.5,1.4-1.1,1.8-2
			C237.9,46.9,235.6,46.8,233.9,45.1z"/>
		
			<path id="path5451_1_" opacity="0.5" fill="#FFFFFF" stroke="#000000" stroke-width="0.25" stroke-linecap="round" stroke-linejoin="round" enable-background="new    " d="
			M264.3,44.4l1.3,0.7v-0.4L264.3,44.4z"/>
		
			<path id="path5447_1_" opacity="0.5" fill="#FFFFFF" stroke="#000000" stroke-width="0.25" stroke-linecap="round" stroke-linejoin="round" enable-background="new    " d="
			M94.6,45.3c-5.8,1.9-11.7,3.9-17.5,6h1.1c-0.7,0.9-1.5,1.6-2.6,2c2.2-1.6,4.8-2.8,7.5-3.3c-0.5,1.4-1.4,2.3-2.9,2.8
			c5-3.1,10.4-5.4,16.2-6.8v-0.7l-2,1.1L94.6,45.3z"/>
		
			<path id="path5445_1_" opacity="0.5" fill="#FFFFFF" stroke="#000000" stroke-width="0.25" stroke-linecap="round" stroke-linejoin="round" enable-background="new    " d="
			M325.7,45.3c0.3,0.8,0.7,1.1,1.3,1.1L325.7,45.3z"/>
		
			<path id="path5443_1_" opacity="0.5" fill="#FFFFFF" stroke="#000000" stroke-width="0.25" stroke-linecap="round" stroke-linejoin="round" enable-background="new    " d="
			M72.7,45.5c-1.2,0.9-2.4,1.9-3.5,3c0.6-0.4,1.2-0.9,1.7-1.4c-0.7,0.9-1.5,1.6-2.5,2.1l0.7-0.7c-0.4,0.3-0.8,0.6-1.1,1l0,0L67.6,50
			l0.2-0.4c-2.6,2.8-5.3,5.6-8,8.4l0.2,0.2l-1,0.9l0.6-0.2l-0.9,0.9l0.7-0.4c-0.4,0.4-0.9,0.8-1.5,1c0,0.2,0,0.4,0.2,0.6
			c1.3-1.3,2.7-2.2,4.4-3l-0.7,0.9c2.7-1,5.2-2.8,7.1-4.9l-1.6,1.1l1.8-1.8c-1.5,0.7-3,1.5-4.5,2.3c-0.1-1.4,0.5-2.3,1.7-2.9v0.2
			l0.7-0.7l-2,0.9C67.7,50.7,70.2,48.2,72.7,45.5z"/>
		
			<path id="path5441_1_" opacity="0.5" fill="#FFFFFF" stroke="#000000" stroke-width="0.25" stroke-linecap="round" stroke-linejoin="round" enable-background="new    " d="
			M154.1,46.9c-1.5-0.3-2.6,0.1-3.5,1.3l0.7,1.1L154.1,46.9z"/>
		
			<path id="path5437_1_" opacity="0.5" fill="#FFFFFF" stroke="#000000" stroke-width="0.25" stroke-linecap="round" stroke-linejoin="round" enable-background="new    " d="
			M330.8,49.7c0.6,0.6,1.2,1.2,1.8,1.7C332.1,50.7,331.5,50.2,330.8,49.7z"/>
		
			<path id="path5435_1_" opacity="0.5" fill="#FFFFFF" stroke="#000000" stroke-width="0.25" stroke-linecap="round" stroke-linejoin="round" enable-background="new    " d="
			M332.5,51.4c0.6,1.3,1.5,2.2,2.7,2.8C334.4,53.2,333.5,52.2,332.5,51.4z"/>
		
			<path id="path5433_1_" opacity="0.5" fill="#FFFFFF" stroke="#000000" stroke-width="0.25" stroke-linecap="round" stroke-linejoin="round" enable-background="new    " d="
			M329.5,50.1l1,1.4l-0.5-0.4l0,0L329.5,50.1z"/>
		
			<path id="path5431_1_" opacity="0.5" fill="#FFFFFF" stroke="#000000" stroke-width="0.25" stroke-linecap="round" stroke-linejoin="round" enable-background="new    " d="
			M305.5,50.4l0.9,0.7C306.3,50.7,306,50.4,305.5,50.4z"/>
		
			<path id="path5429_1_" opacity="0.5" fill="#FFFFFF" stroke="#000000" stroke-width="0.25" stroke-linecap="round" stroke-linejoin="round" enable-background="new    " d="
			M72.5,51.1c-1.4,0.8-2.5,1.7-3.4,3c0.5-1.4,1.3-2.1,2.4-2c-1.5,2.1-2.1,2.9-4.3,5.2h1.1l-1.1,2.4c0.6-1,1.5-1.6,2.7-1.8l-0.2-0.5
			c1.6-2.6,3.8-4.6,6.6-6L72,52.9l1.3-1.5L72.5,52C72.5,51.7,72.5,51.4,72.5,51.1z"/>
		
			<path id="path5427_1_" opacity="0.5" fill="#FFFFFF" stroke="#000000" stroke-width="0.25" stroke-linecap="round" stroke-linejoin="round" enable-background="new    " d="
			M302.4,51.1l1.6,0.7l-0.7,0.2l1.1,1.3l2.4-0.7C305.4,52,303.9,51.4,302.4,51.1z"/>
		
			<path id="path5425_1_" opacity="0.5" fill="#FFFFFF" stroke="#000000" stroke-width="0.25" stroke-linecap="round" stroke-linejoin="round" enable-background="new    " d="
			M66.3,51.3l-0.4,0.2v0.2L66.3,51.3z"/>
		
			<path id="path5423_1_" opacity="0.5" fill="#FFFFFF" stroke="#000000" stroke-width="0.25" stroke-linecap="round" stroke-linejoin="round" enable-background="new    " d="
			M65.8,51.8c-0.5,0.6-1.1,1.1-1.8,1.5C64.6,52.8,65.2,52.3,65.8,51.8z"/>
		
			<path id="path5419_1_" opacity="0.5" fill="#FFFFFF" stroke="#000000" stroke-width="0.25" stroke-linecap="round" stroke-linejoin="round" enable-background="new    " d="
			M305.1,53.5c0.3,0.8,0.8,1.2,1.7,1.3l-0.4-1.1L305.1,53.5z"/>
		
			<path id="path5417_1_" opacity="0.5" fill="#FFFFFF" stroke="#000000" stroke-width="0.25" stroke-linecap="round" stroke-linejoin="round" enable-background="new    " d="
			M336.5,54.6c0.1,0.1,0.3,0.3,0.4,0.4l0,0h0.1C336.9,54.8,336.8,54.6,336.5,54.6z"/>
		
			<path id="path5415_1_" opacity="0.5" fill="#FFFFFF" stroke="#000000" stroke-width="0.25" stroke-linecap="round" stroke-linejoin="round" enable-background="new    " d="
			M337.1,55.1L337.1,55.1L337.1,55.1L337.1,55.1c0.3,0.4,0.6,0.7,1,0.9c0.2,0.4,0.5,0.7,0.9,0.9C338.5,56.2,337.8,55.5,337.1,55.1z"
			/>
		
			<path id="path5413_1_" opacity="0.5" fill="#FFFFFF" stroke="#000000" stroke-width="0.25" stroke-linecap="round" stroke-linejoin="round" enable-background="new    " d="
			M339.1,57c0.5,0.7,1,1.2,1.7,1.7c-0.4-0.7-1-1.3-1.6-1.8L339.1,57z"/>
		
			<path id="path5411_1_" opacity="0.5" fill="#FFFFFF" stroke="#000000" stroke-width="0.25" stroke-linecap="round" stroke-linejoin="round" enable-background="new    " d="
			M340.7,58.8l-0.4-0.4c4.8,4.6,8.9,9.6,12.6,15.1l-0.9-0.7c1.4,2.2,2.4,4.6,3,7.1c-2.5-2.8-4.2-4.3-7-6.4l1.3,1.5l-0.7,0.2
			c4.9,8.9,9.3,18.3,12.8,27.7l-0.4-0.4l0.9,3.8l-1.1,0.2c10.7,17.9,18.6,37.5,23.7,58l-0.4-1.3c3.9,4.6,6.3,11.1,6.6,17.6l1.1-0.2
			l0.4,1.1l0.2-2.4v2.4l-0.5,0.2l0.7,2.4l0.2-1.3v1.8l0.2-1.5l0.2,1.3l0.2-0.9v0.9l0.2-3.1v1.8l0.2-0.7v2h0.4v-1.3l0.7,1.5
			c0.1-0.4,0.2-0.8,0.4-1.1l0.2,1.1l0.2-0.4c0.3,0.7,0.5,1.4,0.4,2.2l0.5-0.5l0.2,1.1c1.5-4.9,1.6-10.6,0.3-15.9H397l-0.4-2.7
			c0.1,0.7,0.2,1.4,0.5,2c-0.9-8.1-2.7-16.3-5.1-23.6l0,0c-0.8-3-1.6-6.1-2.4-9l0.1,0.3l0,0c-4-12.2-9.2-24.7-15.5-36.4
			c-1.9-3.5-4-6.9-6.1-10.4l0,0c0-0.2-0.1-0.4-0.3-0.5l0,0c-1.4-2-2.9-4.1-4.2-6.2l0,0c-0.1-0.4-0.3-0.6-0.7-0.6
			c-0.6-1.3-1.7-2.5-3-3.3l0,0c-0.8-1.1-1.6-2.2-2.5-3.2l0,0c-2.8-3.9-6-7.7-9.3-11.3c-0.1-0.1-0.2-0.1-0.3-0.2l0,0
			c-0.1-0.3-0.3-0.5-0.6-0.6l0,0c-0.1-0.3-0.3-0.6-0.6-0.8c-0.9-1.1-1.9-2.1-3-3v-0.2h-0.1c-0.4-0.6-0.9-1.1-1.4-1.5
			C341.7,59.6,341.2,59.2,340.7,58.8z"/>
		
			<path id="path5409_1_" opacity="0.5" fill="#FFFFFF" stroke="#000000" stroke-width="0.25" stroke-linecap="round" stroke-linejoin="round" enable-background="new    " d="
			M389.5,138.4v0.2V138.4L389.5,138.4z"/>
		
			<path id="path5407_1_" opacity="0.5" fill="#FFFFFF" stroke="#000000" stroke-width="0.25" stroke-linecap="round" stroke-linejoin="round" enable-background="new    " d="
			M389.5,138.6L389.5,138.6l0.1,0.4L389.5,138.6z"/>
		
			<path id="path5405_1_" opacity="0.5" fill="#FFFFFF" stroke="#000000" stroke-width="0.25" stroke-linecap="round" stroke-linejoin="round" enable-background="new    " d="
			M381,154.3l-0.1-0.3l0.2,0.9L381,154.3z"/>
		
			<path id="path5403_1_" opacity="0.5" fill="#FFFFFF" stroke="#000000" stroke-width="0.25" stroke-linecap="round" stroke-linejoin="round" enable-background="new    " d="
			M62.6,55.1L62,55.7l0.4-0.2l-1.1,0.9C61.5,55.8,62,55.4,62.6,55.1z"/>
		
			<path id="path5395_1_" opacity="0.5" fill="#FFFFFF" stroke="#000000" stroke-width="0.25" stroke-linecap="round" stroke-linejoin="round" enable-background="new    " d="
			M68.7,58.8L68,59.1l0.9,0.6l0.4-0.6L68.7,58.8z"/>
		
			<path id="path5393_1_" opacity="0.5" fill="#FFFFFF" stroke="#000000" stroke-width="0.25" stroke-linecap="round" stroke-linejoin="round" enable-background="new    " d="
			M68.5,60.4l0.7,1.8l0.7-1.3L68.5,60.4z"/>
		
			<path id="path5391_1_" opacity="0.5" fill="#FFFFFF" stroke="#000000" stroke-width="0.25" stroke-linecap="round" stroke-linejoin="round" enable-background="new    " d="
			M131.2,63.3l-1.3,1.1h0.9L131.2,63.3z"/>
		
			<path id="path5389_1_" opacity="0.5" fill="#FFFFFF" stroke="#000000" stroke-width="0.25" stroke-linecap="round" stroke-linejoin="round" enable-background="new    " d="
			M340.7,63.7c0.5,3.4,2.1,5.4,4.7,6C345.1,66.8,343.5,64.8,340.7,63.7z"/>
		
			<path id="path5385_1_" opacity="0.5" fill="#FFFFFF" stroke="#000000" stroke-width="0.25" stroke-linecap="round" stroke-linejoin="round" enable-background="new    " d="
			M75.6,66.8l0.4,0.9l1.1-0.4L75.6,66.8z"/>
		
			<path id="path5383_1_" opacity="0.5" fill="#FFFFFF" stroke="#000000" stroke-width="0.25" stroke-linecap="round" stroke-linejoin="round" enable-background="new    " d="
			M305.3,68l0.9,3.3l-3.6-2.9l0.4,2.4l2.4,0.9v1.1c1.6-0.3,2.7,0.3,3.3,1.8l-0.2-1.6l4.2,2.9c-1.1-0.8-2-1.6-2.9-2.6h0.9v0.4
			c1,1.3,2.3,1.9,3.7,1.8c-1.1-0.5-1.5-1.6-1.3-3.1l1.3,1.5l1.1-0.2l-0.4-0.7l2,1.3l0.4-0.4c0,1.6,0.7,2.8,2,3.7l-0.4-1.3
			c1.5,0.6,2.5,1.8,3.1,3.4l0.9-2.2l-1.3-2c2,2.9,3,4.4,5.3,7.6c-1.2-4.4-3.2-9-5.7-12.6l0.4,1.5c-1-1.8-2.6-3.1-4.5-3.1l0.7,1.8
			l-1.8-0.7c-0.3,0.2-0.3,0.4-0.2,0.8c-0.1-0.9-0.6-1.4-1.4-1.5c-1,1.5-2.5,1.8-4.4,0.9l-0.2,2l-0.6-1.8l-0.2,0.9
			C308.6,69.6,307.3,68.5,305.3,68z"/>
		
			<path id="path5381_1_" opacity="0.5" fill="#FFFFFF" stroke="#000000" stroke-width="0.25" stroke-linecap="round" stroke-linejoin="round" enable-background="new    " d="
			M337.2,68c0.7,1.8,2,2.8,3.8,2.8C339.9,69.6,338.7,68.6,337.2,68z"/>
		
			<path id="path5377_1_" opacity="0.5" fill="#FFFFFF" stroke="#000000" stroke-width="0.25" stroke-linecap="round" stroke-linejoin="round" enable-background="new    " d="
			M97.3,68.8L95.8,69l1.5,0.9V68.8z"/>
		
			<path id="path5375_1_" opacity="0.5" fill="#FFFFFF" stroke="#000000" stroke-width="0.25" stroke-linecap="round" stroke-linejoin="round" enable-background="new    " d="
			M341.2,70.6c1.2,2.3,3.1,3.8,5.6,4.6C345.7,72.7,343.7,71,341.2,70.6L341.2,70.6z"/>
		
			<path id="path5369_1_" opacity="0.5" fill="#FFFFFF" stroke="#000000" stroke-width="0.25" stroke-linecap="round" stroke-linejoin="round" enable-background="new    " d="
			M134.8,71.3c0.8,0.7,1.5,1.4,2.2,2.2l0.4-2.2C136.5,71.3,135.7,71.3,134.8,71.3z"/>
		
			<path id="path5365_1_" opacity="0.5" fill="#FFFFFF" stroke="#000000" stroke-width="0.25" stroke-linecap="round" stroke-linejoin="round" enable-background="new    " d="
			M279.1,72.6l0.7,1.1l-1.3,0.2l1.3,0.9l-0.4,1.5l1.5,0.5h-1.8l1.3,1.3c-0.5,0.1-1,0.2-1.4,0.4l2.7,2c-1.7-1.5-3.2-1.5-4.7,0
			l2.2,0.2l-1.5,0.5l1.8,0.6l-0.7,0.7h0.9l-0.2,0.9l1.1-2.7l0.6,1.3l0.7-0.7l-0.2,2.4l2.2-2l1.5,2.4v-2c0.8-0.4,1.5-1,2.2-1.6
			c-0.5-2.9-1.8-5.3-3.8-7.3l-0.5,0.4V73l-3.5,0.5L279.1,72.6z"/>
		
			<path id="path5363_1_" opacity="0.5" fill="#FFFFFF" stroke="#000000" stroke-width="0.25" stroke-linecap="round" stroke-linejoin="round" enable-background="new    " d="
			M303.5,72.6c0.6,0.9,1.5,1.5,2.5,1.7C305.5,73.3,304.6,72.8,303.5,72.6z"/>
		
			<path id="path5361_1_" opacity="0.5" fill="#FFFFFF" stroke="#000000" stroke-width="0.25" stroke-linecap="round" stroke-linejoin="round" enable-background="new    " d="
			M307.1,73.7l-0.9,0.4l1.8-0.2L307.1,73.7z"/>
		
			<path id="path5359_1_" opacity="0.5" fill="#FFFFFF" stroke="#000000" stroke-width="0.25" stroke-linecap="round" stroke-linejoin="round" enable-background="new    " d="
			M309.7,74.4l-0.7,0.2l1.1,0.6L309.7,74.4z"/>
		
			<path id="path5357_1_" opacity="0.5" fill="#FFFFFF" stroke="#000000" stroke-width="0.25" stroke-linecap="round" stroke-linejoin="round" enable-background="new    " d="
			M313,76.4l0.9,2l-0.9-0.9l-0.2,0.5l1.1,0.9l-0.7,0.2l1.5,1.8V80c1.4,0.6,1.9,1.7,1.3,3.3h1.3l0.9,1.3L319,83l1.8,2.7l-0.2-2
			l1.1,3.1l0.2-0.9l0.9,1.5v-1.3l0.6,1.3l-0.4-1.3l0.9,0.9c-1.3-5.1-4.3-8.4-8.8-10.6L313,76.4L313,76.4z"/>
		
			<path id="path5353_1_" opacity="0.5" fill="#FFFFFF" stroke="#000000" stroke-width="0.25" stroke-linecap="round" stroke-linejoin="round" enable-background="new    " d="
			M348.7,83l-0.2,0.2l1.1,2l0.2-0.6L348.7,83z"/>
		
			<path id="path5343_1_" opacity="0.5" fill="#FFFFFF" stroke="#000000" stroke-width="0.25" stroke-linecap="round" stroke-linejoin="round" enable-background="new    " d="
			M287.1,379.2l-0.2,0.1C287,379.3,287,379.2,287.1,379.2z"/>
		
			<path id="path5341_1_" opacity="0.5" fill="#FFFFFF" stroke="#000000" stroke-width="0.25" stroke-linecap="round" stroke-linejoin="round" enable-background="new    " d="
			M286.8,379.3l-1.3,0.6C285.9,379.7,286.4,379.5,286.8,379.3z"/>
		
			<path id="path5339_1_" opacity="0.5" fill="#FFFFFF" stroke="#000000" stroke-width="0.25" stroke-linecap="round" stroke-linejoin="round" enable-background="new    " d="
			M285.5,379.9l-0.3,0.1l0,0L285.5,379.9z"/>
		
			<path id="path5337_1_" opacity="0.5" fill="#FFFFFF" stroke="#000000" stroke-width="0.25" stroke-linecap="round" stroke-linejoin="round" enable-background="new    " d="
			M266.5,387.8c-0.4,0-0.9,0.2-1.3,0.4L266.5,387.8z"/>
		
			<path id="path5335_1_" opacity="0.5" fill="#FFFFFF" stroke="#000000" stroke-width="0.25" stroke-linecap="round" stroke-linejoin="round" enable-background="new    " d="
			M265.2,388.3l0.2-0.2c-0.5,0.3-1,0.5-1.6,0.7C264.3,388.7,264.8,388.6,265.2,388.3z"/>
		
			<path id="path5333_1_" opacity="0.5" fill="#FFFFFF" stroke="#000000" stroke-width="0.25" stroke-linecap="round" stroke-linejoin="round" enable-background="new    " d="
			M263.7,388.7c-0.5,0.1-0.9,0.3-1.4,0.4l0.6-0.2c-0.4,0.2-0.8,0.4-1.3,0.4h0.2l-0.2,0.1c0.4-0.1,0.7-0.2,1.1-0.3h-0.3
			C262.8,388.9,263.2,388.8,263.7,388.7z"/>
		
			<path id="path5331_1_" opacity="0.5" fill="#FFFFFF" stroke="#000000" stroke-width="0.25" stroke-linecap="round" stroke-linejoin="round" enable-background="new    " d="
			M261.7,389.5l-0.5,0.1C261.4,389.6,261.5,389.6,261.7,389.5z"/>
		
			<path id="path5329_1_" opacity="0.5" fill="#FFFFFF" stroke="#000000" stroke-width="0.25" stroke-linecap="round" stroke-linejoin="round" enable-background="new    " d="
			M261.2,389.6c-0.8,0.1-1.6,0.3-2.3,0.6c0.3,0,0.5,0,0.8-0.2l0,0l0,0C260.2,389.9,260.7,389.7,261.2,389.6z"/>
		
			<path id="path5327_1_" opacity="0.5" fill="#FFFFFF" stroke="#000000" stroke-width="0.25" stroke-linecap="round" stroke-linejoin="round" enable-background="new    " d="
			M259.2,390.2l-0.7,0.2l0.5-0.2c-0.2,0.1-0.3,0.1-0.5,0.1h0.1c-0.3,0-0.6,0.1-0.9,0.3l0.8-0.2l-0.6,0.2L259.2,390.2z"/>
		
			<path id="path5325_1_" opacity="0.5" fill="#FFFFFF" stroke="#000000" stroke-width="0.25" stroke-linecap="round" stroke-linejoin="round" enable-background="new    " d="
			M257.6,390.7l-0.7,0.2l1.1-0.4c-0.5,0.2-0.9,0.3-1.4,0.5h0.1l-0.3,0.1l0.4-0.1l-0.2,0.1C257,391.1,257.3,390.9,257.6,390.7z"/>
		
			<path id="path5323_1_" opacity="0.5" fill="#FFFFFF" stroke="#000000" stroke-width="0.25" stroke-linecap="round" stroke-linejoin="round" enable-background="new    " d="
			M256.7,391h-0.2l0,0H256.7l-0.2-0.1c-0.2,0.1-0.4,0.2-0.7,0.2c0.2,0,0.4-0.1,0.6-0.1l-0.1,0.1L256.7,391z"/>
		
			<path id="path5321_1_" opacity="0.5" fill="#FFFFFF" stroke="#000000" stroke-width="0.25" stroke-linecap="round" stroke-linejoin="round" enable-background="new    " d="
			M258.5,390.4l0.4-0.1C258.8,390.3,258.6,390.3,258.5,390.4z"/>
		
			<path id="path5319_1_" opacity="0.5" fill="#FFFFFF" stroke="#000000" stroke-width="0.25" stroke-linecap="round" stroke-linejoin="round" enable-background="new    " d="
			M266.9,337l0.5,0.5c0.1-0.4,0.3-0.7,0.6-0.9C267.7,336.8,267.3,336.9,266.9,337z"/>
		
			<path id="path5183_1_" opacity="0.5" fill="#FFFFFF" stroke="#000000" stroke-width="0.25" stroke-linecap="round" stroke-linejoin="round" enable-background="new    " d="
			M389.8,139.5v0.2l0,0V139.5z"/>
		
			<path id="path5157_1_" opacity="0.5" fill="#FFFFFF" stroke="#000000" stroke-width="0.25" stroke-linecap="round" stroke-linejoin="round" enable-background="new    " d="
			M390.6,147.8h0.2l0.2,0.6L390.6,147.8z"/>
		
			<path id="path5125_1_" opacity="0.5" fill="#FFFFFF" stroke="#000000" stroke-width="0.25" stroke-linecap="round" stroke-linejoin="round" enable-background="new    " d="
			M394.6,157.5v0.2V157.5L394.6,157.5z"/>
		
			<path opacity="0.5" fill="#FFFFFF" stroke="#000000" stroke-width="0.25" stroke-linecap="round" stroke-linejoin="round" enable-background="new    " d="
			M354.5,290.7l1.3-4c-3.1,1.1-4.9,3.1-5.3,6.2v-1.1l-0.9,1.7l-0.2-1.1l-0.9,2c0.8-3.2,2.1-6.2,4-8.9l-0.4,0.5l0.4-1.6l-2,0.5
			c0.3-2.4-0.4-4-2-4.7l-0.2,1.3c-5,0.5-12.1,2.1-17.1,3.8l-0.9,2l0.5-2.9c-2.3-1.4-4.7-1.3-6.7,0.3l-0.4-2.5
			c-2,0.7-3.8,0.9-5.8,0.5l2.7-2.7l-6.5,3.8l1.8-0.5c-4.2,2.7-7.8,4.4-12.8,6l-0.9-1.5l-3.8,0.6l-1.3-1.7l-0.5,2l1.1-0.7l0.3,0.7
			c-2.4-0.3-4.1,1-5.1,3.9c1.2,1,1.9,2.2,2,3.6l-2,1.5l-1.4-1.7c0.4-1,0.9-2.1,1.4-3.1l-1.6-2l2.4-2.5L292,288
			c-1.4,3.6-3.7,5.5-7.1,5.7l-0.5,1.2c-2.8,0.7-4.2,2.8-3.7,5.7l-3.8,3.8l0.7,1.8l-1.9-1.2l0.7,1.4l-1.3,1.6l-0.5-0.5l-0.4,1.5
			l1.8,1.4l-0.4,6.6l1.5,0.3c-0.6,2.5-2.2,4.3-4.6,5.3v1.8l-1.6,0.6l0.4,1.4c-1.3,0.5-2.6,1.1-3.9,1.7c0.2,0.5,0.4,0.9,0.6,1.4
			c-0.7,0.7-1.3,1.3-2,2l0.9,0.4l-2.2,1.6v3.1l2.2,0.4c0.5-0.4,0.8-0.9,1.1-1.5l0.7,0.6c-0.8,0.6-1.1,1.4-1.1,2.2l-4.2,3.1l1.3,2.9
			l-1.1,0.9c5.4,2.5,10.2,6.3,14.1,11.2c2.8,3.1,9.7,4.1,15.6,3c-4.9,13.2-14.7,23.2-27.9,28.6l0.9-0.2h-0.2l0.5-0.1l-0.1,0.1
			c0.3-0.1,0.6-0.2,0.9-0.2v-0.1c5.9-2.2,11.8-4.6,17.5-7.2l-1.1,0.4l1.3-0.6l-0.7,0.2c20.8-10.6,40-24.3,56.3-41.1l-0.6,0.5
			c4.8-4.7,9.4-9.7,13.7-14.9l-0.4,0.7c7.5-8.7,13.2-18.7,17.1-29.5v0.4c4.6-7.4,7.6-15.8,8.6-24.2h-0.4l-2.2,2.9
			c-5.8,1.6-10.7,6.1-13.4,12c0.1-1.2,0.4-2.3,0.9-3.3l-1.1,1.5c1-1,1.2-1.9,0.5-2.8l-0.9,1.7l-0.3-1.1l-0.4,0.9l0.2-0.7l-0.4,0.9
			l-0.7-0.4l-0.2,0.9l-0.2-0.9l-0.2,0.9l-2,0.4c-1.4,1.3-2.1,2.8-2,4.9l-1.1,0.5"/>
		
			<path id="path5099_1_" opacity="0.5" fill="#FFFFFF" stroke="#000000" stroke-width="0.25" stroke-linecap="round" stroke-linejoin="round" enable-background="new    " d="
			M390.9,167.8l1.1,0.9h-1.8L390.9,167.8z"/>
		
			<path id="path5051_1_" opacity="0.5" fill="#FFFFFF" stroke="#000000" stroke-width="0.25" stroke-linecap="round" stroke-linejoin="round" enable-background="new    " d="
			M41.7,214.8c-0.1,0.8,0.2,1.4,0.9,1.8l-0.2-1.8H41.7z"/>
		
			<path id="path5047_1_" opacity="0.5" fill="#FFFFFF" stroke="#000000" stroke-width="0.25" stroke-linecap="round" stroke-linejoin="round" enable-background="new    " d="
			M43.9,219.4v1.6l0.9,0.4L43.9,219.4z"/>
		
			<path id="path5043_1_" opacity="0.5" fill="#FFFFFF" stroke="#000000" stroke-width="0.25" stroke-linecap="round" stroke-linejoin="round" enable-background="new    " d="
			M44.6,223l-1.1,3.8l2.4,0.2L44.6,223z"/>
		
			<path id="path5011_1_" opacity="0.5" fill="#FFFFFF" stroke="#000000" stroke-width="0.25" stroke-linecap="round" stroke-linejoin="round" enable-background="new    " d="
			M31.3,269.3l0.6,1.3l-0.2-1.3H31.3z"/>
		
			<path id="path4972_1_" opacity="0.5" fill="#FFFFFF" stroke="#000000" stroke-width="0.25" stroke-linecap="round" stroke-linejoin="round" enable-background="new    " d="
			M229.5,336.4l-0.7,0.6l1.8,1.3L229,339c0.9,0.5,1.7,0.3,2.4-0.4L229.5,336.4z"/>
	</g>
	<g id="North_America">
		<path id="path5401" fill="#FEC010" stroke="#000000" stroke-linecap="round" stroke-linejoin="round" d="M228.1,58.6l-0.9,1.1
			l1.8,0.9c-0.1,0.5-0.4,0.8-0.9,0.9l3.1,2.4l-4.9-2.2l1.5,2.2l-1.5-1.1l-0.9,2.9l-0.9-0.9l1.1-2.2l-1.1-1.5l-1.1,1.3l-1.1-0.7
			l-0.2,3.5L221,64l0.7-2.2l-2.4,2.9l2.2,1.3c-0.9,0-1.7,0.1-2.6,0.2l0.7,1.1l1.8-0.9l1.1,0.5l-2.7,0.9h2.4l-0.7,0.7
			c-0.6-0.5-1.3-0.5-2,0c1.2-0.2,2.3,0,3.3,0.7l-4,0.2l2.9,1.5h-2l0.4,1.1l-1.8-1.3l-1.1,1.5c0.6,0.7,1.5,1,2.6,0.8
			c-1.1-0.7-2-0.7-2.8,0l1.8,1.8h-1.1l1.1,0.9l-1.1-0.5l-0.2,2.4l0.9,0.7l1.3-0.9l0.9,2.9c-1.8,0.6-2.6,2-2.4,4.2
			c2.1,1.5,3.9,1.4,5.4-0.4l0.7,0.9l-2,0.9l2-0.4L221,87h2.9l-0.7,1.1c0.9,0.8,1.9,1,3.1,0.5l-1.1-0.6h1.5l0.7-1.6
			c3-0.5,6,0,8.8,1.6l0.2,1.5l0.4-0.9c1.4,2,3.2,3.1,5.5,3.3l-0.9,0.7l0.9-0.2c0.5,0.6,0.8,1.4,0.7,2.2l2-0.5l-1.8-2.2l1.8,1.3
			l1.1-1.1l-0.2,1.5l0.9-1.1V94l0.5-0.9v0.7l1.1-0.4l-0.7,0.6l2.7,0.7c-1.9-0.4-3.2,0.2-4,1.7c2,0.7,3.6,0.3,4.8-1.3
			c0.7,0.7,1.2,1.6,1.5,2.6l0.9-0.7l0.4,0.9l-1.1-0.2c1.4,0.4,2.1,1.3,2,2.6l1.5-0.2l-3.3,1.3l1.8-0.2l-1.3,0.7l0.9,1.5l0.7-2.4v0.6
			l1.5-1.3l-2,3.5l2.2-1.5l-1.8,2.2l2.2-0.4l-0.7,1.3l1.3-0.5l0.2-2l0.9-0.2l-1.1,4.2l1.5-1.3l-0.7,1.8l1.6,0.4l0.2-2l1.1-0.2
			l-1.1,2.4l0.4-0.4l1.1,1.5l0.5-1.1l-0.2,1.3l1.3,1.1V108l-1.3-0.9l3.3,1.1l-1.8,0.5l1.1-0.2l-0.9,2l1.5-1.3l-1.1,1.5l0.9-0.4v1.3
			l1.1-0.9l-0.2,1.1l1.1-0.7l-0.9,0.9l1.3-0.7l0.9,1.5v-1.3l0.7,2l1.5-0.4l0.2,1.1l0.7-0.9v1.1l0.2-0.9l0.5,0.9l0.6-0.2l-0.4,0.9
			l1.1-1.1l-0.4,1.1l1.3-0.9l1.5,1.1l1.3-3.3l0.2,2.2l0.2-1.6l0.4,1.8l0.2-1.3l0.9,0.9l-0.2-1.3l0.9,2l-0.2-1.8l1.1,1.5l-0.2-1.3
			l1.6-0.5h-2.2l1.3-1.3h-1.3l0.2-1.3l-1.1,0.7l0.9-0.9H279l0.4-1.1l-0.9,0.4l0.5-1.1l-0.7,0.4v-1.3l-2.2-0.2l1.1-0.4H276l0.9-1.6
			l-1.3-0.6l1.1-0.2l-1.5-0.2l1.1-0.4h-0.9l0.4-1.1l-1.3,0.2l1.3-0.7c-0.7-0.8-1.5-0.9-2.4-0.3l0.7-1.3l-2.7-0.9l1.1-0.6
			c-0.4-0.4-0.9-0.9-1.3-1.3l1.1-1.8l-2.2-1.8l0.9-0.4l0.7,1.3l0.9-0.2l-1.1-0.7l0.9,0.2l0.2-1.8l-1.1-0.2l0.9-0.9
			c-2.2-1.3-3.3-3.1-3.3-5.3l-2.2-0.7h2l0.7-1.3l-0.9-0.6h0.9c-0.1-3.2-1.2-6.2-3.3-8.8l-2,2c1.1,1.5,1,2.5-0.3,3.1l-0.4-2.2l-0.4,1
			l0.4-2.1l-1.5-0.4l1.1,2.6l0,0l-0.5,1.1l-1.5-2.2l0.9-0.4l-0.5-1.5l-2,2v-1.1l-1.3,0.2c1.8-1.8,4-2.4,6.4-1.6l-1.1-1.1l1.3,0.4
			v-0.9c-1.3,0.4-2.3,0.1-3.1-0.9l-0.2,0.4l-0.6-0.6v0.9l-0.7-0.7l-2.2,0.7l0.7,1.1l-0.7-0.4l-0.4,0.7l0.2-1.3h-1.1l0.4,1.3
			l-1.3,0.2v-2l-0.9,1.8v-1.1l-1.1,0.2l1.3-0.4l-0.7-1.3l-1.8,0.2l1.8-0.4l-0.9-0.4l1.1-1.1l-0.7,1.1l1.8-0.5l-0.2-1.8l-1.3-0.5
			l-0.9,0.7l1.3,0.7c-1.3,0.3-2.4,0-3.3-0.9c0.5-0.4,1-0.8,1.5-1.3l-0.7-0.7c-0.2,0.5-0.5,0.9-0.9,1.1l-1.3-0.7l-0.7,1.1l0.2-1.3
			l-1.6,0.9c0.8-0.3,1.4-0.7,2-1.3l-2-0.7c-0.4,0.4-0.7,0.7-1.1,1.1l-0.4-1.3l-0.4,1.1h-1.8c0.2-0.9,0.2-1.7,0.2-2.6l-1.8-0.4
			c-0.4,0.4-0.7,0.8-0.9,1.3c-0.1-0.4-0.2-0.7-0.4-1.1c-0.4,0.2-0.9,0.3-1.3,0.4l1.1,0.9c-2.4-1.1-4.9-2.5-7.2-4
			c0.3,0.4,0.4,0.8,0.4,1.3c-1.4,0-2.1-0.8-2.2-2.4c-0.3,0.6-0.4,1.3-0.4,2c-0.4-0.8-0.6-1.7-0.6-2.7L228.1,58.6z"/>
		<path id="path5399" fill="#FEC010" stroke="#000000" stroke-linecap="round" stroke-linejoin="round" d="M258.3,105.2l-1.1,0.9
			h0.9v1.1L258.3,105.2z"/>
		<path id="path5397" fill="#FEC010" stroke="#000000" stroke-linecap="round" stroke-linejoin="round" d="M255,99.2
			c-1.3,0.2-2,0.9-1.9,2.2L255,99.2z"/>
		<path id="path5387" fill="#FEC010" stroke="#000000" stroke-linecap="round" stroke-linejoin="round" d="M249.2,65.5l1.3,0.9
			l0.2-0.9H249.2z"/>
		<path id="path5379" fill="#FEC010" stroke="#000000" stroke-linecap="round" stroke-linejoin="round" d="M253,68.2l-0.9,0.4
			l0.4,0.7L253,68.2z"/>
		<path id="path5373" fill="#FEC010" stroke="#000000" stroke-linecap="round" stroke-linejoin="round" d="M214.4,71l-1.5,1.3
			l0.2-0.9c-2.6-0.2-4.6,0.7-5.8,2.7l1.5,1.3l-2.7-0.7l-0.4,0.9l1.3,0.6l-1.8-0.4l-1.8,1.5h1.3l-0.2,0.9l1.3-0.7l-0.9,1.5l2.4-1.3
			l-2.2,1.5l1.3,0.7l2.2-2c-1,0.4-1.5,1.1-1.3,2c0.4-0.9,1.1-1.3,2-1.1l-0.4,0.9c1.2-0.7,1.9-1.9,2.2-3.4l-0.4,1.8l1.3-0.2
			c-1,0.7-1.9,1.4-2.8,2.2l2.2,1.8c-1.2-1.2-2.6-1.6-4.2-1.3l3.1,3.1l1.1-0.2l-0.9,0.9l0.9,0.6c-1.1-0.9-2.2-0.9-3.1,0v2l0.9-0.9
			l0.7,0.7v-1.3l0.9,2.9l1.3-1.8l-0.9,2.4l-3.1-1.1l1.6,1.8l-2,2l1.1,0.4l-0.2-1.1l1.1,1.1l-0.2-0.9l0.9,0.9l-0.2-0.9l1.3,0.6
			l0.5-1.1l1.1,0.5l-0.5-0.9l1.1,0.9l-0.6-1.1l2,1.5c0.7-0.3,1.3-0.8,1.8-1.3l-0.4-1.5c-1-0.1-2.1,0-3.1,0.2l-0.7-1.6
			c0.9,0.4,1.9,0.6,2.9,0.5l-0.4-1.8l1.5-0.4l-1.1-0.5l1.1-0.6l-1.3-0.2l1.1-0.7l-3.1-0.4l2.7-0.7l-2.7-0.2l2.7-1.3l-1.1-0.7
			l1.8-0.2l-0.2-1.1h-1.1l1.1-0.5l-0.9-0.6l0.9,0.2l0.4-3.5l-1.8,1.8l0.7-1.5h-1.5l1.8-0.4c0.5-0.8,0.6-1.7,0.3-2.6L214.4,71z"/>
		<path id="path5371" fill="#FEC010" stroke="#000000" stroke-linecap="round" stroke-linejoin="round" d="M256.5,71v1.3l0.3-0.4
			l-0.3,0.8c1.1,0.2,2-0.1,2.8-0.9l-2.3-0.2l0.6-0.7L256.5,71L256.5,71z"/>
		<path id="path5367" fill="#FEC010" stroke="#000000" stroke-linecap="round" stroke-linejoin="round" d="M256.1,71.3l-1.5,0.6
			L255,73L256.1,71.3z"/>
		<path id="path5355" fill="#FEC010" stroke="#000000" stroke-linecap="round" stroke-linejoin="round" d="M202.8,78.4l-0.9,1.5
			l1.1,0.9l-1.6,0.5l1.3,1.1l-1.3-0.5v0.7l1.6,0.2l-0.5,1.5l3.1-0.2l-2.4,0.9l2,1.1l-0.9,0.4c0.6,0.9,1.5,1.2,2.7,0.7l-0.6-1.3
			l1.1,1.1l-0.2-2.4l0.7,1.1l1.3-2.2l-0.9-0.9l-0.9,0.4l-0.9-2.4l-0.2,1.1L202.8,78.4z"/>
		<path id="path5351" fill="#FEC010" stroke="#000000" stroke-linecap="round" stroke-linejoin="round" d="M196,84.1l0.2,1.6
			l1.1,0.2l-0.9,1.3c1.4-0.4,2.7,0.1,3.8,1.1C199.9,85.9,198.6,84.5,196,84.1z"/>
		<path id="path5349" fill="#FEC010" stroke="#000000" stroke-linecap="round" stroke-linejoin="round" d="M192.2,85.5l-1.8,1.1
			l2.7-0.2L192.2,85.5z"/>
		<path id="path5347" fill="#FEC010" stroke="#000000" stroke-linecap="round" stroke-linejoin="round" d="M200.9,85.7l0.2,2.2
			l1.3,0.4l0.7-1.5L200.9,85.7z"/>
		<path id="path5317" fill="#FEC010" stroke="#000000" stroke-linecap="round" stroke-linejoin="round" d="M140.8,147.1l-0.9,1.1
			l0.4,0.4l0.6-0.6L140.8,147.1z"/>
		<path id="path5315" fill="#FEC010" stroke="#000000" stroke-linecap="round" stroke-linejoin="round" d="M141,148.1l-0.9,1.1h1.1
			L141,148.1z"/>
		<path id="path5313" fill="#FEC010" stroke="#000000" stroke-linecap="round" stroke-linejoin="round" d="M98.6,117.9l-1.9,0.2h0.8
			l0.2,0.7L98.6,117.9z"/>
		<path id="path5311" fill="#FEC010" stroke="#000000" stroke-linecap="round" stroke-linejoin="round" d="M96.8,118.1l0.1-0.9
			l-2.2-0.4c0.7,0.7,1.3,1.3,2,2L96.8,118.1z"/>
		<path id="path5309" fill="#FEC010" stroke="#000000" stroke-linecap="round" stroke-linejoin="round" d="M111.7,103.2l-1.3-0.2
			l-0.2,0.9l1.3,0.2L111.7,103.2z"/>
		<path id="path5307" fill="#FEC010" stroke="#000000" stroke-linecap="round" stroke-linejoin="round" d="M190,87.5l-0.2,1.1
			l1.5,0.7l0.9-1.3L190,87.5z"/>
		<path id="path5305" fill="#FEC010" stroke="#000000" stroke-linecap="round" stroke-linejoin="round" d="M185.1,88.4
			c-1.4,1.1-2.8,2.1-4.2,3.1l1.8-0.4c-0.1,0.6,0,1,0.4,1.3l2.4-2.4v1.5L188,89C187.2,88.2,186.2,88,185.1,88.4L185.1,88.4z"/>
		<path id="path5303" fill="#FEC010" stroke="#000000" stroke-linecap="round" stroke-linejoin="round" d="M204,88.6l-1.8,0.7
			l2.2,0.2L204,88.6z"/>
		<path id="path5301" fill="#FEC010" stroke="#000000" stroke-linecap="round" stroke-linejoin="round" d="M205.9,89l0.9,0.9L207,89
			H205.9z"/>
		<path id="path5299" fill="#FEC010" stroke="#000000" stroke-linecap="round" stroke-linejoin="round" d="M115.7,90.1l-1.1,0.6v2.9
			l1.3,0.4L115.7,90.1z"/>
		<path id="path5297" fill="#FEC010" stroke="#000000" stroke-linecap="round" stroke-linejoin="round" d="M192.4,91l-1.3,1.3
			l0.7,2.7l-2-0.2l-2.2-3.5l-0.9,0.6l0.9,0.5l-2,0.4l1.5,0.2l-2.2,0.7h1.8l-2.7,0.9l1.5,1.1l1.8-1.3l-0.2,1.3l2.7-0.2l-3.3,1.1
			l1.5,1.1c2-1.2,4-1.6,6.2-1.1l0.6-2.4l-0.9-0.6l-0.4,1.3C192.1,94.2,191.7,92.9,192.4,91z"/>
		<path id="path5295" fill="#FEC010" stroke="#000000" stroke-linecap="round" stroke-linejoin="round" d="M202,91l1.3,2.2l2-0.7
			c-0.1,2.8,1,4.5,3.5,5.1l1.1-1.3l0.9,1.3l3.8-0.9l-0.2-1.1l1.8,0.9c0.8-0.4,1.4-1,1.7-1.8c-0.4,0-0.7,0-1.1,0
			c0.2-0.5,0.3-1,0.2-1.6c-2.6,0.6-5.2,1-7.9,0.9v1l-1.1-1.5l-0.9,0.6l0.7-0.9l-1.3-0.4l2-0.2l-2-0.4l0.4-0.4l-2,0.9l-0.4-1.5H202
			V91z"/>
		<path id="path5293" fill="#FEC010" stroke="#000000" stroke-linecap="round" stroke-linejoin="round" d="M185.1,91.9l-2,1.1
			C184.1,93.3,184.7,92.9,185.1,91.9z"/>
		<path id="path5291" fill="#FEC010" stroke="#000000" stroke-linecap="round" stroke-linejoin="round" d="M200.6,91.9l-0.4,0.9
			c-0.5-0.2-1.1-0.3-1.6-0.4l0.9,1.8l-1.5-1.5l0.7,2l-1.6,0.4c0.9-0.1,1.7-0.2,2.6-0.2c-0.2,0.5-0.5,0.8-0.9,1.1l0.7,1.1l1.8-0.2
			l0.7-1.1L200.6,91.9z"/>
		<path id="path5289" fill="#FEC010" stroke="#000000" stroke-linecap="round" stroke-linejoin="round" d="M204.2,94.8l-1.6,2
			l2.9,0.9L204.2,94.8z"/>
		<path id="path5287" fill="#FEC010" stroke="#000000" stroke-linecap="round" stroke-linejoin="round" d="M176.9,95.4l0.2,2
			l-4.6,4.2l1.1,0.4l0.4,3.1l3.1-0.4c1.5-2.7,4-4.3,7.5-4.8l-1.5-2.4l-1.6,0.5C180.7,96,179.2,95.1,176.9,95.4z"/>
		<path id="path5285" fill="#FEC010" stroke="#000000" stroke-linecap="round" stroke-linejoin="round" d="M248.7,96.8l-1.3,0.9
			c0.5,0.5,1,1,1.5,1.5l1.1-0.9l0.4,1.1l0.9-1.8C250.5,97.1,249.6,96.8,248.7,96.8z"/>
		<path id="path5283" fill="#FEC010" stroke="#000000" stroke-linecap="round" stroke-linejoin="round" d="M218.6,98.3l-0.7,0.2
			l1.3,2c1.4,0.7,2.7,0.5,4.2-0.7C222.1,98.3,220.5,97.8,218.6,98.3z"/>
		<path id="path5281" fill="#FEC010" stroke="#000000" stroke-linecap="round" stroke-linejoin="round" d="M217.3,98.8l-2.9,1.8
			l1.5,0.7l-1.8,0.2l1.8,0.7l-2-0.2l2.4,2.4l-1.3-0.7l-0.7,0.9l2,0.9l0.2,2.2l-0.4-0.7l-4.9,1.1c0.5,1.1,1.3,1.8,2.4,2.2l1.6-1.1
			l0.9,1.5c1.6,0,3.2-0.2,4.8-0.6c-0.7-0.2-1.4-0.5-2-0.9c1.1,0.3,2.1,0.8,3.1,1.4c-0.3-0.5-0.8-0.9-1.3-1.1c1.2,0.1,2.3,0,3.5-0.2
			c-0.6-0.3-1.1-0.6-1.5-1.1l0.4-1.1c0.8,0.9,1.7,1.8,2.7,2.5l0.2-0.9l0.2,1.1l1.1-0.4l1.3,0.9l-0.4,2l0.9-1.3l2,1.1l0.4-0.6
			l3.8,3.3l-0.2,2l1.3-0.2c-1.4,0.2-2.2,1.1-2.2,2.7l2.2,1.8c-1.4,1.5-3.1,2-5.1,1.6l0.2,3.3l5.1-1.3l-0.9-1.5l2.2,1.3l-0.2-1.1
			c0.9,2.1,2.3,2.8,4.4,2.2l-1.1,0.9c3.2,0.9,7.3,1.2,10.8,0.9l-7.1-3.5l2.4,0.4l-1.1-1.1l6,1.5l-2.7-3.1l2,1.1
			c-0.5-1.7-1.6-2.5-3.3-2.4l0.7-0.7l-1.5-0.9l-0.5,1.1l-1.1-1.1l0.5,1.1l-2.4-2.4l-0.7,1.1l-1.3-1.8l1.8-0.4l-2.2-1.3l1.6-0.7
			l1.8,1.1v-1.1l0.5,1.5l0.9-2l-0.2,2.2l4,1.3l-2-2.9l1.8,0.5l-1.6-1.3l1.6-0.2l-1.8-0.4l1.5-0.7l-1.3-0.4l0.9-0.7l-1.5-0.6v1.5
			l-0.7-0.9l-0.9,1.1l-0.2-2v1.5l-0.2-1.1l-0.9,1.3l0.4-1.1l-1.1,0.2l0.9-0.4l-1.5-0.9c-0.3,0.3-0.4,0.7-0.4,1.1l-1.1-0.9l0.4,1.1
			l-0.7-1.3v1.1l-0.6-1.1l-0.2,0.7l-0.9-0.9l-0.9,0.7l1.1-1.1l-3.5,0.2l1.8-0.7l-1.1-0.9l-0.6,0.9l0.6-1.1h-1.3l2.9-0.4l-1.1-0.7
			l-3.1,1.1l2.7-1.8l-0.4-0.7c-0.6,0-1.1-0.2-1.5-0.7l-0.4,1.3V105l-1.1,1.1l1.1-2.2l-1.8-0.2l-0.4,1.3v-1.5l-0.4,3.1l-0.2-1.5
			l-0.7,0.7l0.2-2.4l-1.1,2l0.2-2.2l-1.8-0.7l-0.5,2.2l-0.9-2.2l-0.7,2.2l-0.2-1.5l-0.7,0.2l0.7-1.5l-2,1.3l0.4-2.2h-2.7l-0.7,1.1
			l2,0.4l-2,0.2l1.8,1.1l-3.1-1.6c0,0.7-0.1,1.4-0.4,2C220.4,101.8,219.5,100,217.3,98.8z"/>
		<path id="path5279" fill="#FEC010" stroke="#000000" stroke-linecap="round" stroke-linejoin="round" d="M212.4,99.2
			c-2.5,1.9-3.1,4.5-1.8,7.7c1.9,0.4,3.7,0.3,5.5-0.2c-2.5-2-3.2-4.5-2-7.5H212.4z"/>
		<path id="path5277" fill="#FEC010" stroke="#000000" stroke-linecap="round" stroke-linejoin="round" d="M208.8,99.7l-4.9,0.2
			l0.9,6l1.6-1.5l-0.9-0.9l2.2-0.2L208.8,99.7z"/>
		<path id="path5275" fill="#FEC010" stroke="#000000" stroke-linecap="round" stroke-linejoin="round" d="M198.6,100.3l0.4,1.3
			l-1.1-0.2c0.7,0.1,1.3,0.4,1.7,0.9c-0.2,0.4-0.3,0.9-0.4,1.3l-2-1.1l-0.7,1.3c1.2,1.4,2.5,2.7,3.8,4l1.1-0.2V107l1.3-0.2l0.2-3.1
			l-2-0.9l1.3-2.2c-1.2-0.1-2.4-0.2-3.6-0.2V100.3z"/>
		<path id="path5273" fill="#FEC010" stroke="#000000" stroke-linecap="round" stroke-linejoin="round" d="M185.3,100.6
			c-3.1,0-5.1,1.3-6.2,3.8l1.3,0.7l-0.9,0.7l3.6,0.2l-4,0.7l0.2,1.5c2.7-0.5,4.9,0.2,6.8,2L179,110c-0.1,2.2,1,3.5,3.5,4l0.2,1.8
			c3.4,1,6.3,0.2,8.6-2.2l1.6,2l4.2-0.2l-0.7-1.5l-1.1,1.3l-0.2-2l1.1,0.7l1.3-1.3l0.7,0.9c0-0.5,0-1,0-1.5l-4-2.9
			c1-2.9,0.5-5.3-1.5-7l-1.5,0.2l-0.2,4.9l-1.5-4.4h-0.9l0.6,1.8l-0.9-0.6l-0.4,0.9l-1.1-0.2l1.1-1.1l-1.3-1.1l-2.2,1.1L185.3,100.6
			z"/>
		<path id="path5271" fill="#FEC010" stroke="#000000" stroke-linecap="round" stroke-linejoin="round" d="M193.1,100.6l-0.5,0.7
			l1.8,1.5l0.7-1.8L193.1,100.6z"/>
		<path id="path5269" fill="#FEC010" stroke="#000000" stroke-linecap="round" stroke-linejoin="round" d="M108,101.4l-0.4,2.4h1.1
			l0.9-1.3L108,101.4z"/>
		<path id="path5265" fill="#FEC010" stroke="#000000" stroke-linecap="round" stroke-linejoin="round" d="M223.7,109.6
			c-0.4,0.4-0.8,0.7-1.3,0.9h0.9L223.7,109.6z"/>
		<path id="path5263" fill="#FEC010" stroke="#000000" stroke-linecap="round" stroke-linejoin="round" d="M202,112.5l-1.1,3.1
			l3.1,1.3l1.5-1.3L202,112.5z"/>
		<path id="path5261" fill="#FEC010" stroke="#000000" stroke-linecap="round" stroke-linejoin="round" d="M232.5,113.2l-1.1,0.4
			h1.8L232.5,113.2z"/>
		<path id="path5259" fill="#FEC010" stroke="#000000" stroke-linecap="round" stroke-linejoin="round" d="M228.8,113.4l0.9,3.3
			l1.8-1.1l-0.4-2L228.8,113.4z"/>
		<path id="path5257" fill="#FEC010" stroke="#000000" stroke-linecap="round" stroke-linejoin="round" d="M91.6,115.4l-0.9,1.1
			l1.5-0.2L91.6,115.4z"/>
		<path id="path5255" fill="#FEC010" stroke="#000000" stroke-linecap="round" stroke-linejoin="round" d="M90.7,116.5L90.7,116.5
			C90.6,116.5,90.7,116.5,90.7,116.5z"/>
		<path id="path5253" fill="#FEC010" stroke="#000000" stroke-linecap="round" stroke-linejoin="round" d="M90.6,116.5l-1.5-0.6
			C89.5,116.5,90,116.7,90.6,116.5z"/>
		<path id="path5249" fill="#FEC010" stroke="#000000" stroke-linecap="round" stroke-linejoin="round" d="M116.2,121.2l-0.9,1.1
			h1.8L116.2,121.2z"/>
		<path id="path5247" fill="#FEC010" stroke="#000000" stroke-linecap="round" stroke-linejoin="round" d="M112.4,121.6l-0.9,0.4
			v1.5h0.7l-1.1,0.7h2.9v-0.9l0.5,0.9l1.1-1.1l-0.7-1.3l-1.1,0.7l0.2-0.9l-1.3,1.8L112.4,121.6z"/>
		<path id="path5243" fill="#FEC010" stroke="#000000" stroke-linecap="round" stroke-linejoin="round" d="M221.3,122.5
			c0.4,0.9,1.1,1.2,2,0.9L221.3,122.5z"/>
		<path id="path5239" fill="#FEC010" stroke="#000000" stroke-linecap="round" stroke-linejoin="round" d="M219.7,123.4
			c1.4,3,1.3,5.7-0.5,8l2.2-0.9l1.1,1.8l2.4-4c0.7,1.4,1.9,1.9,3.5,1.5l0.9-1.3l-1.5-0.9l-1.3,0.9l-0.2-1.8l-4.7-2.2l-0.4,0.9
			L219.7,123.4z"/>
		<path id="path5229" fill="#FEC010" stroke="#000000" stroke-linecap="round" stroke-linejoin="round" d="M254.3,126.9l-1.1,0.7
			l1.1,0.4V126.9z"/>
		<path id="path5225" fill="#FEC010" stroke="#000000" stroke-linecap="round" stroke-linejoin="round" d="M233.4,128.7l-1.3,0.2
			l1.1,0.9L233.4,128.7z"/>
		<path id="path5211" fill="#FEC010" stroke="#000000" stroke-linecap="round" stroke-linejoin="round" d="M227.9,131.8
			c-1.4,0.2-2.4,0.9-2.9,2.2l0.7,0.9L227.9,131.8z"/>
		<path id="path5209" fill="#FEC010" stroke="#000000" stroke-linecap="round" stroke-linejoin="round" d="M231.7,132.5l0.2,2.4
			l0.6-1.1L231.7,132.5z"/>
		<path id="path5193" fill="#FEC010" stroke="#000000" stroke-linecap="round" stroke-linejoin="round" d="M137.2,136.5l-0.6,2.9
			l0.6-1.1l0.9,1.1l-0.7-2l0.9,1.3l0.7-0.7L137.2,136.5z"/>
		<path id="path5189" fill="#FEC010" stroke="#000000" stroke-linecap="round" stroke-linejoin="round" d="M139.7,136.9l-1.8,4.4
			C139.9,140.5,140.6,138.9,139.7,136.9z"/>
		<path id="path5179" fill="#FEC010" stroke="#000000" stroke-linecap="round" stroke-linejoin="round" d="M138.3,141.8l-1.3,3.1
			C137.8,144,138.2,143,138.3,141.8z"/>
		<path id="path5177" fill="#FEC010" stroke="#000000" stroke-linecap="round" stroke-linejoin="round" d="M138.8,141.8l-0.5,2
			l0.9,0.4l0.9-1.3L138.8,141.8z"/>
		<path id="path5167" fill="#FEC010" stroke="#000000" stroke-linecap="round" stroke-linejoin="round" d="M138.3,144l-0.9,2.4
			l0.9,0.4l-1.1,0.9c0.8,0.7,1.1,1.6,1.1,2.6l0.9-1.8l-1.1-0.9l1.3,0.2L138.3,144z"/>
		<path id="path5153" fill="#FEC010" stroke="#000000" stroke-linecap="round" stroke-linejoin="round" d="M285.8,148.9
			c-1,3-0.6,5.8,1.2,8.4l-1,0.7l1.3,0.9h-1.1l-0.5,3.1l1.8-1.3l-0.9,3.1l0.9,0.7c0.7-1.8,2.1-2.6,4.2-2.5l0.9-2.4l0.4,2l2-2.2
			l-0.9,3.5c1.8-1,2.3-2.6,1.5-4.9c1.2,0.6,1.8,1.7,1.8,3.1l0.2-2l0.9,1.8l0.9-0.4c0.3-1.9-0.2-3.1-1.6-3.7l-0.4,1.3l-0.4-2.2v2.4
			l-1.1-0.4l0.2-0.9l-0.9-0.2l0.9-2l-1.6,1.8l-0.6-3.3l-1.6,1.1l-0.6-0.9l-0.5,2.7l-0.4-1.8l-1.3,1.3v-2.2l-1.1,0.9
			c-0.2-0.2-0.3-0.4-0.4-0.6c0,0.8,0,1.7,0,2.5c-0.2-1.9-0.5-3.8-0.9-5.7l-1.1-0.4l0.9-0.4L285.8,148.9z"/>
		<path id="path5145" fill="#FEC010" stroke="#000000" stroke-linecap="round" stroke-linejoin="round" d="M238.3,151.1l-0.4,2.7
			l1.1-0.9l0.2,0.7C239.3,152.7,239,151.8,238.3,151.1z"/>
		<path id="path5143" fill="#FEC010" stroke="#000000" stroke-linecap="round" stroke-linejoin="round" d="M135.7,151.3
			c-1.1,2.7-0.9,5.3,0.6,7.8l-0.7-2.9l1.1-0.4l-1.1-0.9l2.7-2.5l-2.4,1.1l1.1-1.1L135.7,151.3z"/>
		<path id="path5129" fill="#FEC010" stroke="#000000" stroke-linecap="round" stroke-linejoin="round" d="M141.6,156.9l-0.6,2
			l0.4-0.2v1.5L141.6,156.9z"/>
		<path id="path5119" fill="#FEC010" stroke="#000000" stroke-linecap="round" stroke-linejoin="round" d="M277.8,161.6l-3.6,1.1
			l5.8,0.2V162L277.8,161.6z"/>
		<path id="path5115" fill="#FEC010" stroke="#000000" stroke-linecap="round" stroke-linejoin="round" d="M238.1,163.3l-1.5,1.1
			l2.9,0.4L238.1,163.3z"/>
		<path id="path5103" fill="#FEC010" stroke="#000000" stroke-linecap="round" stroke-linejoin="round" d="M139.4,165.6l0.2,1.3h1.5
			l-1.5,1.1c2.2,0.7,3.2,2.5,3,5.3l2-0.2l-1.1,1.5l3.5,2C146.7,171.3,144.2,167.6,139.4,165.6z"/>
		<path id="path5089" fill="#FEC010" stroke="#000000" stroke-linecap="round" stroke-linejoin="round" d="M284.2,170.9l-3.8,2
			l-1.1-1.8v1.8l3.8,0.5L284.2,170.9z"/>
		<path id="path5061" fill="#FEC010" stroke="#000000" stroke-linecap="round" stroke-linejoin="round" d="M242.7,188.5l-3.5,0.9
			l3.3,0.5L242.7,188.5z"/>
		<path id="path5035" fill="#FEC010" stroke="#000000" stroke-linecap="round" stroke-linejoin="round" d="M267.4,248.9l1.5,0.9
			l-0.4,2l0.6,0.2v-2.4L267.4,248.9z"/>
		<path id="path5031" fill="#FEC010" stroke="#000000" stroke-linecap="round" stroke-linejoin="round" d="M270.7,252.7
			c1.5,0.3,2.2,1.1,2.2,2.4l-0.2-1.5L270.7,252.7z"/>
		<path id="path5029" fill="#FEC010" stroke="#000000" stroke-linecap="round" stroke-linejoin="round" d="M266.5,255.2l-0.4,2
			l1.5,0.7l0.7-1.5L266.5,255.2z"/>
		<path id="path5027" fill="#FEC010" stroke="#000000" stroke-linecap="round" stroke-linejoin="round" d="M268.7,257.6l-0.7,0.6
			l0.2,0.2L268.7,257.6z"/>
		<path id="path5025" fill="#FEC010" stroke="#000000" stroke-linecap="round" stroke-linejoin="round" d="M268.3,258.5l0.7,0.7
			l0.2-0.9L268.3,258.5z"/>
		<path id="path5023" fill="#FEC010" stroke="#000000" stroke-linecap="round" stroke-linejoin="round" d="M283.8,262.5l-1.8,1.8
			l1.8-0.5V262.5z"/>
		<path id="path5021" fill="#FEC010" stroke="#000000" stroke-linecap="round" stroke-linejoin="round" d="M306.4,262.9l-4.4,2.2
			l0.4,1.3C304.7,266.1,306,264.9,306.4,262.9z"/>
		<path id="path5019" fill="#FEC010" stroke="#000000" stroke-linecap="round" stroke-linejoin="round" d="M318.8,262.9l-0.9,1.1
			l0.7,0.7l1.1-1.5L318.8,262.9z"/>
		<path id="path5017" fill="#FEC010" stroke="#000000" stroke-linecap="round" stroke-linejoin="round" d="M262.9,263.6
			c-4.5,0.2-8.8,1.4-12.9,3.5l-0.4,2.4l-2,0.9c3.1-2.1,6.7-3.6,10.1-3.9l-1.5,0.6c4.5-1,9.4-0.4,12.9,2l2.9-0.4l0.4,0.9l-1.5,2
			c3.8-0.7,7.4-2.3,10.4-4.5l-4.9,0.2l-0.2-1.5C271.7,266.4,267.1,265.7,262.9,263.6z"/>
		<path id="path5015" fill="#FEC010" stroke="#000000" stroke-linecap="round" stroke-linejoin="round" d="M293.5,264.5
			c-3.5,0.5-7.1,1.7-10,3.5h2.2v1.5l1.6,0.9c-3.1-0.4-5.1,0.5-6.2,2.7c2.6,1.3,5,0.6,7.3-2.1l2,1.3c1.9-3.5,5.4-5.8,8.5-6.5h-4
			l1.3-1.1l-1.8,0.7L293.5,264.5z"/>
		<path id="path5013" fill="#FEC010" stroke="#000000" stroke-linecap="round" stroke-linejoin="round" d="M253.6,269.1l0.2,1.5
			v-0.2l1.3-0.4l-0.7-0.9H253.6z"/>
		<path id="path5009" fill="#FEC010" stroke="#000000" stroke-linecap="round" stroke-linejoin="round" d="M273.8,275.4l-4.4,1.5
			c2.3,1,4.6,0.8,6.8-0.7L273.8,275.4z"/>
		<path fill="#FEC010" stroke="#000000" stroke-linecap="round" stroke-linejoin="round" d="M285.1,147.3c-1.8,3.5-2.7,5.9-3.3,9.8
			c-3.9,1.9-7.9,3.9-11.8,6c0,3.6-1.2,6.6-4,9.3l0.7,1.6c1.5-4.2,4.4-7.4,8.4-8.9l1.6,2c-0.6,1.9-1.9,3.1-4,3.5l2-0.6l0.6,0.9
			l1.4-1.4v2.9l1.1-0.7l1.3,2.3c2.6,1.4,4.6,0.9,6.2-1.4l1.5,0.4c-1.8-1.3-2-3.2-0.6-5.5c1.2,1.5,1.5,3.1,0.7,4.9l0.6-0.4v-2.5
			c0.5,0.1,0.9,0.3,1.4,0.5c-0.7,1-1.4,2-2,3l1.1,0.3c-1.3,1.7-2.8,3.3-4.5,4.7l0.5,0.9l-1.6,0.2l-0.8,4.8l-1.8-0.4
			c-1.5-2.3-1.1-4.5,1.1-6.6l1.3,0.6l0.9-1.8c-1,0.6-2,1.2-3.1,1.6l0.4-2.2l-3,4.6h-1.8l1.1,1.1l-1.6,2.7l-0.9-0.7l-0.8,1.6
			l-0.5-1.3l0.2,2.9h-1.5l0.4,1.1l-0.9,0.4l-0.2,5.1l2.5,1.6l0.2-1.4l0.6,1.1l-2.6,1.8l-0.9-1.1l0.4,1.8c-5,2.2-6.5,5.7-5.7,10.6
			l-2.3-2c2.7,2.7,3.1,5.7,1.2,9.1l0.2-3.1l-2.7-2.4l0.7-2.7l-1.8,1.6l2,3.7l-2.9-1.3v1.1l3.1,0.7v1l0.2,0.1l-0.2,1.3l-1.1-0.9
			l1.3,1.4l-1.5-0.2c2.7-0.4,4.3,0.8,4.9,3.7l-1.8-2.6l0.9,2l-1.1-0.5l-1.1,1.6l1.8-0.7l0.2,1.1l0.2-1.3l0.7,1.1
			c-0.6,1.5-1.7,2-3.4,1.5l1.6,0.2l-1.1,1.4l1.8-0.2c-3.9,3.4-7.1,7.4-9.6,11.9l-0.9-0.6l0.7,0.9l-2,4c4.6,5.8,6.8,12.6,6.2,19.7
			v-0.7l-1.6,0.7V256l-2.2-0.6l-1.3-3.3l-1.1,0.4c-1.2-0.9-1.5-2-0.7-3.3l-1.1,0.4c-0.8-5.8-3.5-7.8-8.2-4.4c-0.4-0.7-0.7-1.3-1.1-2
			l-2.6,0.2l0.8-0.4l-2.8,0.8l0.4-0.8l-2.9,1.7l0.7-0.6l-0.7-1.4l-0.2,1.6l-6.7,1.3c1.2,0.3,2.4,0.5,3.6,0.7l-1.3,1.3l2.2,0.9
			l-1.1,1.1c-0.5-1.4-1.4-2.1-2.7-2l0.5,1.6l-1.2-0.7l-1.1,1.1l-3.1-2.2c-2.7,0.7-5.8,1.5-8.8,2.2l0.9-0.7l-1.6-0.4l-0.2,2.2l-3.4,2
			l0.7-0.4l-2-0.2l0.9,0.8c-2.2,0.4-3.3,1.7-3.1,4h-1.1l1.1,0.2c1.3,2.6,1.2,5-0.2,7.4l0.4-1.3l-1.3,0.6c-1.2,8,1.2,15,6.9,20.9
			c1.9-0.8,3.5-0.2,4.6,1.7c3-2.3,6.1-2.9,9.3-2c2.7-2.2,3.9-5.1,3.8-8.6c3.4-2.6,7.1-3.5,11.1-2.7l-2.7,5.8l1.1,0.2l-1.1,4.7
			l-0.8-2l-0.9,1.5h0.9c0.8,3.1,0.1,5.8-2.3,8c6-1.6,12.1-2,18.2-1.1c0.9,3.8,0.6,8.1-0.7,12c2,1.7,4,3.6,5.8,5.5l1.6-0.2l-0.5-0.6
			c5.2-3.4,10.8-4,15.7-0.5l-1.3,1.6l-0.5-0.5l-0.4,1.5l-2-1.5l1.2-1.5c-1.3,0.7-2.5,0.4-3.6-0.9c-1.5,1-2.9,2.1-4.2,3.3l1.5,1.8
			c-0.7,0.9-1.6,1.4-2.8,1.5l-0.7-1.8l-1.3,0.9l-0.9-1.3c-1.8-0.5-3.1-0.1-3.8,1.3l-1.8-1.5l0.5,0.9h-0.9l-0.2-1.6
			c-1.8-1.3-3.7-2-5.8-2.4l0.9,0.4c-0.7,0.4-1.4,0.5-2.2,0.5v-2.3l-0.9-0.2l0.9-0.6l-7.1-4.2l1.3-0.3l-0.4-1.5l-4.5,1.1l0.9,0.2
			c-21.1-1.8-40.4-8.1-57.4-20.4l1.6-0.4l-0.9-0.7l1.1-2c-2.5-4.3-5.7-9-8.4-12.6l-4-2.5l0.8-1.8l-4-4l0.3-1.7
			c-2.4-0.8-4.2-2.8-4.9-5.3v1.5l-0.7-0.9c1.1-4.5-1.2-8.6-6-10.9c3,10.7,8,22.1,13.6,31.3l-1.8,0.7c-4.1-5.1-6.4-9-8.7-14.7
			l-1.3,0.7l-4-4.2l3.4,0.9l-0.9-1.1l0.9-1.6c-3.4-9.5-8.5-17.7-15.4-24.4c-0.5-3.8-1.4-8.4-2.4-12.2l0.9,1.4v-2.3l-2-0.2
			c-1.7-9.6,0.2-19.3,5.3-28.2l1.1,0.2l-1.3-0.4l1.3-2.2h-0.8l0.4-5.3l4,2l-1.8,2.4l1.8-1.5l-0.2,2.4l1.3-5.1l-1.1-1.3l0.7-2.3
			l-1.8,0.3l1.1-0.5c-0.2-0.6-0.2-1.2-0.2-1.8c-0.4,0.5-0.9,0.8-1.4,1.1l-0.9-1.1l1.6-1.3h-1.8l0.2-0.2l-1.1-0.5l0.7-0.8l-0.9,0.8
			l-0.9-1.1l2-0.6l-1.7,0.4l-0.5-0.6h0.9l-2.7-1.1h2l-2.2-0.7l1.6-0.2l-1.4-0.5l1.6-0.7l-1.1,0.5c-0.3-1.7,0.5-2.9,2.6-3.6l-2.2,0.9
			l0.2-1.1l-1.1,0.5l1.8-0.9l-1.1-3.6l1.6,0.9l-1.2-0.7l0.7-1.3l-2,1.6l-0.7-2.5l1.4-0.4l-1.4-1.1c0.3-1.1,1.1-1.5,2.3-1.4l-0.7-0.6
			l1.8-2.7c-0.8,1.4-1.9,2.4-3.4,3.1c1.3-1.3,1.8-2.8,1.6-4.4c-0.9,0.3-1.8,0.6-2.7,0.9l2.2-1.6l-1.9-4.4l1.1-0.2l-0.3-1.4l0.7,1.2
			l-0.7-1.4h0.9l-1.1-1.1l1.3-1.3l-1.1,0.6l-0.6-0.8l1.1-3.8l-1.8,4l-1.1-1.1l0.9-2.3l-0.7,0.9l-0.6-1.5l0.2,2.9h-1.1l-2-6.5
			l1.3-0.8l-0.6,1.3l1.1-0.5l-0.5-1.1c-0.6,0.2-1.2,0.3-1.8,0.5l-0.4-2.3l-4-1.9l0.2-1.8l-1.3-0.9l0.7-0.9l-0.9-0.2h0.9l-0.7-0.7
			l1.1-0.4h-1.8l0.5-0.9l-1.1,0.4l1.1-1.1l-2.2,0.5v1.7l-1.6,0.7l-0.9-1.3l-0.9,1.1l0.3-0.9l-0.7,0.9l-3.3-0.7l2.2-0.9l-1.1-0.9
			c2.3-2.5,4.2-2.6,5.7,0l-0.4-1.9h1.8c-3.6-1.1-8.1-0.5-11.3,1.5l0.6,1.3c-4.7,0.4-9.6,0.9-14.6,1.4l0.4-0.9
			c-0.5-0.9-1.3-1.1-2.6-0.7l0.4-0.9l-1.5,0.7l-0.3-1.3l2.3-0.3l1.1,2c1.7-2,4.2-2.3,7.1-0.9c1-1.8,2.4-2.9,4.4-3.1l-2.2-0.4
			l0.9-1.6L110,115c0.3-1,0.4-2.1,0.4-3.1l-2.7-1.2c2.1,0.2,3.4-0.9,4-3.3l-2.4-1.5l1.8-1.8l1.1,0.7c-0.3-0.8-0.5-1.5-0.7-2.3h0.9
			l-0.7-0.8c0.9-2.7,3.1-3.7,6.7-3.2l0.2,1.6l2.2-0.2l0.7,1.1c1.3-0.1,2-0.8,2.2-2.2h1.5l-0.4-1.1h-2.2l0.7-0.9l-0.7,0.4l-1.6-3.1
			l1.4-2l0.9,0.7v-2.7l4.6,1.6l-1.1,1.5l2,2.2l1.6-2.8l-0.9,1.7l0.9,1.4l-0.7-1.4l1.3-1.1l-1.1-2c1.6-1.1,2.3-2.8,2-4.9l1.8-0.4
			l1.5,1.6c2.3-1,4.7-1.1,6.9-0.3c-0.4,0.1-0.6,0.3-0.7,0.7l1.6-0.7l1.1,1.2l2.4-0.3c0,0.9-0.5,1.5-1.5,1.6l1.5-0.2l-0.2,1.3
			l1.4,1.1l-0.9,0.5c4.5,4.1,8.1,9.1,10.8,14.8l0.2-2l2.5-0.6l-0.5,1.5c2.2,0.2,4.4-0.1,6.5-0.9c-1,0.8-1.9,1.5-2.9,2.2
			c1.6-0.7,3.2-1,4.9-0.9V105c0.3,1.5,0.6,3.1,0.9,4.6c0.7-0.7,1.5-1.5,2.2-2.2c-0.5,0.7-0.8,1.6-0.9,2.5c4.3,0.2,8.6,2.5,11.3,6
			l-1.8,0.2l-0.2,1.3c2.3,1.4,4.5,1.5,6.7,0.2l2.4,2.7L188,121l1.5,2.4l-0.6-2l0.9,0.4c0.5-1.1,0.2-2.1-0.9-3.1l3.3-2.4
			c-1.2,1.5-2.6,1.7-4,0.7l3.6-1.8l1.3,2.7c2.5,1.3,4.8,1.8,8,1.5l0.2-1.3l1.8,2v-1.6l-1.1,0.2l-0.7-1.5c1.1-0.7,2-0.6,2.9,0.2
			l-0.2,0.9l0.8-0.9l-0.6,2.7l1.7,0.9l-0.4-2.9l2.2-1.8l-0.4-1.3l-0.9,0.9l0.2-1.8l1.1-0.2l-3.5-1.4c0-0.9,0.1-1.7,0.2-2.6l-0.9-0.3
			l2-3.7l4,5.3l-1.1-0.2c0.1,0.6,0,1.2-0.2,1.8l3.1,0.4l-1.4,0.4l2.3,3.6l0.4-3.6c2.6,1,3.9,3.2,3.8,6.5c1.9-1.1,2.3-3,1.1-5.6
			l1.1-0.2l-2-3.1l3.8-0.2l-0.7,0.6l2.4,0.5l-0.4,1.1l1.1,0.7l-1.3,0.8l2.6,2.7l-1.7,4l-1.1-1.6l-1.8,0.3l2.6,2.2l-4.4-0.7l1.5,1.1
			l-1.5,2.9c-1.7-1.5-3.5-1.9-5.3-1.1l6.2,1.8l-1.1,3.3l-2.9,0.5l-0.7,2.4l-5.1-2.2v1.1l2.7,0.2l-0.2,0.9l0.9-0.7l2,1.6l-0.9,1.3
			h-1.8l1.1,0.7l-2.7,2.4l0.7,0.7c-2.7,3.5-3,7.5-0.7,11.1v-1.1h1.8c2.1,1.9,2.6,3.9,1.4,6c6.1,0.5,14.2,1.6,21,2.8
			c1.1,5.5,3.2,9.1,6.9,12.2c0.6,0,1.2,0,1.8,0l0.4-2l1.5,1.4l-1.1-1.8l0.9-2c-0.4-3.6-2.1-6-5.1-7.1c3-1.6,4.4-4.1,4.2-7.5v0.8
			l1.4-0.2l-1.4-1.1v0.5c-0.7-3.6-2.8-5.7-6.2-6.3c1.4-2.8,1.2-5.3-0.6-7.5l-1.1,0.5c0.8-2,0.3-3.6-1.6-4.7l0.7-1.3l4.9,0.2l0.6-1.6
			l3.3,2l1.1-0.4l0.5,1.3l3.1,0.2l0.2-1.1l1.3,3.1l-1.7,0.9l1.7-0.4l0.9,2l0.9-0.5l0.3,1.8l-0.9-0.4l-0.3,1.1l3.1-1.4l0.7,2.7
			l0.2-2.2l1.4,1.5l0.6-3.5l1.6,1.5l-1.1-1.5l0.6-1.4l-0.9-0.2l0.9-0.9l-1.3-0.8l-0.2-2.3h0.9v0.9l3.3,1.6l-0.7,0.9l1.4-0.7
			c1,0.7,1.2,1.6,0.6,2.7l1.1-1.4l-0.2,2l0.9-1.3l0.2,0.9l1.6,0.4l-0.7,0.9l2.4,0.2l0.5,1.6L266,140l1.8-0.2l-0.7,0.7h1.2l-0.5,0.7
			l1-0.5v0.9l2.3-0.6l0.9,2.3l0.9-1.5v0.9l0.8-0.5v-0.7l0.4,1.3v-1.4l0.9,1.4l1.4-1.5v0.6l1.4-0.2l-0.7,2.2l2-0.5l0.7,1.7l0.9-2
			l2.1,0.6v2.4l1.5-0.1l-1.1,1l1.5-0.8l-1.2,1.1H285.1z"/>
		<path id="path5007" fill="#FEC010" stroke="#000000" stroke-linecap="round" stroke-linejoin="round" d="M323,278.5l-2,1.5
			l0.9,0.7l-1.3,1.5l2.7-1.8L323,278.5z"/>
	</g>
</g>
</svg>
