<?xml version="1.0" encoding="utf-8"?>
<!-- Generator: Adobe Illustrator 23.0.0, SVG Export Plug-In . SVG Version: 6.00 Build 0)  -->
<svg version="1.0" id="globes" xmlns="http://www.w3.org/2000/svg" xmlns:xlink="http://www.w3.org/1999/xlink" x="0px" y="0px"
	 viewBox="0 0 400 400" enable-background="new 0 0 400 400" xml:space="preserve">
<g id="Asia">
	<path id="path11833_1_" opacity="0.5" fill="#86CAD9" enable-background="new    " d="M400,200c0.5-68.8-37.3-136.1-96.4-171.2
		C244.1-8,165.1-9.7,104,24.6C43.2,57.3,2,123.8,0.5,193.1c-3.5,73,37.4,145.8,101.2,181c60.6,35.2,139.8,34.5,199.8-1.8
		C361.9,337.6,400.5,269.6,400,200L400,200z"/>
	<g id="Land">
		
			<path id="path10237" opacity="0.5" fill="#FFFFFF" stroke="#000000" stroke-width="0.25" stroke-linecap="round" stroke-linejoin="round" enable-background="new    " d="
			M193.5,0l-0.4,0.2l2-0.2H193.5L193.5,0z"/>
		
			<path id="path10235" opacity="0.5" fill="#FFFFFF" stroke="#000000" stroke-width="0.25" stroke-linecap="round" stroke-linejoin="round" enable-background="new    " d="
			M193.1,0.3c-8.7,0.1-17,0.9-25.5,2.4l0.6-0.1l-6.3,1.2c1,0,1.9-0.1,2.9-0.4h-0.4l1.3-0.2l-1.1,0.2l1.3-0.2L165,3.4l2.5-0.2
			l-1.1,0.2l1.8-0.2H168l1.3-0.2l-0.9,0.2l1.8-0.2l-1.1,0.2c1.8,0,3.8-0.2,5.5-0.6h-0.9c2.3-0.4,4.6-0.7,7-0.9l-0.1-0.1
			c0.5-0.1,0.9-0.1,1.3,0.2h-0.2c1.3,0.4,2.7,0.4,4,0V2c3.7-0.1,7.4-0.2,11.1-0.4l-1.3-0.2l1.1-0.2c-0.6,0.1-1.2,0-1.8-0.2l2.4-0.4
			C195.8,0.9,194.4,0.8,193.1,0.3L193.1,0.3z"/>
		
			<path id="path10233" opacity="0.5" fill="#FFFFFF" stroke="#000000" stroke-width="0.25" stroke-linecap="round" stroke-linejoin="round" enable-background="new    " d="
			M161.8,3.8c-1.1,0.1-2.2,0.3-3.2,0.5c-0.2,0-0.3,0.1-0.5,0.1l0.5-0.1c-0.7,0.2-1.2,0.3-1.9,0.5c2-0.3-1.5,0.4-1.9,0.5
			c0.7-0.1,1.3-0.2,2-0.3l-0.1,0.1c1.1-0.2,2.1-0.4,3.1-0.7h-0.1C160.4,4.1,161.1,3.9,161.8,3.8z"/>
		
			<path id="path10231" opacity="0.5" fill="#FFFFFF" stroke="#000000" stroke-width="0.25" stroke-linecap="round" stroke-linejoin="round" enable-background="new    " d="
			M154.7,5.2c-0.4,0.1-0.7,0.2-1.1,0.3C154,5.4,154.3,5.3,154.7,5.2z"/>
		
			<path id="path10229" opacity="0.5" fill="#FFFFFF" stroke="#000000" stroke-width="0.25" stroke-linecap="round" stroke-linejoin="round" enable-background="new    " d="
			M153.7,5.5L150.9,6C151.9,6,152.8,5.8,153.7,5.5z"/>
		
			<path id="path10227" opacity="0.5" fill="#FFFFFF" stroke="#000000" stroke-width="0.25" stroke-linecap="round" stroke-linejoin="round" enable-background="new    " d="
			M150.9,6l-1.8,0.4c0.8,0,1.5-0.2,2.2-0.4H150.9L150.9,6z"/>
		
			<path id="path10225" opacity="0.5" fill="#FFFFFF" stroke="#000000" stroke-width="0.25" stroke-linecap="round" stroke-linejoin="round" enable-background="new    " d="
			M150.1,6.3l-0.5,0.1l1.1-0.2L150.1,6.3L150.1,6.3z"/>
		
			<path id="path10223" opacity="0.5" fill="#FFFFFF" stroke="#000000" stroke-width="0.25" stroke-linecap="round" stroke-linejoin="round" enable-background="new    " d="
			M167.5,2.7h-0.4C167.2,2.7,167.4,2.7,167.5,2.7z"/>
		
			<path id="path10221" opacity="0.5" fill="#FFFFFF" stroke="#000000" stroke-width="0.25" stroke-linecap="round" stroke-linejoin="round" enable-background="new    " d="
			M167.1,2.7c-0.5,0-1,0-1.5,0.2C166.1,2.8,166.6,2.8,167.1,2.7z"/>
		
			<path id="path10219" opacity="0.5" fill="#FFFFFF" stroke="#000000" stroke-width="0.25" stroke-linecap="round" stroke-linejoin="round" enable-background="new    " d="
			M204.6,0l2,0.1C206-0.2,205.3-0.3,204.6,0L204.6,0z"/>
		
			<path id="path10217" opacity="0.5" fill="#FFFFFF" stroke="#000000" stroke-width="0.25" stroke-linecap="round" stroke-linejoin="round" enable-background="new    " d="
			M206.7,0.1c1.1,0.3,2.3,0.4,3.5,0.1L206.7,0.1L206.7,0.1z"/>
		
			<path id="path10215" opacity="0.5" fill="#FFFFFF" stroke="#000000" stroke-width="0.25" stroke-linecap="round" stroke-linejoin="round" enable-background="new    " d="
			M210.3,0.3l1.5,0.2C211.4,0.1,210.9,0.1,210.3,0.3L210.3,0.3z"/>
		
			<path id="path10211" opacity="0.5" fill="#FFFFFF" stroke="#000000" stroke-width="0.25" stroke-linecap="round" stroke-linejoin="round" enable-background="new    " d="
			M212.1,0.5c5.1,0.5,9.7,1.1,14.5,1.9c-2.5,0.8-5.2,0.9-7.9,0.4l0.7,0.2c-0.9-0.2-1.9-0.3-2.8-0.2c0.8,0.4,1.7,0.5,2.6,0.4
			l-0.7,0.2l2.5,0.4c-3.6-0.9-7.2-1.1-10.8-0.4h0.2L207.9,4l1.1,0.4c-2.1-0.4-2.9-0.5-4.7-0.7c0.9,0.1,1.8,0.4,2.7,0.8
			c-2-0.4-3.6-0.4-5.7,0.2l1.8,0.9h-1.8l1.1,0.2l-1.1,0.4l2.5,0.2l-0.9,0.2l3.6,0.2l-0.7-1.1c1.4-0.3,2.8-0.5,4.3-0.9v1.3
			c1,0.6,1.9,0.5,2.8-0.3l0.9,1.1l-1.3-0.2l2.9,0.6c-0.6,0.6-1.2,0.8-2,0.5l2,2l3.1-0.6L217.9,9c0.5-0.1,0.8-0.3,1.1-0.6l-2.9-0.9
			c0.7,0.3,1.4,0.3,2-0.2H217l-0.3-0.6h3.1l0.4-0.7l1.3,0.4L220,6.9h1.3l-0.6,0.2l2.7,0.7l-0.2-0.7h-1.1l0.4-0.4
			c2.9,0.8,6,1.7,8.9,2.7l0.2,0.9l4,0.4c-1.2-0.9-2.5-1.2-4-0.9l3.8,0.2l-0.2-0.7l0.5-0.2l0.6,0.4l0.2-0.4l0.7,0.6h-1.1
			c2.3,1.2,4.7,2.3,7.3,3.2c-0.8,0.4-1.7,0.3-2.5-0.2c2.1,2.2,5.1,4.1,8.2,5.2c-0.6,0-1.2,0.1-1.8,0.4h2.9c-0.2,0.6-0.4,1.2-0.8,1.8
			l0.4-0.4c1.7,0.3,3.3,0.8,4.9,1.5l-2.2-0.2c-0.4,0-0.7-0.1-1.1-0.2l1.1,0.4v0.1c1.6,0.5,3.3,1.2,4.8,1.9l-1.1,0.2
			c1.2,0.9,2.3,1,3.4,0.3c0.6,3.8,1.8,7.2,3.8,10.5l-1.1-0.2l0.9,1.3l-0.9,0.2l1.5,0.9l-1.5-0.4l-0.5,0.4c1.5,1.2,2.6,1.9,4.2,2.6
			h-0.9c3.1,2.1,5.8,4.2,8.4,6.4c1-1.2,2.1-1.6,3.5-1.1v-1.6l1.7,0.3l-0.2-0.9l0.5,1.1l-1.6,0.2l2.5-0.2l0.7,2H279l3.1,4l1.3-1.1
			l0.2,0.6l1.8,0.2l0.2-2.5l-0.7-0.4l0.9,0.2c-1.4-0.4-2-1.2-1.8-2.3c1.5,0.6,2.4,1,4,1.6v0.9l2,1.6l-0.5,0.6
			c1.8,2.6,4.1,3.8,6.7,3.6l-0.2-0.7l0.7,0.4l0.2-1.3c0.3,1.4,1.3,2,2.9,1.8l-1.3-2.2c1.9-0.3,3.3,0.3,4.4,1.7l-1.8-2.4
			c0.5-0.3,1-0.5,1.5-0.6l-2.5-1.1l1.5,0.2l-1.8-2c3.6,2.4,7.2,5,10.6,7.6c-0.1-0.1-0.3-0.3-0.4-0.4h0.9c-4-3.6-8.1-7.1-12.2-10.5
			v0.7c-3.7-1.4-7.3-4-10-6.9l1.5,1.1l0.4-0.6c0.6,2,2.3,3.2,4.6,3.5l-0.7-0.9l2.2,1.3c-0.9-1.2-2-2.1-3.4-2.6h0.4l-1.1-0.4
			c-0.1-0.9-0.7-1.4-1.7-1.6l-0.7,0.4l-2-1.3l1.3,0.7l-1.1-0.7h0.6l-1.3-1.1l0.9,0.7l-0.2-0.7l0.9,0.2l-0.7-0.9l0.7-0.5l-2.7-2.4
			L287,30c-0.4-0.3-0.9-0.5-1.3-0.7l1.3,0.3c0.6-1.1,0.5-1.9-0.3-2.6l-0.7,0.4V27l-0.9-0.2l1.6,0.2c-0.8-1.1-1.9-1.4-3.4-1.1h2
			c-0.1-0.6-0.5-0.9-1.3-0.9l1.3,0.4l-0.4-0.6l0.7,0.4v-0.4l0.2,0.4L286,25l0.9,0.4l-0.2-1.3l2.4,1.1l-2.7-1.3c1,0,2,0.2,2.9,0.7
			l-2.1-1l0.5,0.2l-0.5-0.5c0.5,0.6,1.1,0.9,1.8,0.9v0.2h0.7l-1.1-0.6l1.3,0.6l0.2-0.2l-2.2-1.1l1.1,0.4l-0.7-0.7l1.1,0.9V23
			c0.8,0.4,1.6,0.7,2.4,0.8l-0.9-0.4c0.4,0.2,0.9,0.4,1.3,0.6l-0.7-0.4l0.9,0.4l-1.8-1.2l0.7,0.3c-0.8-0.6-1.8-1.2-2.8-1.6l1.6,0.7
			l-1.6-0.9l0.4,0.2c-1.4-0.7-2.8-1.4-4.1-2.3c-7.8-3.7-16.4-6.8-24.8-9.2c-1.3-0.2-2.5-0.8-3.5-1.7L256.3,8
			c-4.7-1.2-9.3-2.3-14.2-3.3l0,0h0.2c-0.2-0.1-0.3-0.1-0.5-0.1l0.2,0.1h-0.1c-0.2,0-0.5,0-0.7,0V4.3c-1.4-0.2-2.9-0.5-4.3-0.8
			l0.1,0.1l-1.3-0.2h0.2C228.1,1.9,220.1,0.9,212.1,0.5L212.1,0.5L212.1,0.5z"/>
		
			<path id="path10201" opacity="0.5" fill="#FFFFFF" stroke="#000000" stroke-width="0.25" stroke-linecap="round" stroke-linejoin="round" enable-background="new    " d="
			M290.4,23.4h-0.2l1.1,0.4L290.4,23.4L290.4,23.4z"/>
		
			<path id="path10199" opacity="0.5" fill="#FFFFFF" stroke="#000000" stroke-width="0.25" stroke-linecap="round" stroke-linejoin="round" enable-background="new    " d="
			M310.6,53.6c-0.4,2.3,0.8,4,3.6,4.9c-0.6-0.2-0.8-0.6-0.7-1.1l-0.9-0.4l0.4-0.5l-1.5-1.1h0.7L310.6,53.6L310.6,53.6z"/>
		
			<path id="path10197" opacity="0.5" fill="#FFFFFF" stroke="#000000" stroke-width="0.25" stroke-linecap="round" stroke-linejoin="round" enable-background="new    " d="
			M206.4,6.9L202,6.7c0.3,0.4,0.7,0.5,1.3,0.4c-0.8-0.1-1.6-0.2-2.4-0.4l0.7,0.2c-1.1,0.1-2.3,0-3.4-0.2c0.3,0.2,0.7,0.3,1.1,0.4
			l-0.7,0.5C197.9,7,197,6.7,196.2,7l0.2-0.5c-0.8,0.4-1.5,0.3-2.2-0.2l1.3-0.4c-2.2,0.4-4.3,0-6.2-1c0.8-0.4,1.7-0.7,2.7-0.8
			l-1.8-0.4c2.3,0.2,4.8-0.1,6.7-0.9L191.3,3l0.4,0.2L189.9,3l-0.2,0.2c-1.2-0.2-2.3-0.3-3.5-0.2l1.3-0.2c-3.5,0.1-7,0.2-10.5,0.4
			l5.8,0.2h-2.2l0.7,0.2h-5.6l1.6,0.4h-1.6c0.8,0.3,1.6,0.4,2.5,0.2l-0.7,0.2c0.9-0.1,1.8-0.1,2.7,0V4.3c0.9,0.7,1.8,0.7,2.6,0
			l0.5,0.5L181.7,5l1.3,0.2c-1.1,0.1-2.2,0.1-3.2,0.2V5.2l-1.6,0.4l0.9-0.4L175.8,5l0.9,0.7h-1.6l0.9,0.2L174.6,6h1.5l-1.8,0.2h1.1
			l-1.1,0.2l1.3,0.2l0.4-0.4c0.5,0.3,1.1,0.3,1.6-0.2l-0.5,0.4l0.7-0.4l-0.2,0.4c0.5-0.2,1.1-0.3,1.7-0.2l-1.1,0.2
			c1-0.1,1.9-0.1,2.9,0V6l0.2,0.4l0.4-0.2l0.2,0.2l0.2-0.2c0.6,0.3,1.2,0.3,1.8,0l-1.3,0.4l3.6-0.2l-2,0.2c0.5,0.3,1,0.3,1.5,0
			c-0.6,0.7-1.4,0.9-2.4,0.5c1.5,0.4,3,0.4,4.5,0c-0.4,0.2-0.9,0.4-1.3,0.6c0.4-0.1,0.7-0.2,1.1-0.2L186.3,8
			c0.9,0.4,1.8,0.3,2.7-0.2l-0.7,0.4l1.6-0.9l-0.2,0.4l0.9-0.2l-1.3,0.7l2-0.4l-1.1,0.7c1,0.4,1.9,0.3,2.8-0.4v0.6l1.3-0.6l-0.4,0.4
			h0.9l-1.1,0.4l2.2-0.2l-1.3,0.7c1.3,0.5,2.5,0.5,3.6-0.2l-1.6-0.3c1-0.2,2-0.1,2.9,0.4c0.3-0.4,0.8-0.6,1.3-0.7l-0.9,0.9
			c1.1,1.5,2.7,1.8,4.6,0.7l-1.1-0.5l1.8,0.2l-1.5-0.4l1.8,0.2l-1.3-0.9c0.7,0.3,1.3,0.3,2,0l-1.6-0.3l0.4-0.7
			c1.2,1.3,3,1.5,5.3,0.6C209.2,7.4,207.7,6.9,206.4,6.9L206.4,6.9z"/>
		
			<path id="path10195" opacity="0.5" fill="#FFFFFF" stroke="#000000" stroke-width="0.25" stroke-linecap="round" stroke-linejoin="round" enable-background="new    " d="
			M187.8,7.1l-3.3,0.4C185.6,8,186.7,7.8,187.8,7.1z"/>
		
			<path id="path10193" opacity="0.5" fill="#FFFFFF" stroke="#000000" stroke-width="0.25" stroke-linecap="round" stroke-linejoin="round" enable-background="new    " d="
			M191.3,1.2c-1,0.1-1.9,0.2-2.9,0.2C189.4,1.3,190.3,1.3,191.3,1.2z"/>
		
			<path id="path10191" opacity="0.5" fill="#FFFFFF" stroke="#000000" stroke-width="0.25" stroke-linecap="round" stroke-linejoin="round" enable-background="new    " d="
			M199.7,1.4l-1.1,0.2l0.4,0.2C199.2,1.7,199.5,1.5,199.7,1.4z"/>
		
			<path id="path10189" opacity="0.5" fill="#FFFFFF" stroke="#000000" stroke-width="0.25" stroke-linecap="round" stroke-linejoin="round" enable-background="new    " d="
			M205.7,1.6L202.6,2c1.2,0.1,2.3,0,3.5-0.2L205.7,1.6L205.7,1.6z"/>
		
			<path id="path10187" opacity="0.5" fill="#FFFFFF" stroke="#000000" stroke-width="0.25" stroke-linecap="round" stroke-linejoin="round" enable-background="new    " d="
			M172.3,2c-0.1,0-0.3,0-0.4,0C172,2,172.2,2,172.3,2z"/>
		
			<path id="path10185" opacity="0.5" fill="#FFFFFF" stroke="#000000" stroke-width="0.25" stroke-linecap="round" stroke-linejoin="round" enable-background="new    " d="
			M196.6,2l-0.7,0.2h1.5L196.6,2L196.6,2z"/>
		
			<path id="path10183" opacity="0.5" fill="#FFFFFF" stroke="#000000" stroke-width="0.25" stroke-linecap="round" stroke-linejoin="round" enable-background="new    " d="
			M170.7,2.2c-0.1,0-0.2,0-0.3,0C170.5,2.2,170.6,2.2,170.7,2.2z"/>
		
			<path id="path10181" opacity="0.5" fill="#FFFFFF" stroke="#000000" stroke-width="0.25" stroke-linecap="round" stroke-linejoin="round" enable-background="new    " d="
			M201.3,2.3L200,2.5h2.9l-0.4,0.4c2.2,0.2,3.6,0.5,5.4,0.9c0.8-0.9,1.9-1.3,3.1-1.1c-1.3,0.6-2.2,0.5-2.9-0.4
			C205.6,2.6,203.7,2.6,201.3,2.3L201.3,2.3L201.3,2.3z"/>
		
			<path id="path10179" opacity="0.5" fill="#FFFFFF" stroke="#000000" stroke-width="0.25" stroke-linecap="round" stroke-linejoin="round" enable-background="new    " d="
			M174.9,3.1l-0.3,0.3l1.3-0.2L174.9,3.1L174.9,3.1z"/>
		
			<path id="path10177" opacity="0.5" fill="#FFFFFF" stroke="#000000" stroke-width="0.25" stroke-linecap="round" stroke-linejoin="round" enable-background="new    " d="
			M187.5,3.4l0.2,0.4l-2.5-0.2L187.5,3.4z"/>
		
			<path id="path10165" opacity="0.5" fill="#FFFFFF" stroke="#000000" stroke-width="0.25" stroke-linecap="round" stroke-linejoin="round" enable-background="new    " d="
			M193.5,4.7l-0.2,0.6h2.2l0.2-0.6H193.5L193.5,4.7z"/>
		
			<path id="path10139" opacity="0.5" fill="#FFFFFF" stroke="#000000" stroke-width="0.25" stroke-linecap="round" stroke-linejoin="round" enable-background="new    " d="
			M199.7,6.5L199,6.7c0.5,0.1,1.1,0,1.6-0.2H199.7L199.7,6.5z"/>
		
			<path id="path10133" opacity="0.5" fill="#FFFFFF" stroke="#000000" stroke-width="0.25" stroke-linecap="round" stroke-linejoin="round" enable-background="new    " d="
			M218.7,7.4c1.3,1.4,2.7,1.7,4.4,0.9C221.7,7.5,220.3,7.2,218.7,7.4L218.7,7.4z"/>
		
			<path id="path10127" opacity="0.5" fill="#FFFFFF" stroke="#000000" stroke-width="0.25" stroke-linecap="round" stroke-linejoin="round" enable-background="new    " d="
			M205.3,8.3l1.1,0.7c0,1.1-0.7,1.7-2,1.8c2.5,0.6,4.8,0,6.5-2C209,8.5,207.2,8.3,205.3,8.3L205.3,8.3z"/>
		
			<path id="path10123" opacity="0.5" fill="#FFFFFF" stroke="#000000" stroke-width="0.25" stroke-linecap="round" stroke-linejoin="round" enable-background="new    " d="
			M156.4,8.5c-0.7,0.5-1.3,0.6-1.9,0.2L154,9.2V8.7l-1.8,0.5l0.2-0.2l-1.1,0.4l0.4-0.4l-0.6,0.4V9.2l-0.9,0.2
			c0.1-0.1,0.3-0.1,0.4-0.2l0.5-0.2c-2.2,0.5-4.2,1.1-6.2,2.1l0.4-0.7l-0.7,0.4l0.2-0.2c-0.6,0.2-1.2,0.4-1.7,0.6l-0.2-0.2
			c-0.9,0.3-1.8,0.6-2.9,1.1l2.2-0.7l-1.8,0.9l1.3-0.5l-0.6,0.5l1.3-0.2l-0.9,0.4l1.1-0.4l-0.9,0.4l0.9-0.2l-0.4,0.4
			c0.9-0.1,1.8-0.3,2.6-0.7l-1.6,0.9l1.1-0.2l-1.3,0.4l1.6-0.2l-1.3,0.5l0.9-0.2l-0.7,0.4l1.3-0.4l-1.6,0.7c0.9,0.1,1.7-0.1,2.4-0.7
			l-1.3,0.7l2.7-0.2l-1.5,0.4c0.3,0.2,0.5,0.2,0.8,0.2l-1.8,1.1l1.3,0.2l-0.9,0.4l-0.2-0.4l-0.9,0.2h0.9c-0.8,0-1.4,0.4-1.8,1.1
			l1.1-0.2l-1.5,0.6l1.8,1.1l-0.5,0.7l2.2-0.2c-1.4-0.1-2.5,0.3-3.3,1.3h0.7c-1.2,0.2-2,0.9-2.4,2.2l0.9,2.5
			c2.2-0.2,3.3-1.2,3.3-2.9c0.5-0.2,0.9-0.4,1.4-0.6l-0.7,1.1l0.8-0.5l-1,1.4l1.3-0.2l-0.2-1.3l1.1-0.7l0.9,0.9l-1.3,0.4v0.9
			l2.7-1.6l-0.4,0.7l1.5-0.4c-2.2,1.4-4.7,2.1-7.3,2.2l0.5,0.7c-0.7-0.2-1.2-0.1-1.6,0.4c1-0.6,2-0.6,2.9,0l0.4-0.4l0.5,0.2l0.4-0.6
			l0.4,0.4l2.5-0.9l-0.2-0.6c0.5,0.3,1,0.3,1.4-0.2l-0.9,0.9l1.3-0.2v-0.9l1.3-0.2l-0.6,1.1l1.6-1.1l-0.4,0.7l1.3-0.5l-1.6,0.7v0.7
			l0.4,0.2l-1.6,0.9l1.3-0.9c-1.5-0.2-2.4,0.4-2.7,1.7c0.8,0.1,1.6,0,2.4-0.4l-1.1-0.2c1-0.3,1.9-0.3,2.9,0
			c-0.8,0.3-1.6,0.7-2.4,1.1l0.4,0.4c1.5-0.6,2.4-0.9,3.8-1.6l-0.9,0.9l2-0.7c-0.8,0.5-1.7,1-2.6,1.3c1.3,0.4,2.5,0.2,3.5-0.7
			c-0.3,0.3-0.4,0.6-0.4,0.9c0.7-0.9,1.7-1.2,2.9-1.1c-0.5,0.7-1,1.3-1.6,1.8c1.3,0.3,2.3,0,3.3-0.7c-0.2,0.2-0.2,0.4-0.2,0.6
			c0.5-0.2,1.1-0.3,1.6-0.4l-0.7-0.6c1.9,0.7,3.7,1.5,5.5,2.4v-0.9l1.1,0.2V30c0.4-0.6,0.9-1,1.5-1.3c-0.3,0.7-0.5,1.4-0.6,2.1
			l2.2,0.9l1.3-1.1l-1.1-0.7c0.4-0.1,0.8-0.2,1.1-0.4l-2-1.8l4,1.6l-0.5-1.6l1.1,0.9l2-2l0.4,0.7l-2.2,1.6l0.4,1.1
			c0.9-1,1.8-1.2,2.7-0.5l1.8-2.4l0.4,0.9l-1.8,1.6l3.8-1.8l-1.3-1.1h2.5v-0.6c-1,0.6-2,0.6-2.9,0l2.9-0.5h-2.5
			c0.4-0.1,0.7-0.3,1.1-0.4c0.5,0.3,1.1,0.4,1.7,0.2v-0.2l-2.2-0.2l0.3,0.2l-1-0.4h3.8l-2-1.1h2V23l1.3,1.1c0.5-0.6,1-0.9,1.7-0.9
			c-0.1-0.1-0.2-0.2-0.4-0.3v-0.1l0.9-0.2l-0.9-1.1l1.1,0.2L190,21l0.9,0.4l1.1-1.3l-0.4-0.4l-1.8,0.4l0.4-1.8
			c1.7,0.1,3.1-0.5,4.3-1.8c-1.8-0.8-3.5-0.9-5.3-0.3l-0.4-0.4l2.5-0.2h-2.2l3.8-0.4L190,15l1.1-0.5c-1-0.2-1.9-0.3-2.9-0.2l0.7,0.2
			c-3.5,0.9-7.2,0.9-10.9,0l0.4-0.6c-1.6-0.2-3.4-0.5-5.1-0.9l1.3-0.4l-1.1,0.2V12l-0.4,0.5l0.6-0.9l-2.2,0.4l1.1,0.7
			c-0.9-0.5-1.9-0.5-2.8,0l0.9-0.4l-1.6,0.4l0.7-0.7c-0.6,0.3-1.2,0.4-1.8,0.4l0.9-0.2l-2.4-0.2c1.7,0.3,3.2,0,4.6-0.9
			c-1.9,0-3.7,0.3-5.5,0.8l-0.2-0.9l-1.3,0.4v-0.2l1.1-0.2l-1.6-0.2h0.2l0.2-0.4l-1.5,0.2l3.8-0.9l-1.7,0.3l1.3-0.2l-0.2-0.4
			c-1,0.7-2.1,1.1-3.3,1.3l3.3-1.6l-2.9,0.9l2.7-0.9L163,9.5l1.3-0.7c-1.2,0.3-2.4,0.7-3.6,1.3l2.7-1.6l-2.2,0.7l1.3-0.7
			c-1.3,0.2-2.3,0.4-3.5,0.9l2.2-0.9l-0.9,0.2l-0.4-0.4c-1,1.1-2.4,1.4-4,1.1l2-0.4l-1.1,0.2l1.5-0.9c-0.5,0.1-0.9,0.3-1.3,0.5
			c0.1-0.1,0.3-0.3,0.4-0.4l-1.5,0.4l0.7-0.4L155,8.8C155.5,8.7,155.9,8.6,156.4,8.5z"/>
		
			<path id="path10121" opacity="0.5" fill="#FFFFFF" stroke="#000000" stroke-width="0.25" stroke-linecap="round" stroke-linejoin="round" enable-background="new    " d="
			M157.2,8.8c0.3-0.1,0.7-0.2,1-0.4L157.2,8.8L157.2,8.8z"/>
		
			<path id="path10119" opacity="0.5" fill="#FFFFFF" stroke="#000000" stroke-width="0.25" stroke-linecap="round" stroke-linejoin="round" enable-background="new    " d="
			M158,9.2c0.8,0.3,1.4,0,1.8-0.7C159.1,8.3,158.5,8.5,158,9.2L158,9.2z"/>
		
			<path id="path10117" opacity="0.5" fill="#FFFFFF" stroke="#000000" stroke-width="0.25" stroke-linecap="round" stroke-linejoin="round" enable-background="new    " d="
			M163.4,8.9l0.3-0.2L163.4,8.9L163.4,8.9L163.4,8.9z"/>
		
			<path id="path10115" opacity="0.5" fill="#FFFFFF" stroke="#000000" stroke-width="0.25" stroke-linecap="round" stroke-linejoin="round" enable-background="new    " d="
			M164,10.9L164,10.9h0.2H164L164,10.9z"/>
		
			<path id="path10113" opacity="0.5" fill="#FFFFFF" stroke="#000000" stroke-width="0.25" stroke-linecap="round" stroke-linejoin="round" enable-background="new    " d="
			M164.2,10.8c1,0,1.8-0.3,2.4-1L164.2,10.8L164.2,10.8z"/>
		
			<path id="path10109" opacity="0.5" fill="#FFFFFF" stroke="#000000" stroke-width="0.25" stroke-linecap="round" stroke-linejoin="round" enable-background="new    " d="
			M226.5,8.9l-0.2,0.4h1.6l-0.2,0.4c-0.9-0.1-1.8-0.2-2.7-0.1l0,0l-0.3-0.4c-0.2,0.1-0.4,0.2-0.6,0.4l2.7,1.6L225,13
			c0.5,0.8,1.3,1.1,2.3,1.1l2-1.6l-0.2,1.8l0.9,0.2v-0.7c0.9,0.3,1.4,0.4,2.3,0.6h-1.5c0.9,0.8,2,1.1,3.3,0.9l-1.5,0.7
			c2.4,0.7,4.7,0.9,7.1,0.5l-1.1-0.4h1.1l-3.1-1.1l3.8,0.9l0.2-0.5c-1.9-0.6-3.7-1.4-5.3-2.5c2,1.4,4.2,2,6.4,2l0.2-0.7l-2.2-1.3
			l0.7-0.4C235.4,11.2,231.3,10.2,226.5,8.9L226.5,8.9z"/>
		
			<path id="path10101" opacity="0.5" fill="#FFFFFF" stroke="#000000" stroke-width="0.25" stroke-linecap="round" stroke-linejoin="round" enable-background="new    " d="
			M199.1,9.6l-3.3,0.2c1.5,0.8,3.2,1.1,4.9,0.9l-0.6-0.9C199.8,9.8,199.4,9.7,199.1,9.6L199.1,9.6z"/>
		
			<path id="path10097" opacity="0.5" fill="#FFFFFF" stroke="#000000" stroke-width="0.25" stroke-linecap="round" stroke-linejoin="round" enable-background="new    " d="
			M215.8,10l-2,0.2l0.7,0.4c-1.7-0.7-3.4-0.5-4.9,0.7l4.7,0.6L215.8,10L215.8,10z"/>
		
			<path id="path10095" opacity="0.5" fill="#FFFFFF" stroke="#000000" stroke-width="0.25" stroke-linecap="round" stroke-linejoin="round" enable-background="new    " d="
			M218,10l-1.3,0.9l1.6,0.7l-2.2,0.4c1.2,0.2,2.4,0.5,3.5,0.9l0.2-0.7l0.9,0.4c-0.4-0.5-0.8-0.7-1.3-0.7c0.3-0.1,0.5-0.3,0.8-0.4
			l1.5,0.9l1-0.4c-0.7-1.2-1.7-1.8-3-1.9l-0.2,0.2L218,10L218,10z"/>
		
			<path id="path10093" opacity="0.5" fill="#FFFFFF" stroke="#000000" stroke-width="0.25" stroke-linecap="round" stroke-linejoin="round" enable-background="new    " d="
			M168.6,10.3l-1.8,0.9c1.4,0.2,2.8,0.1,4.1-0.4c-0.6-0.6-1.5-0.6-2.4,0L168.6,10.3L168.6,10.3z"/>
		
			<path id="path10087" opacity="0.5" fill="#FFFFFF" stroke="#000000" stroke-width="0.25" stroke-linecap="round" stroke-linejoin="round" enable-background="new    " d="
			M201.3,11.6c-0.8,0-1.5,0.2-2.2,0.4h0.9c-0.2,0.2-0.4,0.4-0.6,0.6c2.6-0.1,5.3,0.2,7.9,0.7l0.2-0.4c0.3,0.8,0.9,1.2,1.8,1.3
			l-2-0.2l1.8,0.4l-0.4,0.2l2.2-0.2h-0.4l0.2-1.8c-2.4-0.8-4.8-1.1-7.5-1.1l-0.2,0.4L201.3,11.6L201.3,11.6z"/>
		
			<path id="path10085" opacity="0.5" fill="#FFFFFF" stroke="#000000" stroke-width="0.25" stroke-linecap="round" stroke-linejoin="round" enable-background="new    " d="
			M210.9,14.5l-0.4,0.7l2.4,0.4l-0.4-1.1L210.9,14.5L210.9,14.5z"/>
		
			<path id="path10083" opacity="0.5" fill="#FFFFFF" stroke="#000000" stroke-width="0.25" stroke-linecap="round" stroke-linejoin="round" enable-background="new    " d="
			M212,12.5l0.2,1.3l2.4-0.4L212,12.5L212,12.5z"/>
		
			<path id="path10079" opacity="0.5" fill="#FFFFFF" stroke="#000000" stroke-width="0.25" stroke-linecap="round" stroke-linejoin="round" enable-background="new    " d="
			M224.5,12.9l-1.3,0.4c0.8,0.7,1.6,0.9,2.5,0.5C225.5,13.1,225.1,12.8,224.5,12.9L224.5,12.9z"/>
		
			<path id="path10075" opacity="0.5" fill="#FFFFFF" stroke="#000000" stroke-width="0.25" stroke-linecap="round" stroke-linejoin="round" enable-background="new    " d="
			M199.7,13.6l-1.3,0.2l-0.2,0.9c0.9-0.1,1.9,0,2.8,0.2l0.2,0.7c-0.8-0.2-1.6-0.4-2.4-0.6l-0.5,0.9l-1.7,0.1l0.9,0.2l-1.3,0.2
			l1.1,0.2l-1.3,0.2l3.1,0.4H196l2.4,0.4l-2.9,0.4l0.6,0.4c-1-0.4-1.8-0.3-2.3,0.5l1.3,0.2h-1.3l0.5,0.4l-0.7-0.2l-2,2l2.7-0.9
			l-1.6,0.9h1.6c-1.5-0.2-2.7,0.4-3.3,1.5c1.1,0.9,2.3,0.9,3.5,0l-0.7,0.7c2.5,0.2,4.6-0.1,6.8-0.9l-0.9-1.1c1,1,2.1,1.2,3.1,0.5
			l-1.1-0.7c1.2,1,2.4,1,3.7,0l-1.1-0.2l0.4-0.2h-1.6l1.5-0.7l-2.9,0.2l2.7-0.2l-0.9-0.7l-2.9,0.7c0.9,0.1,1.7-0.2,2.3-0.8
			c-0.7,0.3-1.5,0.4-2.3,0.4l0.9-0.4c-1.2,0.1-2.3,0.5-3.2,1.3l0.9-0.9h-1.3c1.2-0.3,2.5-0.5,3.8-0.6l-1.3-1.3
			c0.9,0.9,2,1.3,3.3,1.3l-1.5-2h-1.6l1.3-0.2l-0.7-0.4c1,0.7,2,0.9,3.1,0.5l-1.5,0.7c0.4,0.5,0.9,0.6,1.6,0.4l-0.2,1.3l0.4-0.4
			l2,2.2l1.5-0.7l-0.7-0.7h1.8l-0.9-0.7l1.1,0.4l0.2-0.4l-1.1-0.2l0.9-0.7l-3.1-0.4h2.7l-1.3-0.9h0.9c-0.5-0.7-1.2-0.9-2.2-0.6
			l0.2,0.7l-0.7-0.7l-0.9,1.1l-0.2-0.6l-0.4,0.2l0.6-0.9l-1.3,0.2v-0.2l-0.9,0.7l0.5-1.6l-2,0.7c1.4-1.2,2.9-1.2,4.5,0l-0.9-1.1
			l2.7-0.4l-0.7-0.4l-0.4,0.4l-0.4-0.4l-0.2,0.2l-0.4-0.2l-0.2,0.2c-1.1-0.2-1.6-0.2-2.7-0.4v0.4l-0.9-0.4l0.4,0.7
			C201.5,13.8,200.7,13.5,199.7,13.6L199.7,13.6z"/>
		
			<path id="path10073" opacity="0.5" fill="#FFFFFF" stroke="#000000" stroke-width="0.25" stroke-linecap="round" stroke-linejoin="round" enable-background="new    " d="
			M215.8,13.6l-1.1,0.2l-0.2,1.8c0.7-0.2,1.3-0.1,2,0.2v-0.9l0.9,0.9v-0.9l1.8,0.2c-1.1,0.3-2,0.1-2.6-0.6h1.3l-0.2-0.7L215.8,13.6
			L215.8,13.6z"/>
		
			<path id="path10071" opacity="0.5" fill="#FFFFFF" stroke="#000000" stroke-width="0.25" stroke-linecap="round" stroke-linejoin="round" enable-background="new    " d="
			M222.5,15.2l-1.8,0.7c0.7,0.3,1.4,0.4,2.2,0.4l-0.9,1.3h1.5l0.4-1.3c1.6,0.1,2.4,0.9,2.5,2.5l1.1,0.2l-0.7-0.4l2,0.2l-1.3-0.4
			l2.5,0.4l-1.8-0.6l2.7,0.4c-0.7-1.1-1.7-1.4-3.1-0.9l0.9-0.4l-2.7-0.4l3.5,0.4C227.4,16.4,224.9,15.7,222.5,15.2L222.5,15.2z"/>
		
			<path id="path10069" opacity="0.5" fill="#FFFFFF" stroke="#000000" stroke-width="0.25" stroke-linecap="round" stroke-linejoin="round" enable-background="new    " d="
			M207.7,15.4l-0.5,0.2l0.9,0.2L207.7,15.4L207.7,15.4z"/>
		
			<path id="path10067" opacity="0.5" fill="#FFFFFF" stroke="#000000" stroke-width="0.25" stroke-linecap="round" stroke-linejoin="round" enable-background="new    " d="
			M210,15.8v0.4l1.8,0.2L210,15.8L210,15.8z"/>
		
			<path id="path10065" opacity="0.5" fill="#FFFFFF" stroke="#000000" stroke-width="0.25" stroke-linecap="round" stroke-linejoin="round" enable-background="new    " d="
			M232.5,16.5l0.4,1.1l1.8,0.5c0.2,1.4,1.3,2.2,3.1,2.2c1.4-1.9,3.5-2.2,6.4-0.7l-0.7-0.4l0.4-1.3C240.2,17.1,236.4,16.6,232.5,16.5
			L232.5,16.5z"/>
		
			<path id="path10063" opacity="0.5" fill="#FFFFFF" stroke="#000000" stroke-width="0.25" stroke-linecap="round" stroke-linejoin="round" enable-background="new    " d="
			M211.4,16.7l-1.3,0.4l1.8,1.1l0.7-1.1L211.4,16.7L211.4,16.7z"/>
		
			<path id="path10059" opacity="0.5" fill="#FFFFFF" stroke="#000000" stroke-width="0.25" stroke-linecap="round" stroke-linejoin="round" enable-background="new    " d="
			M213.4,17.2v1.3l2.4,1.3l0.4-0.6l-0.9-0.5l1.3-0.2C215.4,18.3,214.4,17.9,213.4,17.2L213.4,17.2z"/>
		
			<path id="path10053" opacity="0.5" fill="#FFFFFF" stroke="#000000" stroke-width="0.25" stroke-linecap="round" stroke-linejoin="round" enable-background="new    " d="
			M222.3,18.7l-1.6,0.5c1,0.8,1.9,0.9,2.7,0.2L222.3,18.7L222.3,18.7z"/>
		
			<path id="path10051" opacity="0.5" fill="#FFFFFF" stroke="#000000" stroke-width="0.25" stroke-linecap="round" stroke-linejoin="round" enable-background="new    " d="
			M230.3,18.9l-1.1,0.2l2.2,0.2L230.3,18.9L230.3,18.9z"/>
		
			<path id="path10049" opacity="0.5" fill="#FFFFFF" stroke="#000000" stroke-width="0.25" stroke-linecap="round" stroke-linejoin="round" enable-background="new    " d="
			M228.3,19.2l-3.1,0.4c2.1,1.5,4.8,1.8,7.5,1.1l-1.8-0.4v-0.7l-3.1,0.2C228,19.6,228.1,19.4,228.3,19.2z"/>
		
			<path id="path10045" opacity="0.5" fill="#FFFFFF" stroke="#000000" stroke-width="0.25" stroke-linecap="round" stroke-linejoin="round" enable-background="new    " d="
			M219.4,19.6c0.6,0.8,1.5,0.9,2.6,0.4L219.4,19.6L219.4,19.6z"/>
		
			<path id="path10039" opacity="0.5" fill="#FFFFFF" stroke="#000000" stroke-width="0.25" stroke-linecap="round" stroke-linejoin="round" enable-background="new    " d="
			M286.9,20.1l1.3,0.7C287.8,20.5,287.4,20.3,286.9,20.1L286.9,20.1z"/>
		
			<path id="path10037" opacity="0.5" fill="#FFFFFF" stroke="#000000" stroke-width="0.25" stroke-linecap="round" stroke-linejoin="round" enable-background="new    " d="
			M288.7,20.9c0.4,0.3,0.8,0.5,1.2,0.6C289.6,21.2,289.1,21,288.7,20.9L288.7,20.9z"/>
		
			<path id="path10035" opacity="0.5" fill="#FFFFFF" stroke="#000000" stroke-width="0.25" stroke-linecap="round" stroke-linejoin="round" enable-background="new    " d="
			M289.9,21.5c0.2,0.2,0.4,0.3,0.7,0.3C290.4,21.7,290.1,21.6,289.9,21.5L289.9,21.5z"/>
		
			<path id="path10033" opacity="0.5" fill="#FFFFFF" stroke="#000000" stroke-width="0.25" stroke-linecap="round" stroke-linejoin="round" enable-background="new    " d="
			M285.8,21.4c0.5,0.2,0.9,0.4,1.3,0.7L285.8,21.4L285.8,21.4z"/>
		
			<path id="path10031" opacity="0.5" fill="#FFFFFF" stroke="#000000" stroke-width="0.25" stroke-linecap="round" stroke-linejoin="round" enable-background="new    " d="
			M291.1,22.1c0.3,0.3,0.6,0.5,1.1,0.6C291.9,22.4,291.6,22.2,291.1,22.1z"/>
		
			<path id="path10029" opacity="0.5" fill="#FFFFFF" stroke="#000000" stroke-width="0.25" stroke-linecap="round" stroke-linejoin="round" enable-background="new    " d="
			M292.4,22.9c0.4,0.2,0.8,0.4,1.2,0.5C293.3,23.1,292.9,22.9,292.4,22.9L292.4,22.9z"/>
		
			<path id="path10027" opacity="0.5" fill="#FFFFFF" stroke="#000000" stroke-width="0.25" stroke-linecap="round" stroke-linejoin="round" enable-background="new    " d="
			M293.7,23.5c0.3,0.3,0.8,0.4,1.2,0.5C294.5,23.8,294.1,23.6,293.7,23.5L293.7,23.5z"/>
		
			<path id="path10025" opacity="0.5" fill="#FFFFFF" stroke="#000000" stroke-width="0.25" stroke-linecap="round" stroke-linejoin="round" enable-background="new    " d="
			M152.9,23.8l-2,1.3l2-0.7V23.8z"/>
		
			<path id="path10023" opacity="0.5" fill="#FFFFFF" stroke="#000000" stroke-width="0.25" stroke-linecap="round" stroke-linejoin="round" enable-background="new    " d="
			M131.6,24.1l-0.7,0.4C131.2,24.5,131.4,24.4,131.6,24.1z"/>
		
			<path id="path10021" opacity="0.5" fill="#FFFFFF" stroke="#000000" stroke-width="0.25" stroke-linecap="round" stroke-linejoin="round" enable-background="new    " d="
			M131.1,24.5l-2,1.6v-0.7l-1.1,0.7l1.5-1.6l-3.5,2l-0.4-0.9c-2.4,1.3-4,3.2-4.6,5.7l1.3,0.6l0.6-0.4l-0.4,0.7l4-1.8l0.4,0.4
			l-0.2-0.6l1.8-0.7l-1.1-0.2l1.3-1.1l-1.8,0.2l2.2-0.7l-0.9-0.2c0.6-0.2,1.1-0.5,1.6-0.8l-2-0.2c1.9-0.1,3.6-0.6,5.1-1.7l-2.2,0.6
			l1.8-0.6l-1.6,0.2l1.1-0.7L131.1,24.5L131.1,24.5z"/>
		
			<path id="path10019" opacity="0.5" fill="#FFFFFF" stroke="#000000" stroke-width="0.25" stroke-linecap="round" stroke-linejoin="round" enable-background="new    " d="
			M151.1,24.3c-1.2,0.1-2.3,0.4-3.3,1.1l2.6-0.4l-1,0.7c0.9,0.1,1.5-0.3,1.8-1.1l-0.6,0.4L151.1,24.3L151.1,24.3z"/>
		
			<path id="path10017" opacity="0.5" fill="#FFFFFF" stroke="#000000" stroke-width="0.25" stroke-linecap="round" stroke-linejoin="round" enable-background="new    " d="
			M295.3,24.3c0.2,0.2,0.4,0.3,0.6,0.4C295.7,24.5,295.5,24.4,295.3,24.3L295.3,24.3z"/>
		
			<path id="path10013" opacity="0.5" fill="#FFFFFF" stroke="#000000" stroke-width="0.25" stroke-linecap="round" stroke-linejoin="round" enable-background="new    " d="
			M296.7,25.2l0.9,0.4C297.4,25.3,297.1,25.2,296.7,25.2L296.7,25.2z"/>
		
			<path id="path10011" opacity="0.5" fill="#FFFFFF" stroke="#000000" stroke-width="0.25" stroke-linecap="round" stroke-linejoin="round" enable-background="new    " d="
			M297.3,25.4c0.1,0.2,0.3,0.3,0.5,0.3L297.3,25.4L297.3,25.4z"/>
		
			<path id="path10009" opacity="0.5" fill="#FFFFFF" stroke="#000000" stroke-width="0.25" stroke-linecap="round" stroke-linejoin="round" enable-background="new    " d="
			M297.9,25.7l0.5,0.3C298.3,25.8,298.1,25.7,297.9,25.7L297.9,25.7z"/>
		
			<path id="path10007" opacity="0.5" fill="#FFFFFF" stroke="#000000" stroke-width="0.25" stroke-linecap="round" stroke-linejoin="round" enable-background="new    " d="
			M298.4,26c0.3,0.3,0.6,0.5,1,0.6L298.4,26L298.4,26z"/>
		
			<path id="path10005" opacity="0.5" fill="#FFFFFF" stroke="#000000" stroke-width="0.25" stroke-linecap="round" stroke-linejoin="round" enable-background="new    " d="
			M299.5,26.7l1.2,0.7C300.4,27,300,26.8,299.5,26.7L299.5,26.7z"/>
		
			<path id="path10003" opacity="0.5" fill="#FFFFFF" stroke="#000000" stroke-width="0.25" stroke-linecap="round" stroke-linejoin="round" enable-background="new    " d="
			M297.7,25.7l-0.2-0.1l0.4,0.2L297.7,25.7L297.7,25.7z"/>
		
			<path id="path10001" opacity="0.5" fill="#FFFFFF" stroke="#000000" stroke-width="0.25" stroke-linecap="round" stroke-linejoin="round" enable-background="new    " d="
			M153.8,25.8l-1.1,0.9l1.1-0.4V25.8z"/>
		
			<path id="path9999" opacity="0.5" fill="#FFFFFF" stroke="#000000" stroke-width="0.25" stroke-linecap="round" stroke-linejoin="round" enable-background="new    " d="
			M300.7,27.4c0.4,0.4,0.9,0.7,1.5,0.9L300.7,27.4L300.7,27.4z"/>
		
			<path id="path9997" opacity="0.5" fill="#FFFFFF" stroke="#000000" stroke-width="0.25" stroke-linecap="round" stroke-linejoin="round" enable-background="new    " d="
			M302.2,28.3c0.3,0.3,0.7,0.5,1.1,0.6C303,28.6,302.6,28.4,302.2,28.3L302.2,28.3z"/>
		
			<path id="path9995" opacity="0.5" fill="#FFFFFF" stroke="#000000" stroke-width="0.25" stroke-linecap="round" stroke-linejoin="round" enable-background="new    " d="
			M154.4,27.6l-0.7,0.5l1.5-0.2L154.4,27.6L154.4,27.6z"/>
		
			<path id="path9989" opacity="0.5" fill="#FFFFFF" stroke="#000000" stroke-width="0.25" stroke-linecap="round" stroke-linejoin="round" enable-background="new    " d="
			M304.2,29.4c0.2,0.2,0.4,0.3,0.7,0.4L304.2,29.4L304.2,29.4z"/>
		
			<path id="path9987" opacity="0.5" fill="#FFFFFF" stroke="#000000" stroke-width="0.25" stroke-linecap="round" stroke-linejoin="round" enable-background="new    " d="
			M304.9,29.8l0.7,0.5C305.4,30.1,305.2,29.9,304.9,29.8L304.9,29.8z"/>
		
			<path id="path9985" opacity="0.5" fill="#FFFFFF" stroke="#000000" stroke-width="0.25" stroke-linecap="round" stroke-linejoin="round" enable-background="new    " d="
			M305.5,30.3l-0.6-0.3c0.3,0.3,0.6,0.5,1,0.6L305.5,30.3L305.5,30.3z"/>
		
			<path id="path9983" opacity="0.5" fill="#FFFFFF" stroke="#000000" stroke-width="0.25" stroke-linecap="round" stroke-linejoin="round" enable-background="new    " d="
			M305.9,30.6c0.2,0.2,0.4,0.3,0.7,0.4L305.9,30.6L305.9,30.6z"/>
		
			<path id="path9981" opacity="0.5" fill="#FFFFFF" stroke="#000000" stroke-width="0.25" stroke-linecap="round" stroke-linejoin="round" enable-background="new    " d="
			M306.6,31C307,31.3,307,31.3,306.6,31L306.6,31z"/>
		
			<path id="path9979" opacity="0.5" fill="#FFFFFF" stroke="#000000" stroke-width="0.25" stroke-linecap="round" stroke-linejoin="round" enable-background="new    " d="
			M306.9,31.2c0.3,0.4,0.6,0.6,1.1,0.6L306.9,31.2L306.9,31.2z"/>
		
			<path id="path9977" opacity="0.5" fill="#FFFFFF" stroke="#000000" stroke-width="0.25" stroke-linecap="round" stroke-linejoin="round" enable-background="new    " d="
			M304.9,30c-0.1-0.1-0.3-0.3-0.4-0.4C304.6,29.7,304.8,29.9,304.9,30z"/>
		
			<path id="path9975" opacity="0.5" fill="#FFFFFF" stroke="#000000" stroke-width="0.25" stroke-linecap="round" stroke-linejoin="round" enable-background="new    " d="
			M163.5,39.2l-4.6,1.8l2.4,0.5l-1.3,0.2l0.9,0.4l-0.9,0.5l-1.6-1.3l-1.1,0.4l0.9,1.1l-1.1-0.7l-0.4,0.7v-0.9c-1.1,0.5-2,1.2-2.9,2
			c2.8-1.4,5.3-1.4,7.7-0.1c0.8-0.7,1.7-1.4,2.7-2h-1.1l2.5-0.9l-4,0.9l2.9-1.3h-1.8c0.5-0.8,1.2-0.9,2-0.5L163.5,39.2L163.5,39.2z"
			/>
		
			<path id="path9973" opacity="0.5" fill="#FFFFFF" stroke="#000000" stroke-width="0.25" stroke-linecap="round" stroke-linejoin="round" enable-background="new    " d="
			M165.8,41.4l-1.3,0.6c0.3,0.2,0.5,0.5,0.6,0.9l-1.3-0.2l-0.4,1.6l3.1,0.2l0.9-1.1l-1.1-0.2l1.3-0.4l-1.8,0.2
			c0.5-0.4,1-0.8,1.5-1.3l-1.3,0.2L165.8,41.4L165.8,41.4z"/>
		
			<path id="path9971" opacity="0.5" fill="#FFFFFF" stroke="#000000" stroke-width="0.25" stroke-linecap="round" stroke-linejoin="round" enable-background="new    " d="
			M299.5,42.1c0.3,0.7,0.8,1.1,1.6,1.1L299.5,42.1L299.5,42.1z"/>
		
			<path id="path9969" opacity="0.5" fill="#FFFFFF" stroke="#000000" stroke-width="0.25" stroke-linecap="round" stroke-linejoin="round" enable-background="new    " d="
			M301.3,42.7v0.9l1.1,0.6H302l1.5,0.5l-0.4,0.6L304,46l0.7-0.4l-0.7-0.7l1.1,0.7l-2.2-2l-0.4,0.2v-0.7L301.3,42.7L301.3,42.7z"/>
		
			<path id="path9967" opacity="0.5" fill="#FFFFFF" stroke="#000000" stroke-width="0.25" stroke-linecap="round" stroke-linejoin="round" enable-background="new    " d="
			M98.3,43.4l-0.7,0.2L98,44l1.5-0.4L98.3,43.4L98.3,43.4z"/>
		
			<path id="path9965" opacity="0.5" fill="#FFFFFF" stroke="#000000" stroke-width="0.25" stroke-linecap="round" stroke-linejoin="round" enable-background="new    " d="
			M160.4,43.6l-0.9,0.4h1.6L160.4,43.6L160.4,43.6z"/>
		
			<path id="path9963" opacity="0.5" fill="#FFFFFF" stroke="#000000" stroke-width="0.25" stroke-linecap="round" stroke-linejoin="round" enable-background="new    " d="
			M90.1,44.1l-1.6,1.1L87.9,45l-1.3,1.8l-1-0.5l-0.7,1.3V46l-0.6,1l-0.2-0.5l-0.6,0.9l-0.2-0.2l-0.2,0.7h-0.4
			c-0.2,1-0.3,1.9-0.2,2.9l4.9-2.2l0.7,0.4l2.4-1.6v-1.1l0.4,0.2l0.7-0.6l-0.9,0.2l0.9-0.7L90.7,45L90,45.9h-0.9L90.1,44.1
			L90.1,44.1z"/>
		
			<path id="path9961" opacity="0.5" fill="#FFFFFF" stroke="#000000" stroke-width="0.25" stroke-linecap="round" stroke-linejoin="round" enable-background="new    " d="
			M97.2,44.1l-2,1.3C96,45.3,96.7,44.8,97.2,44.1z"/>
		
			<path id="path9959" opacity="0.5" fill="#FFFFFF" stroke="#000000" stroke-width="0.25" stroke-linecap="round" stroke-linejoin="round" enable-background="new    " d="
			M159.3,44.3l-2.2,0.7l0.9,0.4l-1.3,0.5c1.3,0.5,2.4,0.2,3.4-0.9L159.3,44.3L159.3,44.3z"/>
		
			<path id="path9957" opacity="0.5" fill="#FFFFFF" stroke="#000000" stroke-width="0.25" stroke-linecap="round" stroke-linejoin="round" enable-background="new    " d="
			M97.4,44.7L95.2,46l-0.6-0.7c-0.6,1.8-2,2.6-4.3,2.2c0.7-0.3,1.4-0.3,2,0l-1.1,0.7l0.4-0.4c-1.3,0.5-2.5,1-3.8,1.6l0.6-0.2L88,51
			c-1-0.2-1.8,0.1-2.4,1.1l0.2,0.2c-1.2-0.2-2,0.3-2.4,1.3l0.4-1.6l-0.9-0.2v0.7l-1.1,0.6l-1.1-0.6l-2.2,2.9l0.5,0.7l-1.4,0.2
			l0.7-1.6l-2-0.2L75.4,57l1.1-0.7c-1.3,1.8-1.6,3.6-0.7,5.3l0.7-0.2l0.4-1.6l0.2,0.7c2.2,0,3.6-1,3.7-3.1c1.2-0.3,2.1-0.9,2.6-2
			l-0.2,0.7c3-1.8,6-4.5,8.2-7.3l-0.2,1.1l0.7-0.9l0.2,0.7l2.7-0.4l0.9-2.7l2.7,0.2l0.7-2l-2.2,0.9L97.4,44.7L97.4,44.7z"/>
		
			<path id="path9953" opacity="0.5" fill="#FFFFFF" stroke="#000000" stroke-width="0.25" stroke-linecap="round" stroke-linejoin="round" enable-background="new    " d="
			M93.2,45.9v0.6l0.9-0.6H93.2L93.2,45.9z"/>
		
			<path id="path9949" opacity="0.5" fill="#FFFFFF" stroke="#000000" stroke-width="0.25" stroke-linecap="round" stroke-linejoin="round" enable-background="new    " d="
			M176,50.1l-3.6,0.4C173.7,51.1,174.9,50.9,176,50.1z"/>
		
			<path id="path10249" opacity="0.5" fill="#FFFFFF" stroke="#000000" stroke-width="0.25" stroke-linecap="round" stroke-linejoin="round" enable-background="new    " d="
			M44.1,155.2l-2.9-2.7c0.7-2.6-0.5-4.1-3.6-4.2c-1.8-6.1-2.5-11.7-2.2-17.8l-2.2-0.7l-2.5,3.3l-1.6-0.2c-0.2-11.8,3.5-22.3,11.1-30
			l-0.7-0.2l1.3-2.4c-1.4-1.4-1.6-2.9-0.4-4.7l-0.7-0.9c1.2-2,1.5-4.2,1.1-6.5L40.1,88l0.2-1.3l-0.7-0.2c1.3-2.7,2.8-5.4,4.3-7.9
			L41.2,81l-0.5-0.9c-1.4,1.3-3.2,3.2-4.1,4.6l0.6-0.9c-0.4,0.5-0.8,1-1.1,1.5l0.2-0.4c-1.6,2.3-3.2,4.5-4.7,6.9l0.2-0.4
			c-4.3,6.8-8.3,13.8-11.7,21.1l0.2-0.7l-0.9,1.8h0.2c-0.7,1.2-1.3,2.5-1.7,3.8v-0.2c-6.5,14.6-11.1,29.1-14.2,44.2l0.2-0.4v0.1l0,0
			c-0.7,2.5-1.3,5.2-1.6,7.9v-0.2c-0.6,5-1.2,9.9-1.7,14.9l0.2-1.1l-0.2,1.7v-0.2c-1,12.8-0.8,25.7,0.7,38.4L1.1,222
			c0.7,5.1,1.5,10.2,2.2,15.2l0,0c0.2,0.9,0.3,1.9,0.5,2.8l0,0c0,0.4,0.1,0.9,0.3,1.2c0.1,0.4,0.2,0.9,0.3,1.3
			c0,0.3,0.1,0.6,0.2,0.9l0,0c0.2,0.9,0.4,1.8,0.6,2.7l0,0c0.3,1.5,0.8,3.6,1.3,5.3l0,0c0.4,1.9,1,3.9,1.7,5.6l0,0
			c0,0.5,0.1,0.9,0.4,1.3c1.1,4.1,2.5,8.2,4,12.3l0,0c0.2,0.4,0.4,1,0.6,1.4c0.5,1.5,1.1,2.9,1.7,4.3c0.1,0.6,0.3,1.1,0.6,1.6
			c0,0.4,0.2,0.8,0.4,1.1c0.5,1.5,1.1,2.9,1.8,4.3l0,0l0.4,0.9l0,0c1.6,3.3,3.2,6.7,4.8,9.9l0.4,0.9l0,0c2.7,5.4,5.8,10.7,9.3,15.7
			l-0.4-0.7l1.6,0.9c-2.3-3.8-4.4-7.7-6.4-11.7l0.4,0.9h1.1l-0.2-1.6c1.7,0.7,3.3,1.6,4.9,2.5c0.6-2.7-0.1-5.2-2-7.6l0.4-0.2
			c-1.9-5-3.3-9.7-4.6-14.8L27,278c-1.6-4.1-1.6-8.3,0.1-12.5l1.3,0.2l-0.4-1.3l1.1,0.9c9.8-3.7,17.4-10.7,21.9-20.5l1.1,0.2
			l-0.9-0.4l1.3-4c-4.7-1.7-10-3.9-14.8-6.1c0.4-3.5-0.7-5.7-3.3-6.7h2c-0.7-5.5-2.1-11.2-3.8-16.5l-0.7,0.9
			c-0.2-7.8,0.3-15.1,1.8-22.6l0.2,0.7c-0.1-4,0.2-7.8,0.7-11.6l0.4,0.7c0.8-7.7,2.3-15.7,4.4-23.1c-1,3-1.4,6.1-1.1,9.3l3.6-4"/>
		
			<path id="path9945" opacity="0.5" fill="#FFFFFF" stroke="#000000" stroke-width="0.25" stroke-linecap="round" stroke-linejoin="round" enable-background="new    " d="
			M34.1,312c0.1,0.2,0.2,0.4,0.4,0.6L34.1,312L34.1,312z"/>
		
			<path id="path9943" opacity="0.5" fill="#FFFFFF" stroke="#000000" stroke-width="0.25" stroke-linecap="round" stroke-linejoin="round" enable-background="new    " d="
			M34.5,312.7c0.6,1,1.2,1.9,1.9,2.8l-2-3.1L34.5,312.7L34.5,312.7L34.5,312.7z"/>
		
			<path id="path9941" opacity="0.5" fill="#FFFFFF" stroke="#000000" stroke-width="0.25" stroke-linecap="round" stroke-linejoin="round" enable-background="new    " d="
			M36.5,315.5c0.1,0.5,0.4,1,0.8,1.3L36.5,315.5L36.5,315.5z"/>
		
			<path id="path9939" opacity="0.5" fill="#FFFFFF" stroke="#000000" stroke-width="0.25" stroke-linecap="round" stroke-linejoin="round" enable-background="new    " d="
			M130.2,52.3l0.4-0.7l-1.8,0.2C129.3,52,129.7,52.1,130.2,52.3z"/>
		
			<path id="path9937" opacity="0.5" fill="#FFFFFF" stroke="#000000" stroke-width="0.25" stroke-linecap="round" stroke-linejoin="round" enable-background="new    " d="
			M127.3,50.5l-0.2,0.7l1.3-0.4L127.3,50.5L127.3,50.5z"/>
		
			<path id="path9935" opacity="0.5" fill="#FFFFFF" stroke="#000000" stroke-width="0.25" stroke-linecap="round" stroke-linejoin="round" enable-background="new    " d="
			M128.2,51.2l-2,0.4C126.9,52,127.6,51.8,128.2,51.2z"/>
		
			<path id="path9933" opacity="0.5" fill="#FFFFFF" stroke="#000000" stroke-width="0.25" stroke-linecap="round" stroke-linejoin="round" enable-background="new    " d="
			M179.1,52.3l-0.9,0.9c0.7,0,1.3-0.1,2-0.4C179.8,52.6,179.5,52.5,179.1,52.3L179.1,52.3z"/>
		
			<path id="path9931" opacity="0.5" fill="#FFFFFF" stroke="#000000" stroke-width="0.25" stroke-linecap="round" stroke-linejoin="round" enable-background="new    " d="
			M177.1,52.5l-0.4,0.9l1.1-0.2L177.1,52.5L177.1,52.5z"/>
		
			<path id="path9927" opacity="0.5" fill="#FFFFFF" stroke="#000000" stroke-width="0.25" stroke-linecap="round" stroke-linejoin="round" enable-background="new    " d="
			M298.2,53.8l0.9,1.6l1.1-0.6C299.8,53.9,299.2,53.6,298.2,53.8L298.2,53.8z"/>
		
			<path id="path9919" opacity="0.5" fill="#FFFFFF" stroke="#000000" stroke-width="0.25" stroke-linecap="round" stroke-linejoin="round" enable-background="new    " d="
			M314.6,58.5l-0.9,0.2l1.6,2C315,60,314.8,59.3,314.6,58.5L314.6,58.5z"/>
		
			<path id="path9903" opacity="0.5" fill="#FFFFFF" stroke="#000000" stroke-width="0.25" stroke-linecap="round" stroke-linejoin="round" enable-background="new    " d="
			M170,62.1c-1.9,0.3-3.8,0.5-5.7,0.6l-0.4,1.6l-2.5,0.2l0.4,0.9l-0.6-0.9l-1.8,0.4l1.1,1.1h-1.8l1.6,1.1l0.9-1.1l0.6,0.7l-0.2-0.9
			l0.7,0.6l0.6-1.1l0.2,0.7l1.1-1.1l0.4,0.7c3.2-1.6,6.4-2,10.2-1.3l1.3-1.8C174,63.3,171.9,63.1,170,62.1L170,62.1z"/>
		
			<path id="path9899" opacity="0.5" fill="#FFFFFF" stroke="#000000" stroke-width="0.25" stroke-linecap="round" stroke-linejoin="round" enable-background="new    " d="
			M317.1,63.2l0.2,0.9l0.9,0.2L317.1,63.2L317.1,63.2z"/>
		
			<path id="path9897" opacity="0.5" fill="#FFFFFF" stroke="#000000" stroke-width="0.25" stroke-linecap="round" stroke-linejoin="round" enable-background="new    " d="
			M318.2,64.3l0.9,1.8C319.1,65.3,318.8,64.7,318.2,64.3L318.2,64.3z"/>
		
			<path id="path9893" opacity="0.5" fill="#FFFFFF" stroke="#000000" stroke-width="0.25" stroke-linecap="round" stroke-linejoin="round" enable-background="new    " d="
			M86.7,65l-1.3,0.7v0.9l1.5-0.9L86.7,65L86.7,65z"/>
		
			<path id="path9891" opacity="0.5" fill="#FFFFFF" stroke="#000000" stroke-width="0.25" stroke-linecap="round" stroke-linejoin="round" enable-background="new    " d="
			M87.2,65.6L83.8,69c1.7-0.7,3.1-1.3,4.6-2.4l-1.3,0.7l0.9-0.9L87.2,65.6L87.2,65.6z"/>
		
			<path id="path9889" opacity="0.5" fill="#FFFFFF" stroke="#000000" stroke-width="0.25" stroke-linecap="round" stroke-linejoin="round" enable-background="new    " d="
			M157.5,66.1l-0.4,0.7l-1.3-0.2l0.9,0.9c-2.2-0.5-3.6,0.1-4.3,1.8l1.3,0.4l-1.6,2l3.1,1.8c-0.2-3.4,1.3-5.5,4.5-6.1
			C159.2,66.6,158.5,66.2,157.5,66.1L157.5,66.1z"/>
		
			<path id="path9869" opacity="0.5" fill="#FFFFFF" stroke="#000000" stroke-width="0.25" stroke-linecap="round" stroke-linejoin="round" enable-background="new    " d="
			M93.6,70.5L92,71.6l2.9-0.9L93.6,70.5L93.6,70.5z"/>
		
			<path id="path9867" opacity="0.5" fill="#FFFFFF" stroke="#000000" stroke-width="0.25" stroke-linecap="round" stroke-linejoin="round" enable-background="new    " d="
			M83.4,70.8v0.7l0.6-0.7H83.4L83.4,70.8z"/>
		
			<path id="path9861" opacity="0.5" fill="#FFFFFF" stroke="#000000" stroke-width="0.25" stroke-linecap="round" stroke-linejoin="round" enable-background="new    " d="
			M98.9,72.1L98.5,73l0.5,0.4C99.4,72.9,99.3,72.4,98.9,72.1L98.9,72.1z"/>
		
			<path id="path9859" opacity="0.5" fill="#FFFFFF" stroke="#000000" stroke-width="0.25" stroke-linecap="round" stroke-linejoin="round" enable-background="new    " d="
			M145.6,72.1l-1.8,0.2l-0.4,1.3l2-0.2L145.6,72.1L145.6,72.1z"/>
		
			<path id="path9855" opacity="0.5" fill="#FFFFFF" stroke="#000000" stroke-width="0.25" stroke-linecap="round" stroke-linejoin="round" enable-background="new    " d="
			M97.6,72.7L96,73.8l2,0.4L97.6,72.7L97.6,72.7z"/>
		
			<path id="path9849" opacity="0.5" fill="#FFFFFF" stroke="#000000" stroke-width="0.25" stroke-linecap="round" stroke-linejoin="round" enable-background="new    " d="
			M155.6,74.5l-0.9,1.1l0.4,1.3l0.9-0.5C156,75.7,155.9,75.1,155.6,74.5L155.6,74.5z"/>
		
			<path id="path9833" opacity="0.5" fill="#FFFFFF" stroke="#000000" stroke-width="0.25" stroke-linecap="round" stroke-linejoin="round" enable-background="new    " d="
			M47.2,83.9l-0.9,1.6H47l0.7-0.9L47.2,83.9L47.2,83.9z"/>
		
			<path id="path9819" opacity="0.5" fill="#FFFFFF" stroke="#000000" stroke-width="0.25" stroke-linecap="round" stroke-linejoin="round" enable-background="new    " d="
			M52.1,87.4l-2,2.7c1.5-0.3,2.7-1.1,3.5-2.6L52.1,87.4L52.1,87.4z"/>
		
			<path id="path9813" opacity="0.5" fill="#FFFFFF" stroke="#000000" stroke-width="0.25" stroke-linecap="round" stroke-linejoin="round" enable-background="new    " d="
			M48.7,90.1l-4.2,4.4l0.6,1.3c1.8-1.4,3.3-3,4.5-4.8L48.7,90.1L48.7,90.1z"/>
		
			<path id="path9797" opacity="0.5" fill="#FFFFFF" stroke="#000000" stroke-width="0.25" stroke-linecap="round" stroke-linejoin="round" enable-background="new    " d="
			M42.5,103.2c-1.8,1.8-2.6,4.1-2.4,6.9l3.5-2.7L42.5,103.2L42.5,103.2z"/>
		
			<path id="path9783" opacity="0.5" fill="#FFFFFF" stroke="#000000" stroke-width="0.25" stroke-linecap="round" stroke-linejoin="round" enable-background="new    " d="
			M45.9,114.6l-0.7,0.4v0.9L45.9,114.6L45.9,114.6z"/>
		
			<path id="path9773" opacity="0.5" fill="#FFFFFF" stroke="#000000" stroke-width="0.25" stroke-linecap="round" stroke-linejoin="round" enable-background="new    " d="
			M51,120.8c-0.3,0.6-0.3,1.2,0,1.8l0.7-1.3L51,120.8L51,120.8z"/>
		
			<path id="path9767" opacity="0.5" fill="#FFFFFF" stroke="#000000" stroke-width="0.25" stroke-linecap="round" stroke-linejoin="round" enable-background="new    " d="
			M41.9,126.5c-1.2,1.8-0.9,3.9,0.6,5.8l0.7-0.7l-0.7-0.2L41.9,126.5L41.9,126.5z"/>
		
			<path id="path9755" opacity="0.5" fill="#FFFFFF" stroke="#000000" stroke-width="0.25" stroke-linecap="round" stroke-linejoin="round" enable-background="new    " d="
			M46.1,131.7l-0.2,0.7l1.1-0.7H46.1z"/>
		
			<path id="path9667" opacity="0.5" fill="#FFFFFF" stroke="#000000" stroke-width="0.25" stroke-linecap="round" stroke-linejoin="round" enable-background="new    " d="
			M33.2,210.4c-0.4,0.7-0.2,1.3,0.5,1.8C33.7,211.6,33.5,211,33.2,210.4L33.2,210.4z"/>
		
			<path id="path9665" opacity="0.5" fill="#FFFFFF" stroke="#000000" stroke-width="0.25" stroke-linecap="round" stroke-linejoin="round" enable-background="new    " d="
			M15,210.6c0.2,0.1,0.3,0.3,0.3,0.6C15.2,211,15.1,210.8,15,210.6L15,210.6z"/>
		
			<path id="path9643" opacity="0.5" fill="#FFFFFF" stroke="#000000" stroke-width="0.25" stroke-linecap="round" stroke-linejoin="round" enable-background="new    " d="
			M20.6,218.4c0.3,0.3,0.5,0.6,0.7,0.9C21,219,20.8,218.7,20.6,218.4L20.6,218.4z"/>
		
			<path id="path9639" opacity="0.5" fill="#FFFFFF" stroke="#000000" stroke-width="0.25" stroke-linecap="round" stroke-linejoin="round" enable-background="new    " d="
			M21.9,219.9c0.2,0.2,0.4,0.4,0.4,0.7C22.1,220.4,21.9,220.2,21.9,219.9L21.9,219.9z"/>
		
			<path id="path9633" opacity="0.5" fill="#FFFFFF" stroke="#000000" stroke-width="0.25" stroke-linecap="round" stroke-linejoin="round" enable-background="new    " d="
			M29.2,228.2c0.4,0.1,0.7,0.3,0.9,0.6C29.8,228.6,29.5,228.4,29.2,228.2L29.2,228.2z"/>
		
			<path id="path9629" opacity="0.5" fill="#FFFFFF" stroke="#000000" stroke-width="0.25" stroke-linecap="round" stroke-linejoin="round" enable-background="new    " d="
			M31,229.7c0.2,0.2,0.4,0.4,0.4,0.7L31,229.7L31,229.7z"/>
		
			<path id="path9617" opacity="0.5" fill="#FFFFFF" stroke="#000000" stroke-width="0.25" stroke-linecap="round" stroke-linejoin="round" enable-background="new    " d="
			M337.1,240.6l-0.7,0.9l0.4,0.4L337.1,240.6L337.1,240.6z"/>
		
			<path id="path9585" opacity="0.5" fill="#FFFFFF" stroke="#000000" stroke-width="0.25" stroke-linecap="round" stroke-linejoin="round" enable-background="new    " d="
			M26.3,272.4c-0.1,0.9,0.1,1.7,0.7,2.5C26.8,274,26.6,273.2,26.3,272.4L26.3,272.4z"/>
		
			<path id="path9569" opacity="0.5" fill="#FFFFFF" stroke="#000000" stroke-width="0.25" stroke-linecap="round" stroke-linejoin="round" enable-background="new    " d="
			M371.9,279.8c-0.3,1.1,0,1.7,0.8,2L371.9,279.8L371.9,279.8z"/>
		
			<path id="path9567" opacity="0.5" fill="#FFFFFF" stroke="#000000" stroke-width="0.25" stroke-linecap="round" stroke-linejoin="round" enable-background="new    " d="
			M354.6,280l3.1,0.7l0.9,2.5l0.4-2.2L354.6,280L354.6,280z"/>
		
			<path id="path9565" opacity="0.5" fill="#FFFFFF" stroke="#000000" stroke-width="0.25" stroke-linecap="round" stroke-linejoin="round" enable-background="new    " d="
			M368.6,281.1c0.6,0.8,1.3,1,2.2,0.5L368.6,281.1L368.6,281.1z"/>
		
			<path id="path9561" opacity="0.5" fill="#FFFFFF" stroke="#000000" stroke-width="0.25" stroke-linecap="round" stroke-linejoin="round" enable-background="new    " d="
			M362.2,281.5c-0.1,1.2,0.4,2.1,1.3,2.7l0.7-0.9L362.2,281.5L362.2,281.5z"/>
		
			<path id="path9559" opacity="0.5" fill="#FFFFFF" stroke="#000000" stroke-width="0.25" stroke-linecap="round" stroke-linejoin="round" enable-background="new    " d="
			M365.3,282l0.9,0.9l0.9-0.7L365.3,282L365.3,282z"/>
		
			<path id="path9557" opacity="0.5" fill="#FFFFFF" stroke="#000000" stroke-width="0.25" stroke-linecap="round" stroke-linejoin="round" enable-background="new    " d="
			M357.3,282.2l-1.6,1.3c0.3,2.4-1.1,4.5-3.4,5.7l0.2-1.6c-0.5,2.2-1.9,3.6-4.3,4.3c5-1,8.3-4.5,9.3-9.6L357.3,282.2L357.3,282.2z"
			/>
		
			<path id="path9555" opacity="0.5" fill="#FFFFFF" stroke="#000000" stroke-width="0.25" stroke-linecap="round" stroke-linejoin="round" enable-background="new    " d="
			M371.7,283.3c-1-0.1-1.7,0.3-1.9,1.3C370.5,284.2,371.1,283.8,371.7,283.3z"/>
		
			<path id="path9553" opacity="0.5" fill="#FFFFFF" stroke="#000000" stroke-width="0.25" stroke-linecap="round" stroke-linejoin="round" enable-background="new    " d="
			M373.7,283.3l-1.3,0.2l0.9,0.2C373.4,283.6,373.6,283.4,373.7,283.3z"/>
		
			<path id="path9551" opacity="0.5" fill="#FFFFFF" stroke="#000000" stroke-width="0.25" stroke-linecap="round" stroke-linejoin="round" enable-background="new    " d="
			M346.8,283.5l-2.2,1.8C345.6,285,346.3,284.4,346.8,283.5z"/>
		
			<path id="path9549" opacity="0.5" fill="#FFFFFF" stroke="#000000" stroke-width="0.25" stroke-linecap="round" stroke-linejoin="round" enable-background="new    " d="
			M366.6,284.2l-0.5,1.1h0.9L366.6,284.2L366.6,284.2z"/>
		
			<path id="path9547" opacity="0.5" fill="#FFFFFF" stroke="#000000" stroke-width="0.25" stroke-linecap="round" stroke-linejoin="round" enable-background="new    " d="
			M377.2,285.8c-0.1,0.7-0.3,1.5-0.6,2.2l0.9-1.1L377.2,285.8L377.2,285.8z"/>
		
			<path id="path9543" opacity="0.5" fill="#FFFFFF" stroke="#000000" stroke-width="0.25" stroke-linecap="round" stroke-linejoin="round" enable-background="new    " d="
			M377.2,287.8c-0.4,0.4-0.5,0.9-0.4,1.4L377.2,287.8L377.2,287.8z"/>
		<path id="path9537" fill="#FEC010" stroke="#000000" stroke-linecap="round" stroke-linejoin="round" d="M324.9,310
			c-2.3,0.3-3.8,1.7-4.5,4C322.5,313.4,324.1,312,324.9,310L324.9,310z"/>
		
			<path id="path9531" opacity="0.5" fill="#FFFFFF" stroke="#000000" stroke-width="0.25" stroke-linecap="round" stroke-linejoin="round" enable-background="new    " d="
			M36.1,294.4c-0.1,0.7,0.1,1.2,0.7,1.6L36.1,294.4L36.1,294.4z"/>
		<path id="path9527" fill="#FEC010" stroke="#000000" stroke-linecap="round" stroke-linejoin="round" d="M315.5,295.5
			c1,0.8,1.9,0.9,2.9,0.3L315.5,295.5L315.5,295.5z"/>
		<path id="path9525" fill="#FEC010" stroke="#000000" stroke-linecap="round" stroke-linejoin="round" d="M319.7,297.1l-4.2,1.1
			C317,298.5,318.4,298.1,319.7,297.1z"/>
		
			<path id="path9523" opacity="0.5" fill="#FFFFFF" stroke="#000000" stroke-width="0.25" stroke-linecap="round" stroke-linejoin="round" enable-background="new    " d="
			M38.1,297.8l0.9,1.1C38.9,298.3,38.6,298,38.1,297.8L38.1,297.8z"/>
		<path id="path9519" fill="#FEC010" stroke="#000000" stroke-linecap="round" stroke-linejoin="round" d="M303.8,298.7l-3.3,1.3
			C301.9,300.2,303,299.7,303.8,298.7z"/>
		
			<path id="path9511" opacity="0.5" fill="#FFFFFF" stroke="#000000" stroke-width="0.25" stroke-linecap="round" stroke-linejoin="round" enable-background="new    " d="
			M368.6,303.8l-0.2,1.3l1.6-1.1L368.6,303.8L368.6,303.8z"/>
		<path id="path9509" fill="#FEC010" stroke="#000000" stroke-linecap="round" stroke-linejoin="round" d="M300.9,304l-2,1.1
			l1.8-0.2L300.9,304L300.9,304z"/>
		
			<path id="path9507" opacity="0.5" fill="#FFFFFF" stroke="#000000" stroke-width="0.25" stroke-linecap="round" stroke-linejoin="round" enable-background="new    " d="
			M48.3,305.1l-0.9,0.4l0.9,2.5l-0.9,0.4l-0.9-1.3l0.7,2l-0.7-0.4v1.6l-0.2-1.1c-0.6,0.6-0.6,1.2,0,1.8c-0.5-0.1-0.7-0.5-0.6-1.1H45
			l0.4,1.1c-0.9-1.4-2.2-2.3-4-2.7c1.4,9.4,6.2,18.1,13.6,24c-0.8-4.7-1.7-9.4-2.8-14l0.6-0.2l-1.5-3.3h0.4l1.1,1.8
			c-0.8-3.7-2.7-8.3-4.7-11.5H48.3z"/>
		<path id="path9493" fill="#FEC010" stroke="#000000" stroke-linecap="round" stroke-linejoin="round" d="M312.9,309.8l-1.3,1.1
			c0.4,1.1,0.4,2.2-0.2,3.4C313.1,313.1,313.6,311.6,312.9,309.8L312.9,309.8z"/>
		
			<path id="path9483" opacity="0.5" fill="#FFFFFF" stroke="#000000" stroke-width="0.25" stroke-linecap="round" stroke-linejoin="round" enable-background="new    " d="
			M332.6,313.8c-1.1,2-2.2,3.8-3.4,5.8l0.9-0.4c-1.6,11.3-7.5,16.6-18.4,13.7c2.2-1.3,2.9-2.9,2.3-4.7l1.6-0.7
			c0-1.2,0.6-2.1,1.7-2.7l-0.9-0.7l-1.8,2l0.2-1.1l-1.1,0.9l0.7-0.9c-1.8,1.3-2.8,1.8-4.9,2.5l-0.4-0.9c-1.9,0.6-4.2,1.1-6,1.4
			l2.7-0.2l-0.2,1.3l-3.8,1.6l-0.4-0.4l-1.6,1.3l0.4,0.6l-1.1-0.4l0.4,0.7l-1.1,0.2c-0.8,1.9-1.8,3.4-3.5,4.9l1.5,0.4l-1.3,1.3
			l-0.6-0.5l-0.7,1.1v-0.6c-1.2-0.4-2,0-2.6,1.1l0.2,0.9l-0.6-0.6l0.6-1.2c-1.1-1-2.3-1.3-3.7-1.1l-1,1.6l-0.2-0.6l-0.9,0.9
			l-0.7-0.4l-0.4,1.8l-0.9-0.9l-1.5,1.8l0.9,0.7l-2,0.4l1.1,0.7l-1.8-0.2l-1.1,1.1l0.4,0.7l0.9-0.7l-1.3,1.6l1.8-0.4
			c-1.4,1-2.9,1.2-4.5,0.7l-0.2,1.1h1.3l-0.2,0.9l-1.1-0.2l-0.2,1.3l-1.5-2.2l-2.7,2.5l0.5,1.8c-8.6,4.9-17.8,9.6-26.7,13.6
			l-0.9-1.1l-2.7,5.1l1.8,2.9l-0.9-0.4l-0.4,0.4l-0.4-1.1l0.4,1.8l-1.8-0.4c3.3,1.4,4.6,3.5,3.8,6.2l1.8,1.6
			c-0.4,1.8-1.5,2.7-3.3,2.7v1.1c17.4-3.9,34.9-9.3,51.8-15.9l-0.9,0.9l1.3-0.2l0.2,1.3l-0.9,0.2l1.6-0.2c2.2-1.8,4.8-3.8,7.1-5.6
			c-1.4,2-3.2,3.8-5.3,5.1c1.7-0.6,3.1-1.6,4.2-2.9l0.2,0.4l-2.2,1.8c0.8-0.9,1.8-1.2,2.9-1.1v0.2c-0.7-0.1-1.2,0.3-1.5,1.3
			c3.5-0.8,7.2-2.5,10.3-4.7l-0.6,0.4c2.1-1.1,4.1-2.4,6-3.8l-1.3,0.6c12-7.3,22.3-18.5,27.6-30.4l-1.9-0.2l1.1-2.2l-0.4,0.7
			l-0.7-0.2l-0.4,1.1l-0.2-0.2l-0.7,0.7l0.4-4l-4.4,0.5l0.9-4l-0.9-0.4l0.9-3.3l-1.5-0.9l-2,1.6
			C334.6,318.7,334.2,316.2,332.6,313.8L332.6,313.8z"/>
		
			<path id="path9457" opacity="0.5" fill="#FFFFFF" stroke="#000000" stroke-width="0.25" stroke-linecap="round" stroke-linejoin="round" enable-background="new    " d="
			M316,328.2c-0.8,0.4-1.3,1.1-1.3,2l1.6-0.7L316,328.2L316,328.2z"/>
		
			<path id="path9455" opacity="0.5" fill="#FFFFFF" stroke="#000000" stroke-width="0.25" stroke-linecap="round" stroke-linejoin="round" enable-background="new    " d="
			M302.2,328.7l-1.6,0.2l-0.4,0.7l-1.3-0.4l1.5,1.3C301,329.9,301.6,329.3,302.2,328.7z"/>
		
			<path id="path9453" opacity="0.5" fill="#FFFFFF" stroke="#000000" stroke-width="0.25" stroke-linecap="round" stroke-linejoin="round" enable-background="new    " d="
			M298.9,329.6l-1.1,1.3l1.8-0.7L298.9,329.6L298.9,329.6z"/>
		
			<path id="path9447" opacity="0.5" fill="#FFFFFF" stroke="#000000" stroke-width="0.25" stroke-linecap="round" stroke-linejoin="round" enable-background="new    " d="
			M345.3,331.1c-0.6,0.7-1.1,1.4-1.5,2.2L345.3,331.1L345.3,331.1z"/>
		
			<path id="path9437" opacity="0.5" fill="#FFFFFF" stroke="#000000" stroke-width="0.25" stroke-linecap="round" stroke-linejoin="round" enable-background="new    " d="
			M68.5,335.1l1.6,1.3C69.9,335.5,69.4,335.1,68.5,335.1L68.5,335.1z"/>
		
			<path id="path9435" opacity="0.5" fill="#FFFFFF" stroke="#000000" stroke-width="0.25" stroke-linecap="round" stroke-linejoin="round" enable-background="new    " d="
			M72.9,335.8l0.2,0.9h0.7L72.9,335.8L72.9,335.8z"/>
		
			<path id="path9433" opacity="0.5" fill="#FFFFFF" stroke="#000000" stroke-width="0.25" stroke-linecap="round" stroke-linejoin="round" enable-background="new    " d="
			M321.1,337.6c0,1.2-0.3,2.2-1.1,2.9C320.3,339.5,320.6,338.5,321.1,337.6L321.1,337.6z"/>
		
			<path id="path9431" opacity="0.5" fill="#FFFFFF" stroke="#000000" stroke-width="0.25" stroke-linecap="round" stroke-linejoin="round" enable-background="new    " d="
			M293.1,342l-1.3,1.8v-1.1C292.2,342.5,292.7,342.2,293.1,342z"/>
		
			<path id="path9429" opacity="0.5" fill="#FFFFFF" stroke="#000000" stroke-width="0.25" stroke-linecap="round" stroke-linejoin="round" enable-background="new    " d="
			M318.5,344.3c-0.3,0.7-0.6,1.5-0.9,2.2C317.8,345.7,318.1,345,318.5,344.3L318.5,344.3z"/>
		
			<path id="path9427" opacity="0.5" fill="#FFFFFF" stroke="#000000" stroke-width="0.25" stroke-linecap="round" stroke-linejoin="round" enable-background="new    " d="
			M316.8,348.1c0,0.4-0.2,0.7-0.5,1C316.5,348.8,316.6,348.4,316.8,348.1L316.8,348.1z"/>
		
			<path id="path9425" opacity="0.5" fill="#FFFFFF" stroke="#000000" stroke-width="0.25" stroke-linecap="round" stroke-linejoin="round" enable-background="new    " d="
			M315.6,350.3c0,0.4-0.2,0.7-0.5,1C315.3,351,315.4,350.6,315.6,350.3L315.6,350.3z"/>
		
			<path id="path9423" opacity="0.5" fill="#FFFFFF" stroke="#000000" stroke-width="0.25" stroke-linecap="round" stroke-linejoin="round" enable-background="new    " d="
			M314.5,352.5c0,0.3-0.1,0.5-0.3,0.6C314.3,352.9,314.4,352.7,314.5,352.5L314.5,352.5z"/>
		
			<path id="path9421" opacity="0.5" fill="#FFFFFF" stroke="#000000" stroke-width="0.25" stroke-linecap="round" stroke-linejoin="round" enable-background="new    " d="
			M313.8,353.8c-0.1,0.3-0.3,0.6-0.5,0.8C313.4,354.3,313.6,354,313.8,353.8L313.8,353.8z"/>
		
			<path id="path9419" opacity="0.5" fill="#FFFFFF" stroke="#000000" stroke-width="0.25" stroke-linecap="round" stroke-linejoin="round" enable-background="new    " d="
			M312.9,355.4c-0.1,0.2-0.2,0.3-0.3,0.4L312.9,355.4L312.9,355.4z"/>
		
			<path id="path9417" opacity="0.5" fill="#FFFFFF" stroke="#000000" stroke-width="0.25" stroke-linecap="round" stroke-linejoin="round" enable-background="new    " d="
			M312.2,356.4c-0.1,0.3-0.2,0.6-0.4,0.8C311.9,356.9,312,356.6,312.2,356.4L312.2,356.4z"/>
		
			<path id="path9415" opacity="0.5" fill="#FFFFFF" stroke="#000000" stroke-width="0.25" stroke-linecap="round" stroke-linejoin="round" enable-background="new    " d="
			M311.5,357.6c-0.1,0.2-0.2,0.4-0.4,0.6C311.1,357.9,311.2,357.7,311.5,357.6z"/>
		
			<path id="path9413" opacity="0.5" fill="#FFFFFF" stroke="#000000" stroke-width="0.25" stroke-linecap="round" stroke-linejoin="round" enable-background="new    " d="
			M311.3,364.9c-0.3,0.3-0.7,0.6-1.1,0.7C310.6,365.4,310.9,365.1,311.3,364.9z"/>
		
			<path id="path9411" opacity="0.5" fill="#FFFFFF" stroke="#000000" stroke-width="0.25" stroke-linecap="round" stroke-linejoin="round" enable-background="new    " d="
			M310.4,366.7c-1.8,0.9-3.7,2.1-5.1,3.3c1.8-1,3.6-2.1,5.3-3.3H310.4L310.4,366.7z"/>
		
			<path id="path9409" opacity="0.5" fill="#FFFFFF" stroke="#000000" stroke-width="0.25" stroke-linecap="round" stroke-linejoin="round" enable-background="new    " d="
			M305.3,370c-0.4,0.2-0.7,0.4-1.1,0.6C304.6,370.6,305,370.4,305.3,370z"/>
		
			<path id="path9407" opacity="0.5" fill="#FFFFFF" stroke="#000000" stroke-width="0.25" stroke-linecap="round" stroke-linejoin="round" enable-background="new    " d="
			M300,369.4l-3.6,1.3C297.7,370.8,298.9,370.4,300,369.4z"/>
		
			<path opacity="0.5" fill="#FFFFFF" stroke="#000000" stroke-width="0.25" stroke-linecap="round" stroke-linejoin="round" enable-background="new    " d="
			M158.9,80l-2.7-3l-1.1,0.4l-0.7,2.2l-1.3-0.2v-0.2l-1.1,0.9l0.7-2c-1.6,0.8-3.1,0.6-4.3-0.7l-1.5,0.7c-0.4-0.3-0.9-0.6-1.3-0.9
			c0.8-1.3,1.8-1.6,3.1-1.1l-0.7-0.5l-2.9,0.9l0.7-0.9l-4.9-0.4l-0.2,0.9l-1.1-0.7l-2,1.3l-1.6-0.6l0.9-2c1.4,0.7,2.4,0.5,3.1-0.7
			l-1.1-3.1c-0.7,3.2-2.9,5.4-6.7,6.4l0.2-2.6c-3-0.5-5.3,0.6-6.8,3.1c-0.4-0.6-0.6-1.3-0.7-2H124l0.9-0.2v-1.8l-1.5,0.7l-0.3,2
			l-1.8,0.6c-0.4-3.3,1.2-5.5,4.3-6.2v-2.2l0.9,0.2l1.3-2.7l1.1,7.4c1.5-0.3,3-0.5,4.5-0.7c2.2-2.8,2.8-6.2,1.5-9.3l-1.3,0.4
			l1.7-0.7l-0.6-0.8l0.9-0.5l0.4,0.7l0.2-1.1l-1.5,0.2l0.6-1.4h-1.1c0.4-0.6,0.8-1.1,1.4-1.5l0.2,1.3h1.3l0.7-2.2H136l2-0.2l0.2-0.9
			c-1.1,0.9-2,1.1-2.9,0.4l2-0.8l-3.3,0.4l2.7-0.7v-1.1l-3.3,0.7l0.4-1.6c-0.5,0.5-1.1,0.9-1.8,1.1l0.7-0.9c-0.9,0-1.8,0-2.7,0
			c0.5-0.1,1-0.3,1.5-0.4c-0.3,0-0.7,0-1,0l1.3-0.4l-0.9-0.3l-1.1,0.9l0.4-1.3l-2.4,0.7l-0.9-0.7v1.3l-0.4-1.3l-1.8,0.9l1.5-0.9
			l-0.9-0.2l-0.4,0.6l-0.2-0.9l-0.7,1.4l-1.3-0.9l-0.5,1.1l-0.6-1.3c-0.5,0.9-1.3,1.1-2.5,0.6l0.7,0.7l-1.1-0.9l-0.7,0.7l0.2-0.5
			L116,53l0.5,0.6l-1.6-0.9l0.2,0.7l-0.9-0.2l-0.6,0.6l-0.5-0.4L114,53l-3.1-0.3v0.2l-0.7-0.6l-1.7,0.9l0.6-0.9l-1.1,0.9l0.9-1.8
			l-0.9,1.3l-0.2-1.5c-0.4,0.4-0.8,0.7-1.3,0.9l0.4-0.7l-0.7,0.4l0.7-1.3l-0.9,0.4l-0.4,1.6l0.2-1.6l-0.9,0.3l-0.4,1.1v-0.9
			l-0.2,0.7h-0.7v1.1h0.7l-0.9,0.9l1.1-0.3c-0.6,0.6-1.3,0.7-2,0.3l1.1-0.7l-0.2-1.6l-0.7,0.9v-0.6l-0.9,0.6l0.5,0.3
			c-0.7-0.1-1.3,0-1.8,0.4h0.9l-1.6,0.4l1.6,0.9c-1.4-1-2.6-1-3.6,0l0.9,0.7l-1.3-0.2l-0.2,0.9h-0.7l0.7-1.1
			c-1.4,0.7-2.5,1.8-3.4,3.1l0.5,1.1l2.9-0.2l-0.3,1.1l2.7-0.9l-4.7,2.7l0.2,0.4L93.6,63l1.3-0.3c-3,1.8-5.8,3.7-8.6,5.8l0.2,1.6
			l2.4-0.9l-0.2,1.6c2.7-0.6,5-1.8,7.1-3.6l0.2,0.4l0.3-1.1l0.9,1.1l1.1-0.4l-1.1,0.9h1.7l0.2-0.9l1.2,0.4c1.8-0.7,2.6-1.8,2.4-3.3
			l7.1-3.3l-0.7,0.9c3.2,1.1,6.3,0.7,8.9-1.4l-0.4,0.7l1.8-0.9l-0.5,0.9l1.3-0.5l0.5,1.8c-6.5,0.9-12.8,3.6-17.8,7.8l0.7,0.2
			l-1.8,0.9l5.3,3.8l-1.1,0.7l-0.2,2.4l-1.5-1.8l-1.4,0.5l-0.2-2.7l-2.4-1.3l-2.5,2l0.5,0.9c-1.4,1.5-2.9,2-4.5,1.5l1.8-2.4
			l-0.9-0.7c-2.8,0.9-5.3,2.4-7.5,4.4l-0.3-0.6l2.2-0.8l-1.7,0.6c-0.5-0.7-1.1-0.7-1.6,0v0.2l0.3,0.2c-0.5,0.1-1.1,0-1.6-0.2
			l1.3-0.2l-1.1-0.7l1.1-2L82.7,73l-1.1,0.6l2-3.3l-1.3-1.6l1.1-0.4c0.4-3.1,2.8-4.4,6-3.8c0.5-1.7,1.8-2.4,3.8-2.2L91.4,61
			l-6.9,3.3l0.2,0.2l-1.1,1.1l-0.4-0.2l-2.3,2.7l1.1-2l-1.5,0.6l1.1-1.1l-0.4-0.9l-0.9,1.2l0.6-2.3l-0.8-0.2L78.7,65L78,64.5
			l1.8-1.5c-1.7-0.3-2.8,0.3-3.3,1.7l-0.2-1.1L75.6,65l-0.7-2.7l-1.7,1.3c-0.6-0.2-1.2-0.5-1.8-0.9l2-3.1l-3.1,2.7
			c-0.2-1.3,0.3-2.2,1.5-2.7l-0.2-1.5l-0.9,1.1l0.5-0.7c-3.6,5-8.2,9.1-13.6,12.3c1.2-3.2,2.8-6.4,4.7-9.2l-0.5-1.1
			c-3.5,2.8-7.2,6.1-10.4,9.1v-0.4c-2.6,3-5,6.1-7.3,9.5l0.4,0.5l-1.3,3.5l1.1-0.4l-0.2,0.9l1.5-1.1c1.3-1,3.5-2.3,5.4-3.1l1.1,1.5
			c0.7-1.5,1.7-2.3,3.1-2.4l0.4,0.4l-1.5,4.2l2.9,1c-3.9,8.5-8.8,17.1-14,24.4v0.9l2-1.4l0.6,0.5c0.4-1.9,1.4-3.1,3.1-3.8
			c0.2,1.4,0,2.6-0.8,3.8c0.9-2.6,2.6-6,3.9-8.2c1-4.9,3.8-9.9,7.6-13.4l1.3,1.1l-2.4,2.7l1.3-0.2c-2.7,3.1-4.2,6.2-5.1,10l0.2-1.6
			c-1.9,5.6-4.3,10.2-7.7,15.2l0.4,0.4h-0.6c-1.3,1.6-1.3,3.4,0,5.3l-0.7,0.3l-0.2-3.2c-1.6,0.7-2.6,2-2.9,4l0.6,0.3l-0.8,2l0.8-0.7
			l-0.4,1.8l2-3.6l0.2,1.6l0.7-2l0.7,0.4l-0.5,1.8l1.1-1.3l-0.2,0.9c1-1.3,1.5-2.7,1.5-4.3l-0.6-0.2l-0.7,3.2l0.5-3.6l0.6,0.2
			l0.7-0.9l-0.2,1.1l2.4-4.4l0.4,0.2l-0.8,3.1l0.8-1.3v1.5l0.9-2.4c1.7,1,2.3,2.6,1.8,4.7l-1.8,0.6c1.1-0.1,2-0.2,3.1-0.4l1.4,2
			l2-5.4l-0.5-0.6c3.1-0.1,5.5-1.6,7.1-4.3l-0.4,0.9l0.9,0.5l2.2-2.5l-0.4,0.7c1.8-0.7,3.4-0.8,5.1-0.2l-0.7,1.5l-0.7-1.3l0.3,0.9
			l-0.7,0.2l1.5,2.5l-0.6,1.1l-2.2-0.5l0.8,0.7c-1.4,1-2,2.3-1.7,3.8l5.1,0.9c-2-1-2.3-2.4-1.1-4.3l2.2-0.6l-1.4,0.9
			c2.7-0.8,5.2-0.1,7.4,2.2l-2,0.7l-0.9-1.2l-0.7,2.9l0.2-1.1l-2.8,1.6l-1.4-0.7c-0.1,4.6,0.8,9,2.6,13.2c1.3,1.1,2.1,2.8,1.9,4.5
			c1.3,2,2.2,4.1,2.7,6.4l-0.4,0.3c0.5,2.3,1.5,4.4,3.1,6.1c-1.7-4.5-1-9.5,2.1-13.4l-1.3,0.7c0-3.2,1.5-5.3,4.4-6.4l2.3,1.1
			c1.6-1.9,3.7-2.3,6.2-1.2c3.5-11.6,9.3-14.6,17.6-5.3l0.2-0.2l1.3,0.4l0.7,2.9l1.5-0.7l2.2,1.4c1.7-1.4,1.6-2.9-0.1-4.5l0.5-0.3
			c-1.4-0.7-2.2-1.9-2-3.2l0.4-0.1c1-1.3,2.5-2.5,4-3.4c-1-1.5-2.9-1.8-4.8-1.3c-0.1-0.5-0.4-0.8-0.9-0.9c-0.5-1.7-0.4-3.3,0.3-4.8
			c2.5,1.2,5.1,1.2,7.3-0.5c-0.5-1.1-0.7-2.2-0.7-3.4c5.1-3.2,10.5-7.7,14.3-11.9c4.7-6.3,11.1-9.7,19.3-10.7
			C159.1,83.3,159.3,81.5,158.9,80z"/>
	</g>
	<g id="Asia_1_">
		<path id="path9951_1_" fill="#FEC010" stroke="#000000" stroke-linecap="round" stroke-linejoin="round" d="M263.6,49.6l-1.6,1.1
			c0.8,0.4,1.6,1,2.2,1.7C264,51.5,263.8,50.5,263.6,49.6L263.6,49.6z"/>
		<path id="path9925_1_" fill="#FEC010" stroke="#000000" stroke-linecap="round" stroke-linejoin="round" d="M197.5,55.4l-2.9,2.5
			c1,0.9,2.2,1,3.5,0.3l0.5-1.2L197.5,55.4L197.5,55.4z"/>
		<path id="path9923_1_" fill="#FEC010" stroke="#000000" stroke-linecap="round" stroke-linejoin="round" d="M194.4,58.3l-0.2,0.9
			c0.7,0.2,1.3,0,1.8-0.5L194.4,58.3L194.4,58.3z"/>
		<path id="path9921_1_" fill="#FEC010" stroke="#000000" stroke-linecap="round" stroke-linejoin="round" d="M198.4,58.3l-3.1,1.3
			c1.1,1.6,2.6,2.2,4.5,1.8c0.5-1.3,0.3-2.2-0.7-2.9l-0.7,0.4V58.3L198.4,58.3L198.4,58.3z"/>
		<path id="path9913_1_" fill="#FEC010" stroke="#000000" stroke-linecap="round" stroke-linejoin="round" d="M201.3,60.1l-1.3,3.6
			l3.5-1.3l-1.3-1.6l-0.7,0.9L201.3,60.1L201.3,60.1z"/>
		<path id="path9911_1_" fill="#FEC010" stroke="#000000" stroke-linecap="round" stroke-linejoin="round" d="M264.2,60.1l-0.9,0.7
			l1.5,0.2L264.2,60.1L264.2,60.1z"/>
		<path id="path9909_1_" fill="#FEC010" stroke="#000000" stroke-linecap="round" stroke-linejoin="round" d="M239.6,60.3l-3.8,0.6
			c1.1,1.1,2.4,1.4,3.8,0.9V60.3L239.6,60.3z"/>
		<path id="path9905_1_" fill="#FEC010" stroke="#000000" stroke-linecap="round" stroke-linejoin="round" d="M231.4,61.6l0.9,1.3
			c-0.9-0.2-1.8-0.4-2.7-0.6l0.2,2l2.2,1.3c1.2-0.7,2.5-1.3,3.7-2l-0.4-0.3l0.2-1.8L231.4,61.6L231.4,61.6z"/>
		<path id="path9885_1_" fill="#FEC010" stroke="#000000" stroke-linecap="round" stroke-linejoin="round" d="M236.9,66.3
			c-0.3,0.7-0.4,1.3-0.4,2l2.7-0.9l-0.2-0.7L236.9,66.3L236.9,66.3z"/>
		<path id="path9857_1_" fill="#FEC010" stroke="#000000" stroke-linecap="round" stroke-linejoin="round" d="M212.5,72.3l-1.5,0.2
			l1.1,0.6L212.5,72.3L212.5,72.3z"/>
		<path id="path9825_1_" fill="#FEC010" stroke="#000000" stroke-linecap="round" stroke-linejoin="round" d="M292.9,84.8l-0.6,1.1
			l1.1,1.3L292.9,84.8L292.9,84.8z"/>
		<path id="path9787_1_" fill="#FEC010" stroke="#000000" stroke-linecap="round" stroke-linejoin="round" d="M304.6,113.7l0.7,2.9
			C305.9,115.4,305.6,114.4,304.6,113.7L304.6,113.7z"/>
		<path id="path9781_1_" fill="#FEC010" stroke="#000000" stroke-linecap="round" stroke-linejoin="round" d="M278.7,115.9l-0.4,0.6
			l2,1.3L278.7,115.9L278.7,115.9z"/>
		<path id="path9779_1_" fill="#FEC010" stroke="#000000" stroke-linecap="round" stroke-linejoin="round" d="M280.2,117.9l-0.9,1.8
			c5.2,6.7,9.7,14.1,13.5,21.9l-0.4-2.9l1.8-0.2l1.1,1.6c-2.8-2.3-4.8-5.1-6.1-8.8l1.3-1.3l2.4,1.1
			C288,127.4,283.7,122.9,280.2,117.9L280.2,117.9z"/>
		<path id="path9775_1_" fill="#FEC010" stroke="#000000" stroke-linecap="round" stroke-linejoin="round" d="M269.6,117.4v1.6
			l1.1-0.9L269.6,117.4L269.6,117.4z"/>
		<path id="path9751_1_" fill="#FEC010" stroke="#000000" stroke-linecap="round" stroke-linejoin="round" d="M305.3,136.1
			c-1.8,1.2-2.2,2.9-1.1,5.1L305.3,136.1L305.3,136.1z"/>
		<path id="path9747_1_" fill="#FEC010" stroke="#000000" stroke-linecap="round" stroke-linejoin="round" d="M48.5,141.5l-0.2,2.7
			l2,0.4l0.2-1.1l1.5-0.2L48.5,141.5L48.5,141.5z"/>
		<path id="path9745_1_" fill="#FEC010" stroke="#000000" stroke-linecap="round" stroke-linejoin="round" d="M303.5,141.7l-0.9,0.2
			c-0.2,1.1-0.1,2.2,0.4,3.3L303.5,141.7L303.5,141.7z"/>
		<path id="path9743_1_" fill="#FEC010" stroke="#000000" stroke-linecap="round" stroke-linejoin="round" d="M293.3,143l2.7,7.3
			l-2,0.9l0.9,0.9c-0.3,0.7-0.6,1.3-0.9,2l1.6,2.4l0,0l0.4,0.6l2-2l-2.4-0.4l-0.2-1.3l1.5,0.4l0.7-1.8l4,0.5c-0.7-2.7,0.1-5,2.4-6.8
			l-0.9,0.7l-1.6-3.1l-0.2,1.8C298.5,146.6,295.8,145.9,293.3,143L293.3,143z"/>
		<path id="path9719_1_" fill="#FEC010" stroke="#000000" stroke-linecap="round" stroke-linejoin="round" d="M299.1,156.1l-1.3,0.7
			l1.5,1.6l-2.2-0.4c-0.3,1.6,0,3.2,0.7,4.7l0.4-0.5h0.2c2,4.4,1.3,9.1-1.6,13.2l-1.3-0.7l0.4-1.8l-1.1,0.9l0.7,6.2
			c-5.6,0.8-9.3,4-11.1,9.4l0.6,1.1l3.1-0.7v-2.2l0.7,0.9c1.4-2.4,3.4-4,6-4.6l0.2,3.1l2.2,0.7c0.1-1.4,0.7-2.7,1.7-3.8l-1.5-0.9
			v-1.6l0.9,0.9v-0.9l1.1,0.2l-0.6,1.1c2.2-0.2,3.3-1.4,3.4-3.5l0.9,1.6l-0.2-2.4h1.3l-0.4-2h0.9c0.2,0.8,0.3,1.6,0.2,2.4
			c0.6-1.1,0.9-2.3,1.1-3.5c-1.3-2.6-2.3-5.1-3.3-8.1l1.1-0.9C303.9,162.2,302.4,158.8,299.1,156.1L299.1,156.1z"/>
		<path id="path9703_1_" fill="#FEC010" stroke="#000000" stroke-linecap="round" stroke-linejoin="round" d="M293.5,185.9l-1.8,0.2
			l-1.3,2.2l-0.7-0.4l-1.3,3.3l0.9-0.7l1.1,2.2c0.8-1,1.3-2.2,1.6-3.5l1.8,0.4l0.7-2.5L293.5,185.9L293.5,185.9z"/>
		<path id="path9701_1_" fill="#FEC010" stroke="#000000" stroke-linecap="round" stroke-linejoin="round" d="M285.3,190.6l-3.1,2.9
			l1.5,1.3l-1.1-0.7l0.7,1.8l1.5-0.9l-1.1-1.3l0.7-0.9c1.8,1.9,2.1,4.1,0.9,6.7l1.5,0.4v-2l0.4,2.5c2-2.1,2.5-4.7,1.5-7.8
			L285.3,190.6L285.3,190.6z"/>
		<path id="path9693_1_" fill="#FEC010" stroke="#000000" stroke-linecap="round" stroke-linejoin="round" d="M73.8,199.7
			c1,0.6,2,0.6,2.9,0H73.8L73.8,199.7z"/>
		<path id="path9671_1_" fill="#FEC010" stroke="#000000" stroke-linecap="round" stroke-linejoin="round" d="M286.9,209.5l-1.3,1.3
			l0.6,0.2L286.9,209.5L286.9,209.5z"/>
		<path id="path9635_1_" fill="#FEC010" stroke="#000000" stroke-linecap="round" stroke-linejoin="round" d="M266.2,226.6
			c-4.4,4.4-4.6,8.3-0.4,11.6l2-10.9L266.2,226.6L266.2,226.6z"/>
		<path id="path9615_1_" fill="#FEC010" stroke="#000000" stroke-linecap="round" stroke-linejoin="round" d="M57.9,241.5
			c0.5,1.5,1.4,2,2.8,1.6L57.9,241.5L57.9,241.5z"/>
		<path id="path9607_1_" fill="#FEC010" stroke="#000000" stroke-linecap="round" stroke-linejoin="round" d="M271.8,249.3l-5.1,0.7
			l0.2,7.8c-0.6-0.1-1.1-0.2-1.7-0.2c-0.6,2.4,0.3,4.7,2.4,6v-1.3l1.3,0.2l-0.7,2.9l2.2,0.2l1.3-1.6l2.9,2l-0.4-2.5l2.7,2.5l2.2-0.5
			l0.2,1.3l0.2-1.8l-1.3,0.4l-0.9-1.6l1.3-0.9c-0.7-0.4-1.4-0.6-2.2-0.4l-0.4,1.3l-1.1-1.8l-1.8,0.7l0.2,1.1c-1.8-0.7-2.9-2-3.3-4
			l2.9-6C271.7,252.4,271.3,250.9,271.8,249.3L271.8,249.3z"/>
		<path id="path9605_1_" fill="#FEC010" stroke="#000000" stroke-linecap="round" stroke-linejoin="round" d="M235.4,250
			c-3.4-0.6-5.8,0.5-7.3,3.3c3,5.1,5.7,3,7.8-2.3L235.4,250L235.4,250z"/>
		<path id="path9597_1_" fill="#FEC010" stroke="#000000" stroke-linecap="round" stroke-linejoin="round" d="M282.7,265.7l-2.7,0.9
			l2.7,2v1.1h-2.2c0.1,1.9,1,3.4,2.6,4.5l-0.2-1.1l0.9-0.2l-1-2.9l2.4,0.2C285.2,268.2,284.3,266.7,282.7,265.7L282.7,265.7z"/>
		<path id="path9595_1_" fill="#FEC010" stroke="#000000" stroke-linecap="round" stroke-linejoin="round" d="M267.3,266.4
			c1.3,0.9,2.3,2,2.9,3.5l0.9-0.2l0.2-2.9L267.3,266.4L267.3,266.4z"/>
		<path id="path9593_1_" fill="#FEC010" stroke="#000000" stroke-linecap="round" stroke-linejoin="round" d="M276.7,267.3v2.2
			l1.1-1.1l1.5,0.9L276.7,267.3L276.7,267.3z"/>
		<path id="path9589_1_" fill="#FEC010" stroke="#000000" stroke-linecap="round" stroke-linejoin="round" d="M272.7,270.6l0.9,4.4
			c2.5-0.9,3.6-2.3,3.3-4.4C275.8,271.8,274.4,271.8,272.7,270.6L272.7,270.6z"/>
		<path id="path9587_1_" fill="#FEC010" stroke="#000000" stroke-linecap="round" stroke-linejoin="round" d="M279.8,270.9
			c-0.6,2.1-1.3,4.3-1.9,6.4c1.4-2,2.1-4,2-6.4H279.8z"/>
		<path id="path9583_1_" fill="#FEC010" stroke="#000000" stroke-linecap="round" stroke-linejoin="round" d="M277.1,272.4
			c0.1,1.9-0.7,3.4-2.2,4.2l2,2l0.9-0.9c-0.8-1.7-0.6-3.3,0.4-4.9L277.1,272.4L277.1,272.4z"/>
		<path id="path9579_1_" fill="#FEC010" stroke="#000000" stroke-linecap="round" stroke-linejoin="round" d="M265.1,273.8l0.2,2.2
			l-0.9-0.7c-0.5,3.5-3,7.2-6.2,9.6c2.5-3.1,5-5.7,8-8.4L265.1,273.8L265.1,273.8z"/>
		<path id="path9577_1_" fill="#FEC010" stroke="#000000" stroke-linecap="round" stroke-linejoin="round" d="M284.4,274.2l0.4,2.7
			l-2.2,0.7v1.6h-1.3l-2,2.5l0.4-1.6l-1.6-0.6c-2.7,1.3-4.2,3.4-4.5,6.2l0.9,0.5l1.3-3.1l2.7,0.7l0.7-1.6l2,0.9l-0.4,3.3l2.9,0.7
			l0.9-0.9l0.4,1.6l0.9-1.6l-1.1-2l0.9-2l1.8,2.7c-0.6-1.5-0.3-2.7,1.1-3.6l-0.9-3.5h-1l0.2-2.2L284.4,274.2L284.4,274.2z"/>
		<path id="path9575_1_" fill="#FEC010" stroke="#000000" stroke-linecap="round" stroke-linejoin="round" d="M280.2,274.4
			c-0.4,0.4-0.7,0.9-0.8,1.4l0.7,0.4l1.8-0.9l-0.2-0.9H280.2L280.2,274.4z"/>
		<path id="path9573_1_" fill="#FEC010" stroke="#000000" stroke-linecap="round" stroke-linejoin="round" d="M175.7,274.6l-0.9,0.9
			l0.7,0.9L175.7,274.6L175.7,274.6z"/>
		<path id="path9571_1_" fill="#FEC010" stroke="#000000" stroke-linecap="round" stroke-linejoin="round" d="M132,278.6
			c0.6,0.3,1.1,0.6,1.5,1.1l-1.1-0.4c-0.3,1.6-0.6,3.3-0.9,4.9l-0.4-0.9c0.2,2.4,0.7,4.8,1.5,7.1l3.5,0.2l1.8-2.2
			c-0.6-3.7-2.2-7-4.8-9.8L132,278.6L132,278.6z"/>
		<path id="path9545_1_" fill="#FEC010" stroke="#000000" stroke-linecap="round" stroke-linejoin="round" d="M274.2,286.6l-0.2,0.9
			l1.3-0.9H274.2L274.2,286.6z"/>
		<path id="path9541_1_" fill="#FEC010" stroke="#000000" stroke-linecap="round" stroke-linejoin="round" d="M256.9,289.1
			c-0.3,3.3-1.8,5.2-4.5,5.8l0.9,0.4c-4.5,3.7-8.8,6.6-14.1,9.6l-0.9,4c-2.2,0.5-3.9,0-5.1-1.5c-2.4,1.2-3.3,3-2.7,5.4l1.3,0.6
			l-0.4,1.6l1.5,0.4h-1.1l1.3,0.9l-0.9,0.9l2-0.7l0.9,4.9l4.9-0.9l0.7,2c1.7-1.9,3.7-2.6,6-2v0.9l2.9-0.7l0.2,2.2
			c2-1,3.9-2.3,5.7-3.8l-0.7-0.7l0.7,0.2l1.1-2.2l-1.5-0.9l2-2.4l0.7,0.4l2.2-1.8l-0.4-2.4l2-2.2l-0.6-0.9c1.3,1.1,2.6,0.9,3.8-0.4
			c-2.2-0.1-3.6-1-4.3-2.7l1.1-0.4l-3.5-3.3l2.4-0.5l-1.3-1.3l4-1.3l-1.6-1.3l3.8-2.2c-1.6-1.1-3.1-1.1-4.4,0l0.2-1.3l-1.6,0.9
			l0.4-1.8l-2-1.3l-0.9,1.6L256.9,289.1L256.9,289.1z"/>
		<path id="path9535_1_" fill="#FEC010" stroke="#000000" stroke-linecap="round" stroke-linejoin="round" d="M178,292.9l0.4,1.3
			l0.5-0.7L178,292.9L178,292.9z"/>
		<path id="path9533_1_" fill="#FEC010" stroke="#000000" stroke-linecap="round" stroke-linejoin="round" d="M295.3,293.3l-0.9,2.2
			l0.9-0.6V293.3z"/>
		<path id="path9529_1_" fill="#FEC010" stroke="#000000" stroke-linecap="round" stroke-linejoin="round" d="M293.5,295.1
			c-2.6,3.7-2.2,6.7,1.5,8.6c-1.3-0.8-1.9-2-1.7-3.5l3.1-0.2l-2.2-0.9c1.5-0.5,2-1.5,1.6-2.9l-3.3,2.9l1.3-1.3L293.5,295.1
			L293.5,295.1z"/>
		<path id="path9521_1_" fill="#FEC010" stroke="#000000" stroke-linecap="round" stroke-linejoin="round" d="M183.1,298
			c9.6,12,20.1,22.7,32.6,33l-0.2-1.1l2.2,0.7l0.4-0.9l1.3,1.1c2.4-3.7,2.3-6.9-0.2-9.5l-2.7-0.2L216,322l0.5-1.3l-1.3-0.2l-0.2-2.7
			l-4-0.9l1.8-2.7l-1.5-0.9l-0.7,0.4l-0.5-0.7l0.3,0.1c-0.6-0.6-1.2-1-2-1.3l-0.2,0.9l-4.9-4.2l-0.2,1.6c-2.6-3.2-5.9-5.5-9.8-6.9
			l0.4-1.1C191.1,299,187.5,297.6,183.1,298L183.1,298z"/>
		<path id="path9517_1_" fill="#FEC010" stroke="#000000" stroke-linecap="round" stroke-linejoin="round" d="M284.9,299.1
			c-3.7,3.7-8.4,5.2-13.8,4.5l-0.9,1.8l-1.1-0.4c-0.9,1-1.4,2.1-1.6,3.5l-0.7-0.2l0.9,2.2l-0.5-0.5c-1.7,2.6-2.8,5.8-2.8,8.7l2-0.4
			c0,1.9-0.1,3.7-0.4,5.6c1.1-0.1,2.3-0.3,3.4-0.4l-0.7-7.1c0.8-1.1,1.9-1.5,3.1-1.3l-0.9,2.4l2.5,0.9l-0.5,2h1.6
			c0.2-1.4,1.1-2.1,2.8-2l-2.2-1.8l1.1-1.3l-3.8-2.9c2.9,0.8,5.2-0.7,6.9-4.7c-3.9,2.9-7.6,4.1-10.9,2.2l0.7-3.1
			C276,306.8,281.5,304.3,284.9,299.1L284.9,299.1z"/>
		<path id="path9515_1_" fill="#FEC010" stroke="#000000" stroke-linecap="round" stroke-linejoin="round" d="M228.3,301.3l-0.9,0.7
			l0.7,1.1l0.9-1.1h-0.3L228.3,301.3L228.3,301.3z"/>
		<path id="path9513_1_" fill="#FEC010" stroke="#000000" stroke-linecap="round" stroke-linejoin="round" d="M292.2,302.9l-0.7,0.7
			l0.4,0.9l1.3-0.6L292.2,302.9L292.2,302.9z"/>
		<path id="path9505_1_" fill="#FEC010" stroke="#000000" stroke-linecap="round" stroke-linejoin="round" d="M292.4,305.5l-0.7,1.1
			l2.2-0.4C293.5,305.7,293,305.5,292.4,305.5L292.4,305.5z"/>
		<path id="path9503_1_" fill="#FEC010" stroke="#000000" stroke-linecap="round" stroke-linejoin="round" d="M184.6,306.4l2.9,1.3
			l-1.8-1.1v-0.2L184.6,306.4L184.6,306.4L184.6,306.4z"/>
		<path id="path9501_1_" fill="#FEC010" stroke="#000000" stroke-linecap="round" stroke-linejoin="round" d="M194.6,306.4l2.2,1.6
			l-1.1,0.2L194.6,306.4L194.6,306.4z"/>
		<path id="path9499_1_" fill="#FEC010" stroke="#000000" stroke-linecap="round" stroke-linejoin="round" d="M300.6,307.6
			c-3.2,0-6.1,1.5-7.5,4l0.9-1.6l0.9,0.7c2.2-1.6,4.6-2,7.1-1.2L300.6,307.6L300.6,307.6z"/>
		<path id="path9497_1_" fill="#FEC010" stroke="#000000" stroke-linecap="round" stroke-linejoin="round" d="M285.3,308.9l-2.5,0.2
			l-0.6,1.3C283.2,309.9,284.3,309.4,285.3,308.9z"/>
		<path id="path9495_1_" fill="#FEC010" stroke="#000000" stroke-linecap="round" stroke-linejoin="round" d="M279.8,309.1l-2.2,0.2
			l0.2,0.9C278.6,310.2,279.2,309.9,279.8,309.1z"/>
		<path id="path9491_1_" fill="#FEC010" stroke="#000000" stroke-linecap="round" stroke-linejoin="round" d="M190.4,310.4l-0.9,0.2
			c0.7,1,1.6,1.8,2.7,2.4l0.2-1.3L190.4,310.4L190.4,310.4z"/>
		<path id="path9489_1_" fill="#FEC010" stroke="#000000" stroke-linecap="round" stroke-linejoin="round" d="M207.5,310.7l0.2,1.3
			l0.6-0.7L207.5,310.7L207.5,310.7z"/>
		<path id="path9487_1_" fill="#FEC010" stroke="#000000" stroke-linecap="round" stroke-linejoin="round" d="M215.8,311.1l-1.3,0.5
			c0.6,0,1,0.2,1.3,0.6L215.8,311.1L215.8,311.1L215.8,311.1z"/>
		<path id="path9485_1_" fill="#FEC010" stroke="#000000" stroke-linecap="round" stroke-linejoin="round" d="M289.8,311.3l-2.5,1.3
			l2,0.9l1.8-1.3L289.8,311.3L289.8,311.3z"/>
		<path id="path9481_1_" fill="#FEC010" stroke="#000000" stroke-linecap="round" stroke-linejoin="round" d="M215.6,314.7l-0.2,0.7
			h1.8L215.6,314.7L215.6,314.7z"/>
		<path id="path9479_1_" fill="#FEC010" stroke="#000000" stroke-linecap="round" stroke-linejoin="round" d="M196,317.8l-1.1,0.7
			l2.2,1.6L196,317.8L196,317.8z"/>
		<path id="path9477_1_" fill="#FEC010" stroke="#000000" stroke-linecap="round" stroke-linejoin="round" d="M278,318
			c-0.9,1.1-1.4,2.4-1.5,3.8l1.8-1.6h-0.9L278,318L278,318z"/>
		<path id="path9475_1_" fill="#FEC010" stroke="#000000" stroke-linecap="round" stroke-linejoin="round" d="M220.9,318.9
			c-1.7-0.5-2.8,0-3.4,1.5h2.2l0.7,1.8l2.7,0.5l0.4-1.3l-1.8-0.2L220.9,318.9L220.9,318.9z"/>
		<path id="path9473_1_" fill="#FEC010" stroke="#000000" stroke-linecap="round" stroke-linejoin="round" d="M276.9,318.9l-1.3,0.7
			l-0.2,1.8l0.9-0.2C276.8,320.5,277,319.7,276.9,318.9L276.9,318.9z"/>
		<path id="path9471_1_" fill="#FEC010" stroke="#000000" stroke-linecap="round" stroke-linejoin="round" d="M226.5,321.1l-0.2,1.8
			h1.3l0.9-1.3L226.5,321.1L226.5,321.1z"/>
		<path id="path9469_1_" fill="#FEC010" stroke="#000000" stroke-linecap="round" stroke-linejoin="round" d="M200.4,322.9l0.9,1.3
			v-0.9L200.4,322.9L200.4,322.9z"/>
		<path id="path9467_1_" fill="#FEC010" stroke="#000000" stroke-linecap="round" stroke-linejoin="round" d="M289.3,323.8
			c-1.7-0.4-2.9,0.1-3.4,1.5C287,324.8,288.2,324.3,289.3,323.8z"/>
		<path id="path9465_1_" fill="#FEC010" stroke="#000000" stroke-linecap="round" stroke-linejoin="round" d="M290.4,325.1
			c-5.2,0.8-9.9,3.7-12.5,8C282.3,331.2,286.7,328.3,290.4,325.1z"/>
		<path id="path9463_1_" fill="#FEC010" stroke="#000000" stroke-linecap="round" stroke-linejoin="round" d="M283.8,326.2
			c-1.2-0.1-2,0.3-2.5,1.3C282.4,327.5,283.3,327.1,283.8,326.2z"/>
		<path id="path9461_1_" fill="#FEC010" stroke="#000000" stroke-linecap="round" stroke-linejoin="round" d="M281.3,327.1l-1.1,0.4
			l0.4,0.4C280.8,327.6,281.1,327.4,281.3,327.1z"/>
		<path id="path9459_1_" fill="#FEC010" stroke="#000000" stroke-linecap="round" stroke-linejoin="round" d="M276.7,327.8
			c-3.1,1.5-6.5,2.9-9.9,4c3.8,0,7.2-1.2,10.3-3.4L276.7,327.8L276.7,327.8z"/>
		<path id="path9451_1_" fill="#FEC010" stroke="#000000" stroke-linecap="round" stroke-linejoin="round" d="M220.7,330.5
			c-0.3,1.6-1.2,2.4-2.9,2.5l4.4,0.4l-0.2,1.1c9.2,0.4,18.3,0.6,27.6,0.5l-0.4-2.5C239.7,331.7,231.2,331.1,220.7,330.5L220.7,330.5
			z"/>
		<path id="path9449_1_" fill="#FEC010" stroke="#000000" stroke-linecap="round" stroke-linejoin="round" d="M248.2,330.5l-4.7,0.9
			C245.3,332,246.8,331.7,248.2,330.5z"/>
		<path id="path9445_1_" fill="#FEC010" stroke="#000000" stroke-linecap="round" stroke-linejoin="round" d="M260.7,331.3l-0.6,0.4
			l1.8,0.9c-2.1-1-3.8-0.7-5.1,0.9l0.9,0.9l7.3-2.7L260.7,331.3L260.7,331.3z"/>
		<path id="path9443_1_" fill="#FEC010" stroke="#000000" stroke-linecap="round" stroke-linejoin="round" d="M255.1,332.7l-0.9,1.6
			h2l0.5-1.6H255.1L255.1,332.7z"/>
		<path id="path9441_1_" fill="#FEC010" stroke="#000000" stroke-linecap="round" stroke-linejoin="round" d="M251.1,333.1l-1.8,0.2
			l2,1.6l2-1.6L251.1,333.1L251.1,333.1z"/>
		<path id="path9439_1_" fill="#FEC010" stroke="#000000" stroke-linecap="round" stroke-linejoin="round" d="M267.1,333.1l-3.3,1.1
			c1.6,0.3,3.1,0.6,4.6,1.1l1.3-0.9v-0.2C268.9,333.5,268,333.1,267.1,333.1L267.1,333.1z"/>
		<path fill="#FEC010" stroke="#000000" stroke-linecap="round" stroke-linejoin="round" d="M304.2,107.2l-2-1.8
			c1.1-0.4,1.7-1.1,1.6-2c-0.5-0.3-1-0.8-1.4-1.3c-0.4-0.5-0.8-0.8-1.3-1.1l0.6-3.8l-3.3-3.1l0.9-1.6c-2.2-0.4-3.6-1.6-4.2-3.5
			l-1.8,0.9l-4-6.2l0.5-1l1.1,0.3l-0.9-2.7l1.8,1.3l-1.2-2l0.9-2.4l2.7,0.4c-2.6-3-4.3-7-4.7-11.1l1.6-1.3c-1.4-2.4-3.7-3.3-6.9-2.9
			l0.9,0.4l-2-0.2l0.4,1.6l-0.6-0.5l-0.7,0.9l1.3-3.8c-1-1.7-2.5-2.7-4.4-3.1v-0.9l2.9,1.4v-1.8c1.6,0.6,3,0.4,4.2-0.7l-0.9-0.6
			l1.4,0.2l-0.5-0.9l-1.3,0.2c-0.5-0.9-1.2-1.5-2.2-1.8l-0.7,0.5l0.9-1.4h-1.3l0.8-0.4c-2.5-1.8-4.5-1.6-4.8,1.3l2.8,0.7
			c-4.8-1-9.5-0.2-14,2.2l-0.4,2.3c-0.7,0.2-1.4,0.6-2,1.1c0.9,1.1,2.1,1.6,3.6,1.3l0.4,0.9c-1.4,0.9-2.8,0.9-4.2,0.2l0.4,1.1
			l-2.9,2.5l0.7,1.7l-2.9-1.1v0.3c-3.1-2-5.6-1-7.1,2.4h-4.9l0.2-1.1c-1.1-0.3-2.2-0.2-3.1,0.4l0.7,2.5l-1.5-1.6l1.1,0.7l-0.3-1.3
			l-1.9,1.3l1.7-1.6l-5.5,1.4l0.9,0.6c-0.4,0.5-0.8,1-1.1,1.6c0.2-0.3,0.5-0.4,0.8-0.4c0.4,0.8,1,1.5,1.8,1.9c-0.7,0-1.4,0.1-2,0.5
			l0.7,1.3l-2.7-0.6l-1.5,1.3l-2-0.9l0.4,3.6l-4.9-2.7l1.1-0.7l-1.5-0.4l0.6-0.7c-2-0.9-3.8-1.3-6.2-1.5l-0.2,2.9
			c-1.6,0.3-3.1,0.3-4.7,0l0.3-1.2c-2.2-0.5-3.8,0.1-4.9,1.8l-1.4-2l-0.2,0.9l-0.9-0.9l-1.6,0.2v1.2l1.2-0.3c-2.4,0.1-4.1,1-5,2.9
			c1.1-3.2,3.2-5.6,6.3-7.3l-1.5-1.4l1.3,0.7v-0.9l-3-2.2l-3.5,1.1l0.6-1.1l-2.6-0.2l1.5-0.9l-1.8-0.9c-1.6,0.6-2.3,1.7-2.2,3.3
			c-0.6,0-1.1,0-1.7,0l0.6,1.1l-0.6-0.6l-2.9,1.1l0.4-0.7l-2.2-0.2l-0.5,0.7h1.2l-6.7,1.3l-0.4,1.6l-0.7-0.9l0.4,2.9l-6.6-0.3
			l-0.9,2.9l2,2.7c-0.6,1.8-1.2,3.5-1.8,5.3c-1.2-1.1-1.2-2.2,0.2-3.5l-1.3,0.9l2.6-2.9c-1.7-0.3-3.2-1.2-4.2-2.7l-1.1,0.2v1.1
			l-2-0.6l1.3,3.1l-2.2-1.1l1.1-4.7c-0.3,1.9-1.5,2.9-3.7,3.1c0.2,2.5-0.7,4.6-2.7,6.3c1.8-0.2,3.2,0.3,4.2,1.7
			c0.4,1.6-0.2,2.6-1.8,3.1l1.4,1.1l-1.8-1.1l1.1-3.5h-2.4c-1.1,3.2-3.4,5.2-6.9,6.2l-2.9-2.5c3.3,1.1,6,0.1,8-3.1
			c0.6-4.1,2.6-8.3,5.5-11.5c-0.6-0.7-1.3-1.2-2.1-1.6c0.9,0.2,1.5-0.1,1.9-0.9l-1.1-0.2l-0.9,1.1l-0.4-0.2
			c-3.6,2.2-6.1,4.5-8.5,7.8l1.4,0.7l0.2,1.7l-2.5,1.8l-1.1-3.5l0.5,0.4l-1.1-1.2c0.4,1.5,0.2,3.3-0.4,4.9
			c-8.3,0.7-14.8,4.1-19.3,10.7c-6.6,8.7-13.8,14.3-20.9,15.8c-0.7,1.5-0.8,3.1-0.3,4.8c0.4,0.1,0.7,0.4,0.8,0.9
			c1.9-0.5,3.8-0.2,4.8,1.2c-1.4,0.9-2.9,2.3-4,3.5l-0.4,0.1c0,1.4,0.8,2.5,2.1,3.2l-0.5,0.3c1.6,1.6,1.8,3.1,0.1,4.5l-2.2-1.5
			l-1.6,0.8l-0.6-2.9l-1.3-0.4l-0.2,0.2c-8.2-9.4-14.1-6.7-17.6,5.3l0,0c3.4,2.1,3.2,4.2-0.5,6.2l0.5,1.2l-2.9-2l-1.8,1.1l0.4,1.5
			l-1.7-1.8l-0.7,1l0.7,1.1l-1.4,3.5l1.8,2.9c-1.6,1.2-2.4,2.9-2.4,5.1l1.5-2.6l1.6,0.4l0.2,4.4l-2.7,0.3l-0.6-2.2
			c-1.7,1-2.3,2.4-2,4.2l0.2-1.1l1.1,0.8l-0.4,1.6l-0.7-0.9l-0.9,1.3h1.1c0.3,3.1-0.8,5.8-3.1,8.3c-6.3-2-8.6-6.5-6.2-12.5
			c1.7-0.2,2.8-1.1,3.3-2.9l2,0.3c-1.6-1.7-2.8-3.8-3.2-6.1c0.1-2.2-0.8-4.7-2.3-6.7c0.1-1.7-0.6-3.4-1.9-4.5
			c-1.4-3.2-2.3-6.5-2.5-10c-0.8,20-8.1,11.1-14.5,0.4l-1.5-3.2l-0.9,1.2l0.4,1.1l-1.1-1.1l-0.7,0.9l-1.5-3.6
			c-1.2,0-2.1,0.5-2.7,1.5l0.9,0.9c-1.6,0.8-2.2,1.9-2,3.4l-0.7-0.5l0.5-1.3c-1.1,0.7-1.4,1.7-0.9,3.1c-1,0.4-1.4,1.2-1.1,2.5
			l-0.9,0.2l1.1,1.3l-1.5-0.2l1.3,0.9c-0.9,1.9-0.8,3.5,0.4,4.9l1.6-1.6c0.9,1.7,1.1,3.6,0.6,5.6l1.8,1.3l1.8-0.6l0.2,1.7l1.6,0.2
			c-3.3,5-7.1,9.2-12,12.9l-2.9-2.7c-2,4.1-2.9,8.6-2.6,13.1l1-0.3c-1.2,20.1-2.4,40.2-2.6,60.7l3.1,2.2c5.3,0.6,11.3,1.4,17.1,2.2
			l1.1-2.2l6.4,1.7l1.6-1.9l2.2,0.8l1.8-2.2l2.6,0.7c-0.5-2.4,0.2-3.9,2-4.7l0.7,0.9l4.7-4.2c-4.4-5.3-6-11.1-3.8-17.4l-7.8,4.3
			c-1.2-2.1-2.6-2.8-4.4-2l-1.4-2.5l2.3-4.6l-1.1-1.2l-1.8,3.8c0-6.5,0.1-11.5,0.4-18.2l-0.9-0.7l1.4,0.2c0.2-0.7,0.2-1.3,0.2-2
			l1.6,1.6l0.6-1.1l0.7,2l1.3,0.2c-1.6,9.5,1.7,16.2,10.2,17.8c2.8,10,11.1,15.5,22.5,16l-0.3,2.9l1.6,0.7v3.1l0.5,0.1l0.4-0.6
			l0.4,0.9l0.9,0.2l-0.4,1.4l1.7-0.7l-1.3,0.9l1.6,3.1l3.5,0.7l-0.9,1.1l-3.7-0.5l4.4,7.2l4-0.5l1.1-3.5l1.8,0.6l-1.4,0.7l-0.2,1.1
			l1.1,0.2l-1.1,0.9c-1.2,15.6,2.5,32.9,10.2,46.7c1.4-0.2,2.2-1,2.5-2.4l2.9-0.3l-0.9-0.6c0.6-0.7,1.1-1.5,1.5-2.3l1.8,0.3
			c0.9-5.7,1.8-11.3,2.7-16.9l2.2,0.2c0.8-2.1,2.4-2.7,4.7-2v-1.6c5.8-3.1,11.1-6.3,16.4-9.8l-0.5-2.2c2,0.1,3.2-0.7,3.8-2.4
			l0.5,2.2l1.5-1.6l1.1,1.8v-1.5l0.7,1.1l0.9-1.1l0.9,1.1l0.4-2l0.9,2l1.1-2.5l0.2,2l0.7-0.4l-0.2-2.2l2.4,0.2l3.8,9.1l0.9-1.1
			l-0.2,1.3c1.9,0.1,3,1,3.3,2.9l-2-0.2l1.6,2l0.6-1.8c1.8,3.8,1.8,7.6,0,11.4l1.3-0.9l-0.8,1.3l0.8-0.9l1.2,1.3l0.6-1.3l0.9,1.3
			c0.4-1.5,1.4-2.2,3.1-1.9l-0.6-1.4l1.1,1.1c1.4-0.6,1.9-1.7,1.3-3.3l1.6,3.3l1.3-0.2c-0.5,3.4-0.1,6.8,1.1,10l0.4-1.3
			c1.6,2,2,4.2,1.2,6.6l1.1,0.7c-1.7,1.6-2,3.4-1.1,5.3l0.6-0.8c-0.5,2.2-1.1,4.4-1.8,6.6l1.4-0.6c4,9,9.1,15.6,16.9,21.3l1.6-1.3
			l1.1,0.9c-1-8.3-5.2-14.2-13.4-17.2c-0.9-2.1-1.6-4.3-2-6.6l-2.2,0.2c0.9-4.3,1.7-8.5,2.4-12.9c1.2,0,2.4-0.2,3.6-0.7l-0.5,2.7
			c4.3-0.7,7,1.2,7.9,5.6l1.5-0.9l0.3,2l0.9-0.7l4.2,2l-1.1,4c2,0.3,3.6-0.4,4.9-2.2l-1.4-1.8l2.5,1.1c-0.4-0.7-0.8-1.3-1.4-1.8
			c0.6,0.3,1.1,0.6,1.6,1.1c-0.4-0.4-0.7-0.8-0.9-1.3l1.6,0.5l-1.4-0.7h1.4l-0.3-0.9c2.9,1.3,5.4,0.2,7.6-3.1l0.4-4.2l0.9-0.3
			c-5.1-8.2-9.5-18.5-10.4-24.4l-0.2-1.6l0.8,0.2l-0.6-1.1h2.2l1.3-2l2.3-0.2l0.2-1.3l2,1.5l1.5-1.3l1.1,0.9
			c-1.2,1.5-1.1,2.9,0.3,4.2l1.1-0.2v-3.8l0.2,0.7l3.8-1.6v-0.9h2.2v-1.1l1.8,0.5l-0.3-2.5l0.7,1.6l0.5-1.1l0.8,0.4l-0.8-2.9
			l3.3,2.5l-0.5-0.9l1.8-1.4l0.2,0.9l1.4-1.3l0.9,0.7c1.6-0.4,2.7-1.3,3.3-2.7l-0.9-0.4l2.2-0.9l0.2-1.4l0.9,0.7l1.4-2.2l-1.2-0.7
			l2.7-0.5l-0.4-1.3h1.3l-0.7-1.3h1.4v-1.3l1.1,0.6l-0.9-2.4l1.1-1.4h-1.1l0.7-0.2l-0.9-0.9c0.6,0.2,1.1,0.3,1.7,0.3l1.4-4.7
			l-0.9-0.7l2.9-1.1l-1.1-1.3l1.1-1.1l-1.1-0.7l1.5-0.4l-0.2-1.4l-1.5,0.9l1.7-2c-1.9-1.1-3.8-1.1-5.8,0.2l4.5-3.5
			c-1.6-2-3.5-2.9-5.8-2.5l5.4-0.2c-3.4-1.5-5.5-4.2-6.3-8c-1.1,0.1-2.2-0.1-3.3-0.7c0.1-1.7,0.9-3.5,2.2-4.9l-0.7-0.6l1.6-0.3
			l-0.2-1.7c1.2-1.8,2.7-2.4,4.4-1.8v-2c-3.8-1.1-6.8-0.1-8.9,3.1l-1.7-3.5h-3.2l-0.2-2.5c3.4-2.2,6.5-5.4,8.9-8.9l1.6,1.8l-1.8,4.2
			l1.8-0.4L256,181c2.1-4.7,5.5-6.6,10.2-5.7l-0.2,2.9l1.3,0.4c-1.4,0.2-2,1-2,2.4l1.6-0.2l-0.5,0.7l1.4-0.2l0.2-0.7
			c2.3-0.3,3.7,0.8,4.2,3.3l-1.3-0.7l-0.7,1.4l1.1,1.1v-1.1l0.5,1.8l1.1-0.3l-0.7,4l1.4,1.4l-0.9,0.2l0.9,0.9l1.3-2.2l0.7,1.1v-1.6
			l1.1,0.7l-0.7-1.3l2,0.4v-1.8l1.3,0.3c0.7-6.1-2.3-10.7-8.2-12.7c-0.7-2.9,0.5-5.3,3.8-7.1c-1.6-2.1-1.5-3.9,0.4-5.6l-0.4-1.1h1.3
			l0.2-3.1l3.6,1.1c7.3-13.1,6.6-27.1-2-38.5h1.1l-0.2-1.1c-2.1-1.6-4.2-1.9-6.2-0.7l0.4,0.9l-1.3,2.3l-0.7-2.7l-0.4,2.4l-1.6-2.6
			c-1,1-2,1.1-3.1,0.2c0.9-7.4,3.2-14.7,6.7-20l0.9,0.4v-1.1l3.3-1.3l-0.7-1.8l4.5-0.9l-0.9,1.3l0.9,0.5l3.3-4l-1.1-0.7l-0.7,0.9
			c-3.2-3.5-3.6-7.5-0.6-11.1c0.5,1.2,1.2,2.1,2.2,2.9c0-0.3,0-0.6,0.2-0.9l1.1,1.3l-1.1-4.2l0.7-0.9l-2.5-1.8l0.5-1.3l1.1-0.2
			l-0.3,1.3l3.8,3.3c0.9,4.2,1.6,9.4,1.8,13.4c3.9,7.1,9.4,13.2,16.2,17.8L304.2,107.2z"/>
	</g>
</g>
</svg>
