<?xml version="1.0" encoding="utf-8"?>
<!-- Generator: Adobe Illustrator 23.0.0, SVG Export Plug-In . SVG Version: 6.00 Build 0)  -->
<svg version="1.0" id="globes" xmlns="http://www.w3.org/2000/svg" xmlns:xlink="http://www.w3.org/1999/xlink" x="0px" y="0px"
	 viewBox="0 0 400 400" enable-background="new 0 0 400 400" xml:space="preserve">
<g id="South_America_1_">
	<path id="path17649_3_" opacity="0.5" fill="#86CAD9" enable-background="new    " d="M399.8,199.7c0.5-68.7-37.3-135.9-96.4-171
		C243.9-8.1,164.9-9.7,103.8,24.5C43,57.2,1.7,123.6,0.3,192.8c-3.5,72.9,37.4,145.6,101.3,180.8c60.6,35.2,139.9,34.5,199.9-1.8
		C361.7,337.1,400.3,269.3,399.8,199.7z"/>
	<g id="Land_3_" opacity="0.5">
		
			<path id="path16036" opacity="0.5" fill="#FFFFFF" stroke="#000000" stroke-width="0.25" stroke-linecap="round" stroke-linejoin="round" enable-background="new    " d="
			M188.4,0.8c-1.4,0.1-3,0.3-4.5,0.4h0.7c-1.3,0.2-2.7,0.3-4,0.4l0.9,0.2c-2.5,0-4.9,0.3-7.3,0.8c2.3,0.9,4.1,0.7,5.3-0.6
			c3.8,0.4,7.8,0.5,11.7,0.4l-4-0.4h1.8l-0.2-0.2l4.4,0.4l-0.4-0.4l1.1,0.2V1.6c-1.7-0.2-3.2-0.2-4.8-0.2V1.2c0.6,0,1.1,0,1.7,0
			L189.9,1c1.2,0.1,2.3,0.1,3.4,0l-0.7,0.2l2.2-0.2L193,1.2l2.7,0.2l0.2-0.4l1.1,0.2L196.8,1h0.2V0.8L195.7,1l0.9-0.2
			C193.9,0.8,191.1,0.8,188.4,0.8z M197.1,1c0.7,0,1.3,0,2,0C198.4,0.7,197.8,0.7,197.1,1z M209.3,0.8C209.9,1,210.4,1,211,1
			C210.4,0.8,209.9,0.8,209.3,0.8z M209.7,0.8h0.2h-0.4H209.7z M209.9,0.8c1.2,0.1,2.4,0.3,3.6,0.4L209.1,1l2.4,0.2h-1.3
			c1.5,0.1,2.9,0.2,4.4,0.4l-2.9-0.2c1,0.4,2,0.5,3,0.4L214,1.6l2.4,0.4l-2-0.2c0.4,0.2,0.9,0.2,1.3,0.2c-0.6,0-1.2,0-1.8,0l1.6,0.2
			h-0.9l1.8,0.2l-0.2,0.2l0.9-0.2l-0.7,0.2l1.8,0.2L217.8,3h1.3l-0.4,0.2c2.4,0.4,4.4,0.6,6.9,0.6L224.3,4c1,0,1.8,0,2.7,0.2
			l-0.4,0.2h0.9V5l0.6-0.2H228c0.8,0,1.5,0.1,2.3,0.2L229,4.6h1.1L229,4.4h1.1l-2-0.4l1.6,0.2l-2-0.4l2,0.2l-0.9-0.2l1.3,0.2
			l-1.3-0.4c0.6,0.2,1.1,0.2,1.7,0.2l-1.6-0.2l1.8,0.2c-0.8-0.2-1.7-0.5-2.5-0.8l1.3,0.2L229.3,3l2.2,0.4l-0.7-0.2h1.1
			C224.6,2.1,217.3,1.4,209.9,0.8z M232,3.2l-0.2,0.2c0.8,0,1.6,0,2.4,0.2C233.5,3.4,232.7,3.3,232,3.2z M233.5,3.4l0.5,0.1
			C233.8,3.4,233.7,3.4,233.5,3.4z M234,3.6c0,0.1,0.1,0.1,0.2,0.1L234,3.6z M234.3,3.6L234.3,3.6L234.3,3.6l0.6,0.1
			C234.8,3.5,234.6,3.5,234.3,3.6z M234.8,3.6l0.2,0.1L234.8,3.6c0.7,0.2,1.4,0.4,2.1,0.4C236.2,3.8,235.5,3.7,234.8,3.6z M237,4.1
			l0.8,0.2C237.6,4.1,237.3,4,237,4.1z M237.3,4.1l0.3,0.1C237.5,4.1,237.4,4.1,237.3,4.1z M237.6,4.1c0.2,0.3,0.5,0.4,0.9,0.2
			L237.6,4.1z M238.4,4.3l0.5,0.1C238.7,4.3,238.6,4.3,238.4,4.3z M238.9,4.4c0.2,0.1,0.5,0.1,0.7,0.1L238.9,4.4z M239.6,4.5h0.2
			C239.7,4.5,239.7,4.5,239.6,4.5z M239.8,4.6c0.3,0.2,0.7,0.3,1.1,0.2L239.8,4.6z M240.8,4.8C241,5,241.2,5,241.5,5L240.8,4.8z
			 M241.6,5l0.8,0.2C242.1,5.1,241.9,5,241.6,5z M234.9,3.7l-0.6-0.1l0.7,0.2L234.9,3.7z M228.4,4.8h-0.2l0,0l2.1,0.4L228.4,4.8z
			 M215.7,2.1c-0.7,0-1.5-0.1-2.2-0.2L215.7,2.1z M213.5,1.2c-0.8-0.1-1.6-0.2-2.4-0.2L213.5,1.2z M181.9,1.2l-0.4,0.2l1.3-0.2
			H181.9z M182.8,1.2l-1.1,0.2l1.6-0.2H182.8z M179.7,1.4l-0.2,0.2l0.7-0.2H179.7z M179.5,1.6l-1.3,0.2c1.1,0,2.1-0.1,3.1-0.4
			L179.5,1.6z M173.9,2.1L173.9,2.1h0.4H173.9z M173.9,2.1l-1.6,0.2C172.8,2.3,173.4,2.3,173.9,2.1z M173.6,2.2l-0.5,0.1
			c0.4,0.1,0.7,0.1,0.9-0.2L173.6,2.2z M173.8,2.2L173.8,2.2l1-0.1L173.8,2.2z M173.1,2.3c-0.9-0.1-1.9,0.1-2.7,0.4L173.1,2.3z
			 M170.4,2.8c-1.9,0.1-3.8,0.4-5.7,0.8l1.4-0.2c-1.9,0.6-3.9,1.1-5.9,1.6l2.4-0.4l-0.2,0.2l4.4-1.1l0.2,0.2
			c1.2-0.1,2.4-0.3,3.6-0.4c-0.8,0-1.7,0-2.5,0.2l0.7-0.2c-0.8,0-1.5,0-2.3,0l0.9-0.1l0.1,0.1l0.9-0.2c-0.4,0-0.7,0-1.1,0
			C168.4,3.3,169.4,3.1,170.4,2.8z M165.5,3.6h-0.7l0.2-0.1l-1.8,0.3l0.3-0.1c-0.8,0.1-1.5,0.3-2.2,0.4c-0.4,0.1-0.7,0.2-1.1,0.3
			C162,4,163.7,3.8,165.5,3.6z M241.5,138.3l1.8-3.8l-6.9-1.1l-1.6,2.9v-1.6l-1.6,1.3v-1.6l-1.6,1.6c0.9-3.2,3-5.5,6.2-6.9h-0.7
			l0.7-1.6c-3-2.2-5-5.5-5.8-9.2l-0.2,1.1c-7.2-4.3-15.3-7.6-23.3-9.7l-1.1,1.6l0.7-2.9c-2-2.7-4.9-4.2-8.2-4V102
			c-1.5-1.7-3.2-2.1-5.1-1.2c-0.3-0.8-0.9-1.4-1.7-1.8l3.6-1.1l-8.2,0.2l2,0.7c-5.6,0.4-9.4,0.5-15.3,0.4l-0.9-2.2l-4-0.4l-1.3-2.2
			l-0.7,1.8l1.3-0.2v0.7c-2.2-0.6-4.2,0.1-6,2.2c0.2,1.3,0.8,2.3,1.8,3.1l-0.2,1.3l-2.2,0.9l-1.3-2.2c0.8-0.8,1.5-1.6,2-2.6
			l-1.3-2.7l3.1-1.6l-2-1.1c-2.3,2.9-5.1,4.3-8.5,4l-0.4,1.1c-3.3-0.1-5.2,1.7-4.8,4.9l-4.4,3.1l0.4,2c-5.3-4.5-11.1-5-16.8-2
			l0.2,0.7h-1.3c-1.6-2.1-3.1-4.2-4.7-6.3c1.9-3.7,2.9-7.8,2.7-11.8c-5.5-0.9-11.2-0.6-16.7,0.9c2.3-1.9,3.6-4.3,3.8-7.3h-0.9
			l1.3-1.6l0.2,1.8l2-4l-0.9-0.2l3.6-4.9c-7.4,0-12.4,3.8-15.3,10.5c-3.1-0.7-5.8,0.3-8.2,2.9c-0.9-1.5-2.1-1.8-3.6-1
			c-3.5-6-3.2-12.1,1.1-16.9L91.6,71c0.9-3.8,2.8-7,5.9-9.1l-0.4-0.7l1.6-0.2L98,61.7c2.1-0.7,3.5-1.9,4.2-3.8h1.1l-0.9,0.7
			c1.4,0.1,2.4-0.3,2.8-1.3c2,0.3,3.8-0.2,5.3-1.3l1.8,1.3c0.6-0.9,1.3-1.1,2.2-0.7v-0.9h1.1l0.4,1.1l1.3-0.9l-1.6-0.4l1.6-1.1
			c-1,0-1.9,0-2.9,0c3.4,0.8,5.7,0,6.9-2.4l0.2,0.7l-0.7,0.4l2.9-1.3l-0.7,0.7l2.9-0.7l-0.9,0.4l2.4-0.2c0,0.5,0,0.9,0,1.4
			c2.7-2,5.2-1.9,7.3,0.7l-1.3,2.4l1.3-0.4l-1.1,1.3l0.7,1.3l1.1-0.4v2.4l2,0.7l-0.4,1.1l1.6-0.2v0.4c2.5-4.6,2.5-9.5,0.4-14.5
			l3.3-2.4l-0.2-0.7l0.2,0.4c4.3-2.8,8.6-5,13.5-6.7l-1.8-0.2l1.6-0.4l-1.3-0.4c1.4,0.6,2.6,0.4,3.5-0.7l-0.2-0.7l-0.7,0.9l0.2-0.9
			l-2,0.4c0.8-0.9,1.7-1.1,2.7-0.7V35l0.7,1.8l-0.7-2.2l-2.4-0.2h1.3l-0.2-0.2l0.9-0.7l-0.2-0.1l0.4-0.6l-2.7-0.4l0.7-0.7l2,0.9
			l-0.2-2.2l2.2-0.7l-1.8,1.3l1.6,1.6l-1.3,1.6l3.1-2.4l-0.7-2.4l1.3,1.3l2.4-1.6v-1.3c0.5-0.2,0.7-0.3,1.1-0.5H165
			c2-1.2,4.3-1.7,6.8-1.5l0.4-0.9l0.4,0.7l3.1-0.4v-0.7l-0.9,0.7l-1.6-1.1c0.9-1.6,2.1-2.4,3.7-2.4v-0.4c1.1,0.5,2,0.2,2.6-0.9
			l-0.2,0.4c2.1-0.3,2.5-0.4,4.9-0.9l-0.4-0.7c2.4,0.5,4.8,0.1,7.1-1.1l-1.8,0.9l4-0.2c-2.6,0.2-5.4,1.1-7.3,2.5l1.8,0.7
			c1.3-1.5,2.9-2.1,4.7-1.8v-0.4c2.3,0.1,4.5-0.2,6.7-0.9c-3-0.4-5.8-0.9-8.8-1.4l-0.2-0.9h-1.3l1.6-1.1l-2,0.4
			c-0.6-0.8-1.5-0.9-2.6-0.4c2,0.2,4-0.1,5.8-0.9l-0.4-0.7c-5.6-0.2-11.1,1-16.1,3.6l3.3-1.6v-0.4c10.6-2.3,21.4-4,32.2-5.1
			l-1.3-0.2h1.3l-2-0.2h1.8l-0.9-0.2l0.7-0.4c-0.9-0.8-1.9-0.9-3-0.4l0.4-0.4c-2-0.6-4-0.5-6,0.3l3.3-0.7l-2.4,0.2l4.4-0.4L205,7.8
			l0.7-0.2h-2.2V7.2l-0.9,0.2l0.4-0.2l-1.3,0.4l0.9-0.4c-0.8-0.1-1.6,0-2.4,0.2l0.7-0.7h-0.7l0.2-0.2H198l0.9-0.2
			c-0.6,0-1.1,0-1.7-0.2h1.1l-1.6-0.2c0.8,0.1,1.6,0.1,2.3-0.2l-2.2-0.4h1.1L196.4,5l0.4-0.2L195.1,5l1.6-0.4l-2,0.2l1.6-0.2
			l-0.4-0.4l-1.8,0.2l1.3-0.2l-2.2-0.4l0.7-0.2c-0.8-0.1-1.5,0-2.2,0.4l0.9,0.2h-1.3l0.7,0.2l-1.3,0.2v0.2c-1-0.4-2.1-0.3-3.1,0.5
			l-0.4-0.4l-1.6,0.4l0.9-0.4c-1.1,0-2.2,0-3.3,0c0.5-0.3,0.9-0.3,1.3,0l0.7-0.4h-0.9l0.4-0.2h-2c1.1,0.2,2.1,0,2.9-0.6H182l0.4-0.2
			c-3.4-0.4-7-0.3-10.5,0.3l0.4,0.2l-1.8,0.4h1.1V5L168,6.1l2.2,0.2L170,7.5c0.3-0.2,0.6-0.1,0.8,0.1C168,8.3,165,9,162.1,9.8
			l1.1,0.2l-0.4,2l-1.8,0.7v0.4l-0.4-0.4c-0.9,0.8-1.9,1.1-3.1,0.9l0.4-0.4l-2.2-1.1l2.2-2.2c-5.4,0.2-10.8,0.7-16,1.6
			c0.9-0.3,1.6-0.9,2.2-1.6c-0.8,0-1.5,0.2-2.2,0.6v-0.4c2.3-0.9,4.7-1.7,7.1-2.4h-0.2l3.3-0.9h-0.2l0.7-0.2l-1.1,0.2
			c0.6-0.4,1.3-0.6,2-0.6l-1.8,0.4c1.1-0.1,2.1-0.2,3.2-0.4c-0.6,0-1.2,0-1.8,0.2c3.2-0.9,6.4-1.7,9.7-2.3c-1,0.3-2.1,0.4-3.1,0.4
			l0.8-0.2c-3.4,0.7-6.8,1.5-10.2,2.3c-0.8,0.2-1.7,0.4-2.5,0.7c0.5-0.1,0.9-0.2,1.4-0.3h-0.1l0.3-0.1c-0.5,0.2-1.1,0.4-1.6,0.5l0,0
			c-0.3,0.1-0.6,0.1-0.9,0.2c-1,0.3-2,0.6-3,0.8c0.6-0.1,1.2-0.3,1.7-0.6c-2.6,1-4.9,1.7-7.6,2.4l1.6-0.4c-0.5,0.2-1.1,0.3-1.6,0.4
			l0.4-0.2l-2.9,0.9c0.4-0.1,0.8-0.2,1.2-0.3c-0.9,0.3-1.7,0.6-2.6,0.8l0,0h0.2l-1.5,0.4l1.3-0.4H134c0.1,0,0.2,0,0.3-0.2
			c-1,0.4-1.6,0.6-2.5,0.9c0.2,0,0.4-0.1,0.6-0.2c-0.1,0.1-0.2,0.2-0.3,0.2c-0.3,0.1-0.5,0.2-0.8,0.3c0.3-0.1,0.7-0.3,1-0.5
			c-0.5,0.4-1,0.5-1.6,0.5v0.1l-0.4,0.1l0.4-0.1l-2.3,0.8c0.8-0.2,1.6-0.5,2.3-0.8V13c0.3-0.2,0.7-0.3,1.1-0.4
			c-1.1,0.5-2.2,0.9-3.3,1.2h0.1c-0.6,0.1-1.2,0.3-1.8,0.5l0.6-0.2c-0.6,0.2-1.2,0.4-1.8,0.6l0.7-0.2c-0.5,0.3-1,0.5-1.5,0.7l3-0.9
			c-1.8,0.7-3.7,1.3-5.5,2c0.1-0.1,0.3-0.1,0.4-0.2l0.5-0.2c-0.6,0-1.1,0.2-1.6,0.7h0.1c-6.7,2.8-13.3,5.9-19.7,9.2v0.1
			c-1,0.6-2.1,1.2-3.2,1.7c-0.6,0.4-1.3,0.7-2,1h0.1c-1.6,1.1-3.3,2.2-5,3.2l0.2-0.2c-0.9,0.8-1.8,1.4-2.8,2l0.4-0.2
			c-0.9,0.5-1.7,1-2.6,1.6l0.8-0.6c-0.4,0.2-0.8,0.5-1.2,0.8c-0.2,0.1-0.3,0.2-0.5,0.3l0.1-0.1c-0.3,0.3-0.7,0.6-1,0.9l0.2-0.1
			c-0.3,0.2-0.6,0.4-0.9,0.6l0.8-0.6h-0.1l0.4-0.3c-0.2,0-0.3,0.1-0.4,0.2l0.3-0.2c-0.6,0.3-1.1,0.6-1.7,1l0.6-0.3
			c-0.1,0.2-0.3,0.3-0.5,0.3V37l-0.2,0.1c0.2-0.1,0.3-0.1,0.1,0c-0.8,0.6-1.6,1.2-2.5,1.8l0.2-0.1L81.5,39l0.9-0.5l-1.2,0.9
			c0.8-0.6,1.8-1.2,2.6-1.8l-3.3,2.7l1.3-1.1l-2,1.6L82,39c-1.7,0.6-3.1,1.6-4.3,3l0.4-0.2c-6.8,5-12.9,11.1-17.8,17.9l0.2-0.1
			c-0.9,2-2,3.9-3.2,5.7c0.8-0.3,1.6-0.4,2.5-0.4c0,2.4-0.8,5.6-2,8l1.3,1.8l-1.3,1.8l0.4,0.2l-2,0.7l1.3,1.6l1.3-1.1
			c1.2,1.6,1,3.2-0.6,4.9c1.8,0.5,2.6,1.6,2.2,3.2c1.6-0.6,2.1-1.7,1.6-3.3h-1.3c-0.2-5.8,0.2-10.3,1.6-15.5h2.4
			c-1.2,2.1-1.5,4.3-0.7,6.4l1.1-0.2L64.4,75l1.6,1.3L64.6,78l2.2,0.7l-0.2,0.9c3.2,2.5,3.9,5.5,1.8,8.6l0.4,0.2
			c4.4,6.8,14.4,8.7,25.1,4.8c4.7,3.6,9.9,5.4,15.8,5.3l-0.7-0.2l4-1.1v1.3l-1.1,0.2l5.6,4.4l-0.9,0.7l0.9,0.2
			c-0.1,0.9-0.2,1.7-0.2,2.6l1.6,0.9l0.9-1.1c-0.4-0.4-0.7-0.7-1.1-1.1c1.7,0.8,3.2,1.7,4.8,2.9v2h0.9l-0.2-1.1l1.6,2l0.4-0.9
			l3.1-0.2l0.7,1.6l1.6-0.9l0.4,2.2c1.2-0.1,2.2-0.6,3.2-1.3l-1.6-2c1.5-1.1,3.1-2.1,4.7-3.1l2,2l1.3-0.4l-1.3,1.6
			c4.3,2.8,5.2,6.6,2.7,11.5l1.6,0.7c-0.8,2.7-2.5,4.5-5.1,5.3v2.2l-1.8,0.4l0.4,1.8c-1.6,0-2.9,0.5-3.8,1.5
			c0.1,0.6,0.2,1.2,0.4,1.8c-0.7,0.7-1.3,1.4-1.8,2.2l0.7,0.7l-2,1.6v4.2l2.2,1.1c0.2-0.7,0.6-1.3,1.1-1.7l0.7,1.1
			c-0.7,2.8-2.4,4.9-5.1,6.2l1.6,4.4l-0.9,1.3c27.5,40,44,52.3,33.7,104.8c1.2,4.9,2,9.5,2.4,13.8l-0.4,0.7l1.8-1.1l1.1,0.4l0.7-0.7
			l-1.3,1.8l1.6,0.7l-0.2,1.1l-1.1-0.7l1.1,1.1l-0.9-0.4c-0.9,1.9-0.6,3.3,0.9,4.2l-1.1,1.1l2,1.1l-2,2.2l1.8,0.7l-1.8,0.2v1.1
			l1.1-0.7l-0.7,2.9l-0.9-1.1l-1.3,0.2l1.1-0.2h-0.9l0.4-1.1l-0.7,0.9c-0.5-0.7-1.1-0.9-1.8-0.5l1.6,0.4c-0.4,0.9-1,1.6-1.9,2.1
			l1.2-0.8l0.4,1.1l1.3-0.2l0.9,1.3l-1.1,0.9h1.3l-1.8,0.7c1.5-0.8,2.8-0.6,3.8,0.7l-1.1-0.2l0.9,1.1l-3.1-0.7l2,1.1l-1.1,0.7
			l0.9,0.4l-0.4,2l0.7-0.7l1.3,1.6l-1.6-0.2c0.4,0.7,0.9,1.4,1.4,2l-1.8-0.2l1.6,0.4l0.2,1.6l0.7-1.6l0.7,0.9
			c-0.6,0.3-1.1,0.6-1.7,0.9l1.3,0.4l-0.2,1.6l1.3,1.1l-0.2-1.1l0.7,1.1l-0.7-1.6l1.8,0.7l-2-0.9l0.9-0.9l-0.2,1.1l1.6,0.7l-0.4,2
			v-1l-0.2,1.1l-0.2-0.9c-0.5,0-1,0-1.5,0l0.4,2.2c1.3-1.1,2.8-1.4,4.5-0.9l0.7,1.6l-1.1,1.3l0.2-0.9l-1.3,0.4l2.7,1.3l0.2-3.6
			c1.6-1.5,3.4-1.9,5.3-1.4l-1.6-2h-1.3l1.3-0.2l-1.3-1.3l2-2.9c-0.4-0.3-0.7-0.8-0.8-1.3c0.3,0.4,0.6,0.8,0.9,1.1l0.9-0.2
			c-0.2-3.1,1.2-5.3,4.4-6.7l-0.2-2.2c-2.3,0.2-3.8-0.9-4.6-3.3c0.5-2.6,2.1-3.9,4.9-3.8c-0.8-2.8,0.1-4.9,2.6-6.2l-1.8-1.1l1.6-0.4
			l0.7,1.1l1.3-0.9l-0.4-1.6l-1.8,1.1l-1.6-1.1l-0.2-4.4c2.3,1.6,4.6,1.7,7.1,0.4V266l0.9,0.4l-0.9-2c7.5,1.7,13.2-1,15.5-8
			l-1.8-1.3l0.7-2.2l-4-3.1l0.7-4.4c8.5,10.5,16.2,4.7,22.3-8.4l-0.7-1.3l2,1.8l-4.9,5.5c7-5,11.2-11.9,11.5-19.5l1.8-2.4l-1.1-0.7
			l1.6,0.4c3.9-3.6,7.9-6,12.7-7.8c1.5,1.1,2.9,1,4-0.4v1.1l3.3,0.2l0.2-1.6l3.3-1.3c5.7-9.3,9.3-20.1,10.5-31.7l0.7,1.6
			c18.5-19.7,10.5-32-15.1-38.1l-4.9,2.9c-0.3-1.6,0.3-2.6,1.7-3.1l-2.2,0.2l1.8-1.3l-1.1-2.2l-1.6,1.3l-0.2-1.8l-0.7,0.7l0.4-0.7
			l-1.1,0.2l-0.9-1.3l-0.4,0.9l-0.2-1.3l-0.4,0.7l-3.3-2l-0.2,0.7l-2.2-0.7l-1.6,2.4l1.3,0.4l-1.1,0.4l-0.9-1.1l-2.9,3.1l0.9-2.2
			 M165.7,27.3c1.7,0.3,3.2-0.1,4.4-1.1L165.7,27.3z M174.4,308.5l-0.7,1.3l0.9,0.2L174.4,308.5z M165.2,291.3l-0.2,0.1l0,0
			L165.2,291.3z M165.1,291.5l-0.2,0.2l0.9,0.4L165.1,291.5z M133.7,144.8l0.4,0.9c0-0.5,0.2-0.8,0.6-1.1
			C134.4,144.8,134.1,144.9,133.7,144.8z M81.5,39l-0.6,0.4C81.1,39.3,81.3,39.2,81.5,39z M85.6,36L85.6,36c0.2,0,0.4-0.2,0.6-0.4
			C86,35.7,85.8,35.8,85.6,36z M88.7,34c0.6-0.4,1.2-0.8,1.7-1.3L88.7,34z M99,27.5c0.2,0,0.4-0.1,0.5-0.3L99,27.5z M127.9,13.8
			l0.1-0.1l-0.3,0.1H127.9z M127.8,13.8c-0.1,0-0.3,0-0.4,0.1L127.8,13.8z M127.7,13.8c0.2,0,0.4-0.1,0.6-0.2
			C128,13.6,127.8,13.6,127.7,13.8L127.7,13.8z M127.6,13.8c-0.2,0-0.3,0-0.4,0.2L127.6,13.8z M127.5,13.8c0.2,0,0.4-0.1,0.6-0.2
			L127.5,13.8z M138.4,10.1c0.7,0,1.4-0.2,2-0.7C139.6,9.4,138.9,9.6,138.4,10.1z M140.4,9.4c0.5,0,0.9-0.1,1.3-0.4L140.4,9.4z
			 M147.7,7.4c-0.1,0-0.2,0.1-0.3,0.1L147.7,7.4z M147.9,7.2l-2.2,0.6c0.5-0.1,1.1-0.2,1.6-0.2h-0.1L147.9,7.2z M159.6,4.5l1-0.2
			C160.3,4.3,159.9,4.4,159.6,4.5z M160.6,4.3L160.6,4.3h0.1H160.6z M160.7,4.3c0.2,0,0.3,0,0.5-0.1L160.7,4.3z M163.6,3.7l1.5-0.3
			C164.6,3.3,164.1,3.4,163.6,3.7z M165.1,3.6c0.6,0,1.1-0.1,1.6-0.3C166.2,3.4,165.6,3.5,165.1,3.6z M172.6,3.2
			c0.4,0.3,0.8,0.3,1.3,0H172.6z M169.9,3.9l-1.3,0.4l1.3-0.2V3.9z M167.1,4.1c-1.2,0.1-2.4,0.3-3.6,0.6V5L167.1,4.1z M248.6,6.7
			c0.3,0.1,0.6,0.1,0.9,0.2c0.9,0.1,1.8,0.4,2.7,0.7h-0.1c0.1,0.1,0.3,0.1,0.4,0.1l0.4,0.1c-0.1,0-0.2-0.1-0.3-0.2l1,0.2L252,7.5
			h0.1H252h0.1l-0.3-0.1l0.2,0.1c-0.9-0.3-1.7-0.6-2.6-0.8l0.2,0.2L248.6,6.7z M253.5,7.9c-0.3,0-0.5,0-0.8-0.1l1.2,0.3h-0.1
			c0.2,0,0.4,0.1,0.6,0.2L254,8.1h0.2C254,8.1,253.7,8,253.5,7.9z M254.4,8.2l0.2,0.1h-0.4l3.6,0.9c-0.7-0.3-1.3-0.4-2-0.6l0.7,0.2
			c-0.4,0-0.7-0.1-1-0.3l0.3,0.1C255.3,8.5,254.9,8.4,254.4,8.2z M165.1,7.9l-2,0.9C164,8.9,164.7,8.6,165.1,7.9z M164.6,8.3
			l-0.2,0.2l1.1-0.4L164.6,8.3z M184.6,9l-0.4,0.4 M259.7,9.9c0.8,0.3,1.6,0.5,2.4,0.6c-0.8-0.5-1.6-0.7-2.4-0.7V9.9z M210.6,11
			l-3.1,0.9c-0.1,0.5-0.2,1.1-0.4,1.6h-1.3l0.9,0.4c-1.1-0.4-2.1-0.2-3.1,0.7h2.2l-2.4,0.7c2.4,0.6,5.7,0.6,8.4,0.2l-0.7,0.4h3.1
			l-2.7,0.9c1.5,0.2,2.9-0.1,4.2-1.1l0.7,0.7l-0.7,0.7l1.3-0.4v0.9c1,0.3,1.7-0.1,2.2-1.1c-0.5-0.5-1-0.5-1.6-0.2l0.4-0.7l-1.1,0.7
			l-1.1-0.4l0.7-0.2l-0.9-0.2l2.2-0.4l-2.7,0.2l1.3-1.1h-2.2l-0.2-0.4l-1.8,0.7l0.2-0.7h-2l1.3-0.7h-1.8l0.2-0.2
			c-0.5,0.3-1,0.5-1.5,0.6c0.9-0.4,1.6-1,2.3-1.7l-0.9-0.2h1.3L210.6,11z M134.8,11.6c-0.4,0.3-0.8,0.4-1.3,0.4L134.8,11.6z
			 M158.4,11.6l-2,0.4h2.2L158.4,11.6z M133.5,11.7c-0.1,0.1-0.2,0.1-0.3,0.1L133.5,11.7z M133.5,11.9c-0.6,0.2-1.2,0.4-1.8,0.6
			L133.5,11.9z M132.9,11.9c-0.1,0.1-0.3,0.1-0.4,0.1c0.1-0.1,0.1-0.1,0.2-0.2L132.9,11.9z M131.3,12.7c-0.4,0.2-0.8,0.4-1.3,0.4
			L131.3,12.7z M191.5,12.7l5.8,0.9l0.2-0.2C195.5,12.9,193.5,12.6,191.5,12.7z M192.4,16.3l-1.1,0.7c2,1.2,3.9,1.2,5.8,0.2h-4.7
			V16.3z M200.8,16.3l-2.7,1.6l0.7,0.7l1-0.2H199l1.8-0.9V16.3z M199.9,18.3L199.9,18.3h0.1H199.9z M200,18.3
			c0.8-0.3,1.6-0.4,2.4-0.4C201.6,17.3,200.8,17.4,200,18.3z M140.8,17.2l0.2,0.2c-0.7,0.9-1.6,1.1-2.5,0.7
			C139.2,17.7,140,17.4,140.8,17.2z M163.1,21.6l-1.6,0.7v0.9c-2.8,1.2-5.8,1.6-8.9,1.4c2.5-1.1,5.1-1.7,7.8-1.9h-1.8L163.1,21.6
			 M175.1,17.4v0.2 M142.8,18.5l0.4,0.9l2-0.4l-0.7,2c4-1.6,7-1.2,9.6,1.1c-1.4,0.9-3,0.9-4.4-0.1l0.4,0.7c-1,1.5-2.3,2.5-4,3.1
			v-1.6l-3.1,0.9c1.3-0.5,2.3-1.4,2.9-2.6c-2.2-0.9-4-0.3-5.3,1.6l0.4-0.9c-2.4,2.5-5.1,4.8-8,6.7c-0.1-2.4,1.1-4.2,3.5-5.3
			l-1.6,0.4l3.6-2.2l0.4,0.4c2-1.3,4.1-1.8,6.5-1.5L145,21l-1.6,0.2l0.4-0.4l-5.6,1.3l-0.4-0.4l-1.8,0.4l0.2-0.7
			c-1.7,1.3-3.5,1.9-5.5,1.8l0.7-0.4l-2.9,0.7c3.5-1.3,7.1-2.9,10.2-4.5l-0.7,0.7c0.7,0.1,1.1-0.2,1.3-0.9L142.8,18.5z M284.8,19.6
			c0.3,0.2,0.7,0.3,1.1,0.4L284.8,19.6z M286.6,20.5c0.8,0.3,1.6,0.7,2.4,1.2v-0.1C288.2,21.2,287.4,20.8,286.6,20.5z M289.1,21.7
			v0.1l2.7,1.3l-1.1-0.4c0.4,0.4,0.9,0.7,1.5,0.9l-2-0.9l1.8,0.9v0.2c1.1,0.8,2.2,1.3,3.5,1.7l-1.3-0.2l1.1,0.4h-0.2l0.9,0.4h-0.2
			l0.9,0.2v0.2c1,0.2,1.9,0.5,2.9,0.8c-2.2-1.1-4.3-2.4-6.3-3.8c0.8,0.5,1.7,0.9,2.6,1.3l-0.7-0.2c1.8,0.8,3.5,1.8,5.1,2.9l-0.4-0.2
			c0.6,0.3,1.2,0.6,1.8,1.1v0.2c1,1.2,2.2,1.8,3.5,1.8l-0.1-0.1l0.2,0.1h-0.1l0.7,0.7l-1.3-0.9c0.6,1.1,1.6,1.7,2.9,2l-0.9-0.7
			c0.8,0.4,1.6,0.9,2.4,1.3c0.2,0.2,0.4,0.3,0.7,0.4l-0.2-0.1c0.1,0.1,0.2,0.1,0.3,0.2l0,0c0.2,0.1,0.4,0.2,0.6,0.4l-0.4-0.2
			l0.1,0.1l-0.9-0.6l2.9,2l-0.9-0.7l0.4,0.2l-0.3-0.2h0.1c-0.9-0.6-1.8-1.2-2.7-1.7l0.2,0.2c-2.4-1.6-4.7-3.2-7.1-4.7
			c0.4,0.3,0.7,0.6,1.1,0.9C298.8,25.9,293.7,23.2,289.1,21.7z M311.5,34.7l0.3,0.3l-0.2-0.1c0.6,0.5,1.2,0.9,1.8,1.3l-3.1-2
			l3.1,2.2c-1.2-0.8-2.4-1.4-3.7-2c5.4,3.2,10.4,7.1,14.8,11.5c-3.2-2-7.2-3.9-10.5-4.9c3,2.2,5.6,5.1,7.3,8.4h0.7
			c0.1,0.8,0.6,1.3,1.5,1.3h-0.4c2.9,2.8,5.7,5.1,9.3,7.6l0.7-0.7l3.3,2l-0.2-1.3l0.7,0.4l-1.1-1.3c-0.7-1.1-2.3-3.2-3.4-4.6h0.9
			l-2.9-2.9c1.5,0,2.7,0.9,3.5,2.9l-0.4-0.7c0.1,0.1,0.2,0.2,0.3,0.3c-2.2-2-4.2-3.7-6.4-5.6l0.1,0.1c-0.1-0.1-0.2-0.2-0.3-0.3
			l0.3,0.1c-0.4-0.2-0.7-0.5-1-0.8l0.1,0.1c-0.1-0.1-0.2-0.2-0.3-0.3l0.3,0.1c-1.5-1.2-3.1-2.4-4.6-3.6l0.1,0.1
			c-0.2,0-0.4-0.1-0.5-0.3l0.4,0.2c-2.2-2.1-4.9-3.7-7.6-4.7c0.1,0.2,0.3,0.3,0.5,0.4c-0.7-0.4-1.5-0.9-2.2-1.4l0.4,0.2
			C312.2,36.4,311.7,35.7,311.5,34.7z M334.1,52.5c1.2,1.1,2.6,2.4,3.8,3.6l-0.1-0.2c0,0-0.1-0.1-0.1-0.1l0,0l0,0l-0.2-0.3
			c-1-0.9-2.2-2.1-3.2-3.1v0.1L334.1,52.5z M337.7,55.9l0.3,0.3V56L337.7,55.9z M338.1,56.2L338.1,56.2L338.1,56.2l0.1,0.2l0,0
			c2.5,2.3,2.5,2.2,0.1,0l0.2,0.2l-0.3-0.2l1.4,1.3l-1.6-1.4c0,0.1,0.1,0.1,0.2,0.1L338.1,56.2z M310.1,33.8
			c-0.2-0.1-0.3-0.2-0.5-0.3L310.1,33.8z M150.4,21l-3.6,0.4C148.2,22.1,149.4,21.9,150.4,21z M292,23.2l0.6,0.4l-0.6-0.1v-0.1
			l0.2,0.1L292,23.2z M292.4,23.4l0.4,0.2h-0.1C292.6,23.5,292.5,23.5,292.4,23.4z M154.6,24.7c-3.6,2.3-7.9,3.6-12.2,3.6l2.7-2
			l0.4,0.4c-0.8-0.1-1.3,0.2-1.5,0.8c2.3-1.2,4.8-1.7,7.4-1.7h-0.9C151.8,25.4,153.2,25,154.6,24.7z M98.2,28.1
			c-0.2,0.2-0.5,0.4-0.8,0.5l0.2-0.1l-0.2,0.2c0-0.1,0-0.1,0-0.2l0.3-0.2l-0.1,0.1L98.2,28.1z M316.4,38.3l0.4,0.3
			C316.6,38.5,316.5,38.4,316.4,38.3z M148.6,56.9l1.1,0.9l-0.9,1.3l0.4,0.2l0.9-1.8L148.6,56.9z M337.5,56.9l-0.2,0.2l1.3,1.1
			C338.4,57.7,338,57.2,337.5,56.9z M61.5,58.7l-0.9,1.1v-0.4L61.5,58.7z M334.8,100.4l-0.6,0.4c0.4,1.6-0.2,2.9-1.6,3.8
			c1.9,1.2,3,2.8,3.3,4.9l2,0.2c-1.1,0.5-2,0.3-2.7-0.7l0.4,2.7l1.3,0.2l-1.3,0.2l2,0.9l-0.9,0.4l1.3,0.7v0.7h2.2l-1.3,0.2l1.3,0.9
			l-1.1,0.4l0.9,1.3l0.4-0.4v0.9l0.9-0.2c0.3,2.1,1.3,3.7,3.1,4.9l-0.2,0.7c1.3,0.7,1.9,1.9,1.8,3.6l0.7,0.2H346
			c3.9,6.4,8.7,12.6,14,18.2c4.2-1.2,7.8,0.3,10.4,4.2c3-1.2,6-1.3,8.9,0l-0.4,0.4c1.4,0.8,2.2,2.1,2.4,3.8l0.4-0.4l-0.2,0.7
			l0.7,0.7l-0.7-0.2l0.4,0.9l0.4-0.2c-0.5,1.8,0.2,3.7,1.6,5.1v-0.9l0.2,0.9l-0.2-1.1l0.4,1.3v-1.1c0.1,0.9,0.6,1.6,1.5,2l-0.2-1.3
			l0.7,1.8l0.2-0.7l0.7,3.1h0.4l0.2,1.1l-0.2-0.4c0.4,3.7,0.5,7.4,0.4,11.1l-0.4-0.4c0.3,0.6,0.6,1.1,0.9,1.7H388v-1.3l-0.4,3.3
			l-0.4-0.7c1.4,7.4,2.5,14.9,3.3,22.3l-0.4-0.2c-2.8,30.2-12.2,61.4-24.6,89.9l-0.9,0.2l-2.4,4.9l0.7-0.2c-0.6,1.1-0.9,2.2-0.9,3.3
			h2.7v2.9c10.5-6.7,18.8-18.7,22.4-32l-0.2,0.9l0.4-1.3h0.2c1.7-5.6,3.3-10.9,4.8-16.4l0,0c0.5-2,0.9-3.9,1.4-5.9v0.4
			c0.5-1.9,1-3.8,1.3-5.7l-0.2,0.5c-0.1-0.5,0-0.8,0.3-1.1v0.4c0.2-1.1,0.4-2.1,0.6-3.2c-0.1,0.1-0.2,0.2-0.2,0.4
			c1.6-7.8,2.5-16,2.9-24l0,0c1-18.2,0.1-36-2.6-53.5l0.2,0.9l-0.2-1.1v0.2c-1.4-7.1-3.3-14.4-5.5-21.1l0,0c0-0.5-0.2-1-0.4-1.5l0,0
			c-0.1-0.5-0.2-1-0.4-1.5l0,0c-0.1-0.6-0.3-1.3-0.7-1.8l0.2,0.5c-0.6-2.3-1.3-4.6-2.3-6.8l0.2,0.2c-2.1-5.7-4.4-11.2-7.2-16.7
			l0.1,0.3l-0.1-0.2l0,0c-3-6.4-6.3-12.5-9.9-18.5l0,0c-5.2-7.7-10.7-15.2-16.5-22.4c0.9,1.1,1.7,2.1,2.6,3.2l-2-2.5l0.5,0.3
			c-1-1.1-2-2.2-2.9-3.3l0.5,0.6l-0.3-0.3l0.6,0.7c-0.2-0.2-0.4-0.4-0.6-0.6v0.1l-0.2-0.2l0.9,1.1c-2.9-3.2-6.2-5.7-10-7.8l-0.2,0.7
			l-1.1-0.7l-0.2,0.7c-2.6-1.5-5.1-3.2-7.5-4.9L334,62l-2.2,1.6c2.3,2.7,3.4,5.7,1.6,8.6l-2.2-0.2v2.7l-1.3,0.7
			c1.4,2.1,1.2,3.9-0.6,5.2l0.2-0.2c-0.8,2.5-0.9,4.9-0.3,7.4l0.2-0.7c3,3.9,4.7,8.9,4.8,14C334.4,100.9,334.6,100.7,334.8,100.4
			L334.8,100.4 M350.6,69.5c-0.4-0.5-0.8-1-1.2-1.5l0.2,0.3l-0.5-0.6l0.1,0.1c-0.5-0.6-1.1-1.2-1.7-1.8
			C348.5,67.2,349.5,68.4,350.6,69.5z M347.7,66.2l1.1,1.1l-1.2-1.2L347.7,66.2z M347.7,66.1c-0.1-0.2-0.2-0.4-0.5-0.4L347.7,66.1z
			 M347.2,65.6l-0.3-0.3v0.1l0,0C347,65.5,347.1,65.6,347.2,65.6z M347,65.4l-0.3-0.3L347,65.4c-0.3-0.6-0.9-1.2-1.4-1.6l0,0
			C346.1,64.3,346.6,64.8,347,65.4z M348.8,67.3l0.3,0.3C349,67.5,348.9,67.4,348.8,67.3z M349.7,68.3c0.2,0.2,0.5,0.5,0.7,0.7
			L349.7,68.3z M350.4,69.1l0.3,0.4C350.6,69.4,350.5,69.3,350.4,69.1z M350.7,69.5c-0.3-0.4-0.6-0.7-0.9-1l1.1,1.2L350.7,69.5
			L350.7,69.5z M399.5,205.6l-0.1,1.6C399.6,206.7,399.6,206.2,399.5,205.6z M399.1,213.8l-0.2,1.7
			C399.3,215,399.4,214.5,399.1,213.8z M398.4,220.4c0.4-0.7,0.5-1.4,0.2-2.2L398.4,220.4z M398.1,223.9l-0.1,1
			c0.2-0.6,0.2-1.1,0.2-1.7L398.1,223.9z M395.3,241.4l-0.1,0.2L395.3,241.4L395.3,241.4z M394,247.3c-0.2,0.3-0.3,0.6-0.2,0.9
			L394,247.3z M393.6,248.5c0,0.2,0,0.3,0,0.5l0.2-0.8L393.6,248.5z M393.5,249v0.1V249L393.5,249z M393.5,249.1
			c-0.1,0.2-0.2,0.5-0.2,0.7L393.5,249.1z M393.3,249.9v0.2V249.9L393.3,249.9z M393.3,250c-0.1,0.2-0.2,0.5-0.2,0.7L393.3,250z
			 M393.1,250.7l-0.1,0.2C393.1,250.9,393.1,250.8,393.1,250.7z M393,250.9c-0.1,0.2-0.2,0.4-0.2,0.6L393,250.9z M392.9,251.6
			l-0.1,0.3C392.9,251.8,392.9,251.7,392.9,251.6z M392.8,251.9L392.8,251.9c-0.1,0.2-0.1,0.4-0.1,0.6L392.8,251.9z M392.6,252.4
			l-0.1,0.4C392.6,252.7,392.6,252.5,392.6,252.4z M340.6,58.9c1.1,2.3,2.7,3.9,4.8,4.9c-0.6-0.6-1.1-1.2-1.5-1.8
			c-0.9-0.8-2-1.9-2.9-2.8C340.8,59.2,340.7,59.1,340.6,58.9z M150.6,60l1.6,1.1l-0.2,1.1l0.4-1.3L150.6,60z M342,60.1l0.8,0.8
			l-0.1-0.1l0.4,0.4H343c0.4,0.4,0.7,0.7,1.1,1.1c-0.3-0.3-0.7-0.7-1-1l0.1,0.1l-0.2-0.3l0.1,0.1L342,60.1z M145.9,61.3l-1.1,1.6
			l1.3,0.4l0.9-0.9L145.9,61.3z M147.3,63.3l-0.9,0.4l0.3,0.4L147.3,63.3z M146.7,64.1L146.7,64.1L146.7,64.1L146.7,64.1z
			 M146.7,64.2l0.4,0.5l0.4-0.7L146.7,64.2z M136.2,67.3c-4.8,0.7-8.7,2.4-12,5.1c3.3-1.6,6.7-2.7,10.3-3.1l-1.6,0.4
			c4.2-0.5,8.6,0.4,11.6,2.8h2.7l0.4,0.9l-2.2,1.6c4-0.2,7.9-0.9,11.6-2.2l-4.9-0.7l0.2-1.1C147.1,69.4,141.6,68.2,136.2,67.3z
			 M322,68l0.9,0.9l0.7-0.9H322z M328.2,68.4l-0.2,0.4h0.7L328.2,68.4z M324.8,69.3v0.4l0.9,0.2L324.8,69.3z M328,69.3l-0.4,1.1h0.9
			L328,69.3z M160.6,69.8l-2.2,0.9h1.8L160.6,69.8z M63.3,71.3L62.6,72l0.2,0.4L63.3,71.3z M129.9,71.3l-0.2,1.3l1.6-0.4l-0.4-0.9
			H129.9z M161.1,73.3l-2.2,0.9l2.4,0.4l-0.4,1.1l1.3,1.3c-3-1.4-5.3-1.1-6.9,0.9c2.4,1.6,5,1.6,7.8-0.2l2,1.8
			c2.9-2.5,7.1-3.5,10.2-3.3l-4.2-1.1l1.8-0.7l-2,0.2l-0.7-1.1L161.1,73.3z M184.2,76.4l-5.3,0.2l0.2,1.1
			C181.2,78.4,182.9,77.9,184.2,76.4z M147.5,78.6l-4.7,0.7c2.1,1.3,4.5,1.4,6.9,0.5L147.5,78.6z M197.9,81.3l-1.1,0.7l0.7,0.9
			l1.3-0.7L197.9,81.3z M370.3,96.4l0.3,0.4C370.5,96.7,370.4,96.6,370.3,96.4z M199.7,97.9l-2.4,0.2l0.7,1.3l-1.6,0.7l3.1-0.2
			L199.7,97.9z M316.2,98.2l0.2,1.1h0.9L316.2,98.2z M379.4,113.1l0.2,0.4C379.5,113.4,379.4,113.3,379.4,113.1z M386.9,130.5
			l0.1,0.3L386.9,130.5L386.9,130.5z M238.8,132.1l-2.4,0.2l1.3,1.1L238.8,132.1z M387.7,132.7l0.3,0.8
			C387.8,133.3,387.7,133,387.7,132.7z M98.4,140.8l-0.7,0.7l1.6,1.8l-1.3,1.1c1,0.3,1.7,0,2.2-0.9L98.4,140.8z M386.9,164.5
			l-0.4,0.7l0.4,0.9V164.5z M398.9,216l-0.2,1.9C399.1,217.3,399.1,216.7,398.9,216z M398.4,221.5v0.3
			C398.4,221.7,398.4,221.6,398.4,221.5z M397.3,228.4l-0.4,2.2C396.9,229.9,397.1,229.1,397.3,228.4z M397.3,228.6
			c0.1,0.5,0,1-0.2,1.4L397.3,228.6z M396,236.6l-0.4,1.6C395.6,237.6,395.7,237.1,396,236.6z M395.5,240c-0.1,0.3-0.1,0.6-0.2,0.9
			C395.3,240.6,395.3,240.3,395.5,240z M394.9,242.8l-0.1,0.5C394.8,243.1,394.8,243,394.9,242.8z M394.8,243.3
			c-0.1,0.6-0.2,1.3-0.4,1.9C394.5,244.5,394.6,244,394.8,243.3z M394.4,245.3c-0.2,0.5-0.3,1-0.4,1.5
			C394,246.2,394.1,245.7,394.4,245.3z M168.4,272.8l0.9,0.7l-0.9,0.4V272.8z M165.7,275.7v4.9c0.9,0.5,1.6,0.2,2.2-0.7l-0.9-4.2
			H165.7z M169.7,283.7l-0.9,0.9l1.1,0.7L169.7,283.7z M167.1,289.9l0.9,0.2l-0.4,0.9L167.1,289.9z M167.9,295.6l-0.4,1.6h1.3
			L167.9,295.6z M171.9,296.1l0.9,1.3v-1.1l1.1,2l-2-0.4V296.1z M168.2,297.4l0.2,2h-1.6l1.3,1.8l0.7-2l-0.2,2.2l1.1-0.7
			L168.2,297.4z M172.2,301.2l2.9,0.2l-2.2,0.7l0.2,0.9L172.2,301.2z M167.5,301.6l0.4,1.1l0.4-1.1H167.5z M203.9,303.9v1.6l2.7-0.2
			l-0.4-0.9l-0.7,0.9L203.9,303.9z M203.9,305.4l-1.8,1.1l0.9,0.7c0.3-0.8,0.8-1.1,1.6-1.1L203.9,305.4z M200.2,304.1l1.6,1.1
			l-1.6-0.2l1.1,0.4l-1.8,0.9c1.8,0.3,3.1-0.4,4-2C202.4,304.4,201.3,304.3,200.2,304.1z M183.1,308.1l-3.3,0.9l0.2,1.8h2.2
			l-1.1,1.8l2.4,1.1l-0.7,0.7l-0.4-0.9l-0.4,0.7l-2.7-1.1l1.8,1.1l-1.1,0.2l-0.2-0.9l-2.2,1.1c4.6,0.8,9.4,0.5,13.8-0.7
			C187.3,313.6,184.6,311.7,183.1,308.1z M175.1,309l-0.4,1.6l1.1,0.7l-0.4-0.7l2-1.6H175.1z M170.8,309.4c1,1,2.3,1.5,3.8,1.5
			L170.8,309.4z M174.6,311l-1.1,1.1l1.3,0.9l0.9-0.7L175,313l1.6-0.9L174.6,311z M179.9,311.2l-0.7,1.3l1.6,0.7L179.9,311.2z
			 M177.7,312.5l0.2,0.7l1.3,0.2L177.7,312.5z M184.6,315l-3.1,0.7l1.6,1.1l-0.4-0.9h1.3v0.7l1.8,0.4l-2.2-1.6L184.6,315z
			 M245.3,315.2l2.9,2.7l-0.2-2L245.3,315.2z M207.3,336.9l-0.7,0.7l2.2-0.2L207.3,336.9z M205.3,337.1c-3.5,0.5-6.5,2.1-8.9,4.7
			l-1.1-0.2l0.4,1.1l-2.7,1.6v1.3h-1.3l0.4,1.6l-1.6-0.7v1.3l1.6-0.2l-0.9,1.1l0.9,0.7l-2.2,2.7l0.7,0.9l-0.9,0.4l-2.2-2.7l-1.8,0.9
			l0.7,0.7h-1.1l0.2,0.7l-4.2,0.4c1,0.5,1.9,1,2.9,1.6l-1.1,0.9l2.7,0.2l-2,1.6c2.6-0.3,4.2,0.7,4.7,3.1l-5.8-1.3l-1.3,1.1l1.3,1.1
			c-3-1.8-6.4-1.7-10,0.2l-0.7-1.1c-2.4,1.8-4.9,2.4-7.5,1.8l0.4-0.4c-2.6-1.3-5.1-0.5-6.5,2c1.4,1.3,3,1.8,4.9,1.3l-1.1,0.4
			l3.8,2.4l-2.9,0.2l0.9,0.9l-2.2-1.8l-1.6,0.4l0.4,1.3c-4.7,0-8.7,0.6-13.2,2c1.5,1.8,2,3.8,1.6,6h-1.3c0.8,0.5,1.6,0.9,2.4,1.3
			l0.4,2l1.6,0.2l0.2,2c1.1-0.2,2.2,0.1,3.1,0.9l-0.7,1.3c5.3,2.9,9.9,5.6,14.8,8.5c-1.9,0.6-4,0.6-6,0.2v0.2
			c-4.5-0.6-9-1.3-13.5-2.2v0.9l3.3,1.1c0,0.1,0,0.3,0,0.4c3.2,1,6.4,1.8,9.7,2.4l-1.1-0.2c1.1,0.3,2.2,0.5,3.4,0.6l-1.1-0.2
			c2.6,0.4,5.1,0.9,7.7,1.3c6.7,1.1,13.5,1.7,20.4,1.9l0,0c1.8,0,3.7,0,5.5,0v-0.1c2.8,0,5.4,0,7.9-0.1l-0.1,0.1
			c-0.2,0-0.3,0.1-0.5,0.1c0.1,0,0.3,0,0.4,0l0,0c1.6-0.1,3.1-0.2,4.7-0.3l-1.1,0.1c1.3,0,2.5,0,3.8-0.2H212c2.2,0,2.2-0.1,0.9,0.1
			c1-0.1,1.1-0.1,2.3-0.2H215c0.3,0,0.7,0,0.9-0.1l-0.7,0.1c0.4,0.1,0.8,0.1,1.1-0.1c0.1,0,0.2,0,0.3,0l-0.4,0.1
			c0.4-0.1,0.9-0.2,1.3-0.2c0.8,0,1.6-0.1,2.4-0.2h-0.2c0.3,0,0.5-0.1,0.8-0.1c-0.1,0.2-0.3,0.2-0.6,0.1c15.6-1.7,31.4-5.1,46.4-9.9
			h-3.9c4-1.5,8-3.6,11.3-5.9l-2.7,0.9l2-1.1c-0.8,0.1-1.5,0.3-2.3,0.4l2-1.1l-1.1,0.2c-1.4-1.7-3.4-1.9-5.5-0.9
			c0.7-0.3,1.3-0.6,2-0.9l-0.2-0.2l3.8-2.4c-1-0.1-2,0.2-2.9,0.7v-0.4l1.8-1.1l-2.4,0.2L268,376l-1.8-0.9c0.6-1.2,1.1-2.3,1.5-3.5
			l-1.1-0.7l1.6-0.9c-2.7-0.2-4.4-0.8-6.4-1.8l-2-2.7c0.9-0.7,1.8-1.4,2.6-2.2l-0.7-0.2c-2.7,2-5.9,2.1-9.2,0.6l-0.2-0.9
			c-4.2,1.5-8.7,1.9-12.7,1.1c-8.3,4.1-17.8,6.4-26.5,6.2l-0.2-0.4c-4.6-0.5-10.2-2.8-14.4-6c0.9-5,2-9.3,3.5-14.4l-1.3-0.2
			c-1.8-4.1-0.4-7.9,3.3-10.5l-0.6,0.5l0.4,0.9l1.6-0.4l-1-1l1.7-0.5L205.3,337.1z M197.1,339.1l-0.2,1.1l1.1-0.9L197.1,339.1z
			 M195.9,339.6l-1.3,1.1c0.7-0.1,1.3-0.2,2-0.2L195.9,339.6z M190.4,345.6l-1.6,2.4l1.3-0.4L190.4,345.6z M157.1,367.1
			c0.8,1.1,1.8,1.5,3.1,1.3C159.5,367.3,158.5,366.9,157.1,367.1z"/>
	</g>
	<g id="South_America">
		<polygon fill="#FEC010" stroke="#000000" stroke-linecap="round" stroke-linejoin="round" points="167.7,291.1 168.1,290.2 
			167.2,290 		"/>
		<polygon fill="#FEC010" stroke="#000000" stroke-linecap="round" stroke-linejoin="round" points="174.3,308.2 174.5,307.1 
			174.5,308.4 175,306.4 173.4,305.7 173.7,304.6 172.8,305.5 174.8,306.4 173,305.7 173.7,307.3 174.1,307.3 		"/>
		<polygon fill="#FEC010" stroke="#000000" stroke-linecap="round" stroke-linejoin="round" points="173,306.2 173.2,307.3 
			173.7,307.3 		"/>
		<polygon fill="#FEC010" stroke="#000000" stroke-linecap="round" stroke-linejoin="round" points="168.5,274 169.4,273.6 
			168.5,272.9 		"/>
		<polygon fill="#FEC010" stroke="#000000" stroke-linecap="round" stroke-linejoin="round" points="171.9,302.4 171.2,304 
			172.5,303.3 		"/>
		<polygon fill="#FEC010" stroke="#000000" stroke-linecap="round" stroke-linejoin="round" points="173.2,303.1 173,302.2 
			175.2,301.5 172.3,301.3 		"/>
		<polygon fill="#FEC010" stroke="#000000" stroke-linecap="round" stroke-linejoin="round" points="173,296.4 173,297.5 
			172.1,296.2 172.1,298 174.1,298.4 		"/>
		<polygon fill="#FEC010" stroke="#000000" stroke-linecap="round" stroke-linejoin="round" points="174.8,310.2 174.5,308.6 
			173.9,310 		"/>
		<path fill="#FEC010" stroke="#000000" stroke-linecap="round" stroke-linejoin="round" d="M201.9,304.4l-1.6-0.2l1.6,1.1l-1.6-0.2
			l1.1,0.4l-1.7,0.9c1.8,0.3,3.1-0.4,4-2H201.9z"/>
		<polygon fill="#FEC010" stroke="#000000" stroke-linecap="round" stroke-linejoin="round" points="165.9,292.2 165.2,291.5 
			165,291.8 		"/>
		<path fill="#FEC010" stroke="#000000" stroke-linecap="round" stroke-linejoin="round" d="M203.2,307.3c0.3-0.8,0.8-1.1,1.6-1.1
			l-0.7-0.7l-1.8,1.1L203.2,307.3z"/>
		<polygon fill="#FEC010" stroke="#000000" stroke-linecap="round" stroke-linejoin="round" points="206.3,304.4 205.7,305.3 
			204.1,304 204.1,305.5 206.8,305.3 		"/>
		<polygon fill="#FEC010" stroke="#000000" stroke-linecap="round" stroke-linejoin="round" points="245.5,315.3 248.3,317.9 
			248.1,315.9 		"/>
		<path fill="#FEC010" stroke="#000000" stroke-linecap="round" stroke-linejoin="round" d="M168.1,280l-0.9-4.2h-1.3v4.9
			C166.8,281.2,167.5,280.9,168.1,280z"/>
		<path fill="#FEC010" stroke="#000000" stroke-linecap="round" stroke-linejoin="round" d="M165.2,291.5l0.2-0.1L165.2,291.5z"/>
		<polygon fill="#FEC010" stroke="#000000" stroke-linecap="round" stroke-linejoin="round" points="237.9,133.5 239,132.2 
			236.6,132.4 		"/>
		<polygon fill="#FEC010" stroke="#000000" stroke-linecap="round" stroke-linejoin="round" points="169.9,283.8 169,284.6 
			170.1,285.3 		"/>
		<path fill="#FEC010" stroke="#000000" stroke-linecap="round" stroke-linejoin="round" d="M134.5,145.1l0.5-0.5
			c-0.3,0.2-0.7,0.3-1.1,0.2l0.4,0.9L134.5,145.1z"/>
		<polygon fill="#FEC010" stroke="#000000" stroke-linecap="round" stroke-linejoin="round" points="175.2,309.1 174.8,310.6 
			175.9,311.3 175.4,310.6 177.4,309.1 		"/>
		<polygon fill="#FEC010" stroke="#000000" stroke-linecap="round" stroke-linejoin="round" points="168.1,295.7 167.7,297.3 
			169,297.3 		"/>
		<polygon fill="#FEC010" stroke="#000000" stroke-linecap="round" stroke-linejoin="round" points="173.7,312.2 175,313.1 
			175.9,312.4 175.2,313.1 176.8,312.2 174.8,311.1 		"/>
		<polygon fill="#FEC010" stroke="#000000" stroke-linecap="round" stroke-linejoin="round" points="169.9,300.9 168.3,297.5 
			168.5,299.5 167,299.5 168.3,301.3 169,299.3 168.8,301.5 		"/>
		<polygon fill="#FEC010" stroke="#000000" stroke-linecap="round" stroke-linejoin="round" points="168.1,302.8 168.5,301.7 
			167.7,301.7 		"/>
		<polygon fill="#FEC010" stroke="#000000" stroke-linecap="round" stroke-linejoin="round" points="179.4,312.6 181,313.3 
			180.1,311.3 		"/>
		<polygon fill="#FEC010" stroke="#000000" stroke-linecap="round" stroke-linejoin="round" points="172.5,310.6 174.8,311.1 
			171,309.5 		"/>
		<path fill="#FEC010" stroke="#000000" stroke-linecap="round" stroke-linejoin="round" d="M97.9,141.5l1.5,1.8l-1.3,1.1
			c1,0.3,1.7,0,2.2-0.9l-1.8-2.7L97.9,141.5z"/>
		<path fill="#FEC010" stroke="#000000" stroke-linecap="round" stroke-linejoin="round" d="M282.6,171.9
			c6.2-16.3-3.9-25.6-22.5-29.1l-4.9,2.9c-0.2-1.6,0.4-2.6,1.8-3.1l-2.2,0.2l1.8-1.3l-1.1-2.2l-1.6,1.3l-0.2-1.8l-0.7,0.7l0.5-0.7
			l-1.2,0.3l-0.8-1.4l-0.5,0.9l-0.2-1.3l-0.5,0.6L247,136l-0.2,0.6l-2.2-0.6l-1.6,2.4l1.3,0.4l-1.1,0.5l-0.9-1.1l-2.8,3.1
			c1.6-2.6,2.2-3.7,4-6.7l-6.9-1.1l-1.6,2.9v-1.6l-1.5,1.4v-1.6l-1.6,1.6c0.9-3.2,3-5.5,6.2-6.9h-0.6l0.6-1.6c-3-2.1-5-5.4-5.8-9.1
			l-0.2,1.1c-7.3-4.3-15.2-7.6-23.3-9.7l-1.1,1.5l0.6-2.8c-2-2.7-4.9-4.2-8.2-4v-2.5c-1.5-1.6-3.2-1.9-5.1-1.1
			c-5.5-2.7-13-3.1-19.8-1.5l-0.9-2.3l-4-0.4l-1.3-2.2l-0.7,1.7l1.4-0.2v0.7c-2.2-0.6-4.2,0.1-6,2.2c0.2,1.3,0.8,2.3,1.7,3.1
			l-0.2,1.3l-2.2,0.9l-1.3-2.2c0.8-0.8,1.5-1.6,2-2.6l-1.4-2.7l3.1-1.6l-2-1.1c-2.2,2.9-5,4.3-8.4,4l-0.5,1.1
			c-3.2-0.1-5,1.7-4.6,4.9l-4.5,3.1l0.5,2h-1.3c-0.3,1.3-1,2-2.2,2.1c2.4,2.8,2.6,6.1,0.6,9.9l1.5,0.7c-0.8,2.7-2.5,4.5-5.1,5.3v2.2
			l-1.8,0.5l0.5,1.7c-1.6,0.1-2.8,0.6-3.8,1.6c0,0.6,0.2,1.2,0.5,1.8c-0.8,0.5-1.4,1.2-1.8,2.2l0.6,0.6l-2,1.6v4.2l2.3,1.1
			c0.1-0.8,0.5-1.3,1.1-1.7l0.6,1.1c-0.7,2.8-2.4,4.8-5.1,6.2l1.6,4.4l-0.9,1.3c18.3,26.8,48.7,42.2,37.6,79.5
			c0.7,8.5-0.7,17.7-4,25.5c1.2,4.9,2,9.5,2.4,13.8l-0.4,0.7l1.7-1.2l1.2,0.5l0.6-0.7L169,276l1.5,0.7l-0.2,1.1l-1.1-0.7l1.1,1.1
			l-0.9-0.4c-0.9,1.9-0.6,3.3,0.9,4.2l-1.1,1.1l2,1.1l-2,2.2l1.8,0.7l-1.8,0.2v1.1l1.1-0.6l-0.6,2.8l-0.9-1.1l-1.4,0.3l1.1-0.3h-0.8
			l0.4-1.1l-0.7,0.9l-0.9-0.7l-0.8,0.3l1.5,0.4c-0.4,0.9-1,1.6-1.8,2.1l1.1-0.8l0.5,1.2l1.3-0.3l0.9,1.4l-1.1,0.8h1.3l-1.7,0.7
			c1.5-0.8,2.7-0.6,3.7,0.7l-1.1-0.2l0.9,1.1l-3.1-0.7l2,1.1l-1.1,0.7l0.9,0.4l-0.5,2l0.7-0.6l1.3,1.5l-1.5-0.2
			c0.3,0.7,0.8,1.4,1.3,2l-1.8-0.2l1.6,0.4l0.2,1.6l0.7-1.6l0.6,0.9c-0.6,0.3-1.1,0.6-1.7,0.9l1.3,0.4l-0.2,1.6l1.3,1.1l-0.2-1.1
			l0.7,1.1l-0.7-1.6l1.8,0.7l-2-0.9l0.9-0.9l-0.3,1.1l1.6,0.7l-0.5,2v-1.3l-0.2,1.1l-0.2-0.9c-0.5,0-1.1,0-1.6,0l0.5,2.2
			c1.2-1.1,2.7-1.4,4.4-0.9l0.7,1.6l-1.1,1.3l0.2-0.9l-1.3,0.5l2.6,1.3l0.3-3.6c1.6-1.4,3.4-1.8,5.3-1.3l-1.5-2h-1.4l1.4-0.2
			l-1.4-1.3l2-2.9c-0.4-0.4-0.7-0.9-0.9-1.4c0.3,0.4,0.6,0.8,0.9,1.2l0.9-0.3c-0.1-3.1,1.4-5.2,4.5-6.6l-0.3-2.2
			c-2.3,0.1-3.8-1.1-4.6-3.4c0.5-2.6,2.1-3.8,4.9-3.8c-0.7-2.8,0.1-4.9,2.6-6.2l-1.8-1.1l1.6-0.4l0.7,1.1l1.3-0.9l-0.4-1.5l-1.8,1.1
			l-1.6-1.1l-0.2-4.5c2.2,1.6,4.6,1.8,7.1,0.5v-5.4l0.9,0.5l-0.9-2c7.5,1.6,13.3-1,15.6-8l-1.8-1.3l0.7-2.3l-4-3.1l0.6-4.4
			c8.4,10.4,16.2,4.5,22.3-8.4l-0.7-1.4l2,1.8l-4.9,5.5c7.5-6,12.1-13.5,13.3-21.9l-1.1-0.7l1.6,0.5c3.8-3.6,7.8-6.1,12.6-7.8
			l2.5,0.7l1.6-1.2v1.2l3.3,0.2l0.2-1.6l3.3-1.3c5.2-9.6,8.8-20.7,10.5-32.3l0.7,2C277.3,178.1,280.1,175.1,282.6,171.9z"/>
		<polygon fill="#FEC010" stroke="#000000" stroke-linecap="round" stroke-linejoin="round" points="184.8,315.1 181.7,315.7 
			183.2,316.8 182.8,315.9 184.1,315.9 184.1,316.6 185.9,317.1 183.7,315.5 		"/>
		<polygon fill="#FEC010" stroke="#000000" stroke-linecap="round" stroke-linejoin="round" points="172.1,296.2 173,297.5 
			173,296.4 174.1,298.4 172.1,298 		"/>
		<polygon fill="#FEC010" stroke="#000000" stroke-linecap="round" stroke-linejoin="round" points="173,302.2 173.2,303.1 
			172.3,301.3 175.2,301.5 		"/>
		<polygon fill="#FEC010" stroke="#000000" stroke-linecap="round" stroke-linejoin="round" points="167.7,291.1 167.2,290 
			168.1,290.2 		"/>
		<path fill="#FEC010" stroke="#000000" stroke-linecap="round" stroke-linejoin="round" d="M183.2,308.2l-3.3,0.9l0.2,1.7h2.2
			l-1.1,1.8l2.5,1.1l-0.7,0.7l-0.4-0.9l-0.5,0.7l-2.7-1.1l1.8,1.1l-1.1,0.2l-0.2-0.9l-2.2,1.1c4.6,0.9,9.4,0.6,13.7-0.7
			C187.4,313.6,184.7,311.7,183.2,308.2z"/>
		<polygon fill="#FEC010" stroke="#000000" stroke-linecap="round" stroke-linejoin="round" points="168.5,274 168.5,272.9 
			169.4,273.6 		"/>
		<polygon fill="#FEC010" stroke="#000000" stroke-linecap="round" stroke-linejoin="round" points="177.9,312.6 178.1,313.3 
			179.4,313.5 		"/>
	</g>
</g>
</svg>
