<?xml version="1.0" encoding="utf-8"?>
<!-- Generator: Adobe Illustrator 23.0.0, SVG Export Plug-In . SVG Version: 6.00 Build 0)  -->
<svg version="1.0" id="globes" xmlns="http://www.w3.org/2000/svg" xmlns:xlink="http://www.w3.org/1999/xlink" x="0px" y="0px"
	 viewBox="0 0 400 400" enable-background="new 0 0 400 400" xml:space="preserve">
<path id="path6968_2_" opacity="0.5" fill="#86CAD9" enable-background="new    " d="M399.8,200.1c0.5-68.8-37.4-136-96.4-171.1
	C243.8-7.8,164.8-9.4,103.7,24.8C42.8,57.5,1.6,124,0.1,193.3C-3.4,266.2,37.5,339,101.4,374.1c60.6,35.2,140,34.5,200-1.8
	C361.7,337.7,400.4,269.7,399.8,200.1L399.8,200.1z"/>
<g id="Land_2_">
	
		<path id="path5584" opacity="0.5" fill="#FFFFFF" stroke="#000000" stroke-width="0.25" stroke-linecap="round" stroke-linejoin="round" enable-background="new    " d="
		M193.5,0.1L193,0.3C193.2,0.3,193.4,0.3,193.5,0.1z M102.4,98.7l2,0.9c-0.4-0.5-0.7-1-0.9-1.5c0.3,0.2,0.5,0.2,0.8,0.2l-0.2-0.4
		h1.1l-0.9-0.4l0.9-0.2v-0.7c4.4-0.4,7.5-3.1,8.3-7.6l0.9-0.2c-0.2-6.6-3.1-11.1-8.7-14.6c1.2-2,2.4-3.8,3.7-5.4h0.7l-0.5-0.6
		c2.1-0.9,3.7-1.6,5.8-2.5l0.4-1.1l1.3,0.9l1.6-1.1l0.9,0.7c-1.2,0.8-1.5,1.8-0.9,3.1l1.1-0.2l0.9-3.1l0.2,0.6
		c2.3,0.1,3.5-0.7,3.8-2.3l2-0.2l0.2-0.7h1.5l0.5-1.6l0.2,0.9l0.7-0.7l0.7,0.2v-2.2l2.4,1.8l-0.2-0.7l2-1.1v0.7l1.6-0.9l0.7,0.5
		c1.6-0.2,2.9-0.8,3.8-2l-0.6-0.4c1.6,0.2,2.5-0.3,2.8-1.6l0.7,0.4l1.8-1.3l-0.9-0.4l2.7-0.4l-0.2-0.9h1.3l-0.2-0.9h1.3l0.2-0.9
		l0.9,0.4l-0.2-1.6l1.6-0.9h-1.1l0.7-0.2l-0.7-0.7c2.1,0.7,3.6-0.3,4.4-2.9l-0.6-0.2l3.1-0.7l-0.7-0.9l1.3-0.6l-0.9-0.5l1.6-0.2
		l0.2-0.9l-1.8,0.5l2.5-1.1c-2-0.5-3.7-0.5-5.8,0l5.6-2l-2.9-1.6h3.1l-2.7-1.3l-0.7-3.1c-0.9-0.3-1.9-0.4-2.9-0.4
		c1.1-0.9,2.5-1.9,3.8-2.6l-0.4-0.2l1.5-0.2c1.7-0.8,4.3-2,6.2-2.7c-3.5-0.6-6.6-0.1-9.7,1.6l-0.2-1.8H152c3.5-2.1,8.3-4.1,12.5-5.4
		l0.7,0.7l-3.1,2l1.8-0.2l-2.4,1.3c3.8-2.1,7.8-2.9,12-2.4l-1.3,1.3l1.1,0.2c-1.2-0.2-2.1,0.1-2.7,1.1l1.6-0.2l-0.9,0.5
		c0.8,0.2,1.4,0.1,1.8-0.4l2.4,0.5l0.7,1.6c-0.7-0.6-1.5-0.5-2.2,0.2l0.9,0.5l0.2-0.5l-0.2,0.9h1.1l-2,2l0.9,0.7l-1.1,0.2l0.6,0.4
		l2.2-1.1l0.2,0.7l0.4-0.9l0.9,0.7l-0.2-0.9l2,0.4l0.7-0.9l1.3,0.2c2.7-3.6,0.7-5.9-3.7-6.9c1.6-1.8,3.8-2.7,6.6-2.6l0.4-1.3
		l2.4-0.9v-0.4c1.2,0.3,2.2,0,2.9-1.1c8.1,1.1,16.7-2.3,20.3-8.6l2-1.3l-2.2-0.9l0,0c0.6,0.3,1.2,0.3,1.8,0L209,4.5l0.1,0.1H209
		c-1.6-0.4-3.4-0.3-5.1,0.2l0.5-0.4l-1.6,0.2V4.2c-1.1,0.3-2,0.2-2.9-0.3c9.9-2.1,19.8-2.3,29.7-0.6l-2-0.2c1.6,0.5,3.2,0.7,4.9,0.7
		l-0.2-0.2c2.4,0,4.9,0.3,7.3,0.7v0.2c0.9,0.1,1.8,0.2,2.7,0.4c-1.5-0.4-3-0.7-4.5-1c-0.7-0.3-1.4-0.4-2.1-0.5
		c-0.9-0.3-1.9-0.5-2.9-0.6l0,0c-0.3,0-0.6,0-0.9-0.1c-0.3,0-1-0.1-1.4-0.2l0.9,0.2c-0.8-0.2-1.6-0.3-2.4-0.4
		c-7.7-0.7-15.3-1.5-22.7-2.2v0.1c-3.1-0.6-5.1-0.3-7.3,0.7l0.9-0.4c-3.4-0.4-6.7-0.5-10.1-0.1l6.5-0.2l-5.8,0.2l0.4,0.2
		c-3.5,0.3-7,0.6-10.5,1.1c3.3-0.3,6.7-0.8,10-1.3c-3.6,0.1-7.1,0.2-10.6,0.4l0.3,0.2c-0.7,0.2-1.4,0.3-2.1,0.3
		c-7,0.7-13.7,1.8-20.5,3.2l1-0.1L158,4.5h0.3c-7.2,1.4-14.4,3.3-21.1,5.7l0,0c-0.2,0-0.4,0.1-0.6,0.2c-0.1,0-0.2,0-0.3,0l0.3-0.1
		c-0.2,0.1-0.4,0.1-0.6,0.1c-0.6,0.2-1.1,0.4-1.7,0.6l0,0c-0.5,0.2-1.1,0.4-1.6,0.5c-1.7,0.5-3.4,1.1-5.1,1.7l0.5-0.2l-0.2,0.2
		c-0.3,0-0.6,0.1-0.9,0.2c-0.1,0.1-0.2,0.2-0.4,0.2l0,0l0.5-0.2c-0.5,0.2-1,0.4-1.5,0.6l0.8-0.3c-0.3,0.2-0.7,0.4-1,0.4
		c-0.6,0.2-1.2,0.5-1.8,0.7c-0.7,0.2-1.4,0.5-2.1,0.7c-0.1,0.1-0.3,0.1-0.5,0.1l0.5-0.2c-1.8,0.6-3.6,1.4-5.3,2.3l0.3-0.2l-0.4,0.2
		c-0.1,0.1-0.3,0.1-0.4,0.1l0.4-0.2c-0.4,0-0.7,0.1-0.9,0.4c-0.8,0.4-1.5,0.7-2.4,1.1l0.4-0.2c-0.4,0.1-0.7,0.3-1,0.5
		c-0.4,0.2-0.8,0.3-1.3,0.5V20l0,0c-0.1,0-0.2,0.1-0.3,0.1c0.1,0,0.2,0,0.3-0.1v0.1c-1.4,0.5-2.9,1.1-4.3,1.9l0,0
		c-1.9,1.1-3.8,2.1-5.7,3.2l0,0c-0.8,1.3-1.7,2.1-2.9,2.9c-0.2,0.1-0.4,0.2-0.6,0.4c-0.5,0.2-1,0.4-1.4,0.7c-0.7,0.4-1.3,0.9-2,1.3
		c-0.2,0.1-0.4,0.2-0.6,0.4c-0.7,0.2-1.3,0.6-1.8,1.1c-0.9,0.5-1.8,1-2.6,1.6c-1.1,0.8-2.1,1.5-3.2,2.2c-1.3,0.9-2.5,1.8-3.7,2.8
		c1.3-0.7,2.5-1.5,3.7-2.5c-3.4,2.3-6.8,4.8-10,7.4l2.6-2.1c-1.3,0.9-2.6,1.8-3.9,2.8c-2.7,2.3-5.4,4.6-8,6.9l0,0
		c-0.1,0.1-0.1,0.1-0.2,0.2c-0.3,0-0.5,0.2-0.5,0.5l0.5-0.4L65.7,52l0.1-0.2L65,52.4l0.4-0.2C51.8,64.5,40.3,78.3,30.8,93.6
		c-0.2,0.4-0.5,0.6-0.8,0.9c-1,2-2.2,4.1-3.5,5.9c-0.3,0.7-0.6,1.3-0.9,2c-0.2,0.1-0.3,0.3-0.3,0.6l0,0l-0.6,1l0.9-1.8l-1.2,2.4l0,0
		l-0.1,0.3c0.1-0.1,0.2-0.2,0.3-0.4l-0.2,0.4c2.4-3.5,4.9-7,7.6-10.4l-0.9,2l0.7-0.7l-0.9,2c0.3-0.2,0.5-0.5,0.6-0.9v0.2l0.4-0.4
		L31.2,98l1.1-1.6c-0.8,0.7-1.1,1.6-0.9,2.6l2-1.8c-0.6,1.5-1.6,2.7-2.9,3.6l0.6,2.2c1.6-2.2,3.5-4.6,5-6.6c-0.8,0.4-1.3,1.1-1.3,2
		l0.7-0.4c-5.1,10.6-6.1,23.2-2.8,33.7c0.9-2.1,2-3.9,3.6-5.6l-0.5-0.2c4.8-17.5,14.3-33.1,27.7-45.9l-0.2,1.6l1.3-1.8l0.4,0.9
		l0.4-1.3l0.2,0.7l0.9-1.1l0.4,0.4l0.7-1.6l0.2,1.3l1.5-2.5l-0.4,1.3c0.8-0.4,1-1.1,0.8-2.1l1.8-0.7l0.9,5.6l1.1-1.3l-0.7,1.3
		l1.8-0.2l0.2,1.2v-0.1c0.6,3.3-0.1,6.3-2,9.1l1.3-1.1l-0.9,1.3l0.6-0.9l0.7,0.6l0.7-1.1l0.7,0.7c0.4-1.4,1.3-2.3,2.7-2.7L78.5,87
		l0.7,0.6c1.2-0.7,1.7-1.7,1.7-3.1l0.7,2.2l1.1-0.4c-0.9,2.7-1.1,5.5-0.7,8.3l0.5-1.3c1.3,1.9,1.2,3.8-0.2,5.6l0.9,0.5
		c-1.4,1.5-1.9,3.2-1.6,5.1l0.7-1.1c-0.4,2.3-1,4.5-2,6.7l1.1-0.9c2.4,7.7,6.1,13.4,12.6,17.8l1.3-1.6l1.1,0.7
		c0-7.5-3.1-12.9-10.3-14.8c-0.5-1.9-0.9-3.8-1.1-5.8l-1.8,0.5c0.3-3.4,1.5-6.7,3.4-9.5l0,0c0.4-0.8,0.5-1.8,0.4-2.7l2.9-1.3
		L89.3,95c1.7-1.2,3.3-1.2,4.9,0l0.9,3.3l1.3-1.1v2l0.7-0.9l3.3,1.1l-1.1,3.8c1.8,0,3.2-0.9,4.2-2.6l-0.8-1.6 M240.4,4.1
		c0.5,0.2,1.1,0.3,1.6,0.3L240.4,4.1L240.4,4.1L240.4,4.1z M240.3,4.1c-0.1,0-0.2-0.1-0.3-0.1C240.1,4,240.2,4.1,240.3,4.1z
		 M242.3,4.6c0.4,0.1,0.9,0.2,1.3,0.3C243.2,4.7,242.8,4.6,242.3,4.6z M243.5,4.8c0.9,0.2,1.9,0.5,2.8,0.7c-2.6-0.5-5.5-0.5-7.8,0
		c2.4,3,5.9,4.7,9.3,4.2l-0.9-0.9c1,0.5,2,0.7,3.1,0.7c-0.4-0.5-0.9-0.8-1.5-1.1c1.1,0,2.2,0.1,3.3,0.4l-1.8-1l2,0.4l-2.7-1.1h0.4
		L247,6.4V6c1.8,0.3,3.5,0.7,5.3,1.1C249.5,6.2,246.5,5.4,243.5,4.8L243.5,4.8z M75.2,82L75.2,82L75.2,82C75.1,82,75.2,82,75.2,82z
		 M75.1,82l-1.2,0.4l0.7,0.9L75.1,82L75.1,82z M24.1,105.1l-0.8,1.3C23.7,106.1,24,105.6,24.1,105.1L24.1,105.1z M23.5,106.2
		c-0.5,1.3-1.2,2.5-1.9,3.7l0.4-0.6l-0.4,0.9c0.6-1.1,1.2-2.2,1.7-3.3l0,0l0.3-0.8L23.5,106.2L23.5,106.2z M23.6,106.1l-0.1,0.3
		l0.2-0.4L23.6,106.1L23.6,106.1z M21.5,110l-0.5,0.9C21.3,110.7,21.4,110.4,21.5,110L21.5,110z M21.1,110.8
		c-0.9,1.9-1.8,3.9-2.7,5.8l1.1-2.2c-0.5,0.9-1,2-1.3,2.9l0.8-1.8c-2.3,4.9-4.4,9.9-6.2,15c1.6-4,3.2-7.9,4.8-11.9v0.2
		c1.6-3,3-6,4.2-9.1C21.5,110,21.3,110.4,21.1,110.8L21.1,110.8z M12.6,130.7c-0.4,0.4-0.6,0.8-0.5,1.3L12.6,130.7L12.6,130.7z
		 M80,40.2l1.2-1.1C80.7,39.3,80.3,39.7,80,40.2L80,40.2L80,40.2z M79.9,40.2c-0.2,0.1-0.4,0.2-0.6,0.4
		C79.5,40.5,79.7,40.3,79.9,40.2z M110.1,21.3C110.8,21,110.8,21,110.1,21.3L110.1,21.3z M124.8,14.7l0.3-0.1L124.8,14.7L124.8,14.7
		L124.8,14.7z M136.5,10.3l-0.2,0.1l0.6-0.2C136.8,10.2,136.6,10.2,136.5,10.3L136.5,10.3z M137.6,10c-0.2,0-0.4,0-0.5,0.2
		C137.3,10.1,137.4,10.1,137.6,10z M184.9,0.6c1.3,0.2,2.5,0,3.7-0.4C187.4,0.4,186.1,0.5,184.9,0.6L184.9,0.6z M185.4,0.6l1.1-0.1
		c-0.5,0-0.9,0-1.4,0.1C185.2,0.6,185.3,0.6,185.4,0.6z M185.1,0.6c-0.1,0-0.1,0-0.2,0C185,0.6,185,0.6,185.1,0.6z M186,0.4
		c-0.4-0.1-0.7,0-1,0.1L186,0.4z M225.7,1.7l1.2,0.1C226.5,1.9,226.1,1.9,225.7,1.7L225.7,1.7z M229.2,2.1l1,0.1
		C229.9,2.2,229.5,2.2,229.2,2.1z M232.5,3.6l1.9,0.2C233.8,3.6,233.2,3.5,232.5,3.6L232.5,3.6z M213.8,4.4l1.2,0.4l-0.3-0.4H213.8
		L213.8,4.4z M215,4.8L215,4.8h0.1H215L215,4.8z M215.1,4.9l-1.9,0.2V6c2.1,1.3,3,3.5,2.7,6.4l0.9-0.9l2.2,0.4l0.2,0.7l0.4-0.4
		l-3.1-1.8l0.7-1.3c1.5-0.2,2.9,0,4.2,0.6C219,8.4,216.9,6.8,215.1,4.9L215.1,4.9z M248.7,6.4c0.5,0.2,1,0.4,1.6,0.4L248.7,6.4z
		 M252.5,7.1l1.1,0.2C253.3,7.1,252.9,7,252.5,7.1L252.5,7.1z M253.7,7.4c0.2,0.2,0.4,0.2,0.7,0.2L253.7,7.4L253.7,7.4z M254.4,7.5
		l1.2,0.4C255.2,7.6,254.8,7.5,254.4,7.5L254.4,7.5z M254.7,7.5l0.6,0.2C255.1,7.5,254.9,7.5,254.7,7.5z M150.7,7.8h0.7
		c-1.7,1-3.5,1.7-5.4,2.2h0.7c-3.9,1.5-8,2.8-12.1,3.8C140.1,12.2,145.5,10.2,150.7,7.8z M255.8,8l0.6,0.2C256.2,8,256,8,255.8,8
		L255.8,8z M256.4,8.2l0.7,0.2l-0.4-0.2c0.3,0.1,0.5,0.2,0.8,0.3c-0.5-0.2-1-0.4-1.5-0.5l0.6,0.2H256.4L256.4,8.2z M257.4,8.4
		l1.3,0.4C258.3,8.6,257.9,8.5,257.4,8.4L257.4,8.4z M258.2,8.7l1.1,0.3V8.9L258.2,8.7L258.2,8.7z M259.3,9L259.3,9l3.1,1
		C261.4,9.6,260.4,9.3,259.3,9L259.3,9z M262.5,10l1.8,0.7C263.9,10.2,263.3,10,262.5,10L262.5,10z M259.3,9.1l-0.7-0.2
		C258.8,9,259.1,9,259.3,9.1z M244.5,10.2l-1.1,0.4h1.3L244.5,10.2L244.5,10.2z M135.9,10.6c-0.1,0-0.1,0-0.2,0
		C135.8,10.6,135.8,10.6,135.9,10.6z M132.6,11.7c-0.4,0.2-0.6,0.3-0.9,0.4c-0.2,0.1-0.3,0.1-0.5,0.1
		C131.7,12.1,132.2,11.9,132.6,11.7z M130.8,12.3L130.8,12.3c-0.3,0.1-0.5,0.2-0.8,0.3l0,0c0.2-0.1,0.4-0.1,0.6-0.2
		C130.7,12.4,130.7,12.3,130.8,12.3z M129.8,12.7c-0.1,0.1-0.3,0.1-0.4,0.1C129.5,12.8,129.7,12.7,129.8,12.7z M215.6,12.9l-0.7,2.9
		l-2.7-0.2l0.7,0.7c-0.6,0-1.2,0.1-1.7,0.4l0.7,1.6V18l2.9-0.2l-2.2-0.7l0.2-0.4c4.6,0.9,8.7,0.8,13.4-0.4h-1.3l-0.2-1.3
		C221.6,15.8,218.4,15,215.6,12.9L215.6,12.9z M128.6,13.2c-0.1,0.2-0.2,0.2-0.4,0.2C128.3,13.3,128.5,13.3,128.6,13.2z M230.2,14
		l-1.8,1.1l4-0.9L230.2,14L230.2,14z M226.2,14.9c-0.5,0.2-0.9,0.6-1.1,1.1l2.2-0.9L226.2,14.9L226.2,14.9z M123.7,15.2
		c-0.1,0.2-0.2,0.2-0.4,0.2C123.4,15.3,123.6,15.3,123.7,15.2z M117.7,17.7c-0.3,0.3-0.7,0.5-1.1,0.5C117,18,117.3,17.9,117.7,17.7z
		 M214,18.4l0.9,0.9c-1.9-1.2-3.2-0.8-3.5,1.1h0.9c-1.3,3.4-4.8,5-8.5,4.4l1.3-0.7c-1.9-0.2-3.1,0.9-3.6,3.1
		c-5.2-0.5-10.1,0.4-14.8,2.7v0.7l3.6,0.2l0.9-1.1l0.4,0.7c2.6-1.2,5.2-1.6,8-1.3l-0.9,1.6c1.8,0.8,3.6,0.6,5.3-0.7l-1.1-0.9
		l0.7-0.7l0.4,0.7l0.2-0.5l1.1,0.2l-0.9,0.4c1.8,0.6,3.4,0.3,4.8-0.9l0.2,0.9l0.9-1.1l1.6,0.2l0.2-0.9c0.2,0.2,0.5,0.3,0.8,0.2
		c-0.1,0.4-0.2,0.8-0.4,1.1c0.9,0,1.7-0.4,2.4-1.3l-0.9-0.9l1.1-1.3l-0.4-2h1.6l1.1-2l-2-2.9L214,18.4L214,18.4z M114.7,19.2
		c0,0.1-0.1,0.1-0.2,0.1C114.6,19.3,114.6,19.2,114.7,19.2z M195.4,29.8l-2.2,0.9l-0.4-0.4l-2.9,1.6l1.3-0.2l0.4,1.3
		c2.4-0.9,4.1-1.5,6.3-2.2l-0.4-0.7L195.4,29.8L195.4,29.8z M186.9,30.9l-4.2,1.1l1.3,0.9l-1.1-0.4l0.2,0.9l1.8-0.2l-0.7-0.9
		l1.1-0.2l0.5,1.1l-1.8,2.5l1.3,0.7l0.7-1.1l-0.4,1.3c2.1-0.6,3.6-1.9,4.5-4L186.9,30.9L186.9,30.9z M182.3,41.5l-1.8,0.7l0.7,0.4
		C181.6,42.2,181.9,41.9,182.3,41.5z M156.5,50.4c-2.9,1.1-4.8,3-5.6,5.7l2.2,2.4l4.7-7.5L156.5,50.4L156.5,50.4z M151.4,67.3
		l-1.3,6.4c-0.5-0.3-1-0.4-1.5-0.4c-1,1.9-0.5,3.8,1.3,5.1l0.5-1.1l1.1,0.2l-1.1,2.5c1.5,0.8,2.7,0.5,3.6-0.9l2.7,2v-2.2
		c1,2.2,2.6,3,4.7,2.5l0.2,1.1l0.4-1.6l-1.3,0.2l-0.7-1.3l1.3-0.4c-0.5-0.8-1.3-1.1-2.3-0.9l-0.7,1.1l-0.9-1.6l-1.8,0.2l-0.2,1.1
		c-1.7-0.7-2.5-1.9-2.5-3.8l4-4.4c-1.1-1.3-1.2-2.5-0.2-3.8L151.4,67.3L151.4,67.3z M121.9,68c-3-0.2-5.4,0.9-7.1,3.1l0.6,2.2
		c2.8,0,5.3-1.7,6.7-4.5L121.9,68L121.9,68z M232,79.1l-1.1,0.2l0.2,0.7C231.4,79.7,231.7,79.4,232,79.1z M149.2,80.9
		c1.1,0.8,1.9,1.9,2.2,3.3l1.1-0.2l0.6-2.5L149.2,80.9L149.2,80.9z M164.9,82l-2.9,0.2l2.5,2.2l-0.2,1.2v-0.1l-2.2-0.4
		c-0.1,1.8,0.6,3.3,2.2,4.5l-0.2-1.1h1.1l-0.8-2.6l2.6,0.6C167.1,84.6,166.4,83.1,164.9,82L164.9,82z M158.5,82.6l-0.2,1.8l1.3-0.9
		L158.5,82.6L158.5,82.6z M154.1,84.9v4.2l4-2.5v-1.3l-0.9,0.7L154.1,84.9L154.1,84.9z M161.2,86c-0.9,1.9-1.8,3.8-2.9,5.6l1-1.6
		h0.1v-0.2l1.6-1.1L161.2,86L161.2,86z M146.1,87.1l-0.2,2l-0.9-0.5c-0.9,3.3-3.9,6.6-7.2,8.6c2.7-2.7,5.6-5.1,8.7-7.3L146.1,87.1
		L146.1,87.1z M158.3,87.1c-0.3,1.9-1.2,3.1-2.9,3.6l2,2.2c0.7-1.8,1.3-3.3,2-5.4L158.3,87.1L158.3,87.1z M161.4,89.3
		c-0.6,0.2-1,0.6-1.4,1.1c0.8,0.7,1.7,0.7,2.7,0v-0.9L161.4,89.3L161.4,89.3z M165.6,90l0.2,2.5h-2.5l-0.2,1.6
		c-1.6-0.6-2.8,0-3.8,1.8l0.7-1.3l-1.5-0.9c-2.9,0.9-4.6,2.7-5.1,5.4l0.9,0.4l1.6-2.7l2.7,1.1l0.9-1.6l2,1.1l-0.7,3.1l3.1,1.3
		l0.9-0.7l0.4,1.6l0.9-1.3l-0.9-2.2l1.1-1.8l1.5,2.9c-0.5-1.5,0.1-2.5,1.6-3.1l-0.7-3.5l-1.1-0.2l0.7-2L165.6,90L165.6,90z
		 M153.6,100v1.1l1.1-0.9L153.6,100L153.6,100z M68.3,100.9l-0.9,0.9l0.4,0.7L68.3,100.9L68.3,100.9z M136.3,101.1
		c-0.6,2.9-2.1,4.8-4.6,5.6l0.7,0.4c-4.6,3.8-8.7,6.8-13.8,10l-0.9,4.4l-4-0.2l-0.7-1.1c-2.2,1.5-3,3.5-2.5,6l1.1,0.7l-0.4,1.8
		l1.5,0.5h-1.1l1.3,0.9l-0.7,1.1l1.6-0.9l1.1,5.8l4.4-1.3l0.7,2.2c1.5-2.6,3.4-3.3,5.6-2.2v1.1l2.9-0.9l0.4,2.7
		c2.1-0.8,3.9-2.2,5.3-4.2l-0.6-0.9l0.9,0.2l0.9-2.7l-1.6-0.9l1.8-2.7l0.7,0.5l2.4-1.8l-0.6-2.7l2-2.5l-0.4-1.1l1.5,0.9l2-0.9
		c-2.6-0.2-3.9-1.3-4-3.3l1.1-0.4l-3.6-3.6l2.5-0.4l-1.1-1.6l3.8-1.1l-1.3-1.3l3.8-2c-1.4-1.1-2.8-1.2-4.2-0.4l0.2-1.1l-1.6,0.6
		l0.7-1.6l-1.8-1.6l-1.1,1.6L136.3,101.1L136.3,101.1z M370.2,102.2c0.2,0.7,0.5,1.2,1.1,1.5l-0.9-1.6L370.2,102.2L370.2,102.2z
		 M372.8,106c0.3,0.6,0.6,1.1,1.1,1.5L372.8,106L372.8,106z M374.6,108.9l1.6,3.8l0.7-0.2L374.6,108.9L374.6,108.9z M175.8,110.9
		l-0.9,2l0.9-0.2V110.9z M173.8,112.2c-2.9,4-2.4,7.5,1.6,10c-1.1-1.2-1.7-2.6-1.7-4.2l3.5,0.4l-2.7-1.6l1.8-1.1l0.2-1.6l-3.8,2.2
		C174.3,115.4,174.6,114,173.8,112.2L173.8,112.2z M108.8,114.4l-0.9,0.9l0.4,0.9C109,115.7,109.2,115.1,108.8,114.4L108.8,114.4z
		 M164.3,114.7c-4.2,3.1-9.2,3.8-14.6,2.3l-0.9,2l-1.1-0.4c-1.1,0.8-1.6,2-1.5,3.5l-0.7-0.2l0.9,2.7l-0.7-0.7
		c-1.7,3-2.6,6.5-2.5,9.9l2-0.2c0.2,2.2,0.1,4.5-0.2,6.7c1.2-0.2,2.3-0.2,3.5-0.2l-1.1-8.7c0.8-1.2,1.7-1.6,2.9-1.1l-0.5,2.9
		l2.2,1.3v2.2l1.6,0.5l0.2-1.6l2.7-0.4l-2.4-2.4l1.1-1.6l-4.2-3.8c3,0.8,5.4-0.6,7.3-4.2c-4.4,2.5-8.2,3.1-11.5,0.7l0.9-3.3
		l13.6-1.3L164.3,114.7L164.3,114.7z M67.9,117.1l0.2,1.1l0.4-0.9L67.9,117.1L67.9,117.1z M77.5,119.3l-6,1.1c1.6,3.8,5,7.2,9,9
		c3.3,8.1,9.4,15.2,17.3,20.3l-0.2-1.3l2,0.4l0.2-1.3l1.3,1.3c1.2-4,1.1-8.2-0.7-11.6l-2.2,0.2l-0.4,1.1l0.4-1.8H97l-0.2-3.1
		l-3.3-0.2l1.3-3.3l-1.1-0.7l-2,1.6l1.3-1.1c-0.5-0.7-1.2-0.9-2-0.4l-4-3.8l-0.2,1.8c-1.9-2.7-4.5-4.4-7.8-5l0.4-1.1L77.5,119.3
		L77.5,119.3z M92.3,129.1h0.4c-0.4-0.5-1-0.8-1.6-0.9l-0.2,0.9C91.4,129.1,91.8,129.1,92.3,129.1z M185.4,119.3l-3.8,0.4
		C183,120.3,184.3,120.2,185.4,119.3z M189.4,119.8c-2.8,0.2-4.5,1.4-5.3,3.8h3.8l1.1,2.7l5.8-0.9l-1.1,2.2l-1.6-1.1
		c-1.2,1.4-2.7,1.8-4.5,1.3l3.1,1.6l0.2,2.7c2.1-0.4,3.1-1.7,3.1-4l-0.7,2c1.1,1.4,2.7,1.8,4.6,1.3l-1.1,0.6c3.9,1.8,8,3.2,12.2,4.2
		l-0.2,1.1l1.1-0.2c-0.5,1.8,0.1,3.1,1.8,4l-1.3,0.4l2.5,0.7l-2,0.2l1.8,1.1L212,146l3.6-0.9c2.5,3.5,5.1,4.8,8.9,4.9l2.7-1.8
		l-4-2.2l5.1,0.4l-1.1-1.1l2,0.5l-1.1-2l3.1,1.6l-0.4-1.3l0.4,0.9l0.9-0.9l0.2,1.1c4.9,5.4,10.6,9.2,17.5,11.6l2.5-1.3
		c-1.6,0-2.9-0.5-3.7-1.7l0.9-0.7l-2.4-0.7v-1.8l-2.2,0.2c-1.7-3.2-3.2-5.7-5.3-8.5h3.1c-0.7-3-3-4.5-6.9-4.5
		c-6.7-7.9-18.9-13.3-29.9-13.4l0.2,1.1c-2.7,0.7-4.9,2-7.1,4l-1.8-2.9l-0.5,1.3c-1.6-2-2.1-4.4-1.7-7.1L189.4,119.8L189.4,119.8z
		 M172.5,120.4l-1.1,0.4c0,0.5,0.2,0.9,0.6,1.3l1.6-0.2L172.5,120.4L172.5,120.4z M199.6,120.7c0.9,1.6,2,2.2,3.5,1.6L199.6,120.7
		L199.6,120.7z M184.5,121.8l-1.3,0.2l1.1,1.1L184.5,121.8L184.5,121.8z M38.2,123.1c-0.2,0.2-0.5,0.5-0.7,0.7c0.3,0,0.6,0,0.9,0.2
		h-0.7c-0.3,1.8-0.7,3.5-1.1,5.3l-0.2-0.7c0.1,2.1,0.2,4.1,0.4,6.2C40.8,131.6,41.3,127.3,38.2,123.1z M172.7,123.8l-0.9,0.9h2.7
		C174.1,124,173.5,123.7,172.7,123.8L172.7,123.8z M199.8,123.8c1.6,0.8,3.3,1,5.1,0.7L199.8,123.8L199.8,123.8z M156.5,124.4
		l0.2,1.1l2-1.1H156.5L156.5,124.4z M182,124.4l-2.2,0.7l2,0.2L182,124.4L182,124.4z M162.1,125.3l-0.4,1.3l3.1-0.9L162.1,125.3
		L162.1,125.3z M97.4,126.2l-1.1,0.9c0.5-0.2,0.9,0,1.1,0.4V126.2L97.4,126.2z M241.4,126.9l-3.1,0.2
		C239.4,127.4,240.4,127.4,241.4,126.9z M90.3,127.5c0.1,0.4,0.2,0.9,0.2,1.3l0.7-1.1L90.3,127.5L90.3,127.5z M177.6,128.2l-3.1,0.9
		l1.1,1.3c3-1.4,5.7-1.1,8.2,0.9l-1.8-2.9L177.6,128.2L177.6,128.2z M174.5,129.1L174.5,129.1L174.5,129.1L174.5,129.1L174.5,129.1z
		 M174.5,129.2l-0.4,0.1l-0.4,1.6L174.5,129.2L174.5,129.2z M73,128.4l-0.9,0.2l2.2,0.7L73,128.4L73,128.4z M169.8,129.5l-2.7,0.9
		l2.2,1.6l2-0.9L169.8,129.5L169.8,129.5z M256.1,132.5c1.9,1.3,3.1,3.1,3.5,5.5l0.4-2.2L256.1,132.5L256.1,132.5z M97,130.2v0.9
		l1.6-0.2L97,130.2L97,130.2z M76.6,131.1l-0.6,0.7c0.5,0.8,1.1,1.4,2,1.8l0.2-1.3L76.6,131.1L76.6,131.1z M12.1,132
		c-0.5,0.5-0.7,1.1-0.6,1.7L12.1,132L12.1,132z M11.5,133.8c-0.4,0.4-0.6,0.8-0.5,1.3L11.5,133.8L11.5,133.8z M101.9,134.2
		c-1.7-0.1-2.7,0.7-2.9,2.3l2-0.2l0.7,2l2.2,0.2l0.4-1.6l-1.8-0.2L101.9,134.2L101.9,134.2z M157.2,134.7c-0.8,1.4-1.2,3-1.3,4.6
		l1.8-1.6l-0.9-0.4L157.2,134.7L157.2,134.7z M11,135.2c-0.3,0.5-0.5,1.1-0.6,1.7L11,135.2L11,135.2z M10.4,136.9l-0.2,0.6
		C10.4,137.3,10.4,137.1,10.4,136.9z M254.9,135.3l0.7,2.2c-1.5,1.8-3.3,2.3-5.4,1.6v-1.6l-0.9,1.6l-5.1-0.2
		c3.9,3.3,8.3,3.5,12.7,0.7l-0.5-1.3l1.6-2C257.2,135.4,256.2,135.1,254.9,135.3L254.9,135.3z M156.1,135.8l-1.3,0.4l-0.2,2l1.1,0.2
		C155.8,137.5,155.9,136.7,156.1,135.8L156.1,135.8z M106.8,136.2l-0.2,2.2h1.3c0-0.7,0.3-1.4,0.9-2L106.8,136.2L106.8,136.2z
		 M196.9,136.2l-1.3,1.1c0.4,1.3,0.3,2.7-0.3,4C197.4,140.1,198,138.4,196.9,136.2L196.9,136.2z M10.2,137.5
		c-0.3,0.2-0.4,0.5-0.3,0.8L10.2,137.5L10.2,137.5z M9.9,138.2l-0.2,0.6C9.9,138.6,9.9,138.4,9.9,138.2L9.9,138.2z M81,137.8
		l-0.9,1.1l1.8,1.3L81,137.8L81,137.8z M9.7,138.9c-0.2,0.2-0.2,0.4-0.2,0.7L9.7,138.9L9.7,138.9z M9.5,139.6L9.4,140
		C9.5,139.9,9.5,139.7,9.5,139.6L9.5,139.6z M9.4,140c-0.3,0.3-0.4,0.6-0.3,1L9.4,140L9.4,140z M9.1,141l-0.2,0.7L9.1,141L9.1,141
		L9.1,141z M8.8,141.8c-0.2,0.4-0.4,0.8-0.4,1.3L8.8,141.8L8.8,141.8z M8.4,143.1c-1.7,5.5-3.1,11-4.2,16.6c0.1-0.1,0.1-0.3,0.1-0.5
		c0,0.2,0,0.4-0.1,0.6l0.1-0.4c-0.1,0.4-0.2,0.8-0.3,1.2l0.1-0.4L4,160.7v-0.1l0,0c0,0.1,0,0.3,0,0.4l0.1-0.4
		c-0.3,1.2-0.6,2.4-0.7,3.6l0.1-0.6c0,0.3-0.1,0.5-0.1,0.8l0,0c0,0.7-0.2,1.5-0.4,2.2l0.1-0.5c0,0.2,0,0.4-0.1,0.5l0,0
		c-0.1,0.5-0.2,1.1-0.3,1.6l0.2-0.9c-0.8,4.9-1.4,9.8-1.9,14.9c0.9-6.4,1.8-13.2,2.7-19.6c0,0.3,0,0.5-0.2,0.6l0.1-0.5l0,0
		C4.8,156.1,6.4,149.5,8.4,143.1L8.4,143.1z M1,182.2c-0.4,0.6-0.4,1.3-0.2,2L1,182.2L1,182.2z M0.8,184.2l-0.1,1.1
		C0.9,185,0.9,184.6,0.8,184.2L0.8,184.2z M0.7,185.3c-0.2,0.3-0.2,0.7-0.1,1.1L0.7,185.3L0.7,185.3z M0.6,186.4l-0.1,2.2
		C0.9,187.9,0.9,187.2,0.6,186.4L0.6,186.4z M0.5,188.6c-0.4,0.9-0.4,1.9-0.1,3L0.5,188.6L0.5,188.6z M0.4,191.5v1.6
		C0.4,192.6,0.4,192,0.4,191.5L0.4,191.5z M0.4,193.2c-1.2,2.2-1.2,4.6-0.2,7.3L0.4,193.2z M0.2,200.4c-0.1,3.6,0.1,7.6,0.4,11.2
		L0.2,200.4L0.2,200.4z M0.6,211.7v0.5V211.7L0.6,211.7L0.6,211.7z M4.2,159.5c-0.1,0.1-0.1,0.3-0.1,0.4
		C4.1,159.8,4.1,159.6,4.2,159.5L4.2,159.5z M265.6,140.7c0.3,2,1.1,3.7,2.5,5.1h1.3L265.6,140.7L265.6,140.7z M84.6,142.6l0.9,1.6
		v-1.1L84.6,142.6L84.6,142.6z M209.4,143.3l-2,2.9c1.6,0.1,3.1-0.2,4.6-1.1l0.5-1.6L209.4,143.3L209.4,143.3z M167.2,144.9
		l-0.4,1.1l3.6-1.1H167.2L167.2,144.9z M271.1,145.5c0.4,1.9,1.5,2.9,3.3,3.1L271.1,145.5L271.1,145.5z M162.3,146.6l-0.4,1.1
		l2.2-0.4l0.2-0.7L162.3,146.6L162.3,146.6z M117.9,146.9c-4.6,2.5-9.9,2.9-15.6,1.3c-0.1,1.7-0.9,2.9-2.5,3.5l4-0.2l-0.2,1.3
		c8.6-0.2,17.2-0.3,25.9-0.2c-0.2-1-0.4-2.1-0.6-3.1l-4.2,0.4C123.5,146.9,121.3,145.9,117.9,146.9L117.9,146.9z M129.2,150.7l2,2
		l2-1.8C131.9,150.7,130.5,150.7,129.2,150.7L129.2,150.7z M127.6,147.1l-4.2,0.7C125,148.6,126.4,148.4,127.6,147.1z M156.7,147.1
		l-1.3,1.8l1.8-0.9L156.7,147.1L156.7,147.1z M155.4,148.9c-2.3,0.7-4.6,0.5-6.9-0.5c-0.7,0.7-1.3,1.3-2,2
		C149.6,150.8,152.7,150.3,155.4,148.9z M161.6,147.1l-1.1,0.4l0.7,0.7L161.6,147.1L161.6,147.1z M171.8,147.1
		c-6-0.4-10.9,2.1-12.8,7.4C163.4,152.6,167.9,150,171.8,147.1z M7.3,147.8c-0.3,0.6-0.4,1.2-0.4,1.8L7.3,147.8z M140.3,148.9
		l-0.7,0.7l2,1.1c-2.2-1.3-3.9-1-5.1,0.7l0.9,1.3l7.1-2.4L140.3,148.9L140.3,148.9z M277.1,149.5c1.2,1.8,2.8,3.3,4.7,4.4
		L277.1,149.5L277.1,149.5z M135,150.2l-0.9,1.8l2,0.2l0.2-2H135L135,150.2z M273.8,150.7l-0.7,0.9l2,1.6L273.8,150.7L273.8,150.7z
		 M147.2,152l-3.3,1.3c1.9,0.8,3.3,1.3,5.1,1.9l1.1-1.1C149.2,153.2,148.3,152.5,147.2,152L147.2,152z M283.8,153.5
		c0.3,1.9,1,3.5,2.2,4.9L283.8,153.5L283.8,153.5z M224,154.4l-1.3,0.9c0.7,2.4,0,4.2-2,5.4l1.3,0.2c-1.1,6-2.7,11.3-5.2,17.1
		c-5.8-1.8-11.9-5.2-17-9.5l2.2-4.2l-0.6-1.3l2-0.2c-0.4-1.5,0.2-2.6,1.8-3.2l-1.5-1.6l-1.8,2.2v-1.6l-1.3,0.5l0.9-0.9l-2.2,1.3
		l-1.8-1.3l-2,0.9l-0.6-1.6c-2.4,1.1-4.6,0.5-6.7-2l-0.7,0.7l3.1,1.1l0.2,1.8c-2.2,1.3-3.9,1.2-5.1-0.3l-1.5,1.1l0.7,0.9l-1.3-0.9
		l0.4,1.1h-1.3v2.2c-1.9,0.3-3,1.5-3.1,3.6l2.2,1.1l-1.3,1.8l-1.1-1.1l-0.5,1.6l-0.2-1.3l-1.8-0.4l-1.1,1.1l0.4,1.6l-0.7-1.1
		l-0.4,1.1l0.7-2.7c-1.1-1.9-2.7-2.9-4.7-3.2l-0.9,1.8L170,166l-1.1,1.1l-0.6-1.1l-0.2,2.7l-1.1-1.3l-1.6,1.8l1.3,1.3l-2.2,0.2
		l1.6,1.3l-2-1.1c-1,0.8-1.2,1.7-0.5,2.7l0.7-0.7l-0.9,2h1.8c-1.6,1.1-3.1,0.9-4.7-0.4v1.8l1.5,0.4v1.6l-1.3-0.9l0.2,2.2l-2.5-4.2
		c-2.4,1.8-2.9,3.8-1.3,6.2c-4.2,5.4-10.5,9.2-16.9,10.3c-4,1.6-6.3,4.2-6.7,8l-1.3-2.2c-1.3,5.6-0.3,10.7,2.9,15.3l-1.1-1.1
		c-0.6,0.7-0.5,1.4,0.2,2.2l-2.2-1.3c5.6,7.1,9.6,15.3,11.5,23.7l-1.8,0.9l0.9,2.9c8-0.4,14-1.5,23-4.2c7.9-8.9,19.4-11.2,30.6-6.4
		l-0.4,1.6c2.7,0.7,4.1,2.6,4.2,5.8l-1.1-0.2l2.5,1.6c1.6-2.4,3.9-6.2,5.3-8.7c0.1,3.3-0.2,5.3-1.2,8.3h-1.1l-0.7,1.3l2.7-0.5
		l1.1-3.3l1.3,2.2l-1.5,2.9l2.2-0.4c1.2,0.6,2,1.5,2.2,2.7l-0.2-0.4c0.5,5.6,4.3,8.9,10.3,9.8l4-3.3l0.4,1.1l-1.3,0.5h2.5l-0.4,0.9
		l2.2,1.8v-1.1l4.9-2.2l-1.3,0.4c1.7-1.9,4-2.4,7.1-1.4c-0.4-3.6,0.7-6.3,3.5-8l-0.7-0.7c1.2-3.5,3.5-6,6.9-7.5l-0.4-1.1
		c7-11.6,6.4-23.8-0.7-34.5l-0.2,1.1l-1.8-2.2v2l-0.6-1.1l-0.7,0.7c-6-10.5-10.4-19.5-14.7-30.4l-2.7,0.6
		C227.7,163.2,226.4,158.6,224,154.4L224,154.4z M133.5,212.8l-0.9-2.1L133.5,212.8L133.5,212.8L133.5,212.8z M182.5,156l2,2.5
		l2-1.8l-1.8-0.2l-0.7,0.7L182.5,156L182.5,156z M280.9,156.2l-0.4,0.7c1.3,0.6,2.5,1.2,3.7,1.9
		C283.2,157.8,282.1,156.9,280.9,156.2L280.9,156.2z M182.5,156.4l-1.1,1.6l2-0.2L182.5,156.4L182.5,156.4z M285.5,160.2
		c0.6,1.6,1.7,2.6,3.3,2.8L285.5,160.2L285.5,160.2z M384.1,162l-0.2,0.2l0.4,1.1L384.1,162L384.1,162z M204.2,164
		c-0.8,0.5-1.2,1.3-1.3,2.2l2,0.2L204.2,164L204.2,164z M3.3,165.1c0,0.1,0,0.3-0.1,0.4L3.3,165.1L3.3,165.1z M300,178.9
		c-0.3,1.2-0.3,2.4,0,3.6l1.3-0.2L300,178.9L300,178.9z M300.8,184c-0.1,1.3,0.3,2,1.4,2.2l-0.7-2.2H300.8L300.8,184z M304.9,194.2
		c-0.3,0.3-0.4,0.6-0.4,0.9l0.9,0.2L304.9,194.2L304.9,194.2z M334.6,195.1l-4,0.9l3.3,1.1l0.2-1.1l-1.1,0.4
		C333.5,196,334.1,195.5,334.6,195.1z M289.5,195.5c0.8,4.3,3.2,7.6,7.1,9.8L289.5,195.5L289.5,195.5z M329.5,197.3l-2.9,1.3
		l1.3,1.6l2-0.2L329.5,197.3L329.5,197.3z M255.3,206c-1,1.1-1.3,2.3-0.9,3.6L255.3,206L255.3,206z M0.6,213.5
		c-0.1,0.4-0.1,0.8,0.1,1.1L0.6,213.5L0.6,213.5z M0.7,214.6l0.1,1.6C0.9,215.6,0.9,215.1,0.7,214.6L0.7,214.6z M0.8,216.2
		c-0.2,0.6-0.1,1.1,0.2,1.5L0.8,216.2L0.8,216.2z M5.1,233.8c0.5,2,0.9,4,1.1,6L6,239.5l0.6,2l-0.2,0.2l0.9,3.1l-0.4-1.3
		c0.3,1.2,0.5,2.5,0.6,3.7L7.3,246c0,1,0.2,2,0.6,2.9l-0.2-0.4c1.8,11,6.1,21.9,12.1,30.9c-4-12.1-8-24.6-11.7-36.8l0.7,1.3
		C8.2,240.4,6.9,236.9,5.1,233.8L5.1,233.8z M4.2,238.9l0.4,1.6C4.6,239.9,4.5,239.4,4.2,238.9L4.2,238.9z M4.6,240.2l0.2,0.2
		l-0.2-0.9V240.2L4.6,240.2z M4.4,240.6v0.7c0.2,0.1,0.3,0.2,0.3,0.5C4.7,241.4,4.6,241,4.4,240.6L4.4,240.6z M4.6,241.9
		c-0.1,0.4,0,0.7,0.2,0.9l0,0l0.1,0.3C4.9,242.7,4.8,242.3,4.6,241.9L4.6,241.9z M4.8,243.1c0,0.4,0.1,0.7,0.2,1.1
		C5.1,243.8,5,243.4,4.8,243.1L4.8,243.1z M5.1,244.2c0.2,1,0.4,1.9,0.6,2.9C5.7,246.1,5.5,245.1,5.1,244.2L5.1,244.2z M5.7,247.1
		c0,0.6,0.1,1.2,0.4,1.7l0,0c0.9,3.3,1.8,6.5,2.9,9.8l0,0l0.1,0.3c-0.7-2.8-1.5-5.6-2.4-8.4l0,0l-0.2-0.7v0.2
		C6.2,249,6,248,5.7,247.1L5.7,247.1z M9.3,259.3c0.2,1.2,0.5,2.4,1.1,3.5L9.3,259.3L9.3,259.3z M10.4,262.9
		c-0.1,0.4,0.1,0.8,0.4,1.2L10.4,262.9z M10.8,264.1l0.1,0.2C10.9,264.2,10.9,264.1,10.8,264.1L10.8,264.1z M10.8,264.2
		c-0.1,0.4,0,0.7,0.3,1L10.8,264.2L10.8,264.2z M11.2,265.3l0.3,1.1C11.6,266,11.5,265.6,11.2,265.3L11.2,265.3z M11.5,266.4
		c0,0.3,0,0.5,0.2,0.7L11.5,266.4L11.5,266.4z M11.7,267.1c0.1,0.4,0.3,0.8,0.4,1.2C12.1,267.9,12,267.5,11.7,267.1L11.7,267.1z
		 M12.2,268.3c0,0.1,0,0.3,0.1,0.4L12.2,268.3L12.2,268.3z M12.3,268.7l0.5,1.4C12.9,269.6,12.7,269.1,12.3,268.7L12.3,268.7z
		 M12.8,270.1L12.8,270.1l0.1,0.3L12.8,270.1L12.8,270.1z M12.9,270.4c0.2,0.5,0.3,1,0.5,1.5C13.4,271.4,13.3,270.9,12.9,270.4
		L12.9,270.4z M13.5,271.9L13.5,271.9l0.2,0.5L13.5,271.9L13.5,271.9z M13.7,272.4l0.5,1.1C14.2,273.1,14.1,272.7,13.7,272.4
		L13.7,272.4z M14.2,273.5c0,0.5,0.2,1,0.6,1.4L14.2,273.5L14.2,273.5z M14.8,275l0.3,0.7C15.1,275.4,15,275.2,14.8,275L14.8,275z
		 M15,275.6c-0.1,0.2,0,0.4,0.2,0.5L15,275.6L15,275.6z M15,276l0.9,2C15.7,277.3,15.4,276.6,15,276L15,276z M203.1,240.6l1.1,1.1
		l3.1-0.9L203.1,240.6L203.1,240.6z M16.4,246.4l0.4,1.8C17,247.5,16.8,246.9,16.4,246.4L16.4,246.4z M299.7,249.7l0.5,7.3l0.2-1.3
		l1.1,1.3l-0.7,1.1l-0.4-0.7v2l0.9,0.4l-0.9-0.2c0.3,3.3-1.4,5.6-4.6,6.5l1.8,2.9l-1.6,3.3c-0.4,0-0.8,0.2-1.1,0.6l0.7,1.6
		c3.3-0.8,5.8-3,7.3-6.5l2,0.4l3.1-4l-0.9-0.9l-2.4,0.9c-2.2-1.4-2.7-3.4-1.4-6l-0.9,2.5l-1.3-2l1.1-1.3c-1-1.5-0.9-2.9,0.2-4.2
		l-0.7,0.2l-0.9-2.2l-0.6,0.7l0.2-2.2L299.7,249.7L299.7,249.7z M16.2,251.7v0.9l0.7,0.2L16.2,251.7L16.2,251.7z M233.1,255.5v1.3
		l0.9,0.4L233.1,255.5L233.1,255.5z M224.2,258.2c-0.6,2.2-0.1,4.1,1.6,5.8l-0.9-0.7c0.1,2.2,1.4,4,3.6,5l1.3-2.9l1.8,1.8l1.1-4.2
		l0.2,0.9V259C229.9,261,227,260.7,224.2,258.2L224.2,258.2z M292.4,269.5l-0.9,0.2v0.1C291.8,269.7,292.1,269.6,292.4,269.5z
		 M291.5,269.8c-5.3,5.1-11.2,8.6-17.9,10.9v1.1l-0.5-0.7l-1.6,2.7c2-0.3,3.4,0.5,4.2,2.6c4-0.7,6.8-2.9,8.4-6.9
		c1.3,0.1,2.5,0.3,3.8,0.4l-0.7-0.9c2.4-1.9,4.9-4.3,6.8-6.5h-0.9l1.3-0.7l-2.9,0.5V269.8L291.5,269.8z M16.1,278.3l0.7,1.6
		C16.8,279.3,16.6,278.8,16.1,278.3L16.1,278.3z M16.8,279.9c0,0.5,0.2,1,0.6,1.4C17.2,280.9,17,280.4,16.8,279.9L16.8,279.9z
		 M17.4,281.2c0.2,0.6,0.5,1.1,0.8,1.6C18.3,282.2,18,281.6,17.4,281.2L17.4,281.2L17.4,281.2z M18.2,282.9c0.1,0.5,0.4,1.1,0.7,1.6
		L18.2,282.9L18.2,282.9z M19,284.5l0.5,1.1C19.5,285.2,19.3,284.8,19,284.5L19,284.5L19,284.5z M19.5,285.6
		c0.1,0.6,0.4,1.3,0.9,1.8L19.5,285.6L19.5,285.6z M273.3,285.8l-1.6,1.6l1.3-0.2L273.3,285.8L273.3,285.8z M306.9,286.9l-0.2,0.6
		l1.3-0.4L306.9,286.9L306.9,286.9z M21.5,289.7c0.2,0.7,0.6,1.6,1.1,2.2L21.5,289.7L21.5,289.7z M81.5,315.5l-0.7,1.3l-0.4-0.9
		l-0.2,0.9l-1.1-1.1l2.5,2.7l-0.2-0.9l1.3-0.2l-1.3-0.2l0.9-0.7L81.5,315.5L81.5,315.5z M199.2,331.7l-0.7,2.4l-6.9-0.4l0.7,2.5
		l-2,0.7c-1.7-1.8-3.7-2.5-6-2.2l-1.3,2l-3.3-2.9l1.1,2.9c-4.2,1.2-8.4,0.8-12.1-1.2c-2,0.7-3.3,2.1-4,4.2l-10-2.9l0.4,1.6l-2.7-0.2
		c-0.1,0.6-0.3,1.2-0.4,1.8l-5.8-0.9c1.6,1.2,2.2,2.6,1.6,4.3c-2,0-3.5,0.9-4.5,2.5l-3.3-1.1l-2.5,2.9l-3.8-0.6
		c3.3,1,5.2,3.1,4.2,6.3c1.6,0.9,2.2,2.1,1.8,3.8l-1.3-0.5l0.7,1.6c-3-0.1-5.4-0.6-8.2-1.6c-2.4,3.9-5.6,5.8-9.1,4.6l-2.7,0.9
		c0.1,2.3,1.3,3.5,3.5,3.6l-1.3,0.2l1.1,1.1l0.4-0.5l1.1,1.1l-1.3,0.2c2.5,3.4,5.8,5.8,9.8,7.3c-0.6,0-1.2,0-1.8-0.2l0.7,0.7
		l-2.9,0.4c1.2,0.5,2.5,1.1,3.5,1.8l-1.3,0.2c4,1.8,7.1,4.3,9.6,7.5l-1.3-0.2c2.6,0.6,4.9,1.7,7.1,3.3v0.2c2,0.3,3.9,1.1,5.5,2.4h-2
		c21.9,4.1,43.8,5.6,66.1,5.2l-0.2,0.9c1.1,0.5,2.3,0.8,3.6,0.9c-0.1,0.1-0.3,0.3-0.4,0.4c1.2-0.2,2.3-0.3,3.5-0.2v0.1
		c2.3-0.2,4.7-0.5,7-0.9h-0.5c0.6-0.2,1.2-0.2,1.8-0.2c-0.7-0.1-1.6-0.1-2.4,0l0.9-0.4H228c1.7,0,3.4-0.2,5-0.7h-0.9l1.1-0.2h-0.4
		l3.5-0.9c-1.1,0.2-2.2,0.3-3.3,0.4l0.7-0.2l-2.7,0.4l1.3-0.7c-1.9,0.7-3.8,0.9-5.8,0.5c2.5,0.4,4.7-0.1,6.7-1.3h-1.6
		c5.4-0.9,10.9-2.7,15.8-5l-0.2,0.2c1.8-0.2,3.5-1,4.9-2.2l-0.2-0.7c-1.7,0-3.4,0.5-4.9,1.3l0.9-0.5l-4.7,0.5l2.2-1.1l-1.1-0.2
		c2.6-0.1,4.6-0.6,7.1-1.6c-1.5,0.2-2.8,0.3-4.2,0.4c3.8-1.7,6.9-3.8,9.8-6.9c-2.3-0.2-4-1.2-5.1-3.1l0.9-0.9
		c-2,0.8-3.6,0.2-4.8-1.6l-1.3,0.7l-1.8-2c-0.6,1.1-1.6,1.4-2.9,0.9l-0.6-2c-2.4,0.8-4.6,0.9-6.9,0.4c-3.9-3.2-7.3-5.7-11.3-8.5
		c-0.6,1.2-1.5,1.7-2.8,1.3c-0.3-2.4,0.6-4.2,2.9-5.4l1.3,0.7l-0.4-1.1c0.7-0.9,1.5-1.1,2.4-0.7l0.5-1.3c1.5-0.4,3.1-0.5,4.6-0.4
		c1.1-1.9,2.7-2.8,4.7-2.7l0.4-1.3l-0.7,0.7c-4-4-8.1-7.6-12.8-11.1l-6.9-0.7l0.7-1.3l-4-1.1l2-0.9v-0.9
		C209.3,337.5,203.2,335.9,199.2,331.7L199.2,331.7z M228,398l-0.9,0.2l1.8-0.2H228L228,398z M222,398.7c-1,0-2.1,0.1-3.1,0.3
		c1-0.1,2.1-0.2,3.1-0.2V398.7L222,398.7z M231.6,397.1l-0.9,0.2c0.4,0,0.7,0,1.1-0.2H231.6L231.6,397.1z"/>
</g>
<g id="Oceania">
	<path id="path5584_2_" fill="#FEC010" stroke="#000000" stroke-linecap="round" stroke-linejoin="round" d="M370,102.3
		c0.2,0.7,0.5,1.2,1.1,1.5l-0.9-1.6L370,102.3L370,102.3z M372.7,106c0.3,0.6,0.6,1.1,1.1,1.5L372.7,106L372.7,106z M374.5,108.9
		l1.6,3.8l0.7-0.2L374.5,108.9L374.5,108.9z M219.2,149.4c2-0.9,3.7-0.6,5.1,0.7l2.7-1.8l-4-2.2l5.1,0.4l-1.1-1.1l2,0.5l-1.1-2
		l3.1,1.6l-0.4-1.3l0.4,0.9l0.9-0.9l0.2,1.1c4.9,5.4,10.6,9.2,17.5,11.6l2.5-1.3c-1.6,0-2.9-0.5-3.7-1.7l0.9-0.7l-2.4-0.7v-1.8
		l-2.2,0.2c-1.7-3.2-3.2-5.7-5.3-8.5h3.1c-0.7-3-3-4.5-6.9-4.5c-2.8-5-8.2-8.5-14.6-9.7L219.2,149.4L219.2,149.4z M179.7,125.2
		l2,0.2 M241.2,126.9l-3.1,0.2C239.2,127.4,240.2,127.4,241.2,126.9z M180.3,129.8l3.3,1.6l-1.8-2.9 M252.5,129.8
		c3.6,1.7,5.9,4.5,6.9,8.2l0.4-2.2L252.5,129.8L252.5,129.8z M254.7,135.4l0.7,2.2c-1.5,1.8-3.3,2.3-5.4,1.6v-1.6l-0.9,1.6L244,139
		c3.9,3.3,8.3,3.5,12.7,0.7l-0.5-1.3l1.6-2C257,135.5,256,135.2,254.7,135.4L254.7,135.4z M265.4,140.7c0.3,2,1.1,3.7,2.5,5.1h1.3
		L265.4,140.7L265.4,140.7z M271,145.6c0.5,1.9,1.6,2.9,3.4,3.1L271,145.6L271,145.6z M277,149.6c1.2,1.8,2.8,3.3,4.7,4.4L277,149.6
		L277,149.6z M273.6,150.7l-0.7,0.9l2,1.6L273.6,150.7L273.6,150.7z M283.6,153.6c0.3,1.9,1,3.5,2.2,4.9L283.6,153.6L283.6,153.6z
		 M223.9,154.5l-1.3,0.9c0.7,2.4,0,4.2-2,5.4l1.3,0.2c-1.1,6-2.7,11.3-5.2,17.1c-5.8-1.8-12-5.2-17.1-9.5l2.2-4.2l-0.6-1.3l2-0.2
		c-0.4-1.5,0.2-2.6,1.8-3.2l-1.6-1.6l-1.8,2.2v-1.6l-1.3,0.5l0.9-0.9l-2.2,1.3l-1.8-1.3l-2,0.9l-0.6-1.6c-2.4,1.1-4.6,0.5-6.7-2
		l-0.7,0.7l3.1,1.1l0.2,1.8c-2.2,1.3-3.9,1.2-5.1-0.3l-1.6,1.1l0.7,0.9l-1.3-0.9l0.4,1.1h-1.3v2.2c-1.9,0.3-3,1.5-3.1,3.6l2.2,1.1
		l-1.3,1.8l-1.1-1.1l-0.5,1.6l-0.2-1.3l-1.8-0.4l-1.1,1.1l0.4,1.6l-0.7-1.1l-0.4,1.1l0.7-2.7c-1.1-1.9-2.7-2.9-4.7-3.2l-0.9,1.8
		l-0.2-1.1l-1.1,1.1l-0.6-1.1l-0.2,2.7l-1.1-1.3l-1.6,1.8l1.3,1.3l-2.2,0.2l1.6,1.3l-2-1.1c-1,0.8-1.2,1.7-0.5,2.7l0.7-0.7l-0.9,2
		h1.8c-1.6,1.1-3.1,0.9-4.7-0.4v1.8l1.6,0.4v1.6l-1.3-0.9l0.2,2.2l-2.5-4.2c-2.4,1.8-2.9,3.8-1.3,6.2c-4.2,5.4-10.5,9.2-16.9,10.3
		c-4,1.6-6.3,4.2-6.7,8l-1.3-2.2c-1.3,5.6-0.3,10.7,2.9,15.3l-1.1-1.1c-0.6,0.7-0.5,1.4,0.2,2.2l-2.2-1.3
		c5.6,7.1,9.6,15.3,11.5,23.7l-1.8,0.9l0.9,2.9c8-0.4,14-1.5,23-4.2c7.9-8.9,19.4-11.2,30.6-6.4l-0.4,1.6c2.7,0.7,4.1,2.6,4.2,5.8
		l-1.1-0.2l2.5,1.6c1.6-2.4,3.9-6.2,5.3-8.7c0.1,3.3-0.2,5.3-1.2,8.3h-1.1l-0.7,1.3l2.7-0.5l1.1-3.3l1.3,2.2l-1.6,2.9l2.2-0.4
		c1.2,0.6,2,1.5,2.2,2.7l-0.2-0.4c0.5,5.6,4.3,8.9,10.3,9.8l4-3.3l0.4,1.1l-1.3,0.5h2.5l-0.4,0.9l2.2,1.8v-1.1l4.9-2.2l-1.3,0.4
		c1.7-1.9,4-2.4,7.1-1.4c-0.4-3.6,0.7-6.3,3.5-8l-0.7-0.7c1.2-3.5,3.5-6,6.9-7.5l-0.4-1.1c7-11.6,6.4-23.8-0.7-34.5l-0.2,1.1
		l-1.8-2.2v2l-0.6-1.1l-0.7,0.7c-6-10.5-10.4-19.5-14.7-30.4l-2.7,0.6C227.3,163.3,226.1,158.8,223.9,154.5L223.9,154.5z
		 M133.3,212.8l-0.9-2.1L133.3,212.8L133.3,212.8L133.3,212.8z M182.4,156l2,2.5l2-1.8l-1.8-0.2l-0.7,0.7L182.4,156L182.4,156z
		 M280.7,156.3l-0.4,0.7c1.3,0.6,2.5,1.2,3.7,1.9C283,157.9,281.9,157,280.7,156.3L280.7,156.3z M182.4,156.5l-1.1,1.6l2-0.2
		L182.4,156.5L182.4,156.5z M285.4,160.3c0.6,1.6,1.7,2.6,3.3,2.8L285.4,160.3L285.4,160.3z M384,162l-0.2,0.2l0.4,1.1L384,162
		L384,162z M204.1,164c-0.8,0.5-1.2,1.3-1.3,2.2l2,0.2L204.1,164L204.1,164z M299.8,178.9c-0.3,1.2-0.3,2.4,0,3.6l1.3-0.2
		L299.8,178.9L299.8,178.9z M300.7,184c-0.1,1.3,0.3,2,1.4,2.2l-0.7-2.2H300.7L300.7,184z M304.7,194.3c-0.3,0.3-0.4,0.6-0.4,0.9
		l0.9,0.2L304.7,194.3L304.7,194.3z M334.5,195.2l-4,0.9l3.3,1.1l0.2-1.1l-1.1,0.4C333.4,196.1,334,195.6,334.5,195.2z M289.4,195.6
		c0.8,4.3,3.2,7.6,7.1,9.8L289.4,195.6L289.4,195.6z M329.4,197.4l-2.9,1.3l1.3,1.6l2-0.2L329.4,197.4L329.4,197.4z M255.2,206
		c-1,1.1-1.3,2.3-0.9,3.6L255.2,206L255.2,206z M203,240.7l1.1,1.1l3.1-0.9L203,240.7L203,240.7z M299.6,249.8l0.5,7.3l0.2-1.3
		l1.1,1.3l-0.7,1.1l-0.4-0.7v2l0.9,0.4l-0.9-0.2c0.3,3.3-1.4,5.6-4.6,6.5l1.8,2.9l-1.6,3.3c-0.4,0-0.8,0.2-1.1,0.6l0.7,1.6
		c3.3-0.8,5.8-3,7.3-6.5l2,0.4l3.1-4l-0.9-0.9l-2.4,0.9c-2.2-1.4-2.7-3.4-1.4-6l-0.9,2.5l-1.3-2l1.1-1.3c-1-1.5-0.9-2.9,0.2-4.2
		l-0.7,0.2l-0.9-2.2l-0.6,0.7l0.2-2.2L299.6,249.8L299.6,249.8z M233,255.6v1.3l0.9,0.4L233,255.6L233,255.6z M224.1,258.3
		c-0.6,2.2-0.1,4.1,1.6,5.8l-0.9-0.7c0.1,2.3,1.4,4,3.5,5l1.3-2.9l1.8,1.8l1.1-4.2l0.2,0.9v-4.9
		C229.7,261.1,226.8,260.8,224.1,258.3L224.1,258.3z M292.3,269.6l-0.9,0.2v0.1C291.7,269.8,292,269.7,292.3,269.6z M291.4,269.9
		c-5.3,5.1-11.2,8.6-17.9,10.9v1.1l-0.5-0.7l-1.6,2.7c2-0.3,3.4,0.5,4.2,2.6c4-0.7,6.8-2.9,8.4-6.9c1.3,0.1,2.5,0.3,3.8,0.4
		l-0.7-0.9c2.4-1.9,4.9-4.3,6.8-6.5H293l1.3-0.7l-2.9,0.5V269.9L291.4,269.9z M273.2,285.8l-1.6,1.6l1.3-0.2L273.2,285.8
		L273.2,285.8z M306.7,286.9l-0.2,0.6l1.3-0.4L306.7,286.9L306.7,286.9z"/>
</g>
</svg>
