<?xml version="1.0" encoding="utf-8"?>
<!-- Generator: Adobe Illustrator 23.0.0, SVG Export Plug-In . SVG Version: 6.00 Build 0)  -->
<svg version="1.0" id="Layer_1" xmlns="http://www.w3.org/2000/svg" xmlns:xlink="http://www.w3.org/1999/xlink" x="0px" y="0px"
	 width="40px" height="40px" viewBox="0 0 40 40" enable-background="new 0 0 40 40" xml:space="preserve">
<path id="boxy_40" fill="#FFC71A" d="M12,0h16c6.6,0,12,5.4,12,12v16c0,6.6-5.4,12-12,12H12C5.4,40,0,34.6,0,28V12C0,5.4,5.4,0,12,0
	z"/>
<path id="equipment_shape_1_" d="M19,29.9c-1.7,0.1-3-1.2-3-2.9c0-1.7,1.2-3.1,2.8-3.2c0.1,0,0.2,0,0.3,0c3.8,0,5.7,0.1,9.5,0.1
	c1.5-0.1,2.9,1.3,3.3,3.1c0.4,1.8-0.5,3.2-2.1,3.2c-0.1,0-0.2,0-0.3,0C25.3,30,23.2,30,19,29.9z M17.5,26.9c0,0.9,0.6,1.5,1.5,1.5
	l0,0c4.1,0.1,6.1,0.1,10.1,0.2c0.8,0,1.4-0.6,1.3-1.4c-0.1-0.8-0.8-1.7-1.5-1.7c-0.1,0-0.1,0-0.2,0c-3.9-0.1-5.8-0.1-9.7-0.1
	C18.2,25.3,17.6,26,17.5,26.9L17.5,26.9L17.5,26.9z M9.5,23.3c-0.2-0.1-0.3-0.3-0.2-0.5c-0.1-1.4-0.1-2.2-0.3-3.6
	C8.3,19.2,8,18.6,8,18c0-0.7,0.6-1.2,1.3-1c1.7-2,2.6-3,4.4-4.9c-0.3-0.6-0.2-1.2,0.2-1.6c0.6-0.7,1.8-0.7,2.5-0.2
	c0.8,0.6,0.8,1.6,0.2,2.3c0,0-0.1,0.1-0.1,0.1c1.3,3.2,1.8,4.8,2.8,8.1c0.1,0.4-0.1,0.8-0.4,1l0,0c-0.4,0.1-0.8-0.1-0.9-0.5
	c-1-3.3-1.5-4.9-2.9-8.1c-0.1,0-0.2,0-0.3-0.1c-1.9,2-2.7,3-4.5,5c0,0.3,0,0.5-0.1,0.7c1.1,1.8,3.2,2.5,4.9,1.5
	c0.2-0.1,0.4-0.1,0.5-0.1c0.4,0.1,0.6,0.5,0.5,0.9l0,0c-0.2,0.5-0.4,1-0.6,1.4c-0.8,1.1-2.1,1.8-3.4,1.8C11,24.3,10.1,24,9.5,23.3
	L9.5,23.3z M22.2,22.2c-0.3,0-0.5-0.1-0.7-0.1c-0.9-0.4-1.4-1.5-1.1-2.6c0,0,0-0.1,0-0.1c0.8-2.2,1.2-3.3,2.2-5.6
	c0.3-0.8,1.1-1.2,1.9-1.3c1.9,0,2.9-0.1,4.8-0.1c0.1,0,0.2,0,0.2,0c1,0.1,1.6,1.1,1.3,2.3l0,0c-0.6,2.3-0.8,3.5-1.1,5.8
	c-0.2,1.1-0.9,1.9-1.9,1.8c-2.3,0-3.5,0-5.8,0C22.2,22.3,22.2,22.3,22.2,22.2z M24.1,14.4c-1,2.3-1.4,3.4-2.3,5.7
	c-0.1,0.2,0,0.5,0.3,0.6l0,0c0.1,0,0.1,0,0.2,0c2.4,0,3.6,0,5.9,0c0.2,0,0.4-0.2,0.5-0.4c0.3-2.3,0.5-3.5,1.1-5.8
	c0-0.3-0.1-0.5-0.3-0.5l0,0c-1.9,0-2.8,0-4.7,0.1C24.3,14.1,24.1,14.2,24.1,14.4L24.1,14.4z"/>
</svg>
