<?xml version="1.0" encoding="utf-8"?>
<!-- Generator: Adobe Illustrator 23.0.0, SVG Export Plug-In . SVG Version: 6.00 Build 0)  -->
<svg version="1.0" id="Layer_1" xmlns="http://www.w3.org/2000/svg" xmlns:xlink="http://www.w3.org/1999/xlink" x="0px" y="0px"
	 viewBox="0 0 40 40" enable-background="new 0 0 40 40" xml:space="preserve">
<path id="property_shape_1_" fill="#FFFFFF" d="M27.5,16.7c-3.1-1.8-4-2.6-6.7-5.1c-0.4-0.4-1-0.4-1.5,0c-2.8,2.5-3.5,3.3-6.7,5.1
	C12,17,11.7,17.4,11.7,18c0,0.3,0,0.4,0,0.6c-0.1,1,0.8,1.7,1.7,1.7c0.3,0,0.5,0,0.8,0s0.6,0.3,0.5,0.4c-0.3,3-0.7,4.6-1.3,7.9
	c5.3-0.4,8-0.4,13.3,0.2c-0.6-3.4-1.1-5-1.3-8c0-0.4,0.2-0.5,0.5-0.5s0.5,0,0.8,0c0.9,0,1.8-0.7,1.7-1.7c0-0.3,0-0.4,0-0.6
	C28.3,17.4,28,16.9,27.5,16.7z M27.2,18.8c0,0.4-0.3,0.5-0.6,0.5c-0.3,0-0.5,0-0.8,0c-0.9,0-1.6,0.7-1.5,1.6
	c0.2,2.3,0.4,3.5,0.8,6.1c-0.8-0.1-1.2-0.1-2-0.2c-0.3-2-0.3-2.9-0.5-4.6c-1,0-1.5-0.1-2.5-0.1c0,1.7,0,2.5,0,4.6
	c-2.1,0-3.1,0-5.3,0.2c0.4-2.6,0.7-3.8,0.8-6.1c0.1-0.9-0.6-1.5-1.5-1.5c-0.3,0-0.5,0-0.8,0s-0.6-0.3-0.6-0.5s0-0.4,0-0.6
	s0.1-0.4,0.3-0.4c3.2-1.8,4-2.6,6.7-5c0.1-0.1,0.3-0.1,0.3,0c2.7,2.3,3.5,3.1,6.7,4.9C26.9,17.9,27.2,18.4,27.2,18.8z"/>
<path fill="#FFFFFF" d="M27.3,22.7c0-1.7-2.9-4.6-4.6-4.6c1.7,0,4.6-2.9,4.6-4.6c0,1.7,2.9,4.6,4.6,4.6C30.2,18.1,27.3,21,27.3,22.7
	z"/>
<path fill="#FFFFFF" d="M32.7,16.7c0-1.1-1.9-3-3-3c1.1,0,3-1.9,3-3c0,1.1,1.9,3,3,3C34.6,13.7,32.7,15.6,32.7,16.7z"/>
<path fill="#FFFFFF" d="M28.5,11.9c0-0.7-1.2-2-2-2c0.7,0,2-1.2,2-2c0,0.7,1.2,2,2,2C29.7,10,28.5,11.2,28.5,11.9z"/>
<path fill="#FFFFFF" d="M31.4,8.6c0-0.5-0.8-1.3-1.3-1.3c0.5,0,1.3-0.8,1.3-1.3c0,0.5,0.8,1.3,1.3,1.3C32.2,7.3,31.4,8.1,31.4,8.6z"
	/>
</svg>
