<?xml version="1.0" encoding="utf-8"?>
<!-- Generator: Adobe Illustrator 23.0.0, SVG Export Plug-In . SVG Version: 6.00 Build 0)  -->
<svg version="1.0" id="Layer_1" xmlns="http://www.w3.org/2000/svg" xmlns:xlink="http://www.w3.org/1999/xlink" x="0px" y="0px"
	 width="40px" height="40px" viewBox="0 0 40 40" enable-background="new 0 0 40 40" xml:space="preserve">
<path id="products_shape_2_" fill="#FFFFFF" d="M30,15.5c-3.5-1.2-5.2-1.3-8.8-2.1c-0.7-0.2-1.8-0.2-2.7,0c-3.6,0.9-5.2,1-8.8,2.3
	c-0.8,0.3-1.3,1-1.1,1.7c0.7,3,1.2,4.3,1.6,7.1c0.1,0.6,0.5,1.1,1.3,1.4c3,0.9,4.2,1.4,7.4,2.8c0.6,0.3,1.7,0.3,2.4,0.1
	c3.1-1.2,4.3-1.7,7.4-2.5c0.8-0.3,1.2-0.8,1.2-1.4c0.2-2.9,0.9-4.2,1.5-7.5C31.3,16.4,30.8,15.8,30,15.5z M19.6,13.9
	c0.2-0.1,0.4-0.1,0.5,0c3.2,0.9,4.9,1.1,8,2.2c0.1,0,0.1,0.1,0.2,0.2c0.1,0.2,0,0.5-0.3,0.6l0,0c-0.8,0.3-1.2,0.6-2,0.8
	c-3.5-1.3-5.3-1.5-9.1-2.9C18,14.5,18.5,14.3,19.6,13.9z M19.3,27.1c0,0.1,0,0.1-0.1,0.2c-0.1,0.2-0.4,0.2-0.6,0.2
	c-2.8-1.1-3.9-1.7-6.8-2.6c-0.1-0.1-0.3-0.2-0.2-0.3c-0.1-2.5-0.7-3.7-1.2-6.4c0-0.1,0-0.1,0.1-0.2c0.1-0.2,0.5-0.3,0.8-0.2
	c3.6,1.2,5.1,1.8,7.9,2.8c0.1,0.1,0.2,0.2,0.2,0.3C19.3,23.4,19.4,24.6,19.3,27.1z M19.7,19.9c-2.8-1.1-4.3-1.6-7.9-2.9
	c-0.1,0-0.2-0.1-0.3-0.2c-0.2-0.2,0-0.4,0.2-0.6l0,0c0.9-0.3,1.3-0.4,2.2-0.7c4,1.5,5.8,1.9,9.2,3.1c-1.2,0.4-1.8,0.7-2.9,1.1
	C20,20,19.9,20,19.7,19.9L19.7,19.9z M28.3,24.7c0,0.2-0.2,0.3-0.2,0.3c-2.9,0.9-4.1,1.3-6.9,2.5c-0.1,0-0.1,0.1-0.2,0.1
	c-0.2,0-0.4-0.2-0.4-0.3l0,0c0-2.5,0-3.7,0-6.2c0-0.2,0.1-0.2,0.2-0.3c1.1-0.5,1.7-0.6,2.8-1.1c0,1-0.1,1.5-0.2,2.6
	c1-0.4,1.6-0.6,2.8-1c0.1-1,0.3-1.6,0.4-2.7c0.8-0.2,1.2-0.4,2-0.7c0.1,0,0.2-0.1,0.3-0.1c0.3,0,0.5,0.2,0.4,0.4l0,0
	C28.9,20.9,28.4,22.1,28.3,24.7z M17,21.8C16.9,22,16.7,22,16.4,22c-1.1-0.4-1.7-0.6-2.8-1c-0.4-0.2-0.9-0.5-0.8-0.9
	s0.5-0.4,0.7-0.3s2.4,0.7,2.9,1C17,21.1,17.2,21.5,17,21.8z"/>
</svg>
