<?xml version="1.0" encoding="utf-8"?>
<!-- Generator: Adobe Illustrator 23.0.0, SVG Export Plug-In . SVG Version: 6.00 Build 0)  -->
<svg version="1.0" id="Layer_1" xmlns="http://www.w3.org/2000/svg" xmlns:xlink="http://www.w3.org/1999/xlink" x="0px" y="0px"
	 width="40px" height="40px" viewBox="0 0 40 40" enable-background="new 0 0 40 40" xml:space="preserve">
<g>
	<g>
		<g>
			<path id="property_shape_1_" fill="#FFFFFF" d="M28.9,16.1c-3.7-2.1-4.7-3-8-5.8c-0.5-0.5-1.2-0.5-1.8,0c-3.3,2.8-4.2,3.7-8,5.8
				c-0.7,0.3-1.1,0.8-1.1,1.5c0,0.3,0,0.4,0,0.7c-0.1,1.1,0.9,1.9,2,1.9c0.4,0,0.6,0,1,0s0.7,0.3,0.6,0.5c-0.3,3.4-0.8,5.2-1.5,9
				c6.3-0.4,9.5-0.4,15.8,0.2c-0.7-3.9-1.3-5.7-1.6-9.1c0-0.4,0.2-0.6,0.6-0.6s0.6,0,1,0c1.1,0,2.1-0.8,2-1.9c0-0.3,0-0.4,0-0.7
				C29.8,17,29.5,16.4,28.9,16.1z M28.5,18.5c0,0.4-0.3,0.6-0.7,0.6c-0.4,0-0.6,0-1,0c-1.1,0-1.9,0.8-1.8,1.8c0.2,2.6,0.5,4,1,7
				c-1-0.1-1.4-0.1-2.4-0.2c-0.3-2.3-0.4-3.3-0.6-5.2c-1.2,0-1.8-0.1-3-0.1c0,1.9,0,2.9,0,5.2c-2.5,0-3.7,0-6.3,0.2
				c0.5-3,0.8-4.3,1-6.9c0.1-1-0.7-1.7-1.8-1.7c-0.4,0-0.6,0-1,0s-0.7-0.3-0.7-0.6c0-0.3,0-0.4,0-0.7c0-0.2,0.1-0.4,0.3-0.5
				c3.8-2.1,4.7-3,7.9-5.7c0.1-0.1,0.3-0.1,0.4,0c3.2,2.6,4.1,3.5,7.9,5.6C28.1,17.5,28.5,18.1,28.5,18.5z"/>
		</g>
	</g>
</g>
</svg>
