<?xml version="1.0" encoding="utf-8"?>
<!-- Generator: Adobe Illustrator 23.0.0, SVG Export Plug-In . SVG Version: 6.00 Build 0)  -->
<svg version="1.0" id="Layer_1" xmlns="http://www.w3.org/2000/svg" xmlns:xlink="http://www.w3.org/1999/xlink" x="0px" y="0px"
	 viewBox="0 0 40 40" enable-background="new 0 0 40 40" xml:space="preserve">
<path id="boxy_40_4_" fill="#FFC71A" d="M12,0h16c6.6,0,12,5.4,12,12v16c0,6.6-5.4,12-12,12H12C5.4,40,0,34.6,0,28V12
	C0,5.4,5.4,0,12,0z"/>
<path id="property_shape_5_" fill="#030303" d="M27.5,16.7c-3.1-1.8-4-2.6-6.7-5.1c-0.4-0.4-1-0.4-1.5,0c-2.8,2.5-3.5,3.3-6.7,5.1
	C12,17,11.7,17.4,11.7,18c0,0.3,0,0.4,0,0.6c-0.1,1,0.8,1.7,1.7,1.7c0.3,0,0.5,0,0.8,0s0.6,0.3,0.5,0.4c-0.3,3-0.7,4.6-1.3,7.9
	c5.3-0.4,8-0.4,13.3,0.2c-0.6-3.4-1.1-5-1.3-8c0-0.4,0.2-0.5,0.5-0.5s0.5,0,0.8,0c0.9,0,1.8-0.7,1.7-1.7c0-0.3,0-0.4,0-0.6
	C28.3,17.4,28,16.9,27.5,16.7z M27.2,18.8c0,0.4-0.3,0.5-0.6,0.5c-0.3,0-0.5,0-0.8,0c-0.9,0-1.6,0.7-1.5,1.6
	c0.2,2.3,0.4,3.5,0.8,6.1c-0.8-0.1-1.2-0.1-2-0.2c-0.3-2-0.3-2.9-0.5-4.6c-1,0-1.5-0.1-2.5-0.1c0,1.7,0,2.5,0,4.6
	c-2.1,0-3.1,0-5.3,0.2c0.4-2.6,0.7-3.8,0.8-6.1c0.1-0.9-0.6-1.5-1.5-1.5c-0.3,0-0.5,0-0.8,0s-0.6-0.3-0.6-0.5s0-0.4,0-0.6
	s0.1-0.4,0.3-0.4c3.2-1.8,4-2.6,6.7-5c0.1-0.1,0.3-0.1,0.3,0c2.7,2.3,3.5,3.1,6.7,4.9C26.9,17.9,27.2,18.4,27.2,18.8z"/>
<path fill="#FFC71A" d="M12.8,18.7c-3.1,0.3-5.7-2.1-5.7-5.2s2.7-5.9,5.7-6.2c3.1-0.3,5.7,2.1,5.7,5.2
	C18.6,15.6,15.9,18.4,12.8,18.7z"/>
<path d="M12.8,6.2c-3.4,0-6.7,3.3-6.7,6.7c0,3.9,2.8,6.7,6.7,6.7c3.4,0,6.7-3.3,6.7-6.7C19.5,9,16.7,6.2,12.8,6.2z M12.8,18.7
	c-3.1,0.3-5.7-2.1-5.7-5.2s2.7-5.9,5.7-6.2c3.1-0.3,5.7,2.1,5.7,5.2C18.6,15.6,15.9,18.4,12.8,18.7z M14.5,12.5
	c-0.6,0.2-0.9,0.3-1.6,0.5c0-0.8,0-1.2,0-1.9c0-0.3-0.2-0.4-0.5-0.3c-0.3,0.1-0.5,0.4-0.5,0.7c0,1,0,1.5,0,2.4
	c0,0.3,0.2,0.4,0.5,0.3c0.8-0.3,1.3-0.4,2.1-0.6c0.3-0.1,0.5-0.3,0.5-0.6C15,12.6,14.8,12.4,14.5,12.5z M12.8,7.8
	c-0.3,0-0.5,0.3-0.5,0.6c0,0.2,0,0.3,0,0.5c0,0.3,0.2,0.5,0.5,0.4s0.5-0.3,0.5-0.6c0-0.2,0-0.3,0-0.4C13.3,7.9,13.1,7.7,12.8,7.8z
	 M16.5,8.8c-0.2-0.2-0.5-0.2-0.7,0c-0.1,0.1-0.2,0.2-0.3,0.3c-0.2,0.2-0.2,0.5,0,0.6c0.1,0.1,0.2,0.1,0.3,0.1s0.3-0.1,0.3-0.1
	c0.1-0.1,0.2-0.2,0.3-0.3C16.7,9.2,16.7,9,16.5,8.8z M17.5,11.7c-0.2,0-0.3,0-0.4-0.1c-0.3,0-0.5,0.2-0.5,0.4s0.2,0.5,0.5,0.5
	c0.2,0,0.3,0,0.4,0.1c0.3,0,0.5-0.1,0.5-0.4C18,12,17.8,11.8,17.5,11.7z M16.5,15.3c-0.1-0.2-0.2-0.2-0.3-0.3
	c-0.2-0.2-0.5-0.2-0.7,0s-0.2,0.6,0,0.8c0.1,0.1,0.2,0.2,0.3,0.3s0.2,0.2,0.3,0.2c0.1,0,0.3-0.1,0.3-0.2
	C16.7,15.9,16.7,15.6,16.5,15.3z M12.8,16.7c-0.3,0.1-0.5,0.3-0.5,0.6c0,0.2,0,0.3,0,0.4c0,0.3,0.2,0.4,0.5,0.4s0.5-0.3,0.5-0.6
	c0-0.2,0-0.3,0-0.5C13.3,16.9,13.1,16.7,12.8,16.7z M10.2,16.2C10,16,9.7,16,9.5,16.2c-0.1,0.1-0.2,0.2-0.3,0.3
	c-0.2,0.2-0.2,0.4,0,0.6c0.1,0.1,0.2,0.1,0.3,0.1s0.3,0,0.3-0.1c0.1-0.1,0.2-0.2,0.3-0.3C10.4,16.7,10.4,16.4,10.2,16.2z M8.6,13.3
	c-0.2,0-0.3,0-0.4-0.1c-0.3,0-0.5,0.2-0.5,0.4s0.2,0.5,0.5,0.6c0.2,0,0.3,0,0.4,0.1c0.3,0,0.5-0.2,0.5-0.4S8.9,13.3,8.6,13.3z
	 M10.2,10.1C10.1,10,10,9.9,9.9,9.8c-0.2-0.2-0.5-0.2-0.7,0s-0.2,0.6,0,0.8c0.1,0.2,0.2,0.2,0.3,0.3s0.2,0.2,0.3,0.2
	s0.3-0.1,0.3-0.2C10.4,10.7,10.4,10.3,10.2,10.1z"/>
</svg>
