<?xml version="1.0" encoding="utf-8"?>
<!-- Generator: Adobe Illustrator 23.0.0, SVG Export Plug-In . SVG Version: 6.00 Build 0)  -->
<svg version="1.0" id="Layer_1" xmlns="http://www.w3.org/2000/svg" xmlns:xlink="http://www.w3.org/1999/xlink" x="0px" y="0px"
	 viewBox="0 0 50 50" enable-background="new 0 0 50 50" xml:space="preserve">
<g id="backbutton">
	<path d="M1.8,19.2C0.7,20.3,0,21.9,0,23.5c0,3,2,5.1,4.3,5.1h41.5c0.9,0,2.9,0,3.8-2.1c0.9-2.4,0.2-4.8-1.1-5.9L29.2,4.7
		c-2.9-2.4-6.7-2.4-9.6,0L1.8,19.2z"/>
	<path fill="#FFFFFF" d="M1.5,21.6c0,1.6,1.1,3.2,2.7,3.2h39c0.9,0,1.8-0.5,2.2-1.3c0.9-1.3,0.7-3.5-0.7-4.6L28.2,5.3
		c-2.7-2.1-6.3-2.1-9,0L2.7,19C1.8,19.8,1.3,20.6,1.5,21.6z"/>
</g>
</svg>
