<?xml version="1.0" encoding="utf-8"?>
<!-- Generator: Adobe Illustrator 23.0.0, SVG Export Plug-In . SVG Version: 6.00 Build 0)  -->
<svg version="1.0" id="Layer_1" xmlns="http://www.w3.org/2000/svg" xmlns:xlink="http://www.w3.org/1999/xlink" x="0px" y="0px"
	 viewBox="0 0 50 50" enable-background="new 0 0 50 50" xml:space="preserve">
<g id="backbutton">
	<path d="M48.2,31c1.1-1.1,1.8-2.7,1.8-4.3c0-3-2-5.1-4.3-5.1H4.2c-0.9,0-2.9,0-3.8,2.1c-0.9,2.4-0.2,4.8,1.1,5.9l19.3,15.8
		c2.9,2.4,6.7,2.4,9.6,0L48.2,31z"/>
	<path fill="#FFFFFF" d="M47.2,28.6c0-1.6-1.1-3.2-2.7-3.2h-39c-0.9,0-1.8,0.5-2.2,1.3c-0.9,1.3-0.7,3.5,0.7,4.6L20.5,45
		c2.7,2.1,6.3,2.1,9,0l16.6-13.7C47,30.5,47.5,29.7,47.2,28.6z"/>
</g>
</svg>
