<?xml version="1.0" encoding="utf-8"?>
<!-- Generator: Adobe Illustrator 23.0.0, SVG Export Plug-In . SVG Version: 6.00 Build 0)  -->
<svg version="1.0" id="Layer_1" xmlns="http://www.w3.org/2000/svg" xmlns:xlink="http://www.w3.org/1999/xlink" x="0px" y="0px"
	 viewBox="0 0 50 50" enable-background="new 0 0 50 50" xml:space="preserve">
<g id="backbutton">
	<path d="M31.1,1.8C30,0.7,28.4,0,26.8,0c-3,0-5.1,2-5.1,4.3v41.5c0,0.9,0,2.9,2.1,3.8c2.4,0.9,4.8,0.2,5.9-1.1l15.8-19.3
		c2.4-2.9,2.4-6.7,0-9.6L31.1,1.8z"/>
	<path fill="#FFFFFF" d="M28.7,1.7c-1.6,0-3.2,1.1-3.2,2.7v39c0,0.9,0.5,1.8,1.3,2.2c1.3,0.9,3.5,0.7,4.6-0.7L45,28.4
		c2.1-2.7,2.1-6.3,0-9L31.3,2.8C30.5,1.9,29.7,1.5,28.7,1.7z"/>
</g>
</svg>
