<?xml version="1.0" encoding="utf-8"?>
<!-- Generator: Adobe Illustrator 23.0.0, SVG Export Plug-In . SVG Version: 6.00 Build 0)  -->
<svg version="1.0" id="Layer_1" xmlns="http://www.w3.org/2000/svg" xmlns:xlink="http://www.w3.org/1999/xlink" x="0px" y="0px"
	 viewBox="0 0 50 50" enable-background="new 0 0 50 50" xml:space="preserve">
<path opacity="0.5" fill="#7C6427" enable-background="new    " d="M12.7,18.5C12.7,18.5,12.7,18.5,12.7,18.5
	c0.1-0.3,0.3-0.4,0.4-0.6c0,0,0,0,0-0.1c0.2-0.4,0.5-0.8,0.7-1.2c0,0,0-0.1,0.1-0.1c1.3-2.1,2.6-4.2,2.6-4.2c0,0,0,0.4,0.1,1
	c0.1,1,0.2,2.4,0.3,3c0,0.1,0,0.3,0,0.4c0,0,0,0.1,0,0.1c0,0.3,0.1,0.6,0.1,1c0,0.2,0,0.3,0,0.5C15.3,18.4,14.4,18.4,12.7,18.5z
	 M18.6,26.8C18.6,26.8,18.6,26.8,18.6,26.8c-0.1-0.2-0.3-0.4-0.4-0.7c0,0,0,0,0-0.1c-0.1-0.2-0.2-0.4-0.3-0.6c0,0,0,0,0,0
	c-0.1-0.2-0.2-0.4-0.2-0.6c0,0,0-0.1,0-0.1c-0.1-0.2-0.1-0.4-0.1-0.6c-2.4,0.1-6,0.3-8.6,0.6c-1.1,1.7-2,3.2-2,3.2
	C11.8,27.2,14.1,27,18.6,26.8C18.6,26.8,18.6,26.8,18.6,26.8z M20.2,40.6C20.2,40.6,20.2,40.6,20.2,40.6c-0.1-0.6-0.2-1.3-0.3-2
	c0,0,0,0,0,0c-1.9,0.3-3.8,0.6-5.3,1c0,0,0,0,0,0c0,0.2,0.1,0.3,0.1,0.5c0.1,0.2,0.1,0.3,0.2,0.4c0,0,0,0,0,0c0.2,0.3,0.4,0.6,0.6,1
	c0,0,0,0,0,0C17.3,41.1,18.4,40.9,20.2,40.6C20.2,40.6,20.2,40.6,20.2,40.6z M19.5,34.4C19.5,34.4,19.5,34.4,19.5,34.4
	c0-0.4,0-0.8,0-1.2c0,0,0-0.1,0-0.1c0-0.4,0-0.7,0-1.1c-2.6,0.2-4.1,0.3-6.7,0.8c0,0,0,0,0,0c0.1,0.1,0.2,0.3,0.3,0.4
	c0.1,0.2,0.2,0.3,0.2,0.5c0.2,0.4,0.4,0.9,0.5,1.4c0,0,0,0,0,0C16,34.7,17.3,34.6,19.5,34.4z M37.3,18.5
	C37.3,18.5,37.3,18.5,37.3,18.5c-0.1-0.3-0.3-0.4-0.4-0.6c0,0,0,0,0-0.1c-0.2-0.4-0.5-0.8-0.7-1.2c0,0,0-0.1-0.1-0.1
	c-1.3-2.1-2.6-4.2-2.6-4.2c0,0,0,0.4-0.1,1c-0.1,1-0.2,2.4-0.3,3c0,0.1,0,0.3,0,0.4c0,0,0,0.1,0,0.1c0,0.3-0.1,0.6-0.1,1
	c0,0.2,0,0.3,0,0.5C34.7,18.4,35.6,18.4,37.3,18.5z M31.4,26.8c4.5,0.2,6.8,0.4,11.7,1c0,0-0.9-1.4-2-3.2c-2.6-0.2-6.2-0.5-8.6-0.6
	c0,0.2-0.1,0.4-0.1,0.6c0,0,0,0.1,0,0.1c-0.1,0.2-0.1,0.4-0.2,0.6c0,0,0,0,0,0c-0.1,0.2-0.2,0.4-0.3,0.6c0,0,0,0,0,0.1
	C31.7,26.4,31.5,26.6,31.4,26.8C31.4,26.8,31.4,26.8,31.4,26.8C31.4,26.8,31.4,26.8,31.4,26.8z M29.8,40.6c1.8,0.3,2.9,0.5,4.6,1
	c0,0,0,0,0,0c0.3-0.3,0.5-0.7,0.6-1c0,0,0,0,0,0c0.1-0.1,0.1-0.3,0.2-0.4c0.1-0.2,0.1-0.3,0.1-0.5c0,0,0,0,0,0
	c-1.5-0.4-3.4-0.8-5.3-1c0,0,0,0,0,0C30,39.3,29.9,40,29.8,40.6C29.8,40.6,29.8,40.6,29.8,40.6C29.8,40.6,29.8,40.6,29.8,40.6z
	 M36.1,35.2C36.2,35.2,36.2,35.2,36.1,35.2c0.2-0.6,0.4-1,0.6-1.5c0.1-0.2,0.2-0.3,0.2-0.5c0.1-0.1,0.2-0.3,0.3-0.4c0,0,0,0,0,0
	c-2.6-0.5-4.1-0.6-6.7-0.8c0,0.4,0,0.7,0,1.1c0,0,0,0.1,0,0.1c0,0.4,0,0.7,0,1.1c0,0,0,0.1,0,0.1C32.7,34.6,34,34.7,36.1,35.2z
	 M22,9.8c0.3,0.5,0.4,0.8,0.6,1.1c0.1,0.3,0.2,1.4,0.4,2.4c0.1,0.4,0.4,0.7,0.8,0.7c0,0,0.7,0,0.6-0.9c-0.1-0.8-0.3-2-0.5-2.7
	c-0.2-0.7-0.5-1.3-0.9-2.1s0.8-0.8,1.1-0.8c0.3,0,1.7,0,2,0c0.3,0,1.4,0.1,1.1,0.8s-0.6,1.4-0.9,2.1c-0.2,0.7-0.3,1.9-0.5,2.7
	c-0.1,0.8,0.6,0.9,0.6,0.9c0.4,0,0.7-0.3,0.8-0.7c0.2-1,0.2-2,0.4-2.4c0.1-0.3,0.3-0.7,0.6-1.1c1.5,0.1,3,0.3,4.6,0.9
	c0,1-0.2,2.7-0.5,4.8c-2.9,0.1-5,0.1-7.1,0.1s-4.3,0-7.1-0.1c-0.3-2.1-0.5-3.8-0.5-4.8C18.9,10,20.4,9.9,22,9.8z"/>
<path opacity="0.2" fill="#FFC000" enable-background="new    " d="M19.4,27.9c0,0.8,0.1,5,0.2,7.6s1,7.6,1,7.6s-1.4,0-2.2,0
	s-1.5-0.4-2.1-0.7c-0.6-0.3-1.1-1.2-1.4-1.7s-0.4-1.4-0.6-2s-0.2-1.3-0.2-2.2s-0.5-1.9-0.8-2.7c-0.3-0.8-1-1.6-1.4-2.1
	c-0.5-0.5-1.1-1-1.9-1.7c-0.8-0.6-3-2.2-3-2.2s3.7-5.8,5-7.9s4.6-7.6,4.6-7.6s0.3,3,0.4,4s0.3,3.5,0.4,4.4c0.1,0.9,0.2,2.3,0.3,3.4
	c0.1,1.1,0.8,2.2,1.7,3.4C19.2,27.6,19.4,27.9,19.4,27.9 M30.6,27.9c0,0.8-0.1,5-0.2,7.6c-0.1,2.6-1,7.6-1,7.6s1.4,0,2.2,0
	c0.8-0.1,1.5-0.4,2.1-0.7c0.6-0.3,1.1-1.2,1.4-1.7s0.4-1.4,0.6-2c0.1-0.6,0.2-1.3,0.2-2.2s0.5-1.9,0.8-2.7s1-1.6,1.4-2.1
	c0.5-0.5,1.1-1,1.9-1.7s3-2.2,3-2.2s-3.7-5.8-5-7.9c-1.3-2.1-4.6-7.6-4.6-7.6s-0.3,3-0.4,4s-0.3,3.5-0.4,4.4
	c-0.1,0.9-0.2,2.3-0.3,3.4s-0.8,2.2-1.7,3.4C30.8,27.6,30.6,27.9,30.6,27.9"/>
<path fill="#FFC000" d="M44.8,28.4c-0.1-0.2-7.6-11.9-11.2-19.2c-1.7-0.6-3.4-0.9-5.1-1c0-0.9-0.5-1.8-1.1-2C26.6,6,25.5,5.9,25,5.9
	s-1.6,0-2.3,0.3c-0.7,0.2-1.1,1.1-1.1,2c-1.7,0.2-3.4,0.5-5.1,1C12.8,16.5,5.3,28.2,5.2,28.4c-0.1,0.2-0.6,1.2,0.6,1.2
	c4.1,0.5,6.9,3.5,7.3,6.8c0.3,1.8,0.5,2.7,0.9,4.2c0.2,0.8,0.8,1.4,1.3,2c1.8,1.4,4.2,1.6,6.5,1.2c0.3,0,0.6-0.2,0.5-0.5
	c-0.8-4.2-1-7.1-1-14.3c0.6,0.3,1.1,0.6,1.7,0.8c0.1,3.9,0.2,5.6,0.4,8.7c0,0.2,0.1,0.3,0.3,0.4c0.5,0.2,0.8,0.3,1.4,0.3v0
	c0,0,0,0,0,0s0,0,0,0v0c0.7,0,0.9-0.1,1.4-0.3c0.2-0.1,0.3-0.2,0.3-0.4c0.2-3,0.3-4.8,0.4-8.7c0.6-0.2,1.1-0.5,1.7-0.8
	c-0.1,7.1-0.3,10.1-1,14.3c-0.1,0.3,0.2,0.5,0.5,0.5c2.3,0.4,4.7,0.2,6.5-1.2c0.6-0.6,1.1-1.2,1.3-2c0.4-1.5,0.6-2.4,0.9-4.2
	c0.5-3.2,3.2-6.3,7.3-6.8C45.4,29.7,44.9,28.7,44.8,28.4z M33.2,16.4c0.1-1,0.4-4,0.4-4s2.2,3.6,3.7,6.1c0,0,0,0,0,0.1
	c-1.7-0.1-2.6-0.1-4.3-0.1C33.1,17.6,33.1,16.8,33.2,16.4z M32.8,20.8c0-0.2,0-0.5,0.1-0.9c0,0,0,0,0,0c2.1,0,3.2,0,5.2,0.1
	c0.4,0.7,1.2,1.9,1.9,3.1c0,0,0,0,0,0c-1.9-0.1-5.3-0.3-7.4-0.4C32.7,22,32.8,21.3,32.8,20.8z M22,9.8c0.3,0.5,0.4,0.8,0.6,1.1
	c0.1,0.3,0.2,1.4,0.4,2.4c0.1,0.4,0.4,0.7,0.8,0.7c0,0,0.7,0,0.6-0.9c-0.1-0.8-0.3-2-0.5-2.7c-0.2-0.7-0.5-1.3-0.9-2.1
	s0.8-0.8,1.1-0.8c0.3,0,1.7,0,2,0c0.3,0,1.4,0.1,1.1,0.8s-0.6,1.4-0.9,2.1c-0.2,0.7-0.3,1.9-0.5,2.7c-0.1,0.8,0.6,0.9,0.6,0.9
	c0.4,0,0.7-0.3,0.8-0.7c0.2-1,0.2-2,0.4-2.4c0.1-0.3,0.3-0.7,0.6-1.1c1.5,0.1,3,0.3,4.6,0.9c0,1-0.2,2.7-0.5,4.8
	c-2.9,0.1-5,0.1-7.1,0.1s-4.3,0-7.1-0.1c-0.3-2.1-0.5-3.8-0.5-4.8C18.9,10,20.4,9.9,22,9.8z M12.7,18.5c1.5-2.5,3.7-6.1,3.7-6.1
	s0.3,3,0.4,4c0,0.5,0.1,1.3,0.2,2.1C15.3,18.4,14.4,18.4,12.7,18.5C12.7,18.5,12.7,18.5,12.7,18.5z M9.9,23.1
	c0.8-1.2,1.5-2.4,1.9-3.1c2.1-0.1,3.1-0.1,5.2-0.1c0,0,0,0,0,0c0,0.3,0.1,0.6,0.1,0.9c0.1,0.5,0.1,1.2,0.2,2
	C15.2,22.8,11.8,23,9.9,23.1C9.9,23.1,9.9,23.1,9.9,23.1z M8.9,24.7c2.6-0.2,6.2-0.5,8.6-0.6c0.1,0.9,0.5,1.7,1.1,2.7c0,0,0,0,0,0
	c-4.5,0.2-6.8,0.4-11.7,1C6.9,27.9,7.8,26.4,8.9,24.7z M9.9,30c-0.2-0.2-0.6-0.5-1-0.7c4.3-0.7,6.4-0.8,10.5-1c0,0,0,0,0,0
	c0,0.6,0,1.5,0.1,2.6l0,0c-2.9,0.2-4.5,0.3-7.6,0.9C11.4,31.2,10.8,30.7,9.9,30z M13.9,35.2C13.8,35.2,13.8,35.2,13.9,35.2
	c-0.2-0.6-0.4-1-0.6-1.5c-0.1-0.3-0.3-0.6-0.5-0.9c0,0,0,0,0,0c2.6-0.5,4.1-0.6,6.7-0.8c0,0.8,0,1.6,0.1,2.4
	C17.3,34.6,16,34.7,13.9,35.2z M14.1,36.4c0,0,0-0.1,0-0.1c2.3-0.5,3.3-0.6,5.5-0.9c0,0.6,0.1,1.4,0.2,2.2c-1.4,0.2-3.7,0.6-5.4,1
	C14.2,38,14.2,37.3,14.1,36.4z M14.9,40.6c-0.1-0.2-0.3-0.6-0.3-0.9c1.5-0.4,3.4-0.8,5.3-1c0.1,0.7,0.2,1.4,0.3,2c0,0,0,0,0,0
	c-1.8,0.3-2.9,0.5-4.6,1C15.3,41.3,15.1,40.9,14.9,40.6z M18.4,43.1c-0.8-0.1-1.5-0.4-2.1-0.7c1.5-0.4,2.3-0.6,4-0.9c0,0,0,0,0,0
	c0.2,1,0.3,1.6,0.3,1.6S19.2,43.1,18.4,43.1z M27.7,28.5c-0.1-0.3-0.4-0.5-0.7-0.5c-0.4,0-0.8,0.2-0.8,0.6c0,0.3,0,0.4,0,0.7
	c-0.1,4-0.2,5.7-0.3,8.8c-0.3,0.1-1.6,0.1-1.9,0c-0.1-3-0.2-4.8-0.3-8.8c0-0.3,0-0.4,0-0.7c0-0.4-0.4-0.6-0.8-0.6
	c-0.3,0-0.6,0.2-0.7,0.5c-0.8-0.3-1.2-0.6-2-1.4c-0.8-0.8-1.2-1.6-1.4-2.5c-0.3-0.9-0.5-2.6-0.7-4.4c1.4,0.3,2.1,0.4,3.4,0.6
	c0,0,1.9-0.5,1.7-0.8c-0.2-0.3-0.3-0.5-0.5-0.5c-0.2-0.1-3-0.6-5-0.8c-0.1-0.7-0.1-1.2-0.2-1.9c3,0,11.5,0,14.5,0
	c-0.1,0.7-0.1,1.2-0.2,1.9c-2,0.2-4.8,0.7-5,0.8c-0.2,0.1-0.3,0.3-0.5,0.5c-0.2,0.3,1.7,0.8,1.7,0.8c1.3-0.2,2-0.3,3.4-0.6
	c-0.2,1.8-0.4,3.5-0.7,4.4c-0.3,0.9-0.7,1.7-1.4,2.5C28.9,27.9,28.4,28.3,27.7,28.5z M31.6,43.1c-0.8,0.1-2.2,0-2.2,0
	s0.1-0.7,0.3-1.6c0,0,0,0,0,0c1.7,0.3,2.5,0.5,4,0.9C33.1,42.7,32.4,43,31.6,43.1z M35.1,40.6c-0.2,0.3-0.4,0.6-0.6,1
	c-1.8-0.5-2.8-0.7-4.6-1c0,0,0,0,0,0c0.1-0.6,0.2-1.3,0.3-2c1.9,0.3,3.8,0.6,5.3,1C35.3,40,35.2,40.4,35.1,40.6z M35.9,36.4
	c-0.1,0.9-0.1,1.6-0.2,2.2c-1.7-0.4-4-0.8-5.4-1c0.1-0.8,0.2-1.6,0.2-2.2c2.2,0.3,3.2,0.4,5.5,0.9C35.9,36.4,35.9,36.4,35.9,36.4z
	 M37.2,32.9c-0.2,0.3-0.4,0.6-0.5,0.9c-0.2,0.4-0.4,0.9-0.5,1.4c0,0,0,0,0,0c-2.2-0.5-3.4-0.6-5.7-0.8c0-0.8,0-1.6,0.1-2.4
	C33.1,32.3,34.6,32.4,37.2,32.9C37.2,32.8,37.2,32.9,37.2,32.9z M40.1,30c-0.8,0.6-1.4,1.2-1.9,1.7c-3-0.6-4.7-0.7-7.6-0.9l0,0
	c0-1.1,0.1-2,0.1-2.6c0,0,0,0,0,0c4.1,0.2,6.2,0.4,10.5,1C40.7,29.6,40.3,29.8,40.1,30z M31.4,26.8C31.4,26.8,31.4,26.8,31.4,26.8
	c0.6-0.9,1.1-1.8,1.2-2.7c2.4,0.1,6,0.3,8.6,0.6c1.1,1.7,2,3.2,2,3.2C38.2,27.2,35.9,27,31.4,26.8z"/>
</svg>
