<?xml version="1.0" encoding="utf-8"?>
<!-- Generator: Adobe Illustrator 23.0.0, SVG Export Plug-In . SVG Version: 6.00 Build 0)  -->
<svg version="1.0" id="i_back" xmlns="http://www.w3.org/2000/svg" xmlns:xlink="http://www.w3.org/1999/xlink" x="0px" y="0px"
	 width="50px" height="50px" viewBox="0 0 50 50" enable-background="new 0 0 50 50" xml:space="preserve">
<g id="backbutton">
	<path d="M24.2,15.5c-0.4-0.5-1-0.8-1.6-0.8c-1.1,0-1.9,0.9-1.9,1.9v18.5c0,0.4,0,1.3,0.8,1.7c0.9,0.4,1.8,0.1,2.2-0.5l5.9-8.6
		c0.9-1.3,0.9-3,0-4.3L24.2,15.5z"/>
	<path fill="#FFFFFF" d="M23.3,15.1c-0.6,0-1.2,0.5-1.2,1.2v17.4c0,0.4,0.2,0.8,0.5,1c0.5,0.4,1.3,0.3,1.7-0.3l5.1-7.4
		c0.8-1.2,0.8-2.8,0-4l-5.1-7.4C24,15.2,23.7,15,23.3,15.1z"/>
</g>
</svg>
