<?xml version="1.0" encoding="utf-8"?>
<!-- Generator: Adobe Illustrator 23.0.0, SVG Export Plug-In . SVG Version: 6.00 Build 0)  -->
<svg version="1.0" id="Layer_1" xmlns="http://www.w3.org/2000/svg" xmlns:xlink="http://www.w3.org/1999/xlink" x="0px" y="0px"
	 viewBox="0 0 50 50" enable-background="new 0 0 50 50" xml:space="preserve">
<g id="Group_791" transform="translate(-124.26 -608.26)">
	<g transform="matrix(1, 0, 0, 1, 124.26, 608.26)">
		<path id="Path_6856-2" fill="#FFFFFF" d="M6.1,36.4c-1.4-1.4-1.4-3.6,0-5l0,0l6.4-6.4c0,0,0,0,0.1-0.1c0,0,0,0-0.1-0.1l-6.2-6.2
			C5.5,17.9,5.2,17,5.2,16s0.4-1.9,1.1-2.5l7.2-7.2C14.1,5.7,15,5.3,16,5.3c1,0,1.9,0.4,2.5,1.2l6.2,6.2c0,0,0,0,0.1,0.1
			c0,0,0,0,0.1-0.1l6.5-6.5c0.7-0.7,1.6-1.1,2.6-1.1c0.9,0,1.8,0.4,2.4,1.1l7.5,7.5c1.4,1.2,1.5,3.5,0.2,4.8
			c-0.1,0.1-0.1,0.1-0.2,0.2l-6.5,6.5v0.1l6.3,6.3c1.4,1.2,1.4,3.5,0.2,4.8c-0.1,0.1-0.1,0.1-0.2,0.2l-7.2,7.2
			c-0.6,0.6-1.5,1.1-2.4,1.1c-1,0-2-0.4-2.6-1.1l-6.3-6.3c0,0,0,0-0.1-0.1l-6.5,6.5c-0.6,0.6-1.5,1.1-2.4,1.1c-1,0-2-0.4-2.6-1.1
			L6.1,36.4L6.1,36.4z"/>
	</g>
</g>
</svg>
