<?xml version="1.0" encoding="utf-8"?>
<!-- Generator: Adobe Illustrator 23.0.0, SVG Export Plug-In . SVG Version: 6.00 Build 0)  -->
<svg version="1.0" id="Layer_1" xmlns="http://www.w3.org/2000/svg" xmlns:xlink="http://www.w3.org/1999/xlink" x="0px" y="0px"
	 viewBox="0 0 50 50" enable-background="new 0 0 50 50" xml:space="preserve">
<path fill="#FFFFFF" d="M44.5,18.1c-0.3-2.7-2.6-5-5.1-5.1c-1,0-1.4-0.1-2.4-0.1c-0.6,0-1.2-0.5-1.2-1.2c-0.1-1.3-1.2-2.4-2.3-2.4
	C26.7,9,23.3,9,16.4,9.3c-1.2,0-2.2,1.2-2.3,2.4c-0.1,0.6-0.5,1.2-1.2,1.2c-1,0-1.4,0.1-2.4,0.1c-2.5,0.1-4.9,2.4-5.1,5.1
	C4.9,25,4.8,28.6,5.3,35.4c0.2,2.7,2.5,5,5.1,5.2c9.9,0.4,19.3,0.4,29.2,0c2.6-0.2,4.9-2.5,5.1-5.2C45.1,28.6,45.1,25,44.5,18.1z
	 M33.9,27.9c-0.6,3.9-3.7,7.1-7.4,7.8c-6.1,1.1-11.5-4.5-10.4-11c0.6-3.9,3.7-7.1,7.4-7.8C29.5,15.9,34.8,21.5,33.9,27.9z
	 M39.8,20.7c-1.4,0-2.7-1.2-2.8-2.8c-0.1-1.5,1-2.7,2.4-2.7c1.4,0.1,2.7,1.3,2.8,2.8C42.4,19.5,41.3,20.7,39.8,20.7z"/>
<path fill="#FFFFFF" d="M26.2,21.4c-3.6-1.1-6.9,2.4-5.9,6.2c0.4,1.7,1.7,3.1,3.3,3.5c3.7,1.1,7-2.4,6-6.2
	C29.2,23.2,27.8,21.9,26.2,21.4z"/>
</svg>
