<?xml version="1.0" encoding="utf-8"?>
<!-- Generator: Adobe Illustrator 23.0.0, SVG Export Plug-In . SVG Version: 6.00 Build 0)  -->
<svg version="1.0" id="Layer_1" xmlns="http://www.w3.org/2000/svg" xmlns:xlink="http://www.w3.org/1999/xlink" x="0px" y="0px"
	 viewBox="0 0 40 40" enable-background="new 0 0 40 40" xml:space="preserve">
<g>
	<g>
		<g>
			<g>
				<path fill="#FFFFFF" d="M34,23.7c-0.5-2.4-3.1-4.3-5.4-4.2c-2.2,0.1-3.5,2.2-2.5,4.7c-3.3,0.2-6.7,0.5-10,0.7
					c0.1-2.9-2.4-4.9-4.6-4.6c-2.1,0.2-3.8,2.5-3.3,5.2C6.7,26,5.1,24.8,5,22.9c0-1.1-0.1-2.1-0.1-3.2c0-1.3,0.8-2.4,1.9-2.5
					c0.6,0,1.2,0,1.7,0c0.2,0,0.3-0.1,0.4-0.2c0.8-1.2,1.6-2.4,2.3-3.6c0.5-0.9,1.2-1.2,2.1-1.2c2,0,3.9,0,5.9,0
					c0.7,0,1.3,0.2,1.9,0.7c1.4,1.1,2.9,2.2,4.4,3.3c0.6,0.4,1.1,0.6,1.7,0.7c1.6,0.2,3.2,0.5,4.8,0.7c1.1,0.2,2.1,0.9,2.5,2
					c0.3,0.7,0.6,1.4,0.8,2c0.4,1-0.1,1.9-1.2,2.1C34.2,23.7,34.1,23.7,34,23.7z M20.3,16.9C20.3,16.9,20.3,16.9,20.3,16.9
					c1.1,0,2.1-0.1,3.2-0.1c0.2,0,0.4,0,0.4-0.3c0-0.2-0.1-0.4-0.3-0.5c-1.1-0.8-2.3-1.6-3.3-2.4c-0.2-0.1-0.4-0.2-0.5-0.2
					c-1,0-2,0-3,0c-0.5,0-0.7,0.3-0.6,0.8c0.1,0.6,0.2,1.2,0.2,1.8c0.1,0.6,0.4,0.9,0.9,0.9C18.3,17,19.3,16.9,20.3,16.9z
					 M12.7,17.1c0.5,0,1,0,1.5,0c0.4,0,0.6-0.3,0.6-0.8c-0.1-0.7-0.2-1.3-0.2-2c-0.1-0.5-0.4-0.8-0.7-0.8c-0.2,0-0.5,0-0.7,0
					c-0.2,0.1-0.4,0.1-0.5,0.3c-0.6,0.8-1.1,1.7-1.6,2.6c-0.1,0.1-0.1,0.4,0,0.5c0.1,0.1,0.3,0.2,0.4,0.2
					C11.7,17.2,12.2,17.1,12.7,17.1z M18.3,19.7C18.3,19.7,18.3,19.7,18.3,19.7c0.2,0,0.4,0,0.5,0c0.4-0.1,0.6-0.4,0.5-0.8
					c-0.1-0.4-0.4-0.7-0.8-0.7c-0.3,0-0.7,0-1,0c-0.4,0-0.6,0.4-0.5,0.8c0.1,0.4,0.4,0.7,0.8,0.7C18,19.8,18.1,19.8,18.3,19.7z"/>
				<path fill="#FFFFFF" d="M11.8,21.1c1.7-0.1,3.3,1.4,3.5,3.2c0.2,1.8-1.2,3.4-3,3.5C10.5,28,9,26.6,9,24.7
					C8.9,22.8,10.2,21.2,11.8,21.1z M13.6,24.4c-0.1-0.9-0.8-1.5-1.6-1.5c-0.8,0.1-1.4,0.8-1.3,1.7c0.1,0.9,0.8,1.5,1.6,1.5
					C13.1,26,13.7,25.2,13.6,24.4z"/>
				<path fill="#FFFFFF" d="M30.8,26.3c-1.8,0.1-3.6-1.1-4.1-2.8c-0.5-1.7,0.5-3.2,2.2-3.2c1.7-0.1,3.6,1.2,4.2,2.9
					C33.7,24.7,32.6,26.1,30.8,26.3z M31.4,23.2c-0.3-0.8-1.1-1.4-1.9-1.3c-0.8,0.1-1.2,0.7-1,1.5c0.2,0.8,1.1,1.4,1.9,1.3
					C31.2,24.6,31.6,23.9,31.4,23.2z"/>
			</g>
		</g>
	</g>
</g>
</svg>
