<?xml version="1.0" encoding="utf-8"?>
<!-- Generator: Adobe Illustrator 23.0.0, SVG Export Plug-In . SVG Version: 6.00 Build 0)  -->
<svg version="1.0" id="Layer_1" xmlns="http://www.w3.org/2000/svg" xmlns:xlink="http://www.w3.org/1999/xlink" x="0px" y="0px"
	 viewBox="0 0 50 50" enable-background="new 0 0 50 50" xml:space="preserve">
<g display="none">
	<path id="base" display="inline" fill="#FFFFFF" d="M45,19c0-7.7-6-14-13.3-14C29.2,5,27,5.7,25,6.9C23,5.7,20.8,5,18.3,5
		C11,5,5,11.2,5,19c0,5.2,2.7,9.7,6.7,12.1c0,0,0,0,0,0c0,7.7,6,14,13.3,14s13.3-6.2,13.3-14c0,0,0,0,0,0C42.3,28.6,45,24.1,45,19z"
		/>
	<ellipse display="inline" opacity="0.5" fill="#E90000" cx="18.3" cy="19" rx="13.3" ry="14"/>
	<ellipse display="inline" opacity="0.5" fill="#FFC000" cx="31.7" cy="19" rx="13.3" ry="14"/>
	<ellipse display="inline" opacity="0.5" fill="#00477B" cx="25" cy="31" rx="13.3" ry="14"/>
	<g display="inline">
		<path opacity="0.5" fill="#BC0F06" d="M18.3,19C18.3,19,18.3,19,18.3,19c2-1.2,4.2-1.9,6.7-1.9s4.7,0.7,6.7,1.9c0,0,0,0,0,0
			c0-5.2-2.7-9.7-6.7-12.1C21,9.3,18.3,13.8,18.3,19z"/>
		<path opacity="0.5" fill="#0CB100" d="M18.3,19C18.3,19,18.3,19,18.3,19c2-1.2,4.2-1.9,6.7-1.9s4.7,0.7,6.7,1.9c0,0,0,0,0,0
			c0-5.2-2.7-9.7-6.7-12.1C21,9.3,18.3,13.8,18.3,19z"/>
		<path opacity="0.5" fill="#BC0F06" d="M25,31c-4-2.4-6.7-6.9-6.7-12.1c-4,2.4-6.7,6.9-6.7,12.1c2,1.2,4.2,1.9,6.7,1.9
			C20.8,32.9,23,32.2,25,31z"/>
		<path opacity="0.5" fill="#00A894" d="M25,31c-4-2.4-6.7-6.9-6.7-12.1c-4,2.4-6.7,6.9-6.7,12.1c2,1.2,4.2,1.9,6.7,1.9
			C20.8,32.9,23,32.2,25,31z"/>
		<path opacity="0.5" fill="#0CB100" d="M31.7,19c0,5.2-2.7,9.6-6.7,12.1c2,1.2,4.2,1.9,6.7,1.9c2.4,0,4.7-0.7,6.7-1.9
			C38.3,25.9,35.6,21.4,31.7,19z"/>
		<path opacity="0.5" fill="#00A894" d="M31.7,19c0,5.2-2.7,9.6-6.7,12.1c2,1.2,4.2,1.9,6.7,1.9c2.4,0,4.7-0.7,6.7-1.9
			C38.3,25.9,35.6,21.4,31.7,19z"/>
		<path opacity="0.5" fill="#BC0F06" d="M18.3,19c0,5.2,2.7,9.6,6.7,12.1c4-2.4,6.7-6.9,6.7-12.1c-2-1.2-4.2-1.9-6.7-1.9
			S20.3,17.8,18.3,19z"/>
		<path opacity="0.5" fill="#0CB100" d="M18.3,19c0,5.2,2.7,9.6,6.7,12.1c4-2.4,6.7-6.9,6.7-12.1c-2-1.2-4.2-1.9-6.7-1.9
			S20.3,17.8,18.3,19z"/>
		<path opacity="0.5" fill="#FFFFFF" d="M18.3,19c0,5.2,2.7,9.6,6.7,12.1c4-2.4,6.7-6.9,6.7-12.1c-2-1.2-4.2-1.9-6.7-1.9
			S20.3,17.8,18.3,19z"/>
	</g>
</g>
<path fill="#FF7F7F" d="M18.3,19C18.3,19,18.3,19,18.3,19c0-5.2,2.7-9.7,6.7-12.1C23,5.7,20.8,5,18.3,5C11,5,5,11.2,5,19
	c0,5.2,2.7,9.7,6.7,12.1C11.7,25.9,14.4,21.4,18.3,19z"/>
<path fill="#FFFF7F" d="M45,19c0-7.7-6-14-13.3-14C29.2,5,27,5.7,25,6.9c4,2.4,6.7,6.9,6.7,12.1c0,0,0,0,0,0c4,2.4,6.7,6.9,6.7,12.1
	C42.3,28.6,45,24.1,45,19z"/>
<path fill="#FF9F3F" d="M18.3,19C18.3,19,18.3,19,18.3,19c2-1.2,4.2-1.9,6.7-1.9s4.7,0.7,6.7,1.9c0,0,0,0,0,0
	c0-5.2-2.7-9.7-6.7-12.1C21,9.3,18.3,13.8,18.3,19z"/>
<path fill="#7FC6FA" d="M25,31c-2,1.2-4.2,1.9-6.7,1.9c-2.4,0-4.7-0.7-6.7-1.9c0,0,0,0,0,0c0,7.7,6,14,13.3,14s13.3-6.2,13.3-14
	c0,0,0,0,0,0c-2,1.2-4.2,1.9-6.7,1.9C29.2,32.9,27,32.2,25,31z"/>
<path fill="#7F637D" d="M25,31c-4-2.4-6.7-6.9-6.7-12.1c-4,2.4-6.7,6.9-6.7,12.1c2,1.2,4.2,1.9,6.7,1.9C20.8,32.9,23,32.2,25,31z"/>
<path fill="#7FC67D" d="M31.7,19c0,5.2-2.7,9.6-6.7,12.1c2,1.2,4.2,1.9,6.7,1.9c2.4,0,4.7-0.7,6.7-1.9C38.3,25.9,35.6,21.4,31.7,19z
	"/>
<path fill="#7F7C3E" d="M18.3,19c0,5.2,2.7,9.6,6.7,12.1c4-2.4,6.7-6.9,6.7-12.1c-2-1.2-4.2-1.9-6.7-1.9S20.3,17.8,18.3,19z"/>
</svg>
