<?xml version="1.0" encoding="utf-8"?>
<!-- Generator: Adobe Illustrator 23.0.0, SVG Export Plug-In . SVG Version: 6.00 Build 0)  -->
<svg version="1.0" id="Layer_1" xmlns="http://www.w3.org/2000/svg" xmlns:xlink="http://www.w3.org/1999/xlink" x="0px" y="0px"
	 width="62px" height="62px" viewBox="0 0 62 62" enable-background="new 0 0 62 62" xml:space="preserve">
<path id="Union_11" fill="#FFFFFF" d="M18.9,59.6C3.1,52.9-4.4,34.6,2.3,18.8C9,2.9,27.2-4.5,43.1,2.2s23.3,24.9,16.6,40.8
	C54.8,54.5,43.5,62,31,62C26.9,62,22.8,61.2,18.9,59.6z M6,31c0,13.8,11.2,25,25,25c13.8,0,25-11.2,25-25C56,17.2,44.8,6,31,6
	c0,0,0,0,0,0C17.2,6,6,17.2,6,31L6,31z M8.6,31c0-12.4,10-22.4,22.4-22.4s22.4,10,22.4,22.4c0,12.4-10,22.4-22.4,22.4c0,0,0,0,0,0
	C18.6,53.4,8.6,43.4,8.6,31C8.6,31,8.6,31,8.6,31L8.6,31z"/>
</svg>
