<?xml version="1.0" encoding="utf-8"?>
<!-- Generator: Adobe Illustrator 23.0.0, SVG Export Plug-In . SVG Version: 6.00 Build 0)  -->
<svg version="1.0" id="Layer_1" xmlns="http://www.w3.org/2000/svg" xmlns:xlink="http://www.w3.org/1999/xlink" x="0px" y="0px"
	 width="100px" height="100px" viewBox="0 0 100 100" enable-background="new 0 0 100 100" xml:space="preserve">
<g opacity="0.5">
	<path d="M78.3,12.5H21.7c-5.8,0-10.5,4.7-10.5,10.5v56.5C11.3,85.3,16,90,21.7,90h56.5c5.8,0,10.5-4.7,10.5-10.5V23
		C88.7,17.2,84,12.5,78.3,12.5z M73.5,27.6v47h-47v-47H73.5z"/>
	<path d="M58,53.5h0.2V55c0,2,1.6,3.7,3.7,3.7s3.7-1.6,3.7-3.7v-1.4h0.2c2,0,3.7-1.6,3.7-3.7v-5.1c0-2-1.6-3.7-3.7-3.7h-0.2V32
		c0-2-1.6-3.7-3.7-3.7S58.1,30,58.1,32v9.1H58c-2,0-3.7,1.6-3.7,3.7v5.1C54.3,51.9,56,53.5,58,53.5z"/>
	<path d="M36.4,45.9h0.2V55c0,2,1.6,3.7,3.7,3.7s3.7-1.6,3.7-3.7v-9.1h0.2c2,0,3.7-1.6,3.7-3.7v-5.1c0-2-1.6-3.7-3.7-3.7h-0.2V32
		c0-2-1.6-3.7-3.7-3.7S36.6,30,36.6,32v1.4h-0.2c-2,0-3.7,1.6-3.7,3.7v5.1C32.8,44.2,34.4,45.9,36.4,45.9z"/>
	<path d="M61.8,74c4.1,0,7.5-3.4,7.5-7.5c0-4.1-3.4-7.5-7.5-7.5s-7.5,3.4-7.5,7.5C54.3,70.6,57.7,74,61.8,74z"/>
	<path d="M40.2,59c-4.1,0-7.5,3.4-7.5,7.5c0,4.1,3.4,7.5,7.5,7.5c4.1,0,7.5-3.4,7.5-7.5C47.7,62.3,44.4,59,40.2,59z"/>
</g>
<g>
	<path d="M78.3,10H21.7c-5.8,0-10.5,4.7-10.5,10.5V77c0,5.8,4.7,10.5,10.5,10.5h56.5c5.8,0,10.5-4.7,10.5-10.5V20.5
		C88.7,14.7,84,10,78.3,10z M73.5,25.3v47h-47v-47H73.5z"/>
	<path d="M58,51.2h0.2v1.4c0,2,1.6,3.7,3.7,3.7s3.7-1.6,3.7-3.7v-1.4h0.2c2,0,3.7-1.6,3.7-3.7v-5.1c0-2-1.6-3.7-3.7-3.7h-0.2v-9.1
		c0-2-1.6-3.7-3.7-3.7s-3.7,1.6-3.7,3.7v9.1H58c-2,0-3.7,1.6-3.7,3.7v5.1C54.3,49.5,56,51.2,58,51.2z"/>
	<path d="M36.4,43.5h0.2v9.1c0,2,1.6,3.7,3.7,3.7s3.7-1.6,3.7-3.7v-9.1h0.2c2,0,3.7-1.6,3.7-3.7v-5.1c0-2-1.6-3.7-3.7-3.7h-0.2v-1.4
		c0-2-1.6-3.7-3.7-3.7s-3.7,1.6-3.7,3.7v1.4h-0.2c-2,0-3.7,1.6-3.7,3.7v5.1C32.8,41.9,34.4,43.5,36.4,43.5z"/>
	<path d="M61.8,71.6c4.1,0,7.5-3.4,7.5-7.5c0-4.1-3.4-7.5-7.5-7.5s-7.5,3.4-7.5,7.5C54.3,68.2,57.7,71.6,61.8,71.6z"/>
	<path d="M40.2,56.6c-4.1,0-7.5,3.4-7.5,7.5c0,4.1,3.4,7.5,7.5,7.5c4.1,0,7.5-3.4,7.5-7.5C47.7,60,44.4,56.6,40.2,56.6z"/>
</g>
<g>
	<g>
		<path d="M78.3,12.9H21.7c-3.5,0-6.3,2.8-6.3,6.3v56.5c0,3.5,2.8,6.3,6.3,6.3h56.5c3.5,0,6.3-2.8,6.3-6.3V19.2
			C84.6,15.7,81.7,12.9,78.3,12.9z M77.7,72.6c0,1.5-1.2,2.8-2.8,2.8H25.1c-1.5,0-2.8-1.2-2.8-2.8V22.8c0-1.5,1.2-2.8,2.8-2.8h49.8
			c1.5,0,2.8,1.2,2.8,2.8L77.7,72.6L77.7,72.6z"/>
	</g>
	<g>
		<path fill="#1BBC0A" d="M65.6,39.6h-2.3V28.4c0-0.9-0.7-1.6-1.6-1.6s-1.6,0.7-1.6,1.6v11.2H58c-0.9,0-1.6,0.7-1.6,1.6v5.1
			c0,0.9,0.7,1.6,1.6,1.6h2.3v3.5c0,0.9,0.7,1.6,1.6,1.6s1.6-0.7,1.6-1.6v-3.5h2.3c0.9,0,1.6-0.7,1.6-1.6v-5.1
			C67.2,40.3,66.5,39.6,65.6,39.6z"/>
	</g>
	<g>
		<path fill="#D30505" d="M44.1,32h-2.3v-3.5c0-0.9-0.7-1.6-1.6-1.6s-1.6,0.7-1.6,1.6V32h-2.3c-0.9,0-1.6,0.7-1.6,1.6v5.1
			c0,0.9,0.7,1.6,1.6,1.6h2.3v11.2c0,0.9,0.7,1.6,1.6,1.6s1.6-0.7,1.6-1.6V40.2h2.3c0.9,0,1.6-0.7,1.6-1.6v-5.1
			C45.7,32.7,44.9,32,44.1,32z"/>
	</g>
	<g>
		<path fill="#1BBC0A" d="M61.8,57.5c-3,0-5.4,2.4-5.4,5.4c0,3,2.4,5.4,5.4,5.4c3,0,5.4-2.4,5.4-5.4S64.8,57.5,61.8,57.5z"/>
	</g>
	<g>
		<path fill="#D30505" d="M40.2,57.5c-3,0-5.4,2.4-5.4,5.4c0,3,2.4,5.4,5.4,5.4c3,0,5.4-2.4,5.4-5.4S43.2,57.5,40.2,57.5z"/>
	</g>
</g>
<g>
	<g opacity="0.6">
		
			<linearGradient id="SVGID_1_" gradientUnits="userSpaceOnUse" x1="50.001" y1="87.093" x2="50.001" y2="17.98" gradientTransform="matrix(1 0 0 -1 0 100)">
			<stop  offset="4.300000e-02" style="stop-color:#F2F2F2;stop-opacity:0.7"/>
			<stop  offset="1" style="stop-color:#F2F2F2;stop-opacity:0"/>
		</linearGradient>
		<path fill="url(#SVGID_1_)" d="M78.3,12.9H21.7c-3.5,0-6.3,2.8-6.3,6.3v56.5c0,3.5,2.8,6.3,6.3,6.3h56.5c3.5,0,6.3-2.8,6.3-6.3
			V19.2C84.6,15.7,81.7,12.9,78.3,12.9z M77.7,72.6c0,1.5-1.2,2.8-2.8,2.8H25.1c-1.5,0-2.8-1.2-2.8-2.8V22.8c0-1.5,1.2-2.8,2.8-2.8
			h49.8c1.5,0,2.8,1.2,2.8,2.8L77.7,72.6L77.7,72.6z"/>
	</g>
	<g>
		
			<linearGradient id="SVGID_2_" gradientUnits="userSpaceOnUse" x1="61.7995" y1="73.139" x2="61.7995" y2="47.015" gradientTransform="matrix(1 0 0 -1 0 100)">
			<stop  offset="4.300000e-02" style="stop-color:#F2F2F2;stop-opacity:0.7"/>
			<stop  offset="1" style="stop-color:#F2F2F2;stop-opacity:0"/>
		</linearGradient>
		<path fill="url(#SVGID_2_)" d="M65.6,39.6h-2.3V28.4c0-0.9-0.7-1.6-1.6-1.6s-1.6,0.7-1.6,1.6v11.2H58c-0.9,0-1.6,0.7-1.6,1.6v5.1
			c0,0.9,0.7,1.6,1.6,1.6h2.3v3.5c0,0.9,0.7,1.6,1.6,1.6s1.6-0.7,1.6-1.6v-3.5h2.3c0.9,0,1.6-0.7,1.6-1.6v-5.1
			C67.2,40.3,66.5,39.6,65.6,39.6z"/>
	</g>
	<g>
		
			<linearGradient id="SVGID_3_" gradientUnits="userSpaceOnUse" x1="40.2485" y1="73.139" x2="40.2485" y2="47.014" gradientTransform="matrix(1 0 0 -1 0 100)">
			<stop  offset="4.300000e-02" style="stop-color:#F2F2F2;stop-opacity:0.7"/>
			<stop  offset="1" style="stop-color:#F2F2F2;stop-opacity:0"/>
		</linearGradient>
		<path fill="url(#SVGID_3_)" d="M44.1,32h-2.3v-3.5c0-0.9-0.7-1.6-1.6-1.6s-1.6,0.7-1.6,1.6V32h-2.3c-0.9,0-1.6,0.7-1.6,1.6v5.1
			c0,0.9,0.7,1.6,1.6,1.6h2.3v11.2c0,0.9,0.7,1.6,1.6,1.6s1.6-0.7,1.6-1.6V40.2h2.3c0.9,0,1.6-0.7,1.6-1.6v-5.1
			C45.7,32.7,44.9,32,44.1,32z"/>
	</g>
	<g>
		
			<linearGradient id="SVGID_4_" gradientUnits="userSpaceOnUse" x1="61.7995" y1="42.503" x2="61.7995" y2="31.697" gradientTransform="matrix(1 0 0 -1 0 100)">
			<stop  offset="4.300000e-02" style="stop-color:#F2F2F2;stop-opacity:0.7"/>
			<stop  offset="1" style="stop-color:#F2F2F2;stop-opacity:0"/>
		</linearGradient>
		<path fill="url(#SVGID_4_)" d="M61.8,57.5c-3,0-5.4,2.4-5.4,5.4c0,3,2.4,5.4,5.4,5.4c3,0,5.4-2.4,5.4-5.4S64.8,57.5,61.8,57.5z"/>
	</g>
	<g>
		
			<linearGradient id="SVGID_5_" gradientUnits="userSpaceOnUse" x1="40.2495" y1="42.503" x2="40.2495" y2="31.697" gradientTransform="matrix(1 0 0 -1 0 100)">
			<stop  offset="4.300000e-02" style="stop-color:#F2F2F2;stop-opacity:0.7"/>
			<stop  offset="1" style="stop-color:#F2F2F2;stop-opacity:0"/>
		</linearGradient>
		<path fill="url(#SVGID_5_)" d="M40.2,57.5c-3,0-5.4,2.4-5.4,5.4c0,3,2.4,5.4,5.4,5.4c3,0,5.4-2.4,5.4-5.4S43.2,57.5,40.2,57.5z"/>
	</g>
</g>
<g>
	<g>
		
			<linearGradient id="SVGID_6_" gradientUnits="userSpaceOnUse" x1="50.001" y1="88.137" x2="50.001" y2="16.937" gradientTransform="matrix(1 0 0 -1 0 100)">
			<stop  offset="0" style="stop-color:#FFFFFF;stop-opacity:0.8"/>
			<stop  offset="7.370000e-02" style="stop-color:#DEDEDE;stop-opacity:0.7705"/>
			<stop  offset="0.2168" style="stop-color:#A4A4A4;stop-opacity:0.7133"/>
			<stop  offset="0.36" style="stop-color:#727272;stop-opacity:0.656"/>
			<stop  offset="0.4999" style="stop-color:#494949;stop-opacity:0.6"/>
			<stop  offset="0.6359" style="stop-color:#292929;stop-opacity:0.5456"/>
			<stop  offset="0.7669" style="stop-color:#121212;stop-opacity:0.4932"/>
			<stop  offset="0.8907" style="stop-color:#050505;stop-opacity:0.4437"/>
			<stop  offset="1" style="stop-color:#000000;stop-opacity:0.4"/>
		</linearGradient>
		<path fill="url(#SVGID_6_)" d="M78.3,12.9c3.5,0,6.3,2.8,6.3,6.3v56.5c0,3.5-2.8,6.3-6.3,6.3H21.7c-3.5,0-6.3-2.8-6.3-6.3V19.2
			c0-3.5,2.8-6.3,6.3-6.3H78.3 M25.1,75.4h49.8c1.5,0,2.8-1.2,2.8-2.8V22.8c0-1.5-1.2-2.8-2.8-2.8H25.1c-1.5,0-2.8,1.2-2.8,2.8v49.8
			C22.3,74.1,23.6,75.4,25.1,75.4 M78.3,11.9H21.7c-4,0-7.3,3.3-7.3,7.3v56.5c0,4,3.3,7.3,7.3,7.3h56.5c4,0,7.3-3.3,7.3-7.3V19.2
			C85.6,15.1,82.3,11.9,78.3,11.9L78.3,11.9z M25.1,74.3c-1,0-1.7-0.8-1.7-1.7V22.8c0-0.9,0.8-1.7,1.7-1.7h49.8
			c0.9,0,1.7,0.8,1.7,1.7v49.8c0,0.9-0.8,1.7-1.7,1.7H25.1L25.1,74.3z"/>
	</g>
	
		<linearGradient id="SVGID_7_" gradientUnits="userSpaceOnUse" x1="61.7995" y1="73.6609" x2="61.7995" y2="46.4931" gradientTransform="matrix(1 0 0 -1 0 100)">
		<stop  offset="0" style="stop-color:#FFFFFF;stop-opacity:0.8"/>
		<stop  offset="7.370000e-02" style="stop-color:#DEDEDE;stop-opacity:0.7705"/>
		<stop  offset="0.2168" style="stop-color:#A4A4A4;stop-opacity:0.7133"/>
		<stop  offset="0.36" style="stop-color:#727272;stop-opacity:0.656"/>
		<stop  offset="0.4999" style="stop-color:#494949;stop-opacity:0.6"/>
		<stop  offset="0.6359" style="stop-color:#292929;stop-opacity:0.5456"/>
		<stop  offset="0.7669" style="stop-color:#121212;stop-opacity:0.4932"/>
		<stop  offset="0.8907" style="stop-color:#050505;stop-opacity:0.4437"/>
		<stop  offset="1" style="stop-color:#000000;stop-opacity:0.4"/>
	</linearGradient>
	<path fill="none" stroke="url(#SVGID_7_)" stroke-width="1.0438" stroke-miterlimit="10" d="M65.6,39.6h-2.3V28.4
		c0-0.9-0.7-1.6-1.6-1.6s-1.6,0.7-1.6,1.6v11.2H58c-0.9,0-1.6,0.7-1.6,1.6v5.1c0,0.9,0.7,1.6,1.6,1.6h2.3v3.5c0,0.9,0.7,1.6,1.6,1.6
		s1.6-0.7,1.6-1.6v-3.5h2.3c0.9,0,1.6-0.7,1.6-1.6v-5.1C67.2,40.3,66.5,39.6,65.6,39.6z"/>
	
		<linearGradient id="SVGID_8_" gradientUnits="userSpaceOnUse" x1="40.2485" y1="73.6609" x2="40.2485" y2="46.4921" gradientTransform="matrix(1 0 0 -1 0 100)">
		<stop  offset="0" style="stop-color:#FFFFFF;stop-opacity:0.8"/>
		<stop  offset="7.370000e-02" style="stop-color:#DEDEDE;stop-opacity:0.7705"/>
		<stop  offset="0.2168" style="stop-color:#A4A4A4;stop-opacity:0.7133"/>
		<stop  offset="0.36" style="stop-color:#727272;stop-opacity:0.656"/>
		<stop  offset="0.4999" style="stop-color:#494949;stop-opacity:0.6"/>
		<stop  offset="0.6359" style="stop-color:#292929;stop-opacity:0.5456"/>
		<stop  offset="0.7669" style="stop-color:#121212;stop-opacity:0.4932"/>
		<stop  offset="0.8907" style="stop-color:#050505;stop-opacity:0.4437"/>
		<stop  offset="1" style="stop-color:#000000;stop-opacity:0.4"/>
	</linearGradient>
	<path fill="none" stroke="url(#SVGID_8_)" stroke-width="1.0438" stroke-miterlimit="10" d="M44.1,32h-2.3v-3.5
		c0-0.9-0.7-1.6-1.6-1.6s-1.6,0.7-1.6,1.6V32h-2.3c-0.9,0-1.6,0.7-1.6,1.6v5.1c0,0.9,0.7,1.6,1.6,1.6h2.3v11.2
		c0,0.9,0.7,1.6,1.6,1.6s1.6-0.7,1.6-1.6V40.2h2.3c0.9,0,1.6-0.7,1.6-1.6v-5.1C45.7,32.7,44.9,32,44.1,32z"/>
	<g>
		
			<linearGradient id="SVGID_9_" gradientUnits="userSpaceOnUse" x1="61.7995" y1="43.547" x2="61.7995" y2="30.651" gradientTransform="matrix(1 0 0 -1 0 100)">
			<stop  offset="0" style="stop-color:#FFFFFF;stop-opacity:0.8"/>
			<stop  offset="7.370000e-02" style="stop-color:#DEDEDE;stop-opacity:0.7705"/>
			<stop  offset="0.2168" style="stop-color:#A4A4A4;stop-opacity:0.7133"/>
			<stop  offset="0.36" style="stop-color:#727272;stop-opacity:0.656"/>
			<stop  offset="0.4999" style="stop-color:#494949;stop-opacity:0.6"/>
			<stop  offset="0.6359" style="stop-color:#292929;stop-opacity:0.5456"/>
			<stop  offset="0.7669" style="stop-color:#121212;stop-opacity:0.4932"/>
			<stop  offset="0.8907" style="stop-color:#050505;stop-opacity:0.4437"/>
			<stop  offset="1" style="stop-color:#000000;stop-opacity:0.4"/>
		</linearGradient>
		<path fill="url(#SVGID_9_)" d="M61.8,57.5c3,0,5.4,2.4,5.4,5.4c0,3-2.4,5.4-5.4,5.4c-3,0-5.4-2.4-5.4-5.4S58.8,57.5,61.8,57.5
			 M61.8,56.5c-3.6,0-6.4,2.9-6.4,6.4c0,3.6,2.9,6.4,6.4,6.4s6.4-2.9,6.4-6.4S65.4,56.5,61.8,56.5L61.8,56.5z"/>
	</g>
	<g>
		
			<linearGradient id="SVGID_10_" gradientUnits="userSpaceOnUse" x1="40.249" y1="43.547" x2="40.249" y2="30.651" gradientTransform="matrix(1 0 0 -1 0 100)">
			<stop  offset="0" style="stop-color:#FFFFFF;stop-opacity:0.8"/>
			<stop  offset="7.370000e-02" style="stop-color:#DEDEDE;stop-opacity:0.7705"/>
			<stop  offset="0.2168" style="stop-color:#A4A4A4;stop-opacity:0.7133"/>
			<stop  offset="0.36" style="stop-color:#727272;stop-opacity:0.656"/>
			<stop  offset="0.4999" style="stop-color:#494949;stop-opacity:0.6"/>
			<stop  offset="0.6359" style="stop-color:#292929;stop-opacity:0.5456"/>
			<stop  offset="0.7669" style="stop-color:#121212;stop-opacity:0.4932"/>
			<stop  offset="0.8907" style="stop-color:#050505;stop-opacity:0.4437"/>
			<stop  offset="1" style="stop-color:#000000;stop-opacity:0.4"/>
		</linearGradient>
		<path fill="url(#SVGID_10_)" d="M40.2,57.5c3,0,5.4,2.4,5.4,5.4c0,3-2.4,5.4-5.4,5.4s-5.4-2.4-5.4-5.4S37.3,57.5,40.2,57.5
			 M40.2,56.5c-3.6,0-6.4,2.9-6.4,6.4c0,3.6,2.9,6.4,6.4,6.4s6.4-2.9,6.4-6.4S43.8,56.5,40.2,56.5L40.2,56.5z"/>
	</g>
</g>
</svg>
