<?xml version="1.0" encoding="utf-8"?>
<!-- Generator: Adobe Illustrator 23.0.0, SVG Export Plug-In . SVG Version: 6.00 Build 0)  -->
<svg version="1.0" id="Capa_1" xmlns="http://www.w3.org/2000/svg" xmlns:xlink="http://www.w3.org/1999/xlink" x="0px" y="0px"
	 width="50px" height="50px" viewBox="0 0 50 50" enable-background="new 0 0 50 50" xml:space="preserve">
<g>
	<g>
		<path opacity="0.25" fill="#FFFFFF" d="M42.2,44.3H22.7c-0.9,0-1.6-0.7-1.6-1.6V7.3c0-0.9,0.7-1.6,1.6-1.6h19.5
			c0.9,0,1.6,0.7,1.6,1.6v35.5C43.8,43.7,43.1,44.3,42.2,44.3z"/>
		<path opacity="0.75" fill="#FFFFFF" d="M42.2,42.9H22.7c-0.9,0-1.6-0.7-1.6-1.6v1.4c0,0.9,0.7,1.6,1.6,1.6h19.5
			c0.9,0,1.6-0.7,1.6-1.6v-1.4C43.8,42.2,43.1,42.9,42.2,42.9z"/>
	</g>
	<g>
		<path fill="#FFFFFF" d="M23,11.4c0-1.6,1.4-2.9,3-2.9s2.9,1.4,2.9,3c0,1.6-1.4,2.9-3,2.9C24.2,14.4,23,13,23,11.4z M29.5,20.9
			c-0.4,0-0.8-0.2-1.2-0.5L24,16c-0.3-0.3-0.7-0.5-1.2-0.5h-7.5c-0.4,0-0.8,0.2-1.2,0.5l-4.6,4.6c-0.6,0.6-0.6,1.7,0,2.3
			c0.6,0.6,1.7,0.6,2.3,0l3.7-3.7c0.3-0.3,0.7-0.5,1.2-0.5H20l-4.4,4.4c-0.3,0.3-0.5,0.7-0.5,1.2v4.2H7.8c-0.9,0-1.6,0.7-1.6,1.6
			c0,0.9,0.7,1.6,1.6,1.6h8.9c0.9,0,1.6-0.7,1.6-1.6V28l3.9,3.9c0.3,0.3,0.5,0.7,0.5,1.2v7.2c0,0.9,0.7,1.6,1.6,1.6
			c0.9,0,1.6-0.7,1.6-1.6v-8.5c0-0.4-0.2-0.8-0.5-1.2l-4.9-4.9l4.2-4.2l2.3,2.3c0.3,0.3,0.7,0.5,1.2,0.5h6.6c0.9,0,1.6-0.7,1.6-1.6
			s-0.7-1.6-1.6-1.6L29.5,20.9z"/>
		<path opacity="0.25" d="M25.9,13c-1.4,0-2.5-1-2.8-2.2C23,11,23,11.2,23,11.5c0,1.6,1.3,2.9,2.9,2.9s2.9-1.3,2.9-2.9
			c0-0.2,0-0.5-0.1-0.7C28.5,12.1,27.3,13,25.9,13L25.9,13z M9.6,23c0.6,0.6,1.7,0.6,2.3,0l3.7-3.7c0.3-0.3,0.7-0.5,1.2-0.5H20
			l0.7-0.7c0.2-0.2,0.1-0.7-0.3-0.7h-3.7c-0.4,0-0.8,0.2-1.2,0.5l-3.7,3.7c-0.6,0.6-1.7,0.6-2.3,0c-0.1-0.1-0.2-0.3-0.3-0.4
			C8.9,21.7,9.1,22.5,9.6,23z M16.7,30.4H7.8c-0.6,0-1.2-0.4-1.5-0.9c-0.1,0.2-0.2,0.4-0.2,0.7c0,0.9,0.7,1.6,1.6,1.6h8.9
			c0.9,0,1.6-0.7,1.6-1.6v-1.4C18.3,29.7,17.6,30.4,16.7,30.4z M34.8,22.7h-6.6c-0.4,0-0.8-0.2-1.2-0.5l-1.6-1.6
			c-0.2-0.2-0.7-0.1-0.7,0.3v0.5l2.3,2.3c0.3,0.3,0.7,0.5,1.2,0.5h6.6c0.9,0,1.6-0.7,1.6-1.6c0-0.3-0.1-0.5-0.2-0.7
			C36,22.3,35.4,22.7,34.8,22.7z M24.3,40.5c-0.9,0-1.6-0.7-1.6-1.6v1.4c0,0.9,0.7,1.6,1.6,1.6c0.9,0,1.6-0.7,1.6-1.6v-1.4
			C25.9,39.8,25.2,40.5,24.3,40.5z"/>
	</g>
</g>
<path fill="#FFFFFF" d="M43.4,6.1c-1.9-1.4-2.9-2.1-4.8-3.6c-0.1-0.1-0.3,0-0.5,0c-0.3,0-0.4,0.6-0.4,1.6c0,13.9,0,27.9,0,41.8
	c0,1,0.1,1.6,0.4,1.6c0.2,0,0.4,0,0.5,0c1.9-1.4,2.8-2.3,4.8-3.6c0.4-0.3,0.4-1,0.4-1.8c0-11.4,0-22.8,0-34.2
	C43.8,7.1,43.9,6.4,43.4,6.1z"/>
</svg>
