<?xml version="1.0" encoding="utf-8"?>
<!-- Generator: Adobe Illustrator 23.0.0, SVG Export Plug-In . SVG Version: 6.00 Build 0)  -->
<svg version="1.0" id="Layer_1" xmlns="http://www.w3.org/2000/svg" xmlns:xlink="http://www.w3.org/1999/xlink" x="0px" y="0px"
	 width="50px" height="50px" viewBox="0 0 50 50" enable-background="new 0 0 50 50" xml:space="preserve">
<path opacity="0.25" fill="#FFFFFF" enable-background="new    " d="M46.6,26.6c-0.8-5.6-3.5-10.8-7.2-15c-3.5-3.9-8.4-6.7-13.8-6.7
	c-0.1,0-0.2,0-0.2,0c-5.5,0.8-9.9,1.9-14.2,5.7C7,14.4,4,19.7,3.4,25.4c-0.8,5.8,0.8,11.7,4.9,16c3.9,4.1,9.3,5.9,15.2,6.2
	c5.9,0.2,13.8-2.2,18.9-7.3C45.9,36.6,47.4,31.6,46.6,26.6z"/>
<path opacity="0.25" fill="#FFFFFF" d="M46.4,24.7c-0.9-5.5-3.4-10.8-7.1-15c-3.4-4.1-8.3-7.1-13.8-7.2c-0.1,0-0.2,0-0.2,0
	C20,2.6,15,5,11.2,8.6c-4.1,3.9-7,9.1-7.6,14.8c-0.9,5.7,0.8,11.7,5,15.9c3.9,3.9,7.7,5.2,15,5.7s13.6-2,18.6-6.9
	C45.7,34.7,47.3,29.6,46.4,24.7z"/>
<path fill="none" d="M44,23.8c-1.5-9.2-8.1-20.3-18.6-20.1C15.1,3.8,7.2,12.9,6,22.6c-1.3,11.2,7.1,19.3,18.1,19.1
	C34.1,41.5,45.9,35.6,44,23.8z"/>
<linearGradient id="SVGID_1_" gradientUnits="userSpaceOnUse" x1="25.0122" y1="46.4005" x2="25.0122" y2="8.4317" gradientTransform="matrix(1 0 0 -1 0 50.118)">
	<stop  offset="0" style="stop-color:#000000;stop-opacity:0.8"/>
	<stop  offset="1" style="stop-color:#FFFFFF;stop-opacity:0.71"/>
</linearGradient>
<path fill="url(#SVGID_1_)" d="M25.6,4.3c4.8,0.1,9,2.5,12,6.1c3.1,3.9,5.1,8.6,5.8,13.4c0.7,4.8-0.7,8.7-3.5,11.6
	c-4.1,4-10.2,5.6-15.8,5.7c-0.2,0-0.4,0-0.5,0c-4.7,0-9.4-1.4-12.8-4.6C6.8,32.4,6.6,28,6.6,22.6c0.5-4.9,2.6-9.6,6.2-13
	c3.4-3.2,7.9-5.2,12.6-5.3C25.4,4.3,25.5,4.3,25.6,4.3 M25.6,3.7c-0.1,0-0.1,0-0.2,0C15.1,3.8,7,12.7,6,22.6
	c-1.6,11.2,6.7,19.1,17.6,19.1c0.2,0,0.4,0,0.5,0c10-0.2,21.9-6,19.9-17.8C42.6,14.7,36,3.7,25.6,3.7L25.6,3.7z"/>
<path fill="#FFFFFF" d="M8.3,29.5c0,0.3-0.2,0.7-0.3,1.1c0,0,0,0-0.4,0.2c-1.1-3.8-1-8.5,0.2-12.6c0,0.4-0.1,0.7-0.1,1
	c-0.2,0.2,0,0.4-0.1,0.6c-0.1,0.2-0.1,0.5-0.1,0.7c-0.1,0.2-0.1,0.4-0.2,0.7c0,0.4-0.1,0.9,0,1.3c0,0.5-0.2,1-0.1,1.5
	c-0.2,0.1,0.1,0.2,0,0.3c-0.1,0.1-0.1,0.2-0.1,0.3c0,0,0,0,0,0c0.1,0.4,0.1,0.9,0.2,1.3c0.1,0.4,0.1,0.9,0.3,1.2
	c0.2,0.3,0.2,0.6,0.3,0.9C8,28.1,8,28.3,8.1,28.5C8.3,28.8,8.3,29.1,8.3,29.5z M43.9,27.5c-0.2-0.3,0.1-0.5-0.1-0.8
	c-0.1-0.1-0.2-0.3-0.4-0.4c0,0,0.1-0.1,0.1-0.1c-0.1-0.1-0.2-0.2-0.3-0.3c0,0-0.1,0.1-0.1,0.1c-0.2-0.1-0.4-0.3-0.6-0.4
	c-0.2,0-0.3,0.1-0.4,0.2c0.2,0.2,0.6,0.6,0.8,0.7c-0.1,0.2,0.1,0.3,0.3,0.5c0.1,0.2,0.2,0.4,0.3,0.6c0.1,0.2,0.4,0.2,0.5,0.4
	c0.1-0.1,0.1-0.2,0.2-0.3c0,0.1,0.1,0.2,0.1,0.3c0-0.2,0-0.3,0-0.4C44.2,27.5,44.1,27.5,43.9,27.5z M19.2,11.3
	C19.2,11.3,19.2,11.3,19.2,11.3C19.2,11.3,19.3,11.3,19.2,11.3C19.3,11.3,19.3,11.3,19.2,11.3C19.3,11.3,19.3,11.3,19.2,11.3z
	 M19.1,11.5c0.1,0.1,0.1,0.2,0.2,0.3c0.3,0,0.6,0.1,0.8,0c0.1-0.2,0.1-0.3,0.2-0.4c-0.2-0.1-0.4-0.1-0.6-0.2c0-0.1,0-0.2,0-0.3
	c-0.1,0-0.2,0.1-0.3,0.1c0,0.1,0.1,0.2,0.1,0.3c-0.1,0-0.1,0-0.2,0c0,0.1,0,0.1,0,0.1C19.2,11.5,19.2,11.5,19.1,11.5z M19.3,11.3
	C19.3,11.3,19.3,11.3,19.3,11.3C19.3,11.3,19.3,11.3,19.3,11.3C19.3,11.3,19.3,11.3,19.3,11.3C19.3,11.3,19.3,11.3,19.3,11.3z
	 M19.9,14c-0.2,0.2-0.2,0.4-0.4,0.7c0.1,0,0.1,0,0.1,0.1c0,0,0,0.1,0.1,0.1c-0.1,0-0.1,0-0.2,0.1c0.1,0,0.1,0.1,0.2,0.1
	c0,0.1,0,0.2,0,0.4c-0.1,0-0.2-0.1-0.3-0.1c0,0.1-0.1,0.2-0.1,0.4c-0.1,0-0.1,0-0.2,0c0,0,0,0,0,0.1c0.1,0,0.1,0.1,0.2,0.1
	C19.1,16,19,16,18.9,16.1c0,0,0,0.1,0,0.1c0,0,0.1-0.1,0.1-0.1c0.1,0,0.1,0.1,0.2,0.1c0.1,0,0.1-0.1,0.1-0.1
	c0.2,0.1,0.4,0.1,0.6,0.2c0.1,0,0.1-0.1,0.2-0.1c-0.1-0.1,0-0.2,0.1-0.3c0,0,0-0.1,0-0.1c-0.1-0.1-0.1-0.2-0.1-0.3
	c0.2-0.3-0.1-0.5,0-0.8c0,0,0-0.1-0.1-0.1c0.1-0.1,0.2-0.2,0.3-0.4c-0.1,0-0.1-0.1-0.2-0.1c0.1-0.1,0.1-0.1,0.2-0.2
	C20.2,14,20.1,14,19.9,14z M27.6,9.7c0-0.1,0-0.1,0-0.3c-0.2,0.3-0.5,0.4-0.5,0.8c0,0.3-0.1,0.5,0,0.8c0,0,0,0,0,0.1
	c0.2,0.3,0.4,0.2,0.7,0.2c-0.2-0.1-0.3-0.2-0.4-0.3c0-0.3,0-0.6,0.1-1C27.4,9.8,27.5,9.8,27.6,9.7z M18.7,15.1
	c-0.1,0.1-0.2,0.2-0.3,0.2c0.2,0.1,0.4,0.1,0.5,0.1c0.3,0,0.2-0.4,0.4-0.4c0-0.1,0-0.1,0-0.2c0-0.1-0.1-0.1-0.1-0.2
	c-0.2,0.1-0.4,0.1-0.5,0.2C18.7,15,18.7,15.1,18.7,15.1z M24.6,9.3c0.2,0.1,0.3,0.2,0.4,0c-0.2-0.3-0.5-0.1-0.7,0
	c0,0-0.1-0.1-0.1-0.1c0,0,0,0-0.1,0c0,0.2,0,0.5,0,0.7c0,0,0.1,0.1,0.1,0.1c0.1-0.2,0.2-0.3,0.4-0.5C24.6,9.4,24.6,9.4,24.6,9.3z
	 M22.5,5.6c0.1-0.1,0.3,0,0.4-0.3c-0.3,0.1-0.6,0.1-0.8,0.4C22.2,5.7,22.4,5.7,22.5,5.6z M25.8,21.7c-0.1-0.1-0.2,0-0.3,0.1
	c0,0,0,0.1,0,0.1C25.7,21.8,25.7,21.8,25.8,21.7z M31.1,34.3c0,0.2-0.2,0.3-0.3,0.5c-0.1,0.2-0.4,0.2-0.5,0.4
	c-0.1,0-0.2,0.1-0.3,0.1c-0.1,0-0.2,0.1-0.3,0.1c-0.2,0.2-0.1,0.5,0,0.7c-0.1,0.2-0.3,0.4-0.4,0.5c0.1,0.2,0.2,0.3,0.3,0.5
	c0.1,0,0.3,0.1,0.4,0.1c0.2,0,0.3-0.1,0.5-0.2c0.1-0.1,0.2-0.3,0.3-0.5c0.1-0.2,0.2-0.4,0.3-0.6c0.1-0.3,0.3-0.6,0.3-0.9
	c0.1-0.1,0.2-0.1,0.2-0.1c0-0.2-0.1-0.3-0.1-0.4C31.3,34.4,31.1,34.3,31.1,34.3z M13.8,11.1c0-0.4,0.2-0.4,0.5-0.5
	c-0.2-0.2-0.3,0-0.4,0c-0.1,0-0.2,0.1-0.4,0.1c0,0,0,0,0,0c-0.1,0.1-0.1,0.1-0.2,0.2c0,0.1,0,0.3,0,0.5c-0.1,0-0.1,0-0.2,0
	c0.1,0.1,0.1,0.1,0.2,0.1c-0.1,0.1-0.1,0.1-0.2,0.2C13.5,11.7,13.6,11.4,13.8,11.1z M38.8,26.4c0.1,0.2,0,0.4,0.1,0.6
	c0.1,0.2,0.1,0.4,0.4,0.5c0.2-0.1,0.2-0.4,0.1-0.5C39.2,26.7,39,26.5,38.8,26.4z M21.7,20.7c-0.1-0.1-0.3,0-0.4-0.1
	c0,0-0.2,0-0.3,0.1c0.2,0.2,0.4,0.3,0.6,0.4C21.7,20.9,21.7,20.8,21.7,20.7z M20.4,20.1c0.1,0,0.2-0.1,0.2-0.1
	c0-0.1,0.1-0.2,0.1-0.3c0-0.1-0.1-0.1-0.1-0.2c0,0-0.1,0-0.2,0C20.5,19.7,20.3,19.9,20.4,20.1z M20.8,19.1
	C20.8,19.1,20.8,19,20.8,19.1c-0.1,0-0.1,0-0.2,0c0,0.1,0,0.2,0,0.3c0,0,0.1,0,0.1,0C20.7,19.3,20.8,19.2,20.8,19.1z M24.1,21.7
	c-0.2,0-0.3,0-0.4,0C23.8,21.8,23.8,21.8,24.1,21.7z M23.5,21.6c0.1,0,0.1,0,0.1,0c0,0,0,0,0,0c0,0-0.1-0.1-0.2-0.1
	C23.5,21.6,23.5,21.6,23.5,21.6z M17.1,8.3C17.1,8.3,17.1,8.3,17.1,8.3C17.2,8.3,17.2,8.3,17.1,8.3C17.2,8.2,17.2,8.2,17.1,8.3
	C17.2,8.2,17.1,8.2,17.1,8.3z M17.8,6.9C17.8,6.9,17.8,7,17.8,6.9c0.1,0.1,0.1,0.1,0.2,0c0,0,0,0,0,0C17.9,6.9,17.8,6.9,17.8,6.9z
	 M13.5,10.2C13.6,10.2,13.6,10.3,13.5,10.2C13.6,10.2,13.6,10.2,13.5,10.2C13.6,10.2,13.6,10.2,13.5,10.2
	C13.6,10.2,13.6,10.2,13.5,10.2z M17.3,7.3C17.3,7.3,17.3,7.3,17.3,7.3C17.2,7.3,17.2,7.3,17.3,7.3C17.2,7.4,17.2,7.4,17.3,7.3
	C17.2,7.4,17.3,7.3,17.3,7.3z M22.1,6.2C22.1,6.2,22.1,6.2,22.1,6.2C22.1,6.1,22.1,6.1,22.1,6.2C22,6.1,22,6.1,22.1,6.2
	C22.1,6.1,22.1,6.2,22.1,6.2z M21.9,6.1c-0.1,0-0.2-0.1-0.2,0.1C21.8,6.2,21.9,6.2,21.9,6.1z M41.7,22.9c-0.3-0.2-0.3-0.5-0.4-0.8
	c0-0.1-0.1-0.1-0.3-0.2c0,0.3,0,0.4,0.1,0.6c-0.1,0-0.2,0.1-0.2,0.1c0-0.1,0-0.1-0.1-0.1c-0.1-0.2-0.1-0.5-0.3-0.6
	c-0.2-0.1-0.3-0.3-0.5-0.4c-0.1,0-0.2-0.1-0.2-0.2c0-0.1-0.1-0.2-0.2-0.3c0,0-0.1,0-0.1,0c0,0,0,0.1-0.1,0.2c0,0,0,0.1,0.1,0.2
	c-0.3,0.1-0.4,0.4-0.5,0.5c0,0.1,0,0.1,0,0.1c0.2,0.2,0.1,0.4,0,0.6c0,0.1-0.1,0.2-0.1,0.3c0,0.3-0.1,0.5-0.1,0.8
	c-0.1,0.3,0,0.6-0.4,0.8c0,0.1,0,0.3,0.1,0.4c0.2,0.2,0.2,0.4,0.2,0.7c0,0.1,0,0.3,0.1,0.4c0.1,0.1,0.1,0.3,0,0.3
	c-0.1,0.1,0,0.3,0,0.4c-0.3,0,0,0.4-0.2,0.5c-0.2-0.1-0.4-0.2-0.5-0.4c-0.1-0.1-0.1-0.2-0.2-0.3c-0.2-0.3-0.5-0.5-0.6-0.8
	c0-0.1-0.2-0.2-0.2-0.3c-0.1-0.1-0.2-0.2-0.3-0.3c-0.2-0.3-0.4-0.6-0.5-0.9c0-0.1-0.1-0.3-0.3-0.5c-0.2,0.2-0.3,0.3-0.4,0.4
	c-0.2-0.1-0.3-0.2-0.5-0.3c0-0.1,0.1-0.1,0.1-0.2c-0.2-0.1-0.5-0.2-0.7-0.2c0,0,0,0,0,0.1c-0.1-0.1-0.2-0.2-0.4-0.4
	c-0.1,0-0.2,0.1-0.3,0.1c-0.3,0.1-0.6,0.3-1,0.3c-0.2,0.1-0.4,0.1-0.6,0.1c-0.1,0-0.2,0-0.3,0c-0.1-0.1-0.1-0.2-0.2-0.4
	c-0.1,0-0.1,0-0.2,0c-0.1,0.1-0.3,0.2-0.4,0.3c-0.3,0-0.5-0.3-0.8-0.2c-0.1-0.2-0.3-0.4-0.4-0.5c-0.1,0-0.2,0-0.4-0.1
	c0,0,0,0.1,0,0.1c0,0-0.1,0-0.2,0.1c0.1,0.2,0.1,0.5,0.4,0.6c0.1,0.1,0.3,0.2,0.3,0.4c0,0.1,0.1,0.1,0.2,0.3c0-0.1,0-0.2,0-0.3
	c0.1,0,0.1,0,0.1,0c0,0.1,0,0.3,0,0.4c0.2,0.3,0.4,0,0.6,0.1c0.3-0.2,0.3-0.6,0.6-0.8c0,0.3,0.1,0.6,0.4,0.7c0.1,0,0.2,0,0.3,0
	c0.1,0.1,0.2,0.2,0.3,0.3c-0.1,0.2-0.1,0.4-0.2,0.6c0,0-0.1,0-0.1,0c0,0.1,0,0.3,0,0.4c-0.1,0.1-0.2,0.1-0.2,0.2c0,0.1,0,0.1,0,0.2
	C32.1,25.9,32,26,31.9,26c0,0.1,0,0.1,0,0.2c-0.2,0.1-0.4,0.2-0.6,0.2c-0.1,0-0.1,0.1-0.2,0.1c0,0,0,0.1,0,0.1
	c0,0.1-0.1,0.2-0.2,0.3c-0.1,0-0.2,0.1-0.3,0.2c-0.2,0.1-0.5,0.3-0.7,0.4c-0.1,0.1-0.3,0.1-0.4,0.1c-0.1,0.1-0.2,0.1-0.3,0.2
	c-0.1,0-0.2,0-0.3,0c0-0.1-0.1-0.2-0.1-0.3c-0.1-0.2-0.2-0.5-0.2-0.7c-0.1-0.1-0.2-0.2-0.3-0.3c-0.1-0.1-0.2-0.2-0.2-0.3
	c-0.1-0.1-0.2-0.3-0.3-0.3c-0.1-0.1-0.2-0.2-0.3-0.3c0-0.1,0-0.1,0-0.2c0,0-0.1-0.1-0.1-0.1c0-0.3-0.2-0.5-0.4-0.6
	c0,0-0.1-0.1-0.1-0.1c0-0.2-0.2-0.3-0.3-0.5c-0.1-0.2-0.2-0.4-0.5-0.5c0,0,0-0.1,0-0.1c-0.2,0,0,0.2-0.1,0.2c-0.1,0-0.1-0.1-0.2-0.1
	c0-0.1,0-0.1-0.1-0.1c0,0.1,0,0.1,0.1,0.1c0,0.1,0.1,0.2,0.1,0.3c0.1,0.3,0.2,0.5,0.5,0.8c0,0,0,0,0,0.1c0,0.1,0,0.2,0,0.3
	c0.1,0.1,0.3,0.2,0.4,0.3c0,0.1,0,0.2,0,0.4c0,0.1,0.1,0.3,0.1,0.4c0,0.1,0.1,0.2,0.1,0.2c0.2,0.1,0.3,0.3,0.4,0.5
	c0,0,0,0.1,0.1,0.1c0.1,0.1,0.2,0.2,0.3,0.3c0.4,0.2,0.6,0.5,0.9,0.7c0,0.1-0.1,0.1-0.1,0.2c0.1,0.1,0.3,0.2,0.4,0.3
	c0.3,0.1,0.4-0.1,0.6-0.1c0.2,0,0.3-0.2,0.5-0.2c0.2,0,0.4-0.2,0.6-0.2c0.1-0.1,0.1-0.1,0.2-0.2c0,0.1,0,0.1,0,0.1
	c0.1,0.5-0.1,1-0.3,1.5c-0.3,0.6-0.7,1.1-1.3,1.5c-0.1,0.1-0.2,0.2-0.3,0.2c-0.1,0.1-0.2,0.1-0.3,0.2c-0.2,0.2-0.3,0.5-0.6,0.5
	c0,0.1-0.1,0.1-0.2,0.2c-0.2,0.3-0.3,0.6-0.5,0.9c0.1,0.1,0.2,0.1,0.3,0.2c0.1,0.2-0.2,0.3,0,0.5c0.1,0.2,0.3,0.3,0.4,0.4
	c0,0.2,0,0.3,0,0.5c0,0.2,0,0.3,0.1,0.5c-0.1,0.2-0.2,0.4-0.4,0.5c-0.2,0.1-0.4,0.1-0.7,0.2c0,0-0.1,0.2-0.2,0.2
	c-0.3,0.1-0.4,0.3-0.6,0.5c0.3,0.2,0.3,0.5,0.3,0.8c-0.3,0.1-0.6,0.2-0.9,0.3c0,0.1,0.1,0.1,0.1,0.2c-0.1,0.1-0.1,0.2-0.2,0.3
	c0,0.1-0.1,0.2-0.1,0.2c-0.5,0.2-0.7,0.6-1.3,0.7c-0.2,0.1-0.5,0.1-0.7,0.1c-0.3,0-0.5,0-0.8,0c-0.2,0-0.3,0-0.5,0
	c-0.1,0-0.2,0-0.2,0c-0.1,0.1-0.2,0.1-0.3,0c-0.1-0.1-0.3-0.1-0.4-0.1c0-0.2-0.1-0.3-0.1-0.4c-0.1,0-0.1,0-0.1-0.1
	c-0.2-0.2-0.4-0.4-0.6-0.6c-0.1-0.1-0.2-0.1-0.2-0.2c-0.1-0.1-0.1-0.2-0.1-0.2c-0.1-0.2-0.2-0.5-0.3-0.8c-0.2-0.3-0.5-0.7-0.8-1
	c0-0.1,0-0.2-0.1-0.3c0-0.1,0.1-0.3,0.1-0.4c0-0.1,0.2-0.4,0.3-0.5c0.3-0.1,0.3-0.3,0.3-0.5c-0.1-0.2-0.2-0.3-0.3-0.5
	c0.1-0.1,0.1-0.1,0.1-0.2c-0.1-0.3-0.2-0.5-0.3-0.8c-0.1-0.3-0.3-0.4-0.5-0.6c-0.2-0.2-0.3-0.4-0.4-0.7c0.3-0.2,0.2-0.5,0.3-0.7
	c0.1-0.1,0.1-0.3,0.1-0.4c-0.1-0.1-0.3-0.3-0.4-0.4c-0.1,0-0.3,0.1-0.5,0.1c-0.1,0-0.2-0.1-0.2-0.2c0-0.3-0.2-0.4-0.4-0.6
	c-0.3,0-0.5-0.1-0.8,0c-0.3,0.1-0.6,0.1-0.9,0.2c-0.2-0.1-0.4-0.3-0.7-0.3c-0.3,0-0.6,0-0.9,0c-0.2-0.2-0.4-0.5-0.5-0.7
	c-0.1-0.1-0.2-0.3-0.3-0.4c-0.1-0.2-0.3-0.4-0.3-0.6c0-0.4-0.2-0.8-0.4-1.2c-0.1-0.3-0.2-0.5,0-0.8c0-0.1-0.1-0.2-0.1-0.3
	c0.1-0.1,0.2-0.1,0.3-0.2c0.1-0.1,0.1-0.2,0.2-0.3c0.2-0.2,0.3-0.4,0.3-0.7c0-0.1,0.1-0.3,0.1-0.4c-0.1-0.1,0-0.3,0-0.4
	c0.3-0.2,0.4-0.6,0.8-0.7c0.1-0.4,0.6-0.4,0.8-0.7c0.3,0.1,0.6-0.1,0.9-0.2c0.1-0.3,0.2-0.6,0.4-0.8c0.2-0.1,0.4-0.2,0.6-0.2
	c0.2-0.1,0.3-0.2,0.4-0.4c0,0,0.1,0,0.1,0c0,0.1,0.1,0.2,0.1,0.2c0.1,0.1,0.3,0.1,0.4,0.2c0,0,0.1,0,0.1,0c0.1-0.1,0.3,0,0.4,0
	c0.1-0.1,0.3-0.1,0.4,0c0.2,0,0.5,0,0.7,0.1c0.3,0.1,0.7,0.1,1.1,0.1c0,0,0,0,0.1,0c0,0,0,0.1,0,0.1c0,0,0.1,0,0.1,0
	c-0.1,0.2-0.1,0.4-0.1,0.6c-0.2,0.1-0.2,0.1-0.2,0.3c0,0,0.1,0,0.1,0.1c0,0.2,0.1,0.2,0.2,0.2c0.2,0.1,0.5,0.2,0.7,0.3
	c0,0.1,0.1,0.2,0.1,0.3c0.3,0.2,0.5,0.3,0.8,0.4c0.1,0,0.1-0.1,0.2-0.1c0-0.1,0-0.2,0-0.3c0.3-0.3,0.4-0.3,0.8,0
	c0.1,0.1,0.3,0.1,0.4,0.1c0,0.1,0,0.1,0.1,0.2c0.4-0.1,0.7,0.2,1,0.1c0,0,0.1-0.1,0.1-0.1c0.3-0.1,0.6,0.2,0.9,0.2
	c0.1-0.1,0.1-0.1,0.2-0.3c0.1-0.2,0.1-0.4,0.2-0.6c0.1-0.2,0.1-0.4,0.1-0.5c0-0.1-0.1-0.1-0.1-0.2c-0.1,0-0.2,0-0.3,0
	c0,0-0.1,0.1-0.1,0.1c-0.1,0-0.3,0-0.4,0c0,0,0-0.1-0.1-0.2c-0.1,0-0.2,0.1-0.2,0.1c-0.1,0.1-0.2,0.1-0.3,0.1
	c-0.1-0.1-0.3,0-0.4-0.1c-0.1-0.2-0.2-0.3-0.3-0.5c0-0.1,0.1-0.2,0.1-0.2c-0.1-0.1,0-0.2,0-0.3c-0.1-0.1-0.1-0.1-0.2-0.2
	c-0.1,0-0.2,0-0.4,0c0,0.1,0.1,0.1,0.1,0.2c-0.1,0-0.1,0.1-0.2,0.1c0,0-0.1-0.1-0.2-0.2c0,0.2,0.1,0.3,0.1,0.5
	c0.1,0.1,0.1,0.1,0.2,0.2c0,0,0,0.1,0,0.1c-0.1,0-0.1,0-0.2,0c-0.1,0.1-0.1,0.3-0.1,0.4c-0.1,0-0.2-0.1-0.2-0.1
	C23,21,23,20.8,22.9,20.6c-0.1-0.2-0.2-0.3-0.2-0.5c0-0.2,0-0.3,0.1-0.4c-0.1-0.1-0.2-0.3-0.4-0.4c-0.2-0.1-0.3-0.3-0.4-0.5
	c0-0.1-0.1-0.2-0.1-0.3c0,0-0.1,0.1-0.1,0.1c0-0.1,0-0.2-0.1-0.3c-0.1,0.1-0.2,0.2-0.2,0.2c0,0.1,0,0.1,0,0.2
	c0.2,0.2,0.2,0.5,0.4,0.7c0.2,0.1,0.3,0.5,0.5,0.5c0,0.1,0,0.1,0,0.3c0-0.1-0.1-0.1-0.1-0.2c-0.1,0-0.2,0-0.3,0
	c0,0.1,0.1,0.2,0.1,0.3c-0.1,0.1-0.2,0.2-0.4,0.3c0.1-0.1,0.1-0.2,0.2-0.3c0,0,0-0.1,0-0.1c-0.2-0.2-0.3-0.5-0.5-0.7
	c-0.2-0.1-0.2-0.3-0.4-0.5c0-0.1,0-0.2,0-0.3c-0.1-0.1-0.2-0.2-0.2-0.3c-0.2,0.1-0.4,0.2-0.5,0.2c-0.2-0.1-0.5-0.2-0.7-0.2
	c0,0.1-0.1,0.2-0.1,0.4c-0.1,0-0.3,0-0.4,0.1c-0.2,0.2-0.3,0.3-0.5,0.4c0,0,0,0.1,0,0.2c-0.1,0.1-0.1,0.1-0.2,0.2
	c-0.1,0-0.2,0-0.3,0.1c-0.1,0.1-0.2,0.1-0.3,0.1c-0.2-0.1-0.3-0.1-0.5,0c0-0.1-0.1-0.1-0.1-0.2c0-0.1,0-0.1,0-0.2
	c-0.2-0.1-0.3-0.1-0.5-0.2c0.1-0.2,0.3-0.3,0.1-0.5c0-0.3,0.3-0.4,0.4-0.6c0.1-0.2,0.2-0.6,0.2-0.7c0.1,0,0.3,0,0.3,0
	c0.3,0.2,0.4,0.3,0.6,0.4c0.2,0.1,0.3,0.1,0.5,0.2c0.1-0.3,0.2-0.5,0.3-0.7c0-0.2,0-0.3-0.1-0.4c0-0.1-0.1-0.2-0.2-0.3
	c0-0.1,0-0.2,0-0.3c0.2,0,0.3,0.1,0.4,0.2c0,0,0,0,0.1,0c0-0.1,0-0.2,0-0.3c0,0,0,0,0.1,0c0,0.1,0.1,0.1,0.1,0.2
	c0.3-0.1,0.5-0.1,0.7-0.4c0.1,0,0.2,0,0.3,0c0.1-0.2,0.2-0.3,0.3-0.5c0.2,0,0.4,0,0.6,0c0-0.1,0.1-0.1,0.1-0.2c0-0.6,0-0.6,0.5-0.8
	c0,0.1-0.1,0.2-0.1,0.3c0,0,0,0,0,0c-0.1,0.1-0.2,0.1-0.3,0.2c0,0.2,0.1,0.3,0.1,0.5c0.1,0,0.2-0.1,0.3-0.1c0.1,0.1,0.1,0.2,0.2,0.2
	c0.3,0,0.5-0.2,0.7-0.2c0.1,0.1,0.2,0.1,0.2,0.2c0-0.1,0.1-0.1,0.1-0.1c0.1,0,0.2-0.1,0.3-0.1c0-0.2,0-0.3,0-0.5
	c0.1-0.1,0.2-0.1,0.2-0.2c0.1,0.1,0.2,0.1,0.2,0.2c0-0.1,0.1-0.2,0.1-0.3c0,0-0.1-0.1-0.1-0.1c0-0.1,0-0.1,0-0.2
	c0.1,0,0.1-0.1,0.2-0.1c0.1,0,0.1-0.1,0.2,0c0.1,0.2,0.3,0,0.4,0c0,0,0,0,0-0.1c0-0.1-0.1-0.1-0.1-0.2c-0.3-0.1-0.5,0.2-0.7,0.1
	c-0.1-0.1-0.1-0.2-0.2-0.3c0-0.1,0-0.2,0-0.3c0-0.1,0-0.2,0-0.3c0.2-0.2,0.4-0.5,0.6-0.6c0,0,0-0.1,0.1-0.1
	c-0.1-0.1-0.2-0.1-0.3-0.2C24.1,12.9,24,13,24,13.1c0,0.1-0.1,0.2-0.2,0.3c-0.2,0.2-0.5,0.3-0.5,0.6c0,0,0,0,0,0
	c0,0.1,0.1,0.3,0.1,0.4c-0.1,0.1-0.1,0.3-0.2,0.3C23,14.8,23,15,22.9,15.2c0,0.1-0.1,0.3-0.2,0.3c0,0-0.1-0.1-0.1-0.1
	c0,0.1-0.1,0.2-0.1,0.3c-0.1,0-0.1-0.1-0.3-0.1c0,0-0.1,0.1-0.1,0.2C22,15.6,22,15.6,22,15.5c0.1-0.1,0.1-0.1,0.2-0.2
	c0,0,0.1,0.1,0.1,0.1c0-0.4,0.1-0.8-0.1-1.1c-0.2,0.1-0.3,0.2-0.5,0.2c-0.1-0.1-0.2-0.1-0.3-0.2c0.1-0.3,0.2-0.6,0.3-1
	c0,0,0.1-0.1,0.1-0.1c0.2-0.1,0.4-0.2,0.6-0.3c0.2-0.1,0.4-0.3,0.5-0.5c0.3-0.4,0.7-0.6,1-0.9c0.1,0,0.2,0,0.3,0
	c0.1-0.1,0.2-0.2,0.2-0.2c0.1,0,0.1,0.1,0.1,0.1c0.2-0.2,0.3,0,0.4,0.1c0,0.1,0,0.1,0,0.2c0.1,0,0.2,0.1,0.2,0.1
	c0.1,0,0.2,0.1,0.3,0.1c0.3,0,0.5,0.2,0.7,0.4c0,0.1,0,0.2,0,0.3c-0.3,0.3-0.5,0-0.8,0c0,0,0,0.1,0,0.1c0,0,0.1,0,0.1,0.1
	c0,0.1,0,0.2,0,0.4c0.1,0.1,0.2,0.1,0.3,0.2c0-0.1,0-0.2,0-0.3c0.1,0.1,0.2,0.1,0.3,0.1c0,0,0.1-0.1,0.1-0.1c0-0.1,0-0.2-0.1-0.3
	c0.1-0.1,0.2-0.2,0.3-0.2c0,0,0.1,0.1,0.1,0.1c0-0.1,0.1-0.1,0.1-0.2c-0.1,0-0.1-0.1-0.2-0.1c0-0.1,0-0.2,0-0.3c0.1,0,0.1,0,0.2,0
	c0.1,0,0.1,0.1,0.1,0.1c0,0.1,0,0.2-0.1,0.2c0.1,0,0.1,0,0.2,0c0-0.1,0-0.2,0-0.2c0.2-0.2,0.3-0.3,0.5-0.5c0,0,0,0.1,0.1,0.2
	c0.1-0.1,0.1-0.1,0.1-0.2c0.1-0.1,0.3-0.1,0.5-0.2c-0.1-0.1-0.1-0.2-0.2-0.3c0.2,0,0.4,0,0.5,0c0.2,0,0.3,0.2,0.5,0
	c-0.3-0.2-0.5-0.3-0.6-0.6c0-0.2,0-0.3-0.1-0.5c0.1,0,0.2,0,0.3,0c0,0.1,0.1,0.2,0.1,0.3c0,0,0.1,0,0.1,0c0-0.1,0-0.2-0.1-0.3
	c0,0,0-0.1,0-0.1c0,0,0.1,0.1,0.1,0.1c0.1-0.1,0.2-0.2,0.2-0.3C29,9.8,29,9.7,28.9,9.6C29,9.5,29,9.4,29.1,9.3
	c-0.1,0-0.1-0.1-0.2-0.1c0-0.1,0-0.1,0-0.2c0,0,0-0.1,0-0.1C29,8.7,29,8.6,29.1,8.5C29,8.3,28.9,8.2,28.8,8c0.1,0,0.3,0,0.4,0
	c0-0.1,0-0.1,0-0.2c0.2,0,0.3,0,0.5,0c0.1,0.1,0.2,0.2,0.2,0.4C30,8,30.1,7.9,30.1,7.8c0-0.2,0.3-0.1,0.3-0.3c-0.1,0-0.1,0-0.2,0
	c0.1-0.1,0.1-0.1,0.2-0.2c0.2,0,0.4,0,0.6,0c-0.1-0.2-0.2-0.4-0.3-0.6c-0.1,0-0.2,0-0.3,0c-0.1-0.2-0.1-0.3-0.2-0.5
	c0.1-0.1,0.1-0.2,0.2-0.3c-0.1-0.1-0.2-0.2-0.4-0.3c0.1,0,0.1-0.1,0.2-0.1c-0.2-0.2-0.3-0.3-0.5-0.4c-0.2,0-0.4,0-0.6-0.2
	c-0.1-0.1-0.2-0.2-0.3-0.2c-0.2-0.1-0.4-0.2-0.6-0.3c0,0,0.1-0.1,0.1-0.2c-0.2,0-0.3,0.1-0.4,0.1c0,0-0.1,0.1-0.1,0
	c-0.1-0.2-0.3-0.1-0.4-0.1c0,0,0,0-0.1,0.1c0.1,0,0.1,0.1,0.2,0.1c-0.2,0.1-0.3,0-0.3,0c-0.2,0-0.3,0.1-0.4,0.1c-0.1,0-0.3,0-0.4,0
	c-0.2,0-0.3,0-0.5,0c-0.1,0-0.3,0-0.4,0c-0.1,0-0.2,0.1-0.3,0c-0.1,0-0.2,0.1-0.4,0.1c-0.2,0-0.5,0-0.7,0c-0.2,0-0.5,0-0.7,0.1
	c-0.2,0.1-0.5,0.1-0.7,0.2c-0.1,0-0.2,0-0.3,0.1c-0.1,0.1-0.2,0.1-0.3,0.1c-0.1,0-0.1,0-0.2,0c0,0,0,0,0,0c0.2,0,0.4,0.1,0.6,0.1
	c0,0,0-0.1,0-0.1c0.2,0,0.3-0.1,0.4-0.1C23,4.9,23.1,5,23.2,5.1c-0.4,0-0.7,0.1-1,0.1c-0.2,0-0.4,0-0.5,0.4c-0.4,0-0.9-0.1-1.2,0.1
	c0-0.1-0.1-0.2-0.1-0.2c-0.2,0.1-0.3,0.1-0.4,0.2c0,0,0,0.1,0,0.1c0.1,0,0.3,0,0.4-0.1c0,0.1-0.1,0.1-0.1,0.2c0.1,0,0.3,0,0.4,0
	c0-0.1,0.1-0.1,0.1-0.1c0.2,0,0.3-0.1,0.4-0.1c0.1,0.1,0.1,0.1,0.2,0.1c0,0,0,0,0,0.1c-0.1,0-0.3,0-0.5,0C21,5.9,21.1,6,21.1,6
	c0,0.1,0,0.1,0,0.2c0.2,0.1,0.2-0.2,0.4-0.2c0,0.1,0,0.1-0.1,0.2c0.1,0,0.2,0,0.2,0c0,0.1,0,0.1,0,0.2c0.1,0,0.1,0.1,0.2,0.1
	c0.2-0.1,0.4-0.3,0.4-0.5c0.1,0,0.3,0,0.5,0c-0.2,0.1-0.3,0.2-0.5,0.2c0,0,0,0,0,0c0.1,0,0.3,0,0.4,0c0.1,0.2,0.4,0.3,0.4,0.6
	C23.1,7,23,7.1,22.8,7.2c-0.1,0-0.2-0.2-0.4,0c0.1,0,0.2,0,0.2,0.1c0.1,0.1,0.1,0.2,0.2,0.4c0.1,0,0.3,0,0.4,0
	c0.1,0.1,0.1,0.2,0.2,0.3c0,0.1,0,0.1,0,0.2c-0.1,0.1-0.2,0.1-0.4,0c0,0.3,0.3,0.2,0.3,0.4c-0.2,0.2-0.5,0.1-0.7,0.3
	c-0.2,0-0.3,0.2-0.5,0.3c-0.1,0-0.1,0.1-0.3,0.1c-0.1,0.1-0.3,0.2-0.4,0.4c-0.1,0.2-0.3,0.1-0.5,0.2c0,0.1-0.1,0.1-0.1,0.2
	c0,0-0.1-0.1-0.1-0.1c-0.1,0.1-0.1,0.3-0.2,0.4c-0.1,0-0.1,0-0.2,0c0-0.1,0-0.1-0.1-0.2c0,0-0.1,0.1-0.1,0.1c0,0.1,0.1,0.1,0.1,0.1
	c0,0,0,0,0,0c-0.2,0.2-0.5,0.1-0.8,0.1c-0.1-0.1-0.1-0.1-0.2-0.2c-0.3,0.1-0.5,0.3-0.9,0c-0.1-0.1-0.2,0-0.3-0.1
	c-0.3,0.1-0.6,0.1-0.8,0.2c0,0,0,0,0-0.1c-0.1,0.1-0.1,0.2-0.2,0.3c0,0,0,0,0-0.1c-0.1,0-0.3,0.1-0.4,0.1c0-0.2,0-0.4,0.1-0.6
	c0.2-0.2,0.3-0.3,0.5-0.5c0.1-0.2,0.4-0.2,0.5-0.4c0.1-0.2,0.4-0.2,0.6-0.4c0.2,0,0.4,0.1,0.6,0.1C19,8.7,19,8.6,19,8.6
	c0,0,0,0-0.1-0.1c0.1-0.1,0.2-0.1,0.3-0.2c0.1,0,0.1,0.1,0.2,0.1c0.1-0.1,0.1-0.3,0.3-0.3c0.4-0.2,0.8-0.3,1.2-0.7
	c0-0.1,0-0.2,0-0.3c0.1,0,0.2-0.1,0.4-0.1c0,0,0.1,0.1,0.1,0.1c0.1-0.1,0.1-0.1,0.2-0.2C21.7,7,21.8,7.1,22,7.2
	c0.1,0,0.3-0.1,0.5-0.1C22.3,7,22.2,7,22.1,7c0-0.1-0.1-0.1-0.2-0.2c0,0,0,0-0.1,0.1c-0.2,0-0.4-0.1-0.6-0.1
	c0.1-0.1,0.2-0.3,0.3-0.4c-0.2-0.1-0.2-0.1-0.4,0.3c-0.1,0-0.2,0.1-0.4,0.1c-0.1-0.2,0.1-0.3,0.2-0.5C20.8,6.3,20.8,6,20.7,6
	c-0.3,0.1-0.6,0-0.8,0.2c-0.2,0.1-0.5,0.2-0.8,0.3c0.3,0,0.4,0,0.6,0.1c0.1-0.3,0.5-0.2,0.7-0.3c0.1,0,0.2,0,0.4,0c0,0,0,0,0,0.1
	c0,0,0,0.1,0,0.1c-0.1,0-0.1,0-0.2,0c0.1,0.3,0,0.4-0.3,0.4c0-0.1,0-0.1-0.1-0.2C20.1,6.8,20,6.9,20,6.9c-0.3,0.2-0.5,0.4-0.7,0.6
	c-0.2,0-0.3,0.1-0.5,0.1c-0.1,0.1-0.2,0.3-0.3,0.3c-0.1,0.1-0.2,0.2-0.3,0.2c-0.2,0.1-0.3,0-0.5,0c0.1-0.1,0.2-0.1,0.2-0.1
	C17.9,8,18,8,18.1,7.9c0,0-0.1-0.1-0.1-0.2c-0.1,0.1-0.1,0.1-0.2,0.2c-0.2,0.1-0.4,0.3-0.6,0.3c0-0.1-0.1-0.1-0.2-0.1
	C17,8,17,8,17,8c0.2-0.2,0.5-0.3,0.7-0.6c0.1-0.2,0.2-0.2,0.3-0.3c0,0,0,0,0.1,0c0,0.1,0,0.1-0.1,0.2c0.1,0,0.3,0,0.4,0
	c0.1,0,0.3,0,0.3-0.2c-0.1,0-0.2,0-0.2,0c0,0,0,0,0-0.1c0.1,0,0.2,0,0.2,0c0,0,0-0.1,0.1-0.1c0,0,0,0.1,0,0.1
	c0.2-0.1,0.5-0.1,0.6-0.4c-0.1,0-0.2,0-0.3,0c-0.1,0-0.2,0-0.2,0c-0.1,0-0.1,0.1-0.2,0.1c0-0.1,0-0.2-0.1-0.3
	c-0.2,0.1-0.5,0.2-0.7,0.4c0-0.3,0.1-0.3,0.2-0.4c0.1,0,0.2,0,0.3,0c0-0.1-0.1-0.1-0.1-0.2c-0.1-0.1-0.2-0.2-0.3-0.2
	c-0.1,0-0.1,0.1-0.2,0.1c-0.1,0-0.2,0-0.2,0c-0.5,0.2-1,0.5-1.4,0.8c-0.3,0.1-0.4,0.4-0.8,0.5C15.2,7.6,15,7.8,14.8,8
	c0.2,0,0.4-0.1,0.5-0.2c0.4,0.2,0.7,0,1-0.2c0,0,0.1-0.1,0.2-0.1c0.2,0,0.3,0,0.4-0.1c0.1-0.1,0.2-0.1,0.4-0.1
	c-0.1,0.2-0.1,0.4-0.3,0.4c-0.1,0-0.2,0.2-0.2,0.3c-0.3,0-0.5,0.2-0.7,0.4c0,0,0,0,0,0.1c0.1,0,0.2,0.1,0.4,0.1
	c-0.4,0.2-0.6,0.5-0.9,0.6c0,0-0.1,0-0.1,0.1c-0.2,0.3-0.3,0.6-0.6,0.9c0,0.3-0.3,0.3-0.4,0.3c-0.1-0.1-0.2-0.1-0.2-0.2
	c-0.1,0-0.2,0-0.2-0.1c0-0.1,0-0.2,0-0.3c0,0-0.1,0-0.1,0c0,0.1,0.1,0.2-0.1,0.2c0-0.1,0-0.1,0-0.2c-0.1,0-0.1,0-0.2,0.1
	c-0.4,0.2-0.4,0.2-0.5,0.6c-0.1,0-0.1,0-0.2,0c0.1,0.1,0.1,0.1,0.1,0.1c0,0.1,0,0.1,0,0.2c-0.3,0.1-0.3-0.3-0.5-0.3
	c0.1-0.1,0.1-0.1,0.2-0.2c0.1,0,0.1-0.1,0.2-0.1c-0.1-0.2-0.2-0.3-0.3-0.3c-0.1,0.1-0.2,0.2-0.2,0.3c0-0.1-0.1-0.1-0.1-0.2
	c-0.2,0.1-0.4,0.2-0.5,0.3c0,0,0,0-0.1,0c0.1-0.1,0.1-0.1,0.2-0.2c6.3-7.4,17.6-9,25.3-2.6c-0.1,0.2-0.1,0.4-0.2,0.4
	c0.1,0.3,0.3,0.3,0.4,0.5c0.2,0.2,0.4,0.5,0.6,0.7c0.2,0.2,0.3,0.5,0.5,0.8c0.2,0.3,0.5,0.5,0.6,0.9c0,0.1,0.1,0.1,0.1,0.1
	c0.3,0,0.4,0.3,0.6,0.4c0.1,0.1,0.2,0.2,0.2,0.4c-0.2-0.1-0.3-0.3-0.4-0.4c0,0-0.1,0.1-0.1,0.1c-0.1-0.1-0.2-0.2-0.2-0.3
	c0,0-0.1,0.1-0.1,0.1c0,0.2,0.1,0.3,0.1,0.4c-0.1-0.1-0.2-0.2-0.3-0.4c0,0.4,0.4,0.6,0.2,1c0.2,0,0.3,0.1,0.4,0.1
	c0-0.1-0.1-0.2-0.1-0.3c0,0,0.1-0.1,0.1-0.1c0.1,0.3,0.2,0.6,0.3,0.9c0,0.1,0.1,0.1,0.2,0.1c0.4,0.2,0.7,0.5,0.9,1
	c0,0.1,0.1,0.1,0.1,0.2c0.1,0.4,0.3,0.7,0.4,1.1c0.1,0.5,0.4,0.9,0.3,1.4c0,0.2,0.1,0.3,0,0.5c-0.1,0.2,0,0.4,0,0.5
	c0,0.2,0.1,0.4,0.2,0.5c0.2,0.2,0.3,0.6,0.2,0.9c-0.1-0.1-0.2-0.1-0.1-0.2c0-0.1-0.1-0.2-0.1-0.3c0-0.1,0-0.2,0-0.2
	c-0.2,0-0.1-0.3-0.3-0.3c-0.1,0.5,0.1,0.9,0.1,1.3c0.2,0.1,0.3,0.3,0.5,0.4c0.1,0.1,0.3,0.1,0.3,0.2c0.2,0.4,0.4,0.7,0.5,1.1
	c0.1,0.3-0.1,0.5,0,0.7c0,0.3,0.1,0.5,0.1,0.8c0,0,0,0-0.1,0c0-0.1,0-0.2-0.1-0.3c0,0,0,0-0.1,0.1c0-0.1-0.1-0.1-0.1-0.2
	c-0.1,0.1-0.1,0.1-0.1,0.1c-0.1-0.1-0.3-0.2-0.4-0.3c-0.1,0-0.1,0.1-0.1,0.1c0-0.1-0.1-0.1-0.2-0.2c0,0.2,0,0.3,0,0.4
	C42,23,42,23.2,42,23.5c0,0.1,0,0.2,0,0.3c0.4,0.1,0.3,0.4,0.5,0.6c0.3-0.1,0.3,0.2,0.5,0.3c0,0.2,0.1,0.5,0.3,0.7
	c0.1,0.2,0.1,0.3-0.1,0.3c-0.1,0-0.1-0.1-0.3-0.1c-0.1-0.2-0.2-0.4-0.4-0.7c0,0,0,0,0,0c-0.1-0.2-0.3-0.4-0.4-0.5
	c-0.1,0-0.1,0.1-0.1,0.1c-0.1-0.5-0.2-0.9-0.5-1.3C41.7,23.1,41.7,23,41.7,22.9z M25.7,23.6c0,0,0-0.1,0-0.1c0,0,0,0,0,0
	C25.6,23.5,25.6,23.5,25.7,23.6C25.6,23.6,25.6,23.6,25.7,23.6z M26.1,23.4c0,0.1,0,0.1,0,0.2C26.2,23.5,26.2,23.5,26.1,23.4z
	 M27.3,19.5c-0.2-0.1-0.4-0.2-0.5-0.4c-0.2-0.2-0.4-0.1-0.5-0.4c0.1-0.1,0.2-0.1,0.3-0.2c0-0.1-0.1-0.1-0.1-0.1c0,0,0.1-0.1,0.1-0.2
	c0,0-0.1,0-0.1,0c0,0-0.1,0-0.1,0c-0.1,0.1-0.2,0.1-0.3,0.1c-0.1,0.1-0.1,0.1-0.2,0.2c0,0.1,0.1,0.1,0.1,0.2c0.1,0,0.2,0,0.2,0
	c-0.1,0.1-0.2,0.1-0.3,0.1c-0.1,0.1-0.2,0.2-0.3,0.1c0,0,0-0.1,0.1-0.1c-0.1-0.1-0.1-0.1-0.2-0.2c0,0,0.1-0.1,0.1-0.1
	c-0.2-0.1-0.3-0.1-0.5-0.2c-0.2,0.1-0.2,0.5-0.5,0.6c0,0.1,0,0.2,0,0.3c0,0-0.1,0-0.1,0c0,0,0,0.1,0,0.1c0,0,0,0.1-0.1,0.1
	c0.1,0.3,0.1,0.3,0.3,0.4c0.2,0,0.4,0,0.6,0c0.1-0.1,0.1-0.1,0.2-0.2c0.1,0,0.2,0,0.2,0c0.2-0.1,0.4-0.1,0.5,0
	c0.3,0.1,0.3,0.1,0.7,0.1c0.2,0,0.3,0,0.4-0.2C27.3,19.7,27.3,19.6,27.3,19.5z M30.2,20.6c0-0.2-0.1-0.3-0.1-0.5
	c-0.2,0-0.2-0.2-0.2-0.3c0,0-0.1,0.1-0.1,0.1c0-0.1,0-0.2,0-0.3c0.1,0,0.1,0.1,0.2,0.1c0.1-0.1,0.1-0.1,0.1-0.2
	c-0.1-0.1-0.2-0.2-0.3-0.3c0,0.1-0.1,0.1-0.1,0.2c0-0.1-0.1-0.1-0.1-0.2c0-0.1,0.1-0.1,0.1-0.2c-0.1,0-0.3-0.1-0.3-0.1
	c-0.1-0.1-0.2-0.2-0.3-0.3c0,0,0.1,0,0.1,0c0-0.2,0.1-0.3,0.3-0.3c0-0.2,0-0.4-0.1-0.5c-0.1,0-0.1,0.1-0.2,0.1c0,0-0.1-0.1-0.1-0.1
	c-0.1,0.1-0.2,0.2-0.4,0.3c0,0,0,0.1,0,0.1c-0.2,0.2-0.2,0.2-0.4,0.5c0.1,0.1,0.2,0.2,0.3,0.4c0,0.1,0.1,0.2,0.1,0.2
	c0.1,0.2,0.3,0.3,0.4,0.5c0.1,0,0.1,0,0.2,0c-0.1,0.1-0.1,0.1-0.2,0.2c0,0.1,0,0.3-0.1,0.5c0,0.1,0.1,0.2,0.1,0.2c0.1,0,0.2,0,0.3,0
	c0,0,0.1,0.1,0.1,0.1c0.1,0,0.2,0,0.3,0C29.9,20.7,30,20.7,30.2,20.6z M20.8,20.8C20.8,20.8,20.8,20.8,20.8,20.8
	C20.7,20.8,20.7,20.8,20.8,20.8C20.7,20.8,20.7,20.8,20.8,20.8C20.7,20.8,20.8,20.8,20.8,20.8z M22.1,5.8
	C22.1,5.8,22.1,5.8,22.1,5.8c-0.2,0-0.3,0.1-0.6,0.1c0.1,0,0.2,0,0.2,0.1c0,0,0.1,0.1,0.1,0.1c0.1,0,0.1,0,0.2,0
	C22.1,6,22.1,5.9,22.1,5.8z M13,10.8C13,10.8,13,10.8,13,10.8C12.9,10.8,12.9,10.8,13,10.8C12.9,10.9,12.9,10.9,13,10.8
	C12.9,10.9,13,10.8,13,10.8z M16.9,8.2C16.9,8.2,16.9,8.2,16.9,8.2C16.9,8.2,16.9,8.2,16.9,8.2C16.9,8.2,16.9,8.2,16.9,8.2
	C16.9,8.2,16.9,8.2,16.9,8.2z M38.8,12.1C38.8,12.1,38.9,12.1,38.8,12.1C38.8,12.1,38.8,12,38.8,12.1C38.8,12,38.8,12,38.8,12.1
	C38.8,12.1,38.8,12.1,38.8,12.1z M39.6,12.2C39.6,12.2,39.6,12.2,39.6,12.2C39.6,12.1,39.6,12.1,39.6,12.2
	C39.5,12.1,39.5,12.1,39.6,12.2C39.6,12.1,39.6,12.2,39.6,12.2z"/>
</svg>
