<?xml version="1.0" encoding="utf-8"?>
<!-- Generator: Adobe Illustrator 23.0.0, SVG Export Plug-In . SVG Version: 6.00 Build 0)  -->
<svg version="1.0" id="_x30_" xmlns="http://www.w3.org/2000/svg" xmlns:xlink="http://www.w3.org/1999/xlink" x="0px" y="0px"
	 viewBox="0 0 50 50" enable-background="new 0 0 50 50" xml:space="preserve">
<path fill="#FFFFFF" d="M29.2,34.3c0,0.2,0,0.4,0,0.6c0,2.7,0,5.3,0,8c0,1.4-0.7,2.1-2.1,2.1s-2.8,0-4.1,0c-1.5,0-2.2-0.6-2.2-2.2
	c0-2.6,0-5.3,0-7.9c0-0.2,0-0.4,0-0.7c-1.3,0-2.5-0.1-3.8,0c-1.7,0.1-2.6-1.2-2.2-2.8c1.2-4.2,2.3-8.5,3.4-12.7
	c0.4-1.5,1.5-2.3,3-2.3c2.5,0,5,0,7.5,0c1.5,0,2.5,0.8,2.9,2.2c1.2,4.3,2.3,8.7,3.5,13c0.4,1.5-0.5,2.5-2,2.5c-1.2,0-2.5,0-3.7,0
	C29.4,34.2,29.3,34.2,29.2,34.3z"/>
<path fill="#FFFFFF" d="M25,5c2.8,0,5,2.2,5,5c0,2.7-2.2,5-5,5c-2.7,0-5-2.2-5-5S22.2,5,25,5z"/>
</svg>
