<?xml version="1.0" encoding="utf-8"?>
<!-- Generator: Adobe Illustrator 23.0.0, SVG Export Plug-In . SVG Version: 6.00 Build 0)  -->
<svg version="1.0" id="Layer_1" xmlns="http://www.w3.org/2000/svg" xmlns:xlink="http://www.w3.org/1999/xlink" x="0px" y="0px"
	 viewBox="0 0 50 50" enable-background="new 0 0 50 50" xml:space="preserve">
<g>
	<g>
		<path fill="#E90000" d="M33.3,25.2c-4.1-4.1-10.7-4.2-14.9-0.1c-4.1,4.1-4.2,10.7-0.1,14.9l7.4,7.4l7.4-7.4
			C37.3,36,37.4,29.4,33.3,25.2z M25.8,38.1c-2.9,0-5.2-2.3-5.2-5.2s2.3-5.2,5.2-5.2S31,30,31,32.9C31,35.8,28.6,38.1,25.8,38.1z"/>
		<path id="shawod1_2_" fill="#30008F" fill-opacity="0" d="M25.2,38.1c-2.1-0.5-7.8-2.2-9.9-2.6c-2.1-0.5-3.1-2.9-2.2-4.9
			c3.7-9.5,9.3-21,11-23.2c0.8-1,1.8-1.4,3.2-0.9c1.4,0.5,9.5,4.5,10.6,5.1c1.1,0.6,1.2,2.2,0.7,3.4c-2.2,4.8-4.8,11.5-8.4,21.2
			C29.7,37.8,27.3,38.6,25.2,38.1z"/>
	</g>
</g>
<g id="front_x5F_flyer">
	<path id="shawod1_1_" opacity="0.25" enable-background="new    " d="M24.1,35.8c-2.1-0.5-7.8-2.2-9.9-2.6
		c-2.1-0.5-3.1-2.9-2.2-4.9c3.7-9.5,9.3-21,11-23.2c0.8-1,1.8-1.4,3.2-0.9c1.4,0.5,9.5,4.5,10.6,5.1c1.1,0.6,1.2,2.2,0.7,3.4
		c-2.2,4.8-4.8,11.5-8.4,21.2C28.6,35.5,26.2,36.3,24.1,35.8z"/>
	<path id="slide1_1_" fill="#FFFFFF" d="M23.3,34.7c-3.9-1.1-6-1.5-9.8-2.8c-1.9-0.7-2.9-2.2-2.1-5C12.1,24.1,20,7.2,22.6,3.8
		c1-1.3,2.3-1.5,3.4-1.2s6.8,2.9,10.6,5.1c1,0.5,1.2,2.2,0.6,3.3c-3.9,9.1-8.2,19.3-9.1,21.4S25.4,35.1,23.3,34.7z"/>
	<path id="button1_1_" opacity="0.75" enable-background="new    " d="M27.5,32.3c-0.5,1.4-2.5,2-4.1,1.6s-2.6-2.2-2.1-3.5
		s2.4-2,4.1-1.6C27.2,29.2,28.1,30.9,27.5,32.3z"/>
</g>
</svg>
