<?xml version="1.0" encoding="utf-8"?>
<!-- Generator: Adobe Illustrator 23.0.0, SVG Export Plug-In . SVG Version: 6.00 Build 0)  -->
<svg version="1.0" id="follow_x5F_icon" xmlns="http://www.w3.org/2000/svg" xmlns:xlink="http://www.w3.org/1999/xlink" x="0px"
	 y="0px" width="50px" height="50px" viewBox="0 0 50 50" enable-background="new 0 0 50 50" xml:space="preserve">
<path id="head_right_1_" fill="#FFFFFF" d="M32.6,26.4c-5.3,0.1-9.6-4.2-9.7-9.5c-0.1-5.3,4.5-9.6,10.3-9.7c5.8-0.1,10.1,4,9.6,9.4
	v0.1C42.4,22,37.9,26.3,32.6,26.4z"/>
<path id="body_right_1_" fill="#FFFFFF" d="M32.3,42.9c-4.2-0.1-8.3-1.2-12-3.3c-1.4-0.9-2.1-3.1-1.1-4.6c1.1-1.7,2.5-3.2,4.1-4.3
	c2.7-1.9,6-3,9.3-3c5.4,0,11.3,3.5,13.1,7.5c0.5,1.1,0.6,1.9,0.3,2.8c-0.3,0.8-0.8,1.5-1.5,1.9C40.7,41.9,36.5,42.9,32.3,42.9
	L32.3,42.9z"/>
<path id="head_left_1_" fill="#FFFFFF" d="M22.6,9.6C18.4,6.4,12.1,6.8,9,10.5c-3.2,3.8-2.1,9.8,1.9,13.2c3.6,3,8.5,3.1,11.9,0.2
	C19.7,19.7,19.4,13.9,22.6,9.6L22.6,9.6z"/>
<path id="body_left_1_" fill="#FFFFFF" d="M17,33.5c1.2-1.9,2.7-3.5,4.5-4.8c-6.7-1.9-13.7,0.7-17.2,6.7c-0.8,1.3-0.4,3.1,0.9,4
	c0.1,0.1,0.2,0.1,0.3,0.2c3.7,2,7.8,3,12,3c0.6,0,1.5-0.1,2.4-0.2C15.8,39.9,15.3,36.2,17,33.5z"/>
</svg>
