<?xml version="1.0" encoding="utf-8"?>
<!-- Generator: Adobe Illustrator 23.0.0, SVG Export Plug-In . SVG Version: 6.00 Build 0)  -->
<svg version="1.0" id="follow_x5F_icon" xmlns="http://www.w3.org/2000/svg" xmlns:xlink="http://www.w3.org/1999/xlink" x="0px"
	 y="0px" viewBox="0 0 50 50" enable-background="new 0 0 50 50" xml:space="preserve">
<path id="shawod1_1_" opacity="0.25" enable-background="new    " d="M36.8,41.9c-2.6,1.2-9.9,4.1-12.5,5.3s-5.5-0.5-6.3-3.3
	c-3.8-12.9-7.3-29.4-7.3-33.1c0-1.7,0.7-2.9,2.6-3.5s13.6-3,15.2-3.3s3.1,1.3,3.5,3c1.6,6.7,4.3,15.9,8.5,28.9
	C41.2,37.9,39.4,40.7,36.8,41.9z"/>
<path fill="#FFFFFF" d="M38.2,35.1c-0.8-2.8-4.6-16.9-7.9-29.6c-0.3-1.7-1.8-3.3-3.3-3c-5.7,0.8-13.9,2.7-15.2,3.3
	c-1.3,0.6-2.5,1.9-2.5,4c0,5.7,5.5,29.6,7,33.1s3.8,4.3,6.3,3.5c5-1.7,7.5-3,12.5-5C37.5,40.1,39,37.9,38.2,35.1z M34.5,40.4
	c-2,0.9-4.5-0.2-5-2c-0.5-1.8,0.9-4.1,3-5c2.1-0.9,4.5,0.1,5,2C38.1,37.3,36.5,39.5,34.5,40.4z"/>
</svg>
