<?xml version="1.0" encoding="utf-8"?>
<!-- Generator: Adobe Illustrator 23.0.0, SVG Export Plug-In . SVG Version: 6.00 Build 0)  -->
<svg version="1.0" id="Layer_1" xmlns="http://www.w3.org/2000/svg" xmlns:xlink="http://www.w3.org/1999/xlink" x="0px" y="0px"
	 width="50px" height="50px" viewBox="0 0 50 50" enable-background="new 0 0 50 50" xml:space="preserve">
<path id="edit_shape" fill="#FFFFFF" d="M31.1,47.3l1.5-1.9c0.8,0.1,1.5,0.1,2.3,0l1.5,1.9c0.1,0.1,0.3,0.2,0.5,0.1l1.3-0.6
	c0.2-0.1,0.3-0.2,0.2-0.4L38.1,44c0.6-0.4,1.1-0.9,1.5-1.5l2.5,0.3c0.2,0,0.4-0.1,0.4-0.2l0.5-1.3c0.1-0.2,0-0.4-0.1-0.5L41,39.3
	c0.1-0.8,0.1-1.5,0-2.3l1.9-1.6c0.1-0.1,0.2-0.3,0.1-0.5l-0.6-1.3c-0.1-0.2-0.2-0.3-0.4-0.2l-2.3,0.3c-0.5-0.7-1.1-1.3-1.8-1.8
	l0.2-2.4c0-0.2-0.1-0.4-0.2-0.4l-1.3-0.5c-0.2-0.1-0.4,0-0.5,0.1l-1.5,1.9c-0.8-0.1-1.5-0.1-2.3,0l-1.5-1.9
	c-0.1-0.1-0.3-0.2-0.5-0.1l-1.3,0.5c-0.2,0.1-0.3,0.2-0.2,0.4l0.3,2.4c-0.7,0.5-1.3,1.1-1.7,1.8l-2.4-0.2c-0.2,0-0.4,0.1-0.4,0.2
	l-0.5,1.3c-0.1,0.2,0,0.4,0.1,0.5l2,1.5c-0.1,0.8-0.1,1.5,0.1,2.3L24.6,41c-0.1,0.1-0.2,0.3-0.1,0.5l0.6,1.3
	c0.1,0.2,0.2,0.3,0.4,0.2l2.5-0.3c0.4,0.5,0.9,1,1.5,1.4l-0.2,2.4c-0.1,0.1,0,0.3,0.1,0.4c0,0,0,0,0.1,0l1.3,0.5
	C30.8,47.5,31,47.5,31.1,47.3z M31,37.2c0.6-1.5,2.2-2.2,3.7-1.6s2.2,2.2,1.6,3.7c-0.6,1.5-2.2,2.2-3.7,1.6c0,0,0,0,0,0
	C31.1,40.3,30.4,38.6,31,37.2L31,37.2z"/>
<path id="edit_shape_1_" fill="#FFFFFF" d="M8.6,24.6l3.7-0.5c0.7,1,1.6,1.8,2.6,2.5l-0.4,3.8c0,0.3,0.1,0.5,0.4,0.7l2,0.8
	c0.3,0.1,0.6,0,0.7-0.2l2.3-3c1.1,0.2,2.2,0.2,3.2,0l2.5,3c0.2,0.2,0.5,0.3,0.7,0.2l2-0.9c0.3-0.1,0.4-0.4,0.4-0.7l-0.5-3.7
	c1-0.7,1.8-1.5,2.6-2.5l3.9,0.4c0.3,0,0.5-0.1,0.7-0.4l0.8-2c0.1-0.3,0-0.6-0.2-0.7L33,19.2c0.2-1.3,0.2-2.6,0-3.9l2.9-2.4
	c0.2-0.2,0.3-0.5,0.2-0.7l-0.9-2c-0.1-0.3-0.4-0.4-0.7-0.4l-3.7,0.4c-0.7-1-1.6-1.8-2.6-2.5L28.7,4c0-0.3-0.1-0.5-0.4-0.7l-2-0.8
	c-0.3-0.1-0.6,0-0.7,0.2l-2.3,3c-1.3-0.2-2.6-0.2-3.9,0.1L17.1,3c-0.2-0.2-0.5-0.3-0.7-0.2l-2,0.9C14.1,3.8,13.9,4,14,4.3l0.5,3.9
	c-0.9,0.7-1.8,1.6-2.4,2.6l-3.7-0.4c-0.3,0-0.5,0.1-0.7,0.4l-0.8,2c-0.1,0.3,0,0.6,0.2,0.7l3.1,2.4c-0.1,1.1-0.1,2.2,0.1,3.2
	l-2.9,2.4C7.1,21.7,7,21.9,7,22.2c0,0,0,0.1,0,0.1l0.9,2C8.1,24.5,8.3,24.7,8.6,24.6z M19.6,13.3c2.2-1,4.8,0.1,5.8,2.3
	s-0.1,4.8-2.3,5.8c-2.2,1-4.8-0.1-5.8-2.3c0,0,0,0,0,0C16.3,16.8,17.4,14.3,19.6,13.3L19.6,13.3z"/>
</svg>
