<?xml version="1.0" encoding="utf-8"?>
<!-- Generator: Adobe Illustrator 23.0.0, SVG Export Plug-In . SVG Version: 6.00 Build 0)  -->
<svg version="1.0" id="follow_x5F_icon" xmlns="http://www.w3.org/2000/svg" xmlns:xlink="http://www.w3.org/1999/xlink" x="0px"
	 y="0px" viewBox="0 0 50 50" enable-background="new 0 0 50 50" xml:space="preserve">
<g id="back_x5F_flyer" opacity="0.75">
	<path id="shadow2_1_" opacity="0.25" enable-background="new    " d="M38.9,39.8c-4,2-6,3-10.1,4.8c-2,1-4.4,0-4.8-2.4
		c-2.8-10-4.4-15.2-6.1-25.9c-0.6-1.2,0.4-2.6,1.6-2.8c5.1-1.2,7.6-1.6,12.3-1.8c1.2,0,2.4,1,2.8,2.4c3,9.5,4.8,13.9,7.2,21.3
		C42.2,36.6,40.9,38.8,38.9,39.8z"/>
	<path fill="#FFFFFF" enable-background="new    " d="M40.5,35c-2.4-7.9-4-12-7.1-21.9c-0.4-1.4-1.6-2.4-2.8-2.4
		c-4.7,0.2-7.2,0.6-12.3,1.8c-1.2,0.2-2.1,1.6-1.8,2.8c1.6,10.8,3.2,16.1,6,26.3c0.4,2.2,2.8,3.5,4.8,2.4c4.1-1.8,6.1-2.8,10.1-4.7
		C39.4,38.4,40.9,36.4,40.5,35z M37,38.6c-1.6,0.6-3.5,0.2-3.6-1.4c-0.4-1.4,0.6-3.2,2.4-3.6c1.6-0.6,3.2,0.1,3.6,1.4
		C39.8,36.4,38.8,38,37,38.6z"/>
</g>
<g id="front_x5F_flyer">
	<path id="shawod1_1_" opacity="0.25" enable-background="new    " d="M30.3,36.8c-4,1.8-6,2.6-10.1,4.3c-2,1-4.4-0.4-5.1-2.6
		c-3-10.4-4.4-16.1-5.9-26.7C9.2,10.5,10,9,11.4,8.9C16.5,7.4,19,7,23.7,6.2c1.2-0.2,2.4,1,2.8,2.4c2.6,10,4.5,14.8,6.9,23.4
		C33.8,33.6,32.3,36,30.3,36.8z"/>
	<path fill="#FFFFFF" enable-background="new    " d="M31.5,31.4c-2.2-8.8-3.8-13.6-6.4-23.9c-0.2-1.4-1.4-2.6-2.6-2.4
		c-4.7,0.6-7.2,1.2-12.3,2.6c-1,0.4-2.2,1.8-2,3.2c1.2,10.7,2.6,16.3,5.6,26.7c0.6,2.4,3,3.5,5.1,2.8C23,39.1,25,38,29,36.4
		C31,35.4,32.3,33.2,31.5,31.4z M28.6,35.6c-1.6,0.6-3.5,0-4-1.6c-0.4-1.6,0.6-3.5,2.4-4c1.8-0.8,3.6,0.2,4,1.6
		C31.4,33,30.3,34.8,28.6,35.6z"/>
</g>
</svg>
