<?xml version="1.0" encoding="utf-8"?>
<!-- Generator: Adobe Illustrator 23.0.0, SVG Export Plug-In . SVG Version: 6.00 Build 0)  -->
<svg version="1.0" id="handshake_1_" xmlns="http://www.w3.org/2000/svg" xmlns:xlink="http://www.w3.org/1999/xlink" x="0px"
	 y="0px" width="50px" height="50px" viewBox="0 0 50 50" enable-background="new 0 0 50 50" xml:space="preserve">
<path id="handshake" fill="#FFFFFF" d="M27.2,39.1c-0.2,0-0.4-0.1-0.6-0.2c-1-0.7-1.5-1-2.6-1.6l0.1-0.2c0.6-1.1,0.3-2.5-0.6-3.2
	c-0.3-0.2-0.7-0.4-1.1-0.4h-0.2h-0.3v-0.2c0-0.6-0.1-1.1-0.4-1.5l-0.4-0.5c-0.4-0.4-0.9-0.6-1.4-0.6h-0.1c-0.1,0-0.1,0-0.2,0h-0.2
	v-0.2c0-0.6-0.2-1.2-0.6-1.7l-0.1-0.1c-0.4-0.5-1.1-0.8-1.7-0.8c-0.4,0-0.9,0.1-1.2,0.4l-0.2,0.2l-0.1-0.3c-0.2-1.1-1.2-1.9-2.4-1.9
	c-0.1,0-0.2,0-0.4,0c-0.4,0.1-0.8,0.2-1.1,0.5c-0.6,0.6-0.9,0.8-1.5,1.4c-0.6-0.5-1-0.7-1.6-1.2c2-3.6,3.2-5.6,5.7-9.4
	c3.1-0.1,6.1-0.4,9-0.9c0.1,0,0.2,0,0.3,0l0.6,0.1c-1.5,0.8-2.3,1.2-3.8,2c-0.3,0.2-0.5,0.4-0.6,0.7c-0.1,0.3-0.1,0.6,0.1,0.9
	c0.1,0.2,0.2,0.3,0.4,0.5c0.7,0.4,1.8,0.9,3.4,0.9c1.3,0,2.7-0.4,4.1-1.1l0.1-0.1c4.1,3.3,6,4.9,9.6,8c0.2,0.2,0.4,0.4,0.4,0.7
	c0.1,0.4,0,0.9-0.4,1.3c-0.3,0.4-0.8,0.6-1.2,0.6l0,0c-0.3,0-0.6-0.1-0.8-0.3L35,31c-2.7-2-4.1-3-6.9-5.1c-0.1-0.1-0.2-0.1-0.2-0.1
	c-0.1,0-0.3,0.1-0.3,0.2c-0.1,0.1-0.1,0.2-0.1,0.3c0,0.1,0.1,0.2,0.2,0.3c2.8,2.1,4.2,3.1,6.9,5.1c0.6,0.5,0.6,1.4,0.1,2.1
	c-0.3,0.4-0.8,0.6-1.2,0.6c-0.3,0-0.5-0.1-0.7-0.2c-2.4-1.9-3.7-2.8-6.3-4.7c-0.1-0.1-0.2-0.1-0.2-0.1c-0.3,0-0.4,0.3-0.4,0.5
	c0,0.1,0.1,0.2,0.2,0.3c2.4,1.7,3.5,2.6,5.6,4.2c0.6,0.4,0.6,1.3,0.2,1.9C31.4,36.7,31,37,30.5,37c-0.3,0-0.5-0.1-0.7-0.2
	c-2.1-1.6-3.2-2.4-5.5-4.1c-0.1-0.1-0.2-0.1-0.2-0.1c-0.1,0-0.3,0.1-0.3,0.2c-0.1,0.2-0.1,0.4,0.1,0.6c1.8,1.3,2.6,1.9,4.3,3.2
	c0.6,0.4,0.7,1.3,0.3,2c-0.2,0.3-0.4,0.5-0.7,0.6C27.5,39,27.3,39.1,27.2,39.1L27.2,39.1z M21,38.7c-0.7,0-1.3-0.7-1.4-1.5
	c0-0.4,0.1-0.8,0.4-1.1c0.6-0.6,0.9-0.9,1.5-1.4c0.2-0.2,0.5-0.3,0.9-0.3s0.8,0.2,1,0.5c0.5,0.6,0.5,1.5-0.1,2.1s-0.9,0.9-1.5,1.4
	C21.6,38.6,21.3,38.7,21,38.7L21,38.7z M17.4,36.9c-0.8-0.1-1.5-0.8-1.5-1.6c0-0.4,0.1-0.7,0.4-1c1-0.9,1.5-1.4,2.5-2.4
	c0.2-0.2,0.6-0.3,0.9-0.3h0.1c0.4,0,0.7,0.2,1,0.5c0.3,0.3,0.4,0.7,0.4,1.1c0,0.4-0.2,0.7-0.4,1c-1,1-1.5,1.4-2.4,2.4
	C18.1,36.8,17.8,36.9,17.4,36.9L17.4,36.9z M14.3,34.6c-0.5,0-0.8-0.2-1.1-0.5L13.1,34c-0.6-0.6-0.6-1.5-0.1-2
	c1.1-1.1,1.7-1.6,2.9-2.7c0.2-0.2,0.6-0.3,0.9-0.3h0.1c0.4,0,0.7,0.2,1,0.5l0.1,0.1c0.5,0.6,0.5,1.5-0.1,2c-1.2,1.1-1.8,1.7-2.9,2.7
	C15,34.5,14.7,34.6,14.3,34.6L14.3,34.6z M11.3,31.8c-0.4,0-0.8-0.2-1-0.5C10,31,9.8,30.6,9.8,30.2c0-0.3,0.1-0.6,0.4-0.8
	c0.7-0.7,1.1-1,1.8-1.7c0.2-0.2,0.6-0.3,0.9-0.3c0.4,0,0.8,0.2,1.1,0.5s0.4,0.7,0.4,1.1s-0.1,0.7-0.4,1c-0.7,0.7-1.1,1-1.8,1.7
	C12,31.9,11.7,32,11.4,32C11.5,31.8,11.4,31.8,11.3,31.8z M38.1,28.7c-0.1-0.1-0.2-0.2-0.3-0.3c-3.7-3.2-5.8-4.8-9.9-8.2
	c-0.1-0.1-0.2-0.1-0.3-0.1c-0.1,0-0.1,0-0.2,0.1c-1.4,0.8-2.8,1.2-4.1,1.2c-1.1,0-2-0.3-2.9-0.8c-0.1-0.1-0.2-0.2-0.2-0.3
	c0-0.1,0.1-0.3,0.2-0.3c2.3-1.2,3.4-1.8,5.6-3c0.3-0.1,0.6-0.2,0.9-0.2c0.2,0,0.4,0,0.6,0.1c1.3,0.4,2,0.7,3.3,1.1
	c0.6,0.2,1.2,0.3,1.8,0.3c0.7,0,1.3-0.1,2-0.4l1.1-0.4c2.3,3.6,3.4,5.4,5.4,8.8c-1.2,1.1-1.8,1.6-3,2.7V28.7z M7,27.9
	c-1.2-0.6-1.9-1-3.1-1.6c0.9-5.8,1.7-8.8,3.7-14.5c2.4,1.8,3.7,2.7,6.4,4.7l-0.4,0.6C10.7,21.3,9.2,23.7,7,27.9z M43.1,27.7
	c-2.3-4.2-3.8-6.5-6.5-10.8l-0.4-0.7c2.6-2,3.9-2.9,6.3-4.7c1.9,5.7,2.8,8.7,3.7,14.5C45,26.7,44.3,27,43.1,27.7z"/>
</svg>
