<?xml version="1.0" encoding="utf-8"?>
<!-- Generator: Adobe Illustrator 23.0.0, SVG Export Plug-In . SVG Version: 6.00 Build 0)  -->
<svg version="1.0" id="Layer_1" xmlns="http://www.w3.org/2000/svg" xmlns:xlink="http://www.w3.org/1999/xlink" x="0px" y="0px"
	 viewBox="0 0 50 50" enable-background="new 0 0 50 50" xml:space="preserve">
<path fill="#000223" fill-opacity="0.9" d="M44.4,18.3c-1.4-3.7-3.7-6.8-6.8-9.2C34.2,6.6,30.4,5.3,26.3,5c-1.9-0.1-3.9,0.1-5.8,0.5
	c-1.3,0.3-2.6,0.7-3.8,1.4C16.7,7,16.6,7,16.6,7c0,0,0,0,0,0c-0.1,0-0.2,0.1-0.4,0.1c-4,2-7,5-9,9c-1,1.9-1.7,4-2,6.2
	c-0.1,0.5-0.1,1-0.2,1.4c0,1.1,0,2.1,0,3.2c0.2,0.5,0.2,0.9,0.2,1.4c0.3,1.8,0.8,3.5,1.5,5.2c1.2,2.6,2.8,4.9,4.9,6.8
	c2,1.8,4.3,3.2,6.9,4.1c0,0,0.1,0,0.1,0c0.7,0,1.3,0,1.9-0.4c0.7-0.5,1-1.2,1.1-1.9c0.2-1.5,0.3-3,0.6-4.5c0.2-0.7,0.4-1.4,0.6-2.1
	c0,0,0,0,0,0c0.3-0.7,0.6-1.5,0.9-2.2c0.1-0.1,0.1-0.2,0.2-0.3c0.8-1.5,1.6-2.9,2.7-4.1c1.7-1.9,3.6-3.5,5.8-4.7
	c1.2-0.7,2.5-1.2,3.8-1.6c0.1,0,0.2,0,0.2,0c1.1-0.3,2.3-0.5,3.4-0.7c0.7-0.1,1.4-0.1,2.1-0.2c1.7-0.3,2.6-1.1,2.5-3
	C44.5,18.5,44.4,18.4,44.4,18.3z"/>
<path opacity="0.4" fill="#FFC000" d="M22.8,12.5c0.1,0.1,0.1,0.1,0.2,0.1c1,0.1,2,0.2,2.9,0.5c3.2,1,5.8,2.9,7.9,5.4
	c0.3,0.4,0.3,0.5-0.1,0.9c-2.8,2.8-5.6,5.6-8.4,8.4c-0.1,0.1-0.2,0.3-0.2,0.4c-0.1,0.3-0.3,0.7-0.6,0.8c-0.4,0.2-0.4,0.2-0.2,0.7
	c0,0.1,0.1,0.1,0.1,0.1c0.2,0.6,0.5,1.2,0.8,1.8c0,0.1,0.1,0.2,0.2,0.2c0.7,0.2,1.2,0.6,1.6,1.1c1.1,1.1,1.7,2.5,2.1,4
	c0.1,0.4-0.1,0.5-0.5,0.5c-3.1,0-6.2,0-9.3,0c-0.4,0-0.5-0.2-0.5-0.5c0.3-1.3,0.8-2.6,1.8-3.6c0.1-0.2,0.4-0.4,0.4-0.5
	c0-0.2-0.2-0.4-0.3-0.7c-0.1-0.2-0.2-0.2-0.4-0.2c-0.9,0.1-1.8,0-2.7-0.2c-0.2-0.1-0.4-0.2-0.4-0.5c-0.1-0.7-0.2-1.5-0.4-2.2
	c-0.1-0.5-0.1-1-0.6-1.4c-0.2-0.2-0.2-0.4,0-0.6c0.2-0.2,0.4-0.4,0.7-0.7c0.4-0.3,0.6-0.7,0.6-1.2c0-0.5,0.2-1.1,0.4-1.6
	c1.3-3.6,2.5-7.1,3.8-10.7c0.1-0.2,0.2-0.3,0.3-0.4C22.1,12.5,22.5,12.5,22.8,12.5z"/>
<g>
	<g id="Cleopatra">
		<path opacity="0.1" fill="#FFC000" enable-background="new    " d="M16.1,27.6c0.5,0.4,0.5,0.9,0.6,1.4c0.1,0.7,0.2,1.5,0.4,2.2
			c0,0.2,0.1,0.4,0.4,0.5c0.9,0.2,1.8,0.4,2.7,0.2c0.2-0.1,0.4,0,0.4,0.2c0.1,0.2,0.3,0.5,0.3,0.7s-0.2,0.4-0.4,0.5
			c-0.9,1-1.5,2.3-1.8,3.6c-0.1,0.4,0.1,0.5,0.5,0.5c3.1,0,6.2,0,9.3,0c0.4,0,0.5-0.2,0.5-0.5c-0.3-1.5-1-2.9-2.1-4
			c-0.5-0.5-1-0.8-1.6-1.1c-0.1-0.1-0.1-0.1-0.2-0.2c-0.3-0.6-0.5-1.2-0.8-1.8c0-0.1-0.1-0.1-0.1-0.1c-0.2-0.4-0.2-0.4,0.2-0.7
			c0.3-0.2,0.5-0.5,0.6-0.8c0.1-0.2,0.1-0.3,0.2-0.4c2.8-2.8,5.6-5.6,8.4-8.4C34,19,34,19,33.7,18.6c-2.1-2.5-4.7-4.4-7.9-5.4
			c-1-0.3-1.9-0.5-2.9-0.5c-0.1,0-0.1-0.1-0.2-0.1c-0.3,0-0.6,0-0.9,0c-0.1,0.1-0.2,0.2-0.3,0.4c-1.3,3.6-2.5,7.1-3.8,10.7
			c-0.2,0.5-0.3,1-0.4,1.6c-0.1,0.4-0.3,0.8-0.6,1.2c-0.2,0.2-0.5,0.4-0.7,0.7C16,27.1,16,27.4,16.1,27.6z"/>
		<g>
			<path fill="#FFC000" d="M22.8,12.5c0.1,0.1,0.1,0.1,0.2,0.1c1,0.1,2,0.2,2.9,0.5c3.2,1,5.8,2.9,7.9,5.4c0.3,0.4,0.3,0.5-0.1,0.9
				c-2.8,2.8-5.6,5.6-8.4,8.4c-0.1,0.1-0.2,0.3-0.2,0.4c-0.1,0.3-0.3,0.7-0.6,0.8c-0.4,0.2-0.4,0.2-0.2,0.7c0,0.1,0.1,0.1,0.1,0.1
				c0.2,0.6,0.5,1.2,0.8,1.8c0,0.1,0.1,0.2,0.2,0.2c0.7,0.2,1.2,0.6,1.6,1.1c1.1,1.1,1.7,2.5,2.1,4c0.1,0.4-0.1,0.5-0.5,0.5
				c-3.1,0-6.2,0-9.3,0c-0.4,0-0.5-0.2-0.5-0.5c0.3-1.3,0.8-2.6,1.8-3.6c0.1-0.2,0.4-0.4,0.4-0.5c0-0.2-0.2-0.4-0.3-0.7
				c-0.1-0.2-0.2-0.2-0.4-0.2c-0.9,0.1-1.8,0-2.7-0.2c-0.2-0.1-0.4-0.2-0.4-0.5c-0.1-0.7-0.2-1.5-0.4-2.2c-0.1-0.5-0.1-1-0.6-1.4
				c-0.2-0.2-0.2-0.4,0-0.6c0.2-0.2,0.4-0.4,0.7-0.7c0.4-0.3,0.6-0.7,0.6-1.2c0-0.5,0.2-1.1,0.4-1.6c1.3-3.6,2.5-7.1,3.8-10.7
				c0.1-0.2,0.2-0.3,0.3-0.4C22.1,12.5,22.5,12.5,22.8,12.5z M20.9,17.6c-0.5,1.3-0.9,2.5-1.4,3.9c0.2,0.2,0.5,0.3,0.8,0.5
				c0.7,0.4,1.1,0.9,1.3,1.6c0.1,0.5,0.5,0.8,0.9,1.1c1,0.5,2,1.1,3,1.6c0.1,0.1,0.2,0.1,0.3-0.1c0.5-0.5,1-1,1.5-1.5
				c-0.1,0,2.4-2.3,2.5-2.5c0.2-0.2,0.4-0.4,0.7-0.7C27.4,19.7,24.2,18.4,20.9,17.6z M18.3,24.5c0,1.2-0.4,2.1-1.3,2.7
				c0.5,0.4,0.4,1,0.5,1.6s0.2,1.2,0.3,1.8c0,0.1,0.1,0.2,0.2,0.2c1.8,0.4,3.4,0.2,4.9-0.7c0.3-0.2,0.4-0.5,0.3-0.8
				c-0.1-0.1-0.1-0.1-0.1-0.1c-0.1-0.4,0-0.5,0.4-0.6c0.3-0.1,0.5-0.1,0.7-0.5C22.3,26.8,20.3,25.7,18.3,24.5z M31,17
				c-1.6-1.5-3.5-2.5-5.6-3.1c-1-0.2-1.9-0.4-3-0.5c-0.2,0-0.2,0-0.3,0.2c-0.2,0.5-0.4,1-0.5,1.6c0.2,0.1,0.5,0.1,0.7,0.2
				c3.3,1,6.3,2.4,9.3,3.9l0.1,0.1c0.7,0.4,0.7,0.4,1.3-0.4C32.4,18.3,31.7,17.6,31,17z M22.7,36.6c0.1,0,0.1-0.1,0.2-0.1
				c0.8-1.3,2.2-2.1,3.7-2.5c0.1,0,0.1-0.1,0.2-0.1c-0.3-0.4-1-1-1.6-1.2c-0.2,0.8-0.8,1.4-1.6,1.6c-0.8,0.2-1.6-0.1-2.1-0.7
				c-0.6,0.4-1.5,1.9-1.8,3.1C20.7,36.6,21.7,36.6,22.7,36.6z M22,33c0.4,0.5,1.1,0.7,1.6,0.4c0.6-0.3,0.8-0.9,0.7-1.5
				c-0.1-0.4-0.4-0.8-0.5-1.3c-0.7,0.5-1.5,0.8-2.4,1.1C21.6,32.1,21.8,32.5,22,33z M27.3,34.6c-1.4,0.3-2.6,0.8-3.5,2
				c1.5,0,2.8,0,4.4,0C27.8,35.9,27.6,35.3,27.3,34.6z M18.6,23.7c0.1,0.1,0.2,0.1,0.2,0.2c1.8,1.1,3.6,2.1,5.4,3.2
				c0.4,0.2,0.4,0.2,0.6-0.2c-0.5-0.3-1-0.5-1.5-0.8c-0.5-0.3-1-0.5-1.5-0.8c-0.5-0.3-0.9-0.8-1.1-1.3c-0.2-0.6-0.6-1-1.2-1.3
				c-0.2-0.1-0.4-0.2-0.5-0.3C18.9,22.8,18.8,23.2,18.6,23.7z M29.6,20.1c0.5,0.2,1,0.5,1.4,0.8c0.2-0.2,0.5-0.5,0.7-0.7
				c-0.5-0.2-1-0.5-1.5-0.8C30,19.6,29.8,19.9,29.6,20.1z M21.3,15.9c-0.1,0.3-0.2,0.6-0.3,0.9c0.5,0.1,1,0.2,1.5,0.4
				c0.1,0,0.2-0.1,0.2-0.1c0.1-0.2,0.2-0.4,0.4-0.7C22.5,16.2,21.9,16.1,21.3,15.9z M26.8,18.7c0.1,0.1,0.1,0.1,0.2,0
				c0.2-0.2,0.3-0.4,0.5-0.5c-0.5-0.2-0.9-0.4-1.4-0.6c-0.1,0-0.1,0-0.2,0.1c-0.2,0.2-0.3,0.4-0.5,0.5
				C25.9,18.3,26.3,18.5,26.8,18.7z M23.8,16.6c-0.1,0.3-0.2,0.5-0.4,0.8c0.4,0.1,0.7,0.2,1.1,0.4c0.1,0,0.1,0,0.2-0.1
				c0.2-0.1,0.3-0.3,0.5-0.5C24.7,17,24.3,16.8,23.8,16.6z M29.5,19c-0.4-0.2-0.8-0.4-1.2-0.5c-0.2,0.2-0.4,0.4-0.5,0.7
				c0.4,0.2,0.8,0.4,1.2,0.6C29,19.5,29.2,19.3,29.5,19z"/>
			<path opacity="0.5" fill="#7C6427" enable-background="new    " d="M31.7,20.2c-0.2,0.2-0.5,0.5-0.7,0.7
				c-0.5-0.2-0.9-0.5-1.4-0.8c0.2-0.2,0.4-0.5,0.6-0.7C30.7,19.6,31.2,19.9,31.7,20.2z M23,16.4c-0.5-0.2-1.1-0.3-1.6-0.5
				c-0.1,0.3-0.2,0.6-0.3,0.9c0.5,0.1,1,0.2,1.5,0.4c0.1,0,0.2-0.1,0.2-0.1C22.8,16.9,22.9,16.6,23,16.4z M25.4,18.1
				c0.5,0.2,0.9,0.4,1.4,0.6c0.1,0.1,0.1,0.1,0.2,0c0.2-0.2,0.3-0.4,0.5-0.5c-0.5-0.2-0.9-0.4-1.4-0.6c-0.1,0-0.1,0-0.2,0.1
				C25.7,17.8,25.6,17.9,25.4,18.1z M25.2,17.1c-0.5-0.2-0.9-0.3-1.4-0.5c-0.1,0.3-0.2,0.5-0.4,0.8c0.4,0.1,0.7,0.2,1.1,0.4
				c0.1,0,0.1,0,0.2-0.1C24.8,17.5,25,17.3,25.2,17.1z M28.9,19.6c0.2-0.2,0.4-0.4,0.6-0.7c-0.4-0.2-0.8-0.4-1.2-0.5
				c-0.2,0.2-0.4,0.4-0.5,0.7C28.1,19.3,28.5,19.5,28.9,19.6z"/>
		</g>
		<path opacity="0.5" fill="#7C6427" enable-background="new    " d="M23.4,26.1c-0.5-0.2-1-0.5-1.5-0.8c-0.5-0.3-0.9-0.8-1.1-1.3
			c-0.2-0.6-0.6-1-1.2-1.3c-0.2-0.1-0.4-0.2-0.5-0.3c-0.2,0.5-0.4,1-0.5,1.5c0.1,0.1,0.2,0.1,0.2,0.2c1.8,1.1,3.6,2.1,5.4,3.2
			c0.4,0.2,0.4,0.2,0.6-0.2C24.4,26.6,23.9,26.4,23.4,26.1"/>
	</g>
	<g>
		<path opacity="0.5" fill="#FFC000" enable-background="new    " d="M24.5,29.2c0.2,0.3,0.3,0.6,0.3,1c0,0.3-0.2,0.7-0.4,1
			c-0.1,0.2-0.3,0.3-0.4,0.4l1.1,0c0,0,0,0,0,0c0,0,0.1,0,0.1,0c0,0,0,0.1,0,0.1l0,0.3c0,0,0,0.1,0,0.1s-0.1,0-0.1,0c0,0,0,0,0,0
			L23.7,32l0.1,2.8c0,0,0,0.1-0.1,0.1c-0.1,0-0.3,0.1-0.5,0.1c-0.2,0-0.4-0.1-0.5-0.1c-0.1,0-0.1-0.1-0.1-0.2l0.5-2.7l-1.3,0
			c0,0,0,0,0,0c0,0-0.1,0-0.1,0c0,0,0-0.1,0-0.1l0-0.3c0,0,0-0.1,0-0.1c0,0,0.1,0,0.1,0c0,0,0,0,0,0l1,0.1c-0.1-0.1-0.3-0.3-0.4-0.5
			c-0.2-0.3-0.3-0.7-0.3-1c0-0.4,0.2-0.7,0.4-0.9c0.2-0.3,0.6-0.4,1-0.4C24,28.7,24.3,28.8,24.5,29.2z"/>
		<path opacity="0.8" fill="#FFFFFF" d="M24.5,29.2c0.2,0.3,0.3,0.6,0.3,1c0,0.3-0.2,0.7-0.4,1c-0.1,0.2-0.3,0.3-0.4,0.4l1.1,0
			c0,0,0,0,0,0c0,0,0.1,0,0.1,0c0,0,0,0.1,0,0.1l0,0.3c0,0,0,0.1,0,0.1s-0.1,0-0.1,0c0,0,0,0,0,0L23.7,32l0.1,2.8c0,0,0,0.1-0.1,0.1
			c-0.1,0-0.3,0.1-0.5,0.1c-0.2,0-0.4-0.1-0.5-0.1c-0.1,0-0.1-0.1-0.1-0.2l0.5-2.7l-1.3,0c0,0,0,0,0,0c0,0-0.1,0-0.1,0
			c0,0,0-0.1,0-0.1l0-0.3c0,0,0-0.1,0-0.1c0,0,0.1,0,0.1,0c0,0,0,0,0,0l1,0.1c-0.1-0.1-0.3-0.3-0.4-0.5c-0.2-0.3-0.3-0.7-0.3-1
			c0-0.4,0.2-0.7,0.4-0.9c0.2-0.3,0.6-0.4,1-0.4C24,28.7,24.3,28.8,24.5,29.2z M24.2,30.3c0-0.5-0.3-0.9-0.7-0.9
			c-0.3,0-0.6,0.2-0.7,0.6c0,0,0,0.3,0,0.4c0,0.4,0.3,0.9,0.6,1.1C23.8,31.3,24.2,30.8,24.2,30.3z"/>
	</g>
</g>
<path opacity="0.8" fill="#00063A" d="M45,20.6c-0.1-0.7-0.2-1.3-0.5-1.9c0.1,1.9-0.8,2.7-2.5,3c-0.7,0.1-1.4,0.1-2.1,0.2
	c-1.2,0.1-2.3,0.4-3.4,0.7c-0.1,0-0.2,0-0.2,0c-1.3,0.5-2.6,1-3.8,1.6c-2.2,1.2-4.2,2.8-5.8,4.7l0,0c-1.1,1.2-2,2.6-2.7,4.1
	c-0.1,0.1-0.1,0.2-0.2,0.3c-0.3,0.7-0.6,1.5-0.9,2.2c-0.2,0.7-0.4,1.4-0.6,2.1c-0.3,1.5-0.3,3-0.6,4.5c-0.1,0.7-0.4,1.4-1.1,1.9
	c-0.6,0.4-1.3,0.4-1.9,0.4c0.5,0.3,1.2,0.4,1.7,0.5c0.5,0,1.1,0,1.6,0c0,0,0.1-0.1,0.1-0.1c1-0.2,2-0.6,2.8-1.2
	c1-0.8,1.8-1.8,2.7-2.6c1.3-1.3,2.5-2.5,3.8-3.8c0,0,0,0,0.1,0c4-4,8-7.9,11.9-11.9C44.6,24,45.1,22.4,45,20.6z"/>
<path opacity="0.1" fill="#FFFFFF" d="M20.3,45c-0.6-0.2-1.2-0.3-1.7-0.5c0.7,0,1.3,0,1.9-0.4c0.7-0.5,1-1.2,1.1-1.9
	c0.2-1.5,0.3-3,0.6-4.5c0.2-0.7,0.4-1.4,0.6-2.1c0.3-0.7,0.6-1.5,0.9-2.2c0.1-0.1,0.1-0.2,0.2-0.3c0.8-1.5,1.6-2.9,2.7-4.1
	c0.1,0.1,0.1,0.2,0,0.3c0,0.3-0.1,0.6-0.1,0.9c-0.1,1.4,0.1,2.8,0.7,4.1c0.5,1,1.2,1.9,2.2,2.4c0.6,0.3,1.3,0.5,1.9,0.7
	c-1.3,1.3-2.5,2.5-3.8,3.8c-0.9,0.9-1.7,1.8-2.7,2.6c-0.8,0.7-1.7,1.1-2.8,1.2c0,0-0.1,0-0.1,0.1C21.4,45,20.9,45,20.3,45z"/>
<path opacity="0.1" fill="#FFFFFF" d="M20.8,34.6c-0.1-0.1-0.3-0.1-0.3-0.2c-0.1,0-0.1,0-0.2,0.1c0-0.1-0.1-0.1-0.1-0.2
	c-0.9-0.6-1.7-1.3-2.5-2c0,0,0-0.1,0-0.1c-0.1-0.1-0.2-0.2-0.3-0.3c-0.9-1-1.7-2.1-2.3-3.2c-1.5-2.8-2.1-5.8-2.2-9
	c0-0.7,0-1.5,0-2.2c0,0,0-0.1,0.1-0.1c0.1-2.4,0.6-4.7,1.6-6.9c0.5-1.1,1-2.1,1.7-3.1c0.1-0.1,0.2-0.2,0.2-0.4
	c-0.1,0-0.2,0.1-0.4,0.1c-4,2-7,5-9,9c-1,1.9-1.7,4-2,6.2c-0.1,0.5-0.1,1-0.2,1.4c0,1.1,0,2.1,0,3.2c0.2,0.5,0.2,0.9,0.2,1.4
	c0.3,1.8,0.8,3.5,1.5,5.2c1.2,2.6,2.8,4.9,4.9,6.8c2,1.8,4.3,3.2,6.9,4.1c0,0,0.1,0,0.1,0c0.7,0,1.3,0,1.9-0.4
	c0.7-0.5,1-1.2,1.1-1.9c0.2-1.5,0.3-3,0.6-4.5c0.2-0.7,0.4-1.4,0.6-2.1C22.1,35.3,21.4,35,20.8,34.6z"/>
</svg>
