<?xml version="1.0" encoding="utf-8"?>
<!-- Generator: Adobe Illustrator 23.0.0, SVG Export Plug-In . SVG Version: 6.00 Build 0)  -->
<svg version="1.0" id="_x30_" xmlns="http://www.w3.org/2000/svg" xmlns:xlink="http://www.w3.org/1999/xlink" x="0px" y="0px"
	 viewBox="0 0 50 50" enable-background="new 0 0 50 50" xml:space="preserve">
<path fill="#FFFFFF" d="M20.8,33.1c-0.5,0-0.9,0-1.3,0c-1.4,0-2.4-1-2.4-2.4c0-3.6,0-7.1,0-10.7c0-2.1,1.5-3.5,3.6-3.5
	c2.9,0,5.8,0,8.6,0c2.1,0,3.6,1.5,3.6,3.5c0,3.6,0,7.2,0,10.8c0,1.4-0.9,2.3-2.3,2.3c-0.4,0-0.9,0-1.4,0c0,0.3,0,0.5,0,0.7
	c0,3.1,0,6.1,0,9.2c0,1.3-0.7,2-2,2c-1.5,0-2.9,0-4.4,0c-1.3,0-2-0.7-2-2c0-3,0-6.1,0-9.1C20.8,33.6,20.8,33.4,20.8,33.1z"/>
<path fill="#FFFFFF" d="M24.9,14.9c-2.7,0-5-2.3-4.9-5C20,7.2,22.3,5,25,5c2.7,0,5,2.2,5,5C30,12.7,27.7,15,24.9,14.9z"/>
</svg>
