<?xml version="1.0" encoding="utf-8"?>
<!-- Generator: Adobe Illustrator 23.0.0, SVG Export Plug-In . SVG Version: 6.00 Build 0)  -->
<svg version="1.0" id="follow_x5F_icon" xmlns="http://www.w3.org/2000/svg" xmlns:xlink="http://www.w3.org/1999/xlink" x="0px"
	 y="0px" width="50px" height="50px" viewBox="0 0 50 50" enable-background="new 0 0 50 50" xml:space="preserve">
<path id="head_right_1_" fill="#FFFFFF" d="M25.2,26.4c-5.3,0.1-9.6-4.2-9.7-9.5c-0.1-5.3,4.5-9.6,10.3-9.7c5.8-0.1,10.1,4,9.6,9.4
	v0.1C35,22,30.5,26.3,25.2,26.4z"/>
<path id="body_right_1_" fill="#FFFFFF" d="M24.9,42.9c-4.2-0.1-8.3-1.2-12-3.3c-0.1-0.1-0.2-0.1-0.3-0.2c-1.4-1-1.8-2.9-0.8-4.4
	c1.1-1.7,2.5-3.2,4.1-4.3c2.7-1.9,6-3,9.3-3c5.4,0,10.3,2.8,13.1,7.5c0.1,0.1,0.1,0.2,0.2,0.3c0.3,0.8,0.4,1.6,0.1,2.5
	c-0.3,0.8-0.8,1.5-1.5,1.9C33.3,41.9,29.1,42.9,24.9,42.9L24.9,42.9z"/>
</svg>
