<?xml version="1.0" encoding="utf-8"?>
<!-- Generator: Adobe Illustrator 23.0.0, SVG Export Plug-In . SVG Version: 6.00 Build 0)  -->
<svg version="1.0" id="icon" xmlns="http://www.w3.org/2000/svg" xmlns:xlink="http://www.w3.org/1999/xlink" x="0px" y="0px"
	 width="50px" height="50px" viewBox="0 0 50 50" enable-background="new 0 0 50 50" xml:space="preserve">
<path id="phone_x5F_gallery" fill="#FFFFFF" d="M41.8,42.9H8.2c-3.2,0-5.7-2.6-5.7-5.7V12.8c0-3.2,2.6-5.7,5.7-5.7h33.5
	c3.2,0,5.7,2.6,5.7,5.7v24.3C47.5,40.3,44.9,42.9,41.8,42.9z M15.7,25L15.7,25l-7.2,7.3v4.5h32.9V26.8l-9.7-10L19.5,28.8L15.7,25z
	 M12.8,13.2c-2.3,0-4.2,1.9-4.2,4.2s1.9,4.2,4.2,4.2c2.3,0,4.2-1.9,4.2-4.2l0,0C17,15,15.1,13.2,12.8,13.2z"/>
</svg>
