<?xml version="1.0" encoding="utf-8"?>
<!-- Generator: Adobe Illustrator 23.0.0, SVG Export Plug-In . SVG Version: 6.00 Build 0)  -->
<svg version="1.0" id="follow_x5F_icon" xmlns="http://www.w3.org/2000/svg" xmlns:xlink="http://www.w3.org/1999/xlink" x="0px"
	 y="0px" viewBox="0 0 50 50" enable-background="new 0 0 50 50" xml:space="preserve">
<path fill="#FFFFFF" d="M39.2,26.3c-1.9-2.6-2.9-4.5-3.2-7.7c-0.3-2.4,1.4-6,1.4-6c-6.5,3.8-7.5,9.4-7.6,9.8c0,0,0,0.1,0,0.1
	c0,0,0,0,0-0.1c0,0,2.6-9.7-4.7-18.1c-0.7-0.6-2.2-1.7-2.2-1.7s2.3,10.5-4.2,17.1c-1.2-3.8-5.5-4-7.2-4.2c3.7,10.1-1.5,11.3-4,17.3
	c-1.6,3.8,1.5,12.5,7.4,14.7c-1.7-2.5-1.9-4.8-1.3-7.6c0.5-2,1.5-2.3,1.8-5.4c0.2-2.1-0.8-3.9-0.8-3.9c3.1,0.2,5.2,4.8,5.5,5.7
	c0,0-1.5-7.9,3.6-13c0.5-0.4,1.6-1,1.6-1s-3.3,7.3,4,13.1c0.1-2.2,0.6-4.7,2.2-6.4c0.9-0.9,2.4-1.4,2.4-1.4s-0.4,1.6-0.4,2
	c-0.8,7.6,3.8,8.9,3.2,13.8c-0.1,0.9-0.3,1.8-0.6,2.7c0.2,0,0.3,0,0.4,0c2.2-1.3,4.1-2.8,5.4-4.9C44.5,36.4,42.5,30.6,39.2,26.3z"/>
</svg>
