<?xml version="1.0" encoding="utf-8"?>
<!-- Generator: Adobe Illustrator 23.0.0, SVG Export Plug-In . SVG Version: 6.00 Build 0)  -->
<svg version="1.0" id="Layer_1" xmlns="http://www.w3.org/2000/svg" xmlns:xlink="http://www.w3.org/1999/xlink" x="0px" y="0px"
	 width="50px" height="50px" viewBox="0 0 50 50" enable-background="new 0 0 50 50" xml:space="preserve">
<path fill="#FFFFFF" d="M20.2,42.5c-0.9,0-1.7-0.2-2.3-0.7c-0.7-0.5-1.1-1.2-1.1-1.9c-0.3-2.8-0.4-4.5-0.5-8c0,0,0-0.1,0-0.1
	c0,0,0,0-0.1,0c-3.4-0.1-5-0.3-7.8-0.5c-0.8-0.1-1.5-0.5-2-1.1c-0.5-0.7-0.7-1.5-0.7-2.3c0-3.7,0-5.5,0-9.2c0-0.9,0.2-1.8,0.8-2.4
	c0.5-0.6,1.2-1,1.9-1.1c2.8-0.3,4.4-0.4,7.8-0.5c0,0,0.1,0,0.1,0c0,0,0,0,0-0.1c0.2-3.5,0.3-5.2,0.5-8c0.1-0.8,0.5-1.5,1.2-2
	c0.7-0.5,1.4-0.7,2.3-0.7c3.8,0,5.8,0,9.6,0c1.2,0,1.9,0.4,2.4,0.7c0.4,0.3,1,0.9,1.1,1.9c0.3,2.9,0.4,4.5,0.5,8c0,0,0,0,0,0.1
	c3.4,0.1,5,0.3,7.8,0.5c1,0.1,1.6,0.6,1.9,1.1c0.3,0.5,0.7,1.2,0.7,2.4c0,3.7,0,5.5,0,9.2c0,0.8-0.2,1.6-0.7,2.3
	c-0.5,0.7-1.2,1.1-2,1.2c-2.8,0.3-4.4,0.4-7.8,0.5c0,0-0.1,0-0.1,0c0,0-0.5,8-0.5,8c-0.1,0.7-0.4,1.4-1,1.9
	c-0.6,0.5-1.5,0.8-2.4,0.8C26,42.5,24,42.5,20.2,42.5z"/>
<path d="M46.4,16.3c-0.1-0.2-0.3-0.3-0.4-0.5c-0.5-0.6-1-1-1.8-1.5c-1.2-0.6-1.8-0.6-2.7-0.7c-2-0.2-3.2-0.3-5.2-0.4
	c0-0.5-0.2-2.2-0.2-2.6c-0.1-1.2-0.2-2.3-0.3-3.8c-0.1-1.3-0.8-2.4-1.8-3.1c-1.1-0.8-2.4-1.1-3.8-1.1c-4.1,0-6.2,0-10.4,0
	c-1.4,0-2.8,0.3-3.8,1.1c-1.1,0.8-1.7,1.8-1.8,3.1c-0.1,1.5-0.3,2.6-0.3,3.8c0,0.4-0.2,2.1-0.2,2.6c-2,0.1-3.2,0.2-5.2,0.4
	c-0.8,0.1-1.5,0.1-2.7,0.7C5,14.7,4.5,15.1,4,15.8c-0.1,0.2-0.3,0.3-0.4,0.5c-0.8,1.1-1.1,2.4-1.1,3.8c0,0,0,0,0,0c0,4,0,6,0,9.9
	c0,0,0,0,0,0c0,0,0,0,0,0c0,1.3,0.3,2.6,1,3.7c0.7,1.1,1.9,1.8,3.2,2c2.5,0.3,3.9,0.4,6.9,0.6c0,0.2,0.4,5.3,0.6,7
	c0.1,1.2,0.7,2.3,1.7,3c1.1,0.8,2.4,1.2,3.9,1.2c4.4,0,6,0,10.4,0c1.5,0,2.9-0.4,3.9-1.2c1-0.8,1.6-1.8,1.7-3c0.2-1.7,0.6-6.9,0.6-7
	c2.9-0.2,4.4-0.3,6.9-0.6c1.3-0.1,2.4-0.8,3.2-2c0.7-1.1,1-2.3,1-3.7c0,0,0,0,0,0c0,0,0,0,0,0c0-4,0-6,0-9.9c0,0,0,0,0,0
	C47.5,18.6,47.2,17.3,46.4,16.3z M43.1,27.9C43.1,27.9,43.1,27.9,43.1,27.9c0,0.5-0.1,0.9-0.4,1.3c-0.3,0.3-0.6,0.5-1,0.6
	C39,30,37.3,30,34,30.2c-0.5,0-1,0.2-1.3,0.5c-0.3,0.3-0.5,0.8-0.5,1.3c-0.1,2.6-0.2,4.2-0.3,6c0,0.6-0.1,1.2-0.2,1.9
	c0,0.3-0.1,0.5-0.3,0.8c-0.1,0.1-0.1,0.1-0.2,0.2c-0.3,0.3-0.8,0.4-1.2,0.4c-2,0-3.4,0-4.9,0s-3,0-4.9,0c-0.5,0-0.9-0.1-1.2-0.4
	c-0.1-0.1-0.2-0.1-0.2-0.2c-0.2-0.2-0.3-0.5-0.3-0.8c-0.1-0.7-0.1-1.3-0.2-1.9c-0.1-1.8-0.2-3.4-0.3-6c0-0.5-0.2-1-0.5-1.3
	c-0.3-0.3-0.8-0.5-1.3-0.5c-3.4-0.1-5-0.2-7.8-0.4c-0.4,0-0.8-0.2-1-0.6c-0.3-0.3-0.4-0.8-0.4-1.2c0,0,0,0,0-0.1c0-3.7,0-5.6,0-9.4
	c0,0,0,0,0,0c0-0.5,0-1.4,0.7-1.4c2.9-0.2,4.6-0.3,8.1-0.4c0.1,0,0.1,0,0.2,0c0,0,0,0,0,0c0.2,0,0.4-0.1,0.6-0.2c0,0,0,0,0.1,0
	c0.3-0.2,0.6-0.4,0.8-0.7c0,0,0,0,0,0c0.3-0.4,0.5-0.8,0.5-1.3c0.1-3.5,0.2-5.2,0.4-8c0-0.4,0.2-0.8,0.6-1c0.3-0.2,0.7-0.4,1.2-0.4
	c1,0,1.8,0,2.6,0c0.8,0,1.5,0,2.3,0c0.7,0,1.5,0,2.3,0c0.8,0,1.7,0,2.6,0c0.5,0,0.9,0.1,1.2,0.4c0.3,0.2,0.5,0.6,0.6,1
	c0.2,2.8,0.3,4.5,0.4,8c0,0.5,0.2,0.9,0.5,1.3c0,0,0,0,0,0c0.2,0.3,0.5,0.5,0.8,0.7c0,0,0,0,0.1,0c0.2,0.1,0.4,0.1,0.6,0.2
	c0,0,0,0,0,0c0.1,0,0.1,0,0.2,0c3.5,0.1,5.2,0.2,8.1,0.4c0.7,0.1,0.7,0.9,0.7,1.4C43.1,18.5,43.2,24.2,43.1,27.9z"/>
</svg>
