<?xml version="1.0" encoding="utf-8"?>
<!-- Generator: Adobe Illustrator 23.0.0, SVG Export Plug-In . SVG Version: 6.00 Build 0)  -->
<svg version="1.0" id="Layer_1" xmlns="http://www.w3.org/2000/svg" xmlns:xlink="http://www.w3.org/1999/xlink" x="0px" y="0px"
	 width="50px" height="50px" viewBox="0 0 50 50" enable-background="new 0 0 50 50" xml:space="preserve">
<linearGradient id="rect4006_1_" gradientUnits="userSpaceOnUse" x1="-314.2478" y1="-242.6685" x2="-270.6638" y2="-302.4926" gradientTransform="matrix(0.2216 0 0 -0.8997 82.4436 -219.279)">
	<stop  offset="0" style="stop-color:#6E6E6E"/>
	<stop  offset="0.1597" style="stop-color:#989898"/>
	<stop  offset="0.3309" style="stop-color:#BDBDBD"/>
	<stop  offset="0.5024" style="stop-color:#DADADA"/>
	<stop  offset="0.6721" style="stop-color:#EEEEEE"/>
	<stop  offset="0.8389" style="stop-color:#FBFBFB"/>
	<stop  offset="1" style="stop-color:#FFFFFF"/>
</linearGradient>
<path id="rect4006_2_" fill-rule="evenodd" clip-rule="evenodd" fill="url(#rect4006_1_)" stroke="#BFBFBF" d="M15.1,11.2h4.7
	c0.9,0,1.6,0.8,1.6,1.8v24.1c0,1-0.7,1.8-1.6,1.8h-4.7c-0.9,0-1.6-0.8-1.6-1.8V13.1C13.6,12,14.3,11.2,15.1,11.2z"/>
<linearGradient id="rect5181_1_" gradientUnits="userSpaceOnUse" x1="-318.7607" y1="-242.6685" x2="-275.1767" y2="-302.4926" gradientTransform="matrix(0.2216 0 0 -0.8997 98.4705 -219.279)">
	<stop  offset="0" style="stop-color:#6E6E6E"/>
	<stop  offset="0.1597" style="stop-color:#989898"/>
	<stop  offset="0.3309" style="stop-color:#BDBDBD"/>
	<stop  offset="0.5024" style="stop-color:#DADADA"/>
	<stop  offset="0.6721" style="stop-color:#EEEEEE"/>
	<stop  offset="0.8389" style="stop-color:#FBFBFB"/>
	<stop  offset="1" style="stop-color:#FFFFFF"/>
</linearGradient>
<path id="rect5181_2_" fill-rule="evenodd" clip-rule="evenodd" fill="url(#rect5181_1_)" stroke="#BFBFBF" d="M30.1,11.2h4.7
	c0.9,0,1.6,0.8,1.6,1.8v24.1c0,1-0.7,1.8-1.6,1.8h-4.7c-0.9,0-1.6-0.8-1.6-1.8V13.1C28.6,12,29.3,11.2,30.1,11.2z"/>
</svg>
