<?xml version="1.0" encoding="utf-8"?>
<!-- Generator: Adobe Illustrator 23.0.0, SVG Export Plug-In . SVG Version: 6.00 Build 0)  -->
<svg version="1.0" id="Layer_1" xmlns="http://www.w3.org/2000/svg" xmlns:xlink="http://www.w3.org/1999/xlink" x="0px" y="0px"
	 viewBox="0 0 50 50" enable-background="new 0 0 50 50" xml:space="preserve">
<path fill="#FFFFFF" d="M26,5.7c1,0.1,1.9,0.2,2.9,0.3c2.5,0.4,4.7,0.9,6.7,1.9C35.9,8,36.1,8,36.4,7.8c0.7-0.8,1.7-1.5,2.5-2.2
	c0.5-0.4,1-0.7,1.6-0.6c0.6,0.1,0.8,0.5,0.7,1C41,9.7,40.9,13.4,41,17.1c0,0.9-0.7,1.6-1.5,1.5c-3.7-0.4-7.4-0.8-11.1-1.2
	c-0.6-0.1-0.9-0.3-1.1-0.8c-0.2-0.5,0-0.9,0.5-1.2c0.8-0.7,1.5-1.3,2.4-2.1c-1-0.4-2.1-0.7-3.2-0.9c-4-0.5-7.6,0.2-10.3,2.4
	c-2.5,1.9-3.7,4.5-3.9,7.9c-0.1,0.7,0,1.3,0,2c0,0.9-0.5,1.3-1.2,1.2c-1.5-0.2-2.9-0.5-4.5-0.7c-0.5-0.1-0.8-0.5-1-0.9
	C6,24,5.9,23.6,5.9,23.1c0-0.1,0-0.3,0-0.4c-0.1-3,0.3-6,1.3-8.4C9.5,8.8,14,6.5,20.9,5.8c0.9-0.1,1.7-0.1,2.6-0.2
	C24.2,5.7,25.1,5.7,26,5.7z M43.9,25.1c-0.2-0.6-0.5-0.9-1-0.9c-1.3-0.2-2.7-0.4-4.1-0.6c-0.9-0.1-1.5,0.4-1.6,1.3
	c-0.1,0.6-0.1,1.2-0.2,1.8c-0.6,3.2-2,5.8-4.4,7.8c-2.7,2.2-6,3-9.6,2.6c-0.9-0.1-2-0.4-2.8-0.8c0.1-0.1,0.2-0.2,0.3-0.3
	c0.6-0.6,1.1-1.2,1.7-1.8c0.4-0.4,0.6-0.8,0.4-1.2c-0.2-0.5-0.6-0.8-1-0.8c-0.1,0-0.1,0-0.2,0c-1.3-0.2-2.6-0.3-3.9-0.5
	c-2.3-0.3-4.5-0.5-6.7-0.8c-0.8-0.1-1.3,0.6-1.2,1.3c0,0.2,0,0.4,0.1,0.6c0.2,1.2,0.3,2.5,0.4,3.7c0.2,2.6,0.4,5.1,0.5,7.6
	c0,0.6,0.2,0.9,0.7,0.9c0.5,0.1,0.9-0.2,1.3-0.6c0.8-0.8,1.4-1.5,2.2-2.4c0.2-0.3,0.4-0.3,0.7-0.2c2.2,1.1,4.7,1.7,7.4,1.9
	c4,0.3,7.9-0.3,11.2-1.9c5.4-2.6,8.1-7,9.6-13.5c0.2-0.8,0.3-1.5,0.4-2.3C43.8,25.9,43.8,25.5,43.9,25.1z"/>
</svg>
