<?xml version="1.0" encoding="utf-8"?>
<!-- Generator: Adobe Illustrator 23.0.0, SVG Export Plug-In . SVG Version: 6.00 Build 0)  -->
<svg version="1.0" id="Layer_1" xmlns="http://www.w3.org/2000/svg" xmlns:xlink="http://www.w3.org/1999/xlink" x="0px" y="0px"
	 viewBox="0 0 50 50" enable-background="new 0 0 50 50" xml:space="preserve">
<g id="Sphinx">
	<path opacity="0.1" fill="#FFC000" enable-background="new    " d="M6.7,45c-0.4-0.2-0.4-0.6-0.4-1c0.2-2.7,2.3-4.8,5.1-4.9
		c0.3,0,0.5-0.1,0.5-0.4c1-3.3,2-6.5,3-9.8c0.4-1.2,1-2.3,1.9-3.2c0.2-0.2,0.2-0.3,0.1-0.6c-0.1-0.3-0.3-0.6-0.4-0.9
		c-0.3-0.8-0.8-1.4-1.4-1.9c-1.6-1.2-2.3-2.9-2.1-4.9c0-0.2,0-0.4,0.1-0.7c0.7-1.9,1.2-3.9,2-5.7c1.8-3.6,4.8-5.6,8.7-6
		c5.3-0.6,10,2.5,11.7,7.5c0.5,1.5,1.1,2.9,1.4,4.4c0.5,2.1-0.2,3.9-1.9,5.2c-1,0.8-1.5,1.9-1.9,3.1c0,0.1,0,0.2,0.1,0.3
		c1.3,1.3,1.9,2.9,2.4,4.7c0.8,2.8,1.7,5.6,2.5,8.4c0.1,0.3,0.2,0.4,0.6,0.4c2.6,0.2,4.7,2.2,4.9,4.8c0,0.4,0,0.8-0.5,1.1
		C31.1,45,18.9,45,6.7,45z"/>
	<path fill="#FFC000" d="M6.7,45c-0.4-0.2-0.4-0.6-0.4-1c0.2-2.7,2.3-4.8,5.1-4.9c0.3,0,0.5-0.1,0.5-0.4c1-3.3,2-6.5,3-9.8
		c0.4-1.2,1-2.3,1.9-3.2c0.2-0.2,0.2-0.3,0.1-0.6c-0.1-0.3-0.3-0.6-0.4-0.9c-0.3-0.8-0.8-1.4-1.4-1.9c-1.6-1.2-2.3-2.9-2.1-4.9
		c0-0.2,0-0.4,0.1-0.7c0.7-1.9,1.2-3.9,2-5.7c1.8-3.6,4.8-5.6,8.7-6c5.3-0.6,10,2.5,11.7,7.5c0.5,1.5,1.1,2.9,1.4,4.4
		c0.5,2.1-0.2,3.9-1.9,5.2c-1,0.8-1.5,1.9-1.9,3.1c0,0.1,0,0.2,0.1,0.3c1.3,1.3,1.9,2.9,2.4,4.7c0.8,2.8,1.7,5.6,2.5,8.4
		c0.1,0.3,0.2,0.4,0.6,0.4c2.6,0.2,4.7,2.2,4.9,4.8c0,0.4,0,0.8-0.5,1.1C31.1,45,18.9,45,6.7,45z M14.4,35.2c0.2,0,0.4,0,0.5,0
		c2.1,0,4.2,0,6.3,0c0.5,0,0.8,0.3,0.8,0.7c0,0.4-0.3,0.6-0.8,0.7c-0.7,0-1.3,0-2,0c-1.7,0-3.3,0-5,0c-0.1,0-0.3,0.1-0.4,0.2
		c-0.3,0.8-0.5,1.6-0.7,2.4c0.2,0,0.3,0,0.5,0c1.2,0,2.4,0,3.6,0c2.4,0,4.3,1.4,5.1,3.5c0.1,0.3,0.2,0.7,0.3,1c1.5,0,3,0,4.5,0
		c0.1,0,0.2-0.2,0.2-0.3c0.5-2.4,2.4-4.1,4.8-4.2c1.4-0.1,2.9,0,4.3,0c0.2,0,0.3,0,0.5,0c-0.2-0.8-0.5-1.4-0.6-2.1
		c-0.1-0.3-0.2-0.5-0.6-0.5c-2.2,0-4.4,0-6.6,0c-0.6,0-0.9-0.2-0.9-0.6c0-0.4,0.3-0.7,0.9-0.7c0.1,0,0.1,0,0.2,0c2,0,4,0,6,0
		c0.2,0,0.3,0,0.5,0c-0.2-0.7-0.4-1.3-0.6-1.9c-0.9,0-1.8,0-2.6,0c-0.3,0-0.5-0.1-0.7-0.3c-0.3-0.5,0.1-1,0.6-1c0.8,0,1.5,0,2.3,0
		c-0.2-0.7-0.4-1.4-0.6-2.1c-0.7-2.5-2.2-4.2-4.6-5.2c-1.2-0.5-1.9-1.4-2.2-2.6c-0.1-0.3-0.1-0.5-0.2-0.9c-0.2,3.5-0.3,6.8-0.5,10.2
		c0,0.9-0.7,1.6-1.5,1.6c-0.9,0-1.5-0.6-1.6-1.6c-0.1-1.7-0.2-3.4-0.2-5.1c-0.1-1.7-0.2-3.4-0.3-5.1c0-0.1-0.1-0.2-0.1-0.3
		c-0.2,2-1.2,3.2-2.9,3.9c-1.1,0.4-1.9,1.2-2.7,2.1c-1.2,1.4-1.5,3.2-2,4.9c0,0,0,0,0,0.1c0.1,0,0.3,0,0.4,0c0.5,0,1.1,0,1.6,0
		c0.2,0,0.5,0.2,0.6,0.4c0.1,0.2,0,0.5-0.2,0.7c-0.1,0.1-0.4,0.2-0.6,0.2c-0.7,0-1.4,0-2,0c-0.2,0-0.3,0-0.4,0.2
		C14.7,34.1,14.6,34.6,14.4,35.2z M23.4,6.5c0,0-0.1,0-0.1,0C22,6.7,20.7,7.2,19.6,8c-0.1,0.1-0.1,0.2-0.1,0.4
		c0.3,2.6,0.6,5.2,1,7.8c0.3,2.3,2.3,4,4.6,4c2.3,0,4.3-1.7,4.6-4c0.4-2.6,0.7-5.2,1-7.8c0-0.1-0.1-0.3-0.2-0.4
		c-0.5-0.3-0.9-0.6-1.4-0.8c-0.7-0.4-1.5-0.6-2.4-0.7c-0.1,0.4-0.1,0.8-0.1,1.1c-0.1,0.7-0.3,1.5-0.8,2.1c-0.4,0.5-1,0.6-1.4,0
		c-0.2-0.3-0.4-0.7-0.5-1.1C23.7,7.9,23.6,7.2,23.4,6.5z M42.3,43.7c0-0.1,0-0.2-0.1-0.4c-0.5-1.7-1.9-2.9-3.7-2.9c-2,0-4.1,0-6.1,0
		c-1.8,0-3.2,1.2-3.7,2.8c0,0.1-0.1,0.3-0.1,0.4c0.9,0,1.7,0,2.6,0c0-0.4,0-0.8,0-1.2c0-0.5,0.3-0.8,0.7-0.7c0.4,0,0.6,0.3,0.6,0.8
		c0,0.4,0,0.8,0,1.2c0.7,0,1.3,0,2,0c0-0.4,0-0.8,0-1.2c0-0.5,0.3-0.8,0.7-0.8c0.4,0,0.6,0.3,0.6,0.8c0,0.4,0,0.8,0,1.2
		c0.7,0,1.3,0,2,0c0-0.4,0-0.8,0-1.2c0-0.5,0.3-0.8,0.6-0.8c0.4,0,0.7,0.3,0.7,0.8c0,0.4,0,0.8,0,1.2C40.2,43.7,41.2,43.7,42.3,43.7
		z M18.1,43.7c0.6,0,1.1,0,1.6,0c0.5,0,1.1,0,1.6,0c-0.2-1.8-1.9-3.2-3.8-3.3c-2,0-4,0-6,0c-1.7,0-3.1,1-3.6,2.6
		c-0.1,0.2-0.1,0.5-0.2,0.7c0.9,0,1.7,0,2.6,0c0-0.4,0-0.8,0-1.2c0-0.2,0.1-0.5,0.3-0.6c0.4-0.3,1,0,1,0.6c0,0.4,0,0.8,0,1.2
		c0.7,0,1.3,0,2,0c0-0.4,0-0.8,0-1.1c0-0.5,0.3-0.8,0.7-0.8c0.4,0,0.6,0.3,0.7,0.8c0,0.4,0,0.7,0,1.1c0.7,0,1.3,0,1.9,0
		c0-0.1,0-0.1,0-0.1c0-0.3,0-0.7,0-1c0-0.5,0.2-0.8,0.6-0.8c0.4,0,0.7,0.3,0.7,0.8C18.1,42.9,18.1,43.3,18.1,43.7z M29,20
		C29,20,29,20.1,29,20c2.1,0,4.1,0,6.1,0c0.1,0,0.2,0,0.3-0.1c0.2-0.4,0.3-0.8,0.4-1.1c-0.1,0-0.1-0.1-0.2-0.1c-1.8,0-3.6,0-5.4,0
		c-0.1,0-0.2,0.1-0.3,0.1C29.6,19.3,29.3,19.6,29,20z M21.3,20.1c-0.3-0.4-0.7-0.7-0.9-1.1c-0.1-0.2-0.3-0.3-0.5-0.3
		c-1.5,0-3,0-4.5,0c-0.3,0-0.6,0-0.9,0c0.1,0.4,0.2,0.7,0.3,1c0.1,0.3,0.2,0.4,0.5,0.4c1.5,0,3,0,4.6,0
		C20.3,20.1,20.8,20.1,21.3,20.1z M35.8,17.4c-0.1-0.4-0.2-0.7-0.3-1c-0.1-0.2-0.2-0.3-0.4-0.3c-0.7,0-1.4,0-2.1,0
		c-0.7,0-1.4,0-2.1,0c-0.1,0.4-0.2,0.9-0.3,1.3C32.5,17.4,34.1,17.4,35.8,17.4z M14.4,17.4c1.7,0,3.4,0,5,0
		c-0.1-0.4-0.2-0.8-0.3-1.3c-1.1,0-2.2,0-3.4,0C14.6,16.1,14.6,16.1,14.4,17.4C14.4,17.4,14.4,17.4,14.4,17.4z M31.2,14.7
		C31.2,14.7,31.2,14.8,31.2,14.7c1.3,0.1,2.5,0.1,3.8,0.1c-0.1-0.4-0.2-0.8-0.4-1.1c-0.3-0.8-0.3-0.8-1.1-0.8c-0.2,0-0.4,0-0.5,0.3
		c-0.3,0.7-0.8,1.2-1.5,1.4C31.4,14.6,31.3,14.7,31.2,14.7z M15.2,14.8c1.3,0,2.5,0,3.8,0c0-0.1-0.1-0.1-0.1-0.1
		c-0.8-0.3-1.5-0.8-1.8-1.7c0-0.1-0.1-0.1-0.2-0.1c-0.3,0-0.6,0-0.9,0c-0.1,0-0.2,0.1-0.2,0.2C15.6,13.6,15.4,14.2,15.2,14.8z
		 M16.1,21.4c0.6,0.6,0.6,0.6,1.3,0.6c1.2,0,2.3,0,3.5,0c0.6,0,0.6,0,0.6-0.6C19.7,21.4,18,21.4,16.1,21.4z M28.6,21.4
		c0.1,0.6,0.1,0.6,0.6,0.6c1.2,0,2.4,0,3.6,0c0.6,0,0.9-0.2,1.2-0.6C32.2,21.4,30.5,21.4,28.6,21.4z M20.2,23.4c-0.9,0-1.7,0-2.6,0
		c0.2,0.4,0.3,0.8,0.5,1.1C18.8,24.1,19.5,23.8,20.2,23.4z M30,23.4c0.7,0.4,1.4,0.8,2.2,1.2c0.2-0.4,0.3-0.8,0.5-1.2
		c-0.8,0-1.6,0-2.4,0C30.1,23.3,30.1,23.4,30,23.4z M24.8,29.5c0.7-0.2,0.9-0.6,0.7-1.3c-0.1-0.2-0.5-0.3-0.8-0.5
		C24.8,28.4,24.8,28.9,24.8,29.5z M24.6,24.4c0.4-0.2,0.8-0.4,1.1-0.6c0.2-0.1,0.2-0.3,0-0.4c-0.4-0.1-0.7-0.2-1.1-0.4
		C24.6,23.5,24.6,23.9,24.6,24.4z M25.6,26.6c0-0.5,0.1-0.9,0.1-1.4c-0.3,0.2-0.6,0.3-0.9,0.5c-0.1,0.1-0.2,0.2-0.1,0.3
		c0,0.1,0.1,0.3,0.2,0.3C25.1,26.5,25.4,26.6,25.6,26.6z M18.3,9.1c-0.8,0.8-1.4,1.5-1.8,2.4c0.2,0,0.3,0,0.3,0
		c0.2-0.4,0.3-0.9,0.6-1.2c0.2-0.3,0.6-0.5,1-0.7C18.3,9.5,18.3,9.3,18.3,9.1z M33.8,11.5c-0.5-0.9-1.1-1.7-1.9-2.5
		c0,0.3,0,0.5-0.1,0.7c0,0,0.1,0,0.1-0.1c0.3,0.2,0.7,0.4,0.9,0.8c0.2,0.3,0.3,0.7,0.5,1.1C33.5,11.5,33.6,11.5,33.8,11.5z
		 M25.9,21.4c-0.5,0-0.9,0-1.4,0c0,0.3,0.6,0.6,1.4,0.7C25.9,21.9,25.9,21.6,25.9,21.4z M18.8,13.1c-0.1-0.7-0.2-1.4-0.3-2.1
		C18,11.5,18.1,12.5,18.8,13.1z M31.4,13.1c0.6-0.5,0.8-1.7,0.2-2c-0.1,0.6-0.2,1.2-0.2,1.8C31.4,13,31.4,13,31.4,13.1z M25,8
		c0,0,0.1,0,0.1,0c0.1-0.5,0.2-0.9,0.2-1.4c0-0.1-0.2-0.2-0.3-0.3c-0.1,0.1-0.3,0.2-0.3,0.3C24.9,7.1,25,7.5,25,8z M25.4,30.7
		c-0.5,0.2-0.6,0.3-0.5,0.8c0,0.1,0.2,0.2,0.2,0.2c0.1-0.1,0.2-0.1,0.2-0.2C25.4,31.2,25.4,31,25.4,30.7z M26,16.3
		c0.1-0.5-0.2-0.8-0.7-0.8c-0.6,0-0.7-0.1-0.8-0.7c-0.1-1.1-0.3-2.2-0.5-3.2c-0.1-0.4-0.3-0.6-0.7-0.6c-0.7,0-1.3,0-2,0
		c-0.4,0-0.7,0.3-0.7,0.6c0,0.4,0.3,0.6,0.7,0.7c0.3,0,0.7,0,1,0c0.3,0,0.4,0.1,0.4,0.4c0.1,0.9,0.2,1.8,0.4,2.6
		c0.2,1,0.9,1.6,1.9,1.6C25.6,16.8,25.9,16.6,26,16.3z M28.6,12.2c0.4,0,0.6-0.3,0.6-0.6c0-0.4-0.2-0.6-0.6-0.6c-0.7,0-1.4,0-2.1,0
		c-0.4,0-0.6,0.3-0.6,0.6c0,0.4,0.3,0.6,0.6,0.6c0.3,0,0.6,0,1,0C27.9,12.2,28.3,12.2,28.6,12.2z"/>
</g>
</svg>
