<?xml version="1.0" encoding="utf-8"?>
<!-- Generator: Adobe Illustrator 23.0.0, SVG Export Plug-In . SVG Version: 6.00 Build 0)  -->
<svg version="1.0" id="Layer_1" xmlns="http://www.w3.org/2000/svg" xmlns:xlink="http://www.w3.org/1999/xlink" x="0px" y="0px"
	 viewBox="0 0 50 50" enable-background="new 0 0 50 50" xml:space="preserve">
<path fill="#FFFFFF" d="M30.1,24.2c-2.3,0-3.1-1.2-1.9-3.3c2.6-4.2,4.9-8.2,7.3-12.4c0.2-0.2,0.2-0.7,0.5-0.9c-0.2,0-0.2,0-0.5,0
	c-5.2,0.2-10.3,0.2-15.5,0.2c-0.7,0-0.7,0.2-0.9,0.7c-2.1,6.1-4,12.2-6.1,18.6c0,0.2,0,0.7-0.2,0.9c0.5,0,0.9,0,1.2,0
	c3.1,0,6.1,0,9.2,0c2.3,0,2.8,1.2,2.3,3.1c-1.2,3.3-2.3,6.6-3.5,9.9c-0.2,0.5-0.2,1.2-0.5,1.6h0.2c5.2-5.9,10.3-12,15.7-18.3
	C34.5,24.2,32.2,24.2,30.1,24.2z"/>
</svg>
