<?xml version="1.0" encoding="utf-8"?>
<!-- Generator: Adobe Illustrator 23.0.0, SVG Export Plug-In . SVG Version: 6.00 Build 0)  -->
<svg version="1.0" id="Layer_1" xmlns="http://www.w3.org/2000/svg" xmlns:xlink="http://www.w3.org/1999/xlink" x="0px" y="0px"
	 width="50px" height="50px" viewBox="0 0 50 50" enable-background="new 0 0 50 50" xml:space="preserve">
<path opacity="5.000000e-02" fill="#FFFFFF" d="M45.6,38.1L36,28.5c1.2-2.4,1.9-5.1,1.9-7.9C37.9,10.9,30,3,20.3,3
	S2.7,10.9,2.7,20.6c0,9.7,7.9,17.6,17.6,17.6c2.8,0,5.6-0.7,8-1.9l9.5,9.6c1.1,1.1,2.5,1.6,3.9,1.6c1.5,0,2.9-0.6,3.9-1.6
	s1.6-2.4,1.6-3.9S46.6,39.2,45.6,38.1z M20.3,7.9c7,0,12.7,5.7,12.7,12.7s-5.7,12.7-12.7,12.7S7.6,27.6,7.6,20.6S13.3,7.9,20.3,7.9z
	"/>
<path fill="#FFFFFF" d="M44.9,37.3L34.7,27c1.3-2.4,2.1-5.1,2.1-8c0-9.1-7.4-16.5-16.5-16.5S3.8,9.9,3.8,19s7.4,16.5,16.5,16.5
	c3,0,5.8-0.8,8.2-2.2l10.1,10.2c0.8,0.8,1.9,1.3,3.2,1.3c1.2,0,2.3-0.4,3.1-1.3c0.8-0.8,1.3-1.9,1.3-3.1
	C46.2,39.2,45.7,38.1,44.9,37.3z M6.5,19c0-7.6,6.2-13.8,13.8-13.8S34.1,11.4,34.1,19s-6.2,13.8-13.8,13.8S6.5,26.6,6.5,19z"/>
<path opacity="0.3" fill="#FFFFFF" enable-background="new    " d="M5.8,18.7c0-8,6.5-14.5,14.5-14.5s14.5,6.5,14.5,14.5
	s-6.5,14.5-14.5,14.5S5.8,26.8,5.8,18.7L5.8,18.7z"/>
<linearGradient id="SVGID_1_" gradientUnits="userSpaceOnUse" x1="20.3" y1="4.2" x2="20.3" y2="33.265">
	<stop  offset="4.300000e-02" style="stop-color:#F2F2F2;stop-opacity:0.7"/>
	<stop  offset="1" style="stop-color:#F2F2F2;stop-opacity:0"/>
</linearGradient>
<path opacity="5.000000e-02" fill="url(#SVGID_1_)" enable-background="new    " d="M5.8,18.7c0-8,6.5-14.5,14.5-14.5
	s14.5,6.5,14.5,14.5s-6.5,14.5-14.5,14.5S5.8,26.8,5.8,18.7L5.8,18.7z"/>
<linearGradient id="SVGID_2_" gradientUnits="userSpaceOnUse" x1="20.3" y1="33.8594" x2="20.3" y2="4.4594">
	<stop  offset="0" style="stop-color:#FFFFFF;stop-opacity:0.8"/>
	<stop  offset="7.370000e-02" style="stop-color:#DEDEDE;stop-opacity:0.7705"/>
	<stop  offset="0.2168" style="stop-color:#A4A4A4;stop-opacity:0.7133"/>
	<stop  offset="0.36" style="stop-color:#727272;stop-opacity:0.656"/>
	<stop  offset="0.4999" style="stop-color:#494949;stop-opacity:0.6"/>
	<stop  offset="0.6359" style="stop-color:#292929;stop-opacity:0.5456"/>
	<stop  offset="0.7669" style="stop-color:#121212;stop-opacity:0.4932"/>
	<stop  offset="0.8907" style="stop-color:#050505;stop-opacity:0.4437"/>
	<stop  offset="1" style="stop-color:#000000;stop-opacity:0.4"/>
</linearGradient>
<path opacity="5.000000e-02" fill="url(#SVGID_2_)" enable-background="new    " d="M20.3,4.4c-8,0-14.5,6.9-14.5,14.9
	s6.5,14.5,14.5,14.5s14.5-6.5,14.5-14.5S28.3,4.4,20.3,4.4z M20.3,32.8c-7.6,0-13.8-5.9-13.8-13.5S12.7,5.2,20.3,5.2
	s13.8,6.5,13.8,14.1S27.9,32.8,20.3,32.8z"/>
<path opacity="5.000000e-02" fill="#FFFFFF" enable-background="new    " d="M20.3,31.7c5.2,0,9.5-3.2,9.5-7s-4.3-7-9.5-7
	s-9.5,3.2-9.5,7S15.1,31.7,20.3,31.7z"/>
</svg>
