<?xml version="1.0" encoding="utf-8"?>
<!-- Generator: Adobe Illustrator 23.0.0, SVG Export Plug-In . SVG Version: 6.00 Build 0)  -->
<svg version="1.0" id="Layer_1" xmlns="http://www.w3.org/2000/svg" xmlns:xlink="http://www.w3.org/1999/xlink" x="0px" y="0px"
	 width="50px" height="50px" viewBox="0 0 50 50" enable-background="new 0 0 50 50" xml:space="preserve">
<path id="shadow" opacity="0.5" enable-background="new    " d="M38.1,21.9c-0.3-0.3-0.6-0.4-1-0.4H37h-0.5l-5.1,0.3
	c0.5-0.5,0.9-1.1,1.3-1.7c1.6-2.5,2.4-5.2,2.4-7.8c0-2.8-0.9-5.6-2.7-7.7C30.6,2.3,27.8,1,25,1s-5.6,1.3-7.5,3.6
	c-1.7,2.1-2.7,4.8-2.7,7.7c0,2.6,0.9,5.4,2.4,7.8c0.4,0.6,0.8,1.2,1.3,1.7l-5.1-0.3h-0.5h-0.1c-0.4,0-0.7,0.1-1,0.4
	s-0.5,0.7-0.5,1.1v0.5v2.3v0.5c0,0.4,0.2,0.8,0.5,1.1c0.3,0.3,0.6,0.4,1,0.4h0.1h0.5l8.1-0.5l-2,19v0.4c-0.1,0.7,0.3,1.3,0.9,1.5
	l0.4,0.1c0.8,0.3,2.3,0.7,4.2,0.7c1.9,0,3.4-0.5,4.2-0.7l0.4-0.1c0.6-0.2,1-0.8,0.9-1.5v-0.4l-2-19l8.1,0.5h0.5h0.1
	c0.4,0,0.7-0.1,1-0.4s0.5-0.7,0.5-1.1v-0.5v-2.3V23C38.6,22.6,38.4,22.2,38.1,21.9z M25,20.9c-2.1-1.4-4.2-4.5-4.2-7.5S22.7,8,25,8
	c2,0,3.7,1.7,4.1,4.1c0,0.3,0.1,2.1,0,2.5C28.7,17,27,19.6,25,20.9z"/>
<linearGradient id="body_1_" gradientUnits="userSpaceOnUse" x1="25" y1="49.9158" x2="25" y2="0.8244" gradientTransform="matrix(1 0 0 -1 0 50)">
	<stop  offset="2.153341e-02" style="stop-color:#CE8014"/>
	<stop  offset="5.952756e-02" style="stop-color:#DF9810"/>
	<stop  offset="0.1055" style="stop-color:#EFAD0D"/>
	<stop  offset="0.1502" style="stop-color:#F8BA0B"/>
	<stop  offset="0.192" style="stop-color:#FBBE0A"/>
	<stop  offset="0.285" style="stop-color:#FBBF0C"/>
	<stop  offset="0.3285" style="stop-color:#FBC114"/>
	<stop  offset="0.3618" style="stop-color:#FCC620"/>
	<stop  offset="0.3899" style="stop-color:#FDCD33"/>
	<stop  offset="0.4146" style="stop-color:#FED54B"/>
	<stop  offset="0.4368" style="stop-color:#FFE067"/>
	<stop  offset="0.4404" style="stop-color:#FFE26D"/>
	<stop  offset="0.4531" style="stop-color:#FEDA56"/>
	<stop  offset="0.4719" style="stop-color:#FDD03A"/>
	<stop  offset="0.4924" style="stop-color:#FCC825"/>
	<stop  offset="0.5149" style="stop-color:#FBC216"/>
	<stop  offset="0.5412" style="stop-color:#FBBF0D"/>
	<stop  offset="0.5799" style="stop-color:#FBBE0A"/>
	<stop  offset="0.604" style="stop-color:#F2B20C"/>
	<stop  offset="0.6705" style="stop-color:#DE9710"/>
	<stop  offset="0.729" style="stop-color:#D28613"/>
	<stop  offset="0.7732" style="stop-color:#CE8014"/>
	<stop  offset="0.8039" style="stop-color:#D88E12"/>
	<stop  offset="0.8715" style="stop-color:#EBA90D"/>
	<stop  offset="0.9321" style="stop-color:#F7B80B"/>
	<stop  offset="0.9795" style="stop-color:#FBBE0A"/>
</linearGradient>
<path id="body" fill="url(#body_1_)" d="M25,47.2c-1.6,0-3-0.4-3.7-0.7L21,46.4V46l2.1-20.3c0-0.1,0-0.2-0.1-0.2
	c-0.1-0.1-0.1-0.1-0.2-0.1l0,0l-9.4,0.5h-0.5v-0.5v-2.3v-0.5h0.5l8.2,0.5l0,0c0.1,0,0.2-0.1,0.3-0.2c0-0.1,0-0.2-0.1-0.3
	c-1.2-0.9-2.4-2.2-3.3-3.6c-1.4-2.2-2.2-4.7-2.2-7c0-2.5,0.8-4.9,2.3-6.7c1.6-2,4-3.1,6.4-3.1s4.7,1.1,6.4,3.1
	c1.5,1.8,2.3,4.2,2.3,6.7c0,2.3-0.8,4.8-2.2,7c-0.9,1.4-2.1,2.7-3.3,3.6c-0.1,0.1-0.1,0.2-0.1,0.3c0,0.1,0.1,0.2,0.3,0.2l0,0
	l8.2-0.5h0.5v0.5v2.3v0.5h-0.5l-9.4-0.5l0,0c-0.1,0-0.1,0-0.2,0.1s-0.1,0.1-0.1,0.2L29,46v0.4l-0.4,0.1C28,46.8,26.6,47.2,25,47.2z
	 M25,6.2c-3.1,0-5.7,3.1-5.7,6.8c0,3.9,2.9,7.7,5.6,9.1H25h0.1c2.6-1.3,4.9-4.5,5.4-7.7c0.1-0.4,0-2.6,0-3C29.9,8.3,27.7,6.2,25,6.2
	z"/>
<linearGradient id="edges_1_" gradientUnits="userSpaceOnUse" x1="25.05" y1="2.4854" x2="25.05" y2="49.7279" gradientTransform="matrix(1 0 0 -1 0 50)">
	<stop  offset="2.694207e-02" style="stop-color:#FFF0C5"/>
	<stop  offset="3.489647e-02" style="stop-color:#FFEFC1"/>
	<stop  offset="4.264334e-02" style="stop-color:#FFECB5"/>
	<stop  offset="5.030942e-02" style="stop-color:#FEE7A2"/>
	<stop  offset="5.792620e-02" style="stop-color:#FEDF86"/>
	<stop  offset="6.551189e-02" style="stop-color:#FDD663"/>
	<stop  offset="7.296517e-02" style="stop-color:#FCCA38"/>
	<stop  offset="7.978306e-02" style="stop-color:#FBBE0A"/>
	<stop  offset="0.4285" style="stop-color:#FBBE0A"/>
	<stop  offset="0.4756" style="stop-color:#FBBF0C"/>
	<stop  offset="0.4976" style="stop-color:#FBC114"/>
	<stop  offset="0.5144" style="stop-color:#FBC421"/>
	<stop  offset="0.5286" style="stop-color:#FCC933"/>
	<stop  offset="0.5412" style="stop-color:#FCCF4B"/>
	<stop  offset="0.5525" style="stop-color:#FDD768"/>
	<stop  offset="0.563" style="stop-color:#FEE08B"/>
	<stop  offset="0.5725" style="stop-color:#FFEBB2"/>
	<stop  offset="0.5765" style="stop-color:#FFF0C5"/>
	<stop  offset="0.6247" style="stop-color:#FEE18E"/>
	<stop  offset="0.6729" style="stop-color:#FDD55F"/>
	<stop  offset="0.7188" style="stop-color:#FCCB3A"/>
	<stop  offset="0.7614" style="stop-color:#FBC420"/>
	<stop  offset="0.7992" style="stop-color:#FBC010"/>
	<stop  offset="0.8286" style="stop-color:#FBBE0A"/>
	<stop  offset="0.8508" style="stop-color:#FBC41F"/>
	<stop  offset="0.8968" style="stop-color:#FDD255"/>
	<stop  offset="0.9618" style="stop-color:#FEE9AA"/>
	<stop  offset="0.9811" style="stop-color:#FFF0C5"/>
</linearGradient>
<path id="edges" fill="url(#edges_1_)" d="M25,2.5c-2.3,0-4.5,1.1-6,2.9c-1.4,1.7-2.2,4-2.2,6.4c0,2.2,0.8,4.6,2.1,6.8
	c0.9,1.4,2,2.6,3.2,3.5c0.3,0.2,0.4,0.6,0.3,0.9s-0.4,0.5-0.7,0.5l0,0L13.5,23v2.3l9.4-0.5l0,0c0.2,0,0.4,0.1,0.6,0.2
	c0.2,0.2,0.2,0.4,0.2,0.6l-2.1,20.3c0.7,0.2,2,0.6,3.5,0.6c1.6,0,2.8-0.4,3.5-0.6l-2.1-20.3c0-0.2,0.1-0.4,0.2-0.6s0.3-0.2,0.6-0.2
	l0,0l9.4,0.5V23l-8.2,0.5l0,0c-0.3,0-0.6-0.2-0.7-0.5s0-0.7,0.3-0.9c1.2-0.9,2.3-2.1,3.2-3.5c1.4-2.1,2.1-4.6,2.1-6.8
	c0-2.4-0.8-4.7-2.2-6.4C29.5,3.6,27.3,2.5,25,2.5 M25,22.6c-0.1,0-0.2,0-0.3-0.1c-2.8-1.4-5.8-5.4-5.8-9.5c0-4,2.8-7.3,6.2-7.3
	c2.9,0,5.4,2.3,6,5.7c0.1,0.4,0.1,2.7,0,3.2c-0.6,3.3-3,6.6-5.7,8C25.2,22.6,25.1,22.6,25,22.6 M25,1.6c2.6,0,5,1.2,6.7,3.3
	c1.6,1.9,2.4,4.4,2.4,7c0,2.4-0.8,5-2.3,7.3c-0.8,1.3-1.8,2.4-2.9,3.4l7.6-0.4c0,0,0,0,0.1,0c0.2,0,0.5,0.1,0.7,0.3
	c0.2,0.2,0.3,0.4,0.3,0.7v2.3c0,0.3-0.1,0.5-0.3,0.7s-0.4,0.3-0.7,0.3c0,0,0,0-0.1,0L27.3,26l2.2,20c0,0.4-0.2,0.9-0.6,1
	c-0.7,0.3-2.1,0.7-3.8,0.7c-1.7,0-3.1-0.4-3.8-0.7c-0.4-0.2-0.7-0.6-0.6-1l2.1-20.1l-9.2,0.5c0,0,0,0-0.1,0c-0.2,0-0.5-0.1-0.7-0.3
	c-0.2-0.2-0.3-0.4-0.3-0.7v-2.3c0-0.3,0.1-0.5,0.3-0.7s0.4-0.3,0.7-0.3c0,0,0,0,0.1,0l7.6,0.4c-1.1-0.9-2.1-2.1-2.9-3.4
	c-1.5-2.3-2.3-4.9-2.3-7.3c0-2.6,0.9-5.1,2.4-7C20,2.8,22.4,1.6,25,1.6z M25,21.6c2.4-1.2,4.6-4.3,5.1-7.3c0.1-0.4,0-2.5,0-2.8
	c-0.6-2.9-2.6-4.9-5.1-4.9c-2.9,0-5.2,2.9-5.2,6.4C19.8,16.6,22.5,20.3,25,21.6z"/>
</svg>
