<?xml version="1.0" encoding="utf-8"?>
<!-- Generator: Adobe Illustrator 23.0.0, SVG Export Plug-In . SVG Version: 6.00 Build 0)  -->
<svg version="1.0" id="Layer_1" xmlns="http://www.w3.org/2000/svg" xmlns:xlink="http://www.w3.org/1999/xlink" x="0px" y="0px"
	 width="20px" height="20px" viewBox="0 0 20 20" enable-background="new 0 0 20 20" xml:space="preserve">
<path fill="#FFFFFF" d="M14.8,9.1C14.7,9,14.6,9,14.5,9l0,0l-3,0.2c0.4-0.4,0.8-0.8,1.1-1.3C13.2,7,13.5,6,13.5,5s-0.4-2-0.9-2.7
	C11.9,1.5,11,1,10,1S8.1,1.5,7.4,2.2C6.8,3,6.5,4,6.5,5c0,0.9,0.3,2,0.9,2.9c0.3,0.5,0.7,1,1.1,1.3L5.6,9l0,0C5.4,9,5.3,9,5.2,9.1
	c0,0.1-0.1,0.2-0.1,0.3v0.9c0,0.1,0,0.2,0.1,0.3s0.2,0.1,0.3,0.1s3.6-0.2,3.6-0.2s-0.7,7.6-0.7,7.8c0,0.2,0.1,0.4,0.2,0.4
	C8.9,18.9,9.4,19,10,19s1.1-0.1,1.4-0.3c0.2-0.1,0.2-0.2,0.2-0.4c0-0.2-0.7-7.8-0.7-7.8s3.5,0.2,3.6,0.2s0.2,0,0.3-0.1
	s0.1-0.2,0.1-0.3V9.4C14.9,9.3,14.8,9.2,14.8,9.1z M10,8.8c-1-0.5-2-2-2-3.4C8,4.1,8.9,3,10,3s2,1.1,2,2.5S11,8.3,10,8.8z"/>
</svg>
