<?xml version="1.0" encoding="utf-8"?>
<!-- Generator: Adobe Illustrator 23.0.0, SVG Export Plug-In . SVG Version: 6.00 Build 0)  -->
<svg version="1.0" id="Layer_1" xmlns="http://www.w3.org/2000/svg" xmlns:xlink="http://www.w3.org/1999/xlink" x="0px" y="0px"
	 width="50px" height="50px" viewBox="0 0 50 50" enable-background="new 0 0 50 50" xml:space="preserve">
<g id="New_Symbol_108">
</g>
<path opacity="0.25" d="M31.9,27.2c-0.3-0.7-0.9-1.1-1.5-1.3c-0.5-0.1-1-0.1-1.5,0c-6.5,1.8-13.4,1.8-19.9,0
	c-0.8-0.2-1.6-0.1-2.3,0.3c-0.6,0.5-1,1.2-1.1,2.1c0,0.5,0.1,1.1,0.3,1.6c2.4,5.7,5.8,11.2,10.3,16.8c0.6,0.8,1.7,1.2,2.8,1.2
	c0.5,0,1-0.1,1.5-0.3c0.5-0.2,0.9-0.5,1.2-0.9c4.5-5.7,7.9-11.2,10.3-16.9C32.3,29,32.2,28,31.9,27.2z"/>
<path d="M31,27.3c-2.5,6-6.1,11.5-10.1,16.6c-0.2,0.3-0.5,0.5-0.8,0.6c-1.1,0.4-2.5,0.2-3.1-0.6c-4.1-5.1-7.6-10.6-10.1-16.6
	c-0.2-0.4-0.2-0.8-0.2-1.1c0.1-1.2,1-1.8,2.1-1.5c6.7,1.9,13.7,1.9,20.4,0c0.3-0.1,0.7-0.1,1,0C31,24.9,31.4,26.1,31,27.3z"/>
<path fill="#D30505" d="M29.2,27.8C27,32.9,24,37.6,20.5,42c-0.2,0.2-0.4,0.4-0.7,0.5c-0.9,0.4-2.1,0.2-2.6-0.5
	c-3.5-4.3-6.5-9-8.7-14.2c-0.1-0.3-0.2-0.6-0.2-1c0.1-1,0.9-1.6,1.8-1.3c5.7,1.6,11.7,1.6,17.4,0c0.3-0.1,0.6-0.1,0.9,0
	C29.2,25.8,29.6,26.8,29.2,27.8z"/>
<linearGradient id="SVGID_1_" gradientUnits="userSpaceOnUse" x1="15184.1523" y1="15074.6768" x2="15184.1523" y2="15091.8799" gradientTransform="matrix(-1 0 0 -1 15203 15117.3447)">
	<stop  offset="0" style="stop-color:#FFFFFF;stop-opacity:0.8"/>
	<stop  offset="7.370000e-02" style="stop-color:#DEDEDE;stop-opacity:0.7705"/>
	<stop  offset="0.2168" style="stop-color:#A4A4A4;stop-opacity:0.7133"/>
	<stop  offset="0.36" style="stop-color:#727272;stop-opacity:0.656"/>
	<stop  offset="0.4999" style="stop-color:#494949;stop-opacity:0.6"/>
	<stop  offset="0.6359" style="stop-color:#292929;stop-opacity:0.5456"/>
	<stop  offset="0.7669" style="stop-color:#121212;stop-opacity:0.4932"/>
	<stop  offset="0.8907" style="stop-color:#050505;stop-opacity:0.4437"/>
	<stop  offset="1" style="stop-color:#000000;stop-opacity:0.4"/>
</linearGradient>
<path fill="url(#SVGID_1_)" d="M8.5,27.8c2.2,5.1,5.2,9.8,8.7,14.2c0.5,0.7,1.7,0.9,2.6,0.5c0.3-0.1,0.5-0.3,0.7-0.5
	c3.5-4.3,6.5-9,8.7-14.2c0.4-1,0.1-2-0.8-2.3c-0.3-0.1-0.6-0.1-0.9,0c-5.7,1.6-11.7,1.6-17.4,0c-0.9-0.3-1.7,0.3-1.8,1.3
	C8.3,27.1,8.4,27.5,8.5,27.8z M11,26.3c5.2,1.4,10.6,1.4,15.8,0c0.3-0.1,0.5-0.1,0.8,0c0.8,0.2,1.1,1.2,0.7,2
	c-2,4.6-4.7,8.9-7.8,12.8c-0.2,0.2-0.4,0.4-0.6,0.5c-0.8,0.3-1.9,0.2-2.4-0.5c-3.1-3.9-5.9-8.2-7.8-12.8c-0.1-0.3-0.2-0.6-0.1-0.9
	C9.4,26.6,10.1,26.1,11,26.3z"/>
<g opacity="0.5">
	<path opacity="0.3" fill="#FFFFFF" enable-background="new    " d="M27.1,28.5c-1.6,0.7-3.9,1.3-6.6,1.9c-0.1,0-0.3,0.1-0.5,0.1
		c-0.7,0.1-1.6,0-2-0.1c-2.6-0.6-4.9-1.2-6.6-1.9c-0.1,0-0.1-0.1-0.1-0.1c0.1-0.1,0.7-0.2,1.4-0.2c4.3,0.2,8.9,0.2,13.2,0
		c0.2,0,0.4,0,0.6,0C27.1,28.3,27.4,28.4,27.1,28.5z"/>
</g>
<path opacity="0.25" d="M44.2,21.2c-2.4-5.7-5.8-11.2-10.3-16.8c-0.9-1.1-2.8-1.5-4.3-0.9c-0.5,0.2-0.9,0.5-1.2,0.9
	c-4.5,5.7-7.9,11.2-10.3,16.9c-0.4,0.9-0.4,1.9,0,2.7c0.3,0.7,0.9,1.1,1.5,1.3c0.2,0.1,0.5,0.1,0.7,0.1c0.3,0,0.5,0,0.8-0.1
	c6.5-1.8,13.4-1.8,19.9,0c0.8,0.2,1.6,0.1,2.3-0.3c0.6-0.5,1-1.2,1.1-2.1C44.5,22.3,44.4,21.7,44.2,21.2z"/>
<path d="M19,19.9c2.5-6,6.1-11.5,10.1-16.6c0.2-0.3,0.5-0.5,0.8-0.6c1.1-0.4,2.5-0.2,3.1,0.6c4.1,5.1,7.6,10.6,10.1,16.6
	c0.2,0.4,0.2,0.8,0.2,1.1c-0.1,1.2-1,1.8-2.1,1.5c-6.7-1.9-13.7-1.9-20.4,0c-0.3,0.1-0.7,0.1-1,0C19,22.3,18.6,21.1,19,19.9z"/>
<path fill="#1BBC0A" d="M20.8,18.3C23,13.2,26,8.5,29.5,4.1c0.2-0.2,0.4-0.4,0.7-0.5c0.9-0.4,2.1-0.2,2.6,0.5
	c3.5,4.3,6.5,9,8.7,14.2c0.1,0.3,0.2,0.6,0.2,1c-0.1,1-0.9,1.6-1.8,1.3c-5.7-1.6-11.7-1.6-17.4,0c-0.3,0.1-0.6,0.1-0.9,0
	C20.8,20.3,20.4,19.3,20.8,18.3z"/>
<linearGradient id="SVGID_2_" gradientUnits="userSpaceOnUse" x1="-2.8473" y1="44.6474" x2="-2.8473" y2="61.8505" gradientTransform="matrix(1 0 0 1 34 -41.229)">
	<stop  offset="0" style="stop-color:#FFFFFF;stop-opacity:0.8"/>
	<stop  offset="7.370000e-02" style="stop-color:#DEDEDE;stop-opacity:0.7705"/>
	<stop  offset="0.2168" style="stop-color:#A4A4A4;stop-opacity:0.7133"/>
	<stop  offset="0.36" style="stop-color:#727272;stop-opacity:0.656"/>
	<stop  offset="0.4999" style="stop-color:#494949;stop-opacity:0.6"/>
	<stop  offset="0.6359" style="stop-color:#292929;stop-opacity:0.5456"/>
	<stop  offset="0.7669" style="stop-color:#121212;stop-opacity:0.4932"/>
	<stop  offset="0.8907" style="stop-color:#050505;stop-opacity:0.4437"/>
	<stop  offset="1" style="stop-color:#000000;stop-opacity:0.4"/>
</linearGradient>
<path fill="url(#SVGID_2_)" d="M41.5,18.3c-2.2-5.1-5.2-9.8-8.7-14.2c-0.5-0.7-1.7-0.9-2.6-0.5c-0.3,0.1-0.5,0.3-0.7,0.5
	c-3.5,4.3-6.5,9-8.7,14.2c-0.4,1-0.1,2,0.8,2.3c0.3,0.1,0.6,0.1,0.9,0c5.7-1.6,11.7-1.6,17.4,0c0.9,0.3,1.7-0.3,1.8-1.3
	C41.7,18.9,41.6,18.6,41.5,18.3z M39,19.7c-5.2-1.4-10.6-1.4-15.8,0c-0.3,0.1-0.5,0.1-0.8,0c-0.8-0.2-1.1-1.2-0.7-2
	c2-4.6,4.7-8.9,7.8-12.8c0.2-0.2,0.4-0.4,0.6-0.5c0.8-0.3,1.9-0.2,2.4,0.5c3.1,3.9,5.9,8.2,7.8,12.8c0.1,0.3,0.2,0.6,0.1,0.9
	C40.6,19.5,39.9,20,39,19.7z"/>
<g opacity="0.5">
	<path opacity="0.3" fill="#FFFFFF" enable-background="new    " d="M26.6,10.6c1-1.9,2.3-3.7,3.8-5.3c0.1-0.1,0.2-0.1,0.3-0.2
		c0.4-0.1,0.9-0.1,1.2,0.2c1.5,1.6,2.9,3.4,3.8,5.3c0.1,0.1,0.1,0.2,0.1,0.4c0,0.4-0.4,0.6-0.8,0.5c-2.5-0.6-5.2-0.6-7.7,0
		c-0.1,0-0.3,0-0.4,0C26.5,11.3,26.4,11,26.6,10.6z"/>
</g>
</svg>
