<?xml version="1.0" encoding="utf-8"?>
<!-- Generator: Adobe Illustrator 23.0.0, SVG Export Plug-In . SVG Version: 6.00 Build 0)  -->
<svg version="1.0" id="Layer_1" xmlns="http://www.w3.org/2000/svg" xmlns:xlink="http://www.w3.org/1999/xlink" x="0px" y="0px"
	 viewBox="0 0 50 50" enable-background="new 0 0 50 50" xml:space="preserve">
<g>
	<path fill="#FFFFFF" d="M26,23.8c0.1,0,0.2,0,0.3,0c1.6-0.1,2.9-1.5,2.9-3.1v-4.3c0-1.3,0-2.5-0.1-3.7c0-0.3,0-0.7-0.2-1.1
		c-0.5-1.3-1.8-2.1-3.3-1.9c-1.5,0.2-2.7,1.3-2.7,2.7c-0.1,2.5-0.1,5.3-0.1,8.2c0,0.2,0,0.6,0.2,1C23.4,22.9,24.7,23.8,26,23.8z"/>
	<path fill="#FFFFFF" d="M41.1,21.8c-0.6-2.9-2-5.4-4.1-7.6l0,0c-0.9-0.9-2-1.2-3-1c-1.1,0.3-1.9,1.2-2,2.3c-0.1,1,0.2,1.9,1.1,2.7
		c1.7,1.8,2.5,3.9,2.6,6.5c0.1,2.9-1.1,5.6-3.3,7.5c-2.2,1.9-5,2.7-7.9,2.2c-2.6-0.4-4.9-1.9-6.3-4.1c-1.5-2.2-2-4.9-1.4-7.6
		c0.4-1.8,1.2-3.3,2.4-4.7c1-1,1.1-2,1-2.6c-0.1-1.2-0.9-2-2-2.3c-0.8-0.2-1.9-0.2-3.1,1c-3.5,3.6-4.8,7.9-4,13.3
		c0.6,4,2.7,7.5,6,9.8c2.7,1.9,5.8,2.9,9,2.9c0.7,0,1.5-0.1,2.3-0.2C36,39,41.5,32.7,41.5,24.9C41.4,23.9,41.3,22.9,41.1,21.8z"/>
</g>
</svg>
