<?xml version="1.0" encoding="utf-8"?>
<!-- Generator: Adobe Illustrator 23.0.0, SVG Export Plug-In . SVG Version: 6.00 Build 0)  -->
<svg version="1.0" id="terms_icon" xmlns="http://www.w3.org/2000/svg" xmlns:xlink="http://www.w3.org/1999/xlink" x="0px" y="0px"
	 viewBox="0 0 50 50" enable-background="new 0 0 50 50" xml:space="preserve">
<path fill="#FFFFFF" d="M43.2,24.8C42,22,40.9,19.3,40,16.5c0-0.1-0.1-0.2-0.1-0.4c1.1-0.1,2.1-0.1,3.2-0.2c0.1-0.8,0.2-1.6,0.3-2.4
	c-0.2,0-0.4,0-0.5,0c-5.1,0.3-9.7,0.5-14.2,0.6c-0.3,0-0.4-0.1-0.5-0.4c-0.3-0.8-0.9-1.4-1.6-1.7c-0.2-0.1-0.3-0.2-0.3-0.5
	c0-1.7,0.1-3.4,0.1-5.3c-0.9,0-1.7,0-2.6,0c0,1.9,0.1,3.6,0.1,5.3c0,0.3,0,0.4-0.3,0.5c-0.8,0.4-1.4,1-1.7,1.8
	c-0.1,0.3-0.2,0.3-0.5,0.3c-4.5,0-9.1-0.3-14.2-0.6c-0.2,0-0.4,0-0.6,0c0.1,0.8,0.2,1.5,0.3,2.3C8,16,9,16,10.1,16.1
	c0,0.1,0,0.2-0.1,0.3c-1.4,4-3,7.9-4.6,12.1c0,0.1-0.1,0.1-0.1,0.2c0,0.3,0.1,0.5,0.1,0.8c0,0.1,0.1,0.1,0.1,0.2
	c0.7,2.5,3.1,4.4,5.7,4.6c1,0.1,2.1,0,3.1-0.1c2.7-0.1,4.9-2.2,5.3-4.7c0.1-0.6,0.1-1.1-0.2-1.6c-1.4-3.2-2.9-6.4-4.8-9.9
	c-0.3-0.5-0.5-1-0.8-1.5c0.1,0,0.1,0,0.2,0c2.6,0.1,5.1,0.2,7.5,0.2c0.2,0,0.3,0.1,0.4,0.3c0.4,0.7,0.9,1.3,1.6,1.6
	c0.3,0.1,0.3,0.3,0.3,0.6c0,5,0.1,9.4,0.1,14.6c0,0.1,0,0.3,0,0.4c-2.2,0.8-3.9,2.6-4,4.4c-0.4,0-0.7,0-1.1,0c-0.2,0-0.4,0-0.6,0.1
	c-2,0.5-3.1,2.4-2.8,5.2c6.4,0,12.7,0,19.1,0c0-0.4,0-0.8,0-1.2c0-2.4-1.4-4-3.5-4.1c-0.4,0-0.7,0-1.1,0c-0.2-1.8-1.8-3.5-4-4.4
	c0-5.5,0-10,0.1-15.4c1-0.4,1.6-1.1,2.1-2.1c2.5,0,5.1-0.1,7.9-0.2c-0.1,0.1-0.1,0.3-0.2,0.4c-2.1,4.1-3.9,7.7-5.5,11.4
	c-0.1,0.2-0.1,0.3-0.1,0.5c0,2.5,2,4.9,4.5,5.3c1.1,0.2,2.1,0.2,3.3,0.2c2.6,0.1,5.1-1.5,6.2-4c0.1-0.3,0.2-0.6,0.4-0.9
	c0-0.3,0.1-0.5,0.1-0.8C44.2,27.3,43.6,26,43.2,24.8z M16.9,27.3c-2.6,0-5.3,0.1-8.4,0.1c1.2-3.2,2.5-6.2,3.6-9.4
	C14.1,21.4,15.5,24.3,16.9,27.3z M33.1,27.3c1.4-3,2.9-5.9,4.7-9.3c1.1,3.2,2.4,6.2,3.6,9.4C38.4,27.4,35.7,27.3,33.1,27.3z"/>
</svg>
