<?xml version="1.0" encoding="utf-8"?>
<!-- Generator: Adobe Illustrator 23.0.0, SVG Export Plug-In . SVG Version: 6.00 Build 0)  -->
<svg version="1.0" id="follow_x5F_icon" xmlns="http://www.w3.org/2000/svg" xmlns:xlink="http://www.w3.org/1999/xlink" x="0px"
	 y="0px" viewBox="0 0 50 50" enable-background="new 0 0 50 50" xml:space="preserve">
<path fill="#FFFFFF" d="M45.7,14.2c0.7-0.7,1-1.1,1.7-1.9c0.9-1,0.4-3-1-3.1c-1.9-0.2-2.8-0.3-4.9-0.5c-0.1-2-0.2-2.9-0.4-4.8
	C41.1,2.6,39,2,38,2.9c-0.8,0.7-1.2,1-2,1.6c-3.5-1.5-7.4-2-11.1-2C12.2,2.2,2.1,12.3,2.5,25c0.4,12.2,10,22.5,22.5,22.5
	c12.5,0,22.4-10,22.5-22.5C47.5,21.4,47.2,17.6,45.7,14.2z M34.6,10.6c1.4-1.3,2-1.8,3.3-3c0.1,1,0.1,1.5,0.2,2.5
	c0.1,0.9,0.9,1.8,1.9,1.9c1.1,0.1,1.6,0.1,2.6,0.2c-1.2,1.2-1.8,1.9-3.1,3.2c-1.8-0.1-2.7-0.2-4.6-0.3
	C34.8,13.3,34.7,12.4,34.6,10.6z M25,44.8C14.2,44.8,5.4,35.6,5.1,25C4.8,14,14,4.9,25,5.1c2.9,0.1,5.9,0.4,8.5,1.5
	c-0.9,0.7-1.3,1.1-2.3,2c-0.3,0.3-0.5,0.7-0.5,1.2c0.1,2.4,0.1,3.7,0.2,6.4c-2.9,2.7-4.4,4.3-7.4,7.3c-0.8,0.8-0.8,2.1,0,2.9
	c0.8,0.8,2.1,0.8,2.9,0c3-3,4.6-4.5,7.3-7.3c2.7,0.1,4.1,0.1,6.5,0.2c0.5,0,0.9-0.2,1.2-0.5c0.8-0.9,1.3-1.4,2-2.2
	c1.1,2.6,1.4,5.5,1.3,8.4C44.7,35.8,35.8,44.8,25,44.8z M40.3,25c-0.1,8.4-7,15.3-15.3,15.3c-8.3,0-15.1-6.8-15.3-15.3
	S16.4,9.7,25,9.7c1.1,0,2,0.8,2,1.7c0,1-0.9,1.8-2,1.8c-6.6,0-11.8,5.2-11.7,11.7S18.6,36.7,25,36.7c6.4,0,11.6-5.2,11.7-11.7
	c0-1.1,0.9-2,1.8-2C39.5,23,40.3,23.9,40.3,25z"/>
</svg>
