<?xml version="1.0" encoding="utf-8"?>
<!-- Generator: Adobe Illustrator 23.0.0, SVG Export Plug-In . SVG Version: 6.00 Build 0)  -->
<svg version="1.0" id="Layer_1" xmlns="http://www.w3.org/2000/svg" xmlns:xlink="http://www.w3.org/1999/xlink" x="0px" y="0px"
	 width="50px" height="50px" viewBox="0 0 50 50" enable-background="new 0 0 50 50" xml:space="preserve">
<g id="New_Symbol_39">
	<path fill="#9B9B9B" fill-opacity="0.5" d="M2.9,39.5C7.5,28.5,14,18.4,21.4,9.1c0.4-0.5,0.9-0.8,1.5-1.1c2-0.8,4.5-0.4,5.7,1.1
		c7.4,9.3,13.9,19.4,18.5,30.4c0.3,0.7,0.4,1.4,0.4,2.1c-0.1,2.1-1.8,3.3-3.8,2.8c-12.2-3.4-25.1-3.4-37.3,0c-0.6,0.2-1.3,0.2-1.8,0
		C2.7,43.8,2,41.6,2.9,39.5z"/>
	<path d="M2.9,37.4C7.5,26.4,14,16.4,21.4,7.1c0.4-0.5,0.9-0.8,1.5-1.1c2-0.8,4.5-0.4,5.7,1.1c7.4,9.3,13.9,19.4,18.5,30.4
		c0.3,0.7,0.4,1.4,0.4,2.1c-0.1,2.1-1.8,3.3-3.8,2.8c-12.2-3.4-25.1-3.4-37.3,0c-0.6,0.2-1.3,0.2-1.8,0C2.7,41.8,2,39.5,2.9,37.4z"
		/>
	<path fill="#FFC000" d="M6.1,34.4c4-9.4,9.5-18,15.8-25.9c0.3-0.4,0.7-0.7,1.3-0.9c1.7-0.7,3.9-0.3,4.8,0.9
		c6.3,8,11.9,16.5,15.8,25.9c0.2,0.6,0.3,1.2,0.3,1.8c-0.1,1.8-1.6,2.8-3.3,2.4c-10.4-2.9-21.4-2.9-31.8,0c-0.5,0.2-1.1,0.2-1.6,0
		C6,38.1,5.4,36.2,6.1,34.4z"/>
	
		<linearGradient id="SVGID_1_" gradientUnits="userSpaceOnUse" x1="24.9995" y1="42.7735" x2="24.9995" y2="11.3179" gradientTransform="matrix(1 0 0 -1 0 50)">
		<stop  offset="0" style="stop-color:#FFFFFF;stop-opacity:0.8"/>
		<stop  offset="7.370000e-02" style="stop-color:#DEDEDE;stop-opacity:0.7705"/>
		<stop  offset="0.2168" style="stop-color:#A4A4A4;stop-opacity:0.7133"/>
		<stop  offset="0.36" style="stop-color:#727272;stop-opacity:0.656"/>
		<stop  offset="0.4999" style="stop-color:#494949;stop-opacity:0.6"/>
		<stop  offset="0.6359" style="stop-color:#292929;stop-opacity:0.5456"/>
		<stop  offset="0.7669" style="stop-color:#121212;stop-opacity:0.4932"/>
		<stop  offset="0.8907" style="stop-color:#050505;stop-opacity:0.4437"/>
		<stop  offset="1" style="stop-color:#000000;stop-opacity:0.4"/>
	</linearGradient>
	<path fill="url(#SVGID_1_)" d="M43.9,34.4c-4-9.4-9.5-18-15.8-25.9c-1-1.3-3.1-1.6-4.8-0.9c-0.5,0.2-1,0.5-1.3,0.9
		c-6.3,8-11.9,16.5-15.8,25.9c-0.7,1.8-0.1,3.7,1.4,4.1c0.5,0.1,1,0.1,1.6,0c10.4-2.9,21.4-2.9,31.8,0c1.7,0.5,3.1-0.5,3.3-2.4
		C44.2,35.6,44.1,35,43.9,34.4z M39.4,37.1c-9.4-2.6-19.4-2.6-28.8,0c-0.5,0.1-1,0.1-1.4,0c-1.4-0.4-2-2.1-1.3-3.7
		c3.6-8.5,8.6-16.3,14.3-23.5c0.3-0.4,0.7-0.7,1.2-0.9c1.5-0.6,3.5-0.3,4.4,0.9c5.7,7.2,10.7,15,14.3,23.5c0.2,0.5,0.3,1.1,0.3,1.6
		C42.3,36.6,41,37.5,39.4,37.1z"/>
	<path opacity="0.3" fill="#FFFFFF" enable-background="new    " d="M16.6,20.4c1.8-3.5,4.2-6.7,7-9.7c0.1-0.1,0.3-0.3,0.6-0.4
		c0.8-0.3,1.7-0.1,2.2,0.4c2.8,3,5.3,6.2,7,9.7c0.1,0.2,0.2,0.4,0.1,0.7c-0.1,0.7-0.7,1.1-1.5,0.9c-4.6-1.1-9.5-1.1-14.2,0
		c-0.2,0.1-0.5,0.1-0.7,0C16.6,21.7,16.3,21,16.6,20.4z"/>
</g>
<g>
	<path d="M25,31.2c-0.4,0-1.3,0-1.3,0c-0.3,0-0.6-0.1-0.8-0.3c-0.2-0.2-0.4-0.5-0.4-0.8l0-2.1c0-0.4,0.1-0.7,0.4-0.9
		c0.1,0,0.1-0.1,0.2-0.1c-0.2-0.2-0.3-0.4-0.3-0.6c-0.2-2.7-0.3-4-0.5-6.6c0-0.4,0.1-0.7,0.4-0.9c0.2-0.2,0.5-0.3,0.8-0.3
		c0.6,0,1.1,0,1.6,0c0.5,0,1,0,1.6,0c0.3,0,0.6,0.1,0.8,0.3c0.3,0.2,0.4,0.6,0.4,1c-0.2,2.6-0.3,3.9-0.5,6.6c0,0.3-0.1,0.5-0.3,0.7
		c0.1,0,0.2,0.1,0.2,0.1c0.3,0.2,0.4,0.5,0.4,0.9l0,2.1c0,0.3-0.2,0.6-0.4,0.8c-0.2,0.2-0.5,0.3-0.8,0.3
		C26.5,31.2,25.5,31.2,25,31.2z"/>
	<path d="M26.7,19.3c0.1,0,0.2,0,0.3,0.1c0.1,0.1,0.1,0.2,0.1,0.3c-0.2,2.6-0.3,4-0.5,6.6c0,0.1-0.1,0.2-0.2,0.3
		c-0.1,0.1-0.2,0.1-0.3,0.1c0,0,0,0,0,0c-0.4,0-0.7,0-1.1,0c-0.3,0-0.6,0-1,0h0c-0.1,0-0.3,0-0.3-0.1c-0.1-0.1-0.1-0.2-0.2-0.3
		c-0.2-2.6-0.3-4-0.5-6.6c0-0.1,0-0.2,0.1-0.3c0.1-0.1,0.2-0.1,0.3-0.1c0,0,0,0,0,0c0.6,0,1.1,0,1.6,0C25.5,19.3,26,19.3,26.7,19.3
		C26.7,19.3,26.7,19.3,26.7,19.3 M25,27.6c0.4,0,0.9,0,1.4,0c0.1,0,0.2,0,0.3,0.1c0.1,0.1,0.1,0.2,0.1,0.3c0,0.8,0,1.3,0,2.1
		c0,0.1,0,0.2-0.1,0.3c-0.1,0.1-0.2,0.1-0.3,0.1c0,0,0,0,0,0c-0.6,0-1,0-1.4,0c-0.4,0-0.8,0-1.3,0c0,0,0,0,0,0c-0.1,0-0.2,0-0.3-0.1
		c-0.1-0.1-0.1-0.2-0.1-0.3c0-0.8,0-1.3,0-2.1c0-0.1,0-0.2,0.1-0.3c0.1-0.1,0.2-0.1,0.3-0.1C24.2,27.6,24.6,27.6,25,27.6 M26.7,17.7
		C26.7,17.7,26.7,17.7,26.7,17.7c-0.7,0-1.2,0-1.7,0c-0.5,0-0.9,0-1.6,0c-0.6,0-1.1,0.2-1.3,0.4c-0.5,0.4-0.7,1-0.7,1.6
		c0.2,2.6,0.3,4,0.5,6.6c0,0,0,0.1,0,0.1c0,0.1,0,0.3,0.1,0.4c-0.3,0.3-0.4,0.7-0.4,1.2l0,0.7l0,1.4c0,0.5,0.2,1,0.6,1.4
		c0.4,0.3,0.8,0.5,1.3,0.5c0.6,0,1,0,1.3,0c0.4,0,0.8,0,1.4,0c0,0,0,0,0,0c0.5,0,0.9-0.2,1.3-0.4c0.4-0.4,0.7-0.9,0.7-1.4l0-2.1
		c0-0.5-0.2-0.9-0.4-1.2c0-0.1,0.1-0.2,0.1-0.3c0,0,0-0.1,0-0.1c0.2-2.6,0.3-4,0.5-6.6c0.1-0.6-0.2-1.2-0.7-1.6
		C27.6,17.9,27.2,17.7,26.7,17.7L26.7,17.7z"/>
	<path fill="#FFFAF0" d="M25,29.2c-0.4,0-1.3,0-1.3,0c-0.3,0-0.6-0.1-0.8-0.3c-0.2-0.2-0.4-0.5-0.4-0.8l0-2.1c0-0.4,0.1-0.7,0.4-0.9
		c0.1,0,0.1-0.1,0.2-0.1c-0.2-0.2-0.3-0.4-0.3-0.6c-0.2-2.7-0.3-4-0.5-6.6c0-0.4,0.1-0.7,0.4-0.9c0.2-0.2,0.5-0.3,0.8-0.3
		c0.6,0,1.1,0,1.6,0c0.5,0,1,0,1.6,0c0.3,0,0.6,0.1,0.8,0.3c0.3,0.2,0.4,0.6,0.4,1c-0.2,2.6-0.3,3.9-0.5,6.6c0,0.3-0.1,0.5-0.3,0.7
		c0.1,0,0.2,0.1,0.2,0.1c0.3,0.2,0.4,0.5,0.4,0.9l0,2.1c0,0.3-0.2,0.6-0.4,0.8c-0.2,0.2-0.5,0.3-0.8,0.3
		C26.5,29.2,25.5,29.2,25,29.2z"/>
	<path d="M26.7,17.2c0.1,0,0.2,0,0.3,0.1c0.1,0.1,0.1,0.2,0.1,0.3c-0.2,2.6-0.3,4-0.5,6.6c0,0.1-0.1,0.2-0.2,0.3
		c-0.1,0.1-0.2,0.1-0.3,0.1c0,0,0,0,0,0c-0.4,0-0.7,0-1.1,0c-0.3,0-0.6,0-1,0h0c-0.1,0-0.3,0-0.3-0.1c-0.1-0.1-0.1-0.2-0.2-0.3
		c-0.2-2.6-0.3-4-0.5-6.6c0-0.1,0-0.2,0.1-0.3c0.1-0.1,0.2-0.1,0.3-0.1c0,0,0,0,0,0c0.6,0,1.1,0,1.6,0C25.5,17.2,26,17.2,26.7,17.2
		C26.7,17.2,26.7,17.2,26.7,17.2 M25,25.6c0.4,0,0.9,0,1.4,0c0.1,0,0.2,0,0.3,0.1c0.1,0.1,0.1,0.2,0.1,0.3c0,0.8,0,1.3,0,2.1
		c0,0.1,0,0.2-0.1,0.3c-0.1,0.1-0.2,0.1-0.3,0.1c0,0,0,0,0,0c-0.6,0-1,0-1.4,0c-0.4,0-0.8,0-1.3,0c0,0,0,0,0,0c-0.1,0-0.2,0-0.3-0.1
		c-0.1-0.1-0.1-0.2-0.1-0.3c0-0.8,0-1.3,0-2.1c0-0.1,0-0.2,0.1-0.3c0.1-0.1,0.2-0.1,0.3-0.1C24.2,25.6,24.6,25.6,25,25.6 M26.7,15.7
		C26.7,15.7,26.7,15.7,26.7,15.7c-0.7,0-1.2,0-1.7,0c-0.5,0-0.9,0-1.6,0c-0.6,0-1.1,0.2-1.3,0.4c-0.5,0.4-0.7,1-0.7,1.6
		c0.2,2.6,0.3,4,0.5,6.6c0,0,0,0.1,0,0.1c0,0.1,0,0.3,0.1,0.4c-0.3,0.3-0.4,0.7-0.4,1.2l0,0.7l0,1.4c0,0.5,0.2,1,0.6,1.4
		c0.4,0.3,0.8,0.5,1.3,0.5c0.6,0,1,0,1.3,0c0.4,0,0.8,0,1.4,0c0,0,0,0,0,0c0.5,0,0.9-0.2,1.3-0.4c0.4-0.4,0.7-0.9,0.7-1.4l0-2.1
		c0-0.5-0.2-0.9-0.4-1.2c0-0.1,0.1-0.2,0.1-0.3c0,0,0-0.1,0-0.1c0.2-2.6,0.3-4,0.5-6.6c0.1-0.6-0.2-1.2-0.7-1.6
		C27.6,15.8,27.2,15.7,26.7,15.7L26.7,15.7z"/>
</g>
</svg>
