<?xml version="1.0" encoding="utf-8"?>
<!-- Generator: Adobe Illustrator 23.0.0, SVG Export Plug-In . SVG Version: 6.00 Build 0)  -->
<svg version="1.0" id="Layer_1" xmlns="http://www.w3.org/2000/svg" xmlns:xlink="http://www.w3.org/1999/xlink" x="0px" y="0px"
	 viewBox="0 0 50 50" enable-background="new 0 0 50 50" xml:space="preserve">
<g>
	<path fill="#FFFFFF" d="M15,13.4c5-0.1,9.9-0.1,14.9,0c0.3,0.1,0.4,0.5,0.4,0.8c-0.1,0.3,0,0.7,0,1c0,0.6-0.1-0.4-0.1,0.2
		c0.1,0,0.2,0,0.3,0c0.7,0,1.5,0,2.2,0c0.6,0,0.8,0.2,0.8,0.9c0,7.5-0.2,14.9-0.2,22.3c0,0.1,0,0.2,0,0.4c0.1,0,0.2,0,0.3,0
		c0.4,0,0.9,0,1.3,0c0.3,0,0.4,0.1,0.5,0.4c0.1,0.2,0,0.4-0.2,0.6c-0.1,0.1-0.1,0.1-0.2,0.2c-8.3-0.1-16.6-0.1-24.9,0
		c-0.1-0.2-0.3-0.3-0.3-0.5c-0.1-0.3,0.2-0.7,0.6-0.7c0.5,0,1,0,1.5,0c0-0.2,0-0.2,0-0.4c-0.1-7.3-0.3-14.6-0.3-22.1
		c0-0.1,0-0.2,0-0.2c0-0.4,0.2-0.6,0.6-0.6c0.2,0,0.5,0,0.7,0c0.6,0,1.3,0,2,0c0-0.1,0-0.2,0-0.3c0-1-0.1-0.2-0.2-1.1
		C14.6,13.8,14.7,13.5,15,13.4z M32,39c0.1-7.5,0.2-14.9,0.2-22.4c-6.5-0.1-13.1-0.1-19.7,0c0,7.5,0.2,14.9,0.2,22.4
		c2.2,0,4.2,0,6.4,0.1c0-0.1,0-0.2,0-0.3c0-2,0-4,0-5.9c0-0.6,0.2-0.7,0.7-0.7c1.6,0,3.3,0,4.9,0c0.6,0,0.8,0.2,0.8,0.8
		c0,2,0,4,0,5.9c0,0.1,0,0.2,0,0.3C27.8,39.1,29.9,39.1,32,39z M24.5,39.1c0-2,0-3.9,0-5.9c-1.4,0-2.8,0-4.3,0c0,2,0,3.9,0,5.9
		c0.5,0,1,0,1.6,0c0-0.1,0-0.2,0-0.2c0-0.6,0-1.1,0-1.7c0-0.4,0.3-0.6,0.5-0.6c0.3,0,0.5,0.2,0.5,0.6c0,0.1,0,0.2,0,0.3
		c0,0.6,0,1.1,0,1.7c0.1,0,0.1,0,0.2,0C23.5,39.1,24.1,39.1,24.5,39.1z"/>
	<path fill="#FFFFFF" d="M17.5,21.1c0,0.4,0,0.8,0,1.3c0,0.4-0.1,0.5-0.5,0.5c-0.8,0-1.6,0-2.4,0c-0.3,0-0.5-0.2-0.5-0.5
		c0-0.8,0-1.7-0.1-2.5c0-0.4,0.2-0.5,0.5-0.6c0.8,0,1.6,0,2.4,0c0.4,0,0.5,0.2,0.5,0.5C17.5,20.2,17.5,20.6,17.5,21.1z"/>
	<path fill="#FFFFFF" d="M24.1,21c0,0.4,0,0.8,0,1.2c0,0.4-0.1,0.6-0.6,0.6c-0.8,0-1.6,0-2.3,0c-0.4,0-0.6-0.1-0.6-0.6
		c0-0.8,0-1.6,0-2.4c0-0.4,0.1-0.6,0.6-0.6c0.8,0,1.6,0,2.3,0c0.4,0,0.6,0.2,0.5,0.6C24.1,20.2,24.1,20.6,24.1,21z"/>
	<path fill="#FFFFFF" d="M28.8,22.8c-0.4,0-0.8,0-1.2,0c-0.3,0-0.5-0.2-0.5-0.5c0-0.8,0-1.6,0-2.5c0-0.4,0.2-0.5,0.5-0.5
		c0.8,0,1.6,0,2.5,0c0.3,0,0.5,0.2,0.5,0.5c0,0.8,0,1.7-0.1,2.5c0,0.4-0.2,0.5-0.5,0.5C29.6,22.8,29.2,22.8,28.8,22.8z"/>
	<path fill="#FFFFFF" d="M15.8,25.9c0.4,0,0.8,0,1.2,0c0.3,0,0.5,0.2,0.5,0.5c0,0.8,0,1.6,0,2.5c0,0.4-0.1,0.5-0.5,0.5
		c-0.8,0-1.6,0-2.4,0c-0.3,0-0.5-0.2-0.5-0.5c0-0.8,0-1.7,0-2.5c0-0.4,0.2-0.5,0.5-0.5C15,25.9,15.4,25.9,15.8,25.9z"/>
	<path fill="#FFFFFF" d="M20.7,27.6c0-0.4,0-0.8,0-1.2c0-0.4,0.1-0.6,0.5-0.6c0.8,0,1.6,0,2.4,0c0.3,0,0.5,0.2,0.5,0.6
		c0,0.8,0,1.6,0,2.5c0,0.4-0.1,0.5-0.5,0.6c-0.8,0-1.5,0-2.3,0c-0.3,0-0.5-0.2-0.5-0.6C20.7,28.4,20.7,28,20.7,27.6z"/>
	<path fill="#FFFFFF" d="M28.7,29.3c-0.4,0-0.8,0-1.1,0c-0.4,0-0.5-0.1-0.5-0.6c0-0.8,0-1.6,0-2.5c0-0.4,0.2-0.5,0.5-0.5
		c0.8,0,1.6,0,2.4,0c0.3,0,0.5,0.2,0.5,0.6c0,0.8,0,1.7,0,2.4c0,0.4-0.2,0.5-0.5,0.5C29.5,29.3,29.1,29.3,28.7,29.3z"/>
	<path fill="#FFFFFF" d="M15.8,36.2c-0.4,0-0.8,0-1.2,0c-0.3,0-0.5-0.2-0.5-0.6c0-0.8,0-1.7,0-2.5c0-0.4,0.1-0.5,0.5-0.5
		c0.8,0,1.6,0,2.4,0c0.3,0,0.5,0.2,0.5,0.5c0,0.8,0,1.6,0,2.5c0,0.4-0.1,0.5-0.5,0.5C16.7,36.1,16.2,36.1,15.8,36.2z"/>
	<path fill="#FFFFFF" d="M28.7,32.6c0.4,0,0.8,0,1.2,0c0.3,0,0.5,0.1,0.5,0.5c0,0.8,0,1.7,0,2.5c0,0.4-0.2,0.5-0.5,0.6
		c-0.8,0-1.6,0-2.4,0c-0.3,0-0.5-0.2-0.5-0.5c0-0.8,0-1.6,0-2.5c0-0.4,0.2-0.5,0.5-0.5C28,32.6,28.3,32.6,28.7,32.6z"/>
</g>
<path fill="#FFFFFF" d="M39.9,23.4c-0.1-0.2-0.2-0.3-0.4-0.3c-0.2,0-0.4,0.1-0.6,0.1c0-0.1,0.1-0.1,0.1-0.1c0.3-0.7,0.4-1.3,0.1-2
	c-0.2-0.6-0.5-1.1-0.9-1.5c-0.5-0.5-0.9-1-1.4-1.5c-0.2-0.2-0.3-0.4-0.4-0.6c-0.1-0.2-0.1-0.5,0-0.6s0.2-0.3,0.3-0.5
	c0.3-0.4,0.7-0.8,1.1-1.2c0.4-0.5,0.9-0.9,1.3-1.5c0.6-0.8,0.7-1.7,0.2-2.6l0-0.1c0.3,0,0.5,0,0.7,0c0.2,0,0.3-0.1,0.5-0.2
	c0.2-0.3-0.1-0.6-0.4-0.6c-2.8-0.3-5.7-0.2-8.4,0.1c-0.1,0-0.1,0-0.1,0c-0.2,0.1-0.3,0.3-0.3,0.5c0.1,0.2,0.2,0.3,0.5,0.3
	c0.3,0,0.5-0.1,0.8-0.1c0,0.1-0.1,0.1-0.1,0.1c-0.4,0.7-0.3,1.5,0.1,2.2c0.3,0.5,0.6,1,1.1,1.4c0.5,0.5,1,1,1.5,1.5
	c0.2,0.2,0.3,0.4,0.4,0.6c0.1,0.2,0.1,0.5,0,0.6c-0.1,0.1-0.1,0.3-0.2,0.3c-0.4,0.5-0.7,0.9-1.1,1.3c-0.4,0.5-0.9,1-1.2,1.7
	c-0.3,0.7-0.4,1.4-0.1,2.1c0.1,0.1,0.1,0.2,0.1,0.3c-0.2,0-0.5,0-0.7,0c-0.2,0-0.3,0.1-0.4,0.3c-0.1,0.2,0.1,0.3,0.2,0.5
	c0,0,0.1,0,0.1,0.1c2.5,0.2,5,0.3,7.5-0.1l0,0C39.8,23.7,39.9,23.6,39.9,23.4z M34.8,14.7c-0.1-0.1-0.2-0.3-0.2-0.5
	c0-0.2,0.1-0.3,0.3-0.3c0.3,0,0.7,0,1,0c0.3,0,0.6,0,1,0c0.2,0,0.3,0.2,0.3,0.4c-0.1,0.2-0.2,0.3-0.3,0.5c-0.3,0.3-0.6,0.6-0.8,0.9
	c-0.1,0.1-0.2,0.1-0.3,0C35.4,15.4,35,15,34.8,14.7z M37.3,22.5c-0.5,0-1,0-1.4,0c-0.5,0-0.9,0-1.4,0c-0.3,0-0.5-0.2-0.4-0.6
	c0.1-0.3,0.2-0.5,0.3-0.7c0.4-0.5,0.8-0.9,1.2-1.4c0.1-0.2,0.3-0.2,0.5,0c0.5,0.5,0.9,1,1.3,1.5c0.1,0.2,0.2,0.4,0.3,0.7
	C37.7,22.2,37.5,22.5,37.3,22.5z"/>
</svg>
