<?xml version="1.0" encoding="utf-8"?>
<!-- Generator: Adobe Illustrator 23.0.0, SVG Export Plug-In . SVG Version: 6.00 Build 0)  -->
<svg version="1.0" id="Layer_1" xmlns="http://www.w3.org/2000/svg" xmlns:xlink="http://www.w3.org/1999/xlink" x="0px" y="0px"
	 viewBox="0 0 50 50" enable-background="new 0 0 50 50" xml:space="preserve">
<g>
	<path fill="#FFFFFF" d="M24.8,34.3c0.1-0.1,0.2-0.1,0.3-0.1c0.3,0,9.4,0.1,12.1,0.1c0.2,0,0.3,0.1,0.4,0.2c0.1,0.3,0,0.6-0.3,0.7
		c-0.1,0-0.1,0-0.1,0C34.2,35,28.4,35,25.3,35c-0.1,0-0.1,0-0.2,0c-0.2,0-0.3-0.1-0.5-0.3C24.6,34.6,24.6,34.5,24.8,34.3z"/>
	<path fill="#FFFFFF" d="M38.6,35.7c-0.2,0.2-0.4,0.5-0.7,0.7c-0.1,0.1-0.3,0.1-0.5,0c-0.1-0.1-0.2-0.4-0.1-0.5
		c0-0.1,0.1-0.1,0.1-0.1c0.2-0.2,0.4-0.4,0.5-0.6c0.3-0.3,0.2-0.6,0-0.9c-0.2-0.2-0.4-0.4-0.6-0.6c-0.2-0.2-0.2-0.5-0.1-0.6
		c0.1-0.2,0.4-0.2,0.6,0c0.5,0.5,0.9,0.9,1.3,1.4c0.1,0.2,0.1,0.4,0,0.5C39,35.2,38.8,35.5,38.6,35.7L38.6,35.7z"/>
</g>
<path fill="#FFFFFF" d="M26.8,13.6c0.6,0.1,1.2,0.1,1.8,0.1c2.9,0.2,5.8,0.6,8.6,1.7c0.8,0.3,1.5,0.8,2.1,1.5
	c0.5,0.6,0.7,1.4,0.6,2.3c-0.1,0.8-0.2,1.6-0.3,2.4c0-0.4,0.1-0.7,0.1-1.1c-0.1,0.8-0.1,1.6-0.2,2.4c0,0.1,0,0.2,0,0.3
	c-0.1,0.4-0.3,0.6-0.7,0.6c-0.3,0-0.5-0.2-0.5-0.6c0-0.1,0-0.2,0-0.3c0-0.5,0.1-1.3,0.1-1.7c-0.1,0.7-0.1,1.5-0.1,2.2
	c0-0.4,0.1-1.3,0.1-1.7c0-0.1,0-0.3,0-0.4h-0.1c-1.6,1.2-3.2,1.9-5.1,2.4c-3.1,0.7-6.2,1-9.4,0.9c-3.1-0.1-6-0.5-9-1.4
	c-1.4-0.4-2.6-1.1-3.7-2c0,0.2,0,0.3,0.1,0.5c0.1,1,0.1,1.9,0.1,2.9c0-0.4,0-0.8-0.1-1.2c0.1,1,0.1,1.9,0.1,2.9
	c0,0.8,0.3,1.4,0.8,1.9c1,0.7,1.8,1.1,2.9,1.5c2.1,0.7,4.3,0.9,6.5,1.1c2.5,0.1,4.9,0.1,7.3-0.1c2.5-0.3,4.8-0.7,7.1-1.7
	c0.6-0.3,1.1-0.7,1.7-1.1c0.5-0.4,0.6-0.9,0.6-1.5c0-1,0-0.3,0-1.3c0-0.5,0.2-0.7,0.5-0.7c0.3,0,0.5,0.2,0.5,0.7c0,1.1,0,0.5,0,1.5
	c0,0.9-0.3,1.5-0.9,2.1c-1,0.9-1.7,1.3-2.9,1.8c-1.9,0.6-3.9,1-5.9,1.2c-2.4,0.2-4.9,0.3-7.3,0.2c-2.9-0.1-5.7-0.5-8.6-1.5
	C13,30,12,29.4,11.4,28.7c-0.6-0.6-0.9-1.4-0.9-2.3c0-1.3-0.1-2.5-0.1-3.7c0,0.1,0,0.3,0,0.4c-0.1-1.3-0.2-2.5-0.3-3.8
	c-0.1-1,0.1-2.1,0.9-2.8c0.7-0.6,1.7-1.1,2.5-1.4c0.3-0.1,0.6,0,0.7,0.3c0.1,0.3,0.1,0.5-0.2,0.7c-0.5,0.3-1.1,0.4-1.5,0.7
	c-0.5,0.3-0.9,0.6-1.1,1.1c-0.5,0.7-0.4,1.4,0.3,2.1c0.6,0.7,1.3,1.1,2,1.5c1.8,0.8,3.7,1.3,5.6,1.7c2.9,0.4,5.6,0.5,8.5,0.3
	c2.9-0.3,5.5-0.7,8.1-1.8c0.7-0.3,1.5-0.8,2.2-1.3c0.9-0.7,1.2-1.9,0.3-2.7c-0.7-0.7-1.7-1.3-2.7-1.5c-2.1-0.6-4.2-1-6.3-1.2
	c-2.6-0.2-5.3-0.3-7.9-0.1c-1.5,0.1-3.1,0.4-4.7,0.5c-0.2,0-0.5,0-0.7-0.1c-0.1-0.1-0.3-0.4-0.3-0.5c0.1-0.2,0.3-0.3,0.5-0.4
	c0.8-0.1,1.6-0.3,2.5-0.4c1.4-0.1,2.8-0.2,4.2-0.3c0.1,0,0.2,0,0.3-0.1C24.4,13.6,25.6,13.6,26.8,13.6z"/>
</svg>
