<?xml version="1.0" encoding="utf-8"?>
<!-- Generator: Adobe Illustrator 23.0.0, SVG Export Plug-In . SVG Version: 6.00 Build 0)  -->
<svg version="1.0" id="Layer_1" xmlns="http://www.w3.org/2000/svg" xmlns:xlink="http://www.w3.org/1999/xlink" x="0px" y="0px"
	 viewBox="0 0 50 50" enable-background="new 0 0 50 50" xml:space="preserve">
<path fill="#FFFFFF" d="M38.5,37.2c-0.5,0.7-0.9,0.9-1.4,0.9c-7.9,0.7-16.4,0.7-24.3,0c-0.8-0.1-1.2-0.5-1.6-1.4
	c-0.4-0.9-0.7-1.9-1.1-2.9c-0.2-0.5-0.1-0.9,0.1-1.1c1.2-1.9,2.8-3.8,4.7-5.8c0.3-0.3,0.7-0.5,1.2-0.5c0.3,0,0.5,0,0.9,0
	c-0.1-1.2-0.3-2.3-0.4-3.5c-0.8,0.2-1.3-0.3-1.7-0.7c-0.1-0.1-0.3-0.3-0.3-0.3c-0.7-0.7-0.7-1.3-0.1-1.9c1.3-1.2,2.7-2.5,4.1-3.7
	c1.7-1.5,3.6-3.1,5.5-4.6c0.7-0.6,1.4-0.6,2.1,0c1.1,0.9,2.1,1.7,3.1,2.6c0.1,0.1,0.2,0.1,0.3,0.3c0-0.2,0-0.3,0.1-0.4
	c0.1-0.6,0.6-1.1,1.3-1.1c0.7,0,1.3,0,1.9,0.1c0.9,0.1,1.3,0.5,1.3,1.3c-0.1,0.9,0,1.7-0.2,2.6c-0.2,1,0.1,1.7,0.9,2.3
	c0.3,0.2,0.6,0.5,0.9,0.8c0.5,0.5,0.5,1.2-0.1,1.8c-0.2,0.2-0.5,0.4-0.7,0.6c-0.5,0.5-0.8,0.6-1.5,0.5c-0.1,1.1-0.3,2.3-0.4,3.5
	c0.3,0,0.7,0,1,0c0.5,0,0.8,0.1,1.1,0.5c1.7,1.9,3.3,3.8,4.5,5.6c0.2,0.3,0.4,0.5,0.3,0.9C39.5,34.7,39,36,38.5,37.2z M24.9,15.7
	c-0.1,0.1-0.1,0.1-0.1,0.1c-2.5,2-4.8,4.1-7,6.1c-0.1,0.1-0.1,0.3-0.1,0.5c0.2,2.5,0.5,5,0.7,7.5c0.1,0.6,0.3,0.8,0.8,0.8
	c0.7,0,1.4,0,2.1,0c0.3,0,0.5,0,0.9,0c0-0.2,0-0.3,0-0.4c-0.1-1.4-0.1-2.8-0.2-4.1c-0.1-1.1,0.7-1.9,1.8-1.9c0.7,0,1.3,0,2.1,0
	c1.3,0,2,0.7,1.9,2s-0.1,2.7-0.2,4c0,0.1,0,0.3,0,0.3c0.1,0,0.1,0.1,0.1,0.1c1,0,2,0,3,0c0.4,0,0.6-0.3,0.7-0.7
	c0.3-2.5,0.5-5,0.7-7.5c0-0.1-0.1-0.3-0.2-0.5c-0.5-0.5-1-0.9-1.5-1.4C28.7,18.9,26.9,17.3,24.9,15.7z M11,33.7
	c9.3,0.3,18.5,0.3,27.8,0c0-0.1,0-0.1,0-0.1c-1.3-1.9-2.9-3.9-4.7-5.9c-0.1-0.1-0.1-0.1-0.2-0.1c-0.3,0-0.7,0-1.1,0
	c-0.1,0.7-0.2,1.4-0.3,2.1c-0.1,0.3-0.1,0.5-0.2,0.7c-0.3,0.8-1,1.3-1.8,1.3c-3.7,0.1-7.5,0.1-11.2,0c-0.1,0-0.1,0-0.2,0
	c-0.9-0.1-1.6-0.7-1.8-1.7c-0.1-0.5-0.1-1-0.2-1.5c-0.1-0.3-0.1-0.5-0.1-0.8c-0.3,0-0.5,0-0.7,0c-0.3-0.1-0.6,0.1-0.8,0.3
	c-1.2,1.3-2.3,2.7-3.3,3.9C11.9,32.5,11.4,33,11,33.7z M38.5,34.8c-9.1,0.3-18,0.3-27.1,0c0.2,0.7,0.5,1.5,0.7,2.2
	c8.7,0.5,16.9,0.5,25.5,0C37.9,36.3,38.2,35.6,38.5,34.8z M16,21.9c0.1-0.1,0.2-0.2,0.3-0.3c1.1-1.1,2.3-2.2,3.6-3.3
	c1.4-1.3,2.9-2.5,4.4-3.7c0.5-0.4,0.7-0.4,1.2,0c0.1,0,0.1,0.1,0.1,0.1c2.5,2.1,4.9,4.1,7.1,6.2c0.3,0.3,0.7,0.7,1.1,1
	c0.3-0.3,0.6-0.6,0.9-0.9c-3-2.9-6.3-5.7-9.9-8.5c-3.5,2.9-6.9,5.7-9.9,8.5C15.4,21.3,15.7,21.5,16,21.9z M26.5,30.6
	c0-0.1,0.1-0.1,0.1-0.1c0.1-1.5,0.1-3,0.1-4.5c0-0.4-0.2-0.6-0.7-0.6c-0.7,0-1.3,0-2.1,0c-0.6,0-0.8,0.2-0.8,0.8
	c0,1.4,0.1,2.7,0.1,4.1c0,0.1,0,0.2,0,0.3C24.4,30.6,25.5,30.6,26.5,30.6z M32.7,14.3c-0.7,0-1.3-0.1-1.9-0.1c0,0.5-0.1,0.9-0.1,1.3
	c0,0.1,0,0.1,0.1,0.2c0.6,0.5,1.1,1,1.7,1.5C32.6,16.2,32.7,15.3,32.7,14.3z"/>
</svg>
