<?xml version="1.0" encoding="utf-8"?>
<!-- Generator: Adobe Illustrator 23.0.0, SVG Export Plug-In . SVG Version: 6.00 Build 0)  -->
<svg version="1.0" id="Layer_1" xmlns="http://www.w3.org/2000/svg" xmlns:xlink="http://www.w3.org/1999/xlink" x="0px" y="0px"
	 viewBox="0 0 50 50" enable-background="new 0 0 50 50" xml:space="preserve">
<path fill="#FFFFFF" d="M17.1,39.6c0-0.3,0-0.7,0-1.1c0.3,0,0.6,0.1,1.1,0.1c-0.2-11.8-0.1-16.5-0.6-28.4c5.3-0.4,9.8-0.2,15.1,0.2
	c-0.6,11.8-0.7,16.4-0.8,28.2c0.3,0,0.7-0.1,1.1-0.1c0,0.4,0,0.8,0,1.1C27.5,40.1,22.4,40.1,17.1,39.6z M30.8,36.4
	C31,25.6,31,22.2,31.4,11.5c-4.5-0.2-8-0.4-12.5-0.2c0.4,10.8,0.1,14.3,0.3,25.1c1.2,0.1,2.4,0.1,3.6,0.2c0,0.4,0,0.7,0,1.1
	c-1.2,0-2.4-0.1-3.6-0.2c0,0.4,0,0.7,0,1.1c1.4,0.1,2.8,0.2,4.2,0.2c0-1.1,0-2.3,0-3.4c1.1,0,2.1,0,3.2,0c0,1.1,0,2.3,0,3.4
	c1.4,0,2.8-0.1,4.2-0.2c0-0.4,0-0.7,0-1.1c-1.2,0.1-2.4,0.1-3.6,0.2c0-0.4,0-0.7,0-1.1C28.4,36.5,29.6,36.4,30.8,36.4z M25.4,36.5
	c-0.4,0-0.7,0-1.1,0c0,0.8,0,1.5,0,2.3c0.3,0,0.7,0,1.1,0C25.4,38,25.4,37.3,25.4,36.5z M19.8,13.9c0.4,0,0.7,0,1.1,0
	c0,0.6,0,1.1,0,1.7c-0.3,0-0.7,0-1.1,0C19.8,15,19.8,14.5,19.8,13.9z M23.2,13.9c0,0.6,0,1.1,0,1.7c-0.3,0-0.7,0-1.1,0
	c0-0.6,0-1.1,0-1.7C22.5,13.9,22.9,13.9,23.2,13.9z M24.4,15.6c0-0.6,0-1.1,0-1.7c0.4,0,0.7,0,1.1,0c0,0.6,0,1.1,0,1.7
	C25.1,15.6,24.8,15.6,24.4,15.6z M26.7,13.9c0.4,0,0.7,0,1.1,0c0,0.6,0,1.1,0,1.7c-0.3,0-0.7,0-1.1,0C26.7,15,26.7,14.5,26.7,13.9z
	 M29,13.9c0.4,0,0.7,0,1.1,0c0,0.6,0,1.1-0.1,1.7c-0.3,0-0.7,0-1.1,0C29,15,29,14.5,29,13.9z M20.9,16.8c0,0.6,0,1.1,0,1.7
	c-0.3,0-0.7,0-1.1,0c0-0.6,0-1.1-0.1-1.7C20.2,16.8,20.6,16.8,20.9,16.8z M22.1,16.8c0.3,0,0.7,0,1.1,0c0,0.6,0,1.1,0,1.7
	c-0.3,0-0.7,0-1.1,0C22.1,17.9,22.1,17.4,22.1,16.8z M25.5,18.5c-0.3,0-0.7,0-1.1,0c0-0.6,0-1.1,0-1.7c0.3,0,0.7,0,1.1,0
	C25.5,17.3,25.5,17.9,25.5,18.5z M27.8,18.5c-0.4,0-0.7,0-1.1,0c0-0.6,0-1.1,0-1.7c0.3,0,0.7,0,1.1,0C27.8,17.4,27.8,17.9,27.8,18.5
	z M30.1,16.8c0,0.6,0,1.1-0.1,1.7c-0.3,0-0.7,0-1.1,0c0-0.6,0-1.1,0-1.7C29.3,16.8,29.7,16.8,30.1,16.8z M21,21.3
	c-0.3,0-0.7,0-1.1,0c0-0.6,0-1.1,0-1.7c0.3,0,0.7,0,1.1,0C21,20.2,21,20.8,21,21.3z M23.3,21.4c-0.4,0-0.7,0-1.1,0
	c0-0.6,0-1.1,0-1.7c0.3,0,0.7,0,1.1,0C23.3,20.2,23.3,20.8,23.3,21.4z M25.5,21.3c-0.4,0-0.7,0-1.1,0c0-0.6,0-1.1,0-1.7
	c0.3,0,0.7,0,1.1,0C25.5,20.2,25.5,20.8,25.5,21.3z M27.7,19.7c0,0.6,0,1.1,0,1.7c-0.3,0-0.7,0-1.1,0c0-0.6,0-1.1,0-1.7
	C27.1,19.6,27.4,19.7,27.7,19.7z M28.9,19.6c0.3,0,0.7,0,1.1,0c0,0.6,0,1.1,0,1.7c-0.3,0-0.7,0-1.1,0C28.9,20.8,28.9,20.3,28.9,19.6
	z M21.1,24.3c-0.3,0-0.7,0-1.1,0c0-0.6,0-1.1,0-1.7c0.3,0,0.7,0,1.1,0C21.1,23.1,21.1,23.7,21.1,24.3z M22.2,24.3c0-0.6,0-1.1,0-1.7
	c0.3,0,0.7,0,1.1,0c0,0.6,0,1.1,0,1.7C22.9,24.3,22.6,24.3,22.2,24.3z M25.5,22.6c0,0.6,0,1.1,0,1.7c-0.3,0-0.7,0-1.1,0
	c0-0.6,0-1.1,0-1.7C24.8,22.6,25.1,22.6,25.5,22.6z M27.7,24.3c-0.3,0-0.6,0-1.1,0c0-0.6,0-1.1,0-1.7c0.3,0,0.6,0,1.1,0
	C27.7,23.1,27.7,23.7,27.7,24.3z M28.8,22.6c0.3,0,0.7,0,1.1,0c0,0.6,0,1.1,0,1.7c-0.3,0-0.7,0-1.1,0C28.8,23.7,28.8,23.1,28.8,22.6
	z M21.1,25.5c0,0.6,0,1.1,0,1.7c-0.3,0-0.6,0-1.1,0c0-0.6,0-1.1,0-1.7C20.4,25.5,20.8,25.5,21.1,25.5z M22.3,27.2c0-0.6,0-1.1,0-1.7
	c0.3,0,0.6,0,1.1,0c0,0.6,0,1.1,0,1.7C22.9,27.2,22.6,27.2,22.3,27.2z M24.5,27.2c0-0.6,0-1.1,0-1.7c0.3,0,0.6,0,1.1,0
	c0,0.6,0,1.1,0,1.7C25.1,27.2,24.8,27.2,24.5,27.2z M26.7,25.5c0.3,0,0.7,0,1.1,0c0,0.6,0,1.1,0,1.7c-0.3,0-0.6,0-1.1,0
	C26.7,26.6,26.7,26,26.7,25.5z M20.1,28.3c0.3,0,0.6,0,1.1,0c0,0.6,0,1.1,0,1.7c-0.3,0-0.6,0-1.1,0C20.1,29.4,20.1,29,20.1,28.3z
	 M23.3,28.4c0,0.6,0,1.1,0,1.7c-0.3,0-0.6,0-1.1,0c0-0.6,0-1.1,0-1.7C22.6,28.4,22.9,28.4,23.3,28.4z M24.5,28.4c0.3,0,0.6,0,1.1,0
	c0,0.6,0,1.1,0,1.7c-0.3,0-0.6,0-1.1,0C24.5,29.5,24.5,29,24.5,28.4z M26.6,28.4c0.3,0,0.6,0,1.1,0c0,0.6,0,1.1,0,1.7
	c-0.3,0-0.6,0-1.1,0C26.6,29.5,26.6,29,26.6,28.4z M29.8,30c-0.3,0-0.6,0-1.1,0c0-0.6,0-1.1,0-1.7c0.3,0,0.6,0,1.1,0
	C29.8,28.9,29.8,29.4,29.8,30z M29.9,25.5c0,0.6,0,1.1,0,1.7c-0.3,0-0.6,0-1.1,0c0-0.6,0-1.1,0-1.7C29.2,25.5,29.5,25.5,29.9,25.5z
	 M23.3,33c-0.3,0-0.6,0-1,0c0-0.6,0-1.1,0-1.7c0.3,0,0.6,0,1,0C23.3,31.9,23.3,32.4,23.3,33z M24.5,31.3c0.3,0,0.6,0,1,0
	c0,0.6,0,1.1,0,1.7c-0.3,0-0.6,0-1,0C24.5,32.4,24.5,31.9,24.5,31.3z M27.6,33c-0.3,0-0.6,0-1.1,0c0-0.6,0-1.1,0-1.7
	c0.3,0,0.6,0,1.1,0C27.6,31.9,27.6,32.4,27.6,33z M29.7,31.2c0,0.6,0,1.1,0,1.7c-0.3,0-0.6,0-1.1,0c0-0.6,0-1.1,0-1.7
	C29.1,31.2,29.4,31.2,29.7,31.2z M20.2,31.2c0.3,0,0.6,0,1,0c0,0.6,0,1.1,0,1.7c-0.3,0-0.6,0-1,0C20.2,32.4,20.2,31.8,20.2,31.2z"/>
</svg>
