<?xml version="1.0" encoding="utf-8"?>
<!-- Generator: Adobe Illustrator 23.0.0, SVG Export Plug-In . SVG Version: 6.00 Build 0)  -->
<svg version="1.0" id="Layer_1" xmlns="http://www.w3.org/2000/svg" xmlns:xlink="http://www.w3.org/1999/xlink" x="0px" y="0px"
	 viewBox="0 0 50 50" enable-background="new 0 0 50 50" xml:space="preserve">
<path fill="#FFFFFF" d="M38.3,38.2c0-0.1-0.3-0.5-0.6-0.7c-0.3-0.2-0.7,0-0.9,0.1c-1.2,0.5-2.3,0.5-3.2,0c-1.2-0.6-2.3-0.8-3.4-0.5
	c0-0.9,0.1-1.8,0.2-2.6h4c0.7,0,1.2-0.4,1.2-0.9c0.1-0.2,0-0.4-0.1-0.6c-0.2-0.2-0.5-0.4-1-0.4h-4c-0.1-0.5-0.1-1-0.1-1.5
	c0-1.5,1.4-2.7,3.1-2.8c1.6,0,3.2,1,3.2,2.8c0,0.5,0.5,0.9,1,0.9c0.6,0,1-0.4,1-1c0-1.1-0.4-2.2-1.1-3c-0.9-1-2.3-1.5-3.8-1.5
	c-1.7,0-3.2,0.6-4.2,1.6c-0.8,0.8-1.2,1.8-1.1,3c0,0.3,0,0.6,0,0.9c0,0.2,0,0.4,0,0.6h-1.2c-0.6,0-1,0.4-1,0.9
	c0,0.5,0.5,0.9,1.1,0.9h1.1c0.1,1.5-0.1,2.8-0.6,4.2c-0.1,0.5,0,0.9,0.5,1.1c0.1,0.1,0.3,0.1,0.4,0.1c0.2,0,0.5-0.1,0.7-0.4
	c0.9-0.9,1.7-1.1,2.8-0.5c0.1,0.1,0.3,0.1,0.4,0.2c0.3,0.1,0.6,0.3,0.9,0.3c1.2,0.4,2.5,0.3,3.9-0.4C38.1,39.1,38.5,38.7,38.3,38.2z
	"/>
<path fill="#FFFFFF" d="M23.1,29.3c-0.8-1.7-2.9-2.9-4.8-2.5c-2.3,0.5-3.9,1.9-4.7,4c-0.1,0.2-0.1,0.2-0.2,0.2h-1.3
	c-0.6,0-1,0.4-1,0.9c0,0.5,0.4,0.9,1,0.9h0.9v0.9h-1c-0.5,0-0.9,0.4-0.9,0.9c0,0.5,0.4,0.9,0.9,0.9h1.2c0,0,0.1,0,0.1,0
	c0,0,0,0,0.1,0.1l0.3,0.9c0.9,1.9,2.5,3.2,4.2,3.3c0.2,0,0.3,0,0.5,0c1.4,0,2.8-0.8,3.9-2.2c0.4-0.7,0.2-1.2,0-1.5
	c-0.2-0.2-0.4-0.3-0.6-0.2c-0.3,0-0.5,0.2-0.7,0.5c-0.7,1-1.6,1.5-2.6,1.5c0,0,0,0,0,0c-0.9,0-1.8-0.5-2.5-1.4
	c-0.2-0.3-0.4-0.6-0.5-1c0,0,0-0.1,0-0.1c0.5,0,1,0,1.4,0c0.5,0,1,0,1.6,0c0.9,0,1-0.6,1-0.9c0-0.6-0.4-1-1-1c-0.5,0-1.1,0-1.6,0
	c-0.5,0-1.1,0-1.6,0h-0.1c0-0.3,0.1-0.6,0.1-0.9h0.1c0.6,0,1.1,0,1.7,0c0.6,0,1.1,0,1.7,0c0.4,0,0.7-0.2,0.9-0.5
	c0.2-0.3,0.2-0.6,0-1c-0.2-0.2-0.6-0.5-0.8-0.5c0,0,0,0,0,0c-1-0.1-2-0.1-3-0.1c0.7-1.5,2.5-2.5,3.9-2.1c1,0.2,1.7,0.7,2.1,1.6
	c0.1,0.3,0.3,0.4,0.6,0.5c0.2,0.1,0.5,0,0.6-0.1c0.3-0.1,0.4-0.3,0.5-0.6C23.3,29.8,23.3,29.6,23.1,29.3z"/>
<path fill="#FFFFFF" d="M27.9,18.6c-0.3-0.2-0.7-0.4-1.1-0.5c-0.2-0.1-0.5-0.2-0.8-0.4c0-1.1-0.1-2.3-0.2-3.5
	c0.8,0.2,1.4,0.8,1.5,1.7c0.1,0.6,0.5,0.9,1,0.9c0,0,0,0,0,0c0.6-0.1,0.9-0.6,0.8-1.1c-0.1-0.8-0.4-1.4-0.9-2.1
	c-0.6-0.7-1.4-1.1-2.3-1.3c-0.2-0.1-0.2-0.1-0.2-0.3c0-0.2,0-0.4-0.1-0.6c0-0.1,0-0.3,0-0.4c-0.1-0.6-0.5-1-1-1
	c-0.5,0-0.8,0.4-0.8,1c0,0.2,0,0.4,0,0.6c0,0.2,0,0.3,0,0.5c-2,0.6-3.1,1.8-3.3,3.8c0.1,1.7,1.3,2.9,3.5,3.6c0,0.6,0.1,1.2,0.1,1.9
	c0,0.6,0,1.1,0.1,1.7c-0.8-0.3-1.3-0.9-1.4-1.7c-0.1-0.4-0.2-0.6-0.5-0.8c-0.2-0.1-0.4-0.1-0.6-0.1c-0.5,0.1-0.8,0.6-0.7,1.2
	c0.3,1.3,1,2.3,2.3,3c0.2,0.1,0.5,0.2,0.7,0.2c0.2,0,0.3,0.1,0.5,0.1c0.1,0.4,0.1,0.8,0.1,1.2c0.1,0.5,0.5,0.9,0.9,0.9
	c0.4,0,0.8-0.4,0.8-1v-1c0-0.2,0-0.2,0.1-0.3c0.5-0.2,1.1-0.4,1.6-0.8c0.8-0.7,1.3-1.6,1.3-2.6C29.3,20.4,28.8,19.4,27.9,18.6z
	 M27.7,21.2c0,0.8-0.6,1.5-1.4,1.7c0-1.2-0.1-2.2-0.2-3.3C27,19.7,27.6,20.4,27.7,21.2z M22.7,15.7c0-0.4,0.1-0.8,0.4-1.1
	c0.3-0.3,0.6-0.5,1-0.6l0,0c0.1,1.2,0.2,2.2,0.2,3.4C23.4,17.2,22.7,16.5,22.7,15.7z"/>
</svg>
