<?xml version="1.0" encoding="utf-8"?>
<!-- Generator: Adobe Illustrator 23.0.0, SVG Export Plug-In . SVG Version: 6.00 Build 0)  -->
<svg version="1.0" id="Layer_1" xmlns="http://www.w3.org/2000/svg" xmlns:xlink="http://www.w3.org/1999/xlink" x="0px" y="0px"
	 viewBox="0 0 50 50" enable-background="new 0 0 50 50" xml:space="preserve">
<path fill="#FFFFFF" d="M39.8,25.4c-0.2-1.2-1-2.1-2.2-2.1c-0.2,0-0.5,0-0.7,0c-0.1-0.8-0.3-1.4-0.9-1.8c-0.1,0-0.1-0.2-0.1-0.3
	c0-0.6,0-1.2,0-1.9c0-1.5-0.9-2.5-2.4-2.5c-3.2,0-6.4,0.1-9.6,0.1c-0.2,0-0.3-0.1-0.4,0c-0.2,0.1-0.3,0.3-0.4,0.5
	c-0.1,0.2,0.1,0.5,0.3,0.5c0.2,0,0.2,0,0.4,0c2.2,0,4.5-0.1,6.7-0.1c1,0,2.1,0,3.1,0c0.5,0,1,0.4,1.1,0.9c0.1,0.7,0,1.5,0,2.2
	c-0.1,0-0.2,0-0.3,0c-1.3,0-2.7,0-4.1,0.1c-0.8,0-1.5,0.3-1.8,1c-0.2,0.4-0.4,0.9-0.5,1.4c-0.5,0-1.2,0-1.9,0c-0.1,0-0.2,0-0.2,0
	c-0.2-1.8-1.3-2.5-2.7-2.4c-1.2,0.1-2.6,0-3.8,0c-0.2,0-0.2,0-0.4,0c0-0.7,0-1.3,0-1.9c0-0.8,0.4-1.2,1.1-1.3c0.4,0,0.9,0,1.3,0
	c0.3,0,0.5-0.2,0.5-0.5c-0.1-0.3-0.2-0.5-0.5-0.5c-0.5,0-1-0.1-1.5,0c-1,0.1-1.8,1-1.8,2c0,0.5,0,1.1,0,1.6s0,1-0.4,1.5
	c-0.3,0.3-0.4,0.9-0.6,1.4l0.1,0.1c-0.2,0-0.2,0-0.3,0c-0.1-1-0.3-1.2-1.2-1.1c-0.2,0-0.2,0-0.4,0c-0.4,0-0.9,0-1.3,0
	c0-0.6,0-1.3,0-1.9c0.3,0,0.6,0,0.9,0c0.5-0.1,0.8-0.5,0.6-1c-0.2-0.7-0.4-1.4-0.6-2.1c-0.2-0.5-0.3-0.6-0.8-0.6c-0.5,0-1,0-1.5,0
	c-0.4,0-0.6,0.2-0.7,0.6c-0.1,0.7-0.4,1.3-0.5,2c-0.1,0.6,0.1,1,0.7,1c0.2,0,0.5,0,0.9,0c0,0.6,0,1.2,0,1.9c-0.6,0-1.2,0-1.9,0
	c-0.5,0-0.8,0.2-1,0.6c0,2.5-0.2,5,0,7.6c0.1,0.5,0.5,0.7,0.9,0.7c1.2,0,2.6,0,3.8,0.1c0.1,0,0.2,0,0.3,0c0.3,0,0.5-0.2,0.5-0.5
	c0.1-0.3-0.1-0.5-0.3-0.5c-0.1-0.1-0.2-0.1-0.4-0.1c-1.2-0.1-2.2,0-3.4-0.1c-0.2,0-0.2,0-0.4,0c-0.1-2.3,0-4.6,0.1-6.9
	c1.6,0.1,3.5,0.1,5,0.1c-0.1,0.1-0.1,0.2-0.1,0.2c-0.4,0.2-0.8,0.5-1.1,0.9c0,0.1-0.2,0.1-0.2,0.1c-0.6,0-1.2,0-1.8,0
	c-0.5,0-0.8,0.2-0.8,0.6c-0.1,0.4,0.2,0.5,0.7,0.5c0.5,0,1,0,1.5,0c-0.1,0.9-0.1,1.8-0.1,2.7c0,0.6,0.4,1,0.5,1.1
	c0.5,0.5,1,0.8,1.7,0.8c0.2,0,0.5,0,0.8,0c-0.1,0.5-0.4,0.9-0.5,1.4c-0.1,0.2-0.1,0.5-0.1,0.8c0.1,0.5,0.3,0.7,0.7,0.8
	c0.5,0.1,0.9,0,1.2-0.3c0.7-0.7,1.4-1.5,2.1-2.3c0.2-0.2,0.4-0.3,0.6-0.3c2.9,0,5.8,0,8.7,0c0.2,0,0.2,0,0.4,0
	c0.2,0,0.4-0.2,0.4-0.5c0-0.2-0.2-0.5-0.4-0.5c-0.2,0-0.3,0-0.5,0c-4.4,0.1-8.8,0.1-13.2,0c-0.8,0-1.2-0.4-1.2-1.3
	c0-0.7,0.1-1.3,0.1-2c0-0.8,0.4-1.2,1.1-1.3c7,0,14-0.1,21-0.3c0.8,0,1.2,0.4,1.3,1.2c0,0.7,0.1,1.4,0.1,2.1
	c0.1,0.8-0.4,1.2-1.1,1.3c-0.7,0.1-1.5,0.1-2.2,0.1c-1.1,0.1-2.2,0.1-3.2,0.1c-0.5,0-0.7,0.2-0.7,0.6c0,0.4,0.2,0.5,0.7,0.5
	c0.3,0,0.6,0,0.9,0c0.3-0.1,0.5,0,0.6,0.2c0.6,0.7,1.3,1.5,2,2.1c0.2,0.2,0.5,0.4,0.8,0.5c0.9,0.1,1.4-0.7,1.1-1.5
	c-0.2-0.5-0.4-1-0.6-1.5c0.4,0,0.7,0,1.1,0c1-0.1,1.8-1,1.8-2.1C39.9,27.1,39.9,26.3,39.8,25.4z M12.4,19.4c0.1-0.5,0.2-0.9,0.4-1.4
	c0-0.1,0.1-0.2,0.2-0.2l0.1,0c0.9,0,1,0,1.3,1c0,0.2,0.1,0.3,0.2,0.5C13.7,19.4,13.1,19.4,12.4,19.4z M18.1,30.4
	c0.1-0.1,0.2-0.2,0.2-0.2c0.2,0,0.5,0,0.9,0c-0.6,0.7-1.1,1.3-1.7,2c0-0.1-0.1-0.1-0.1-0.1C17.7,31.5,17.9,30.9,18.1,30.4z
	 M18.1,23.5c0-0.6,0.4-1.2,1.1-1.3c1.5,0,3,0,4.6-0.1c0.6,0,1.1,0.5,1.1,1.2C22.5,23.4,20.3,23.4,18.1,23.5z M29,23.3
	c-0.1-0.6,0.4-1.2,1-1.2c1.5,0,3.1,0,4.6-0.1c0.6,0,1,0.6,1,1.2C33.4,23.3,31.2,23.3,29,23.3z M34.7,30c0.4,0,0.6,0,0.9,0
	c0.1,0,0.2,0.1,0.2,0.2c0.2,0.5,0.4,0.9,0.6,1.4c0.1,0.1,0.1,0.2,0.1,0.3C35.9,31.3,35.3,30.7,34.7,30z"/>
</svg>
