<?xml version="1.0" encoding="utf-8"?>
<!-- Generator: Adobe Illustrator 23.0.0, SVG Export Plug-In . SVG Version: 6.00 Build 0)  -->
<svg version="1.0" id="Layer_1" xmlns="http://www.w3.org/2000/svg" xmlns:xlink="http://www.w3.org/1999/xlink" x="0px" y="0px"
	 viewBox="0 0 50 50" enable-background="new 0 0 50 50" xml:space="preserve">
<g>
	<path fill="#FFFFFF" d="M10,38.4c0-9.1,0.4-16.3,0.9-25.5c0.3-0.5,0.7-0.7,1.2-0.7c0.7-0.1,1.3-0.1,2-0.1c0.1,0,0.2,0,0.3,0
		c0-0.4,0-0.6,0.1-0.9c0-0.5,0.4-0.9,0.9-1c0.5,0,0.8,0.3,0.7,0.9c0,0.3,0,0.6,0,0.8c1.1-0.1,2.2-0.1,3.3-0.1c0-0.2,0-0.6,0-0.8
		c0-0.5,0.4-0.9,0.8-0.9c0.5,0,0.8,0.3,0.8,0.9c0,0.2,0,0.5,0,0.8c1.1,0,2.1,0,3.2,0c0-0.3,0-0.5,0-0.8c0-0.5,0.3-0.8,0.8-0.8
		c0.5,0,0.8,0.3,0.8,0.8c0,0.3,0,0.5,0,0.8c1.1,0,2.1,0,3.2,0c0-0.2,0-0.5,0-0.7c0-0.6,0.3-1,0.8-1c0.5,0,0.8,0.4,0.9,1
		c0,0.2,0,0.5,0,0.7c1.1,0,2.2,0.1,3.3,0.1c0-0.3,0-0.6,0-0.8c0-0.5,0.2-0.9,0.7-0.9c0.4,0,0.8,0.3,0.8,0.9c0,0.3,0.1,0.6,0.1,0.8
		c0.8,0,1.6,0.1,2.4,0.2c0.8,0,1.1,0.4,1.2,1.2c0.5,8.8,0.8,15.8,0.9,24.5c0.1,0.5,0,0.8-0.5,1.1c-9.4,1.2-19.6,1.2-29,0
		C10.3,38.9,10.1,38.7,10,38.4z M11.9,37.6c9.1,0.1,17.3,0.1,26.4,0c-0.7-5.9-0.5-12.6-0.6-18.8c-9.4,0-15.8,0-25.2,0
		C12.3,25,12.6,31.6,11.9,37.6z M19.3,13.4c-1.1,0-2.2,0.1-3.3,0.1c0,0.3,0,0.4,0,0.7c0,0.6-0.4,1-0.9,1c-0.5,0-0.8-0.3-0.8-0.9
		c0-0.2,0.1-0.5,0.1-0.7c-0.6,0.1-1.2,0.1-1.7,0.2c-0.1,1.1-0.1,2.2-0.2,3.2c9.1,0,15.9,0,25.1,0c0-1.1-0.1-2.2-0.2-3.2
		c-0.6-0.1-1.2-0.1-1.8-0.2c0,0.3,0,0.5,0,0.8c0,0.5-0.3,0.9-0.8,0.9c-0.5,0-0.9-0.4-0.9-0.9c0-0.3,0-0.5,0-0.8
		c-1.1,0-2.2-0.1-3.3-0.1c0,0.3,0,0.5,0,0.8c0,0.5-0.3,0.8-0.8,0.8c-0.5,0-0.8-0.4-0.8-0.9c0-0.3,0-0.5,0-0.8c-1.1,0-2.1,0-3.2,0
		c0,0.2,0,0.5,0,0.8c0,0.6-0.3,0.9-0.8,0.9c-0.5,0-0.8-0.4-0.8-0.9c0-0.3,0-0.5,0-0.7c-1.1,0-2.1,0-3.2,0c0,0.3,0,0.6,0,0.8
		c0,0.5-0.4,0.8-0.8,0.9c-0.5,0-0.9-0.3-0.8-0.8C19.3,14,19.4,13.8,19.3,13.4z"/>
	<path fill="#FFFFFF" d="M18.9,23.6c0,0.3,0,0.6,0,0.9c0,0.3-0.2,0.5-0.5,0.5c-0.6,0-1.2,0-1.8,0c-0.3,0-0.5-0.2-0.5-0.5
		c0-0.6,0-1.2,0-1.8c0-0.3,0.2-0.5,0.5-0.5c0.6,0,1.2-0.1,1.8-0.1c0.3,0,0.5,0.2,0.5,0.5C18.9,22.9,18.9,23.3,18.9,23.6z"/>
	<path fill="#FFFFFF" d="M25,22.2c0.3,0,0.6,0,0.8,0c0.3,0,0.5,0.2,0.5,0.5c0,0.6,0,1.2,0,1.8c0,0.3-0.2,0.5-0.5,0.5
		c-0.5,0-1.1,0-1.7,0c-0.3,0-0.5-0.2-0.5-0.5c0-0.6,0-1.2,0-1.8c0-0.3,0.2-0.5,0.5-0.5C24.4,22.2,24.7,22.2,25,22.2z"/>
	<path fill="#FFFFFF" d="M31.1,23.5c0-0.3,0-0.6,0-0.9c0-0.3,0.2-0.5,0.5-0.5c0.6,0,1.2,0,1.7,0.1c0.3,0,0.5,0.2,0.5,0.5
		c0,0.6,0,1.2,0,1.8c0,0.3-0.2,0.5-0.5,0.5c-0.6,0-1.2,0-1.8,0c-0.3,0-0.5-0.2-0.5-0.5C31.1,24.2,31.1,23.9,31.1,23.5z"/>
	<path fill="#FFFFFF" d="M25.5,33.1c-0.3,0-0.6,0-0.8,0c-0.3,0-0.5-0.2-0.5-0.6c0-0.6,0-1.3,0-1.9c0-0.3,0.2-0.5,0.5-0.5
		c0.6,0,1.1,0,1.7,0c0.3,0,0.5,0.2,0.5,0.5c0,0.6,0,1.3,0,1.9c0,0.3-0.2,0.5-0.5,0.5C26.1,33.1,25.8,33.1,25.5,33.1z"/>
	<path fill="#FFFFFF" d="M32.6,30.2c0.3,0,0.6,0,0.9,0c0.3,0,0.5,0.2,0.5,0.5c0,0.6,0.1,1.2,0.1,1.8c0,0.3-0.1,0.5-0.5,0.5
		c-0.6,0-1.2,0-1.8,0c-0.3,0-0.5-0.2-0.5-0.5c0-0.6-0.1-1.2-0.1-1.9c0-0.3,0.2-0.5,0.5-0.5C32,30.2,32.3,30.2,32.6,30.2z"/>
	<path fill="#FFFFFF" d="M17.8,31.8c0.5-0.6,1-1.2,1.4-1.8c0.2-0.1,0.2-0.4,0.4-0.5c0.3-0.4,0.8-0.4,1.1-0.1
		c0.4,0.3,0.4,0.8,0.1,1.2c-0.8,1.1-1.6,2.1-2.5,3.1c-0.3,0.4-0.8,0.4-1.1,0.1c-0.4-0.3-0.8-0.7-1.2-1.1c-0.3-0.3-0.3-0.8,0-1.2
		c0.3-0.4,0.8-0.5,1.1-0.1C17.4,31.5,17.5,31.6,17.8,31.8z"/>
</g>
</svg>
