<?xml version="1.0" encoding="utf-8"?>
<!-- Generator: Adobe Illustrator 23.0.0, SVG Export Plug-In . SVG Version: 6.00 Build 0)  -->
<svg version="1.0" id="Layer_1" xmlns="http://www.w3.org/2000/svg" xmlns:xlink="http://www.w3.org/1999/xlink" x="0px" y="0px"
	 viewBox="0 0 50 50" enable-background="new 0 0 50 50" xml:space="preserve">
<path fill="#FFFFFF" d="M33.8,12c0-0.5-0.1-1-0.5-1.3c-0.2-0.2-0.5-0.3-0.7-0.5c-3.1-0.4-14.6-0.1-15.3,0c-1,0.5-1.2,1-1.1,2.1
	c0.4,8.4,0.4,16.8,0,25.2c-0.1,1.1,0.5,1.8,1.6,2c4.8,0.6,9.6,0.6,14.3,0c1.1-0.1,1.7-0.9,1.7-2C33.4,29,33.3,20.5,33.8,12z
	 M33,37.6c0.1,0.7-0.2,0.9-0.9,1.1c-4.7,0.6-9.5,0.6-14.2,0c-0.1,0-0.2,0-0.3-0.1c-0.3-0.1-0.6-0.3-0.6-0.7c0-0.1,0-0.3,0-0.4
	c0.3-8.4,0.3-16.9,0-25.3c0-0.1,0-0.2,0-0.3c0-0.5,0.2-0.8,0.7-0.9c0.6-0.1,11.4-0.4,14.5,0c0.5,0.1,0.8,0.3,0.8,0.9
	c0,0.2,0,0.3,0,0.5c-0.1,3.4-0.3,13-0.3,13.1C32.7,29.5,32.8,33.6,33,37.6z"/>
<path fill="#FFFFFF" d="M29.2,19.1c0,2.6-2,4.6-4.2,4.6s-4.2-2.1-4.2-4.6c0-2.6,1.9-4.7,4.2-4.7C27.4,14.4,29.2,16.6,29.2,19.1z
	 M28.4,19c0-2.1-1.5-3.8-3.4-3.8s-3.4,1.8-3.4,3.8c0,2,1.5,3.7,3.4,3.7C26.9,22.8,28.4,21.1,28.4,19z"/>
<path fill="#FFFFFF" d="M29.2,30.5c0,2.4-1.5,4.4-3.8,4.6c-2.2,0.3-4.1-1.3-4.6-3.6c-0.1-0.3,0.1-0.5,0.3-0.6
	c0.3-0.1,0.4,0.1,0.5,0.4c0.4,1.5,1.3,2.6,2.8,2.9c1.6,0.3,3.2-0.7,3.8-2.4c0.6-1.7,0-3.5-1.3-4.4c-1.9-1.3-4.4-0.3-5.1,2
	c0,0.1,0,0.1-0.1,0.1c-0.1,0.3-0.3,0.4-0.5,0.3c-0.2-0.1-0.3-0.3-0.3-0.6c0.5-1.7,1.5-2.8,3.2-3.2C26.7,25.4,29.2,27.6,29.2,30.5z"
	/>
<path fill="#FFFFFF" d="M25,28.9c0.4,0,0.7,0,1.1,0c0.6,0,0.9,0.5,0.6,1.1c-0.3,0.7-0.7,1.5-1.1,2.2c-0.3,0.6-0.9,0.6-1.2,0
	c-0.4-0.7-0.7-1.5-1.1-2.2c-0.3-0.6,0-1.1,0.6-1.1C24.3,28.9,24.6,28.9,25,28.9z"/>
<path fill="#FFFFFF" d="M25,20.7c-0.4,0-0.7,0-1.1,0c-0.5,0-0.9-0.5-0.6-1.1c0.3-0.7,0.7-1.5,1.1-2.3c0.3-0.5,0.9-0.5,1.2,0
	c0.4,0.7,0.7,1.5,1.1,2.3c0.3,0.5-0.1,1.1-0.6,1.1C25.7,20.7,25.4,20.7,25,20.7z"/>
</svg>
