<?xml version="1.0" encoding="utf-8"?>
<!-- Generator: Adobe Illustrator 23.0.0, SVG Export Plug-In . SVG Version: 6.00 Build 0)  -->
<svg version="1.0" id="Layer_1" xmlns="http://www.w3.org/2000/svg" xmlns:xlink="http://www.w3.org/1999/xlink" x="0px" y="0px"
	 viewBox="0 0 50 50" enable-background="new 0 0 50 50" xml:space="preserve">
<path fill="#FFFFFF" d="M40.2,30.1c-0.4-0.4-0.9-0.7-1.6-0.8l-0.9-0.1c-0.7,0-1.3-0.1-2-0.2c0.5-0.2,1.1-0.5,1.6-0.7l1.1-0.5
	c1.2-0.5,1.6-1.6,1.1-2.7c-0.9-1.8-1.9-3.7-3-5.8c-0.5-1-1.7-1.4-2.9-0.9c-0.6,0.3-1.2,0.6-1.8,0.9c-0.3,0.1-0.5,0.2-0.8,0.4
	c0.1-0.1,0.1-0.2,0.2-0.3c0.5-0.6,0.9-1.3,1.4-1.9c0.7-1,0.5-2.2-0.6-2.9c-2.3-1.4-4.2-2.4-5.9-3.3c-1.1-0.7-2.2-0.4-3,0.7
	c-0.5,0.7-1,1.4-1.5,2.1c-0.1,0.1-0.1,0.2-0.2,0.3c0-0.7,0.1-1.5,0.1-2.2l0-0.4c0-0.6-0.1-1.1-0.5-1.5c-0.4-0.4-1-0.6-1.8-0.7
	c-1.3,0-2.6,0-3.9,0c-1,0-2,0-3,0c-1.4,0-1.9,0.3-2.5,1.5l0,0.2c0,2.8-0.1,5.6-0.2,8.3c-0.2,6.7-0.4,13.1,0.3,19.6l0,0.1
	c0.3,0.8,0.9,1.3,1.8,1.3C20.6,39.2,29.4,39,38,40l0.1,0l0.1,0c0.8-0.1,1.4-0.6,1.6-1.3c0.1-0.2,0.1-0.4,0.1-0.6l0.2-1.4
	c0.2-1.7,0.4-3.4,0.5-5C40.6,31.1,40.5,30.5,40.2,30.1z M11.9,16.7c0-0.5,0-1,0-1.5c0-1.1,0.1-2.2,0.1-3.3c0-0.1,0-0.1,0-0.1
	c0,0,0.1,0,0.2,0c1.1,0,2.2,0,3.3,0c1.3,0,2.5,0,3.8,0c0,0,0,0,0,0c0.1,0,0.1,0,0.1,0c0,0,0,0,0,0.1c-0.1,1.6-0.2,3.1-0.2,4.7
	C16.8,16.5,14.3,16.6,11.9,16.7z M17.4,25c0.6,0.3,1.2,0.6,1.8,1c0,0,0,0,0,0c-1.8,1-3.2,1.9-4.6,2.7c0.7-1.3,1.5-2.6,2.3-3.9
	L17.4,25z M17.8,29c1.3-0.8,2.7-1.6,3.9-2.2c0.2,0.4,0.4,0.7,0.6,1.1c0.2,0.3,0.4,0.7,0.6,1l-1.1,0C20.5,28.9,19.1,29,17.8,29z
	 M18.7,18.6c-0.5,0.8-1,1.5-1.5,2.3c-0.6,0.8-1.1,1.7-1.6,2.5c0,0-0.1,0.1-0.1,0.1c-1.3,0.1-2.6,0.1-3.8,0.2c0-0.9,0.1-1.8,0.1-2.6
	c0-0.8,0.1-1.5,0.1-2.3C14.2,18.7,16.5,18.6,18.7,18.6z M11.6,28.7c0-1,0-2,0.1-3c0.9-0.1,1.7-0.1,2.6-0.2c-0.2,0.3-0.3,0.5-0.5,0.8
	c-0.2,0.3-0.3,0.5-0.4,0.7c-0.5,0.7-0.9,1.4-1.3,2.2l-0.2,0.4c0,0,0,0,0,0.1c-0.1,0-0.1,0-0.2,0C11.6,29.4,11.6,29,11.6,28.7z
	 M19.5,31.8l0-0.8c1.2-0.1,2.5-0.1,3.7-0.1c0.4,0,0.8,0,1.2,0c0,1.1,0,2.1-0.1,3.2c0,1.1-0.1,2.2-0.1,3.3c-1.4,0-3.1,0.1-4.8,0.3
	C19.4,35.6,19.4,33.7,19.5,31.8z M24.2,27.1c-0.2-0.4-0.5-0.8-0.7-1.3c0.6-0.3,1.2-0.6,1.7-0.9c1-0.5,1.9-1,2.9-1.5
	c1,1.8,2,3.7,2.9,5.4c-1.4,0-2.6-0.1-3.7-0.1c-0.8,0-1.5,0-2.1,0c-0.1,0-0.1,0-0.1,0C24.9,28.2,24.5,27.7,24.2,27.1z M29.9,22.5
	c0.3-0.2,0.6-0.3,0.9-0.4l1.3-0.6c0.8-0.4,1.5-0.7,2.3-1.1c0.1,0,0.1-0.1,0.2-0.1c0,0,0,0.1,0.1,0.1l0.1,0.2
	c0.9,1.8,1.9,3.6,2.8,5.5c0,0,0,0.1,0,0.1c0,0,0,0-0.1,0.1l-1.7,0.8c-0.9,0.4-1.8,0.8-2.8,1.3l-1-1.8C31.4,25.2,30.6,23.9,29.9,22.5
	z M28,20.6l-0.3-0.2c-1.8-1-3.7-2.1-5.6-3.2c0.6-0.9,1.3-1.9,1.9-2.8l0.7-1.1c0.1-0.1,0.1-0.1,0.1-0.2c0,0,0.1,0,0.2,0.1l1.6,0.9
	c1.4,0.8,2.8,1.6,4.2,2.3c0,0,0.1,0,0.1,0.1c0,0,0,0-0.1,0.1C29.9,18,29,19.2,28,20.6z M21.8,24.5l-0.4,0.2c-0.1,0-0.1,0-0.1,0
	c-0.7-0.4-1.4-0.7-2-1.1l-1.1-0.6c0.6-1,1.2-1.9,1.8-2.8c0.3-0.5,0.6-1,0.9-1.5l0.5,0.3c1.8,1,3.4,1.9,5.1,2.8
	C24.9,22.9,23.4,23.7,21.8,24.5z M31.5,31c-0.1,2-0.2,4.2-0.4,6.4c-1.1-0.1-2.5-0.1-3.9-0.1c-0.3,0-0.6,0-0.9,0
	c0-2.1,0.1-4.3,0.2-6.4l0.6,0C28.5,30.8,30,30.9,31.5,31z M11.6,31.7c0,0,0.1,0,0.2,0c1.9-0.2,3.9-0.4,5.8-0.5
	c-0.1,2.5-0.1,4.7,0,6.6c-2.2,0.3-3.9,0.5-5.5,0.9c0,0,0,0-0.1,0c0,0,0-0.1,0-0.1c-0.2-1.9-0.3-4-0.3-6.6
	C11.6,31.8,11.6,31.7,11.6,31.7z M33.5,31.9l0.1-0.9c1.4,0.1,3.1,0.2,4.8,0.4c0.1,0,0.2,0,0.2,0c0,0,0,0.1,0,0.2l-0.2,2
	c-0.1,1.5-0.3,2.9-0.5,4.4V38c0,0,0,0,0,0c-1.6-0.2-3.3-0.3-4.7-0.4C33.2,35.7,33.3,33.8,33.5,31.9z M14.4,37.3c0.1,0,0.2,0,0.3,0
	c1.3-0.2,2.3-1.3,2.3-2.7c0-0.7-0.3-1.3-0.8-1.7c-0.5-0.4-1.1-0.6-1.7-0.5c-1.3,0.2-2.4,1.4-2.4,2.7c0,0.7,0.4,1.3,0.9,1.7
	C13.4,37.1,13.8,37.3,14.4,37.3z M14.1,34.9c0-0.3,0.2-0.6,0.5-0.7c0,0,0,0,0,0c0.1,0,0.2,0,0.3,0.1c0.1,0.1,0.1,0.1,0.1,0.2
	c0,0.3-0.3,0.6-0.5,0.7c-0.1,0-0.2,0-0.3-0.1C14.1,35.1,14.1,35,14.1,34.9z"/>
</svg>
