<?xml version="1.0" encoding="utf-8"?>
<!-- Generator: Adobe Illustrator 23.0.0, SVG Export Plug-In . SVG Version: 6.00 Build 0)  -->
<svg version="1.0" id="Layer_1" xmlns="http://www.w3.org/2000/svg" xmlns:xlink="http://www.w3.org/1999/xlink" x="0px" y="0px"
	 viewBox="0 0 50 50" enable-background="new 0 0 50 50" xml:space="preserve">
<path fill="#FFFFFF" d="M38.5,12.6l-0.6,0c-7.3,0.6-15,0.6-22.8,0.2l-0.8,0l-0.1-0.9c0-1-0.8-1.8-1.7-1.9c0,0-0.1,0-0.1,0
	c-0.4,0-0.7,0.1-1,0.4c-0.3,0.3-0.5,0.7-0.5,1.3c0,5.8-0.1,11.8-0.2,17.5c-0.1,3.5-0.1,7-0.1,10.6c0,0.2,0,0.3,0,0.3
	c0,0,0.1,0,0.2,0l2.5-0.2c0.5,0,0.5,0,0.6-0.6c0.1-3.1,0.1-6.3,0.2-9.4c0.1-4.5,0.2-9.1,0.3-13.6l-0.1-0.8l0.4,0
	c1.7,0.1,3.7,0.1,5.6,0.1l0.3,0l0,0.3c0,0.3,0,0.6,0,0.9c0,0.3,0,0.6,0,1l0,0.4l-1,0c0,0,0,0,0,0c-1.6,0-2.5,0.9-2.6,2.5l0,2.7
	c0,2.6-0.1,5.4-0.2,8.1l0.1,0.7c0.2,1.1,1.1,1.7,2.4,1.7c0,0,0,0,0,0c4-0.1,8.5-0.1,14,0.1c0.8,0,1.5-0.2,1.9-0.6
	c0.5-0.4,0.7-1.1,0.7-1.8c0.1-1.8,0.1-3.5,0.1-5.2c0-1.9,0.1-3.8,0.1-5.7c0-0.8-0.2-1.4-0.6-1.8c-0.4-0.4-1.1-0.7-1.9-0.7
	c0,0,0,0,0,0l-1.1,0l0-0.3c0-0.3,0-0.7,0-1c0-0.3,0-0.6,0-1l0-0.3l0.8,0c1.6,0,3.3-0.1,4.7-0.2c0.7-0.1,1.3-0.6,1.4-1.3
	C39.5,13.2,39.2,12.7,38.5,12.6z M31.6,24.9c0.1,0.6-0.4,1-1,1c-0.2,0-0.3,0-0.5,0c-0.2,0-0.3,0.1-0.3,0.3c0.1,1.7,0.4,2.6,0.7,4.6
	c-3.3-0.4-4.9-0.4-8.1-0.1c0.4-1.9,0.7-2.9,0.9-4.6c0.1-0.1-0.1-0.2-0.3-0.2s-0.3,0-0.5,0c-0.6,0-1.1-0.4-1-0.9c0-0.2,0-0.2,0-0.4
	c0-0.4,0.2-0.6,0.6-0.8c2-1.1,2.4-1.5,4.2-2.9c0.3-0.2,0.7-0.2,0.9,0c1.6,1.4,2.1,1.9,4,2.9c0.3,0.1,0.4,0.4,0.6,0.7
	C31.6,24.6,31.6,24.7,31.6,24.9z M31.8,17.7c-3.5,0.1-6.9,0.1-10.3,0.1c0.1-0.7,0.1-1.3,0.1-1.9c3.5,0,6.8,0,10.3-0.1
	C31.8,16.4,31.8,17.1,31.8,17.7z"/>
</svg>
