<?xml version="1.0" encoding="utf-8"?>
<!-- Generator: Adobe Illustrator 23.0.0, SVG Export Plug-In . SVG Version: 6.00 Build 0)  -->
<svg version="1.0" id="Layer_1" xmlns="http://www.w3.org/2000/svg" xmlns:xlink="http://www.w3.org/1999/xlink" x="0px" y="0px"
	 viewBox="0 0 50 50" enable-background="new 0 0 50 50" xml:space="preserve">
<g>
	<g>
		<path fill="#FFFFFF" d="M10,27.2c0.2-0.5,0.7-0.9,1.1-1.1c1.8-1.1,3.4-2.1,5-3c0.2-0.1,0.5-0.2,0.9-0.3c0-0.1,0-0.1,0-0.2
			c0-1.9,0-3.9-0.1-5.9c0-0.7,0.2-1.1,0.8-1.5c1.5-0.9,2.9-2,4.4-3.2c0.3-0.2,0.6-0.4,0.9-0.4c3,0,6,0,8.9-0.1
			c0.9,0,1.5,0.6,1.5,1.5c0,3.1-0.1,6.1-0.1,8.9c0,0.3-0.2,0.6-0.2,1c0.1,0,0.1,0,0.3,0c1.5,0,3-0.1,4.6-0.1c1.2,0,1.9,0.5,1.9,1.6
			c0.1,2.9-0.1,5.9-0.1,8.8c-0.1,0.5-0.2,0.9-0.6,1.2c-1.4,1.1-2.7,2.2-3.9,3.4c-0.4,0.4-0.8,0.5-1.3,0.5c-3.3-0.2-6.5-0.2-9.8-0.2
			c-0.5,0-0.9-0.1-1.2-0.4c-0.4,0.4-0.8,0.4-1.3,0.4c-3.2-0.2-6.4,0-9.5,0.2c-0.9,0.1-1.6-0.2-1.9-1.1C10.2,33.9,10,30.6,10,27.2z
			 M29.1,37c1.6,0,3.3,0.1,4.9,0.2c0.5,0,0.7-0.1,0.6-0.6c0-3.2-0.2-6.2-0.1-9.1c0-0.4-0.2-0.6-0.7-0.6c-3.5-0.1-6.5-0.1-9.6-0.1
			c-0.5,0-0.6,0.1-0.6,0.6c0,2.7,0,5.6-0.1,8.9c0,0.5,0.1,0.7,0.7,0.7C25.8,36.9,27.5,36.9,29.1,37z M17,37.1
			c1.7-0.1,3.3-0.2,4.9-0.2c0.5,0,0.6-0.1,0.6-0.7c0-3.3,0.1-6.2,0.1-9c0-0.4-0.1-0.5-0.6-0.5c-3.1,0-6.5,0.1-10.2,0.2
			c-0.5,0-0.8,0.2-0.7,0.7c0,3,0.1,6,0.2,9.2c0,0.5,0.2,0.7,0.7,0.6C13.7,37.4,15.3,37.2,17,37.1z M23.3,25.9c1.5,0,3.1,0,4.6,0
			c0.5,0,0.6-0.1,0.6-0.5c0-2.7,0-5.5,0-8.5c0-0.5-0.1-0.6-0.6-0.6c-3.2,0-6.3,0.1-9.6-0.2c-0.5,0-0.6,0.1-0.6,0.6
			c0.1,3.1,0.1,5.9,0.1,8.7c0,0.5,0.1,0.6,0.6,0.6C20.3,25.9,21.8,25.9,23.3,25.9z M32.5,13.1c-1.1,1-2.1,1.9-2.9,2.8
			c-0.1,0.1-0.1,0.1-0.1,0.2c0,0.2,0.1,0.5,0,0.7c-0.1,2.7-0.1,5.2,0,7.7c0,0.1,0,0.2,0,0.3c0.9-0.8,1.7-1.5,2.6-2.4
			c0.3-0.2,0.3-0.4,0.3-0.7c0-2.6,0.1-5.3,0.1-8.2C32.6,13.4,32.6,13.3,32.5,13.1z M38.8,24.3c-0.1,0.1-0.2,0.1-0.3,0.2
			c-0.9,0.7-1.9,1.4-2.8,2.1c-0.2,0.2-0.3,0.3-0.3,0.6c0.1,0.1,0,0.3,0,0.4c0,2.6,0.1,5.3,0.1,8c0,0.1,0,0.2,0,0.4
			c1-0.9,1.8-1.6,2.8-2.4c0.2-0.2,0.3-0.4,0.3-0.7c0-2.8,0.1-5.6,0-8.4C38.8,24.5,38.8,24.4,38.8,24.3z M29.7,25.9
			c0.2,0,0.3,0,0.4,0c1.2,0,2.4,0,3.7,0c0.2,0,0.5,0.1,0.7,0.1c0.1,0.1,0.3,0,0.3-0.1c0.7-0.6,1.5-1.1,2.3-1.7
			c0.2-0.2,0.5-0.4,0.8-0.6c-0.1,0-0.1,0-0.1,0c-1.9,0-3.7,0-5.4,0.1c-0.1,0-0.3,0.1-0.3,0.1c-0.5,0.4-1,0.9-1.5,1.3
			C30.2,25.4,30,25.7,29.7,25.9z M25,15.2c0.1,0,0.2,0,0.3,0c0.9,0,1.9,0,2.8,0c0.2,0,0.4,0.1,0.6,0.1c0.1,0,0.2,0,0.3-0.1
			c0.8-0.8,1.7-1.6,2.5-2.4c0.1-0.1,0.1-0.1,0.2-0.2c-0.1,0-0.1-0.1-0.2-0.1c-1.2,0-2.4,0.1-3.6,0.1c-0.1,0-0.3,0.1-0.3,0.2
			c-0.9,0.8-1.7,1.5-2.6,2.2C25.1,15,25.1,15,25,15.2z M26.4,12.6c-1.2,0-2.3,0-3.3,0c-0.1,0-0.2,0.1-0.3,0.1c-1,0.8-2,1.5-3,2.2
			C19.8,15,19.7,15,19.7,15c0,0,0,0,0.1,0.1c1.2,0,2.3,0.1,3.5,0.1c0.1,0,0.2,0,0.2-0.1C24.5,14.3,25.4,13.5,26.4,12.6z M13.2,25.9
			c1.4,0,2.7,0,3.8,0c0-0.7,0-1.4,0-2.2c0,0,0,0-0.1-0.1C15.8,24.4,14.5,25.2,13.2,25.9z"/>
		<path fill="#FFFFFF" d="M26.5,35.5c-0.3,0-0.6,0-0.9,0c-0.5,0-0.9-0.3-0.9-0.8c0-0.3,0-0.6,0-0.9c0-0.5,0.4-0.8,0.9-0.8
			c0.6,0,1.2,0,1.7,0c0.5,0,0.9,0.4,1,0.8c0,0.3,0,0.6,0,0.8c0,0.5-0.4,0.8-0.9,0.8C27.1,35.5,26.8,35.5,26.5,35.5z"/>
		<path fill="#FFFFFF" d="M14.5,33.4c0.3,0,0.6,0,1-0.1c0.5,0,0.9,0.3,0.9,0.7c0,0.3,0,0.6,0,0.9c0,0.5-0.4,0.8-0.9,0.8
			c-0.6,0.1-1.2,0.1-1.8,0.1c-0.5,0-0.9-0.3-0.9-0.7c0-0.3,0-0.6,0-0.9c0-0.5,0.4-0.8,0.9-0.8C13.9,33.4,14.2,33.4,14.5,33.4z"/>
		<path fill="#FFFFFF" d="M21.1,24.6c-0.3,0-0.5,0-0.8,0c-0.4,0-0.8-0.3-0.8-0.7c0-0.3,0-0.5,0-0.8c0-0.4,0.3-0.7,0.8-0.7
			c0.6,0,1.1,0,1.6,0c0.5,0,0.8,0.3,0.8,0.7c0,0.3,0,0.5,0,0.7c0,0.4-0.3,0.7-0.8,0.7C21.6,24.6,21.4,24.6,21.1,24.6z"/>
	</g>
</g>
</svg>
