<?xml version="1.0" encoding="utf-8"?>
<!-- Generator: Adobe Illustrator 23.0.0, SVG Export Plug-In . SVG Version: 6.00 Build 0)  -->
<svg version="1.0" id="Layer_1" xmlns="http://www.w3.org/2000/svg" xmlns:xlink="http://www.w3.org/1999/xlink" x="0px" y="0px"
	 viewBox="0 0 50 50" enable-background="new 0 0 50 50" xml:space="preserve">
<path fill="#FFFFFF" d="M24.1,40c-0.5-0.1-1.1-0.1-1.6-0.3c-3.3-0.7-6-2.3-8.1-5c-1.9-2.2-3.1-4.8-3.5-7.7c-0.6-4,0.1-7.6,2.4-10.9
	c2.1-2.9,4.9-4.9,8.5-5.7c4.5-1,8.6,0,12.1,2.8c2.8,2.3,4.5,5.3,5.1,8.8c0.1,0.6,0.1,1.3,0.2,1.9c0,0.1,0,0.2,0.1,0.3
	c0,0.6-0.1,1.1-0.1,1.7c0,0.2-0.1,0.4-0.1,0.6c-0.4,3.1-1.6,5.9-3.7,8.4c-2.2,2.6-4.9,4.3-8.1,4.9c-0.5,0.1-1.1,0.1-1.6,0.3
	C25.2,40,24.7,40,24.1,40z M12.2,25c0.3,7,5.5,13.2,12.8,13.4C32.2,38.2,37.4,32,37.7,25c0.2-7.3-5.4-13.3-12.7-13.4
	C17.6,11.7,12.1,17.8,12.2,25z"/>
<path fill="#FFFFFF" d="M25.3,31.4c-0.3,0-0.7,0-1,0c-0.5,0-0.7-0.2-0.8-0.7c-1.1-3.9-2.3-7.9-3.5-11.8c-0.1-0.5,0-0.6,0.4-0.7
	c0.6,0,1.2,0,1.8,0c0.5,0,0.7,0.2,0.8,0.7c0.6,2.3,2.1,7.7,2.1,7.9c0.1-0.3,0.1-0.4,0.2-0.6c0.6-2.5,1.3-4.9,1.9-7.3
	c0.1-0.5,0.3-0.7,0.9-0.7c0.5,0,1,0,1.5,0c0.5,0,0.7,0.2,0.5,0.7c-0.8,2.5-1.5,5-2.3,7.5c-0.4,1.4-0.8,2.7-1.2,4.1
	c-0.1,0.5-0.3,0.7-0.9,0.7c-0.3,0-0.7,0-1.1,0C24,31.4,25.8,31.4,25.3,31.4z"/>
</svg>
