<?xml version="1.0" encoding="utf-8"?>
<!-- Generator: Adobe Illustrator 23.0.0, SVG Export Plug-In . SVG Version: 6.00 Build 0)  -->
<svg version="1.0" id="Layer_1" xmlns="http://www.w3.org/2000/svg" xmlns:xlink="http://www.w3.org/1999/xlink" x="0px" y="0px"
	 viewBox="0 0 50 50" enable-background="new 0 0 50 50" xml:space="preserve">
<path fill="#FFFFFF" d="M36.8,14.2c0-1.7-1.1-2.8-2.8-2.7c-1.5,0.1-2.9,0.1-4.5,0.2c-0.2,0-0.3,0-0.4-0.2c-0.5-1-1.3-1.5-2.5-1.5
	c-1,0-2,0-3.1,0c-1.1,0-2,0.5-2.5,1.5c-0.1,0.2-0.2,0.2-0.4,0.3c-1.5-0.1-3-0.1-4.5-0.2c-0.2,0-0.4,0-0.7,0
	c-1.3,0.2-2.2,1.3-2.2,2.6c0,3.7,0.1,7.6,0.1,11.6c0,3.8-0.1,7.6-0.3,11.3c-0.1,1.1,0.4,2,1.4,2.5c0.3,0.1,0.6,0.2,0.9,0.3
	c5.8-0.1,13.6-0.1,19.4,0c0,0,0,0,0.1-0.1c1.6-0.3,2.3-1.3,2.2-3C36.6,29.4,36.6,21.8,36.8,14.2z M23.5,11.7c0.5,0,1,0,1.5,0
	c0.5,0,0.9,0,1.5,0c0.6,0,1.1,0.4,1,0.9c0,0.5-0.4,0.9-1,1c-1,0-2,0-2.9,0c-0.6,0-1-0.4-1-1C22.4,12.1,22.9,11.6,23.5,11.7z
	 M35.2,37c0,0.8-0.3,1.2-1.2,1.2c-5.6-0.2-12.5-0.2-18.1,0c-0.8,0-1.2-0.4-1.2-1.2c0.5-7.5,0.5-15.2,0.1-22.7
	c-0.1-0.9,0.3-1.2,1.2-1.1c1.5,0.1,3,0.1,4.5,0.2c0.2,0,0.3,0.1,0.4,0.2c0.5,1,1.3,1.6,2.5,1.6c1,0,2,0,3,0c1.2,0,2-0.6,2.5-1.6
	c0.1-0.2,0.2-0.3,0.4-0.2c1.5-0.1,3.1-0.2,4.5-0.2c0.8-0.1,1.2,0.3,1.1,1.1c0,3.7-0.1,7.5-0.2,11.3C34.9,29.4,35,33.2,35.2,37z
	 M23.4,19.7c0.1-0.3,0.3-0.5,0.6-0.5c0.1,0,0.2,0,0.3,0c2.4,0,4.8-0.1,7.2-0.1c0.1,0,0.2,0,0.3,0c0.4,0,0.6,0.4,0.6,0.7
	c0,0.4-0.3,0.7-0.6,0.8c-0.1,0-0.2,0-0.4,0c-1.2,0.1-2.3,0-3.5,0.1c-1.2,0-2.4,0-3.6,0C23.6,20.6,23.2,20.2,23.4,19.7z M23.3,25.2
	c0-0.5,0.3-0.8,0.9-0.8c2.4,0,4.8,0,7.2,0c0.5,0,0.8,0.3,0.9,0.7c0.1,0.4-0.2,0.7-0.6,0.8c-0.1,0.1-0.2,0.1-0.3,0
	c-1.2,0-2.4,0-3.6,0c-1.2,0-2.4,0-3.6,0C23.7,26,23.3,25.6,23.3,25.2z M32.3,30.4c0,0.4-0.3,0.8-0.8,0.8c-1.2,0-2.5-0.1-3.6-0.1
	c-1.2,0-2.5,0-3.6,0c-0.6,0-1-0.4-0.8-1c0.1-0.3,0.3-0.5,0.6-0.5c0.1,0,0.2,0,0.3,0c2.3,0,4.7,0,7,0.1c0.1,0,0.1,0,0.1,0
	C31.9,29.6,32.3,30,32.3,30.4z M18,20.2c-0.3-0.3-0.3-0.8,0-1c0.3-0.3,0.7-0.3,1.1,0c0.1,0.1,0.3,0.3,0.4,0.5c0.5-0.5,1-1,1.4-1.4
	c0.2-0.2,0.4-0.3,0.7-0.3c0.6,0.1,0.9,0.8,0.5,1.2c-0.6,0.6-1.3,1.2-1.9,1.9c-0.4,0.3-1,0.3-1.3-0.1C18.6,20.8,18.3,20.4,18,20.2z
	 M22.2,29.2c0,0.2-0.1,0.5-0.2,0.6c-0.6,0.6-1.2,1.3-1.8,1.9c-0.4,0.5-1.1,0.4-1.5,0c-0.3-0.3-0.5-0.5-0.7-0.8
	c-0.3-0.3-0.3-0.8,0-1.1s0.8-0.3,1.1,0c0.1,0.1,0.3,0.3,0.4,0.4c0.5-0.5,1-1,1.5-1.5c0.2-0.3,0.5-0.3,0.8-0.2
	C22.1,28.6,22.2,28.8,22.2,29.2z M22.1,24.6c-0.6,0.6-1.3,1.3-1.9,1.9c-0.4,0.4-1,0.3-1.4-0.1c-0.3-0.2-0.5-0.5-0.8-0.8
	c-0.3-0.3-0.3-0.8,0-1.1c0.3-0.3,0.7-0.3,1.1,0c0.1,0.1,0.3,0.3,0.4,0.5c0.5-0.5,1-1,1.4-1.4c0.2-0.2,0.5-0.3,0.7-0.2
	C22.3,23.5,22.5,24.2,22.1,24.6z"/>
</svg>
