<?xml version="1.0" encoding="utf-8"?>
<!-- Generator: Adobe Illustrator 23.0.0, SVG Export Plug-In . SVG Version: 6.00 Build 0)  -->
<svg version="1.0" id="Layer_1" xmlns="http://www.w3.org/2000/svg" xmlns:xlink="http://www.w3.org/1999/xlink" x="0px" y="0px"
	 viewBox="0 0 50 50" enable-background="new 0 0 50 50" xml:space="preserve">
<g>
	<g>
		<path fill="#FFFFFF" d="M28.6,36.4c-1.4-0.8-2.8-1.5-4.2-2.3c-1.4-0.7-6.6-3.5-8.1-4.3c-0.6-0.3-0.9-0.8-1-1.5
			c-0.5-3.6-0.7-5.4-1.6-9.2c-0.1-0.7,0.1-1.2,0.7-1.5c2.8-1.3,5.9-2.5,9.3-3.9c0.7-0.3,1.3-0.3,2,0c3.5,1.5,10.7,4.7,13.5,6
			c0.6,0.3,0.8,0.8,0.7,1.6c-0.8,3.7-1.1,5.4-1.4,9.2c-0.1,0.8-0.4,1.3-1,1.6c-2.7,1.3-5.3,2.7-7.9,4.1c-0.1,0.1-0.3,0.1-0.5,0.2
			C28.9,36.5,28.7,36.5,28.6,36.4z M38.8,20.5c-0.3-0.1-0.5-0.3-0.8-0.4c-2.4-1.2-9.4-4.2-12.5-5.6c-0.6-0.3-1.1-0.3-1.6,0
			c-3.2,1.3-6.2,2.6-9,3.8c-0.3,0.1-0.5,0.4-0.4,0.9c0.8,3.7,1.1,5.4,1.5,9.1c0.1,0.4,0.2,0.7,0.6,0.9c2.8,1.4,9.1,4.8,11.7,6.3
			c0.3,0.2,0.7,0.2,1,0c2.6-1.4,5.1-2.7,7.9-4.1c0.4-0.2,0.6-0.5,0.6-0.9c0.3-3.7,0.5-5.4,1.3-9.1c0-0.1,0-0.1,0.1-0.3
			c-0.1,0.1-0.2,0.1-0.3,0.1c-3.4,1.7-6.4,3.2-9.3,4.6c-0.2,0.1-0.2,0.2-0.3,0.4c-0.1,3-0.1,4.2-0.1,7.1c0,0.1,0,0.2,0,0.3
			c-0.1,0.2-0.1,0.3-0.3,0.3s-0.3-0.1-0.3-0.3c0-0.1,0-0.2,0-0.3c0-3,0.1-4.2,0.1-7.1c0-0.2-0.1-0.3-0.2-0.3c-1.9-0.9-3.8-1.9-5.8-3
			c-0.5-0.2-5.4-2.7-5.9-3c-0.3-0.1-0.3-0.3-0.3-0.5c0.1-0.2,0.3-0.3,0.5-0.1c0.1,0,0.1,0.1,0.1,0.1c2.8,1.3,9.5,4.6,11.7,5.8
			c0.2,0.1,0.3,0.1,0.5,0c2.2-1.1,4.6-2.3,7.1-3.5C37.1,21.4,37.9,21,38.8,20.5z"/>
	</g>
	<g>
		<path fill="#FFFFFF" d="M13.1,27.3C13,27.2,13,27.1,13,27c-0.1-0.3-0.1-0.6-0.1-0.9c-0.3-2.4-0.9-4.8-1.5-7.1
			c-0.1-0.1,0-0.3,0.1-0.3c0.2-0.1,0.5,0.1,0.7,0.3c0,0.1,0,0.1,0,0.1c0.6,2.6,1.1,5.2,1.5,7.9c0,0.1,0,0.1,0,0.1
			c0,0.1-0.1,0.3-0.1,0.3C13.4,27.4,13.2,27.4,13.1,27.3z"/>
		<path fill="#FFFFFF" d="M12.3,17.7c0.3,0.2,0.5,0.4,0.7,0.6c0.1,0.1,0.2,0.3,0.1,0.5s-0.3,0.1-0.5,0c-0.1,0-0.1-0.1-0.1-0.1
			c-0.2-0.2-0.4-0.3-0.7-0.5c-0.3-0.2-0.6-0.3-0.7-0.1c-0.1,0.1-0.3,0.3-0.4,0.5s-0.3,0.1-0.5,0s-0.3-0.4-0.1-0.5
			c0.3-0.3,0.6-0.7,0.9-1c0.1-0.1,0.3-0.1,0.5,0.1C11.7,17.3,12,17.5,12.3,17.7L12.3,17.7z"/>
		<path fill="#FFFFFF" d="M14.2,28.4c-0.2,0.1-0.3,0.3-0.5,0.5s-0.3,0.1-0.5,0c-0.4-0.4-0.7-0.7-1.1-1.1c-0.1-0.1-0.2-0.4-0.1-0.5
			c0.1-0.1,0.3-0.1,0.5,0c0.2,0.2,0.4,0.3,0.5,0.5c0.3,0.2,0.5,0.2,0.7,0c0.1-0.1,0.3-0.3,0.4-0.5c0.1-0.1,0.3-0.1,0.5,0
			s0.2,0.3,0.1,0.5C14.5,28,14.4,28.2,14.2,28.4z"/>
	</g>
</g>
</svg>
