<?xml version="1.0" encoding="utf-8"?>
<!-- Generator: Adobe Illustrator 23.0.0, SVG Export Plug-In . SVG Version: 6.00 Build 0)  -->
<svg version="1.0" id="Layer_1" xmlns="http://www.w3.org/2000/svg" xmlns:xlink="http://www.w3.org/1999/xlink" x="0px" y="0px"
	 viewBox="0 0 50 50" enable-background="new 0 0 50 50" xml:space="preserve">
<path fill="#FFFFFF" d="M39.9,25.5c-1.1-2.1-2.2-4.2-3.3-6.1c-0.1-0.3-0.3-0.4-0.7-0.4c-1.7,0-3.5-0.1-5.2-0.1c-0.1,0-0.2,0-0.3,0
	c0-0.8,0.1-2.6,0.1-3.3c0.1-1.1-0.9-1.7-1.8-1.8c-5.3,0-11.4,0-16.6,0.1c-1.1,0-1.8,0.9-1.8,1.8c0.2,5.4-0.3,11.7-0.2,17.1
	c0,0.5,0.1,0.7,0.6,0.6c0.5,0,2.1,0,2.6,0c0.3,1.4,1.4,2.6,3.1,2.6c1.7,0,2.8-1.3,3.2-2.7c3.7,0,7.3,0,11,0c0.2,1.4,1.3,2.7,2.8,2.7
	c0.7,0,1.4-0.2,2-0.5c0.7-0.5,1.3-1.2,1.5-2.1c0.5,0,1.1,0,1.6,0c0.5,0,0.6-0.1,0.7-0.6c0.2-2.3,0.6-4.5,0.9-6.8
	C40,25.9,40,25.7,39.9,25.5z M16.3,35.3c-1.3,0-2.2-1.2-2.2-2.3c-0.1-1.2,1.1-2.3,2.3-2.3c1.2,0,2.3,1.1,2.2,2.2
	C18.7,34.2,17.6,35.2,16.3,35.3z M30.9,27.5c0.1-0.3,0.2-0.4,0.5-0.4c0.3,0,0.5,0,0.7,0c0.2,0,0.5,0,0.6,0c0.3,0,0.5,0.2,0.4,0.4
	c0,0.3-0.2,0.4-0.5,0.4c-0.5,0-0.9,0-1.4,0C31.1,28,30.9,27.8,30.9,27.5z M35.9,33.1c-0.1,1.2-1.2,2.2-2.4,2.2
	c-1.3,0-2.2-1.2-2.2-2.3c0.1-1.2,1.3-2.2,2.5-2.1C35,30.8,36.1,31.9,35.9,33.1z M32.1,25.3c0.1-1.3,0.2-2.7,0.4-4c0.1,0,0.2,0,0.3,0
	c1.2,0,2.3,0,3.5,0.1c0.1,0,0.3,0.1,0.3,0.1c0.8,1.3,1.5,2.6,2.2,4C36.5,25.4,34.3,25.3,32.1,25.3z"/>
</svg>
