<?xml version="1.0" encoding="utf-8"?>
<!-- Generator: Adobe Illustrator 23.0.0, SVG Export Plug-In . SVG Version: 6.00 Build 0)  -->
<svg version="1.0" id="Layer_1" xmlns="http://www.w3.org/2000/svg" xmlns:xlink="http://www.w3.org/1999/xlink" x="0px" y="0px"
	 viewBox="0 0 50 50" enable-background="new 0 0 50 50" xml:space="preserve">
<path fill="#FFFFFF" d="M39.8,14.5c0,7.3,1.2,16.2-2.1,22.9c-0.4,0.3-0.7,0.5-1.2,0.4c-6.9-1.2-13.7-0.8-20.6-0.3
	c-0.6,0.1-0.9-0.3-0.8-0.8c0.1-0.7,0.2-1.4,0.2-2.1c0-0.1,0-0.1,0-0.3c-0.1,0-0.3,0-0.4,0c-1.3,0.1-2.7,0.1-3.9,0.2
	c-0.4,0-0.8-0.2-0.9-0.5s-0.1-0.7,0.3-1c0.7-0.7,1.3-1.5,1.9-2.3c1.8-3.1,2.3-6.4,2.5-9.9c0.1-1.7,0.3-3.6,0.9-5.3
	c0.2-0.6,0.7-0.9,1.3-0.9c1.2,0.1,2.6,0.2,3.8,0.2c0.1,0,0.2,0,0.3,0c0.1-0.3,0.1-0.5,0.2-0.7c0.2-0.6,0.7-0.9,1.2-0.9
	c0.5,0,0.7,0.3,0.5,0.9c-0.1,0.2-0.1,0.5-0.2,0.7c1.5,0,2.9-0.1,4.3-0.2c0.1-0.2,0.1-0.4,0.2-0.8c0.1-0.5,0.6-1,1.1-1
	c0.5,0,0.7,0.3,0.6,0.8c-0.1,0.2-0.1,0.5-0.2,0.8c1.5-0.1,2.9-0.2,4.4-0.3c0.1-0.3,0.1-0.5,0.1-0.8c0.1-0.5,0.5-0.9,1.1-1
	c0.4,0,0.8,0.3,0.7,0.8c-0.1,0.2-0.1,0.5-0.2,0.8c0.1,0,0.3,0,0.3,0c1.2-0.1,2.4-0.1,3.6-0.1C39.2,13.8,39.6,13.9,39.8,14.5z
	 M16.6,21.1c-0.3,4.1-0.9,7.9-3.6,11.5c0.1,0,0.2,0,0.3,0c6.6-0.4,13.2-0.8,19.8-0.6c0.1,0,0.3,0,0.4-0.2c1.1-0.9,1.9-1.9,2.6-3
	c1.3-2,1.8-4.3,2-6.7c0-0.5,0-1,0-1.5C30.9,20.7,23.7,20.9,16.6,21.1z M16.7,19.4c7.1-0.2,14.3-0.4,21.4-0.5c-0.1-1.2-0.1-2.3,0-3.4
	c-1.1,0-2.3,0-3.4,0.1c0,0.3,0,0.5,0,0.8c-0.1,0.5-0.4,0.9-0.9,0.9c-0.5,0-0.9-0.3-0.8-0.9c0-0.2,0.1-0.5,0-0.8
	c-1.5,0.1-2.9,0.2-4.4,0.3c0,0.3-0.1,0.5-0.1,0.7c-0.1,0.5-0.5,0.9-1,0.9c-0.5,0-0.8-0.3-0.8-0.8c0-0.2,0.1-0.5,0.1-0.7
	c-1.5,0.1-2.9,0.1-4.3,0.2c0,0.2-0.1,0.5-0.1,0.7c-0.1,0.5-0.5,0.9-1,0.9c-0.5,0-0.9-0.4-0.7-0.9c0-0.2,0.1-0.5,0.1-0.7
	c-1.2,0-2.4,0-3.5-0.2C16.9,17.2,16.7,18.3,16.7,19.4z M38.3,28.6c-0.1,0.1-0.1,0.2-0.2,0.3c-1,1.7-2.3,3.2-4,4.4
	c-0.4,0.3-0.7,0.4-1,0.3c-5.1-0.4-10.3,0-15.6,0.4c-0.1,0-0.2,0-0.3,0c0,0.6-0.1,1.1-0.1,1.6c6.3-1.1,13.5-1.2,19.8,0.2
	C37.7,33.5,38.2,31,38.3,28.6z"/>
</svg>
