<?xml version="1.0" encoding="utf-8"?>
<!-- Generator: Adobe Illustrator 23.0.0, SVG Export Plug-In . SVG Version: 6.00 Build 0)  -->
<svg version="1.0" id="Layer_1" xmlns="http://www.w3.org/2000/svg" xmlns:xlink="http://www.w3.org/1999/xlink" x="0px" y="0px"
	 viewBox="0 0 50 50" enable-background="new 0 0 50 50" xml:space="preserve">
<path fill="#FFFFFF" d="M10,15.4c0-0.1,0.1-0.1,0.1-0.2c0.2-0.7,0.8-1.2,1.5-1.1c0.8,0.1,1.4,0.5,1.6,1.3c0.1,0.7-0.2,1.4-0.8,1.7
	c-0.2,0.1-0.2,0.2-0.2,0.3c0.1,0.3,0.1,0.6,0.1,0.9c0.1,0,0.2,0,0.3,0c0.5,0,0.6,0.1,0.7,0.6c0,0.5,0.1,0.9,0.1,1.4
	c0,0.1,0,0.2,0,0.3c0.5,0.1,0.9,0,1.3-0.3c0.3-0.3,0.7-0.6,1-1c1.8-2.8,4.5-3.9,7.8-3.9c0.1,0,0.2,0,0.3,0c0,0,0.1,0,0.1-0.1
	c0-0.1,0-0.3,0-0.4c0-0.3,0.2-0.5,0.5-0.5c0.3,0,0.4,0.2,0.4,0.5c0,0.1,0,0.2,0,0.3c0,6.1,0,12.1,0,18.2c0,0.7-0.1,0.8-0.7,0.8
	c-3.4,0-6.7-0.1-10-0.1c-0.1,0-0.2,0-0.4,0c0,0.4,0,0.7-0.1,1.1c0,0.5-0.1,0.6-0.7,0.6s-1-0.1-1.5-0.1c-0.4,0-0.5-0.2-0.5-0.6
	c0.3-5.3,0.2-10.7-0.2-16.1c0-0.5,0.1-0.6,0.5-0.6c0.1,0,0.2,0,0.3,0c0-0.4-0.1-0.8-0.1-1.2c-0.6-0.2-1-0.6-1.3-1.2
	C10,15.8,10,15.6,10,15.4z M23.6,33.4c0-4.9,0-9.9,0-14.8c-0.4,0-0.9,0-1.3,0c0.1,4.9,0.1,9.9,0.1,14.8
	C22.8,33.4,23.2,33.4,23.6,33.4z M23.6,16.3c-0.8,0.1-1.5,0.1-2.2,0.2c-2.1,0.3-3.8,1.4-5,3.2c-0.7,1.1-1.6,2-3.1,1.9
	c0,0.5,0.1,0.9,0.1,1.3c0.7,0,1.3-0.1,1.8-0.4c0.9-0.4,1.6-1.1,2.2-1.9c0.3-0.4,0.5-0.7,0.8-1.1c1.2-1.1,2.7-1.7,4.3-1.8
	c0.3,0,0.7,0,1.1,0C23.6,17.3,23.6,16.9,23.6,16.3z M11.4,19.3c0.3,5.2,0.4,10.4,0.2,15.6c0.3,0,0.7,0,0.9,0.1
	c0.2-5.2,0.1-10.4-0.1-15.6C12,19.3,11.7,19.3,11.4,19.3z M19.9,33.4c0.1-4.6,0-9.3-0.1-14c-0.2,0.1-0.4,0.3-0.6,0.4
	c-0.3,0.1-0.3,0.4-0.3,0.7C19,24.6,19,28.8,19,32.9c0,0.1,0,0.3,0,0.4C19.3,33.4,19.5,33.4,19.9,33.4z M21.5,18.8
	c-0.2,0.1-0.4,0.1-0.5,0.1c-0.3,0.1-0.3,0.2-0.3,0.5c0.1,4.5,0.1,9.1,0.1,13.7c0,0.1,0,0.2,0,0.3c0.3,0,0.6,0,0.9,0
	C21.6,28.5,21.6,23.7,21.5,18.8z M13.4,23.8c0.1,3.2,0.1,6.3,0,9.5c0.4,0,0.8,0,1.2,0c0.1-3.2,0.1-6.5,0-9.6
	C14.2,23.7,13.8,23.7,13.4,23.8z M18.1,33.3c0.1-4,0.1-8-0.1-12.1c-0.3,0.3-0.5,0.5-0.7,0.8c-0.1,0.1-0.2,0.3-0.2,0.5
	c0.1,3.5,0.1,7,0,10.5c0,0.1,0,0.2,0,0.3C17.5,33.3,17.8,33.3,18.1,33.3z M16.3,22.9c-0.3,0.1-0.5,0.3-0.7,0.3
	c-0.2,0.1-0.3,0.2-0.3,0.4c0.1,3.1,0.1,6.2,0,9.3c0,0.1,0,0.2,0,0.3c0.3,0,0.6,0,0.9,0C16.4,29.8,16.4,26.4,16.3,22.9z M12.4,15.7
	c0-0.4-0.4-0.7-0.8-0.7c-0.4,0-0.7,0.3-0.7,0.7c0,0.4,0.4,0.8,0.8,0.7C12,16.5,12.4,16.1,12.4,15.7z"/>
<path fill="#FFFFFF" d="M26.3,15.6c1.1-0.1,2.2,0.1,3.2,0.4c2,0.5,3.6,1.6,4.7,3.4c0.3,0.5,0.7,0.9,1.2,1.2c0.4,0.2,0.8,0.3,1.3,0.3
	c0-0.5,0.1-1,0.1-1.5c0.1-0.7,0.1-0.7,0.8-0.7c0.1,0,0.1,0,0.2,0c0-0.3,0.1-0.7,0.1-1.1c0-0.1-0.1-0.1-0.2-0.2
	c-0.6-0.3-0.9-0.9-0.8-1.6c0.1-0.7,0.6-1.2,1.3-1.3c0.9-0.2,1.7,0.2,1.9,1c0.2,0.7-0.2,1.6-1,1.9c-0.2,0.1-0.3,0.1-0.3,0.3
	c0,0.3-0.1,0.6-0.1,0.9c0.2,0,0.3,0,0.5,0c0.3,0,0.4,0.2,0.4,0.5c0,0.1,0,0.2,0,0.3c-0.4,5.3-0.4,10.6-0.2,15.9
	c0,0.6-0.1,0.7-0.7,0.7c-0.5,0-0.9,0.1-1.4,0.1c-0.4,0-0.5-0.1-0.5-0.5s0-0.8-0.1-1.3c-0.3,0-0.7-0.1-1-0.1
	c-2.3-0.1-4.5-0.2-6.8-0.3c-0.9-0.1-1.8-0.1-2.7-0.2c-0.5,0-0.5-0.1-0.5-0.6c0-4.7,0-9.4,0-14.2c0-0.9,0-1.8,0-2.8
	c0-0.3,0-0.7,0.1-1c0-0.3,0.1-0.4,0.4-0.4c0.3,0,0.4,0.1,0.5,0.4C26.3,15.2,26.3,15.4,26.3,15.6z M27.4,32.8c0-0.1,0-0.3,0-0.4
	c0-4.5,0-9,0.1-13.4c0-0.1,0-0.1,0-0.1c-0.1-0.1-0.1-0.2-0.2-0.2c-0.2-0.1-0.5,0-0.7,0c-0.3,0-0.3,0.1-0.3,0.4c0,4.5,0,8.9,0,13.4
	c0,0.1,0,0.2,0,0.3C26.7,32.7,27,32.7,27.4,32.8z M36.5,21.6c-0.3,0-0.5,0-0.7-0.1c-1-0.2-1.6-0.8-2.2-1.6c-0.4-0.7-0.9-1.2-1.4-1.7
	c-1.3-1.1-2.8-1.6-4.4-1.8c-0.5-0.1-0.9,0-1.4,0c0,0.5,0,0.9,0,1.3c0.1,0,0.3,0,0.4,0c1.1-0.1,2.2,0.2,3.2,0.7
	c1.1,0.5,2,1.3,2.7,2.3c0.7,1.1,1.6,1.8,2.7,2c0.4,0.1,0.8,0.1,1.2,0.2C36.5,22.5,36.5,22,36.5,21.6z M37.5,19.4
	c-0.3,5.2-0.3,10.4-0.1,15.6c0.3,0,0.6,0,0.9-0.1c-0.2-5.2-0.2-10.3,0.1-15.5C38.2,19.4,37.8,19.4,37.5,19.4z M30.1,19.4
	c-0.1,4.5-0.1,9-0.1,13.5c0.3,0,0.6,0,0.9,0.1c0-0.1,0-0.1,0-0.1c-0.1-4.2,0-8.4,0.1-12.6c0-0.1,0-0.2-0.1-0.3
	C30.7,19.8,30.4,19.6,30.1,19.4z M35.3,23.7c-0.1,3.2-0.1,6.3,0,9.5c0.4,0,0.8,0,1.2,0.1c-0.1-3.2-0.1-6.3,0-9.5
	C36.1,23.7,35.7,23.7,35.3,23.7z M28.4,18.8c-0.1,4.7-0.1,9.3-0.1,14c0.3,0,0.6,0,0.9,0.1c0-0.2,0-0.3,0-0.4
	c-0.1-4.2,0-8.4,0.1-12.7C29.3,18.9,29.2,18.9,28.4,18.8z M31.9,21.2c-0.1,3.9-0.1,7.9-0.1,11.8c0.3,0,0.6,0,0.9,0.1
	c0-0.1,0-0.1,0-0.1c-0.1-3.5-0.1-7,0.1-10.5c0-0.1-0.1-0.2-0.1-0.3C32.4,21.8,32.1,21.5,31.9,21.2z M34.4,33.1c0-0.1,0-0.3,0-0.4
	c-0.1-1.7-0.1-3.4-0.1-5.1c0-1.3,0-2.7,0.1-4c0-0.1,0-0.3-0.1-0.3c-0.3-0.1-0.5-0.3-0.9-0.5c-0.1,3.4-0.1,6.8,0,10.2
	C33.8,33.1,34.1,33.1,34.4,33.1z M38.2,16.5c0.5,0,0.8-0.3,0.8-0.7c0.1-0.4-0.3-0.7-0.7-0.7s-0.8,0.3-0.8,0.7S37.8,16.5,38.2,16.5z"
	/>
</svg>
