<?xml version="1.0" encoding="utf-8"?>
<!-- Generator: Adobe Illustrator 23.0.0, SVG Export Plug-In . SVG Version: 6.00 Build 0)  -->
<svg version="1.0" id="Layer_1" xmlns="http://www.w3.org/2000/svg" xmlns:xlink="http://www.w3.org/1999/xlink" x="0px" y="0px"
	 viewBox="0 0 50 50" enable-background="new 0 0 50 50" xml:space="preserve">
<path fill="#FFFFFF" d="M10.6,29.2c-0.6-0.6,0.7-0.9,1.2-0.5c0.7,0.5,1.6,0.5,2.4-0.1c1.3-1.1,2.8-1.1,3.9-0.1
	c0.7,0.6,1.5,0.5,2.2-0.1c0.1-0.1,0.2-0.3,0.2-0.4c0.1-3.5,0.1-6.8,0.1-10.6c0-0.1,0-0.2,0-0.3c-0.1,0-0.3,0-0.3,0
	c-2.6-0.1-5.3-0.2-8.2-0.4c-0.3,0-0.6-0.1-0.8-0.5c0-0.1,0-0.2,0-0.3c0.2-0.3,0.5-0.4,0.8-0.3c0.3,0.1,0.5,0,0.8,0.1
	c0.3,0,0.6,0,0.9,0.1c0.4-2.6,2.3-4.5,4.5-4.7c1.1-0.1,2,0.1,3,0.8c1.4,1,2.2,2.5,2.4,4.2c0.5,0,1.1,0,1.6,0c0.3-2.8,2.4-4.9,4.6-5
	c1.1-0.1,2.1,0.3,3,1c1.2,1,1.9,2.2,2.1,3.8c0.9-0.1,1.8-0.1,2.8-0.1c0.3,0,0.6,0.1,0.8,0.3c0,0.1,0,0.2,0,0.3
	c-0.1,0.3-0.4,0.4-0.8,0.5c-0.9,0-1.6,0.1-2.4,0.1c-0.1,0-0.2,0-0.3,0c0,0.1,0,0.1,0,0.1c0,3.9,0.1,7.6,0.3,11.3
	c0,0.1,0,0.1,0.1,0.2c0.7,0.7,1.8,0.9,2.6,0.3c0.5-0.3,1-0.3,1.2,0.2c0.1,0.2,0,0.4-0.2,0.5c-0.2,0.1-0.5,0.4-0.8,0.5
	c-1.1,0.5-2.4,0.2-3.4-0.6c-0.7-0.7-1.6-0.7-2.3-0.1c-1.1,1-2.7,0.9-3.8-0.1c-0.6-0.6-1.4-0.6-2,0c-1.1,1-2.4,1-3.6,0
	c-0.7-0.6-1.4-0.5-2.1,0.1c-1.1,1-2.6,1.1-3.7,0.1c-0.2-0.1-0.4-0.3-0.6-0.3c-0.7-0.2-1.2,0-1.8,0.5C13.7,30.4,11.7,30.4,10.6,29.2z
	 M23.7,28c0,0.1,0.1,0.1,0.1,0.2c0.7,0.7,1.5,0.7,2.2,0.1c1.1-0.9,2.4-0.9,3.5,0.1c0.2,0.1,0.4,0.3,0.7,0.4c0.5,0.2,0.9,0.1,1.4-0.1
	c0.5-0.3,0.5-0.6,0.4-1c-0.1-0.5-0.1-1.1-0.1-1.4c-2.9,0-5.5,0-8.1,0C23.7,26.5,23.7,27.4,23.7,28z M31.8,17
	c-2.8,0.1-5.4,0.1-8.1,0.1c0,0.5,0,1.4,0,1.9c2.6,0,5.3,0,8.1-0.1C31.8,18.4,31.8,17.5,31.8,17z M31.8,22.8c-2.8,0.1-5.4,0.1-8,0.1
	c0,0.5,0,1.8,0,2.3c2.6,0,5.1,0,8-0.1C31.8,24.6,31.8,23.3,31.8,22.8z M31.8,21.9c0-0.3,0-1.8,0-2.1c-2.8,0.1-5.4,0.1-8,0.1
	c0,0.3,0,1.8,0,2.1C26.4,22,28.9,22,31.8,21.9z M20.6,15.9c-0.2-0.7-0.9-1.4-1.7-1.4c-0.8,0-1.5,0.5-1.6,1.3
	C18.3,15.8,19.4,15.8,20.6,15.9z M28.5,15.9c1.1,0,2.2-0.1,3.3-0.1c-0.1-0.7-0.9-1.3-1.6-1.3C29.3,14.5,28.6,15.2,28.5,15.9z"/>
<path fill="#FFFFFF" d="M11.4,37.5c0.7,0.5,1.5,0.5,2.2-0.1c0.5-0.5,1.1-0.8,1.7-0.9c0.9-0.1,1.6,0.1,2.2,0.7c0.5,0.5,1,0.7,1.6,0.5
	c0.3-0.1,0.5-0.3,0.8-0.5c1.2-1.2,2.7-1.2,3.9,0c0.7,0.7,1.6,0.7,2.3,0c1.2-1.1,2.6-1.1,3.9,0c0.8,0.7,1.6,0.7,2.4,0.1
	c1.1-1.1,2.6-1,3.9,0.1c0.8,0.7,1.7,0.7,2.4,0c0.5-0.3,1.7,0.2,1.1,0.6c-0.2,0.2-0.5,0.5-0.7,0.6c-0.3,0.2-1.2,0.5-1.8,0.5
	c-0.7-0.1-1.3-0.5-1.8-1c-0.6-0.5-1.5-0.5-2,0c-0.5,0.5-1.1,0.9-1.7,1c-0.3,0-0.5,0-0.7,0c-0.7-0.1-1.3-0.5-1.8-1.1
	c-0.6-0.5-1.4-0.5-2,0s-1.1,0.9-1.7,1.1c-0.3,0-0.5,0-0.8,0c-0.7-0.2-1.2-0.6-1.8-1.1c-0.5-0.5-1.4-0.5-2,0.1
	c-0.5,0.5-1.1,0.9-1.8,1.1c-0.3,0-0.5,0-0.7,0c-0.7-0.1-1.2-0.5-1.7-1c-0.5-0.5-1.4-0.5-2,0c-0.6,0.5-1.2,0.8-1.8,1
	c-0.9,0.1-2-0.6-2.5-1C9.4,37.6,10.9,37.2,11.4,37.5z"/>
<g>
	<path fill="#FFFFFF" d="M25.4,33C25.4,33,25.4,33,25.4,33c-0.5,0.1-1,0-1.5-0.4c-1.1-1-2.5-1-3.7,0.1c-0.8,0.7-1.6,0.7-2.3,0.1
		c-0.2-0.2-0.4-0.3-0.7-0.5C16.2,31.8,15,32,14,32.9c0,0-0.6,0.4-0.4,0.8c0.2,0.4,0.8,0.1,0.8,0.1c0.1-0.1,0.2-0.1,0.3-0.2
		c0.9-0.7,1.7-0.8,2.4-0.1c1.1,1.1,2.6,1,3.9-0.1c0.7-0.7,1.6-0.7,2.2,0c0.1,0.1,0.4,0.3,0.6,0.5c0.6,0.3,1.3,0.4,1.9,0.2
		c0,0,0.7-0.4,0.5-0.9C26.1,32.6,25.4,33,25.4,33z"/>
</g>
</svg>
