<?xml version="1.0" encoding="utf-8"?>
<!-- Generator: Adobe Illustrator 23.0.0, SVG Export Plug-In . SVG Version: 6.00 Build 0)  -->
<svg version="1.0" id="Layer_1" xmlns="http://www.w3.org/2000/svg" xmlns:xlink="http://www.w3.org/1999/xlink" x="0px" y="0px"
	 viewBox="0 0 50 50" enable-background="new 0 0 50 50" xml:space="preserve">
<path fill="#FFFFFF" d="M10.8,27.6c0.3-0.7,0.8-1.1,1.6-1.1c0.1-0.5,0.1-1,0.1-1.5c0.7-4.4,2.8-7.8,6.2-10.4
	c0.3-0.2,0.6-0.2,0.6,0.1c0.1,0.2,0,0.4-0.2,0.6c-0.8,0.6-1.5,1.2-2.1,2c-2.3,2.5-3.5,5.5-3.7,9c0,0,0,0.1,0,0.1
	c8.1,0.1,16.2,0.1,24.3,0c0-0.1,0-0.1,0-0.2c-0.4-6.2-4.5-11.7-10-12.9c-2.4-0.5-4.7-0.2-6.9,1c-0.1,0-0.1,0.1-0.1,0.1
	c-0.3,0.1-0.5,0.1-0.6-0.2c-0.1-0.2,0-0.5,0.3-0.6c1-0.6,2.1-0.9,3.2-1.1c0.1,0,0.1-0.1,0.2-0.1c0-0.7,0.1-1.4,0.6-1.9
	c0.4-0.3,0.7-0.5,1.1-0.5c1,0,1.6,0.8,1.8,2.3c3.1,0.6,5.6,2.2,7.7,4.9s3.3,5.7,3.5,9.2c0.1,0,0.2,0,0.4,0.1
	c0.7,0.1,1.2,0.9,1.2,1.6s-0.5,1.3-1.3,1.3c-0.4,0-0.9,0-1.4,0c0.1,0.6-0.1,1-0.4,1.4c-1.3,1.2-2.6,2.4-3.9,3.7
	c-0.6,0.6-1.3,0.8-2.1,0.8s-1.5,0-2.3,0c-0.4,0-0.6-0.1-0.6-0.4c0-0.3,0.2-0.4,0.6-0.4c0.1,0,0.1,0,0.2,0c0.6,0,1.4,0,2,0
	c0.6,0,1.1-0.2,1.5-0.6c1.4-1.3,2.6-2.5,3.9-3.7c0.3-0.3,0.3-0.5-0.1-0.7c-0.5-0.3-1.1-0.3-1.5,0.1c-0.5,0.5-1.1,1-1.6,1.5
	c-0.6,0.6-1.5,0.9-2.4,1c-1.3,0-2.6,0-3.9,0c-0.1,0-0.1,0-0.1,0c-0.2-0.1-0.4-0.2-0.4-0.4s0.2-0.4,0.4-0.4c0.7,0,1.4,0,2.1,0
	c0.6,0,1.2,0,1.8,0c0.5,0,0.9-0.3,0.9-0.7c0-0.4-0.4-0.8-0.9-0.8c-0.1,0-0.1,0-0.2,0c-2.4,0-4.9,0-7.4,0c-0.1,0-0.1,0-0.2,0
	c0,1.6-0.1,3.2-0.1,4.9c0.1,0,0.3,0,0.4,0c1.1,0,2.3,0,3.4,0c0.1,0,0.2,0,0.4,0c0.2,0.1,0.4,0.2,0.4,0.4s-0.1,0.4-0.4,0.4
	c-0.1,0-0.2,0-0.4,0c-1.1,0-2.3,0-3.4,0c-0.1,0-0.2,0-0.4,0c0,0.1,0,0.2,0,0.4c0,1-0.1,1.9-0.1,2.9c0,0.7-0.6,1.4-1.4,1.3
	c-2.4,0-4.9-0.1-7.3-0.2c-0.8,0-1.3-0.6-1.2-1.4c0.1-0.6,0.1-1.2,0.2-1.9c0-0.1,0-0.2,0.1-0.4c-0.6,0-1.1-0.1-1.6-0.1
	c-0.5,0-0.9-0.2-1.1-0.6C10,35.3,10,34.9,10,34.7c0.2-1.6,0.4-3.2,0.6-4.8c0.1-0.3,0.2-0.6,0.4-1c-0.1-0.1-0.1-0.4-0.2-0.6
	C10.8,28,10.8,27.8,10.8,27.6z M21.8,34.2c0.1-1.4,0.1-2.8,0.1-4.1c0-0.4-0.1-0.6-0.5-0.6c-2.1,0-4.3,0-6.4-0.1
	c-0.4,0-0.6,0.1-0.6,0.6c-0.2,2.7-0.5,5.4-0.8,8.2c-0.1,0.5,0.1,0.6,0.6,0.6c2.3,0.1,4.6,0.1,6.9,0.2c0.5,0,0.6-0.1,0.6-0.6
	C21.8,37,21.8,35.6,21.8,34.2z M25.4,27.4c-4.3,0-8.6,0-12.9-0.1c-0.1,0-0.2,0-0.3,0c-0.3,0-0.5,0.2-0.6,0.5s0.1,0.5,0.3,0.6
	c0.1,0.1,0.2,0.1,0.4,0.1c7.3,0.1,14.5,0.1,21.8,0.1c0.1,0,0.3-0.1,0.4-0.1c0.5-0.2,1-0.4,1.6-0.1c0.4,0.2,0.9,0.2,1.3,0.2
	c0.4,0,0.6,0,1,0c0.6,0,0.8-0.2,0.7-0.6c-0.1-0.4-0.3-0.6-0.9-0.6C34,27.4,29.7,27.4,25.4,27.4z M13,35.2c0.2-1.9,0.4-3.9,0.6-5.9
	c-0.5,0-0.9,0-1.4,0c-0.4,0-0.6,0.1-0.6,0.6s-0.1,0.9-0.1,1.4c-0.1,1.1-0.3,2.2-0.4,3.4c-0.1,0.4,0.1,0.5,0.4,0.6
	C11.9,35.2,12.4,35.2,13,35.2z M26.3,12.3c0.1-0.5-0.1-0.9-0.5-1.1s-0.7-0.2-1.1,0.1c-0.3,0.2-0.4,0.6-0.4,1.1
	C25.1,12.3,25.7,12.3,26.3,12.3z M32.3,30.4c0.4-0.3,0.6-0.6,1-0.9c-0.5,0-0.9,0-1.2,0C32.2,29.8,32.3,30.1,32.3,30.4z"/>
</svg>
