<?xml version="1.0" encoding="utf-8"?>
<!-- Generator: Adobe Illustrator 23.0.0, SVG Export Plug-In . SVG Version: 6.00 Build 0)  -->
<svg version="1.0" id="Layer_1" xmlns="http://www.w3.org/2000/svg" xmlns:xlink="http://www.w3.org/1999/xlink" x="0px" y="0px"
	 viewBox="0 0 50 50" enable-background="new 0 0 50 50" xml:space="preserve">
<path fill="#FFFFFF" d="M35.2,18.6c0.3-0.2,0.5-0.4,0.7-0.6c0.4-0.4,0.3-0.6,0-0.9c-0.4-0.3-0.7-0.7-1.1-1c-0.5-0.5-0.6-0.4-1.1,0
	c-0.1,0.2-0.3,0.4-0.5,0.6c-1.1-0.8-2.1-1.4-3.2-1.8c-1.1-0.4-2.3-0.8-3.5-0.9c0-0.3,0,0,0-0.4c0.2,0,0.4,0,0.5,0c0.6-0.1,1-0.4,1-1
	c0-0.2,0-0.5,0-0.7c0.1-0.6-0.2-1.1-0.8-1.2c-1.5,0-3,0-4.5,0.1c-0.6,0.2-0.8,0.6-0.8,1.2c0,0.3,0,0.5,0,0.7c0,0.7,0.4,1.1,1.1,1.1
	c0.1,0,0.3,0,0.4,0c0,0.3,0,0.1,0,0.4c-2.4,0.3-4.6,1.2-6.6,2.7c-0.2-0.2-0.4-0.5-0.6-0.7c-0.3-0.3-0.6-0.4-0.9,0
	c-0.4,0.4-0.9,0.8-1.3,1.2c-0.3,0.3-0.3,0.5,0,0.8c0.2,0.3,0.5,0.5,0.7,0.7c-4.2,4.8-3.3,14.1,1.8,18c4.9,4,12.1,3.9,17-0.1
	C38.5,32.4,39.5,23.3,35.2,18.6z M25,36.6c-5.6,0-10.1-4.4-10.1-9.9c0-5.5,4.5-9.9,10.1-9.9c5.5,0,10.1,4.4,10.1,9.9
	C35.1,32.2,30.5,36.6,25,36.6z M26.9,20c0.1-0.3,0.1-0.6,0.3-0.9c2.2,0.6,3.9,1.9,5,3.9c1.2,2.3,1.3,4.6,0.3,6.9
	c-0.1,0-0.1,0-0.1-0.1c-0.3-0.1-0.5-0.2-0.8-0.3c0.8-1.9,0.8-3.9-0.1-5.8C30.5,21.8,28.9,20.6,26.9,20z M29.4,30.3
	c-0.2,0.3-0.5,0.5-0.8,0.7c-0.1-0.1-0.1-0.2-0.2-0.3c-0.8-0.9-1.7-1.7-2.6-2.5c-0.1-0.1-0.2-0.2-0.4-0.1c-0.8,0.3-1.8-0.2-1.9-1.1
	c-0.2-0.9,0.3-1.7,1.3-1.8c0.9-0.1,1.7,0.5,1.7,1.4c0,0.1,0,0.3-0.1,0.5c-0.1,0.2,0,0.3,0.1,0.5c0.8,0.9,1.7,1.7,2.6,2.5
	C29.2,30.2,29.3,30.2,29.4,30.3z"/>
</svg>
