<?xml version="1.0" encoding="utf-8"?>
<!-- Generator: Adobe Illustrator 23.0.0, SVG Export Plug-In . SVG Version: 6.00 Build 0)  -->
<svg version="1.0" id="Layer_1" xmlns="http://www.w3.org/2000/svg" xmlns:xlink="http://www.w3.org/1999/xlink" x="0px" y="0px"
	 viewBox="0 0 50 50" enable-background="new 0 0 50 50" xml:space="preserve">
<path fill="#FFFFFF" d="M31.6,14.3c0.5-0.3,1-0.5,1.5-0.8c0.3-0.1,0.4-0.1,0.6-0.1c1.8,0.8,3.6,1.6,5.3,2.4c0.2,0.1,0.3,0.3,0.3,0.6
	c-0.4,2.4-0.7,4.7-1,7.1c0,0.3-0.1,0.5-0.4,0.6c-0.4,0.2-0.7,0.4-1.2,0.6c0.4,0.2,0.6,0.4,0.9,0.6c0.2,0.1,0.3,0.4,0.3,0.6
	c-0.2,2.4-0.4,4.7-0.5,7.1c0,0.3-0.1,0.4-0.4,0.6c-1.7,0.9-3.3,1.7-5,2.6c-0.2,0.1-0.4,0.1-0.6,0c-0.4-0.3-0.8-0.5-1.2-0.8
	c0,0.4,0,0.9,0,1.2c0,0.4-0.1,0.5-0.4,0.6c-1.6,0.9-3.2,1.7-4.7,2.7c-0.2,0.1-0.4,0.1-0.6,0c-1.6-0.9-3.2-1.8-4.7-2.7
	c-0.3-0.1-0.4-0.3-0.4-0.6c0-0.4,0-0.8,0-1.2c-0.4,0.3-0.8,0.5-1.2,0.8c-0.2,0.1-0.4,0.1-0.6,0.1c-1.6-0.9-3.2-1.7-4.9-2.5
	c-0.2-0.1-0.4-0.3-0.4-0.6c-0.1-2.4-0.3-4.7-0.5-7.1c0-0.3,0.1-0.5,0.3-0.6c0.4-0.2,0.6-0.4,1-0.6c-0.4-0.2-0.8-0.4-1.2-0.6
	c-0.2-0.1-0.4-0.3-0.4-0.6c-0.3-2.4-0.6-4.7-1-7.1c-0.1-0.3,0-0.4,0.2-0.5c1.7-0.8,3.5-1.6,5.3-2.4c0.2-0.1,0.4-0.1,0.6,0.1
	c0.5,0.3,1,0.5,1.5,0.8c-0.1-0.4-0.1-0.9-0.1-1.2c-0.1-0.3,0.1-0.5,0.4-0.6c1.9-0.8,3.8-1.7,5.8-2.5c0.4-0.1,0.6-0.1,0.9,0
	c2,0.9,3.9,1.7,5.8,2.5c0.4,0.1,0.4,0.4,0.4,0.6C31.7,13.5,31.7,13.8,31.6,14.3z M30.3,21.5c-0.1,0.1-0.2,0.1-0.3,0.1
	c-1.4,0.8-2.9,1.5-4.2,2.3c-0.2,0.1-0.3,0.2-0.2,0.4c0,1.8,0,3.6,0,5.4c0,0.1,0,0.1,0,0.3c0.1-0.1,0.2-0.1,0.3-0.1
	c1.4-0.7,2.7-1.5,4-2.2c0.2-0.1,0.2-0.2,0.3-0.4c0.1-1.8,0.1-3.7,0.2-5.5C30.3,21.7,30.3,21.5,30.3,21.5z M38.5,17
	c-0.1,0.1-0.2,0.1-0.3,0.1c-1.6,0.9-3.2,1.8-4.7,2.6c-0.2,0.1-0.3,0.2-0.3,0.4c-0.1,1.9-0.3,3.7-0.4,5.6c0,0.1,0,0.1,0,0.2
	c0.1,0,0.1,0,0.1,0c1.5-0.8,3-1.7,4.6-2.5c0.1-0.1,0.1-0.2,0.2-0.4c0.1-0.9,0.2-1.9,0.4-2.9C38.1,19.2,38.3,18.2,38.5,17z
	 M37.4,26.4c-0.1,0.1-0.2,0.1-0.4,0.1c-1.4,0.8-2.8,1.5-4.2,2.2c-0.2,0.1-0.2,0.2-0.3,0.4c-0.1,1.9-0.1,3.7-0.1,5.6
	c0,0.1,0,0.2,0,0.3c0.1,0,0.1,0,0.1,0c1.4-0.7,2.8-1.5,4.2-2.2c0.1,0,0.1-0.1,0.1-0.2C37.1,30.6,37.1,28.5,37.4,26.4z M25.5,38.9
	c0.1,0,0.1-0.1,0.1-0.1c1.4-0.8,2.7-1.5,4.1-2.3c0.1-0.1,0.1-0.2,0.1-0.4c0-1.9,0-3.7,0.1-5.5c0-0.1,0-0.1,0-0.3c-0.1,0-0.1,0-0.1,0
	c-1.4,0.8-2.9,1.6-4.2,2.4c-0.1,0.1-0.1,0.2-0.1,0.3c0,0.9,0,1.7,0,2.6C25.5,36.7,25.5,37.8,25.5,38.9z M17.5,26.2
	c0-0.1,0-0.2,0-0.4c-0.1-1.9-0.2-3.7-0.4-5.5c0-0.2-0.1-0.4-0.3-0.4c-1.3-0.6-2.5-1.4-3.9-2.2c-0.4-0.2-0.7-0.4-1.2-0.6
	c0,0.1,0.1,0.3,0.1,0.4c0.3,1.8,0.5,3.6,0.7,5.4c0.1,0.4,0.2,0.7,0.6,0.9C14.6,24.5,16,25.4,17.5,26.2z M24.8,30c0-0.1,0-0.1,0-0.1
	c0-1.9,0-3.7,0-5.6c0-0.2-0.1-0.3-0.2-0.4c-1.4-0.7-2.8-1.5-4.3-2.3c-0.1-0.1-0.1-0.1-0.3-0.1c0.1,2,0.2,4,0.3,5.9
	c0,0.1,0.1,0.2,0.2,0.2c0.4,0.2,0.9,0.5,1.3,0.7C22.7,28.9,23.7,29.5,24.8,30z M12.9,26.4c0,0.1,0,0.1,0,0.2c0.1,2,0.3,4,0.4,6
	c0,0.2,0.1,0.3,0.2,0.4c1.4,0.7,2.7,1.4,4.1,2.2c0.1,0,0.1,0.1,0.2,0.1c0-2-0.1-4-0.1-6c0-0.1-0.1-0.2-0.1-0.2
	c-0.5-0.3-1-0.6-1.5-0.8C15,27.6,14,27,12.9,26.4z M20.3,30.4C20.3,30.5,20.3,30.5,20.3,30.4c0.1,2,0.1,4,0.1,5.9
	c0,0.1,0.1,0.2,0.2,0.3c1.3,0.7,2.7,1.4,4,2.2c0.1,0.1,0.1,0.1,0.2,0.1c0-0.1,0-0.1,0-0.1c0-1.9,0-3.8,0-5.8c0-0.1-0.1-0.2-0.1-0.3
	c-0.5-0.3-0.9-0.6-1.4-0.8C22.2,31.4,21.3,30.9,20.3,30.4z M30.4,12.9c-0.1-0.1-0.1-0.1-0.1-0.1c-1.6-0.7-3.2-1.4-5-2.2
	c-0.1-0.1-0.4,0-0.4,0c-1.7,0.7-3.2,1.4-4.7,2.2c-0.1,0-0.1,0.1-0.2,0.1c0.1,0.1,0.3,0.1,0.4,0.2c1.5,0.7,2.9,1.4,4.3,2.2
	c0.4,0.2,0.7,0.2,1.1,0C27.2,14.6,28.7,13.8,30.4,12.9z M12.1,16.4c0.1,0.1,0.1,0.1,0.1,0.1c1.7,0.9,3.3,1.9,5,2.7
	c0.1,0.1,0.3,0.1,0.4,0c1.4-0.7,2.8-1.4,4.3-2.2c0.1-0.1,0.1-0.1,0.3-0.1c-1.7-0.9-3.4-1.7-5.2-2.7c-0.1-0.1-0.2,0-0.3,0
	c-0.4,0.1-0.8,0.4-1.2,0.5C14.4,15.3,13.3,15.8,12.1,16.4z M28.1,16.9c0.1,0.1,0.1,0.1,0.1,0.1c1.5,0.8,3,1.5,4.5,2.2
	c0.1,0.1,0.3,0,0.4-0.1c1.3-0.6,2.6-1.4,3.9-2.2c0.4-0.2,0.7-0.4,1.2-0.6c-0.1-0.1-0.2-0.1-0.4-0.1c-1.2-0.6-2.4-1.1-3.7-1.7
	c-0.6-0.3-1-0.2-1.6,0.1C31.1,15.4,29.6,16.2,28.1,16.9z M20.4,20.8c0.1,0.1,0.1,0.1,0.1,0.1c1.5,0.8,3,1.6,4.5,2.4
	c0.1,0.1,0.3,0.1,0.4,0c1.4-0.7,2.9-1.5,4.4-2.3c0.1-0.1,0.1-0.1,0.2-0.1c-1.5-0.8-3-1.6-4.6-2.4c-0.1-0.1-0.2,0-0.4,0
	c-0.5,0.2-1,0.5-1.5,0.7C22.4,19.7,21.4,20.3,20.4,20.8z M18.2,26.2c0.4-0.2,0.6-0.4,0.9-0.6c0.1-0.1,0.2-0.2,0.2-0.4
	c-0.1-1.4-0.1-2.8-0.2-4.2c0-0.4,0.1-0.5,0.4-0.6c0.9-0.5,1.9-1,2.9-1.5c0.1-0.1,0.2-0.1,0.2-0.2c0-0.4,0-0.7,0-1.1
	c-0.1,0.1-0.2,0.1-0.3,0.1c-1.4,0.7-2.9,1.4-4.2,2.2c-0.2,0.1-0.3,0.2-0.2,0.4c0.1,1.9,0.3,3.7,0.4,5.5C18.2,25.9,18.2,26,18.2,26.2
	z M32,26.1c0-0.1,0-0.1,0-0.1c0.1-1.9,0.2-3.8,0.4-5.8c0-0.2-0.1-0.3-0.2-0.4c-1.4-0.7-2.8-1.4-4.3-2.2c-0.1-0.1-0.1-0.1-0.3-0.1
	c0,0.4,0,0.6,0,0.9c0,0.2,0.1,0.3,0.2,0.4c1,0.5,1.9,1,2.9,1.4c0.3,0.1,0.4,0.4,0.4,0.6c-0.1,1.4-0.1,2.7-0.2,4.2
	c0,0.1,0,0.3,0.1,0.4C31.3,25.7,31.7,25.9,32,26.1z M20.7,29.7c1.5,0.8,2.9,1.6,4.3,2.4c0.1,0.1,0.2,0,0.3,0
	c0.7-0.4,1.4-0.8,2.2-1.2c0.6-0.4,1.4-0.7,2.1-1.2c-0.3-0.1-0.5-0.3-0.7-0.4c-0.1-0.1-0.3-0.1-0.4,0c-1,0.6-1.9,1.1-2.9,1.7
	c-0.2,0.1-0.4,0.1-0.6,0c-1-0.6-1.9-1.1-2.9-1.7c-0.1-0.1-0.2-0.1-0.3-0.1C21.2,29.4,21,29.5,20.7,29.7z M20.9,28.7
	c-0.4-0.2-0.6-0.4-0.9-0.5c-0.1-0.1-0.2,0-0.3,0c-0.4,0.2-0.7,0.4-1.1,0.6c-0.1,0.1-0.2,0.2-0.2,0.4c0.1,1.9,0.1,3.7,0.1,5.6
	c0,0.1,0,0.1,0,0.3c0.4-0.2,0.6-0.4,0.9-0.6c0.1-0.1,0.2-0.2,0.2-0.4c0-1.4-0.1-2.8-0.1-4.2c0-0.3,0.1-0.5,0.4-0.6
	C20.2,29.2,20.5,29,20.9,28.7z M31.7,35.1C31.7,35.1,31.7,35.1,31.7,35.1c0-2,0.1-4,0.1-6c0-0.1-0.1-0.2-0.1-0.3
	c-0.4-0.2-0.7-0.4-1.2-0.6c-0.1,0-0.1-0.1-0.2-0.1c-0.4,0.1-0.6,0.4-1,0.6c0.4,0.2,0.6,0.4,0.9,0.6s0.4,0.4,0.4,0.7
	c-0.1,1.4-0.1,2.8-0.1,4.2c0,0.1,0,0.3,0.1,0.3C31,34.7,31.4,34.9,31.7,35.1z M23.4,18.4c0.4-0.2,0.8-0.4,1.2-0.6
	c0.1-0.1,0.1-0.1,0.1-0.2c0-0.4,0-0.7,0-1.1c0-0.1-0.1-0.3-0.2-0.4c-1.6-0.8-3.2-1.6-4.8-2.4c-0.1-0.1-0.1-0.1-0.3-0.1
	c0,0.3,0.1,0.5,0.1,0.8c0,0.3,0.1,0.5,0.4,0.6c1.1,0.5,2.1,1.1,3.1,1.6c0.3,0.1,0.4,0.3,0.4,0.6C23.4,17.5,23.4,17.9,23.4,18.4z
	 M26.8,18.4c0-0.4,0.1-0.9,0-1.2c0-0.3,0.1-0.5,0.4-0.6c1.1-0.5,2.1-1.1,3.2-1.7c0.1-0.1,0.2-0.1,0.3-0.3c0.1-0.4,0.1-0.7,0.1-1.1
	c-0.1,0.1-0.2,0.1-0.3,0.1c-1.3,0.6-2.6,1.3-3.8,1.9c-0.4,0.2-0.9,0.4-1.2,0.6c-0.2,0.4-0.1,0.9-0.1,1.2v0.1c0,0.1,0.1,0.1,0.1,0.2
	C26,17.9,26.4,18.2,26.8,18.4z M37,25.8c-0.3-0.1-0.5-0.3-0.8-0.5c-0.1-0.1-0.3-0.1-0.4,0c-1.1,0.6-2.1,1.2-3.1,1.7
	c-0.2,0.1-0.4,0.1-0.6,0c-0.4-0.2-0.8-0.4-1.2-0.7c0,0.4-0.1,0.6,0,1c0,0.1,0.1,0.2,0.1,0.3c0.4,0.2,0.8,0.5,1.2,0.7
	c0.1,0.1,0.3,0.1,0.4,0c0.4-0.2,0.9-0.5,1.3-0.7C34.8,26.9,35.9,26.4,37,25.8z M13.3,25.8c1.6,0.9,3.1,1.7,4.6,2.5
	c0.1,0.1,0.2,0,0.3,0c0.4-0.2,0.8-0.5,1.2-0.7c0.1-0.1,0.1-0.1,0.1-0.2c0-0.3,0-0.6,0-1c-0.4,0.2-0.9,0.4-1.2,0.7
	c-0.2,0.1-0.4,0.1-0.6,0c-1-0.6-2.1-1.2-3.2-1.7c-0.1-0.1-0.2-0.1-0.4-0.1C13.8,25.4,13.5,25.6,13.3,25.8z"/>
</svg>
